%TF.GenerationSoftware,KiCad,Pcbnew,7.0.6*%
%TF.CreationDate,2023-12-17T20:33:08-05:00*%
%TF.ProjectId,Crystal,43727973-7461-46c2-9e6b-696361645f70,rev?*%
%TF.SameCoordinates,PX1312d00PY1312d00*%
%TF.FileFunction,Legend,Bot*%
%TF.FilePolarity,Positive*%
%FSLAX46Y46*%
G04 Gerber Fmt 4.6, Leading zero omitted, Abs format (unit mm)*
G04 Created by KiCad (PCBNEW 7.0.6) date 2023-12-17 20:33:08*
%MOMM*%
%LPD*%
G01*
G04 APERTURE LIST*
%ADD10C,0.600000*%
%ADD11C,0.150000*%
G04 APERTURE END LIST*
D10*
X35207142Y-16585942D02*
X35349999Y-16728800D01*
X35349999Y-16728800D02*
X35778571Y-16871657D01*
X35778571Y-16871657D02*
X36064285Y-16871657D01*
X36064285Y-16871657D02*
X36492856Y-16728800D01*
X36492856Y-16728800D02*
X36778571Y-16443085D01*
X36778571Y-16443085D02*
X36921428Y-16157371D01*
X36921428Y-16157371D02*
X37064285Y-15585942D01*
X37064285Y-15585942D02*
X37064285Y-15157371D01*
X37064285Y-15157371D02*
X36921428Y-14585942D01*
X36921428Y-14585942D02*
X36778571Y-14300228D01*
X36778571Y-14300228D02*
X36492856Y-14014514D01*
X36492856Y-14014514D02*
X36064285Y-13871657D01*
X36064285Y-13871657D02*
X35778571Y-13871657D01*
X35778571Y-13871657D02*
X35349999Y-14014514D01*
X35349999Y-14014514D02*
X35207142Y-14157371D01*
X33921428Y-16871657D02*
X33921428Y-14871657D01*
X33921428Y-15443085D02*
X33778571Y-15157371D01*
X33778571Y-15157371D02*
X33635714Y-15014514D01*
X33635714Y-15014514D02*
X33349999Y-14871657D01*
X33349999Y-14871657D02*
X33064285Y-14871657D01*
X32349999Y-14871657D02*
X31635713Y-16871657D01*
X30921428Y-14871657D02*
X31635713Y-16871657D01*
X31635713Y-16871657D02*
X31921428Y-17585942D01*
X31921428Y-17585942D02*
X32064285Y-17728800D01*
X32064285Y-17728800D02*
X32349999Y-17871657D01*
X29921428Y-16728800D02*
X29635714Y-16871657D01*
X29635714Y-16871657D02*
X29064285Y-16871657D01*
X29064285Y-16871657D02*
X28778571Y-16728800D01*
X28778571Y-16728800D02*
X28635714Y-16443085D01*
X28635714Y-16443085D02*
X28635714Y-16300228D01*
X28635714Y-16300228D02*
X28778571Y-16014514D01*
X28778571Y-16014514D02*
X29064285Y-15871657D01*
X29064285Y-15871657D02*
X29492857Y-15871657D01*
X29492857Y-15871657D02*
X29778571Y-15728800D01*
X29778571Y-15728800D02*
X29921428Y-15443085D01*
X29921428Y-15443085D02*
X29921428Y-15300228D01*
X29921428Y-15300228D02*
X29778571Y-15014514D01*
X29778571Y-15014514D02*
X29492857Y-14871657D01*
X29492857Y-14871657D02*
X29064285Y-14871657D01*
X29064285Y-14871657D02*
X28778571Y-15014514D01*
X27778571Y-14871657D02*
X26635714Y-14871657D01*
X27350000Y-13871657D02*
X27350000Y-16443085D01*
X27350000Y-16443085D02*
X27207143Y-16728800D01*
X27207143Y-16728800D02*
X26921428Y-16871657D01*
X26921428Y-16871657D02*
X26635714Y-16871657D01*
X24350000Y-16871657D02*
X24350000Y-15300228D01*
X24350000Y-15300228D02*
X24492857Y-15014514D01*
X24492857Y-15014514D02*
X24778571Y-14871657D01*
X24778571Y-14871657D02*
X25350000Y-14871657D01*
X25350000Y-14871657D02*
X25635714Y-15014514D01*
X24350000Y-16728800D02*
X24635714Y-16871657D01*
X24635714Y-16871657D02*
X25350000Y-16871657D01*
X25350000Y-16871657D02*
X25635714Y-16728800D01*
X25635714Y-16728800D02*
X25778571Y-16443085D01*
X25778571Y-16443085D02*
X25778571Y-16157371D01*
X25778571Y-16157371D02*
X25635714Y-15871657D01*
X25635714Y-15871657D02*
X25350000Y-15728800D01*
X25350000Y-15728800D02*
X24635714Y-15728800D01*
X24635714Y-15728800D02*
X24350000Y-15585942D01*
X22492856Y-16871657D02*
X22778571Y-16728800D01*
X22778571Y-16728800D02*
X22921428Y-16443085D01*
X22921428Y-16443085D02*
X22921428Y-13871657D01*
X43992856Y-18701657D02*
X43278570Y-21701657D01*
X43278570Y-21701657D02*
X42707142Y-19558800D01*
X42707142Y-19558800D02*
X42135713Y-21701657D01*
X42135713Y-21701657D02*
X41421428Y-18701657D01*
X40278571Y-21701657D02*
X40278571Y-19701657D01*
X40278571Y-18701657D02*
X40421428Y-18844514D01*
X40421428Y-18844514D02*
X40278571Y-18987371D01*
X40278571Y-18987371D02*
X40135714Y-18844514D01*
X40135714Y-18844514D02*
X40278571Y-18701657D01*
X40278571Y-18701657D02*
X40278571Y-18987371D01*
X39278571Y-19701657D02*
X38135714Y-19701657D01*
X38850000Y-21701657D02*
X38850000Y-19130228D01*
X38850000Y-19130228D02*
X38707143Y-18844514D01*
X38707143Y-18844514D02*
X38421428Y-18701657D01*
X38421428Y-18701657D02*
X38135714Y-18701657D01*
X37135714Y-21701657D02*
X37135714Y-19701657D01*
X37135714Y-18701657D02*
X37278571Y-18844514D01*
X37278571Y-18844514D02*
X37135714Y-18987371D01*
X37135714Y-18987371D02*
X36992857Y-18844514D01*
X36992857Y-18844514D02*
X37135714Y-18701657D01*
X37135714Y-18701657D02*
X37135714Y-18987371D01*
X33421429Y-20558800D02*
X31135715Y-20558800D01*
X32278572Y-21701657D02*
X32278572Y-19415942D01*
X25992857Y-18701657D02*
X27421429Y-18701657D01*
X27421429Y-18701657D02*
X27564286Y-20130228D01*
X27564286Y-20130228D02*
X27421429Y-19987371D01*
X27421429Y-19987371D02*
X27135715Y-19844514D01*
X27135715Y-19844514D02*
X26421429Y-19844514D01*
X26421429Y-19844514D02*
X26135715Y-19987371D01*
X26135715Y-19987371D02*
X25992857Y-20130228D01*
X25992857Y-20130228D02*
X25850000Y-20415942D01*
X25850000Y-20415942D02*
X25850000Y-21130228D01*
X25850000Y-21130228D02*
X25992857Y-21415942D01*
X25992857Y-21415942D02*
X26135715Y-21558800D01*
X26135715Y-21558800D02*
X26421429Y-21701657D01*
X26421429Y-21701657D02*
X27135715Y-21701657D01*
X27135715Y-21701657D02*
X27421429Y-21558800D01*
X27421429Y-21558800D02*
X27564286Y-21415942D01*
X24850000Y-19701657D02*
X24135714Y-21701657D01*
X24135714Y-21701657D02*
X23421429Y-19701657D01*
X18421429Y-21701657D02*
X20135715Y-21701657D01*
X19278572Y-21701657D02*
X19278572Y-18701657D01*
X19278572Y-18701657D02*
X19564286Y-19130228D01*
X19564286Y-19130228D02*
X19850001Y-19415942D01*
X19850001Y-19415942D02*
X20135715Y-19558800D01*
X17278572Y-20844514D02*
X15850001Y-20844514D01*
X17564286Y-21701657D02*
X16564286Y-18701657D01*
X16564286Y-18701657D02*
X15564286Y-21701657D01*
D11*
X39928571Y-23556200D02*
X39757143Y-23613342D01*
X39757143Y-23613342D02*
X39471428Y-23613342D01*
X39471428Y-23613342D02*
X39357143Y-23556200D01*
X39357143Y-23556200D02*
X39300000Y-23499057D01*
X39300000Y-23499057D02*
X39242857Y-23384771D01*
X39242857Y-23384771D02*
X39242857Y-23270485D01*
X39242857Y-23270485D02*
X39300000Y-23156200D01*
X39300000Y-23156200D02*
X39357143Y-23099057D01*
X39357143Y-23099057D02*
X39471428Y-23041914D01*
X39471428Y-23041914D02*
X39700000Y-22984771D01*
X39700000Y-22984771D02*
X39814285Y-22927628D01*
X39814285Y-22927628D02*
X39871428Y-22870485D01*
X39871428Y-22870485D02*
X39928571Y-22756200D01*
X39928571Y-22756200D02*
X39928571Y-22641914D01*
X39928571Y-22641914D02*
X39871428Y-22527628D01*
X39871428Y-22527628D02*
X39814285Y-22470485D01*
X39814285Y-22470485D02*
X39700000Y-22413342D01*
X39700000Y-22413342D02*
X39414285Y-22413342D01*
X39414285Y-22413342D02*
X39242857Y-22470485D01*
X38271428Y-23556200D02*
X38385714Y-23613342D01*
X38385714Y-23613342D02*
X38614286Y-23613342D01*
X38614286Y-23613342D02*
X38728571Y-23556200D01*
X38728571Y-23556200D02*
X38785714Y-23441914D01*
X38785714Y-23441914D02*
X38785714Y-22984771D01*
X38785714Y-22984771D02*
X38728571Y-22870485D01*
X38728571Y-22870485D02*
X38614286Y-22813342D01*
X38614286Y-22813342D02*
X38385714Y-22813342D01*
X38385714Y-22813342D02*
X38271428Y-22870485D01*
X38271428Y-22870485D02*
X38214286Y-22984771D01*
X38214286Y-22984771D02*
X38214286Y-23099057D01*
X38214286Y-23099057D02*
X38785714Y-23213342D01*
X37700000Y-23613342D02*
X37700000Y-22813342D01*
X37700000Y-23041914D02*
X37642857Y-22927628D01*
X37642857Y-22927628D02*
X37585715Y-22870485D01*
X37585715Y-22870485D02*
X37471429Y-22813342D01*
X37471429Y-22813342D02*
X37357143Y-22813342D01*
X36442858Y-23613342D02*
X36442858Y-22984771D01*
X36442858Y-22984771D02*
X36500000Y-22870485D01*
X36500000Y-22870485D02*
X36614286Y-22813342D01*
X36614286Y-22813342D02*
X36842858Y-22813342D01*
X36842858Y-22813342D02*
X36957143Y-22870485D01*
X36442858Y-23556200D02*
X36557143Y-23613342D01*
X36557143Y-23613342D02*
X36842858Y-23613342D01*
X36842858Y-23613342D02*
X36957143Y-23556200D01*
X36957143Y-23556200D02*
X37014286Y-23441914D01*
X37014286Y-23441914D02*
X37014286Y-23327628D01*
X37014286Y-23327628D02*
X36957143Y-23213342D01*
X36957143Y-23213342D02*
X36842858Y-23156200D01*
X36842858Y-23156200D02*
X36557143Y-23156200D01*
X36557143Y-23156200D02*
X36442858Y-23099057D01*
X35871429Y-22813342D02*
X35871429Y-24013342D01*
X35871429Y-22870485D02*
X35757144Y-22813342D01*
X35757144Y-22813342D02*
X35528572Y-22813342D01*
X35528572Y-22813342D02*
X35414286Y-22870485D01*
X35414286Y-22870485D02*
X35357144Y-22927628D01*
X35357144Y-22927628D02*
X35300001Y-23041914D01*
X35300001Y-23041914D02*
X35300001Y-23384771D01*
X35300001Y-23384771D02*
X35357144Y-23499057D01*
X35357144Y-23499057D02*
X35414286Y-23556200D01*
X35414286Y-23556200D02*
X35528572Y-23613342D01*
X35528572Y-23613342D02*
X35757144Y-23613342D01*
X35757144Y-23613342D02*
X35871429Y-23556200D01*
X34785715Y-23613342D02*
X34785715Y-22413342D01*
X34271430Y-23613342D02*
X34271430Y-22984771D01*
X34271430Y-22984771D02*
X34328572Y-22870485D01*
X34328572Y-22870485D02*
X34442858Y-22813342D01*
X34442858Y-22813342D02*
X34614287Y-22813342D01*
X34614287Y-22813342D02*
X34728572Y-22870485D01*
X34728572Y-22870485D02*
X34785715Y-22927628D01*
X33700001Y-23613342D02*
X33700001Y-22813342D01*
X33700001Y-22413342D02*
X33757144Y-22470485D01*
X33757144Y-22470485D02*
X33700001Y-22527628D01*
X33700001Y-22527628D02*
X33642858Y-22470485D01*
X33642858Y-22470485D02*
X33700001Y-22413342D01*
X33700001Y-22413342D02*
X33700001Y-22527628D01*
X33128572Y-23613342D02*
X33128572Y-22813342D01*
X33128572Y-22927628D02*
X33071429Y-22870485D01*
X33071429Y-22870485D02*
X32957144Y-22813342D01*
X32957144Y-22813342D02*
X32785715Y-22813342D01*
X32785715Y-22813342D02*
X32671429Y-22870485D01*
X32671429Y-22870485D02*
X32614287Y-22984771D01*
X32614287Y-22984771D02*
X32614287Y-23613342D01*
X32614287Y-22984771D02*
X32557144Y-22870485D01*
X32557144Y-22870485D02*
X32442858Y-22813342D01*
X32442858Y-22813342D02*
X32271429Y-22813342D01*
X32271429Y-22813342D02*
X32157144Y-22870485D01*
X32157144Y-22870485D02*
X32100001Y-22984771D01*
X32100001Y-22984771D02*
X32100001Y-23613342D01*
X30957144Y-23613342D02*
X31528572Y-23613342D01*
X31528572Y-23613342D02*
X31528572Y-22413342D01*
X30042858Y-23613342D02*
X30042858Y-22984771D01*
X30042858Y-22984771D02*
X30100000Y-22870485D01*
X30100000Y-22870485D02*
X30214286Y-22813342D01*
X30214286Y-22813342D02*
X30442858Y-22813342D01*
X30442858Y-22813342D02*
X30557143Y-22870485D01*
X30042858Y-23556200D02*
X30157143Y-23613342D01*
X30157143Y-23613342D02*
X30442858Y-23613342D01*
X30442858Y-23613342D02*
X30557143Y-23556200D01*
X30557143Y-23556200D02*
X30614286Y-23441914D01*
X30614286Y-23441914D02*
X30614286Y-23327628D01*
X30614286Y-23327628D02*
X30557143Y-23213342D01*
X30557143Y-23213342D02*
X30442858Y-23156200D01*
X30442858Y-23156200D02*
X30157143Y-23156200D01*
X30157143Y-23156200D02*
X30042858Y-23099057D01*
X29471429Y-23613342D02*
X29471429Y-22413342D01*
X29471429Y-22870485D02*
X29357144Y-22813342D01*
X29357144Y-22813342D02*
X29128572Y-22813342D01*
X29128572Y-22813342D02*
X29014286Y-22870485D01*
X29014286Y-22870485D02*
X28957144Y-22927628D01*
X28957144Y-22927628D02*
X28900001Y-23041914D01*
X28900001Y-23041914D02*
X28900001Y-23384771D01*
X28900001Y-23384771D02*
X28957144Y-23499057D01*
X28957144Y-23499057D02*
X29014286Y-23556200D01*
X29014286Y-23556200D02*
X29128572Y-23613342D01*
X29128572Y-23613342D02*
X29357144Y-23613342D01*
X29357144Y-23613342D02*
X29471429Y-23556200D01*
X28442858Y-23556200D02*
X28328572Y-23613342D01*
X28328572Y-23613342D02*
X28100001Y-23613342D01*
X28100001Y-23613342D02*
X27985715Y-23556200D01*
X27985715Y-23556200D02*
X27928572Y-23441914D01*
X27928572Y-23441914D02*
X27928572Y-23384771D01*
X27928572Y-23384771D02*
X27985715Y-23270485D01*
X27985715Y-23270485D02*
X28100001Y-23213342D01*
X28100001Y-23213342D02*
X28271430Y-23213342D01*
X28271430Y-23213342D02*
X28385715Y-23156200D01*
X28385715Y-23156200D02*
X28442858Y-23041914D01*
X28442858Y-23041914D02*
X28442858Y-22984771D01*
X28442858Y-22984771D02*
X28385715Y-22870485D01*
X28385715Y-22870485D02*
X28271430Y-22813342D01*
X28271430Y-22813342D02*
X28100001Y-22813342D01*
X28100001Y-22813342D02*
X27985715Y-22870485D01*
X25928572Y-23613342D02*
X26500000Y-23613342D01*
X26500000Y-23613342D02*
X26500000Y-22413342D01*
X24957143Y-23613342D02*
X25528571Y-23613342D01*
X25528571Y-23613342D02*
X25528571Y-22413342D01*
X23871428Y-23499057D02*
X23928571Y-23556200D01*
X23928571Y-23556200D02*
X24099999Y-23613342D01*
X24099999Y-23613342D02*
X24214285Y-23613342D01*
X24214285Y-23613342D02*
X24385714Y-23556200D01*
X24385714Y-23556200D02*
X24499999Y-23441914D01*
X24499999Y-23441914D02*
X24557142Y-23327628D01*
X24557142Y-23327628D02*
X24614285Y-23099057D01*
X24614285Y-23099057D02*
X24614285Y-22927628D01*
X24614285Y-22927628D02*
X24557142Y-22699057D01*
X24557142Y-22699057D02*
X24499999Y-22584771D01*
X24499999Y-22584771D02*
X24385714Y-22470485D01*
X24385714Y-22470485D02*
X24214285Y-22413342D01*
X24214285Y-22413342D02*
X24099999Y-22413342D01*
X24099999Y-22413342D02*
X23928571Y-22470485D01*
X23928571Y-22470485D02*
X23871428Y-22527628D01*
X44299999Y-24745342D02*
X44299999Y-25716771D01*
X44299999Y-25716771D02*
X44357141Y-25831057D01*
X44357141Y-25831057D02*
X44414284Y-25888200D01*
X44414284Y-25888200D02*
X44528570Y-25945342D01*
X44528570Y-25945342D02*
X44699999Y-25945342D01*
X44699999Y-25945342D02*
X44814284Y-25888200D01*
X44299999Y-25488200D02*
X44414284Y-25545342D01*
X44414284Y-25545342D02*
X44642856Y-25545342D01*
X44642856Y-25545342D02*
X44757141Y-25488200D01*
X44757141Y-25488200D02*
X44814284Y-25431057D01*
X44814284Y-25431057D02*
X44871427Y-25316771D01*
X44871427Y-25316771D02*
X44871427Y-24973914D01*
X44871427Y-24973914D02*
X44814284Y-24859628D01*
X44814284Y-24859628D02*
X44757141Y-24802485D01*
X44757141Y-24802485D02*
X44642856Y-24745342D01*
X44642856Y-24745342D02*
X44414284Y-24745342D01*
X44414284Y-24745342D02*
X44299999Y-24802485D01*
X43728570Y-25545342D02*
X43728570Y-24745342D01*
X43728570Y-24345342D02*
X43785713Y-24402485D01*
X43785713Y-24402485D02*
X43728570Y-24459628D01*
X43728570Y-24459628D02*
X43671427Y-24402485D01*
X43671427Y-24402485D02*
X43728570Y-24345342D01*
X43728570Y-24345342D02*
X43728570Y-24459628D01*
X43328570Y-24745342D02*
X42871427Y-24745342D01*
X43157141Y-24345342D02*
X43157141Y-25373914D01*
X43157141Y-25373914D02*
X43099998Y-25488200D01*
X43099998Y-25488200D02*
X42985713Y-25545342D01*
X42985713Y-25545342D02*
X42871427Y-25545342D01*
X42471427Y-25545342D02*
X42471427Y-24345342D01*
X41957142Y-25545342D02*
X41957142Y-24916771D01*
X41957142Y-24916771D02*
X42014284Y-24802485D01*
X42014284Y-24802485D02*
X42128570Y-24745342D01*
X42128570Y-24745342D02*
X42299999Y-24745342D01*
X42299999Y-24745342D02*
X42414284Y-24802485D01*
X42414284Y-24802485D02*
X42471427Y-24859628D01*
X40871428Y-24745342D02*
X40871428Y-25545342D01*
X41385713Y-24745342D02*
X41385713Y-25373914D01*
X41385713Y-25373914D02*
X41328570Y-25488200D01*
X41328570Y-25488200D02*
X41214285Y-25545342D01*
X41214285Y-25545342D02*
X41042856Y-25545342D01*
X41042856Y-25545342D02*
X40928570Y-25488200D01*
X40928570Y-25488200D02*
X40871428Y-25431057D01*
X40299999Y-25545342D02*
X40299999Y-24345342D01*
X40299999Y-24802485D02*
X40185714Y-24745342D01*
X40185714Y-24745342D02*
X39957142Y-24745342D01*
X39957142Y-24745342D02*
X39842856Y-24802485D01*
X39842856Y-24802485D02*
X39785714Y-24859628D01*
X39785714Y-24859628D02*
X39728571Y-24973914D01*
X39728571Y-24973914D02*
X39728571Y-25316771D01*
X39728571Y-25316771D02*
X39785714Y-25431057D01*
X39785714Y-25431057D02*
X39842856Y-25488200D01*
X39842856Y-25488200D02*
X39957142Y-25545342D01*
X39957142Y-25545342D02*
X40185714Y-25545342D01*
X40185714Y-25545342D02*
X40299999Y-25488200D01*
X39214285Y-25431057D02*
X39157142Y-25488200D01*
X39157142Y-25488200D02*
X39214285Y-25545342D01*
X39214285Y-25545342D02*
X39271428Y-25488200D01*
X39271428Y-25488200D02*
X39214285Y-25431057D01*
X39214285Y-25431057D02*
X39214285Y-25545342D01*
X38128571Y-25488200D02*
X38242856Y-25545342D01*
X38242856Y-25545342D02*
X38471428Y-25545342D01*
X38471428Y-25545342D02*
X38585713Y-25488200D01*
X38585713Y-25488200D02*
X38642856Y-25431057D01*
X38642856Y-25431057D02*
X38699999Y-25316771D01*
X38699999Y-25316771D02*
X38699999Y-24973914D01*
X38699999Y-24973914D02*
X38642856Y-24859628D01*
X38642856Y-24859628D02*
X38585713Y-24802485D01*
X38585713Y-24802485D02*
X38471428Y-24745342D01*
X38471428Y-24745342D02*
X38242856Y-24745342D01*
X38242856Y-24745342D02*
X38128571Y-24802485D01*
X37442857Y-25545342D02*
X37557142Y-25488200D01*
X37557142Y-25488200D02*
X37614285Y-25431057D01*
X37614285Y-25431057D02*
X37671428Y-25316771D01*
X37671428Y-25316771D02*
X37671428Y-24973914D01*
X37671428Y-24973914D02*
X37614285Y-24859628D01*
X37614285Y-24859628D02*
X37557142Y-24802485D01*
X37557142Y-24802485D02*
X37442857Y-24745342D01*
X37442857Y-24745342D02*
X37271428Y-24745342D01*
X37271428Y-24745342D02*
X37157142Y-24802485D01*
X37157142Y-24802485D02*
X37100000Y-24859628D01*
X37100000Y-24859628D02*
X37042857Y-24973914D01*
X37042857Y-24973914D02*
X37042857Y-25316771D01*
X37042857Y-25316771D02*
X37100000Y-25431057D01*
X37100000Y-25431057D02*
X37157142Y-25488200D01*
X37157142Y-25488200D02*
X37271428Y-25545342D01*
X37271428Y-25545342D02*
X37442857Y-25545342D01*
X36528571Y-25545342D02*
X36528571Y-24745342D01*
X36528571Y-24859628D02*
X36471428Y-24802485D01*
X36471428Y-24802485D02*
X36357143Y-24745342D01*
X36357143Y-24745342D02*
X36185714Y-24745342D01*
X36185714Y-24745342D02*
X36071428Y-24802485D01*
X36071428Y-24802485D02*
X36014286Y-24916771D01*
X36014286Y-24916771D02*
X36014286Y-25545342D01*
X36014286Y-24916771D02*
X35957143Y-24802485D01*
X35957143Y-24802485D02*
X35842857Y-24745342D01*
X35842857Y-24745342D02*
X35671428Y-24745342D01*
X35671428Y-24745342D02*
X35557143Y-24802485D01*
X35557143Y-24802485D02*
X35500000Y-24916771D01*
X35500000Y-24916771D02*
X35500000Y-25545342D01*
X34071428Y-24288200D02*
X35100000Y-25831057D01*
X33728571Y-25488200D02*
X33557143Y-25545342D01*
X33557143Y-25545342D02*
X33271428Y-25545342D01*
X33271428Y-25545342D02*
X33157143Y-25488200D01*
X33157143Y-25488200D02*
X33100000Y-25431057D01*
X33100000Y-25431057D02*
X33042857Y-25316771D01*
X33042857Y-25316771D02*
X33042857Y-25202485D01*
X33042857Y-25202485D02*
X33100000Y-25088200D01*
X33100000Y-25088200D02*
X33157143Y-25031057D01*
X33157143Y-25031057D02*
X33271428Y-24973914D01*
X33271428Y-24973914D02*
X33500000Y-24916771D01*
X33500000Y-24916771D02*
X33614285Y-24859628D01*
X33614285Y-24859628D02*
X33671428Y-24802485D01*
X33671428Y-24802485D02*
X33728571Y-24688200D01*
X33728571Y-24688200D02*
X33728571Y-24573914D01*
X33728571Y-24573914D02*
X33671428Y-24459628D01*
X33671428Y-24459628D02*
X33614285Y-24402485D01*
X33614285Y-24402485D02*
X33500000Y-24345342D01*
X33500000Y-24345342D02*
X33214285Y-24345342D01*
X33214285Y-24345342D02*
X33042857Y-24402485D01*
X32071428Y-25488200D02*
X32185714Y-25545342D01*
X32185714Y-25545342D02*
X32414286Y-25545342D01*
X32414286Y-25545342D02*
X32528571Y-25488200D01*
X32528571Y-25488200D02*
X32585714Y-25373914D01*
X32585714Y-25373914D02*
X32585714Y-24916771D01*
X32585714Y-24916771D02*
X32528571Y-24802485D01*
X32528571Y-24802485D02*
X32414286Y-24745342D01*
X32414286Y-24745342D02*
X32185714Y-24745342D01*
X32185714Y-24745342D02*
X32071428Y-24802485D01*
X32071428Y-24802485D02*
X32014286Y-24916771D01*
X32014286Y-24916771D02*
X32014286Y-25031057D01*
X32014286Y-25031057D02*
X32585714Y-25145342D01*
X31500000Y-25545342D02*
X31500000Y-24745342D01*
X31500000Y-24973914D02*
X31442857Y-24859628D01*
X31442857Y-24859628D02*
X31385715Y-24802485D01*
X31385715Y-24802485D02*
X31271429Y-24745342D01*
X31271429Y-24745342D02*
X31157143Y-24745342D01*
X30242858Y-25545342D02*
X30242858Y-24916771D01*
X30242858Y-24916771D02*
X30300000Y-24802485D01*
X30300000Y-24802485D02*
X30414286Y-24745342D01*
X30414286Y-24745342D02*
X30642858Y-24745342D01*
X30642858Y-24745342D02*
X30757143Y-24802485D01*
X30242858Y-25488200D02*
X30357143Y-25545342D01*
X30357143Y-25545342D02*
X30642858Y-25545342D01*
X30642858Y-25545342D02*
X30757143Y-25488200D01*
X30757143Y-25488200D02*
X30814286Y-25373914D01*
X30814286Y-25373914D02*
X30814286Y-25259628D01*
X30814286Y-25259628D02*
X30757143Y-25145342D01*
X30757143Y-25145342D02*
X30642858Y-25088200D01*
X30642858Y-25088200D02*
X30357143Y-25088200D01*
X30357143Y-25088200D02*
X30242858Y-25031057D01*
X29671429Y-24745342D02*
X29671429Y-25945342D01*
X29671429Y-24802485D02*
X29557144Y-24745342D01*
X29557144Y-24745342D02*
X29328572Y-24745342D01*
X29328572Y-24745342D02*
X29214286Y-24802485D01*
X29214286Y-24802485D02*
X29157144Y-24859628D01*
X29157144Y-24859628D02*
X29100001Y-24973914D01*
X29100001Y-24973914D02*
X29100001Y-25316771D01*
X29100001Y-25316771D02*
X29157144Y-25431057D01*
X29157144Y-25431057D02*
X29214286Y-25488200D01*
X29214286Y-25488200D02*
X29328572Y-25545342D01*
X29328572Y-25545342D02*
X29557144Y-25545342D01*
X29557144Y-25545342D02*
X29671429Y-25488200D01*
X28585715Y-25545342D02*
X28585715Y-24345342D01*
X28071430Y-25545342D02*
X28071430Y-24916771D01*
X28071430Y-24916771D02*
X28128572Y-24802485D01*
X28128572Y-24802485D02*
X28242858Y-24745342D01*
X28242858Y-24745342D02*
X28414287Y-24745342D01*
X28414287Y-24745342D02*
X28528572Y-24802485D01*
X28528572Y-24802485D02*
X28585715Y-24859628D01*
X27500001Y-25545342D02*
X27500001Y-24745342D01*
X27500001Y-24345342D02*
X27557144Y-24402485D01*
X27557144Y-24402485D02*
X27500001Y-24459628D01*
X27500001Y-24459628D02*
X27442858Y-24402485D01*
X27442858Y-24402485D02*
X27500001Y-24345342D01*
X27500001Y-24345342D02*
X27500001Y-24459628D01*
X26928572Y-25545342D02*
X26928572Y-24745342D01*
X26928572Y-24859628D02*
X26871429Y-24802485D01*
X26871429Y-24802485D02*
X26757144Y-24745342D01*
X26757144Y-24745342D02*
X26585715Y-24745342D01*
X26585715Y-24745342D02*
X26471429Y-24802485D01*
X26471429Y-24802485D02*
X26414287Y-24916771D01*
X26414287Y-24916771D02*
X26414287Y-25545342D01*
X26414287Y-24916771D02*
X26357144Y-24802485D01*
X26357144Y-24802485D02*
X26242858Y-24745342D01*
X26242858Y-24745342D02*
X26071429Y-24745342D01*
X26071429Y-24745342D02*
X25957144Y-24802485D01*
X25957144Y-24802485D02*
X25900001Y-24916771D01*
X25900001Y-24916771D02*
X25900001Y-25545342D01*
X25157144Y-25545342D02*
X25271429Y-25488200D01*
X25271429Y-25488200D02*
X25328572Y-25373914D01*
X25328572Y-25373914D02*
X25328572Y-24345342D01*
X24185716Y-25545342D02*
X24185716Y-24916771D01*
X24185716Y-24916771D02*
X24242858Y-24802485D01*
X24242858Y-24802485D02*
X24357144Y-24745342D01*
X24357144Y-24745342D02*
X24585716Y-24745342D01*
X24585716Y-24745342D02*
X24700001Y-24802485D01*
X24185716Y-25488200D02*
X24300001Y-25545342D01*
X24300001Y-25545342D02*
X24585716Y-25545342D01*
X24585716Y-25545342D02*
X24700001Y-25488200D01*
X24700001Y-25488200D02*
X24757144Y-25373914D01*
X24757144Y-25373914D02*
X24757144Y-25259628D01*
X24757144Y-25259628D02*
X24700001Y-25145342D01*
X24700001Y-25145342D02*
X24585716Y-25088200D01*
X24585716Y-25088200D02*
X24300001Y-25088200D01*
X24300001Y-25088200D02*
X24185716Y-25031057D01*
X23614287Y-25545342D02*
X23614287Y-24345342D01*
X23614287Y-24802485D02*
X23500002Y-24745342D01*
X23500002Y-24745342D02*
X23271430Y-24745342D01*
X23271430Y-24745342D02*
X23157144Y-24802485D01*
X23157144Y-24802485D02*
X23100002Y-24859628D01*
X23100002Y-24859628D02*
X23042859Y-24973914D01*
X23042859Y-24973914D02*
X23042859Y-25316771D01*
X23042859Y-25316771D02*
X23100002Y-25431057D01*
X23100002Y-25431057D02*
X23157144Y-25488200D01*
X23157144Y-25488200D02*
X23271430Y-25545342D01*
X23271430Y-25545342D02*
X23500002Y-25545342D01*
X23500002Y-25545342D02*
X23614287Y-25488200D01*
X22585716Y-25488200D02*
X22471430Y-25545342D01*
X22471430Y-25545342D02*
X22242859Y-25545342D01*
X22242859Y-25545342D02*
X22128573Y-25488200D01*
X22128573Y-25488200D02*
X22071430Y-25373914D01*
X22071430Y-25373914D02*
X22071430Y-25316771D01*
X22071430Y-25316771D02*
X22128573Y-25202485D01*
X22128573Y-25202485D02*
X22242859Y-25145342D01*
X22242859Y-25145342D02*
X22414288Y-25145342D01*
X22414288Y-25145342D02*
X22528573Y-25088200D01*
X22528573Y-25088200D02*
X22585716Y-24973914D01*
X22585716Y-24973914D02*
X22585716Y-24916771D01*
X22585716Y-24916771D02*
X22528573Y-24802485D01*
X22528573Y-24802485D02*
X22414288Y-24745342D01*
X22414288Y-24745342D02*
X22242859Y-24745342D01*
X22242859Y-24745342D02*
X22128573Y-24802485D01*
X20985716Y-25545342D02*
X21557144Y-25545342D01*
X21557144Y-25545342D02*
X21557144Y-24345342D01*
X20014287Y-25545342D02*
X20585715Y-25545342D01*
X20585715Y-25545342D02*
X20585715Y-24345342D01*
X18928572Y-25431057D02*
X18985715Y-25488200D01*
X18985715Y-25488200D02*
X19157143Y-25545342D01*
X19157143Y-25545342D02*
X19271429Y-25545342D01*
X19271429Y-25545342D02*
X19442858Y-25488200D01*
X19442858Y-25488200D02*
X19557143Y-25373914D01*
X19557143Y-25373914D02*
X19614286Y-25259628D01*
X19614286Y-25259628D02*
X19671429Y-25031057D01*
X19671429Y-25031057D02*
X19671429Y-24859628D01*
X19671429Y-24859628D02*
X19614286Y-24631057D01*
X19614286Y-24631057D02*
X19557143Y-24516771D01*
X19557143Y-24516771D02*
X19442858Y-24402485D01*
X19442858Y-24402485D02*
X19271429Y-24345342D01*
X19271429Y-24345342D02*
X19157143Y-24345342D01*
X19157143Y-24345342D02*
X18985715Y-24402485D01*
X18985715Y-24402485D02*
X18928572Y-24459628D01*
X63869819Y-20622493D02*
X64584104Y-20622493D01*
X64584104Y-20622493D02*
X64726961Y-20574874D01*
X64726961Y-20574874D02*
X64822200Y-20479636D01*
X64822200Y-20479636D02*
X64869819Y-20336779D01*
X64869819Y-20336779D02*
X64869819Y-20241541D01*
X64869819Y-21574874D02*
X64869819Y-21098684D01*
X64869819Y-21098684D02*
X63869819Y-21098684D01*
X64774580Y-22479636D02*
X64822200Y-22432017D01*
X64822200Y-22432017D02*
X64869819Y-22289160D01*
X64869819Y-22289160D02*
X64869819Y-22193922D01*
X64869819Y-22193922D02*
X64822200Y-22051065D01*
X64822200Y-22051065D02*
X64726961Y-21955827D01*
X64726961Y-21955827D02*
X64631723Y-21908208D01*
X64631723Y-21908208D02*
X64441247Y-21860589D01*
X64441247Y-21860589D02*
X64298390Y-21860589D01*
X64298390Y-21860589D02*
X64107914Y-21908208D01*
X64107914Y-21908208D02*
X64012676Y-21955827D01*
X64012676Y-21955827D02*
X63917438Y-22051065D01*
X63917438Y-22051065D02*
X63869819Y-22193922D01*
X63869819Y-22193922D02*
X63869819Y-22289160D01*
X63869819Y-22289160D02*
X63917438Y-22432017D01*
X63917438Y-22432017D02*
X63965057Y-22479636D01*
X63869819Y-23193922D02*
X64584104Y-23193922D01*
X64584104Y-23193922D02*
X64726961Y-23146303D01*
X64726961Y-23146303D02*
X64822200Y-23051065D01*
X64822200Y-23051065D02*
X64869819Y-22908208D01*
X64869819Y-22908208D02*
X64869819Y-22812970D01*
X64869819Y-24146303D02*
X64869819Y-23670113D01*
X64869819Y-23670113D02*
X63869819Y-23670113D01*
X64774580Y-25051065D02*
X64822200Y-25003446D01*
X64822200Y-25003446D02*
X64869819Y-24860589D01*
X64869819Y-24860589D02*
X64869819Y-24765351D01*
X64869819Y-24765351D02*
X64822200Y-24622494D01*
X64822200Y-24622494D02*
X64726961Y-24527256D01*
X64726961Y-24527256D02*
X64631723Y-24479637D01*
X64631723Y-24479637D02*
X64441247Y-24432018D01*
X64441247Y-24432018D02*
X64298390Y-24432018D01*
X64298390Y-24432018D02*
X64107914Y-24479637D01*
X64107914Y-24479637D02*
X64012676Y-24527256D01*
X64012676Y-24527256D02*
X63917438Y-24622494D01*
X63917438Y-24622494D02*
X63869819Y-24765351D01*
X63869819Y-24765351D02*
X63869819Y-24860589D01*
X63869819Y-24860589D02*
X63917438Y-25003446D01*
X63917438Y-25003446D02*
X63965057Y-25051065D01*
X63869819Y-25765351D02*
X64584104Y-25765351D01*
X64584104Y-25765351D02*
X64726961Y-25717732D01*
X64726961Y-25717732D02*
X64822200Y-25622494D01*
X64822200Y-25622494D02*
X64869819Y-25479637D01*
X64869819Y-25479637D02*
X64869819Y-25384399D01*
X64869819Y-26717732D02*
X64869819Y-26241542D01*
X64869819Y-26241542D02*
X63869819Y-26241542D01*
X64774580Y-27622494D02*
X64822200Y-27574875D01*
X64822200Y-27574875D02*
X64869819Y-27432018D01*
X64869819Y-27432018D02*
X64869819Y-27336780D01*
X64869819Y-27336780D02*
X64822200Y-27193923D01*
X64822200Y-27193923D02*
X64726961Y-27098685D01*
X64726961Y-27098685D02*
X64631723Y-27051066D01*
X64631723Y-27051066D02*
X64441247Y-27003447D01*
X64441247Y-27003447D02*
X64298390Y-27003447D01*
X64298390Y-27003447D02*
X64107914Y-27051066D01*
X64107914Y-27051066D02*
X64012676Y-27098685D01*
X64012676Y-27098685D02*
X63917438Y-27193923D01*
X63917438Y-27193923D02*
X63869819Y-27336780D01*
X63869819Y-27336780D02*
X63869819Y-27432018D01*
X63869819Y-27432018D02*
X63917438Y-27574875D01*
X63917438Y-27574875D02*
X63965057Y-27622494D01*
X63869819Y-28336780D02*
X64584104Y-28336780D01*
X64584104Y-28336780D02*
X64726961Y-28289161D01*
X64726961Y-28289161D02*
X64822200Y-28193923D01*
X64822200Y-28193923D02*
X64869819Y-28051066D01*
X64869819Y-28051066D02*
X64869819Y-27955828D01*
X64869819Y-29289161D02*
X64869819Y-28812971D01*
X64869819Y-28812971D02*
X63869819Y-28812971D01*
X64774580Y-30193923D02*
X64822200Y-30146304D01*
X64822200Y-30146304D02*
X64869819Y-30003447D01*
X64869819Y-30003447D02*
X64869819Y-29908209D01*
X64869819Y-29908209D02*
X64822200Y-29765352D01*
X64822200Y-29765352D02*
X64726961Y-29670114D01*
X64726961Y-29670114D02*
X64631723Y-29622495D01*
X64631723Y-29622495D02*
X64441247Y-29574876D01*
X64441247Y-29574876D02*
X64298390Y-29574876D01*
X64298390Y-29574876D02*
X64107914Y-29622495D01*
X64107914Y-29622495D02*
X64012676Y-29670114D01*
X64012676Y-29670114D02*
X63917438Y-29765352D01*
X63917438Y-29765352D02*
X63869819Y-29908209D01*
X63869819Y-29908209D02*
X63869819Y-30003447D01*
X63869819Y-30003447D02*
X63917438Y-30146304D01*
X63917438Y-30146304D02*
X63965057Y-30193923D01*
M02*
