%TF.GenerationSoftware,KiCad,Pcbnew,7.0.6*%
%TF.CreationDate,2023-11-09T22:10:50-05:00*%
%TF.ProjectId,Crystal,43727973-7461-46c2-9e6b-696361645f70,rev?*%
%TF.SameCoordinates,Original*%
%TF.FileFunction,Copper,L2,Bot*%
%TF.FilePolarity,Positive*%
%FSLAX46Y46*%
G04 Gerber Fmt 4.6, Leading zero omitted, Abs format (unit mm)*
G04 Created by KiCad (PCBNEW 7.0.6) date 2023-11-09 22:10:50*
%MOMM*%
%LPD*%
G01*
G04 APERTURE LIST*
%TA.AperFunction,ComponentPad*%
%ADD10R,1.700000X1.700000*%
%TD*%
%TA.AperFunction,ComponentPad*%
%ADD11O,1.700000X1.700000*%
%TD*%
%TA.AperFunction,ComponentPad*%
%ADD12C,3.000000*%
%TD*%
%TA.AperFunction,ComponentPad*%
%ADD13O,1.900000X1.200000*%
%TD*%
%TA.AperFunction,ComponentPad*%
%ADD14C,1.450000*%
%TD*%
%TA.AperFunction,ComponentPad*%
%ADD15R,0.700000X0.700000*%
%TD*%
%TA.AperFunction,ViaPad*%
%ADD16C,1.200000*%
%TD*%
%TA.AperFunction,ViaPad*%
%ADD17C,0.800000*%
%TD*%
%TA.AperFunction,Conductor*%
%ADD18C,1.000000*%
%TD*%
%TA.AperFunction,Conductor*%
%ADD19C,0.250000*%
%TD*%
%TA.AperFunction,Conductor*%
%ADD20C,2.000000*%
%TD*%
G04 APERTURE END LIST*
D10*
%TO.P,TTY1,1,Pin_1*%
%TO.N,+5V*%
X29950000Y-59725000D03*
D11*
%TO.P,TTY1,2,Pin_2*%
%TO.N,Net-(D9-A)*%
X32490000Y-59725000D03*
%TO.P,TTY1,3,Pin_3*%
%TO.N,Net-(TTY1-Pin_3)*%
X35030000Y-59725000D03*
%TO.P,TTY1,4,Pin_4*%
%TO.N,GND*%
X37570000Y-59725000D03*
%TD*%
D10*
%TO.P,AIN1,1,Pin_1*%
%TO.N,Net-(AIN1-Pin_1)*%
X58825000Y-59725000D03*
D11*
%TO.P,AIN1,2,Pin_2*%
%TO.N,Net-(AIN1-Pin_2)*%
X56285000Y-59725000D03*
%TO.P,AIN1,3,Pin_3*%
%TO.N,Net-(AIN1-Pin_3)*%
X53745000Y-59725000D03*
%TO.P,AIN1,4,Pin_4*%
%TO.N,Net-(AIN1-Pin_4)*%
X51205000Y-59725000D03*
%TO.P,AIN1,5,Pin_5*%
%TO.N,Net-(AIN1-Pin_5)*%
X48665000Y-59725000D03*
%TO.P,AIN1,6,Pin_6*%
%TO.N,GND*%
X46125000Y-59725000D03*
%TD*%
D12*
%TO.P,V1,1,Pin_1*%
%TO.N,+12V*%
X27740000Y-30780000D03*
%TO.P,V1,2,Pin_2*%
%TO.N,GND*%
X27740000Y-34580000D03*
%TD*%
D13*
%TO.P,J1,6,Shield*%
%TO.N,GND*%
X21462500Y-42100000D03*
D14*
X24162500Y-43100000D03*
X24162500Y-48100000D03*
D13*
X21462500Y-49100000D03*
%TD*%
D15*
%TO.P,U3,19,GND*%
%TO.N,GND*%
X73300000Y-44860000D03*
X72200000Y-44860000D03*
X71100000Y-44860000D03*
X73300000Y-45910000D03*
X72200000Y-45910000D03*
X71100000Y-45910000D03*
X73300000Y-47060000D03*
X72200000Y-47060000D03*
X71100000Y-47060000D03*
%TD*%
D10*
%TO.P,GPIO1,1,Pin_1*%
%TO.N,Net-(GPIO1-Pin_1)*%
X52500000Y-21800000D03*
D11*
%TO.P,GPIO1,2,Pin_2*%
%TO.N,Net-(GPIO1-Pin_2)*%
X55040000Y-21800000D03*
%TO.P,GPIO1,3,Pin_3*%
%TO.N,Net-(GPIO1-Pin_3)*%
X57580000Y-21800000D03*
%TO.P,GPIO1,4,Pin_4*%
%TO.N,Net-(GPIO1-Pin_4)*%
X60120000Y-21800000D03*
%TO.P,GPIO1,5,Pin_5*%
%TO.N,Net-(GPIO1-Pin_5)*%
X62660000Y-21800000D03*
%TO.P,GPIO1,6,Pin_6*%
%TO.N,Net-(GPIO1-Pin_6)*%
X65200000Y-21800000D03*
%TO.P,GPIO1,7,Pin_7*%
%TO.N,Net-(GPIO1-Pin_7)*%
X67740000Y-21800000D03*
%TO.P,GPIO1,8,Pin_8*%
%TO.N,Net-(GPIO1-Pin_8)*%
X70280000Y-21800000D03*
%TD*%
D16*
%TO.N,+5V*%
X28500000Y-49000000D03*
X37000000Y-35200000D03*
%TO.N,GND*%
X78500000Y-38625000D03*
D17*
X62900000Y-50000000D03*
D16*
X46150000Y-46750000D03*
D17*
X55325000Y-38750000D03*
X52500000Y-49500000D03*
X28500000Y-47500000D03*
D16*
X75525000Y-22425000D03*
D17*
X61750000Y-37125000D03*
D16*
X66250000Y-40250000D03*
X31500000Y-23800000D03*
D17*
X65600000Y-28125000D03*
X66400000Y-37625000D03*
X57750000Y-50125000D03*
D16*
X42200000Y-30800000D03*
D17*
X75400000Y-33700000D03*
X60525000Y-54250000D03*
X83600000Y-30500000D03*
D16*
X78500000Y-51500000D03*
X35500000Y-49000000D03*
X51250000Y-28250000D03*
X39750000Y-49000000D03*
X48250000Y-30800000D03*
X66250000Y-49250000D03*
X59750000Y-28375000D03*
D17*
%TO.N,/GPIO9*%
X67900000Y-37600000D03*
X75500000Y-27875000D03*
D16*
%TO.N,+12V*%
X38500000Y-27900000D03*
D17*
%TO.N,/AIN5*%
X60225000Y-38750000D03*
X68425000Y-38750000D03*
%TO.N,/USB_D-*%
X65050000Y-54200000D03*
X31250000Y-46050000D03*
%TO.N,/USB_D+*%
X64050000Y-53200000D03*
X31250000Y-44500000D03*
%TO.N,/GPIO8*%
X70600000Y-28112500D03*
X69400000Y-34900000D03*
%TO.N,/TXD*%
X36000000Y-51000000D03*
X66010000Y-51000000D03*
%TO.N,/RXD*%
X37500000Y-51000000D03*
X66000000Y-52250000D03*
D16*
%TO.N,+3.3V*%
X51250000Y-37500000D03*
D17*
X37850000Y-43500000D03*
X41850000Y-39500000D03*
X37850000Y-45500000D03*
X41850000Y-45500000D03*
X37850000Y-41500000D03*
D16*
X68100000Y-31112500D03*
D17*
X41850000Y-43500000D03*
X37850000Y-39500000D03*
X41850000Y-41500000D03*
%TD*%
D18*
%TO.N,+5V*%
X29950000Y-59725000D02*
X29950000Y-49000000D01*
X29950000Y-49000000D02*
X28500000Y-49000000D01*
X29950000Y-49000000D02*
X29950000Y-40050000D01*
X29950000Y-40050000D02*
X34800000Y-35200000D01*
X34800000Y-35200000D02*
X37000000Y-35200000D01*
D19*
%TO.N,/GPIO9*%
X73875000Y-27875000D02*
X75500000Y-27875000D01*
X70125000Y-31625000D02*
X73875000Y-27875000D01*
X67900000Y-37600000D02*
X70125000Y-35375000D01*
X70125000Y-35375000D02*
X70125000Y-31625000D01*
D20*
%TO.N,+12V*%
X38500000Y-27900000D02*
X30600000Y-27900000D01*
X30600000Y-27900000D02*
X27750000Y-30750000D01*
D19*
%TO.N,/AIN5*%
X60225000Y-38750000D02*
X68425000Y-38750000D01*
%TO.N,/USB_D-*%
X36300000Y-52660000D02*
X35998299Y-52660000D01*
X65050000Y-54200000D02*
X64024695Y-54200000D01*
X31250000Y-47911701D02*
X31250000Y-46050000D01*
X62484695Y-52660000D02*
X36300000Y-52660000D01*
X35998299Y-52660000D02*
X31250000Y-47911701D01*
X64024695Y-54200000D02*
X62484695Y-52660000D01*
%TO.N,/USB_D+*%
X36184695Y-52210000D02*
X31975000Y-48000305D01*
X64050000Y-53200000D02*
X63060000Y-52210000D01*
X63060000Y-52210000D02*
X36184695Y-52210000D01*
X31975000Y-45225000D02*
X31250000Y-44500000D01*
X31975000Y-48000305D02*
X31975000Y-45225000D01*
%TO.N,/GPIO8*%
X69400000Y-34900000D02*
X69400000Y-29312500D01*
X69400000Y-29312500D02*
X70600000Y-28112500D01*
%TO.N,/TXD*%
X65700000Y-51310000D02*
X66010000Y-51000000D01*
X36000000Y-51000000D02*
X36725000Y-50275000D01*
X37800305Y-50275000D02*
X38835304Y-51310000D01*
X36725000Y-50275000D02*
X37800305Y-50275000D01*
X38835304Y-51310000D02*
X65700000Y-51310000D01*
%TO.N,/RXD*%
X66000000Y-52250000D02*
X65510000Y-51760000D01*
X37500000Y-51000000D02*
X37500000Y-51011091D01*
X37500000Y-51011091D02*
X38248909Y-51760000D01*
X65510000Y-51760000D02*
X38600000Y-51760000D01*
X38248909Y-51760000D02*
X38600000Y-51760000D01*
D18*
%TO.N,+3.3V*%
X57637500Y-31112500D02*
X51250000Y-37500000D01*
X68100000Y-31112500D02*
X57637500Y-31112500D01*
%TD*%
%TA.AperFunction,Conductor*%
%TO.N,+3.3V*%
G36*
X44992121Y-37520002D02*
G01*
X45038614Y-37573658D01*
X45050000Y-37626000D01*
X45050000Y-41350000D01*
X47274000Y-41350000D01*
X47342121Y-41370002D01*
X47388614Y-41423658D01*
X47400000Y-41476000D01*
X47400000Y-43524000D01*
X47379998Y-43592121D01*
X47326342Y-43638614D01*
X47274000Y-43650000D01*
X45050000Y-43650000D01*
X45050000Y-46604099D01*
X45049731Y-46609915D01*
X45036751Y-46749999D01*
X45049731Y-46890083D01*
X45050000Y-46895899D01*
X45050000Y-47374000D01*
X45029998Y-47442121D01*
X44976342Y-47488614D01*
X44924000Y-47500000D01*
X35176000Y-47500000D01*
X35107879Y-47479998D01*
X35061386Y-47426342D01*
X35050000Y-47374000D01*
X35050000Y-37626000D01*
X35070002Y-37557879D01*
X35123658Y-37511386D01*
X35176000Y-37500000D01*
X44924000Y-37500000D01*
X44992121Y-37520002D01*
G37*
%TD.AperFunction*%
%TD*%
%TA.AperFunction,Conductor*%
%TO.N,GND*%
G36*
X85916621Y-20045502D02*
G01*
X85963114Y-20099158D01*
X85974500Y-20151500D01*
X85974500Y-35074000D01*
X85954498Y-35142121D01*
X85900842Y-35188614D01*
X85848500Y-35200000D01*
X79450000Y-35200000D01*
X79450000Y-54800000D01*
X85848500Y-54800000D01*
X85916621Y-54820002D01*
X85963114Y-54873658D01*
X85974500Y-54926000D01*
X85974500Y-62848500D01*
X85954498Y-62916621D01*
X85900842Y-62963114D01*
X85848500Y-62974500D01*
X20151500Y-62974500D01*
X20083379Y-62954498D01*
X20036886Y-62900842D01*
X20025500Y-62848500D01*
X20025500Y-59000004D01*
X21969767Y-59000004D01*
X21988675Y-59276436D01*
X21988676Y-59276442D01*
X21988677Y-59276450D01*
X21989943Y-59282541D01*
X22045052Y-59547743D01*
X22045056Y-59547756D01*
X22137846Y-59808847D01*
X22265333Y-60054882D01*
X22425122Y-60281252D01*
X22425125Y-60281256D01*
X22614255Y-60483764D01*
X22614254Y-60483764D01*
X22614258Y-60483767D01*
X22829205Y-60658639D01*
X23055197Y-60796068D01*
X23065963Y-60802615D01*
X23108766Y-60821207D01*
X23320116Y-60913009D01*
X23453526Y-60950389D01*
X23586929Y-60987767D01*
X23586937Y-60987769D01*
X23861438Y-61025499D01*
X23861452Y-61025500D01*
X24138548Y-61025500D01*
X24138561Y-61025499D01*
X24372240Y-60993379D01*
X24413063Y-60987769D01*
X24679884Y-60913009D01*
X24934039Y-60802614D01*
X25170795Y-60658639D01*
X25385742Y-60483767D01*
X25574875Y-60281256D01*
X25734670Y-60054876D01*
X25862153Y-59808847D01*
X25954946Y-59547750D01*
X26011323Y-59276450D01*
X26025463Y-59069731D01*
X26030233Y-59000004D01*
X26030233Y-58999995D01*
X26011324Y-58723563D01*
X26011323Y-58723557D01*
X26011323Y-58723550D01*
X25954946Y-58452250D01*
X25862153Y-58191153D01*
X25862153Y-58191152D01*
X25734666Y-57945117D01*
X25574877Y-57718747D01*
X25574875Y-57718744D01*
X25385744Y-57516235D01*
X25385745Y-57516235D01*
X25170797Y-57341363D01*
X25170795Y-57341361D01*
X24977382Y-57223744D01*
X24934036Y-57197384D01*
X24679885Y-57086991D01*
X24679875Y-57086988D01*
X24413070Y-57012232D01*
X24413062Y-57012230D01*
X24138561Y-56974500D01*
X24138548Y-56974500D01*
X23861452Y-56974500D01*
X23861438Y-56974500D01*
X23586937Y-57012230D01*
X23586929Y-57012232D01*
X23320124Y-57086988D01*
X23320114Y-57086991D01*
X23065963Y-57197384D01*
X22829202Y-57341363D01*
X22614255Y-57516235D01*
X22425122Y-57718747D01*
X22265333Y-57945117D01*
X22137846Y-58191152D01*
X22045056Y-58452243D01*
X22045052Y-58452256D01*
X22032692Y-58511738D01*
X21988903Y-58722465D01*
X21988676Y-58723557D01*
X21988675Y-58723563D01*
X21969767Y-58999995D01*
X21969767Y-59000004D01*
X20025500Y-59000004D01*
X20025500Y-49877842D01*
X20045502Y-49809721D01*
X20099158Y-49763228D01*
X20169432Y-49753124D01*
X20234012Y-49782618D01*
X20254137Y-49804755D01*
X20271321Y-49828887D01*
X20271322Y-49828888D01*
X20424464Y-49974909D01*
X20424465Y-49974910D01*
X20602475Y-50089308D01*
X20602480Y-50089311D01*
X20798914Y-50167952D01*
X20798920Y-50167953D01*
X21006694Y-50207999D01*
X21006703Y-50208000D01*
X21062500Y-50208000D01*
X21062500Y-49500000D01*
X21862500Y-49500000D01*
X21862500Y-50208000D01*
X21865279Y-50208000D01*
X21865300Y-50207998D01*
X22023133Y-50192927D01*
X22023148Y-50192924D01*
X22226177Y-50133310D01*
X22414254Y-50036349D01*
X22580585Y-49905544D01*
X22580591Y-49905539D01*
X22719156Y-49745625D01*
X22719157Y-49745624D01*
X22824956Y-49562374D01*
X22824957Y-49562372D01*
X22846545Y-49500000D01*
X21862500Y-49500000D01*
X21062500Y-49500000D01*
X21062500Y-49400000D01*
X21840302Y-49400000D01*
X21922750Y-49384588D01*
X22018110Y-49325543D01*
X22085701Y-49236038D01*
X22093760Y-49207712D01*
X23620471Y-49207712D01*
X23620472Y-49207713D01*
X23739170Y-49263063D01*
X23739180Y-49263067D01*
X23947570Y-49318905D01*
X24162500Y-49337709D01*
X24377429Y-49318905D01*
X24585826Y-49263065D01*
X24585827Y-49263065D01*
X24704526Y-49207713D01*
X24496814Y-49000000D01*
X27386751Y-49000000D01*
X27405706Y-49204562D01*
X27461923Y-49402144D01*
X27461929Y-49402160D01*
X27553493Y-49586045D01*
X27553497Y-49586050D01*
X27677297Y-49749990D01*
X27829116Y-49888391D01*
X27829118Y-49888392D01*
X28003782Y-49996540D01*
X28195345Y-50070751D01*
X28397282Y-50108500D01*
X28517062Y-50108500D01*
X28520819Y-50108612D01*
X28555293Y-50110671D01*
X28570530Y-50109401D01*
X28578736Y-50108718D01*
X28583968Y-50108500D01*
X28602716Y-50108500D01*
X28602718Y-50108500D01*
X28616766Y-50105873D01*
X28623084Y-50105021D01*
X28805038Y-50089858D01*
X28874582Y-50104134D01*
X28925370Y-50153743D01*
X28941499Y-50215423D01*
X28941499Y-57886347D01*
X28932009Y-57934321D01*
X28628145Y-58672278D01*
X28608620Y-58736983D01*
X28607335Y-58740798D01*
X28598011Y-58765796D01*
X28598009Y-58765804D01*
X28591500Y-58826350D01*
X28591500Y-58926613D01*
X28591419Y-58928823D01*
X28591500Y-58930299D01*
X28591500Y-60623649D01*
X28598009Y-60684196D01*
X28598011Y-60684204D01*
X28649110Y-60821202D01*
X28649112Y-60821207D01*
X28736738Y-60938261D01*
X28853792Y-61025887D01*
X28853794Y-61025888D01*
X28853796Y-61025889D01*
X28908900Y-61046442D01*
X28990795Y-61076988D01*
X28990803Y-61076990D01*
X29051350Y-61083499D01*
X29051355Y-61083499D01*
X29051362Y-61083500D01*
X29051368Y-61083500D01*
X30848632Y-61083500D01*
X30848638Y-61083500D01*
X30848645Y-61083499D01*
X30848649Y-61083499D01*
X30909196Y-61076990D01*
X30909199Y-61076989D01*
X30909201Y-61076989D01*
X31046204Y-61025889D01*
X31049432Y-61023473D01*
X31163261Y-60938261D01*
X31250886Y-60821208D01*
X31250885Y-60821208D01*
X31250889Y-60821204D01*
X31294999Y-60702939D01*
X31337545Y-60646107D01*
X31404066Y-60621296D01*
X31473440Y-60636388D01*
X31505753Y-60661635D01*
X31526529Y-60684204D01*
X31566762Y-60727908D01*
X31621331Y-60770381D01*
X31744424Y-60866189D01*
X31942426Y-60973342D01*
X31942427Y-60973342D01*
X31942428Y-60973343D01*
X31984450Y-60987769D01*
X32155365Y-61046444D01*
X32377431Y-61083500D01*
X32377435Y-61083500D01*
X32602565Y-61083500D01*
X32602569Y-61083500D01*
X32824635Y-61046444D01*
X33037574Y-60973342D01*
X33235576Y-60866189D01*
X33413240Y-60727906D01*
X33565722Y-60562268D01*
X33565927Y-60561955D01*
X33617011Y-60483764D01*
X33654518Y-60426354D01*
X33708520Y-60380268D01*
X33778868Y-60370692D01*
X33843225Y-60400669D01*
X33865480Y-60426353D01*
X33898607Y-60477058D01*
X33954275Y-60562265D01*
X33954279Y-60562270D01*
X34106762Y-60727908D01*
X34161331Y-60770381D01*
X34284424Y-60866189D01*
X34482426Y-60973342D01*
X34482427Y-60973342D01*
X34482428Y-60973343D01*
X34524450Y-60987769D01*
X34695365Y-61046444D01*
X34917431Y-61083500D01*
X34917435Y-61083500D01*
X35142565Y-61083500D01*
X35142569Y-61083500D01*
X35364635Y-61046444D01*
X35577574Y-60973342D01*
X35775576Y-60866189D01*
X35953240Y-60727906D01*
X36105722Y-60562268D01*
X36105927Y-60561955D01*
X36194517Y-60426357D01*
X36194816Y-60425898D01*
X36248819Y-60379810D01*
X36319167Y-60370235D01*
X36383524Y-60400212D01*
X36405782Y-60425898D01*
X36494674Y-60561958D01*
X36647097Y-60727534D01*
X36824698Y-60865767D01*
X36824699Y-60865768D01*
X37022628Y-60972882D01*
X37022634Y-60972884D01*
X37169999Y-61023474D01*
X37170000Y-61023473D01*
X37170000Y-60027417D01*
X37188239Y-60055798D01*
X37296900Y-60149952D01*
X37427685Y-60209680D01*
X37534237Y-60225000D01*
X37605763Y-60225000D01*
X37712315Y-60209680D01*
X37843100Y-60149952D01*
X37871897Y-60125000D01*
X37970000Y-60125000D01*
X37970000Y-61023474D01*
X38117365Y-60972884D01*
X38117371Y-60972882D01*
X38315300Y-60865768D01*
X38315301Y-60865767D01*
X38492902Y-60727534D01*
X38645325Y-60561958D01*
X38768419Y-60373548D01*
X38858819Y-60167458D01*
X38869571Y-60125000D01*
X44825429Y-60125000D01*
X44836180Y-60167458D01*
X44926580Y-60373548D01*
X45049674Y-60561958D01*
X45202097Y-60727534D01*
X45379698Y-60865767D01*
X45379699Y-60865768D01*
X45577628Y-60972882D01*
X45577634Y-60972884D01*
X45724999Y-61023474D01*
X45725000Y-61023473D01*
X45725000Y-60125000D01*
X44825429Y-60125000D01*
X38869571Y-60125000D01*
X37970000Y-60125000D01*
X37871897Y-60125000D01*
X37951761Y-60055798D01*
X38029493Y-59934844D01*
X38070000Y-59796889D01*
X45625000Y-59796889D01*
X45665507Y-59934844D01*
X45743239Y-60055798D01*
X45851900Y-60149952D01*
X45982685Y-60209680D01*
X46089237Y-60225000D01*
X46160763Y-60225000D01*
X46267315Y-60209680D01*
X46398100Y-60149952D01*
X46506761Y-60055798D01*
X46525000Y-60027417D01*
X46525000Y-61023474D01*
X46672365Y-60972884D01*
X46672371Y-60972882D01*
X46870300Y-60865768D01*
X46870301Y-60865767D01*
X47047902Y-60727534D01*
X47200327Y-60561955D01*
X47289217Y-60425899D01*
X47343220Y-60379810D01*
X47413568Y-60370235D01*
X47477925Y-60400212D01*
X47500183Y-60425898D01*
X47589279Y-60562270D01*
X47741762Y-60727908D01*
X47796331Y-60770381D01*
X47919424Y-60866189D01*
X48117426Y-60973342D01*
X48117427Y-60973342D01*
X48117428Y-60973343D01*
X48159450Y-60987769D01*
X48330365Y-61046444D01*
X48552431Y-61083500D01*
X48552435Y-61083500D01*
X48777565Y-61083500D01*
X48777569Y-61083500D01*
X48999635Y-61046444D01*
X49212574Y-60973342D01*
X49410576Y-60866189D01*
X49588240Y-60727906D01*
X49740722Y-60562268D01*
X49740927Y-60561955D01*
X49792011Y-60483764D01*
X49829518Y-60426354D01*
X49883520Y-60380268D01*
X49953868Y-60370692D01*
X50018225Y-60400669D01*
X50040480Y-60426353D01*
X50073607Y-60477058D01*
X50129275Y-60562265D01*
X50129279Y-60562270D01*
X50281762Y-60727908D01*
X50336331Y-60770381D01*
X50459424Y-60866189D01*
X50657426Y-60973342D01*
X50657427Y-60973342D01*
X50657428Y-60973343D01*
X50699450Y-60987769D01*
X50870365Y-61046444D01*
X51092431Y-61083500D01*
X51092435Y-61083500D01*
X51317565Y-61083500D01*
X51317569Y-61083500D01*
X51539635Y-61046444D01*
X51752574Y-60973342D01*
X51950576Y-60866189D01*
X52128240Y-60727906D01*
X52280722Y-60562268D01*
X52369519Y-60426353D01*
X52423518Y-60380268D01*
X52493866Y-60370692D01*
X52558224Y-60400668D01*
X52580482Y-60426356D01*
X52669275Y-60562265D01*
X52669279Y-60562270D01*
X52821762Y-60727908D01*
X52876331Y-60770381D01*
X52999424Y-60866189D01*
X53197426Y-60973342D01*
X53197427Y-60973342D01*
X53197428Y-60973343D01*
X53239450Y-60987769D01*
X53410365Y-61046444D01*
X53632431Y-61083500D01*
X53632435Y-61083500D01*
X53857565Y-61083500D01*
X53857569Y-61083500D01*
X54079635Y-61046444D01*
X54292574Y-60973342D01*
X54490576Y-60866189D01*
X54668240Y-60727906D01*
X54820722Y-60562268D01*
X54820927Y-60561955D01*
X54872011Y-60483764D01*
X54909518Y-60426354D01*
X54963520Y-60380268D01*
X55033868Y-60370692D01*
X55098225Y-60400669D01*
X55120480Y-60426353D01*
X55153607Y-60477058D01*
X55209275Y-60562265D01*
X55209279Y-60562270D01*
X55361762Y-60727908D01*
X55416331Y-60770381D01*
X55539424Y-60866189D01*
X55737426Y-60973342D01*
X55737427Y-60973342D01*
X55737428Y-60973343D01*
X55779450Y-60987769D01*
X55950365Y-61046444D01*
X56172431Y-61083500D01*
X56172435Y-61083500D01*
X56397565Y-61083500D01*
X56397569Y-61083500D01*
X56619635Y-61046444D01*
X56832574Y-60973342D01*
X57030576Y-60866189D01*
X57208240Y-60727906D01*
X57269245Y-60661637D01*
X57330096Y-60625067D01*
X57401061Y-60627200D01*
X57459606Y-60667362D01*
X57480000Y-60702941D01*
X57524111Y-60821204D01*
X57524112Y-60821207D01*
X57611738Y-60938261D01*
X57728792Y-61025887D01*
X57728794Y-61025888D01*
X57728796Y-61025889D01*
X57783900Y-61046442D01*
X57865795Y-61076988D01*
X57865803Y-61076990D01*
X57926350Y-61083499D01*
X57926355Y-61083499D01*
X57926362Y-61083500D01*
X57926368Y-61083500D01*
X59723632Y-61083500D01*
X59723638Y-61083500D01*
X59723645Y-61083499D01*
X59723649Y-61083499D01*
X59784196Y-61076990D01*
X59784199Y-61076989D01*
X59784201Y-61076989D01*
X59921204Y-61025889D01*
X59924432Y-61023473D01*
X60038261Y-60938261D01*
X60125887Y-60821207D01*
X60125887Y-60821206D01*
X60125889Y-60821204D01*
X60176989Y-60684201D01*
X60178800Y-60667362D01*
X60183499Y-60623649D01*
X60183500Y-60623632D01*
X60183500Y-59000004D01*
X79969767Y-59000004D01*
X79988675Y-59276436D01*
X79988676Y-59276442D01*
X79988677Y-59276450D01*
X79989943Y-59282541D01*
X80045052Y-59547743D01*
X80045056Y-59547756D01*
X80137846Y-59808847D01*
X80265333Y-60054882D01*
X80425122Y-60281252D01*
X80425125Y-60281256D01*
X80614255Y-60483764D01*
X80614254Y-60483764D01*
X80614258Y-60483767D01*
X80829205Y-60658639D01*
X81055197Y-60796068D01*
X81065963Y-60802615D01*
X81108766Y-60821207D01*
X81320116Y-60913009D01*
X81453526Y-60950389D01*
X81586929Y-60987767D01*
X81586937Y-60987769D01*
X81861438Y-61025499D01*
X81861452Y-61025500D01*
X82138548Y-61025500D01*
X82138561Y-61025499D01*
X82372240Y-60993379D01*
X82413063Y-60987769D01*
X82679884Y-60913009D01*
X82934039Y-60802614D01*
X83170795Y-60658639D01*
X83385742Y-60483767D01*
X83574875Y-60281256D01*
X83734670Y-60054876D01*
X83862153Y-59808847D01*
X83954946Y-59547750D01*
X84011323Y-59276450D01*
X84025463Y-59069731D01*
X84030233Y-59000004D01*
X84030233Y-58999995D01*
X84011324Y-58723563D01*
X84011323Y-58723557D01*
X84011323Y-58723550D01*
X83954946Y-58452250D01*
X83862153Y-58191153D01*
X83862153Y-58191152D01*
X83734666Y-57945117D01*
X83574877Y-57718747D01*
X83574875Y-57718744D01*
X83385744Y-57516235D01*
X83385745Y-57516235D01*
X83170797Y-57341363D01*
X83170795Y-57341361D01*
X82977382Y-57223744D01*
X82934036Y-57197384D01*
X82679885Y-57086991D01*
X82679875Y-57086988D01*
X82413070Y-57012232D01*
X82413062Y-57012230D01*
X82138561Y-56974500D01*
X82138548Y-56974500D01*
X81861452Y-56974500D01*
X81861438Y-56974500D01*
X81586937Y-57012230D01*
X81586929Y-57012232D01*
X81320124Y-57086988D01*
X81320114Y-57086991D01*
X81065963Y-57197384D01*
X80829202Y-57341363D01*
X80614255Y-57516235D01*
X80425122Y-57718747D01*
X80265333Y-57945117D01*
X80137846Y-58191152D01*
X80045056Y-58452243D01*
X80045052Y-58452256D01*
X80032692Y-58511738D01*
X79988903Y-58722465D01*
X79988676Y-58723557D01*
X79988675Y-58723563D01*
X79969767Y-58999995D01*
X79969767Y-59000004D01*
X60183500Y-59000004D01*
X60183500Y-58826367D01*
X60183499Y-58826350D01*
X60176990Y-58765803D01*
X60176988Y-58765795D01*
X60125889Y-58628797D01*
X60125887Y-58628792D01*
X60038261Y-58511738D01*
X59921207Y-58424112D01*
X59921202Y-58424110D01*
X59784204Y-58373011D01*
X59784196Y-58373009D01*
X59723649Y-58366500D01*
X59723638Y-58366500D01*
X57926362Y-58366500D01*
X57926350Y-58366500D01*
X57865803Y-58373009D01*
X57865795Y-58373011D01*
X57728797Y-58424110D01*
X57728792Y-58424112D01*
X57611738Y-58511738D01*
X57524112Y-58628792D01*
X57524111Y-58628795D01*
X57480000Y-58747058D01*
X57437453Y-58803893D01*
X57370932Y-58828703D01*
X57301558Y-58813611D01*
X57269246Y-58788363D01*
X57208240Y-58722094D01*
X57208239Y-58722093D01*
X57208237Y-58722091D01*
X57088372Y-58628796D01*
X57030576Y-58583811D01*
X56832574Y-58476658D01*
X56832572Y-58476657D01*
X56832571Y-58476656D01*
X56619639Y-58403557D01*
X56619630Y-58403555D01*
X56575476Y-58396187D01*
X56397569Y-58366500D01*
X56172431Y-58366500D01*
X56024210Y-58391233D01*
X55950369Y-58403555D01*
X55950360Y-58403557D01*
X55737428Y-58476656D01*
X55737426Y-58476658D01*
X55539426Y-58583810D01*
X55539424Y-58583811D01*
X55361762Y-58722091D01*
X55209279Y-58887729D01*
X55120483Y-59023643D01*
X55066479Y-59069731D01*
X54996131Y-59079306D01*
X54931774Y-59049329D01*
X54909517Y-59023643D01*
X54820720Y-58887729D01*
X54669580Y-58723550D01*
X54668240Y-58722094D01*
X54668239Y-58722093D01*
X54668237Y-58722091D01*
X54548372Y-58628796D01*
X54490576Y-58583811D01*
X54292574Y-58476658D01*
X54292572Y-58476657D01*
X54292571Y-58476656D01*
X54079639Y-58403557D01*
X54079630Y-58403555D01*
X54035476Y-58396187D01*
X53857569Y-58366500D01*
X53632431Y-58366500D01*
X53484210Y-58391233D01*
X53410369Y-58403555D01*
X53410360Y-58403557D01*
X53197428Y-58476656D01*
X53197426Y-58476658D01*
X52999426Y-58583810D01*
X52999424Y-58583811D01*
X52821762Y-58722091D01*
X52669279Y-58887729D01*
X52580483Y-59023643D01*
X52526479Y-59069731D01*
X52456131Y-59079306D01*
X52391774Y-59049329D01*
X52369517Y-59023643D01*
X52280720Y-58887729D01*
X52129580Y-58723550D01*
X52128240Y-58722094D01*
X52128239Y-58722093D01*
X52128237Y-58722091D01*
X52008372Y-58628796D01*
X51950576Y-58583811D01*
X51752574Y-58476658D01*
X51752572Y-58476657D01*
X51752571Y-58476656D01*
X51539639Y-58403557D01*
X51539630Y-58403555D01*
X51495476Y-58396187D01*
X51317569Y-58366500D01*
X51092431Y-58366500D01*
X50944210Y-58391233D01*
X50870369Y-58403555D01*
X50870360Y-58403557D01*
X50657428Y-58476656D01*
X50657426Y-58476658D01*
X50459426Y-58583810D01*
X50459424Y-58583811D01*
X50281762Y-58722091D01*
X50129279Y-58887729D01*
X50040483Y-59023643D01*
X49986479Y-59069731D01*
X49916131Y-59079306D01*
X49851774Y-59049329D01*
X49829517Y-59023643D01*
X49740720Y-58887729D01*
X49589580Y-58723550D01*
X49588240Y-58722094D01*
X49588239Y-58722093D01*
X49588237Y-58722091D01*
X49468372Y-58628796D01*
X49410576Y-58583811D01*
X49212574Y-58476658D01*
X49212572Y-58476657D01*
X49212571Y-58476656D01*
X48999639Y-58403557D01*
X48999630Y-58403555D01*
X48955476Y-58396187D01*
X48777569Y-58366500D01*
X48552431Y-58366500D01*
X48404211Y-58391233D01*
X48330369Y-58403555D01*
X48330360Y-58403557D01*
X48117428Y-58476656D01*
X48117426Y-58476658D01*
X47919426Y-58583810D01*
X47919424Y-58583811D01*
X47741762Y-58722091D01*
X47589279Y-58887729D01*
X47500183Y-59024101D01*
X47446179Y-59070189D01*
X47375831Y-59079764D01*
X47311474Y-59049786D01*
X47289217Y-59024100D01*
X47200327Y-58888044D01*
X47047902Y-58722465D01*
X46870301Y-58584232D01*
X46870300Y-58584231D01*
X46672371Y-58477117D01*
X46672369Y-58477116D01*
X46525000Y-58426525D01*
X46525000Y-59422582D01*
X46506761Y-59394202D01*
X46398100Y-59300048D01*
X46267315Y-59240320D01*
X46160763Y-59225000D01*
X46089237Y-59225000D01*
X45982685Y-59240320D01*
X45851900Y-59300048D01*
X45743239Y-59394202D01*
X45665507Y-59515156D01*
X45625000Y-59653111D01*
X45625000Y-59796889D01*
X38070000Y-59796889D01*
X38070000Y-59653111D01*
X38029493Y-59515156D01*
X37951761Y-59394202D01*
X37843100Y-59300048D01*
X37712315Y-59240320D01*
X37605763Y-59225000D01*
X37534237Y-59225000D01*
X37427685Y-59240320D01*
X37296900Y-59300048D01*
X37188239Y-59394202D01*
X37170000Y-59422582D01*
X37170000Y-58426525D01*
X37970000Y-58426525D01*
X37970000Y-59325000D01*
X38869571Y-59325000D01*
X44825429Y-59325000D01*
X45725000Y-59325000D01*
X45725000Y-58426525D01*
X45577630Y-58477116D01*
X45577628Y-58477117D01*
X45379699Y-58584231D01*
X45379698Y-58584232D01*
X45202097Y-58722465D01*
X45049674Y-58888041D01*
X44926580Y-59076451D01*
X44836180Y-59282541D01*
X44825429Y-59325000D01*
X38869571Y-59325000D01*
X38858819Y-59282541D01*
X38768419Y-59076451D01*
X38645325Y-58888041D01*
X38492902Y-58722465D01*
X38315301Y-58584232D01*
X38315300Y-58584231D01*
X38117371Y-58477117D01*
X38117369Y-58477116D01*
X37970000Y-58426525D01*
X37170000Y-58426525D01*
X37022630Y-58477116D01*
X37022628Y-58477117D01*
X36824699Y-58584231D01*
X36824698Y-58584232D01*
X36647097Y-58722465D01*
X36494670Y-58888045D01*
X36405780Y-59024101D01*
X36351776Y-59070189D01*
X36281428Y-59079764D01*
X36217071Y-59049786D01*
X36194816Y-59024101D01*
X36155884Y-58964511D01*
X36105724Y-58887734D01*
X36105720Y-58887729D01*
X35954580Y-58723550D01*
X35953240Y-58722094D01*
X35953239Y-58722093D01*
X35953237Y-58722091D01*
X35833372Y-58628796D01*
X35775576Y-58583811D01*
X35577574Y-58476658D01*
X35577572Y-58476657D01*
X35577571Y-58476656D01*
X35364639Y-58403557D01*
X35364630Y-58403555D01*
X35320476Y-58396187D01*
X35142569Y-58366500D01*
X34917431Y-58366500D01*
X34769211Y-58391233D01*
X34695369Y-58403555D01*
X34695360Y-58403557D01*
X34482428Y-58476656D01*
X34482426Y-58476658D01*
X34284426Y-58583810D01*
X34284424Y-58583811D01*
X34106762Y-58722091D01*
X33954279Y-58887729D01*
X33865483Y-59023643D01*
X33811479Y-59069731D01*
X33741131Y-59079306D01*
X33676774Y-59049329D01*
X33654517Y-59023643D01*
X33565720Y-58887729D01*
X33414580Y-58723550D01*
X33413240Y-58722094D01*
X33413239Y-58722093D01*
X33413237Y-58722091D01*
X33293372Y-58628796D01*
X33235576Y-58583811D01*
X33037574Y-58476658D01*
X33037572Y-58476657D01*
X33037571Y-58476656D01*
X32824639Y-58403557D01*
X32824630Y-58403555D01*
X32780476Y-58396187D01*
X32602569Y-58366500D01*
X32377431Y-58366500D01*
X32229211Y-58391233D01*
X32155369Y-58403555D01*
X32155360Y-58403557D01*
X31942428Y-58476656D01*
X31942426Y-58476658D01*
X31744426Y-58583810D01*
X31744424Y-58583811D01*
X31566762Y-58722091D01*
X31505754Y-58788363D01*
X31444901Y-58824933D01*
X31373936Y-58822798D01*
X31315391Y-58782636D01*
X31295000Y-58747062D01*
X31294999Y-58747058D01*
X31283064Y-58715064D01*
X31281023Y-58708519D01*
X31274914Y-58684372D01*
X31271855Y-58672279D01*
X30967991Y-57934324D01*
X30958500Y-57886349D01*
X30958500Y-49052641D01*
X30958804Y-49046462D01*
X30963380Y-49000000D01*
X30963380Y-48999998D01*
X30958803Y-48953534D01*
X30958499Y-48947354D01*
X30958499Y-48820294D01*
X30978501Y-48752173D01*
X31032157Y-48705680D01*
X31102431Y-48695576D01*
X31167011Y-48725070D01*
X31173593Y-48731198D01*
X33442393Y-50999999D01*
X35491054Y-53048660D01*
X35501019Y-53061097D01*
X35501246Y-53060910D01*
X35506298Y-53067017D01*
X35557377Y-53114983D01*
X35578522Y-53136129D01*
X35578526Y-53136132D01*
X35578529Y-53136135D01*
X35584081Y-53140442D01*
X35588568Y-53144273D01*
X35603718Y-53158500D01*
X35622976Y-53176585D01*
X35622978Y-53176586D01*
X35640727Y-53186343D01*
X35657252Y-53197198D01*
X35673258Y-53209614D01*
X35692273Y-53217842D01*
X35716561Y-53228352D01*
X35721882Y-53230958D01*
X35763239Y-53253695D01*
X35763247Y-53253697D01*
X35782857Y-53258732D01*
X35801566Y-53265137D01*
X35820154Y-53273181D01*
X35866776Y-53280564D01*
X35872561Y-53281763D01*
X35918269Y-53293500D01*
X35938523Y-53293500D01*
X35958233Y-53295051D01*
X35960440Y-53295400D01*
X35978242Y-53298220D01*
X36012169Y-53295012D01*
X36025216Y-53293780D01*
X36031149Y-53293500D01*
X36219970Y-53293500D01*
X62170101Y-53293500D01*
X62238222Y-53313502D01*
X62259196Y-53330405D01*
X63517450Y-54588660D01*
X63527415Y-54601097D01*
X63527642Y-54600910D01*
X63532694Y-54607017D01*
X63583774Y-54654984D01*
X63604918Y-54676129D01*
X63604922Y-54676132D01*
X63604925Y-54676135D01*
X63610477Y-54680442D01*
X63614964Y-54684273D01*
X63637654Y-54705581D01*
X63649372Y-54716585D01*
X63649374Y-54716586D01*
X63667123Y-54726343D01*
X63683648Y-54737198D01*
X63699654Y-54749614D01*
X63741381Y-54767670D01*
X63742957Y-54768352D01*
X63748278Y-54770958D01*
X63789635Y-54793695D01*
X63789643Y-54793697D01*
X63809253Y-54798732D01*
X63827962Y-54805137D01*
X63846550Y-54813181D01*
X63893172Y-54820564D01*
X63898957Y-54821763D01*
X63944665Y-54833500D01*
X63964919Y-54833500D01*
X63984629Y-54835051D01*
X63986836Y-54835400D01*
X64004638Y-54838220D01*
X64038565Y-54835012D01*
X64051612Y-54833780D01*
X64057545Y-54833500D01*
X64119938Y-54833500D01*
X64164492Y-54841640D01*
X64704772Y-55045878D01*
X64704771Y-55045878D01*
X64733149Y-55055165D01*
X64744994Y-55059041D01*
X64751020Y-55061362D01*
X64767712Y-55068794D01*
X64954513Y-55108500D01*
X65145487Y-55108500D01*
X65332288Y-55068794D01*
X65506752Y-54991118D01*
X65661253Y-54878866D01*
X65661255Y-54878864D01*
X65789034Y-54736951D01*
X65789035Y-54736949D01*
X65789040Y-54736944D01*
X65884527Y-54571556D01*
X65943542Y-54389928D01*
X65963504Y-54200000D01*
X65943542Y-54010072D01*
X65884527Y-53828444D01*
X65789040Y-53663056D01*
X65789038Y-53663054D01*
X65789034Y-53663048D01*
X65661255Y-53521135D01*
X65506752Y-53408882D01*
X65332288Y-53331206D01*
X65145487Y-53291500D01*
X65086572Y-53291500D01*
X65018451Y-53271498D01*
X64971958Y-53217842D01*
X64961262Y-53178670D01*
X64956791Y-53136135D01*
X64943542Y-53010072D01*
X64884527Y-52828444D01*
X64789040Y-52663056D01*
X64751673Y-52621556D01*
X64735695Y-52603810D01*
X64704978Y-52539802D01*
X64713743Y-52469349D01*
X64759206Y-52414818D01*
X64826934Y-52393523D01*
X64829332Y-52393500D01*
X64983136Y-52393500D01*
X65051257Y-52413502D01*
X65097750Y-52467158D01*
X65098504Y-52468842D01*
X65155674Y-52599042D01*
X65155675Y-52599044D01*
X65158679Y-52605079D01*
X65164743Y-52619917D01*
X65165472Y-52621554D01*
X65174693Y-52637527D01*
X65176526Y-52640942D01*
X65177651Y-52643202D01*
X65180179Y-52647259D01*
X65181371Y-52649092D01*
X65260958Y-52786941D01*
X65260965Y-52786951D01*
X65388744Y-52928864D01*
X65388747Y-52928866D01*
X65543248Y-53041118D01*
X65717712Y-53118794D01*
X65904513Y-53158500D01*
X66095487Y-53158500D01*
X66282288Y-53118794D01*
X66456752Y-53041118D01*
X66611253Y-52928866D01*
X66611255Y-52928864D01*
X66739034Y-52786951D01*
X66739035Y-52786949D01*
X66739040Y-52786944D01*
X66834527Y-52621556D01*
X66893542Y-52439928D01*
X66913504Y-52250000D01*
X66893542Y-52060072D01*
X66834527Y-51878444D01*
X66739040Y-51713056D01*
X66739037Y-51713053D01*
X66735157Y-51707712D01*
X66736700Y-51706590D01*
X66709952Y-51650872D01*
X66718707Y-51580418D01*
X66740668Y-51546241D01*
X66749040Y-51536944D01*
X66844527Y-51371556D01*
X66903542Y-51189928D01*
X66923504Y-51000000D01*
X66903542Y-50810072D01*
X66844527Y-50628444D01*
X66749040Y-50463056D01*
X66749038Y-50463054D01*
X66749034Y-50463048D01*
X66621255Y-50321135D01*
X66466752Y-50208882D01*
X66292288Y-50131206D01*
X66105487Y-50091500D01*
X65914513Y-50091500D01*
X65727711Y-50131206D01*
X65553247Y-50208882D01*
X65398746Y-50321134D01*
X65351726Y-50373355D01*
X65347138Y-50377950D01*
X65324021Y-50398833D01*
X65175220Y-50577908D01*
X65133228Y-50628445D01*
X65131083Y-50631026D01*
X65072163Y-50670636D01*
X65034173Y-50676500D01*
X39149899Y-50676500D01*
X39081778Y-50656498D01*
X39060803Y-50639595D01*
X38307550Y-49886341D01*
X38297586Y-49873904D01*
X38297360Y-49874092D01*
X38292306Y-49867983D01*
X38241210Y-49820001D01*
X38220084Y-49798875D01*
X38220075Y-49798866D01*
X38220068Y-49798861D01*
X38220062Y-49798855D01*
X38214536Y-49794569D01*
X38210025Y-49790716D01*
X38175626Y-49758414D01*
X38175621Y-49758411D01*
X38160304Y-49749991D01*
X38157872Y-49748654D01*
X38141346Y-49737798D01*
X38125347Y-49725387D01*
X38082051Y-49706651D01*
X38076719Y-49704039D01*
X38049329Y-49688982D01*
X38035365Y-49681305D01*
X38035362Y-49681304D01*
X38015735Y-49676264D01*
X37997037Y-49669862D01*
X37978449Y-49661818D01*
X37931848Y-49654437D01*
X37926034Y-49653233D01*
X37901477Y-49646928D01*
X37880335Y-49641500D01*
X37880334Y-49641500D01*
X37860081Y-49641500D01*
X37840371Y-49639949D01*
X37820362Y-49636780D01*
X37820361Y-49636780D01*
X37773388Y-49641220D01*
X37767455Y-49641500D01*
X36808853Y-49641500D01*
X36793011Y-49639750D01*
X36792984Y-49640044D01*
X36785091Y-49639297D01*
X36715028Y-49641500D01*
X36685144Y-49641500D01*
X36685140Y-49641500D01*
X36685129Y-49641501D01*
X36678190Y-49642377D01*
X36672277Y-49642843D01*
X36625114Y-49644325D01*
X36625107Y-49644327D01*
X36605649Y-49649979D01*
X36586304Y-49653985D01*
X36566206Y-49656525D01*
X36566197Y-49656527D01*
X36522331Y-49673894D01*
X36516716Y-49675817D01*
X36471408Y-49688981D01*
X36453964Y-49699297D01*
X36436218Y-49707990D01*
X36417382Y-49715448D01*
X36379209Y-49743181D01*
X36374248Y-49746440D01*
X36333638Y-49770458D01*
X36319311Y-49784784D01*
X36304285Y-49797617D01*
X36287895Y-49809525D01*
X36287893Y-49809527D01*
X36257808Y-49845892D01*
X36253812Y-49850283D01*
X36209707Y-49894387D01*
X36172448Y-49920136D01*
X35645991Y-50157757D01*
X35645992Y-50157757D01*
X35604600Y-50178740D01*
X35599586Y-50181906D01*
X35599244Y-50181364D01*
X35582167Y-50191553D01*
X35579083Y-50192927D01*
X35543247Y-50208882D01*
X35543245Y-50208884D01*
X35388749Y-50321132D01*
X35388742Y-50321138D01*
X35384239Y-50326139D01*
X35323790Y-50363374D01*
X35252806Y-50362016D01*
X35201515Y-50330916D01*
X33942439Y-49071840D01*
X32645405Y-47774805D01*
X32611379Y-47712493D01*
X32608500Y-47685710D01*
X32608500Y-47374009D01*
X34536500Y-47374009D01*
X34548235Y-47483155D01*
X34548235Y-47483159D01*
X34559617Y-47535480D01*
X34559623Y-47535501D01*
X34594288Y-47639654D01*
X34594290Y-47639657D01*
X34673308Y-47762612D01*
X34673311Y-47762615D01*
X34673315Y-47762621D01*
X34718685Y-47814981D01*
X34719601Y-47816097D01*
X34830258Y-47911980D01*
X34830261Y-47911982D01*
X34963210Y-47972698D01*
X35031331Y-47992700D01*
X35176000Y-48013500D01*
X35176004Y-48013500D01*
X44923994Y-48013500D01*
X44924000Y-48013500D01*
X45033149Y-48001766D01*
X45033158Y-48001764D01*
X45033159Y-48001764D01*
X45049303Y-47998251D01*
X45085491Y-47990380D01*
X45189657Y-47955710D01*
X45312612Y-47876692D01*
X45365011Y-47831288D01*
X45366101Y-47830393D01*
X45366270Y-47830198D01*
X45461982Y-47719739D01*
X45522698Y-47586790D01*
X45542700Y-47518669D01*
X45563500Y-47374000D01*
X45563500Y-46889965D01*
X45563226Y-46878101D01*
X45562409Y-46860436D01*
X45561588Y-46848609D01*
X45553527Y-46761621D01*
X45553527Y-46738376D01*
X45561588Y-46651389D01*
X45562409Y-46639562D01*
X45563226Y-46621897D01*
X45563500Y-46610033D01*
X45563500Y-44289499D01*
X45583502Y-44221379D01*
X45637158Y-44174886D01*
X45689500Y-44163500D01*
X47273994Y-44163500D01*
X47274000Y-44163500D01*
X47383149Y-44151766D01*
X47383158Y-44151764D01*
X47383159Y-44151764D01*
X47409706Y-44145989D01*
X47435491Y-44140380D01*
X47539657Y-44105710D01*
X47662612Y-44026692D01*
X47715011Y-43981288D01*
X47716101Y-43980393D01*
X47811980Y-43869741D01*
X47811982Y-43869739D01*
X47872698Y-43736790D01*
X47892700Y-43668669D01*
X47913500Y-43524000D01*
X47913500Y-41476000D01*
X47901766Y-41366851D01*
X47890380Y-41314509D01*
X47872927Y-41262073D01*
X47855711Y-41210345D01*
X47825702Y-41163650D01*
X47776692Y-41087388D01*
X47731307Y-41035011D01*
X47730396Y-41033900D01*
X47619741Y-40938019D01*
X47619738Y-40938017D01*
X47486789Y-40877301D01*
X47418677Y-40857302D01*
X47418670Y-40857300D01*
X47389735Y-40853140D01*
X47274000Y-40836500D01*
X47273996Y-40836500D01*
X45689500Y-40836500D01*
X45621379Y-40816498D01*
X45574886Y-40762842D01*
X45563500Y-40710500D01*
X45563500Y-37626005D01*
X45563499Y-37625990D01*
X45560705Y-37600000D01*
X45551766Y-37516851D01*
X45548100Y-37500000D01*
X50136751Y-37500000D01*
X50155706Y-37704562D01*
X50211923Y-37902144D01*
X50211929Y-37902160D01*
X50303493Y-38086045D01*
X50303497Y-38086050D01*
X50427297Y-38249990D01*
X50579116Y-38388391D01*
X50579118Y-38388392D01*
X50753782Y-38496540D01*
X50945345Y-38570751D01*
X51147282Y-38608500D01*
X51147285Y-38608500D01*
X51352715Y-38608500D01*
X51352718Y-38608500D01*
X51554655Y-38570751D01*
X51746218Y-38496540D01*
X51920882Y-38388392D01*
X52072701Y-38249991D01*
X52083215Y-38236066D01*
X52085358Y-38233386D01*
X52837126Y-37344936D01*
X52856971Y-37319857D01*
X52861810Y-37314422D01*
X58018328Y-32157905D01*
X58080641Y-32123879D01*
X58107424Y-32121000D01*
X66835864Y-32121000D01*
X66864090Y-32124202D01*
X66868084Y-32125120D01*
X67976923Y-32217522D01*
X67983235Y-32218374D01*
X67997282Y-32221000D01*
X68016023Y-32221000D01*
X68021256Y-32221218D01*
X68055233Y-32224049D01*
X68059838Y-32224242D01*
X68066744Y-32224532D01*
X68066745Y-32224531D01*
X68066747Y-32224532D01*
X68066748Y-32224532D01*
X68075506Y-32224254D01*
X68142334Y-32222134D01*
X68142341Y-32222132D01*
X68146002Y-32221617D01*
X68154803Y-32221000D01*
X68202715Y-32221000D01*
X68202718Y-32221000D01*
X68404655Y-32183251D01*
X68594987Y-32109516D01*
X68665730Y-32103561D01*
X68728466Y-32136798D01*
X68763273Y-32198677D01*
X68766500Y-32227009D01*
X68766500Y-33969935D01*
X68758360Y-34014489D01*
X68554121Y-34554774D01*
X68554121Y-34554773D01*
X68539711Y-34598802D01*
X68539301Y-34601979D01*
X68534172Y-34624775D01*
X68506457Y-34710071D01*
X68486496Y-34899999D01*
X68506457Y-35089927D01*
X68528721Y-35158445D01*
X68565473Y-35271556D01*
X68565476Y-35271561D01*
X68660958Y-35436941D01*
X68660965Y-35436951D01*
X68788744Y-35578864D01*
X68806363Y-35591665D01*
X68849717Y-35647887D01*
X68855792Y-35718624D01*
X68822661Y-35781415D01*
X68821397Y-35782696D01*
X68109705Y-36494388D01*
X68072446Y-36520137D01*
X67545991Y-36757757D01*
X67545992Y-36757757D01*
X67504600Y-36778740D01*
X67499586Y-36781906D01*
X67499244Y-36781364D01*
X67482167Y-36791553D01*
X67464194Y-36799555D01*
X67443247Y-36808882D01*
X67443245Y-36808884D01*
X67288744Y-36921135D01*
X67160965Y-37063048D01*
X67160958Y-37063058D01*
X67065476Y-37228438D01*
X67065473Y-37228445D01*
X67006457Y-37410072D01*
X66986496Y-37600000D01*
X67006457Y-37789927D01*
X67058977Y-37951563D01*
X67061005Y-38022531D01*
X67024342Y-38083329D01*
X66960630Y-38114654D01*
X66939144Y-38116500D01*
X61155064Y-38116500D01*
X61110511Y-38108360D01*
X60748615Y-37971556D01*
X60587267Y-37910563D01*
X60570222Y-37904120D01*
X60570213Y-37904117D01*
X60570205Y-37904114D01*
X60570207Y-37904114D01*
X60530010Y-37890959D01*
X60523980Y-37888637D01*
X60507289Y-37881206D01*
X60320487Y-37841500D01*
X60129513Y-37841500D01*
X59942711Y-37881206D01*
X59768247Y-37958882D01*
X59613744Y-38071135D01*
X59485965Y-38213048D01*
X59485958Y-38213058D01*
X59390476Y-38378438D01*
X59390473Y-38378445D01*
X59331457Y-38560072D01*
X59311496Y-38750000D01*
X59331457Y-38939927D01*
X59361526Y-39032470D01*
X59390473Y-39121556D01*
X59390476Y-39121561D01*
X59485958Y-39286941D01*
X59485965Y-39286951D01*
X59613744Y-39428864D01*
X59613747Y-39428866D01*
X59768248Y-39541118D01*
X59942712Y-39618794D01*
X60129513Y-39658500D01*
X60320487Y-39658500D01*
X60507288Y-39618794D01*
X60535772Y-39606111D01*
X60559701Y-39598216D01*
X60570224Y-39595878D01*
X60570223Y-39595878D01*
X60570229Y-39595877D01*
X61110507Y-39391640D01*
X61155062Y-39383500D01*
X67494938Y-39383500D01*
X67539492Y-39391640D01*
X68079772Y-39595878D01*
X68079771Y-39595878D01*
X68108149Y-39605165D01*
X68119994Y-39609041D01*
X68126020Y-39611362D01*
X68142712Y-39618794D01*
X68329513Y-39658500D01*
X68520487Y-39658500D01*
X68707288Y-39618794D01*
X68881752Y-39541118D01*
X69036253Y-39428866D01*
X69036255Y-39428864D01*
X69164034Y-39286951D01*
X69164035Y-39286949D01*
X69164040Y-39286944D01*
X69259527Y-39121556D01*
X69318542Y-38939928D01*
X69338504Y-38750000D01*
X69318542Y-38560072D01*
X69259527Y-38378444D01*
X69164040Y-38213056D01*
X69164038Y-38213054D01*
X69164034Y-38213048D01*
X69036255Y-38071135D01*
X68969357Y-38022531D01*
X68881752Y-37958882D01*
X68881748Y-37958880D01*
X68881745Y-37958878D01*
X68879447Y-37957855D01*
X68878332Y-37956907D01*
X68876028Y-37955577D01*
X68876271Y-37955155D01*
X68825351Y-37911874D01*
X68804703Y-37843947D01*
X68815852Y-37790916D01*
X68979858Y-37427553D01*
X69005603Y-37390299D01*
X70513657Y-35882245D01*
X70526092Y-35872284D01*
X70525905Y-35872057D01*
X70532009Y-35867005D01*
X70532018Y-35867000D01*
X70579999Y-35815904D01*
X70601134Y-35794770D01*
X70605429Y-35789232D01*
X70609271Y-35784731D01*
X70641586Y-35750321D01*
X70651345Y-35732567D01*
X70662197Y-35716046D01*
X70674613Y-35700041D01*
X70693347Y-35656748D01*
X70695961Y-35651412D01*
X70710062Y-35625763D01*
X70718695Y-35610060D01*
X70723733Y-35590435D01*
X70730138Y-35571730D01*
X70738181Y-35553145D01*
X70745561Y-35506547D01*
X70746762Y-35500740D01*
X70758500Y-35455030D01*
X70758500Y-35434775D01*
X70760051Y-35415063D01*
X70763220Y-35395057D01*
X70760629Y-35367651D01*
X70758780Y-35348080D01*
X70758500Y-35342148D01*
X70758500Y-31939594D01*
X70778502Y-31871473D01*
X70795405Y-31850499D01*
X74100500Y-28545405D01*
X74162812Y-28511379D01*
X74189595Y-28508500D01*
X74569938Y-28508500D01*
X74614492Y-28516640D01*
X75154772Y-28720878D01*
X75154771Y-28720878D01*
X75183149Y-28730165D01*
X75194994Y-28734041D01*
X75201020Y-28736362D01*
X75217712Y-28743794D01*
X75404513Y-28783500D01*
X75595487Y-28783500D01*
X75782288Y-28743794D01*
X75956752Y-28666118D01*
X76111253Y-28553866D01*
X76115820Y-28548794D01*
X76239034Y-28411951D01*
X76239035Y-28411949D01*
X76239040Y-28411944D01*
X76334527Y-28246556D01*
X76393542Y-28064928D01*
X76413504Y-27875000D01*
X76393542Y-27685072D01*
X76334527Y-27503444D01*
X76239040Y-27338056D01*
X76239038Y-27338054D01*
X76239034Y-27338048D01*
X76111255Y-27196135D01*
X75956752Y-27083882D01*
X75782288Y-27006206D01*
X75595487Y-26966500D01*
X75404513Y-26966500D01*
X75217709Y-27006206D01*
X75189230Y-27018886D01*
X75165311Y-27026780D01*
X75154773Y-27029121D01*
X75154772Y-27029121D01*
X74614489Y-27233360D01*
X74569935Y-27241500D01*
X73958853Y-27241500D01*
X73943011Y-27239750D01*
X73942984Y-27240044D01*
X73935091Y-27239297D01*
X73865028Y-27241500D01*
X73835144Y-27241500D01*
X73835140Y-27241500D01*
X73835129Y-27241501D01*
X73828190Y-27242377D01*
X73822277Y-27242843D01*
X73775114Y-27244325D01*
X73775107Y-27244327D01*
X73755649Y-27249979D01*
X73736304Y-27253985D01*
X73716206Y-27256525D01*
X73716197Y-27256527D01*
X73672331Y-27273894D01*
X73666716Y-27275817D01*
X73621408Y-27288981D01*
X73603964Y-27299297D01*
X73586218Y-27307990D01*
X73567382Y-27315448D01*
X73529209Y-27343181D01*
X73524248Y-27346440D01*
X73483638Y-27370458D01*
X73469311Y-27384784D01*
X73454285Y-27397617D01*
X73437895Y-27409525D01*
X73437893Y-27409527D01*
X73407808Y-27445892D01*
X73403812Y-27450283D01*
X70248595Y-30605500D01*
X70186283Y-30639526D01*
X70115468Y-30634461D01*
X70058632Y-30591914D01*
X70033821Y-30525394D01*
X70033500Y-30516405D01*
X70033500Y-29627093D01*
X70053502Y-29558972D01*
X70070399Y-29538003D01*
X70390301Y-29218101D01*
X70427553Y-29192358D01*
X70785575Y-29030764D01*
X70954004Y-28954743D01*
X70988647Y-28937183D01*
X70995357Y-28933782D01*
X70995358Y-28933780D01*
X70995362Y-28933779D01*
X71000370Y-28930618D01*
X71000712Y-28931160D01*
X71017800Y-28920960D01*
X71056752Y-28903618D01*
X71211253Y-28791366D01*
X71218336Y-28783500D01*
X71339034Y-28649451D01*
X71339035Y-28649449D01*
X71339040Y-28649444D01*
X71434527Y-28484056D01*
X71493542Y-28302428D01*
X71513504Y-28112500D01*
X71493542Y-27922572D01*
X71434527Y-27740944D01*
X71339040Y-27575556D01*
X71339038Y-27575554D01*
X71339034Y-27575548D01*
X71211255Y-27433635D01*
X71056752Y-27321382D01*
X70882288Y-27243706D01*
X70695487Y-27204000D01*
X70504513Y-27204000D01*
X70317711Y-27243706D01*
X70143247Y-27321382D01*
X69988744Y-27433635D01*
X69860965Y-27575548D01*
X69860958Y-27575558D01*
X69765473Y-27740941D01*
X69762788Y-27746974D01*
X69762641Y-27746908D01*
X69759464Y-27754324D01*
X69759610Y-27754390D01*
X69757761Y-27758486D01*
X69757760Y-27758488D01*
X69721393Y-27839061D01*
X69520139Y-28284944D01*
X69494390Y-28322203D01*
X69011336Y-28805257D01*
X68998901Y-28815221D01*
X68999089Y-28815448D01*
X68992980Y-28820501D01*
X68945016Y-28871578D01*
X68923866Y-28892727D01*
X68919560Y-28898277D01*
X68915714Y-28902779D01*
X68883417Y-28937174D01*
X68883411Y-28937183D01*
X68873651Y-28954935D01*
X68862803Y-28971450D01*
X68850386Y-28987458D01*
X68831645Y-29030764D01*
X68829034Y-29036094D01*
X68806305Y-29077439D01*
X68806303Y-29077444D01*
X68801267Y-29097059D01*
X68794864Y-29115762D01*
X68786819Y-29134352D01*
X68779437Y-29180956D01*
X68778233Y-29186768D01*
X68766500Y-29232468D01*
X68766500Y-29252723D01*
X68764949Y-29272433D01*
X68761780Y-29292442D01*
X68761780Y-29292443D01*
X68766220Y-29339417D01*
X68766500Y-29345350D01*
X68766500Y-29997990D01*
X68746498Y-30066111D01*
X68692842Y-30112604D01*
X68622568Y-30122708D01*
X68594984Y-30115482D01*
X68404656Y-30041749D01*
X68354170Y-30032311D01*
X68202718Y-30004000D01*
X68202715Y-30004000D01*
X68082952Y-30004000D01*
X68079195Y-30003888D01*
X68044705Y-30001828D01*
X68021250Y-30003782D01*
X68016018Y-30004000D01*
X67997282Y-30004000D01*
X67995138Y-30004400D01*
X67983247Y-30006622D01*
X67976904Y-30007477D01*
X66868083Y-30099880D01*
X66848580Y-30102151D01*
X66836337Y-30103577D01*
X66829046Y-30104000D01*
X57690141Y-30104000D01*
X57683961Y-30103696D01*
X57637502Y-30099120D01*
X57637498Y-30099120D01*
X57587953Y-30104000D01*
X57439805Y-30118590D01*
X57249695Y-30176259D01*
X57074495Y-30269905D01*
X56920930Y-30395933D01*
X56891303Y-30432032D01*
X56887150Y-30436615D01*
X51430765Y-35892999D01*
X51408550Y-35910689D01*
X51405072Y-35912866D01*
X50582009Y-36609303D01*
X50579302Y-36611469D01*
X50579116Y-36611609D01*
X50576935Y-36613597D01*
X50495404Y-36682586D01*
X50486703Y-36690606D01*
X50486702Y-36690607D01*
X50454595Y-36724860D01*
X50451074Y-36728333D01*
X50427299Y-36750008D01*
X50303497Y-36913949D01*
X50303493Y-36913954D01*
X50211929Y-37097839D01*
X50211923Y-37097855D01*
X50155706Y-37295437D01*
X50136751Y-37500000D01*
X45548100Y-37500000D01*
X45540382Y-37464519D01*
X45540380Y-37464509D01*
X45521098Y-37406576D01*
X45505711Y-37360345D01*
X45495809Y-37344937D01*
X45426692Y-37237388D01*
X45381307Y-37185011D01*
X45380396Y-37183900D01*
X45269741Y-37088019D01*
X45269738Y-37088017D01*
X45136789Y-37027301D01*
X45068677Y-37007302D01*
X45068670Y-37007300D01*
X45039735Y-37003140D01*
X44924000Y-36986500D01*
X35176000Y-36986500D01*
X35175990Y-36986500D01*
X35087267Y-36996039D01*
X35066851Y-36998234D01*
X35066848Y-36998234D01*
X35066844Y-36998235D01*
X35066840Y-36998235D01*
X35014519Y-37009617D01*
X35014498Y-37009623D01*
X34910345Y-37044288D01*
X34787385Y-37123310D01*
X34735019Y-37168685D01*
X34733904Y-37169599D01*
X34638019Y-37280258D01*
X34638017Y-37280261D01*
X34577301Y-37413210D01*
X34557302Y-37481322D01*
X34557300Y-37481329D01*
X34557300Y-37481331D01*
X34536502Y-37625990D01*
X34536500Y-37626003D01*
X34536500Y-47374009D01*
X32608500Y-47374009D01*
X32608500Y-46610033D01*
X32608500Y-45308843D01*
X32610249Y-45293011D01*
X32609956Y-45292984D01*
X32610702Y-45285091D01*
X32608500Y-45215028D01*
X32608500Y-45185150D01*
X32608500Y-45185144D01*
X32607620Y-45178182D01*
X32607156Y-45172293D01*
X32605674Y-45125111D01*
X32600017Y-45105642D01*
X32596012Y-45086298D01*
X32593474Y-45066203D01*
X32576100Y-45022322D01*
X32574181Y-45016716D01*
X32561018Y-44971407D01*
X32550706Y-44953970D01*
X32542010Y-44936221D01*
X32534552Y-44917383D01*
X32506812Y-44879203D01*
X32503564Y-44874258D01*
X32479542Y-44833638D01*
X32465214Y-44819310D01*
X32452384Y-44804289D01*
X32440472Y-44787893D01*
X32440469Y-44787891D01*
X32440469Y-44787890D01*
X32404107Y-44757808D01*
X32399726Y-44753822D01*
X32355607Y-44709703D01*
X32329858Y-44672443D01*
X32178774Y-44337709D01*
X32092240Y-44145989D01*
X32091060Y-44143662D01*
X32087257Y-44134453D01*
X32087211Y-44134474D01*
X32084529Y-44128451D01*
X32084527Y-44128444D01*
X32084523Y-44128437D01*
X32075711Y-44113174D01*
X32074075Y-44110153D01*
X32071285Y-44104647D01*
X32070011Y-44102629D01*
X32067211Y-44098451D01*
X31989040Y-43963056D01*
X31989038Y-43963054D01*
X31989034Y-43963048D01*
X31861255Y-43821135D01*
X31706752Y-43708882D01*
X31532288Y-43631206D01*
X31345487Y-43591500D01*
X31154513Y-43591500D01*
X31154511Y-43591500D01*
X31110695Y-43600813D01*
X31039904Y-43595410D01*
X30983272Y-43552593D01*
X30958779Y-43485955D01*
X30958499Y-43477594D01*
X30958499Y-40519922D01*
X30978501Y-40451802D01*
X30995399Y-40430833D01*
X35180828Y-36245405D01*
X35243141Y-36211379D01*
X35269924Y-36208500D01*
X35735864Y-36208500D01*
X35764090Y-36211702D01*
X35768084Y-36212620D01*
X36876923Y-36305022D01*
X36883235Y-36305874D01*
X36897282Y-36308500D01*
X36916023Y-36308500D01*
X36921256Y-36308718D01*
X36955233Y-36311549D01*
X36959838Y-36311742D01*
X36966744Y-36312032D01*
X36966745Y-36312031D01*
X36966747Y-36312032D01*
X36966748Y-36312032D01*
X36975506Y-36311754D01*
X37042334Y-36309634D01*
X37042341Y-36309632D01*
X37046002Y-36309117D01*
X37054803Y-36308500D01*
X37102715Y-36308500D01*
X37102718Y-36308500D01*
X37304655Y-36270751D01*
X37496218Y-36196540D01*
X37670882Y-36088392D01*
X37822701Y-35949991D01*
X37946503Y-35786050D01*
X37946504Y-35786046D01*
X37946506Y-35786045D01*
X38038070Y-35602160D01*
X38038069Y-35602160D01*
X38038074Y-35602152D01*
X38094294Y-35404559D01*
X38113249Y-35200000D01*
X38094294Y-34995441D01*
X38067138Y-34899999D01*
X38038076Y-34797855D01*
X38038075Y-34797854D01*
X38038074Y-34797848D01*
X38038070Y-34797839D01*
X37946506Y-34613954D01*
X37946502Y-34613949D01*
X37946248Y-34613613D01*
X37878663Y-34524115D01*
X37822702Y-34450009D01*
X37670883Y-34311608D01*
X37496223Y-34203463D01*
X37496222Y-34203462D01*
X37496218Y-34203460D01*
X37378867Y-34157998D01*
X37304656Y-34129249D01*
X37254170Y-34119811D01*
X37102718Y-34091500D01*
X37102715Y-34091500D01*
X36982952Y-34091500D01*
X36979195Y-34091388D01*
X36944705Y-34089328D01*
X36921250Y-34091282D01*
X36916018Y-34091500D01*
X36897282Y-34091500D01*
X36895138Y-34091900D01*
X36883247Y-34094122D01*
X36876904Y-34094977D01*
X35768083Y-34187380D01*
X35748580Y-34189651D01*
X35736337Y-34191077D01*
X35729046Y-34191500D01*
X34852644Y-34191500D01*
X34846465Y-34191196D01*
X34800003Y-34186620D01*
X34799996Y-34186620D01*
X34602307Y-34206089D01*
X34602298Y-34206091D01*
X34568350Y-34216389D01*
X34456442Y-34250337D01*
X34422493Y-34260635D01*
X34412195Y-34263759D01*
X34236995Y-34357405D01*
X34083430Y-34483433D01*
X34053803Y-34519532D01*
X34049650Y-34524115D01*
X29274115Y-39299650D01*
X29269532Y-39303803D01*
X29233433Y-39333430D01*
X29107405Y-39486995D01*
X29031504Y-39628997D01*
X29013760Y-39662192D01*
X29013754Y-39662207D01*
X28956091Y-39852295D01*
X28956089Y-39852307D01*
X28936620Y-40049995D01*
X28936620Y-40050004D01*
X28941196Y-40096466D01*
X28941499Y-40102643D01*
X28941499Y-47784574D01*
X28921497Y-47852695D01*
X28867841Y-47899188D01*
X28805035Y-47910139D01*
X28623092Y-47894977D01*
X28616745Y-47894122D01*
X28602725Y-47891501D01*
X28602721Y-47891500D01*
X28602718Y-47891500D01*
X28602714Y-47891500D01*
X28583987Y-47891500D01*
X28578754Y-47891282D01*
X28565447Y-47890173D01*
X28544535Y-47888431D01*
X28532804Y-47887948D01*
X28532801Y-47887948D01*
X28532799Y-47887948D01*
X28457639Y-47890366D01*
X28453996Y-47890881D01*
X28445182Y-47891500D01*
X28397282Y-47891500D01*
X28276119Y-47914149D01*
X28195343Y-47929249D01*
X28046921Y-47986748D01*
X28003782Y-48003460D01*
X28003781Y-48003460D01*
X28003780Y-48003461D01*
X28003776Y-48003463D01*
X27829116Y-48111608D01*
X27677297Y-48250009D01*
X27553497Y-48413949D01*
X27553493Y-48413954D01*
X27461929Y-48597839D01*
X27461923Y-48597855D01*
X27405706Y-48795437D01*
X27386751Y-49000000D01*
X24496814Y-49000000D01*
X24162500Y-48665685D01*
X24162499Y-48665685D01*
X23620471Y-49207712D01*
X22093760Y-49207712D01*
X22116395Y-49128160D01*
X22106046Y-49016479D01*
X22056052Y-48916078D01*
X21973166Y-48840516D01*
X21868580Y-48800000D01*
X21084698Y-48800000D01*
X21062500Y-48804149D01*
X21062500Y-48700000D01*
X21862500Y-48700000D01*
X22847902Y-48700000D01*
X22859873Y-48681372D01*
X22913528Y-48634879D01*
X22983802Y-48624774D01*
X23000696Y-48632489D01*
X23054786Y-48642027D01*
X23596813Y-48100000D01*
X23732202Y-48100000D01*
X23753262Y-48232969D01*
X23814382Y-48352923D01*
X23909577Y-48448118D01*
X24029531Y-48509238D01*
X24129049Y-48525000D01*
X24195951Y-48525000D01*
X24295469Y-48509238D01*
X24415423Y-48448118D01*
X24510618Y-48352923D01*
X24571738Y-48232969D01*
X24592798Y-48100000D01*
X24592798Y-48099999D01*
X24728185Y-48099999D01*
X25270213Y-48642026D01*
X25325565Y-48523327D01*
X25325565Y-48523326D01*
X25381405Y-48314929D01*
X25400209Y-48100000D01*
X25381405Y-47885070D01*
X25325567Y-47676680D01*
X25325563Y-47676670D01*
X25270213Y-47557972D01*
X25270212Y-47557971D01*
X24728185Y-48099998D01*
X24728185Y-48099999D01*
X24592798Y-48099999D01*
X24571738Y-47967031D01*
X24510618Y-47847077D01*
X24415423Y-47751882D01*
X24295469Y-47690762D01*
X24195951Y-47675000D01*
X24129049Y-47675000D01*
X24029531Y-47690762D01*
X23909577Y-47751882D01*
X23814382Y-47847077D01*
X23753262Y-47967031D01*
X23732202Y-48100000D01*
X23596813Y-48100000D01*
X23596814Y-48099999D01*
X23054786Y-47557971D01*
X22999434Y-47676674D01*
X22999432Y-47676680D01*
X22943594Y-47885070D01*
X22924790Y-48099999D01*
X22943594Y-48314929D01*
X22961882Y-48383179D01*
X22960192Y-48454156D01*
X22920398Y-48512951D01*
X22855133Y-48540899D01*
X22785120Y-48529125D01*
X22737538Y-48488877D01*
X22653678Y-48371112D01*
X22653677Y-48371111D01*
X22500535Y-48225090D01*
X22500534Y-48225089D01*
X22322524Y-48110691D01*
X22322519Y-48110688D01*
X22126085Y-48032047D01*
X22126079Y-48032046D01*
X21918305Y-47992000D01*
X21862500Y-47992000D01*
X21862500Y-48700000D01*
X21062500Y-48700000D01*
X21062500Y-47992000D01*
X21059721Y-47992000D01*
X21059699Y-47992001D01*
X20901866Y-48007072D01*
X20901851Y-48007075D01*
X20698822Y-48066689D01*
X20510745Y-48163650D01*
X20344414Y-48294455D01*
X20344408Y-48294460D01*
X20246725Y-48407194D01*
X20186998Y-48445578D01*
X20116002Y-48445578D01*
X20056276Y-48407195D01*
X20026783Y-48342614D01*
X20025500Y-48324682D01*
X20025500Y-46992286D01*
X23620471Y-46992286D01*
X24162499Y-47534314D01*
X24162500Y-47534314D01*
X24704527Y-46992286D01*
X24704526Y-46992285D01*
X24585825Y-46936934D01*
X24585819Y-46936932D01*
X24377429Y-46881094D01*
X24162500Y-46862290D01*
X23947570Y-46881094D01*
X23739180Y-46936932D01*
X23739174Y-46936934D01*
X23620471Y-46992286D01*
X20025500Y-46992286D01*
X20025500Y-44207712D01*
X23620471Y-44207712D01*
X23620472Y-44207713D01*
X23739170Y-44263063D01*
X23739180Y-44263067D01*
X23947570Y-44318905D01*
X24162499Y-44337709D01*
X24377429Y-44318905D01*
X24585826Y-44263065D01*
X24585827Y-44263065D01*
X24704526Y-44207713D01*
X24162500Y-43665685D01*
X24162499Y-43665685D01*
X23620471Y-44207712D01*
X20025500Y-44207712D01*
X20025500Y-42877842D01*
X20045502Y-42809721D01*
X20099158Y-42763228D01*
X20169432Y-42753124D01*
X20234012Y-42782618D01*
X20254137Y-42804755D01*
X20271321Y-42828887D01*
X20271322Y-42828888D01*
X20424464Y-42974909D01*
X20424465Y-42974910D01*
X20602475Y-43089308D01*
X20602480Y-43089311D01*
X20798914Y-43167952D01*
X20798920Y-43167953D01*
X21006694Y-43207999D01*
X21006703Y-43208000D01*
X21062500Y-43208000D01*
X21062500Y-42500000D01*
X21862500Y-42500000D01*
X21862500Y-43208000D01*
X21865279Y-43208000D01*
X21865300Y-43207998D01*
X22023133Y-43192927D01*
X22023148Y-43192924D01*
X22226177Y-43133310D01*
X22414254Y-43036349D01*
X22580585Y-42905544D01*
X22580591Y-42905539D01*
X22719156Y-42745625D01*
X22719157Y-42745624D01*
X22729152Y-42728313D01*
X22780534Y-42679319D01*
X22850247Y-42665881D01*
X22916159Y-42692267D01*
X22957341Y-42750099D01*
X22960721Y-42821015D01*
X22959979Y-42823921D01*
X22943595Y-42885068D01*
X22924790Y-43100000D01*
X22943594Y-43314929D01*
X22999432Y-43523319D01*
X22999434Y-43523325D01*
X23054785Y-43642026D01*
X23054786Y-43642027D01*
X23596813Y-43100000D01*
X23732202Y-43100000D01*
X23753262Y-43232969D01*
X23814382Y-43352923D01*
X23909577Y-43448118D01*
X24029531Y-43509238D01*
X24129049Y-43525000D01*
X24195951Y-43525000D01*
X24295469Y-43509238D01*
X24415423Y-43448118D01*
X24510618Y-43352923D01*
X24571738Y-43232969D01*
X24592798Y-43100000D01*
X24592798Y-43099999D01*
X24728185Y-43099999D01*
X25270213Y-43642026D01*
X25325565Y-43523327D01*
X25325565Y-43523326D01*
X25381405Y-43314929D01*
X25400209Y-43099999D01*
X25381405Y-42885070D01*
X25325567Y-42676680D01*
X25325563Y-42676670D01*
X25270213Y-42557972D01*
X25270212Y-42557971D01*
X24728185Y-43099999D01*
X24592798Y-43099999D01*
X24571738Y-42967031D01*
X24510618Y-42847077D01*
X24415423Y-42751882D01*
X24295469Y-42690762D01*
X24195951Y-42675000D01*
X24129049Y-42675000D01*
X24029531Y-42690762D01*
X23909577Y-42751882D01*
X23814382Y-42847077D01*
X23753262Y-42967031D01*
X23732202Y-43100000D01*
X23596813Y-43100000D01*
X23596814Y-43099999D01*
X23054786Y-42557971D01*
X22990191Y-42569362D01*
X22990164Y-42569209D01*
X22964894Y-42576408D01*
X22896938Y-42555855D01*
X22863278Y-42523499D01*
X22846545Y-42500000D01*
X21862500Y-42500000D01*
X21062500Y-42500000D01*
X21062500Y-42400000D01*
X21840302Y-42400000D01*
X21922750Y-42384588D01*
X22018110Y-42325543D01*
X22085701Y-42236038D01*
X22116395Y-42128160D01*
X22106046Y-42016479D01*
X22093999Y-41992286D01*
X23620471Y-41992286D01*
X24162499Y-42534314D01*
X24162500Y-42534314D01*
X24704527Y-41992286D01*
X24704526Y-41992285D01*
X24585825Y-41936934D01*
X24585819Y-41936932D01*
X24377429Y-41881094D01*
X24162500Y-41862290D01*
X23947570Y-41881094D01*
X23739180Y-41936932D01*
X23739174Y-41936934D01*
X23620471Y-41992286D01*
X22093999Y-41992286D01*
X22056052Y-41916078D01*
X21973166Y-41840516D01*
X21868580Y-41800000D01*
X21084698Y-41800000D01*
X21062500Y-41804149D01*
X21062500Y-40992000D01*
X21862500Y-40992000D01*
X21862500Y-41700000D01*
X22847902Y-41700000D01*
X22847902Y-41699999D01*
X22776422Y-41543484D01*
X22776420Y-41543480D01*
X22653678Y-41371112D01*
X22653677Y-41371111D01*
X22500535Y-41225090D01*
X22500534Y-41225089D01*
X22322524Y-41110691D01*
X22322519Y-41110688D01*
X22126085Y-41032047D01*
X22126079Y-41032046D01*
X21918305Y-40992000D01*
X21862500Y-40992000D01*
X21062500Y-40992000D01*
X21059721Y-40992000D01*
X21059699Y-40992001D01*
X20901866Y-41007072D01*
X20901851Y-41007075D01*
X20698822Y-41066689D01*
X20510745Y-41163650D01*
X20344414Y-41294455D01*
X20344408Y-41294460D01*
X20246725Y-41407194D01*
X20186998Y-41445578D01*
X20116002Y-41445578D01*
X20056276Y-41407195D01*
X20026783Y-41342614D01*
X20025500Y-41324682D01*
X20025500Y-30780004D01*
X25726807Y-30780004D01*
X25745556Y-31054116D01*
X25745557Y-31054119D01*
X25745558Y-31054130D01*
X25776217Y-31201670D01*
X25801460Y-31323146D01*
X25801462Y-31323154D01*
X25893477Y-31582058D01*
X26019892Y-31826028D01*
X26037166Y-31850499D01*
X26178343Y-32050502D01*
X26365889Y-32251314D01*
X26579031Y-32424718D01*
X26813800Y-32567484D01*
X26813803Y-32567485D01*
X26813806Y-32567487D01*
X26815587Y-32568410D01*
X26816045Y-32568848D01*
X26817478Y-32569720D01*
X26817285Y-32570036D01*
X26866867Y-32617511D01*
X26883460Y-32686541D01*
X26860099Y-32753584D01*
X26817546Y-32790459D01*
X26817708Y-32790725D01*
X26816142Y-32791676D01*
X26815599Y-32792148D01*
X26814034Y-32792959D01*
X26630346Y-32904661D01*
X26630345Y-32904661D01*
X27570401Y-33844717D01*
X27565861Y-33845248D01*
X27401109Y-33905213D01*
X27254627Y-34001555D01*
X27134312Y-34129082D01*
X27046650Y-34280918D01*
X27007155Y-34412838D01*
X26065103Y-33470787D01*
X26020315Y-33534241D01*
X25893938Y-33778134D01*
X25801944Y-34036980D01*
X25801942Y-34036988D01*
X25746053Y-34305945D01*
X25746052Y-34305951D01*
X25727308Y-34579995D01*
X25727308Y-34580004D01*
X25746052Y-34854048D01*
X25746053Y-34854054D01*
X25801942Y-35123011D01*
X25801944Y-35123019D01*
X25893938Y-35381865D01*
X26020317Y-35625763D01*
X26020318Y-35625764D01*
X26065102Y-35689210D01*
X26065103Y-35689211D01*
X27007792Y-34746522D01*
X27016616Y-34796567D01*
X27086059Y-34957553D01*
X27190756Y-35098185D01*
X27325062Y-35210882D01*
X27481739Y-35289568D01*
X27574201Y-35311481D01*
X26630345Y-36255337D01*
X26630346Y-36255338D01*
X26814030Y-36367038D01*
X27065989Y-36476480D01*
X27330509Y-36550595D01*
X27602635Y-36587999D01*
X27602649Y-36588000D01*
X27877351Y-36588000D01*
X27877364Y-36587999D01*
X28149490Y-36550595D01*
X28414010Y-36476480D01*
X28665969Y-36367038D01*
X28849653Y-36255338D01*
X28849653Y-36255337D01*
X27909598Y-35315282D01*
X27914139Y-35314752D01*
X28078891Y-35254787D01*
X28225373Y-35158445D01*
X28345688Y-35030918D01*
X28433350Y-34879082D01*
X28472844Y-34747160D01*
X29414895Y-35689211D01*
X29459683Y-35625760D01*
X29459685Y-35625756D01*
X29586061Y-35381865D01*
X29678055Y-35123019D01*
X29678057Y-35123011D01*
X29733946Y-34854054D01*
X29733947Y-34854048D01*
X29752692Y-34580004D01*
X29752692Y-34579995D01*
X29733947Y-34305951D01*
X29733946Y-34305945D01*
X29678057Y-34036988D01*
X29678055Y-34036980D01*
X29586061Y-33778134D01*
X29459679Y-33534231D01*
X29414896Y-33470788D01*
X29414895Y-33470788D01*
X28472207Y-34413475D01*
X28463384Y-34363433D01*
X28393941Y-34202447D01*
X28289244Y-34061815D01*
X28154938Y-33949118D01*
X27998261Y-33870432D01*
X27905797Y-33848518D01*
X28849653Y-32904661D01*
X28849652Y-32904660D01*
X28665962Y-32792957D01*
X28664409Y-32792152D01*
X28664009Y-32791769D01*
X28662292Y-32790725D01*
X28662522Y-32790345D01*
X28613130Y-32743050D01*
X28596539Y-32674019D01*
X28619902Y-32606977D01*
X28662653Y-32569936D01*
X28662522Y-32569720D01*
X28663801Y-32568942D01*
X28664420Y-32568406D01*
X28666195Y-32567486D01*
X28666194Y-32567486D01*
X28666200Y-32567484D01*
X28900969Y-32424718D01*
X29114111Y-32251314D01*
X29301657Y-32050502D01*
X29460111Y-31826023D01*
X29586523Y-31582058D01*
X29678538Y-31323153D01*
X29734442Y-31054130D01*
X29742616Y-30934609D01*
X29767220Y-30868012D01*
X29779215Y-30854124D01*
X31187938Y-29445402D01*
X31250248Y-29411379D01*
X31277031Y-29408500D01*
X38560801Y-29408500D01*
X38641672Y-29401971D01*
X38742768Y-29393810D01*
X38979248Y-29335523D01*
X38979249Y-29335522D01*
X38979251Y-29335522D01*
X39042236Y-29308686D01*
X39203316Y-29240056D01*
X39409168Y-29109883D01*
X39409175Y-29109877D01*
X39409176Y-29109877D01*
X39550470Y-28984701D01*
X39591474Y-28948375D01*
X39745510Y-28759714D01*
X39867289Y-28548787D01*
X39953656Y-28321057D01*
X40002374Y-28082421D01*
X40012181Y-27839061D01*
X39982823Y-27597280D01*
X39940245Y-27450283D01*
X39915063Y-27363344D01*
X39915059Y-27363333D01*
X39810651Y-27143298D01*
X39730224Y-27026780D01*
X39672293Y-26942852D01*
X39503575Y-26767198D01*
X39308865Y-26620883D01*
X39093205Y-26507696D01*
X39093201Y-26507694D01*
X39093200Y-26507694D01*
X38862179Y-26430568D01*
X38621788Y-26391501D01*
X38621782Y-26391500D01*
X38621779Y-26391500D01*
X38621775Y-26391500D01*
X30615210Y-26391500D01*
X30508624Y-26389352D01*
X30508622Y-26389352D01*
X30435067Y-26399791D01*
X30431284Y-26400211D01*
X30357240Y-26406188D01*
X30357235Y-26406189D01*
X30315871Y-26416383D01*
X30309646Y-26417589D01*
X30267485Y-26423573D01*
X30267482Y-26423574D01*
X30196570Y-26445669D01*
X30192907Y-26446691D01*
X30135412Y-26460863D01*
X30120752Y-26464477D01*
X30120750Y-26464477D01*
X30120749Y-26464478D01*
X30081561Y-26481173D01*
X30075609Y-26483362D01*
X30034949Y-26496034D01*
X29968490Y-26529224D01*
X29965037Y-26530820D01*
X29896685Y-26559943D01*
X29896679Y-26559946D01*
X29860688Y-26582706D01*
X29855164Y-26585821D01*
X29817060Y-26604852D01*
X29817058Y-26604853D01*
X29756765Y-26648286D01*
X29753612Y-26650416D01*
X29690835Y-26690114D01*
X29658950Y-26718360D01*
X29653999Y-26722320D01*
X29619437Y-26747220D01*
X29566909Y-26799748D01*
X29564139Y-26802356D01*
X29508525Y-26851624D01*
X29481584Y-26884621D01*
X29477330Y-26889327D01*
X27623930Y-28742726D01*
X27561618Y-28776752D01*
X27551993Y-28778457D01*
X27330406Y-28808914D01*
X27065819Y-28883048D01*
X26813802Y-28992514D01*
X26641886Y-29097059D01*
X26580556Y-29134355D01*
X26579028Y-29135284D01*
X26365886Y-29308688D01*
X26178343Y-29509498D01*
X26019892Y-29733971D01*
X25893477Y-29977941D01*
X25801462Y-30236845D01*
X25801460Y-30236853D01*
X25768403Y-30395933D01*
X25759950Y-30436615D01*
X25745557Y-30505877D01*
X25745556Y-30505883D01*
X25726807Y-30779995D01*
X25726807Y-30780004D01*
X20025500Y-30780004D01*
X20025500Y-24000004D01*
X21969767Y-24000004D01*
X21988675Y-24276436D01*
X21988676Y-24276442D01*
X21988677Y-24276450D01*
X21989623Y-24281001D01*
X22045052Y-24547743D01*
X22045056Y-24547756D01*
X22137846Y-24808847D01*
X22265333Y-25054882D01*
X22425122Y-25281252D01*
X22425125Y-25281256D01*
X22614255Y-25483764D01*
X22614254Y-25483764D01*
X22614258Y-25483767D01*
X22829205Y-25658639D01*
X23065961Y-25802614D01*
X23320116Y-25913009D01*
X23453526Y-25950388D01*
X23586929Y-25987767D01*
X23586937Y-25987769D01*
X23861438Y-26025499D01*
X23861452Y-26025500D01*
X24138548Y-26025500D01*
X24138561Y-26025499D01*
X24372240Y-25993379D01*
X24413063Y-25987769D01*
X24679884Y-25913009D01*
X24934039Y-25802614D01*
X25170795Y-25658639D01*
X25385742Y-25483767D01*
X25574875Y-25281256D01*
X25734670Y-25054876D01*
X25862153Y-24808847D01*
X25954946Y-24547750D01*
X26011323Y-24276450D01*
X26030233Y-24000004D01*
X79969767Y-24000004D01*
X79988675Y-24276436D01*
X79988676Y-24276442D01*
X79988677Y-24276450D01*
X79989623Y-24281001D01*
X80045052Y-24547743D01*
X80045056Y-24547756D01*
X80137846Y-24808847D01*
X80265333Y-25054882D01*
X80425122Y-25281252D01*
X80425125Y-25281256D01*
X80614255Y-25483764D01*
X80614254Y-25483764D01*
X80614258Y-25483767D01*
X80829205Y-25658639D01*
X81065961Y-25802614D01*
X81320116Y-25913009D01*
X81453526Y-25950388D01*
X81586929Y-25987767D01*
X81586937Y-25987769D01*
X81861438Y-26025499D01*
X81861452Y-26025500D01*
X82138548Y-26025500D01*
X82138561Y-26025499D01*
X82372240Y-25993379D01*
X82413063Y-25987769D01*
X82679884Y-25913009D01*
X82934039Y-25802614D01*
X83170795Y-25658639D01*
X83385742Y-25483767D01*
X83574875Y-25281256D01*
X83734670Y-25054876D01*
X83862153Y-24808847D01*
X83954946Y-24547750D01*
X84011323Y-24276450D01*
X84030233Y-24000000D01*
X84011323Y-23723550D01*
X83954946Y-23452250D01*
X83862153Y-23191153D01*
X83862153Y-23191152D01*
X83734666Y-22945117D01*
X83574877Y-22718747D01*
X83574875Y-22718744D01*
X83385744Y-22516235D01*
X83385745Y-22516235D01*
X83170797Y-22341363D01*
X83170795Y-22341361D01*
X82977382Y-22223744D01*
X82934036Y-22197384D01*
X82679885Y-22086991D01*
X82679875Y-22086988D01*
X82413070Y-22012232D01*
X82413062Y-22012230D01*
X82138561Y-21974500D01*
X82138548Y-21974500D01*
X81861452Y-21974500D01*
X81861438Y-21974500D01*
X81586937Y-22012230D01*
X81586929Y-22012232D01*
X81320124Y-22086988D01*
X81320114Y-22086991D01*
X81065963Y-22197384D01*
X80829202Y-22341363D01*
X80614255Y-22516235D01*
X80425122Y-22718747D01*
X80265333Y-22945117D01*
X80137846Y-23191152D01*
X80045056Y-23452243D01*
X80045052Y-23452256D01*
X79988676Y-23723557D01*
X79988675Y-23723563D01*
X79969767Y-23999995D01*
X79969767Y-24000004D01*
X26030233Y-24000004D01*
X26030233Y-24000000D01*
X26011323Y-23723550D01*
X25954946Y-23452250D01*
X25862153Y-23191153D01*
X25862153Y-23191152D01*
X25734666Y-22945117D01*
X25574877Y-22718747D01*
X25574875Y-22718744D01*
X25556108Y-22698649D01*
X51141500Y-22698649D01*
X51148009Y-22759196D01*
X51148011Y-22759204D01*
X51199110Y-22896202D01*
X51199112Y-22896207D01*
X51286738Y-23013261D01*
X51403792Y-23100887D01*
X51403794Y-23100888D01*
X51403796Y-23100889D01*
X51458900Y-23121442D01*
X51540795Y-23151988D01*
X51540803Y-23151990D01*
X51601350Y-23158499D01*
X51601355Y-23158499D01*
X51601362Y-23158500D01*
X51601368Y-23158500D01*
X53398632Y-23158500D01*
X53398638Y-23158500D01*
X53398645Y-23158499D01*
X53398649Y-23158499D01*
X53459196Y-23151990D01*
X53459199Y-23151989D01*
X53459201Y-23151989D01*
X53596204Y-23100889D01*
X53666399Y-23048342D01*
X53713261Y-23013261D01*
X53800886Y-22896208D01*
X53800885Y-22896208D01*
X53800889Y-22896204D01*
X53844999Y-22777939D01*
X53887545Y-22721107D01*
X53954066Y-22696296D01*
X54023440Y-22711388D01*
X54055753Y-22736635D01*
X54076529Y-22759204D01*
X54116762Y-22802908D01*
X54171331Y-22845381D01*
X54294424Y-22941189D01*
X54492426Y-23048342D01*
X54492427Y-23048342D01*
X54492428Y-23048343D01*
X54604227Y-23086723D01*
X54705365Y-23121444D01*
X54927431Y-23158500D01*
X54927435Y-23158500D01*
X55152565Y-23158500D01*
X55152569Y-23158500D01*
X55374635Y-23121444D01*
X55587574Y-23048342D01*
X55785576Y-22941189D01*
X55963240Y-22802906D01*
X56115722Y-22637268D01*
X56204518Y-22501354D01*
X56258520Y-22455268D01*
X56328868Y-22445692D01*
X56393225Y-22475669D01*
X56415480Y-22501353D01*
X56448607Y-22552058D01*
X56504275Y-22637265D01*
X56504279Y-22637270D01*
X56656762Y-22802908D01*
X56711331Y-22845381D01*
X56834424Y-22941189D01*
X57032426Y-23048342D01*
X57032427Y-23048342D01*
X57032428Y-23048343D01*
X57144227Y-23086723D01*
X57245365Y-23121444D01*
X57467431Y-23158500D01*
X57467435Y-23158500D01*
X57692565Y-23158500D01*
X57692569Y-23158500D01*
X57914635Y-23121444D01*
X58127574Y-23048342D01*
X58325576Y-22941189D01*
X58503240Y-22802906D01*
X58655722Y-22637268D01*
X58744519Y-22501353D01*
X58798518Y-22455268D01*
X58868866Y-22445692D01*
X58933224Y-22475668D01*
X58955482Y-22501356D01*
X59044275Y-22637265D01*
X59044279Y-22637270D01*
X59196762Y-22802908D01*
X59251331Y-22845381D01*
X59374424Y-22941189D01*
X59572426Y-23048342D01*
X59572427Y-23048342D01*
X59572428Y-23048343D01*
X59684227Y-23086723D01*
X59785365Y-23121444D01*
X60007431Y-23158500D01*
X60007435Y-23158500D01*
X60232565Y-23158500D01*
X60232569Y-23158500D01*
X60454635Y-23121444D01*
X60667574Y-23048342D01*
X60865576Y-22941189D01*
X61043240Y-22802906D01*
X61195722Y-22637268D01*
X61284519Y-22501353D01*
X61338518Y-22455268D01*
X61408866Y-22445692D01*
X61473224Y-22475668D01*
X61495482Y-22501356D01*
X61584275Y-22637265D01*
X61584279Y-22637270D01*
X61736762Y-22802908D01*
X61791331Y-22845381D01*
X61914424Y-22941189D01*
X62112426Y-23048342D01*
X62112427Y-23048342D01*
X62112428Y-23048343D01*
X62224227Y-23086723D01*
X62325365Y-23121444D01*
X62547431Y-23158500D01*
X62547435Y-23158500D01*
X62772565Y-23158500D01*
X62772569Y-23158500D01*
X62994635Y-23121444D01*
X63207574Y-23048342D01*
X63405576Y-22941189D01*
X63583240Y-22802906D01*
X63735722Y-22637268D01*
X63824518Y-22501354D01*
X63878520Y-22455268D01*
X63948868Y-22445692D01*
X64013225Y-22475669D01*
X64035480Y-22501353D01*
X64068607Y-22552058D01*
X64124275Y-22637265D01*
X64124279Y-22637270D01*
X64276762Y-22802908D01*
X64331331Y-22845381D01*
X64454424Y-22941189D01*
X64652426Y-23048342D01*
X64652427Y-23048342D01*
X64652428Y-23048343D01*
X64764227Y-23086723D01*
X64865365Y-23121444D01*
X65087431Y-23158500D01*
X65087435Y-23158500D01*
X65312565Y-23158500D01*
X65312569Y-23158500D01*
X65534635Y-23121444D01*
X65747574Y-23048342D01*
X65945576Y-22941189D01*
X66123240Y-22802906D01*
X66275722Y-22637268D01*
X66364518Y-22501354D01*
X66418520Y-22455268D01*
X66488868Y-22445692D01*
X66553225Y-22475669D01*
X66575480Y-22501353D01*
X66608607Y-22552058D01*
X66664275Y-22637265D01*
X66664279Y-22637270D01*
X66816762Y-22802908D01*
X66871331Y-22845381D01*
X66994424Y-22941189D01*
X67192426Y-23048342D01*
X67192427Y-23048342D01*
X67192428Y-23048343D01*
X67304227Y-23086723D01*
X67405365Y-23121444D01*
X67627431Y-23158500D01*
X67627435Y-23158500D01*
X67852565Y-23158500D01*
X67852569Y-23158500D01*
X68074635Y-23121444D01*
X68287574Y-23048342D01*
X68485576Y-22941189D01*
X68663240Y-22802906D01*
X68815722Y-22637268D01*
X68904518Y-22501354D01*
X68958520Y-22455268D01*
X69028868Y-22445692D01*
X69093225Y-22475669D01*
X69115480Y-22501353D01*
X69148607Y-22552058D01*
X69204275Y-22637265D01*
X69204279Y-22637270D01*
X69356762Y-22802908D01*
X69411331Y-22845381D01*
X69534424Y-22941189D01*
X69732426Y-23048342D01*
X69732427Y-23048342D01*
X69732428Y-23048343D01*
X69844227Y-23086723D01*
X69945365Y-23121444D01*
X70167431Y-23158500D01*
X70167435Y-23158500D01*
X70392565Y-23158500D01*
X70392569Y-23158500D01*
X70614635Y-23121444D01*
X70827574Y-23048342D01*
X71025576Y-22941189D01*
X71203240Y-22802906D01*
X71355722Y-22637268D01*
X71478860Y-22448791D01*
X71569296Y-22242616D01*
X71624564Y-22024368D01*
X71643156Y-21800000D01*
X71624564Y-21575632D01*
X71569296Y-21357384D01*
X71478860Y-21151209D01*
X71461500Y-21124637D01*
X71355724Y-20962734D01*
X71355720Y-20962729D01*
X71203237Y-20797091D01*
X71083367Y-20703792D01*
X71025576Y-20658811D01*
X70827574Y-20551658D01*
X70827572Y-20551657D01*
X70827571Y-20551656D01*
X70614639Y-20478557D01*
X70614630Y-20478555D01*
X70570476Y-20471187D01*
X70392569Y-20441500D01*
X70167431Y-20441500D01*
X70019211Y-20466233D01*
X69945369Y-20478555D01*
X69945360Y-20478557D01*
X69732428Y-20551656D01*
X69732426Y-20551658D01*
X69534426Y-20658810D01*
X69534424Y-20658811D01*
X69356762Y-20797091D01*
X69204279Y-20962729D01*
X69115483Y-21098643D01*
X69061479Y-21144731D01*
X68991131Y-21154306D01*
X68926774Y-21124329D01*
X68904517Y-21098643D01*
X68815720Y-20962729D01*
X68663237Y-20797091D01*
X68543367Y-20703792D01*
X68485576Y-20658811D01*
X68287574Y-20551658D01*
X68287572Y-20551657D01*
X68287571Y-20551656D01*
X68074639Y-20478557D01*
X68074630Y-20478555D01*
X68030476Y-20471187D01*
X67852569Y-20441500D01*
X67627431Y-20441500D01*
X67479210Y-20466233D01*
X67405369Y-20478555D01*
X67405360Y-20478557D01*
X67192428Y-20551656D01*
X67192426Y-20551658D01*
X66994426Y-20658810D01*
X66994424Y-20658811D01*
X66816762Y-20797091D01*
X66664279Y-20962729D01*
X66575483Y-21098643D01*
X66521479Y-21144731D01*
X66451131Y-21154306D01*
X66386774Y-21124329D01*
X66364517Y-21098643D01*
X66275720Y-20962729D01*
X66123237Y-20797091D01*
X66003367Y-20703792D01*
X65945576Y-20658811D01*
X65747574Y-20551658D01*
X65747572Y-20551657D01*
X65747571Y-20551656D01*
X65534639Y-20478557D01*
X65534630Y-20478555D01*
X65490476Y-20471187D01*
X65312569Y-20441500D01*
X65087431Y-20441500D01*
X64939210Y-20466233D01*
X64865369Y-20478555D01*
X64865360Y-20478557D01*
X64652428Y-20551656D01*
X64652426Y-20551658D01*
X64454426Y-20658810D01*
X64454424Y-20658811D01*
X64276762Y-20797091D01*
X64124279Y-20962729D01*
X64035483Y-21098643D01*
X63981479Y-21144731D01*
X63911131Y-21154306D01*
X63846774Y-21124329D01*
X63824517Y-21098643D01*
X63735720Y-20962729D01*
X63583237Y-20797091D01*
X63463367Y-20703792D01*
X63405576Y-20658811D01*
X63207574Y-20551658D01*
X63207572Y-20551657D01*
X63207571Y-20551656D01*
X62994639Y-20478557D01*
X62994630Y-20478555D01*
X62950476Y-20471187D01*
X62772569Y-20441500D01*
X62547431Y-20441500D01*
X62399211Y-20466233D01*
X62325369Y-20478555D01*
X62325360Y-20478557D01*
X62112428Y-20551656D01*
X62112426Y-20551658D01*
X61914426Y-20658810D01*
X61914424Y-20658811D01*
X61736762Y-20797091D01*
X61584279Y-20962729D01*
X61495483Y-21098643D01*
X61441479Y-21144731D01*
X61371131Y-21154306D01*
X61306774Y-21124329D01*
X61284517Y-21098643D01*
X61195720Y-20962729D01*
X61043237Y-20797091D01*
X60923367Y-20703792D01*
X60865576Y-20658811D01*
X60667574Y-20551658D01*
X60667572Y-20551657D01*
X60667571Y-20551656D01*
X60454639Y-20478557D01*
X60454630Y-20478555D01*
X60410476Y-20471187D01*
X60232569Y-20441500D01*
X60007431Y-20441500D01*
X59859211Y-20466233D01*
X59785369Y-20478555D01*
X59785360Y-20478557D01*
X59572428Y-20551656D01*
X59572426Y-20551658D01*
X59374426Y-20658810D01*
X59374424Y-20658811D01*
X59196762Y-20797091D01*
X59044279Y-20962729D01*
X58955483Y-21098643D01*
X58901479Y-21144731D01*
X58831131Y-21154306D01*
X58766774Y-21124329D01*
X58744517Y-21098643D01*
X58655720Y-20962729D01*
X58503237Y-20797091D01*
X58383367Y-20703792D01*
X58325576Y-20658811D01*
X58127574Y-20551658D01*
X58127572Y-20551657D01*
X58127571Y-20551656D01*
X57914639Y-20478557D01*
X57914630Y-20478555D01*
X57870476Y-20471187D01*
X57692569Y-20441500D01*
X57467431Y-20441500D01*
X57319210Y-20466233D01*
X57245369Y-20478555D01*
X57245360Y-20478557D01*
X57032428Y-20551656D01*
X57032426Y-20551658D01*
X56834426Y-20658810D01*
X56834424Y-20658811D01*
X56656762Y-20797091D01*
X56504279Y-20962729D01*
X56415483Y-21098643D01*
X56361479Y-21144731D01*
X56291131Y-21154306D01*
X56226774Y-21124329D01*
X56204517Y-21098643D01*
X56115720Y-20962729D01*
X55963237Y-20797091D01*
X55843367Y-20703792D01*
X55785576Y-20658811D01*
X55587574Y-20551658D01*
X55587572Y-20551657D01*
X55587571Y-20551656D01*
X55374639Y-20478557D01*
X55374630Y-20478555D01*
X55330476Y-20471187D01*
X55152569Y-20441500D01*
X54927431Y-20441500D01*
X54779210Y-20466233D01*
X54705369Y-20478555D01*
X54705360Y-20478557D01*
X54492428Y-20551656D01*
X54492426Y-20551658D01*
X54294426Y-20658810D01*
X54294424Y-20658811D01*
X54116762Y-20797091D01*
X54055754Y-20863363D01*
X53994901Y-20899933D01*
X53923936Y-20897798D01*
X53865391Y-20857636D01*
X53844999Y-20822057D01*
X53800889Y-20703797D01*
X53800887Y-20703792D01*
X53713261Y-20586738D01*
X53596207Y-20499112D01*
X53596202Y-20499110D01*
X53459204Y-20448011D01*
X53459196Y-20448009D01*
X53398649Y-20441500D01*
X53398638Y-20441500D01*
X51601362Y-20441500D01*
X51601350Y-20441500D01*
X51540803Y-20448009D01*
X51540795Y-20448011D01*
X51403797Y-20499110D01*
X51403792Y-20499112D01*
X51286738Y-20586738D01*
X51199112Y-20703792D01*
X51199110Y-20703797D01*
X51148011Y-20840795D01*
X51148009Y-20840803D01*
X51141500Y-20901350D01*
X51141500Y-22698649D01*
X25556108Y-22698649D01*
X25385744Y-22516235D01*
X25385745Y-22516235D01*
X25170797Y-22341363D01*
X25170795Y-22341361D01*
X24977382Y-22223744D01*
X24934036Y-22197384D01*
X24679885Y-22086991D01*
X24679875Y-22086988D01*
X24413070Y-22012232D01*
X24413062Y-22012230D01*
X24138561Y-21974500D01*
X24138548Y-21974500D01*
X23861452Y-21974500D01*
X23861438Y-21974500D01*
X23586937Y-22012230D01*
X23586929Y-22012232D01*
X23320124Y-22086988D01*
X23320114Y-22086991D01*
X23065963Y-22197384D01*
X22829202Y-22341363D01*
X22614255Y-22516235D01*
X22425122Y-22718747D01*
X22265333Y-22945117D01*
X22137846Y-23191152D01*
X22045056Y-23452243D01*
X22045052Y-23452256D01*
X21988676Y-23723557D01*
X21988675Y-23723563D01*
X21969767Y-23999995D01*
X21969767Y-24000004D01*
X20025500Y-24000004D01*
X20025500Y-20151500D01*
X20045502Y-20083379D01*
X20099158Y-20036886D01*
X20151500Y-20025500D01*
X85848500Y-20025500D01*
X85916621Y-20045502D01*
G37*
%TD.AperFunction*%
%TD*%
%TA.AperFunction,Conductor*%
%TO.N,/RXD*%
G36*
X37867924Y-50851302D02*
G01*
X37874140Y-50857409D01*
X38144222Y-51474421D01*
X38144400Y-51483374D01*
X38141777Y-51487386D01*
X37976425Y-51652738D01*
X37968152Y-51656165D01*
X37963234Y-51655081D01*
X37357091Y-51374261D01*
X37351025Y-51367674D01*
X37351188Y-51359195D01*
X37497437Y-51003802D01*
X37503753Y-50997457D01*
X37858971Y-50851281D01*
X37867924Y-50851302D01*
G37*
%TD.AperFunction*%
%TD*%
%TA.AperFunction,Conductor*%
%TO.N,+5V*%
G36*
X30450437Y-58028427D02*
G01*
X30452983Y-58032245D01*
X30797032Y-58867792D01*
X30797013Y-58876747D01*
X30794491Y-58880515D01*
X29958277Y-59717712D01*
X29950006Y-59721144D01*
X29941732Y-59717722D01*
X29105507Y-58880514D01*
X29102086Y-58872240D01*
X29102966Y-58867796D01*
X29447016Y-58032245D01*
X29453336Y-58025900D01*
X29457836Y-58025000D01*
X30442164Y-58025000D01*
X30450437Y-58028427D01*
G37*
%TD.AperFunction*%
%TD*%
%TA.AperFunction,Conductor*%
%TO.N,/AIN5*%
G36*
X60405696Y-38390890D02*
G01*
X61017437Y-38622141D01*
X61023964Y-38628272D01*
X61025000Y-38633085D01*
X61025000Y-38866914D01*
X61021573Y-38875187D01*
X61017437Y-38877858D01*
X60388655Y-39115551D01*
X60379705Y-39115271D01*
X60373719Y-39109109D01*
X60277306Y-38877858D01*
X60225875Y-38754499D01*
X60225855Y-38745550D01*
X60373719Y-38390889D01*
X60380066Y-38384572D01*
X60388654Y-38384448D01*
X60405696Y-38390890D01*
G37*
%TD.AperFunction*%
%TD*%
%TA.AperFunction,Conductor*%
%TO.N,/GPIO9*%
G36*
X68383014Y-36951643D02*
G01*
X68548356Y-37116985D01*
X68551783Y-37125258D01*
X68550747Y-37130071D01*
X68274206Y-37742760D01*
X68267679Y-37748891D01*
X68259090Y-37748767D01*
X67903804Y-37602563D01*
X67897457Y-37596245D01*
X67897436Y-37596195D01*
X67751232Y-37240909D01*
X67751253Y-37231955D01*
X67757237Y-37225794D01*
X68369928Y-36949251D01*
X68378878Y-36948972D01*
X68383014Y-36951643D01*
G37*
%TD.AperFunction*%
%TD*%
%TA.AperFunction,Conductor*%
%TO.N,/TXD*%
G36*
X36483014Y-50351643D02*
G01*
X36648356Y-50516985D01*
X36651783Y-50525258D01*
X36650747Y-50530071D01*
X36374206Y-51142760D01*
X36367679Y-51148891D01*
X36359090Y-51148767D01*
X36003804Y-51002563D01*
X35997457Y-50996245D01*
X35997436Y-50996195D01*
X35851232Y-50640909D01*
X35851253Y-50631955D01*
X35857237Y-50625794D01*
X36469928Y-50349251D01*
X36478878Y-50348972D01*
X36483014Y-50351643D01*
G37*
%TD.AperFunction*%
%TD*%
%TA.AperFunction,Conductor*%
%TO.N,/TXD*%
G36*
X65735447Y-50725486D02*
G01*
X65736229Y-50726197D01*
X66007546Y-50996558D01*
X66010987Y-51004825D01*
X66010987Y-51004875D01*
X66010027Y-51388921D01*
X66006579Y-51397186D01*
X65998936Y-51400576D01*
X65350713Y-51434358D01*
X65342273Y-51431367D01*
X65338420Y-51423283D01*
X65338405Y-51422712D01*
X65338405Y-51189223D01*
X65341103Y-51181751D01*
X65718971Y-50727007D01*
X65726894Y-50722835D01*
X65735447Y-50725486D01*
G37*
%TD.AperFunction*%
%TD*%
%TA.AperFunction,Conductor*%
%TO.N,/GPIO8*%
G36*
X69525188Y-34103427D02*
G01*
X69527859Y-34107563D01*
X69765551Y-34736344D01*
X69765271Y-34745294D01*
X69759109Y-34751280D01*
X69404502Y-34899123D01*
X69395548Y-34899144D01*
X69395498Y-34899123D01*
X69040890Y-34751280D01*
X69034572Y-34744933D01*
X69034448Y-34736345D01*
X69272141Y-34107562D01*
X69278272Y-34101036D01*
X69283085Y-34100000D01*
X69516915Y-34100000D01*
X69525188Y-34103427D01*
G37*
%TD.AperFunction*%
%TD*%
%TA.AperFunction,Conductor*%
%TO.N,/GPIO9*%
G36*
X75345294Y-27509728D02*
G01*
X75351280Y-27515890D01*
X75499123Y-27870498D01*
X75499144Y-27879452D01*
X75499123Y-27879502D01*
X75351280Y-28234109D01*
X75344933Y-28240427D01*
X75336344Y-28240551D01*
X74707563Y-28002858D01*
X74701036Y-27996727D01*
X74700000Y-27991914D01*
X74700000Y-27758085D01*
X74703427Y-27749812D01*
X74707563Y-27747141D01*
X75336345Y-27509448D01*
X75345294Y-27509728D01*
G37*
%TD.AperFunction*%
%TD*%
%TA.AperFunction,Conductor*%
%TO.N,/AIN5*%
G36*
X68270294Y-38384728D02*
G01*
X68276280Y-38390890D01*
X68424123Y-38745498D01*
X68424144Y-38754452D01*
X68424123Y-38754502D01*
X68276280Y-39109109D01*
X68269933Y-39115427D01*
X68261344Y-39115551D01*
X67632563Y-38877858D01*
X67626036Y-38871727D01*
X67625000Y-38866914D01*
X67625000Y-38633085D01*
X67628427Y-38624812D01*
X67632563Y-38622141D01*
X68261345Y-38384448D01*
X68270294Y-38384728D01*
G37*
%TD.AperFunction*%
%TD*%
%TA.AperFunction,Conductor*%
%TO.N,/USB_D-*%
G36*
X31609109Y-46198719D02*
G01*
X31615427Y-46205066D01*
X31615551Y-46213655D01*
X31377859Y-46842437D01*
X31371728Y-46848964D01*
X31366915Y-46850000D01*
X31133085Y-46850000D01*
X31124812Y-46846573D01*
X31122141Y-46842437D01*
X30884448Y-46213655D01*
X30884728Y-46204705D01*
X30890889Y-46198719D01*
X31245500Y-46050875D01*
X31254449Y-46050855D01*
X31609109Y-46198719D01*
G37*
%TD.AperFunction*%
%TD*%
%TA.AperFunction,Conductor*%
%TO.N,/USB_D+*%
G36*
X31618044Y-44351253D02*
G01*
X31624206Y-44357239D01*
X31900747Y-44969928D01*
X31901027Y-44978878D01*
X31898356Y-44983014D01*
X31733014Y-45148356D01*
X31724741Y-45151783D01*
X31719928Y-45150747D01*
X31107239Y-44874206D01*
X31101108Y-44867679D01*
X31101232Y-44859090D01*
X31247437Y-44503802D01*
X31253753Y-44497457D01*
X31609090Y-44351232D01*
X31618044Y-44351253D01*
G37*
%TD.AperFunction*%
%TD*%
%TA.AperFunction,Conductor*%
%TO.N,+3.3V*%
G36*
X51752586Y-36305531D02*
G01*
X52444468Y-36997413D01*
X52447895Y-37005686D01*
X52445127Y-37013244D01*
X51682463Y-37914573D01*
X51674503Y-37918675D01*
X51665973Y-37915947D01*
X51665272Y-37915302D01*
X51249293Y-37500707D01*
X50834697Y-37084727D01*
X50831284Y-37076449D01*
X50834725Y-37068181D01*
X50835415Y-37067545D01*
X51736757Y-36304871D01*
X51745285Y-36302144D01*
X51752586Y-36305531D01*
G37*
%TD.AperFunction*%
%TD*%
%TA.AperFunction,Conductor*%
%TO.N,+5V*%
G36*
X36995879Y-34603782D02*
G01*
X36999981Y-34611742D01*
X37000021Y-34612694D01*
X37001000Y-35200000D01*
X37000021Y-35787305D01*
X36996580Y-35795572D01*
X36988301Y-35798985D01*
X36987349Y-35798945D01*
X35810728Y-35700894D01*
X35802768Y-35696792D01*
X35800000Y-35689234D01*
X35800000Y-34710766D01*
X35803427Y-34702493D01*
X35810728Y-34699106D01*
X36987349Y-34601054D01*
X36995879Y-34603782D01*
G37*
%TD.AperFunction*%
%TD*%
%TA.AperFunction,Conductor*%
%TO.N,/RXD*%
G36*
X65418296Y-51640016D02*
G01*
X66099649Y-51862966D01*
X66141096Y-51876529D01*
X66147893Y-51882359D01*
X66148577Y-51891288D01*
X66148277Y-51892101D01*
X66002853Y-52245496D01*
X65996535Y-52251843D01*
X65996500Y-52251858D01*
X65641026Y-52398703D01*
X65632071Y-52398694D01*
X65625846Y-52392593D01*
X65561256Y-52245496D01*
X65403951Y-51887247D01*
X65402964Y-51882543D01*
X65402964Y-51651138D01*
X65406391Y-51642865D01*
X65414664Y-51639438D01*
X65418296Y-51640016D01*
G37*
%TD.AperFunction*%
%TD*%
%TA.AperFunction,Conductor*%
%TO.N,+5V*%
G36*
X28512645Y-48401053D02*
G01*
X29689271Y-48499106D01*
X29689272Y-48499106D01*
X29697232Y-48503208D01*
X29700000Y-48510766D01*
X29700000Y-49489234D01*
X29696573Y-49497507D01*
X29689272Y-49500894D01*
X28512650Y-49598945D01*
X28504120Y-49596217D01*
X28500018Y-49588257D01*
X28499978Y-49587324D01*
X28499000Y-49000000D01*
X28499978Y-48412692D01*
X28503419Y-48404427D01*
X28511697Y-48401014D01*
X28512645Y-48401053D01*
G37*
%TD.AperFunction*%
%TD*%
%TA.AperFunction,Conductor*%
%TO.N,/USB_D-*%
G36*
X64895294Y-53834728D02*
G01*
X64901280Y-53840890D01*
X65049123Y-54195498D01*
X65049144Y-54204452D01*
X65049123Y-54204502D01*
X64901280Y-54559109D01*
X64894933Y-54565427D01*
X64886344Y-54565551D01*
X64257563Y-54327858D01*
X64251036Y-54321727D01*
X64250000Y-54316914D01*
X64250000Y-54083085D01*
X64253427Y-54074812D01*
X64257563Y-54072141D01*
X64886345Y-53834448D01*
X64895294Y-53834728D01*
G37*
%TD.AperFunction*%
%TD*%
%TA.AperFunction,Conductor*%
%TO.N,+3.3V*%
G36*
X68095879Y-30516282D02*
G01*
X68099981Y-30524242D01*
X68100021Y-30525194D01*
X68101000Y-31112500D01*
X68100021Y-31699805D01*
X68096580Y-31708072D01*
X68088301Y-31711485D01*
X68087349Y-31711445D01*
X66910728Y-31613394D01*
X66902768Y-31609292D01*
X66900000Y-31601734D01*
X66900000Y-30623266D01*
X66903427Y-30614993D01*
X66910728Y-30611606D01*
X68087349Y-30513554D01*
X68095879Y-30516282D01*
G37*
%TD.AperFunction*%
%TD*%
%TA.AperFunction,Conductor*%
%TO.N,/GPIO8*%
G36*
X70240909Y-27963732D02*
G01*
X70383763Y-28022518D01*
X70596195Y-28109936D01*
X70602542Y-28116254D01*
X70602563Y-28116304D01*
X70748767Y-28471590D01*
X70748746Y-28480544D01*
X70742760Y-28486706D01*
X70130071Y-28763247D01*
X70121121Y-28763527D01*
X70116985Y-28760856D01*
X69951643Y-28595514D01*
X69948216Y-28587241D01*
X69949252Y-28582428D01*
X69995238Y-28480544D01*
X70225794Y-27969738D01*
X70232320Y-27963608D01*
X70240909Y-27963732D01*
G37*
%TD.AperFunction*%
%TD*%
%TA.AperFunction,Conductor*%
%TO.N,/USB_D+*%
G36*
X63580071Y-52549252D02*
G01*
X64192760Y-52825793D01*
X64198891Y-52832320D01*
X64198767Y-52840909D01*
X64052563Y-53196195D01*
X64046245Y-53202542D01*
X64046195Y-53202563D01*
X63690909Y-53348767D01*
X63681955Y-53348746D01*
X63675793Y-53342760D01*
X63611676Y-53200707D01*
X63449279Y-52840909D01*
X63399252Y-52730071D01*
X63398972Y-52721121D01*
X63401641Y-52716987D01*
X63566986Y-52551642D01*
X63575258Y-52548216D01*
X63580071Y-52549252D01*
G37*
%TD.AperFunction*%
%TD*%
M02*
