M48
; DRILL file {KiCad 7.0.6} date Thu Nov  9 22:10:53 2023
; FORMAT={-:-/ absolute / inch / decimal}
; #@! TF.CreationDate,2023-11-09T22:10:53-05:00
; #@! TF.GenerationSoftware,Kicad,Pcbnew,7.0.6
; #@! TF.FileFunction,Plated,1,2,PTH
FMAT,2
INCH
; #@! TA.AperFunction,Plated,PTH,ComponentDrill
T1C0.0118
; #@! TA.AperFunction,Plated,PTH,ViaDrill
T2C0.0157
; #@! TA.AperFunction,Plated,PTH,ViaDrill
T3C0.0236
; #@! TA.AperFunction,Plated,PTH,ComponentDrill
T4C0.0236
; #@! TA.AperFunction,Plated,PTH,ComponentDrill
T5C0.0335
; #@! TA.AperFunction,Plated,PTH,ComponentDrill
T6C0.0394
; #@! TA.AperFunction,Plated,PTH,ComponentDrill
T7C0.0591
%
G90
G05
T1
X2.7992Y-1.7661
X2.7992Y-1.8075
X2.7992Y-1.8528
X2.8425Y-1.7661
X2.8425Y-1.8075
X2.8425Y-1.8528
X2.8858Y-1.7661
X2.8858Y-1.8075
X2.8858Y-1.8528
T2
X1.122Y-1.8701
X1.2303Y-1.752
X1.2303Y-1.813
X1.4173Y-2.0079
X1.4764Y-2.0079
X1.4902Y-1.5551
X1.4902Y-1.6339
X1.4902Y-1.7126
X1.4902Y-1.7913
X1.6476Y-1.5551
X1.6476Y-1.6339
X1.6476Y-1.7126
X1.6476Y-1.7913
X2.0669Y-1.9488
X2.1781Y-1.5256
X2.2736Y-1.9734
X2.3711Y-1.5256
X2.3829Y-2.1358
X2.4311Y-1.4616
X2.4764Y-1.9685
X2.5217Y-2.0945
X2.561Y-2.1339
X2.5827Y-1.1073
X2.5984Y-2.0571
X2.5988Y-2.0079
X2.6142Y-1.4813
X2.6732Y-1.4803
X2.6939Y-1.5256
X2.7323Y-1.374
X2.7795Y-1.1068
X2.9685Y-1.3268
X2.9724Y-1.0974
X3.2913Y-1.2008
T3
X1.122Y-1.9291
X1.2402Y-0.937
X1.3976Y-1.9291
X1.4567Y-1.3858
X1.5157Y-1.0984
X1.565Y-1.9291
X1.6614Y-1.2126
X1.8169Y-1.8406
X1.8996Y-1.2126
X2.0177Y-1.1122
X2.0177Y-1.4764
X2.3524Y-1.1171
X2.6083Y-1.5846
X2.6083Y-1.939
X2.6811Y-1.2249
X2.9734Y-0.8829
X3.0906Y-1.5207
X3.0906Y-2.0276
T5
X0.9513Y-1.6969
X0.9513Y-1.8937
T6
X1.1791Y-2.3514
X1.2791Y-2.3514
X1.3791Y-2.3514
X1.4791Y-2.3514
X1.8159Y-2.3514
X1.9159Y-2.3514
X2.0159Y-2.3514
X2.0669Y-0.8583
X2.1159Y-2.3514
X2.1669Y-0.8583
X2.2159Y-2.3514
X2.2669Y-0.8583
X2.3159Y-2.3514
X2.3669Y-0.8583
X2.4669Y-0.8583
X2.5669Y-0.8583
X2.6669Y-0.8583
X2.7669Y-0.8583
T7
X1.0921Y-1.2118
X1.0921Y-1.3614
T4
G00X0.8312Y-1.6575
M15
G01X0.8588Y-1.6575
M16
G05
G00X0.8588Y-1.9331
M15
G01X0.8312Y-1.9331
M16
G05
T0
M30
