%TF.GenerationSoftware,KiCad,Pcbnew,7.0.6*%
%TF.CreationDate,2023-08-21T21:43:26-04:00*%
%TF.ProjectId,Crystal,43727973-7461-46c2-9e6b-696361645f70,rev?*%
%TF.SameCoordinates,Original*%
%TF.FileFunction,Drillmap*%
%TF.FilePolarity,Positive*%
%FSLAX45Y45*%
G04 Gerber Fmt 4.5, Leading zero omitted, Abs format (unit mm)*
G04 Created by KiCad (PCBNEW 7.0.6) date 2023-08-21 21:43:26*
%MOMM*%
%LPD*%
G01*
G04 APERTURE LIST*
%ADD10C,0.050000*%
%ADD11C,0.200000*%
%ADD12C,0.030000*%
%ADD13C,0.040000*%
%ADD14C,0.060000*%
%ADD15C,0.076200*%
%ADD16C,0.085000*%
%ADD17C,0.100000*%
G04 APERTURE END LIST*
D10*
X8400000Y-2400000D02*
G75*
G03*
X8400000Y-2400000I-200000J0D01*
G01*
X8400000Y-5900000D02*
G75*
G03*
X8400000Y-5900000I-200000J0D01*
G01*
X8600000Y-2000000D02*
X2000000Y-2000000D01*
X2000000Y-6300000D02*
X8600000Y-6300000D01*
X8600000Y-6300000D02*
X8600000Y-2000000D01*
X2600000Y-5900000D02*
G75*
G03*
X2600000Y-5900000I-200000J0D01*
G01*
X2600000Y-2400000D02*
G75*
G03*
X2600000Y-2400000I-200000J0D01*
G01*
X2000000Y-6300000D02*
X2000000Y-2000000D01*
D11*
D12*
X7095000Y-4471000D02*
X7125000Y-4501000D01*
X7125000Y-4471000D02*
X7095000Y-4501000D01*
X7095000Y-4575000D02*
X7125000Y-4605000D01*
X7125000Y-4575000D02*
X7095000Y-4605000D01*
X7095000Y-4691000D02*
X7125000Y-4721000D01*
X7125000Y-4691000D02*
X7095000Y-4721000D01*
X7205000Y-4471000D02*
X7235000Y-4501000D01*
X7235000Y-4471000D02*
X7205000Y-4501000D01*
X7205000Y-4575000D02*
X7235000Y-4605000D01*
X7235000Y-4575000D02*
X7205000Y-4605000D01*
X7205000Y-4691000D02*
X7235000Y-4721000D01*
X7235000Y-4691000D02*
X7205000Y-4721000D01*
X7315000Y-4471000D02*
X7345000Y-4501000D01*
X7345000Y-4471000D02*
X7315000Y-4501000D01*
X7315000Y-4575000D02*
X7345000Y-4605000D01*
X7345000Y-4575000D02*
X7315000Y-4605000D01*
X7315000Y-4691000D02*
X7345000Y-4721000D01*
X7345000Y-4691000D02*
X7315000Y-4721000D01*
D13*
X2866250Y-4750000D02*
G75*
G03*
X2866250Y-4750000I-20000J0D01*
G01*
X3095000Y-4595000D02*
G75*
G03*
X3095000Y-4595000I-20000J0D01*
G01*
X3195000Y-4495000D02*
G75*
G03*
X3195000Y-4495000I-20000J0D01*
G01*
X3275000Y-5125000D02*
G75*
G03*
X3275000Y-5125000I-20000J0D01*
G01*
X3445000Y-5131000D02*
G75*
G03*
X3445000Y-5131000I-20000J0D01*
G01*
X3805000Y-3950000D02*
G75*
G03*
X3805000Y-3950000I-20000J0D01*
G01*
X3805000Y-4150000D02*
G75*
G03*
X3805000Y-4150000I-20000J0D01*
G01*
X3805000Y-4350000D02*
G75*
G03*
X3805000Y-4350000I-20000J0D01*
G01*
X3805000Y-4550000D02*
G75*
G03*
X3805000Y-4550000I-20000J0D01*
G01*
X4205000Y-3950000D02*
G75*
G03*
X4205000Y-3950000I-20000J0D01*
G01*
X4205000Y-4150000D02*
G75*
G03*
X4205000Y-4150000I-20000J0D01*
G01*
X4205000Y-4350000D02*
G75*
G03*
X4205000Y-4350000I-20000J0D01*
G01*
X4205000Y-4550000D02*
G75*
G03*
X4205000Y-4550000I-20000J0D01*
G01*
X5270000Y-4950000D02*
G75*
G03*
X5270000Y-4950000I-20000J0D01*
G01*
X5552500Y-3875000D02*
G75*
G03*
X5552500Y-3875000I-20000J0D01*
G01*
X5795000Y-5012500D02*
G75*
G03*
X5795000Y-5012500I-20000J0D01*
G01*
X6042500Y-3875000D02*
G75*
G03*
X6042500Y-3875000I-20000J0D01*
G01*
X6072500Y-5425000D02*
G75*
G03*
X6072500Y-5425000I-20000J0D01*
G01*
X6195000Y-3712500D02*
G75*
G03*
X6195000Y-3712500I-20000J0D01*
G01*
X6310000Y-5000000D02*
G75*
G03*
X6310000Y-5000000I-20000J0D01*
G01*
X6425000Y-5320000D02*
G75*
G03*
X6425000Y-5320000I-20000J0D01*
G01*
X6525000Y-5420000D02*
G75*
G03*
X6525000Y-5420000I-20000J0D01*
G01*
X6580000Y-2812500D02*
G75*
G03*
X6580000Y-2812500I-20000J0D01*
G01*
X6620000Y-5225000D02*
G75*
G03*
X6620000Y-5225000I-20000J0D01*
G01*
X6621000Y-5100000D02*
G75*
G03*
X6621000Y-5100000I-20000J0D01*
G01*
X6660000Y-3762500D02*
G75*
G03*
X6660000Y-3762500I-20000J0D01*
G01*
X6810000Y-3760000D02*
G75*
G03*
X6810000Y-3760000I-20000J0D01*
G01*
X6862500Y-3875000D02*
G75*
G03*
X6862500Y-3875000I-20000J0D01*
G01*
X6960000Y-3490000D02*
G75*
G03*
X6960000Y-3490000I-20000J0D01*
G01*
X7080000Y-2811250D02*
G75*
G03*
X7080000Y-2811250I-20000J0D01*
G01*
X7560000Y-3370000D02*
G75*
G03*
X7560000Y-3370000I-20000J0D01*
G01*
X7570000Y-2787500D02*
G75*
G03*
X7570000Y-2787500I-20000J0D01*
G01*
X8380000Y-3050000D02*
G75*
G03*
X8380000Y-3050000I-20000J0D01*
G01*
D14*
X3150000Y-2350000D02*
X3150000Y-2410000D01*
X3120000Y-2380000D02*
X3180000Y-2380000D01*
X3375000Y-4570000D02*
X3375000Y-4630000D01*
X3345000Y-4600000D02*
X3405000Y-4600000D01*
X3700000Y-3490000D02*
X3700000Y-3550000D01*
X3670000Y-3520000D02*
X3730000Y-3520000D01*
X3850000Y-2760000D02*
X3850000Y-2820000D01*
X3820000Y-2790000D02*
X3880000Y-2790000D01*
X4220000Y-3050000D02*
X4220000Y-3110000D01*
X4190000Y-3080000D02*
X4250000Y-3080000D01*
X4615000Y-4645000D02*
X4615000Y-4705000D01*
X4585000Y-4675000D02*
X4645000Y-4675000D01*
X4825000Y-3050000D02*
X4825000Y-3110000D01*
X4795000Y-3080000D02*
X4855000Y-3080000D01*
X5125000Y-2795000D02*
X5125000Y-2855000D01*
X5095000Y-2825000D02*
X5155000Y-2825000D01*
X5125000Y-3720000D02*
X5125000Y-3780000D01*
X5095000Y-3750000D02*
X5155000Y-3750000D01*
X5975000Y-2807500D02*
X5975000Y-2867500D01*
X5945000Y-2837500D02*
X6005000Y-2837500D01*
X6625000Y-3995000D02*
X6625000Y-4055000D01*
X6595000Y-4025000D02*
X6655000Y-4025000D01*
X6625000Y-4895000D02*
X6625000Y-4955000D01*
X6595000Y-4925000D02*
X6655000Y-4925000D01*
X6810000Y-3081250D02*
X6810000Y-3141250D01*
X6780000Y-3111250D02*
X6840000Y-3111250D01*
X7552500Y-2212500D02*
X7552500Y-2272500D01*
X7522500Y-2242500D02*
X7582500Y-2242500D01*
X7850000Y-3832500D02*
X7850000Y-3892500D01*
X7820000Y-3862500D02*
X7880000Y-3862500D01*
X7850000Y-5120000D02*
X7850000Y-5180000D01*
X7820000Y-5150000D02*
X7880000Y-5150000D01*
X2167463Y-4231213D02*
X2167463Y-4188787D01*
X2125037Y-4188787D01*
X2125037Y-4231213D01*
X2167463Y-4231213D01*
D11*
X2111250Y-4240000D02*
X2181250Y-4240000D01*
X2181250Y-4240000D02*
G75*
G03*
X2181250Y-4180000I0J30000D01*
G01*
X2181250Y-4180000D02*
X2111250Y-4180000D01*
X2111250Y-4180000D02*
G75*
G03*
X2111250Y-4240000I0J-30000D01*
G01*
D14*
X2167463Y-4931213D02*
X2167463Y-4888787D01*
X2125037Y-4888787D01*
X2125037Y-4931213D01*
X2167463Y-4931213D01*
D11*
X2181250Y-4880000D02*
X2111250Y-4880000D01*
X2111250Y-4880000D02*
G75*
G03*
X2111250Y-4940000I0J-30000D01*
G01*
X2111250Y-4940000D02*
X2181250Y-4940000D01*
X2181250Y-4940000D02*
G75*
G03*
X2181250Y-4880000I0J30000D01*
G01*
D15*
X2775000Y-3113100D02*
X2813100Y-3075000D01*
X2775000Y-3036900D01*
X2736900Y-3075000D01*
X2775000Y-3113100D01*
X2775000Y-3493100D02*
X2813100Y-3455000D01*
X2775000Y-3416900D01*
X2736900Y-3455000D01*
X2775000Y-3493100D01*
D16*
X2373750Y-4267500D02*
X2458750Y-4352500D01*
X2458750Y-4267500D02*
X2373750Y-4352500D01*
X2458750Y-4310000D02*
G75*
G03*
X2458750Y-4310000I-42500J0D01*
G01*
X2373750Y-4767500D02*
X2458750Y-4852500D01*
X2458750Y-4767500D02*
X2373750Y-4852500D01*
X2458750Y-4810000D02*
G75*
G03*
X2458750Y-4810000I-42500J0D01*
G01*
D17*
X2945000Y-5922500D02*
X3045000Y-6022500D01*
X3045000Y-5922500D02*
X2945000Y-6022500D01*
X2995000Y-5922500D02*
X2995000Y-6022500D01*
X2945000Y-5972500D02*
X3045000Y-5972500D01*
X3199000Y-5922500D02*
X3299000Y-6022500D01*
X3299000Y-5922500D02*
X3199000Y-6022500D01*
X3249000Y-5922500D02*
X3249000Y-6022500D01*
X3199000Y-5972500D02*
X3299000Y-5972500D01*
X3453000Y-5922500D02*
X3553000Y-6022500D01*
X3553000Y-5922500D02*
X3453000Y-6022500D01*
X3503000Y-5922500D02*
X3503000Y-6022500D01*
X3453000Y-5972500D02*
X3553000Y-5972500D01*
X3707000Y-5922500D02*
X3807000Y-6022500D01*
X3807000Y-5922500D02*
X3707000Y-6022500D01*
X3757000Y-5922500D02*
X3757000Y-6022500D01*
X3707000Y-5972500D02*
X3807000Y-5972500D01*
X4562500Y-5922500D02*
X4662500Y-6022500D01*
X4662500Y-5922500D02*
X4562500Y-6022500D01*
X4612500Y-5922500D02*
X4612500Y-6022500D01*
X4562500Y-5972500D02*
X4662500Y-5972500D01*
X4816500Y-5922500D02*
X4916500Y-6022500D01*
X4916500Y-5922500D02*
X4816500Y-6022500D01*
X4866500Y-5922500D02*
X4866500Y-6022500D01*
X4816500Y-5972500D02*
X4916500Y-5972500D01*
X5070500Y-5922500D02*
X5170500Y-6022500D01*
X5170500Y-5922500D02*
X5070500Y-6022500D01*
X5120500Y-5922500D02*
X5120500Y-6022500D01*
X5070500Y-5972500D02*
X5170500Y-5972500D01*
X5200000Y-2130000D02*
X5300000Y-2230000D01*
X5300000Y-2130000D02*
X5200000Y-2230000D01*
X5250000Y-2130000D02*
X5250000Y-2230000D01*
X5200000Y-2180000D02*
X5300000Y-2180000D01*
X5324500Y-5922500D02*
X5424500Y-6022500D01*
X5424500Y-5922500D02*
X5324500Y-6022500D01*
X5374500Y-5922500D02*
X5374500Y-6022500D01*
X5324500Y-5972500D02*
X5424500Y-5972500D01*
X5454000Y-2130000D02*
X5554000Y-2230000D01*
X5554000Y-2130000D02*
X5454000Y-2230000D01*
X5504000Y-2130000D02*
X5504000Y-2230000D01*
X5454000Y-2180000D02*
X5554000Y-2180000D01*
X5578500Y-5922500D02*
X5678500Y-6022500D01*
X5678500Y-5922500D02*
X5578500Y-6022500D01*
X5628500Y-5922500D02*
X5628500Y-6022500D01*
X5578500Y-5972500D02*
X5678500Y-5972500D01*
X5708000Y-2130000D02*
X5808000Y-2230000D01*
X5808000Y-2130000D02*
X5708000Y-2230000D01*
X5758000Y-2130000D02*
X5758000Y-2230000D01*
X5708000Y-2180000D02*
X5808000Y-2180000D01*
X5832500Y-5922500D02*
X5932500Y-6022500D01*
X5932500Y-5922500D02*
X5832500Y-6022500D01*
X5882500Y-5922500D02*
X5882500Y-6022500D01*
X5832500Y-5972500D02*
X5932500Y-5972500D01*
X5962000Y-2130000D02*
X6062000Y-2230000D01*
X6062000Y-2130000D02*
X5962000Y-2230000D01*
X6012000Y-2130000D02*
X6012000Y-2230000D01*
X5962000Y-2180000D02*
X6062000Y-2180000D01*
X6216000Y-2130000D02*
X6316000Y-2230000D01*
X6316000Y-2130000D02*
X6216000Y-2230000D01*
X6266000Y-2130000D02*
X6266000Y-2230000D01*
X6216000Y-2180000D02*
X6316000Y-2180000D01*
X6470000Y-2130000D02*
X6570000Y-2230000D01*
X6570000Y-2130000D02*
X6470000Y-2230000D01*
X6520000Y-2130000D02*
X6520000Y-2230000D01*
X6470000Y-2180000D02*
X6570000Y-2180000D01*
X6724000Y-2130000D02*
X6824000Y-2230000D01*
X6824000Y-2130000D02*
X6724000Y-2230000D01*
X6774000Y-2130000D02*
X6774000Y-2230000D01*
X6724000Y-2180000D02*
X6824000Y-2180000D01*
X6978000Y-2130000D02*
X7078000Y-2230000D01*
X7078000Y-2130000D02*
X6978000Y-2230000D01*
X7028000Y-2130000D02*
X7028000Y-2230000D01*
X6978000Y-2180000D02*
X7078000Y-2180000D01*
D11*
X2258277Y-6613984D02*
X2258277Y-6413984D01*
X2258277Y-6413984D02*
X2305896Y-6413984D01*
X2305896Y-6413984D02*
X2334467Y-6423508D01*
X2334467Y-6423508D02*
X2353515Y-6442555D01*
X2353515Y-6442555D02*
X2363039Y-6461603D01*
X2363039Y-6461603D02*
X2372563Y-6499698D01*
X2372563Y-6499698D02*
X2372563Y-6528269D01*
X2372563Y-6528269D02*
X2363039Y-6566365D01*
X2363039Y-6566365D02*
X2353515Y-6585412D01*
X2353515Y-6585412D02*
X2334467Y-6604460D01*
X2334467Y-6604460D02*
X2305896Y-6613984D01*
X2305896Y-6613984D02*
X2258277Y-6613984D01*
X2458277Y-6613984D02*
X2458277Y-6480650D01*
X2458277Y-6518746D02*
X2467801Y-6499698D01*
X2467801Y-6499698D02*
X2477324Y-6490174D01*
X2477324Y-6490174D02*
X2496372Y-6480650D01*
X2496372Y-6480650D02*
X2515420Y-6480650D01*
X2582086Y-6613984D02*
X2582086Y-6480650D01*
X2582086Y-6413984D02*
X2572563Y-6423508D01*
X2572563Y-6423508D02*
X2582086Y-6433031D01*
X2582086Y-6433031D02*
X2591610Y-6423508D01*
X2591610Y-6423508D02*
X2582086Y-6413984D01*
X2582086Y-6413984D02*
X2582086Y-6433031D01*
X2705896Y-6613984D02*
X2686848Y-6604460D01*
X2686848Y-6604460D02*
X2677324Y-6585412D01*
X2677324Y-6585412D02*
X2677324Y-6413984D01*
X2810658Y-6613984D02*
X2791610Y-6604460D01*
X2791610Y-6604460D02*
X2782086Y-6585412D01*
X2782086Y-6585412D02*
X2782086Y-6413984D01*
X3039229Y-6613984D02*
X3039229Y-6413984D01*
X3039229Y-6413984D02*
X3105896Y-6556841D01*
X3105896Y-6556841D02*
X3172562Y-6413984D01*
X3172562Y-6413984D02*
X3172562Y-6613984D01*
X3353515Y-6613984D02*
X3353515Y-6509222D01*
X3353515Y-6509222D02*
X3343991Y-6490174D01*
X3343991Y-6490174D02*
X3324943Y-6480650D01*
X3324943Y-6480650D02*
X3286848Y-6480650D01*
X3286848Y-6480650D02*
X3267801Y-6490174D01*
X3353515Y-6604460D02*
X3334467Y-6613984D01*
X3334467Y-6613984D02*
X3286848Y-6613984D01*
X3286848Y-6613984D02*
X3267801Y-6604460D01*
X3267801Y-6604460D02*
X3258277Y-6585412D01*
X3258277Y-6585412D02*
X3258277Y-6566365D01*
X3258277Y-6566365D02*
X3267801Y-6547317D01*
X3267801Y-6547317D02*
X3286848Y-6537793D01*
X3286848Y-6537793D02*
X3334467Y-6537793D01*
X3334467Y-6537793D02*
X3353515Y-6528269D01*
X3448753Y-6480650D02*
X3448753Y-6680650D01*
X3448753Y-6490174D02*
X3467801Y-6480650D01*
X3467801Y-6480650D02*
X3505896Y-6480650D01*
X3505896Y-6480650D02*
X3524943Y-6490174D01*
X3524943Y-6490174D02*
X3534467Y-6499698D01*
X3534467Y-6499698D02*
X3543991Y-6518746D01*
X3543991Y-6518746D02*
X3543991Y-6575888D01*
X3543991Y-6575888D02*
X3534467Y-6594936D01*
X3534467Y-6594936D02*
X3524943Y-6604460D01*
X3524943Y-6604460D02*
X3505896Y-6613984D01*
X3505896Y-6613984D02*
X3467801Y-6613984D01*
X3467801Y-6613984D02*
X3448753Y-6604460D01*
X3629705Y-6594936D02*
X3639229Y-6604460D01*
X3639229Y-6604460D02*
X3629705Y-6613984D01*
X3629705Y-6613984D02*
X3620182Y-6604460D01*
X3620182Y-6604460D02*
X3629705Y-6594936D01*
X3629705Y-6594936D02*
X3629705Y-6613984D01*
X3629705Y-6490174D02*
X3639229Y-6499698D01*
X3639229Y-6499698D02*
X3629705Y-6509222D01*
X3629705Y-6509222D02*
X3620182Y-6499698D01*
X3620182Y-6499698D02*
X3629705Y-6490174D01*
X3629705Y-6490174D02*
X3629705Y-6509222D01*
D12*
X1967500Y-6927500D02*
X1997500Y-6957500D01*
X1997500Y-6927500D02*
X1967500Y-6957500D01*
D11*
X2296372Y-6833984D02*
X2315420Y-6833984D01*
X2315420Y-6833984D02*
X2334467Y-6843508D01*
X2334467Y-6843508D02*
X2343991Y-6853031D01*
X2343991Y-6853031D02*
X2353515Y-6872079D01*
X2353515Y-6872079D02*
X2363039Y-6910174D01*
X2363039Y-6910174D02*
X2363039Y-6957793D01*
X2363039Y-6957793D02*
X2353515Y-6995888D01*
X2353515Y-6995888D02*
X2343991Y-7014936D01*
X2343991Y-7014936D02*
X2334467Y-7024460D01*
X2334467Y-7024460D02*
X2315420Y-7033984D01*
X2315420Y-7033984D02*
X2296372Y-7033984D01*
X2296372Y-7033984D02*
X2277324Y-7024460D01*
X2277324Y-7024460D02*
X2267801Y-7014936D01*
X2267801Y-7014936D02*
X2258277Y-6995888D01*
X2258277Y-6995888D02*
X2248753Y-6957793D01*
X2248753Y-6957793D02*
X2248753Y-6910174D01*
X2248753Y-6910174D02*
X2258277Y-6872079D01*
X2258277Y-6872079D02*
X2267801Y-6853031D01*
X2267801Y-6853031D02*
X2277324Y-6843508D01*
X2277324Y-6843508D02*
X2296372Y-6833984D01*
X2448753Y-7014936D02*
X2458277Y-7024460D01*
X2458277Y-7024460D02*
X2448753Y-7033984D01*
X2448753Y-7033984D02*
X2439229Y-7024460D01*
X2439229Y-7024460D02*
X2448753Y-7014936D01*
X2448753Y-7014936D02*
X2448753Y-7033984D01*
X2524944Y-6833984D02*
X2648753Y-6833984D01*
X2648753Y-6833984D02*
X2582086Y-6910174D01*
X2582086Y-6910174D02*
X2610658Y-6910174D01*
X2610658Y-6910174D02*
X2629705Y-6919698D01*
X2629705Y-6919698D02*
X2639229Y-6929222D01*
X2639229Y-6929222D02*
X2648753Y-6948269D01*
X2648753Y-6948269D02*
X2648753Y-6995888D01*
X2648753Y-6995888D02*
X2639229Y-7014936D01*
X2639229Y-7014936D02*
X2629705Y-7024460D01*
X2629705Y-7024460D02*
X2610658Y-7033984D01*
X2610658Y-7033984D02*
X2553515Y-7033984D01*
X2553515Y-7033984D02*
X2534467Y-7024460D01*
X2534467Y-7024460D02*
X2524944Y-7014936D01*
X2772563Y-6833984D02*
X2791610Y-6833984D01*
X2791610Y-6833984D02*
X2810658Y-6843508D01*
X2810658Y-6843508D02*
X2820182Y-6853031D01*
X2820182Y-6853031D02*
X2829705Y-6872079D01*
X2829705Y-6872079D02*
X2839229Y-6910174D01*
X2839229Y-6910174D02*
X2839229Y-6957793D01*
X2839229Y-6957793D02*
X2829705Y-6995888D01*
X2829705Y-6995888D02*
X2820182Y-7014936D01*
X2820182Y-7014936D02*
X2810658Y-7024460D01*
X2810658Y-7024460D02*
X2791610Y-7033984D01*
X2791610Y-7033984D02*
X2772563Y-7033984D01*
X2772563Y-7033984D02*
X2753515Y-7024460D01*
X2753515Y-7024460D02*
X2743991Y-7014936D01*
X2743991Y-7014936D02*
X2734467Y-6995888D01*
X2734467Y-6995888D02*
X2724944Y-6957793D01*
X2724944Y-6957793D02*
X2724944Y-6910174D01*
X2724944Y-6910174D02*
X2734467Y-6872079D01*
X2734467Y-6872079D02*
X2743991Y-6853031D01*
X2743991Y-6853031D02*
X2753515Y-6843508D01*
X2753515Y-6843508D02*
X2772563Y-6833984D01*
X2963039Y-6833984D02*
X2982086Y-6833984D01*
X2982086Y-6833984D02*
X3001134Y-6843508D01*
X3001134Y-6843508D02*
X3010658Y-6853031D01*
X3010658Y-6853031D02*
X3020182Y-6872079D01*
X3020182Y-6872079D02*
X3029705Y-6910174D01*
X3029705Y-6910174D02*
X3029705Y-6957793D01*
X3029705Y-6957793D02*
X3020182Y-6995888D01*
X3020182Y-6995888D02*
X3010658Y-7014936D01*
X3010658Y-7014936D02*
X3001134Y-7024460D01*
X3001134Y-7024460D02*
X2982086Y-7033984D01*
X2982086Y-7033984D02*
X2963039Y-7033984D01*
X2963039Y-7033984D02*
X2943991Y-7024460D01*
X2943991Y-7024460D02*
X2934467Y-7014936D01*
X2934467Y-7014936D02*
X2924943Y-6995888D01*
X2924943Y-6995888D02*
X2915420Y-6957793D01*
X2915420Y-6957793D02*
X2915420Y-6910174D01*
X2915420Y-6910174D02*
X2924943Y-6872079D01*
X2924943Y-6872079D02*
X2934467Y-6853031D01*
X2934467Y-6853031D02*
X2943991Y-6843508D01*
X2943991Y-6843508D02*
X2963039Y-6833984D01*
X3115420Y-7033984D02*
X3115420Y-6900650D01*
X3115420Y-6919698D02*
X3124943Y-6910174D01*
X3124943Y-6910174D02*
X3143991Y-6900650D01*
X3143991Y-6900650D02*
X3172563Y-6900650D01*
X3172563Y-6900650D02*
X3191610Y-6910174D01*
X3191610Y-6910174D02*
X3201134Y-6929222D01*
X3201134Y-6929222D02*
X3201134Y-7033984D01*
X3201134Y-6929222D02*
X3210658Y-6910174D01*
X3210658Y-6910174D02*
X3229705Y-6900650D01*
X3229705Y-6900650D02*
X3258277Y-6900650D01*
X3258277Y-6900650D02*
X3277324Y-6910174D01*
X3277324Y-6910174D02*
X3286848Y-6929222D01*
X3286848Y-6929222D02*
X3286848Y-7033984D01*
X3382086Y-7033984D02*
X3382086Y-6900650D01*
X3382086Y-6919698D02*
X3391610Y-6910174D01*
X3391610Y-6910174D02*
X3410658Y-6900650D01*
X3410658Y-6900650D02*
X3439229Y-6900650D01*
X3439229Y-6900650D02*
X3458277Y-6910174D01*
X3458277Y-6910174D02*
X3467801Y-6929222D01*
X3467801Y-6929222D02*
X3467801Y-7033984D01*
X3467801Y-6929222D02*
X3477324Y-6910174D01*
X3477324Y-6910174D02*
X3496372Y-6900650D01*
X3496372Y-6900650D02*
X3524943Y-6900650D01*
X3524943Y-6900650D02*
X3543991Y-6910174D01*
X3543991Y-6910174D02*
X3553515Y-6929222D01*
X3553515Y-6929222D02*
X3553515Y-7033984D01*
X3943991Y-6824460D02*
X3772563Y-7081603D01*
X4201134Y-6833984D02*
X4220182Y-6833984D01*
X4220182Y-6833984D02*
X4239229Y-6843508D01*
X4239229Y-6843508D02*
X4248753Y-6853031D01*
X4248753Y-6853031D02*
X4258277Y-6872079D01*
X4258277Y-6872079D02*
X4267801Y-6910174D01*
X4267801Y-6910174D02*
X4267801Y-6957793D01*
X4267801Y-6957793D02*
X4258277Y-6995888D01*
X4258277Y-6995888D02*
X4248753Y-7014936D01*
X4248753Y-7014936D02*
X4239229Y-7024460D01*
X4239229Y-7024460D02*
X4220182Y-7033984D01*
X4220182Y-7033984D02*
X4201134Y-7033984D01*
X4201134Y-7033984D02*
X4182086Y-7024460D01*
X4182086Y-7024460D02*
X4172563Y-7014936D01*
X4172563Y-7014936D02*
X4163039Y-6995888D01*
X4163039Y-6995888D02*
X4153515Y-6957793D01*
X4153515Y-6957793D02*
X4153515Y-6910174D01*
X4153515Y-6910174D02*
X4163039Y-6872079D01*
X4163039Y-6872079D02*
X4172563Y-6853031D01*
X4172563Y-6853031D02*
X4182086Y-6843508D01*
X4182086Y-6843508D02*
X4201134Y-6833984D01*
X4353515Y-7014936D02*
X4363039Y-7024460D01*
X4363039Y-7024460D02*
X4353515Y-7033984D01*
X4353515Y-7033984D02*
X4343991Y-7024460D01*
X4343991Y-7024460D02*
X4353515Y-7014936D01*
X4353515Y-7014936D02*
X4353515Y-7033984D01*
X4486848Y-6833984D02*
X4505896Y-6833984D01*
X4505896Y-6833984D02*
X4524944Y-6843508D01*
X4524944Y-6843508D02*
X4534468Y-6853031D01*
X4534468Y-6853031D02*
X4543991Y-6872079D01*
X4543991Y-6872079D02*
X4553515Y-6910174D01*
X4553515Y-6910174D02*
X4553515Y-6957793D01*
X4553515Y-6957793D02*
X4543991Y-6995888D01*
X4543991Y-6995888D02*
X4534468Y-7014936D01*
X4534468Y-7014936D02*
X4524944Y-7024460D01*
X4524944Y-7024460D02*
X4505896Y-7033984D01*
X4505896Y-7033984D02*
X4486848Y-7033984D01*
X4486848Y-7033984D02*
X4467801Y-7024460D01*
X4467801Y-7024460D02*
X4458277Y-7014936D01*
X4458277Y-7014936D02*
X4448753Y-6995888D01*
X4448753Y-6995888D02*
X4439229Y-6957793D01*
X4439229Y-6957793D02*
X4439229Y-6910174D01*
X4439229Y-6910174D02*
X4448753Y-6872079D01*
X4448753Y-6872079D02*
X4458277Y-6853031D01*
X4458277Y-6853031D02*
X4467801Y-6843508D01*
X4467801Y-6843508D02*
X4486848Y-6833984D01*
X4743991Y-7033984D02*
X4629706Y-7033984D01*
X4686848Y-7033984D02*
X4686848Y-6833984D01*
X4686848Y-6833984D02*
X4667801Y-6862555D01*
X4667801Y-6862555D02*
X4648753Y-6881603D01*
X4648753Y-6881603D02*
X4629706Y-6891127D01*
X4934468Y-7033984D02*
X4820182Y-7033984D01*
X4877325Y-7033984D02*
X4877325Y-6833984D01*
X4877325Y-6833984D02*
X4858277Y-6862555D01*
X4858277Y-6862555D02*
X4839229Y-6881603D01*
X4839229Y-6881603D02*
X4820182Y-6891127D01*
X5048753Y-6919698D02*
X5029706Y-6910174D01*
X5029706Y-6910174D02*
X5020182Y-6900650D01*
X5020182Y-6900650D02*
X5010658Y-6881603D01*
X5010658Y-6881603D02*
X5010658Y-6872079D01*
X5010658Y-6872079D02*
X5020182Y-6853031D01*
X5020182Y-6853031D02*
X5029706Y-6843508D01*
X5029706Y-6843508D02*
X5048753Y-6833984D01*
X5048753Y-6833984D02*
X5086849Y-6833984D01*
X5086849Y-6833984D02*
X5105896Y-6843508D01*
X5105896Y-6843508D02*
X5115420Y-6853031D01*
X5115420Y-6853031D02*
X5124944Y-6872079D01*
X5124944Y-6872079D02*
X5124944Y-6881603D01*
X5124944Y-6881603D02*
X5115420Y-6900650D01*
X5115420Y-6900650D02*
X5105896Y-6910174D01*
X5105896Y-6910174D02*
X5086849Y-6919698D01*
X5086849Y-6919698D02*
X5048753Y-6919698D01*
X5048753Y-6919698D02*
X5029706Y-6929222D01*
X5029706Y-6929222D02*
X5020182Y-6938746D01*
X5020182Y-6938746D02*
X5010658Y-6957793D01*
X5010658Y-6957793D02*
X5010658Y-6995888D01*
X5010658Y-6995888D02*
X5020182Y-7014936D01*
X5020182Y-7014936D02*
X5029706Y-7024460D01*
X5029706Y-7024460D02*
X5048753Y-7033984D01*
X5048753Y-7033984D02*
X5086849Y-7033984D01*
X5086849Y-7033984D02*
X5105896Y-7024460D01*
X5105896Y-7024460D02*
X5115420Y-7014936D01*
X5115420Y-7014936D02*
X5124944Y-6995888D01*
X5124944Y-6995888D02*
X5124944Y-6957793D01*
X5124944Y-6957793D02*
X5115420Y-6938746D01*
X5115420Y-6938746D02*
X5105896Y-6929222D01*
X5105896Y-6929222D02*
X5086849Y-6919698D01*
X5201134Y-6833984D02*
X5201134Y-6872079D01*
X5277325Y-6833984D02*
X5277325Y-6872079D01*
X5572563Y-7110174D02*
X5563039Y-7100650D01*
X5563039Y-7100650D02*
X5543991Y-7072079D01*
X5543991Y-7072079D02*
X5534468Y-7053031D01*
X5534468Y-7053031D02*
X5524944Y-7024460D01*
X5524944Y-7024460D02*
X5515420Y-6976841D01*
X5515420Y-6976841D02*
X5515420Y-6938746D01*
X5515420Y-6938746D02*
X5524944Y-6891127D01*
X5524944Y-6891127D02*
X5534468Y-6862555D01*
X5534468Y-6862555D02*
X5543991Y-6843508D01*
X5543991Y-6843508D02*
X5563039Y-6814936D01*
X5563039Y-6814936D02*
X5572563Y-6805412D01*
X5658277Y-7033984D02*
X5696372Y-7033984D01*
X5696372Y-7033984D02*
X5715420Y-7024460D01*
X5715420Y-7024460D02*
X5724944Y-7014936D01*
X5724944Y-7014936D02*
X5743991Y-6986365D01*
X5743991Y-6986365D02*
X5753515Y-6948269D01*
X5753515Y-6948269D02*
X5753515Y-6872079D01*
X5753515Y-6872079D02*
X5743991Y-6853031D01*
X5743991Y-6853031D02*
X5734468Y-6843508D01*
X5734468Y-6843508D02*
X5715420Y-6833984D01*
X5715420Y-6833984D02*
X5677325Y-6833984D01*
X5677325Y-6833984D02*
X5658277Y-6843508D01*
X5658277Y-6843508D02*
X5648753Y-6853031D01*
X5648753Y-6853031D02*
X5639229Y-6872079D01*
X5639229Y-6872079D02*
X5639229Y-6919698D01*
X5639229Y-6919698D02*
X5648753Y-6938746D01*
X5648753Y-6938746D02*
X5658277Y-6948269D01*
X5658277Y-6948269D02*
X5677325Y-6957793D01*
X5677325Y-6957793D02*
X5715420Y-6957793D01*
X5715420Y-6957793D02*
X5734468Y-6948269D01*
X5734468Y-6948269D02*
X5743991Y-6938746D01*
X5743991Y-6938746D02*
X5753515Y-6919698D01*
X5991610Y-7033984D02*
X5991610Y-6833984D01*
X6077325Y-7033984D02*
X6077325Y-6929222D01*
X6077325Y-6929222D02*
X6067801Y-6910174D01*
X6067801Y-6910174D02*
X6048753Y-6900650D01*
X6048753Y-6900650D02*
X6020182Y-6900650D01*
X6020182Y-6900650D02*
X6001134Y-6910174D01*
X6001134Y-6910174D02*
X5991610Y-6919698D01*
X6201134Y-7033984D02*
X6182087Y-7024460D01*
X6182087Y-7024460D02*
X6172563Y-7014936D01*
X6172563Y-7014936D02*
X6163039Y-6995888D01*
X6163039Y-6995888D02*
X6163039Y-6938746D01*
X6163039Y-6938746D02*
X6172563Y-6919698D01*
X6172563Y-6919698D02*
X6182087Y-6910174D01*
X6182087Y-6910174D02*
X6201134Y-6900650D01*
X6201134Y-6900650D02*
X6229706Y-6900650D01*
X6229706Y-6900650D02*
X6248753Y-6910174D01*
X6248753Y-6910174D02*
X6258277Y-6919698D01*
X6258277Y-6919698D02*
X6267801Y-6938746D01*
X6267801Y-6938746D02*
X6267801Y-6995888D01*
X6267801Y-6995888D02*
X6258277Y-7014936D01*
X6258277Y-7014936D02*
X6248753Y-7024460D01*
X6248753Y-7024460D02*
X6229706Y-7033984D01*
X6229706Y-7033984D02*
X6201134Y-7033984D01*
X6382087Y-7033984D02*
X6363039Y-7024460D01*
X6363039Y-7024460D02*
X6353515Y-7005412D01*
X6353515Y-7005412D02*
X6353515Y-6833984D01*
X6534468Y-7024460D02*
X6515420Y-7033984D01*
X6515420Y-7033984D02*
X6477325Y-7033984D01*
X6477325Y-7033984D02*
X6458277Y-7024460D01*
X6458277Y-7024460D02*
X6448753Y-7005412D01*
X6448753Y-7005412D02*
X6448753Y-6929222D01*
X6448753Y-6929222D02*
X6458277Y-6910174D01*
X6458277Y-6910174D02*
X6477325Y-6900650D01*
X6477325Y-6900650D02*
X6515420Y-6900650D01*
X6515420Y-6900650D02*
X6534468Y-6910174D01*
X6534468Y-6910174D02*
X6543991Y-6929222D01*
X6543991Y-6929222D02*
X6543991Y-6948269D01*
X6543991Y-6948269D02*
X6448753Y-6967317D01*
X6620182Y-7024460D02*
X6639230Y-7033984D01*
X6639230Y-7033984D02*
X6677325Y-7033984D01*
X6677325Y-7033984D02*
X6696372Y-7024460D01*
X6696372Y-7024460D02*
X6705896Y-7005412D01*
X6705896Y-7005412D02*
X6705896Y-6995888D01*
X6705896Y-6995888D02*
X6696372Y-6976841D01*
X6696372Y-6976841D02*
X6677325Y-6967317D01*
X6677325Y-6967317D02*
X6648753Y-6967317D01*
X6648753Y-6967317D02*
X6629706Y-6957793D01*
X6629706Y-6957793D02*
X6620182Y-6938746D01*
X6620182Y-6938746D02*
X6620182Y-6929222D01*
X6620182Y-6929222D02*
X6629706Y-6910174D01*
X6629706Y-6910174D02*
X6648753Y-6900650D01*
X6648753Y-6900650D02*
X6677325Y-6900650D01*
X6677325Y-6900650D02*
X6696372Y-6910174D01*
X6772563Y-7110174D02*
X6782087Y-7100650D01*
X6782087Y-7100650D02*
X6801134Y-7072079D01*
X6801134Y-7072079D02*
X6810658Y-7053031D01*
X6810658Y-7053031D02*
X6820182Y-7024460D01*
X6820182Y-7024460D02*
X6829706Y-6976841D01*
X6829706Y-6976841D02*
X6829706Y-6938746D01*
X6829706Y-6938746D02*
X6820182Y-6891127D01*
X6820182Y-6891127D02*
X6810658Y-6862555D01*
X6810658Y-6862555D02*
X6801134Y-6843508D01*
X6801134Y-6843508D02*
X6782087Y-6814936D01*
X6782087Y-6814936D02*
X6772563Y-6805412D01*
D13*
X1997500Y-7206500D02*
G75*
G03*
X1997500Y-7206500I-20000J0D01*
G01*
D11*
X2296372Y-7097984D02*
X2315420Y-7097984D01*
X2315420Y-7097984D02*
X2334467Y-7107508D01*
X2334467Y-7107508D02*
X2343991Y-7117031D01*
X2343991Y-7117031D02*
X2353515Y-7136079D01*
X2353515Y-7136079D02*
X2363039Y-7174174D01*
X2363039Y-7174174D02*
X2363039Y-7221793D01*
X2363039Y-7221793D02*
X2353515Y-7259888D01*
X2353515Y-7259888D02*
X2343991Y-7278936D01*
X2343991Y-7278936D02*
X2334467Y-7288460D01*
X2334467Y-7288460D02*
X2315420Y-7297984D01*
X2315420Y-7297984D02*
X2296372Y-7297984D01*
X2296372Y-7297984D02*
X2277324Y-7288460D01*
X2277324Y-7288460D02*
X2267801Y-7278936D01*
X2267801Y-7278936D02*
X2258277Y-7259888D01*
X2258277Y-7259888D02*
X2248753Y-7221793D01*
X2248753Y-7221793D02*
X2248753Y-7174174D01*
X2248753Y-7174174D02*
X2258277Y-7136079D01*
X2258277Y-7136079D02*
X2267801Y-7117031D01*
X2267801Y-7117031D02*
X2277324Y-7107508D01*
X2277324Y-7107508D02*
X2296372Y-7097984D01*
X2448753Y-7278936D02*
X2458277Y-7288460D01*
X2458277Y-7288460D02*
X2448753Y-7297984D01*
X2448753Y-7297984D02*
X2439229Y-7288460D01*
X2439229Y-7288460D02*
X2448753Y-7278936D01*
X2448753Y-7278936D02*
X2448753Y-7297984D01*
X2629705Y-7164650D02*
X2629705Y-7297984D01*
X2582086Y-7088460D02*
X2534467Y-7231317D01*
X2534467Y-7231317D02*
X2658277Y-7231317D01*
X2772563Y-7097984D02*
X2791610Y-7097984D01*
X2791610Y-7097984D02*
X2810658Y-7107508D01*
X2810658Y-7107508D02*
X2820182Y-7117031D01*
X2820182Y-7117031D02*
X2829705Y-7136079D01*
X2829705Y-7136079D02*
X2839229Y-7174174D01*
X2839229Y-7174174D02*
X2839229Y-7221793D01*
X2839229Y-7221793D02*
X2829705Y-7259888D01*
X2829705Y-7259888D02*
X2820182Y-7278936D01*
X2820182Y-7278936D02*
X2810658Y-7288460D01*
X2810658Y-7288460D02*
X2791610Y-7297984D01*
X2791610Y-7297984D02*
X2772563Y-7297984D01*
X2772563Y-7297984D02*
X2753515Y-7288460D01*
X2753515Y-7288460D02*
X2743991Y-7278936D01*
X2743991Y-7278936D02*
X2734467Y-7259888D01*
X2734467Y-7259888D02*
X2724944Y-7221793D01*
X2724944Y-7221793D02*
X2724944Y-7174174D01*
X2724944Y-7174174D02*
X2734467Y-7136079D01*
X2734467Y-7136079D02*
X2743991Y-7117031D01*
X2743991Y-7117031D02*
X2753515Y-7107508D01*
X2753515Y-7107508D02*
X2772563Y-7097984D01*
X2963039Y-7097984D02*
X2982086Y-7097984D01*
X2982086Y-7097984D02*
X3001134Y-7107508D01*
X3001134Y-7107508D02*
X3010658Y-7117031D01*
X3010658Y-7117031D02*
X3020182Y-7136079D01*
X3020182Y-7136079D02*
X3029705Y-7174174D01*
X3029705Y-7174174D02*
X3029705Y-7221793D01*
X3029705Y-7221793D02*
X3020182Y-7259888D01*
X3020182Y-7259888D02*
X3010658Y-7278936D01*
X3010658Y-7278936D02*
X3001134Y-7288460D01*
X3001134Y-7288460D02*
X2982086Y-7297984D01*
X2982086Y-7297984D02*
X2963039Y-7297984D01*
X2963039Y-7297984D02*
X2943991Y-7288460D01*
X2943991Y-7288460D02*
X2934467Y-7278936D01*
X2934467Y-7278936D02*
X2924943Y-7259888D01*
X2924943Y-7259888D02*
X2915420Y-7221793D01*
X2915420Y-7221793D02*
X2915420Y-7174174D01*
X2915420Y-7174174D02*
X2924943Y-7136079D01*
X2924943Y-7136079D02*
X2934467Y-7117031D01*
X2934467Y-7117031D02*
X2943991Y-7107508D01*
X2943991Y-7107508D02*
X2963039Y-7097984D01*
X3115420Y-7297984D02*
X3115420Y-7164650D01*
X3115420Y-7183698D02*
X3124943Y-7174174D01*
X3124943Y-7174174D02*
X3143991Y-7164650D01*
X3143991Y-7164650D02*
X3172563Y-7164650D01*
X3172563Y-7164650D02*
X3191610Y-7174174D01*
X3191610Y-7174174D02*
X3201134Y-7193222D01*
X3201134Y-7193222D02*
X3201134Y-7297984D01*
X3201134Y-7193222D02*
X3210658Y-7174174D01*
X3210658Y-7174174D02*
X3229705Y-7164650D01*
X3229705Y-7164650D02*
X3258277Y-7164650D01*
X3258277Y-7164650D02*
X3277324Y-7174174D01*
X3277324Y-7174174D02*
X3286848Y-7193222D01*
X3286848Y-7193222D02*
X3286848Y-7297984D01*
X3382086Y-7297984D02*
X3382086Y-7164650D01*
X3382086Y-7183698D02*
X3391610Y-7174174D01*
X3391610Y-7174174D02*
X3410658Y-7164650D01*
X3410658Y-7164650D02*
X3439229Y-7164650D01*
X3439229Y-7164650D02*
X3458277Y-7174174D01*
X3458277Y-7174174D02*
X3467801Y-7193222D01*
X3467801Y-7193222D02*
X3467801Y-7297984D01*
X3467801Y-7193222D02*
X3477324Y-7174174D01*
X3477324Y-7174174D02*
X3496372Y-7164650D01*
X3496372Y-7164650D02*
X3524943Y-7164650D01*
X3524943Y-7164650D02*
X3543991Y-7174174D01*
X3543991Y-7174174D02*
X3553515Y-7193222D01*
X3553515Y-7193222D02*
X3553515Y-7297984D01*
X3943991Y-7088460D02*
X3772563Y-7345603D01*
X4201134Y-7097984D02*
X4220182Y-7097984D01*
X4220182Y-7097984D02*
X4239229Y-7107508D01*
X4239229Y-7107508D02*
X4248753Y-7117031D01*
X4248753Y-7117031D02*
X4258277Y-7136079D01*
X4258277Y-7136079D02*
X4267801Y-7174174D01*
X4267801Y-7174174D02*
X4267801Y-7221793D01*
X4267801Y-7221793D02*
X4258277Y-7259888D01*
X4258277Y-7259888D02*
X4248753Y-7278936D01*
X4248753Y-7278936D02*
X4239229Y-7288460D01*
X4239229Y-7288460D02*
X4220182Y-7297984D01*
X4220182Y-7297984D02*
X4201134Y-7297984D01*
X4201134Y-7297984D02*
X4182086Y-7288460D01*
X4182086Y-7288460D02*
X4172563Y-7278936D01*
X4172563Y-7278936D02*
X4163039Y-7259888D01*
X4163039Y-7259888D02*
X4153515Y-7221793D01*
X4153515Y-7221793D02*
X4153515Y-7174174D01*
X4153515Y-7174174D02*
X4163039Y-7136079D01*
X4163039Y-7136079D02*
X4172563Y-7117031D01*
X4172563Y-7117031D02*
X4182086Y-7107508D01*
X4182086Y-7107508D02*
X4201134Y-7097984D01*
X4353515Y-7278936D02*
X4363039Y-7288460D01*
X4363039Y-7288460D02*
X4353515Y-7297984D01*
X4353515Y-7297984D02*
X4343991Y-7288460D01*
X4343991Y-7288460D02*
X4353515Y-7278936D01*
X4353515Y-7278936D02*
X4353515Y-7297984D01*
X4486848Y-7097984D02*
X4505896Y-7097984D01*
X4505896Y-7097984D02*
X4524944Y-7107508D01*
X4524944Y-7107508D02*
X4534468Y-7117031D01*
X4534468Y-7117031D02*
X4543991Y-7136079D01*
X4543991Y-7136079D02*
X4553515Y-7174174D01*
X4553515Y-7174174D02*
X4553515Y-7221793D01*
X4553515Y-7221793D02*
X4543991Y-7259888D01*
X4543991Y-7259888D02*
X4534468Y-7278936D01*
X4534468Y-7278936D02*
X4524944Y-7288460D01*
X4524944Y-7288460D02*
X4505896Y-7297984D01*
X4505896Y-7297984D02*
X4486848Y-7297984D01*
X4486848Y-7297984D02*
X4467801Y-7288460D01*
X4467801Y-7288460D02*
X4458277Y-7278936D01*
X4458277Y-7278936D02*
X4448753Y-7259888D01*
X4448753Y-7259888D02*
X4439229Y-7221793D01*
X4439229Y-7221793D02*
X4439229Y-7174174D01*
X4439229Y-7174174D02*
X4448753Y-7136079D01*
X4448753Y-7136079D02*
X4458277Y-7117031D01*
X4458277Y-7117031D02*
X4467801Y-7107508D01*
X4467801Y-7107508D02*
X4486848Y-7097984D01*
X4743991Y-7297984D02*
X4629706Y-7297984D01*
X4686848Y-7297984D02*
X4686848Y-7097984D01*
X4686848Y-7097984D02*
X4667801Y-7126555D01*
X4667801Y-7126555D02*
X4648753Y-7145603D01*
X4648753Y-7145603D02*
X4629706Y-7155127D01*
X4924944Y-7097984D02*
X4829706Y-7097984D01*
X4829706Y-7097984D02*
X4820182Y-7193222D01*
X4820182Y-7193222D02*
X4829706Y-7183698D01*
X4829706Y-7183698D02*
X4848753Y-7174174D01*
X4848753Y-7174174D02*
X4896372Y-7174174D01*
X4896372Y-7174174D02*
X4915420Y-7183698D01*
X4915420Y-7183698D02*
X4924944Y-7193222D01*
X4924944Y-7193222D02*
X4934468Y-7212269D01*
X4934468Y-7212269D02*
X4934468Y-7259888D01*
X4934468Y-7259888D02*
X4924944Y-7278936D01*
X4924944Y-7278936D02*
X4915420Y-7288460D01*
X4915420Y-7288460D02*
X4896372Y-7297984D01*
X4896372Y-7297984D02*
X4848753Y-7297984D01*
X4848753Y-7297984D02*
X4829706Y-7288460D01*
X4829706Y-7288460D02*
X4820182Y-7278936D01*
X5001134Y-7097984D02*
X5134468Y-7097984D01*
X5134468Y-7097984D02*
X5048753Y-7297984D01*
X5201134Y-7097984D02*
X5201134Y-7136079D01*
X5277325Y-7097984D02*
X5277325Y-7136079D01*
X5572563Y-7374174D02*
X5563039Y-7364650D01*
X5563039Y-7364650D02*
X5543991Y-7336079D01*
X5543991Y-7336079D02*
X5534468Y-7317031D01*
X5534468Y-7317031D02*
X5524944Y-7288460D01*
X5524944Y-7288460D02*
X5515420Y-7240841D01*
X5515420Y-7240841D02*
X5515420Y-7202746D01*
X5515420Y-7202746D02*
X5524944Y-7155127D01*
X5524944Y-7155127D02*
X5534468Y-7126555D01*
X5534468Y-7126555D02*
X5543991Y-7107508D01*
X5543991Y-7107508D02*
X5563039Y-7078936D01*
X5563039Y-7078936D02*
X5572563Y-7069412D01*
X5629706Y-7097984D02*
X5753515Y-7097984D01*
X5753515Y-7097984D02*
X5686848Y-7174174D01*
X5686848Y-7174174D02*
X5715420Y-7174174D01*
X5715420Y-7174174D02*
X5734468Y-7183698D01*
X5734468Y-7183698D02*
X5743991Y-7193222D01*
X5743991Y-7193222D02*
X5753515Y-7212269D01*
X5753515Y-7212269D02*
X5753515Y-7259888D01*
X5753515Y-7259888D02*
X5743991Y-7278936D01*
X5743991Y-7278936D02*
X5734468Y-7288460D01*
X5734468Y-7288460D02*
X5715420Y-7297984D01*
X5715420Y-7297984D02*
X5658277Y-7297984D01*
X5658277Y-7297984D02*
X5639229Y-7288460D01*
X5639229Y-7288460D02*
X5629706Y-7278936D01*
X5820182Y-7097984D02*
X5943991Y-7097984D01*
X5943991Y-7097984D02*
X5877325Y-7174174D01*
X5877325Y-7174174D02*
X5905896Y-7174174D01*
X5905896Y-7174174D02*
X5924944Y-7183698D01*
X5924944Y-7183698D02*
X5934468Y-7193222D01*
X5934468Y-7193222D02*
X5943991Y-7212269D01*
X5943991Y-7212269D02*
X5943991Y-7259888D01*
X5943991Y-7259888D02*
X5934468Y-7278936D01*
X5934468Y-7278936D02*
X5924944Y-7288460D01*
X5924944Y-7288460D02*
X5905896Y-7297984D01*
X5905896Y-7297984D02*
X5848753Y-7297984D01*
X5848753Y-7297984D02*
X5829706Y-7288460D01*
X5829706Y-7288460D02*
X5820182Y-7278936D01*
X6182087Y-7297984D02*
X6182087Y-7097984D01*
X6267801Y-7297984D02*
X6267801Y-7193222D01*
X6267801Y-7193222D02*
X6258277Y-7174174D01*
X6258277Y-7174174D02*
X6239230Y-7164650D01*
X6239230Y-7164650D02*
X6210658Y-7164650D01*
X6210658Y-7164650D02*
X6191610Y-7174174D01*
X6191610Y-7174174D02*
X6182087Y-7183698D01*
X6391610Y-7297984D02*
X6372563Y-7288460D01*
X6372563Y-7288460D02*
X6363039Y-7278936D01*
X6363039Y-7278936D02*
X6353515Y-7259888D01*
X6353515Y-7259888D02*
X6353515Y-7202746D01*
X6353515Y-7202746D02*
X6363039Y-7183698D01*
X6363039Y-7183698D02*
X6372563Y-7174174D01*
X6372563Y-7174174D02*
X6391610Y-7164650D01*
X6391610Y-7164650D02*
X6420182Y-7164650D01*
X6420182Y-7164650D02*
X6439230Y-7174174D01*
X6439230Y-7174174D02*
X6448753Y-7183698D01*
X6448753Y-7183698D02*
X6458277Y-7202746D01*
X6458277Y-7202746D02*
X6458277Y-7259888D01*
X6458277Y-7259888D02*
X6448753Y-7278936D01*
X6448753Y-7278936D02*
X6439230Y-7288460D01*
X6439230Y-7288460D02*
X6420182Y-7297984D01*
X6420182Y-7297984D02*
X6391610Y-7297984D01*
X6572563Y-7297984D02*
X6553515Y-7288460D01*
X6553515Y-7288460D02*
X6543991Y-7269412D01*
X6543991Y-7269412D02*
X6543991Y-7097984D01*
X6724944Y-7288460D02*
X6705896Y-7297984D01*
X6705896Y-7297984D02*
X6667801Y-7297984D01*
X6667801Y-7297984D02*
X6648753Y-7288460D01*
X6648753Y-7288460D02*
X6639230Y-7269412D01*
X6639230Y-7269412D02*
X6639230Y-7193222D01*
X6639230Y-7193222D02*
X6648753Y-7174174D01*
X6648753Y-7174174D02*
X6667801Y-7164650D01*
X6667801Y-7164650D02*
X6705896Y-7164650D01*
X6705896Y-7164650D02*
X6724944Y-7174174D01*
X6724944Y-7174174D02*
X6734468Y-7193222D01*
X6734468Y-7193222D02*
X6734468Y-7212269D01*
X6734468Y-7212269D02*
X6639230Y-7231317D01*
X6810658Y-7288460D02*
X6829706Y-7297984D01*
X6829706Y-7297984D02*
X6867801Y-7297984D01*
X6867801Y-7297984D02*
X6886849Y-7288460D01*
X6886849Y-7288460D02*
X6896372Y-7269412D01*
X6896372Y-7269412D02*
X6896372Y-7259888D01*
X6896372Y-7259888D02*
X6886849Y-7240841D01*
X6886849Y-7240841D02*
X6867801Y-7231317D01*
X6867801Y-7231317D02*
X6839230Y-7231317D01*
X6839230Y-7231317D02*
X6820182Y-7221793D01*
X6820182Y-7221793D02*
X6810658Y-7202746D01*
X6810658Y-7202746D02*
X6810658Y-7193222D01*
X6810658Y-7193222D02*
X6820182Y-7174174D01*
X6820182Y-7174174D02*
X6839230Y-7164650D01*
X6839230Y-7164650D02*
X6867801Y-7164650D01*
X6867801Y-7164650D02*
X6886849Y-7174174D01*
X6963039Y-7374174D02*
X6972563Y-7364650D01*
X6972563Y-7364650D02*
X6991611Y-7336079D01*
X6991611Y-7336079D02*
X7001134Y-7317031D01*
X7001134Y-7317031D02*
X7010658Y-7288460D01*
X7010658Y-7288460D02*
X7020182Y-7240841D01*
X7020182Y-7240841D02*
X7020182Y-7202746D01*
X7020182Y-7202746D02*
X7010658Y-7155127D01*
X7010658Y-7155127D02*
X7001134Y-7126555D01*
X7001134Y-7126555D02*
X6991611Y-7107508D01*
X6991611Y-7107508D02*
X6972563Y-7078936D01*
X6972563Y-7078936D02*
X6963039Y-7069412D01*
D14*
X1967500Y-7440500D02*
X1967500Y-7500500D01*
X1937500Y-7470500D02*
X1997500Y-7470500D01*
D11*
X2296372Y-7361984D02*
X2315420Y-7361984D01*
X2315420Y-7361984D02*
X2334467Y-7371508D01*
X2334467Y-7371508D02*
X2343991Y-7381031D01*
X2343991Y-7381031D02*
X2353515Y-7400079D01*
X2353515Y-7400079D02*
X2363039Y-7438174D01*
X2363039Y-7438174D02*
X2363039Y-7485793D01*
X2363039Y-7485793D02*
X2353515Y-7523888D01*
X2353515Y-7523888D02*
X2343991Y-7542936D01*
X2343991Y-7542936D02*
X2334467Y-7552460D01*
X2334467Y-7552460D02*
X2315420Y-7561984D01*
X2315420Y-7561984D02*
X2296372Y-7561984D01*
X2296372Y-7561984D02*
X2277324Y-7552460D01*
X2277324Y-7552460D02*
X2267801Y-7542936D01*
X2267801Y-7542936D02*
X2258277Y-7523888D01*
X2258277Y-7523888D02*
X2248753Y-7485793D01*
X2248753Y-7485793D02*
X2248753Y-7438174D01*
X2248753Y-7438174D02*
X2258277Y-7400079D01*
X2258277Y-7400079D02*
X2267801Y-7381031D01*
X2267801Y-7381031D02*
X2277324Y-7371508D01*
X2277324Y-7371508D02*
X2296372Y-7361984D01*
X2448753Y-7542936D02*
X2458277Y-7552460D01*
X2458277Y-7552460D02*
X2448753Y-7561984D01*
X2448753Y-7561984D02*
X2439229Y-7552460D01*
X2439229Y-7552460D02*
X2448753Y-7542936D01*
X2448753Y-7542936D02*
X2448753Y-7561984D01*
X2629705Y-7361984D02*
X2591610Y-7361984D01*
X2591610Y-7361984D02*
X2572563Y-7371508D01*
X2572563Y-7371508D02*
X2563039Y-7381031D01*
X2563039Y-7381031D02*
X2543991Y-7409603D01*
X2543991Y-7409603D02*
X2534467Y-7447698D01*
X2534467Y-7447698D02*
X2534467Y-7523888D01*
X2534467Y-7523888D02*
X2543991Y-7542936D01*
X2543991Y-7542936D02*
X2553515Y-7552460D01*
X2553515Y-7552460D02*
X2572563Y-7561984D01*
X2572563Y-7561984D02*
X2610658Y-7561984D01*
X2610658Y-7561984D02*
X2629705Y-7552460D01*
X2629705Y-7552460D02*
X2639229Y-7542936D01*
X2639229Y-7542936D02*
X2648753Y-7523888D01*
X2648753Y-7523888D02*
X2648753Y-7476269D01*
X2648753Y-7476269D02*
X2639229Y-7457222D01*
X2639229Y-7457222D02*
X2629705Y-7447698D01*
X2629705Y-7447698D02*
X2610658Y-7438174D01*
X2610658Y-7438174D02*
X2572563Y-7438174D01*
X2572563Y-7438174D02*
X2553515Y-7447698D01*
X2553515Y-7447698D02*
X2543991Y-7457222D01*
X2543991Y-7457222D02*
X2534467Y-7476269D01*
X2772563Y-7361984D02*
X2791610Y-7361984D01*
X2791610Y-7361984D02*
X2810658Y-7371508D01*
X2810658Y-7371508D02*
X2820182Y-7381031D01*
X2820182Y-7381031D02*
X2829705Y-7400079D01*
X2829705Y-7400079D02*
X2839229Y-7438174D01*
X2839229Y-7438174D02*
X2839229Y-7485793D01*
X2839229Y-7485793D02*
X2829705Y-7523888D01*
X2829705Y-7523888D02*
X2820182Y-7542936D01*
X2820182Y-7542936D02*
X2810658Y-7552460D01*
X2810658Y-7552460D02*
X2791610Y-7561984D01*
X2791610Y-7561984D02*
X2772563Y-7561984D01*
X2772563Y-7561984D02*
X2753515Y-7552460D01*
X2753515Y-7552460D02*
X2743991Y-7542936D01*
X2743991Y-7542936D02*
X2734467Y-7523888D01*
X2734467Y-7523888D02*
X2724944Y-7485793D01*
X2724944Y-7485793D02*
X2724944Y-7438174D01*
X2724944Y-7438174D02*
X2734467Y-7400079D01*
X2734467Y-7400079D02*
X2743991Y-7381031D01*
X2743991Y-7381031D02*
X2753515Y-7371508D01*
X2753515Y-7371508D02*
X2772563Y-7361984D01*
X2963039Y-7361984D02*
X2982086Y-7361984D01*
X2982086Y-7361984D02*
X3001134Y-7371508D01*
X3001134Y-7371508D02*
X3010658Y-7381031D01*
X3010658Y-7381031D02*
X3020182Y-7400079D01*
X3020182Y-7400079D02*
X3029705Y-7438174D01*
X3029705Y-7438174D02*
X3029705Y-7485793D01*
X3029705Y-7485793D02*
X3020182Y-7523888D01*
X3020182Y-7523888D02*
X3010658Y-7542936D01*
X3010658Y-7542936D02*
X3001134Y-7552460D01*
X3001134Y-7552460D02*
X2982086Y-7561984D01*
X2982086Y-7561984D02*
X2963039Y-7561984D01*
X2963039Y-7561984D02*
X2943991Y-7552460D01*
X2943991Y-7552460D02*
X2934467Y-7542936D01*
X2934467Y-7542936D02*
X2924943Y-7523888D01*
X2924943Y-7523888D02*
X2915420Y-7485793D01*
X2915420Y-7485793D02*
X2915420Y-7438174D01*
X2915420Y-7438174D02*
X2924943Y-7400079D01*
X2924943Y-7400079D02*
X2934467Y-7381031D01*
X2934467Y-7381031D02*
X2943991Y-7371508D01*
X2943991Y-7371508D02*
X2963039Y-7361984D01*
X3115420Y-7561984D02*
X3115420Y-7428650D01*
X3115420Y-7447698D02*
X3124943Y-7438174D01*
X3124943Y-7438174D02*
X3143991Y-7428650D01*
X3143991Y-7428650D02*
X3172563Y-7428650D01*
X3172563Y-7428650D02*
X3191610Y-7438174D01*
X3191610Y-7438174D02*
X3201134Y-7457222D01*
X3201134Y-7457222D02*
X3201134Y-7561984D01*
X3201134Y-7457222D02*
X3210658Y-7438174D01*
X3210658Y-7438174D02*
X3229705Y-7428650D01*
X3229705Y-7428650D02*
X3258277Y-7428650D01*
X3258277Y-7428650D02*
X3277324Y-7438174D01*
X3277324Y-7438174D02*
X3286848Y-7457222D01*
X3286848Y-7457222D02*
X3286848Y-7561984D01*
X3382086Y-7561984D02*
X3382086Y-7428650D01*
X3382086Y-7447698D02*
X3391610Y-7438174D01*
X3391610Y-7438174D02*
X3410658Y-7428650D01*
X3410658Y-7428650D02*
X3439229Y-7428650D01*
X3439229Y-7428650D02*
X3458277Y-7438174D01*
X3458277Y-7438174D02*
X3467801Y-7457222D01*
X3467801Y-7457222D02*
X3467801Y-7561984D01*
X3467801Y-7457222D02*
X3477324Y-7438174D01*
X3477324Y-7438174D02*
X3496372Y-7428650D01*
X3496372Y-7428650D02*
X3524943Y-7428650D01*
X3524943Y-7428650D02*
X3543991Y-7438174D01*
X3543991Y-7438174D02*
X3553515Y-7457222D01*
X3553515Y-7457222D02*
X3553515Y-7561984D01*
X3943991Y-7352460D02*
X3772563Y-7609603D01*
X4201134Y-7361984D02*
X4220182Y-7361984D01*
X4220182Y-7361984D02*
X4239229Y-7371508D01*
X4239229Y-7371508D02*
X4248753Y-7381031D01*
X4248753Y-7381031D02*
X4258277Y-7400079D01*
X4258277Y-7400079D02*
X4267801Y-7438174D01*
X4267801Y-7438174D02*
X4267801Y-7485793D01*
X4267801Y-7485793D02*
X4258277Y-7523888D01*
X4258277Y-7523888D02*
X4248753Y-7542936D01*
X4248753Y-7542936D02*
X4239229Y-7552460D01*
X4239229Y-7552460D02*
X4220182Y-7561984D01*
X4220182Y-7561984D02*
X4201134Y-7561984D01*
X4201134Y-7561984D02*
X4182086Y-7552460D01*
X4182086Y-7552460D02*
X4172563Y-7542936D01*
X4172563Y-7542936D02*
X4163039Y-7523888D01*
X4163039Y-7523888D02*
X4153515Y-7485793D01*
X4153515Y-7485793D02*
X4153515Y-7438174D01*
X4153515Y-7438174D02*
X4163039Y-7400079D01*
X4163039Y-7400079D02*
X4172563Y-7381031D01*
X4172563Y-7381031D02*
X4182086Y-7371508D01*
X4182086Y-7371508D02*
X4201134Y-7361984D01*
X4353515Y-7542936D02*
X4363039Y-7552460D01*
X4363039Y-7552460D02*
X4353515Y-7561984D01*
X4353515Y-7561984D02*
X4343991Y-7552460D01*
X4343991Y-7552460D02*
X4353515Y-7542936D01*
X4353515Y-7542936D02*
X4353515Y-7561984D01*
X4486848Y-7361984D02*
X4505896Y-7361984D01*
X4505896Y-7361984D02*
X4524944Y-7371508D01*
X4524944Y-7371508D02*
X4534468Y-7381031D01*
X4534468Y-7381031D02*
X4543991Y-7400079D01*
X4543991Y-7400079D02*
X4553515Y-7438174D01*
X4553515Y-7438174D02*
X4553515Y-7485793D01*
X4553515Y-7485793D02*
X4543991Y-7523888D01*
X4543991Y-7523888D02*
X4534468Y-7542936D01*
X4534468Y-7542936D02*
X4524944Y-7552460D01*
X4524944Y-7552460D02*
X4505896Y-7561984D01*
X4505896Y-7561984D02*
X4486848Y-7561984D01*
X4486848Y-7561984D02*
X4467801Y-7552460D01*
X4467801Y-7552460D02*
X4458277Y-7542936D01*
X4458277Y-7542936D02*
X4448753Y-7523888D01*
X4448753Y-7523888D02*
X4439229Y-7485793D01*
X4439229Y-7485793D02*
X4439229Y-7438174D01*
X4439229Y-7438174D02*
X4448753Y-7400079D01*
X4448753Y-7400079D02*
X4458277Y-7381031D01*
X4458277Y-7381031D02*
X4467801Y-7371508D01*
X4467801Y-7371508D02*
X4486848Y-7361984D01*
X4629706Y-7381031D02*
X4639229Y-7371508D01*
X4639229Y-7371508D02*
X4658277Y-7361984D01*
X4658277Y-7361984D02*
X4705896Y-7361984D01*
X4705896Y-7361984D02*
X4724944Y-7371508D01*
X4724944Y-7371508D02*
X4734468Y-7381031D01*
X4734468Y-7381031D02*
X4743991Y-7400079D01*
X4743991Y-7400079D02*
X4743991Y-7419127D01*
X4743991Y-7419127D02*
X4734468Y-7447698D01*
X4734468Y-7447698D02*
X4620182Y-7561984D01*
X4620182Y-7561984D02*
X4743991Y-7561984D01*
X4810658Y-7361984D02*
X4934468Y-7361984D01*
X4934468Y-7361984D02*
X4867801Y-7438174D01*
X4867801Y-7438174D02*
X4896372Y-7438174D01*
X4896372Y-7438174D02*
X4915420Y-7447698D01*
X4915420Y-7447698D02*
X4924944Y-7457222D01*
X4924944Y-7457222D02*
X4934468Y-7476269D01*
X4934468Y-7476269D02*
X4934468Y-7523888D01*
X4934468Y-7523888D02*
X4924944Y-7542936D01*
X4924944Y-7542936D02*
X4915420Y-7552460D01*
X4915420Y-7552460D02*
X4896372Y-7561984D01*
X4896372Y-7561984D02*
X4839229Y-7561984D01*
X4839229Y-7561984D02*
X4820182Y-7552460D01*
X4820182Y-7552460D02*
X4810658Y-7542936D01*
X5105896Y-7361984D02*
X5067801Y-7361984D01*
X5067801Y-7361984D02*
X5048753Y-7371508D01*
X5048753Y-7371508D02*
X5039229Y-7381031D01*
X5039229Y-7381031D02*
X5020182Y-7409603D01*
X5020182Y-7409603D02*
X5010658Y-7447698D01*
X5010658Y-7447698D02*
X5010658Y-7523888D01*
X5010658Y-7523888D02*
X5020182Y-7542936D01*
X5020182Y-7542936D02*
X5029706Y-7552460D01*
X5029706Y-7552460D02*
X5048753Y-7561984D01*
X5048753Y-7561984D02*
X5086849Y-7561984D01*
X5086849Y-7561984D02*
X5105896Y-7552460D01*
X5105896Y-7552460D02*
X5115420Y-7542936D01*
X5115420Y-7542936D02*
X5124944Y-7523888D01*
X5124944Y-7523888D02*
X5124944Y-7476269D01*
X5124944Y-7476269D02*
X5115420Y-7457222D01*
X5115420Y-7457222D02*
X5105896Y-7447698D01*
X5105896Y-7447698D02*
X5086849Y-7438174D01*
X5086849Y-7438174D02*
X5048753Y-7438174D01*
X5048753Y-7438174D02*
X5029706Y-7447698D01*
X5029706Y-7447698D02*
X5020182Y-7457222D01*
X5020182Y-7457222D02*
X5010658Y-7476269D01*
X5201134Y-7361984D02*
X5201134Y-7400079D01*
X5277325Y-7361984D02*
X5277325Y-7400079D01*
X5572563Y-7638174D02*
X5563039Y-7628650D01*
X5563039Y-7628650D02*
X5543991Y-7600079D01*
X5543991Y-7600079D02*
X5534468Y-7581031D01*
X5534468Y-7581031D02*
X5524944Y-7552460D01*
X5524944Y-7552460D02*
X5515420Y-7504841D01*
X5515420Y-7504841D02*
X5515420Y-7466746D01*
X5515420Y-7466746D02*
X5524944Y-7419127D01*
X5524944Y-7419127D02*
X5534468Y-7390555D01*
X5534468Y-7390555D02*
X5543991Y-7371508D01*
X5543991Y-7371508D02*
X5563039Y-7342936D01*
X5563039Y-7342936D02*
X5572563Y-7333412D01*
X5753515Y-7561984D02*
X5639229Y-7561984D01*
X5696372Y-7561984D02*
X5696372Y-7361984D01*
X5696372Y-7361984D02*
X5677325Y-7390555D01*
X5677325Y-7390555D02*
X5658277Y-7409603D01*
X5658277Y-7409603D02*
X5639229Y-7419127D01*
X5924944Y-7361984D02*
X5886848Y-7361984D01*
X5886848Y-7361984D02*
X5867801Y-7371508D01*
X5867801Y-7371508D02*
X5858277Y-7381031D01*
X5858277Y-7381031D02*
X5839229Y-7409603D01*
X5839229Y-7409603D02*
X5829706Y-7447698D01*
X5829706Y-7447698D02*
X5829706Y-7523888D01*
X5829706Y-7523888D02*
X5839229Y-7542936D01*
X5839229Y-7542936D02*
X5848753Y-7552460D01*
X5848753Y-7552460D02*
X5867801Y-7561984D01*
X5867801Y-7561984D02*
X5905896Y-7561984D01*
X5905896Y-7561984D02*
X5924944Y-7552460D01*
X5924944Y-7552460D02*
X5934468Y-7542936D01*
X5934468Y-7542936D02*
X5943991Y-7523888D01*
X5943991Y-7523888D02*
X5943991Y-7476269D01*
X5943991Y-7476269D02*
X5934468Y-7457222D01*
X5934468Y-7457222D02*
X5924944Y-7447698D01*
X5924944Y-7447698D02*
X5905896Y-7438174D01*
X5905896Y-7438174D02*
X5867801Y-7438174D01*
X5867801Y-7438174D02*
X5848753Y-7447698D01*
X5848753Y-7447698D02*
X5839229Y-7457222D01*
X5839229Y-7457222D02*
X5829706Y-7476269D01*
X6182087Y-7561984D02*
X6182087Y-7361984D01*
X6267801Y-7561984D02*
X6267801Y-7457222D01*
X6267801Y-7457222D02*
X6258277Y-7438174D01*
X6258277Y-7438174D02*
X6239230Y-7428650D01*
X6239230Y-7428650D02*
X6210658Y-7428650D01*
X6210658Y-7428650D02*
X6191610Y-7438174D01*
X6191610Y-7438174D02*
X6182087Y-7447698D01*
X6391610Y-7561984D02*
X6372563Y-7552460D01*
X6372563Y-7552460D02*
X6363039Y-7542936D01*
X6363039Y-7542936D02*
X6353515Y-7523888D01*
X6353515Y-7523888D02*
X6353515Y-7466746D01*
X6353515Y-7466746D02*
X6363039Y-7447698D01*
X6363039Y-7447698D02*
X6372563Y-7438174D01*
X6372563Y-7438174D02*
X6391610Y-7428650D01*
X6391610Y-7428650D02*
X6420182Y-7428650D01*
X6420182Y-7428650D02*
X6439230Y-7438174D01*
X6439230Y-7438174D02*
X6448753Y-7447698D01*
X6448753Y-7447698D02*
X6458277Y-7466746D01*
X6458277Y-7466746D02*
X6458277Y-7523888D01*
X6458277Y-7523888D02*
X6448753Y-7542936D01*
X6448753Y-7542936D02*
X6439230Y-7552460D01*
X6439230Y-7552460D02*
X6420182Y-7561984D01*
X6420182Y-7561984D02*
X6391610Y-7561984D01*
X6572563Y-7561984D02*
X6553515Y-7552460D01*
X6553515Y-7552460D02*
X6543991Y-7533412D01*
X6543991Y-7533412D02*
X6543991Y-7361984D01*
X6724944Y-7552460D02*
X6705896Y-7561984D01*
X6705896Y-7561984D02*
X6667801Y-7561984D01*
X6667801Y-7561984D02*
X6648753Y-7552460D01*
X6648753Y-7552460D02*
X6639230Y-7533412D01*
X6639230Y-7533412D02*
X6639230Y-7457222D01*
X6639230Y-7457222D02*
X6648753Y-7438174D01*
X6648753Y-7438174D02*
X6667801Y-7428650D01*
X6667801Y-7428650D02*
X6705896Y-7428650D01*
X6705896Y-7428650D02*
X6724944Y-7438174D01*
X6724944Y-7438174D02*
X6734468Y-7457222D01*
X6734468Y-7457222D02*
X6734468Y-7476269D01*
X6734468Y-7476269D02*
X6639230Y-7495317D01*
X6810658Y-7552460D02*
X6829706Y-7561984D01*
X6829706Y-7561984D02*
X6867801Y-7561984D01*
X6867801Y-7561984D02*
X6886849Y-7552460D01*
X6886849Y-7552460D02*
X6896372Y-7533412D01*
X6896372Y-7533412D02*
X6896372Y-7523888D01*
X6896372Y-7523888D02*
X6886849Y-7504841D01*
X6886849Y-7504841D02*
X6867801Y-7495317D01*
X6867801Y-7495317D02*
X6839230Y-7495317D01*
X6839230Y-7495317D02*
X6820182Y-7485793D01*
X6820182Y-7485793D02*
X6810658Y-7466746D01*
X6810658Y-7466746D02*
X6810658Y-7457222D01*
X6810658Y-7457222D02*
X6820182Y-7438174D01*
X6820182Y-7438174D02*
X6839230Y-7428650D01*
X6839230Y-7428650D02*
X6867801Y-7428650D01*
X6867801Y-7428650D02*
X6886849Y-7438174D01*
X6963039Y-7638174D02*
X6972563Y-7628650D01*
X6972563Y-7628650D02*
X6991611Y-7600079D01*
X6991611Y-7600079D02*
X7001134Y-7581031D01*
X7001134Y-7581031D02*
X7010658Y-7552460D01*
X7010658Y-7552460D02*
X7020182Y-7504841D01*
X7020182Y-7504841D02*
X7020182Y-7466746D01*
X7020182Y-7466746D02*
X7010658Y-7419127D01*
X7010658Y-7419127D02*
X7001134Y-7390555D01*
X7001134Y-7390555D02*
X6991611Y-7371508D01*
X6991611Y-7371508D02*
X6972563Y-7342936D01*
X6972563Y-7342936D02*
X6963039Y-7333412D01*
D14*
X1988713Y-7755713D02*
X1988713Y-7713287D01*
X1946287Y-7713287D01*
X1946287Y-7755713D01*
X1988713Y-7755713D01*
D11*
X2296372Y-7625984D02*
X2315420Y-7625984D01*
X2315420Y-7625984D02*
X2334467Y-7635508D01*
X2334467Y-7635508D02*
X2343991Y-7645031D01*
X2343991Y-7645031D02*
X2353515Y-7664079D01*
X2353515Y-7664079D02*
X2363039Y-7702174D01*
X2363039Y-7702174D02*
X2363039Y-7749793D01*
X2363039Y-7749793D02*
X2353515Y-7787888D01*
X2353515Y-7787888D02*
X2343991Y-7806936D01*
X2343991Y-7806936D02*
X2334467Y-7816460D01*
X2334467Y-7816460D02*
X2315420Y-7825984D01*
X2315420Y-7825984D02*
X2296372Y-7825984D01*
X2296372Y-7825984D02*
X2277324Y-7816460D01*
X2277324Y-7816460D02*
X2267801Y-7806936D01*
X2267801Y-7806936D02*
X2258277Y-7787888D01*
X2258277Y-7787888D02*
X2248753Y-7749793D01*
X2248753Y-7749793D02*
X2248753Y-7702174D01*
X2248753Y-7702174D02*
X2258277Y-7664079D01*
X2258277Y-7664079D02*
X2267801Y-7645031D01*
X2267801Y-7645031D02*
X2277324Y-7635508D01*
X2277324Y-7635508D02*
X2296372Y-7625984D01*
X2448753Y-7806936D02*
X2458277Y-7816460D01*
X2458277Y-7816460D02*
X2448753Y-7825984D01*
X2448753Y-7825984D02*
X2439229Y-7816460D01*
X2439229Y-7816460D02*
X2448753Y-7806936D01*
X2448753Y-7806936D02*
X2448753Y-7825984D01*
X2629705Y-7625984D02*
X2591610Y-7625984D01*
X2591610Y-7625984D02*
X2572563Y-7635508D01*
X2572563Y-7635508D02*
X2563039Y-7645031D01*
X2563039Y-7645031D02*
X2543991Y-7673603D01*
X2543991Y-7673603D02*
X2534467Y-7711698D01*
X2534467Y-7711698D02*
X2534467Y-7787888D01*
X2534467Y-7787888D02*
X2543991Y-7806936D01*
X2543991Y-7806936D02*
X2553515Y-7816460D01*
X2553515Y-7816460D02*
X2572563Y-7825984D01*
X2572563Y-7825984D02*
X2610658Y-7825984D01*
X2610658Y-7825984D02*
X2629705Y-7816460D01*
X2629705Y-7816460D02*
X2639229Y-7806936D01*
X2639229Y-7806936D02*
X2648753Y-7787888D01*
X2648753Y-7787888D02*
X2648753Y-7740269D01*
X2648753Y-7740269D02*
X2639229Y-7721222D01*
X2639229Y-7721222D02*
X2629705Y-7711698D01*
X2629705Y-7711698D02*
X2610658Y-7702174D01*
X2610658Y-7702174D02*
X2572563Y-7702174D01*
X2572563Y-7702174D02*
X2553515Y-7711698D01*
X2553515Y-7711698D02*
X2543991Y-7721222D01*
X2543991Y-7721222D02*
X2534467Y-7740269D01*
X2772563Y-7625984D02*
X2791610Y-7625984D01*
X2791610Y-7625984D02*
X2810658Y-7635508D01*
X2810658Y-7635508D02*
X2820182Y-7645031D01*
X2820182Y-7645031D02*
X2829705Y-7664079D01*
X2829705Y-7664079D02*
X2839229Y-7702174D01*
X2839229Y-7702174D02*
X2839229Y-7749793D01*
X2839229Y-7749793D02*
X2829705Y-7787888D01*
X2829705Y-7787888D02*
X2820182Y-7806936D01*
X2820182Y-7806936D02*
X2810658Y-7816460D01*
X2810658Y-7816460D02*
X2791610Y-7825984D01*
X2791610Y-7825984D02*
X2772563Y-7825984D01*
X2772563Y-7825984D02*
X2753515Y-7816460D01*
X2753515Y-7816460D02*
X2743991Y-7806936D01*
X2743991Y-7806936D02*
X2734467Y-7787888D01*
X2734467Y-7787888D02*
X2724944Y-7749793D01*
X2724944Y-7749793D02*
X2724944Y-7702174D01*
X2724944Y-7702174D02*
X2734467Y-7664079D01*
X2734467Y-7664079D02*
X2743991Y-7645031D01*
X2743991Y-7645031D02*
X2753515Y-7635508D01*
X2753515Y-7635508D02*
X2772563Y-7625984D01*
X2963039Y-7625984D02*
X2982086Y-7625984D01*
X2982086Y-7625984D02*
X3001134Y-7635508D01*
X3001134Y-7635508D02*
X3010658Y-7645031D01*
X3010658Y-7645031D02*
X3020182Y-7664079D01*
X3020182Y-7664079D02*
X3029705Y-7702174D01*
X3029705Y-7702174D02*
X3029705Y-7749793D01*
X3029705Y-7749793D02*
X3020182Y-7787888D01*
X3020182Y-7787888D02*
X3010658Y-7806936D01*
X3010658Y-7806936D02*
X3001134Y-7816460D01*
X3001134Y-7816460D02*
X2982086Y-7825984D01*
X2982086Y-7825984D02*
X2963039Y-7825984D01*
X2963039Y-7825984D02*
X2943991Y-7816460D01*
X2943991Y-7816460D02*
X2934467Y-7806936D01*
X2934467Y-7806936D02*
X2924943Y-7787888D01*
X2924943Y-7787888D02*
X2915420Y-7749793D01*
X2915420Y-7749793D02*
X2915420Y-7702174D01*
X2915420Y-7702174D02*
X2924943Y-7664079D01*
X2924943Y-7664079D02*
X2934467Y-7645031D01*
X2934467Y-7645031D02*
X2943991Y-7635508D01*
X2943991Y-7635508D02*
X2963039Y-7625984D01*
X3115420Y-7825984D02*
X3115420Y-7692650D01*
X3115420Y-7711698D02*
X3124943Y-7702174D01*
X3124943Y-7702174D02*
X3143991Y-7692650D01*
X3143991Y-7692650D02*
X3172563Y-7692650D01*
X3172563Y-7692650D02*
X3191610Y-7702174D01*
X3191610Y-7702174D02*
X3201134Y-7721222D01*
X3201134Y-7721222D02*
X3201134Y-7825984D01*
X3201134Y-7721222D02*
X3210658Y-7702174D01*
X3210658Y-7702174D02*
X3229705Y-7692650D01*
X3229705Y-7692650D02*
X3258277Y-7692650D01*
X3258277Y-7692650D02*
X3277324Y-7702174D01*
X3277324Y-7702174D02*
X3286848Y-7721222D01*
X3286848Y-7721222D02*
X3286848Y-7825984D01*
X3382086Y-7825984D02*
X3382086Y-7692650D01*
X3382086Y-7711698D02*
X3391610Y-7702174D01*
X3391610Y-7702174D02*
X3410658Y-7692650D01*
X3410658Y-7692650D02*
X3439229Y-7692650D01*
X3439229Y-7692650D02*
X3458277Y-7702174D01*
X3458277Y-7702174D02*
X3467801Y-7721222D01*
X3467801Y-7721222D02*
X3467801Y-7825984D01*
X3467801Y-7721222D02*
X3477324Y-7702174D01*
X3477324Y-7702174D02*
X3496372Y-7692650D01*
X3496372Y-7692650D02*
X3524943Y-7692650D01*
X3524943Y-7692650D02*
X3543991Y-7702174D01*
X3543991Y-7702174D02*
X3553515Y-7721222D01*
X3553515Y-7721222D02*
X3553515Y-7825984D01*
X3943991Y-7616460D02*
X3772563Y-7873603D01*
X4201134Y-7625984D02*
X4220182Y-7625984D01*
X4220182Y-7625984D02*
X4239229Y-7635508D01*
X4239229Y-7635508D02*
X4248753Y-7645031D01*
X4248753Y-7645031D02*
X4258277Y-7664079D01*
X4258277Y-7664079D02*
X4267801Y-7702174D01*
X4267801Y-7702174D02*
X4267801Y-7749793D01*
X4267801Y-7749793D02*
X4258277Y-7787888D01*
X4258277Y-7787888D02*
X4248753Y-7806936D01*
X4248753Y-7806936D02*
X4239229Y-7816460D01*
X4239229Y-7816460D02*
X4220182Y-7825984D01*
X4220182Y-7825984D02*
X4201134Y-7825984D01*
X4201134Y-7825984D02*
X4182086Y-7816460D01*
X4182086Y-7816460D02*
X4172563Y-7806936D01*
X4172563Y-7806936D02*
X4163039Y-7787888D01*
X4163039Y-7787888D02*
X4153515Y-7749793D01*
X4153515Y-7749793D02*
X4153515Y-7702174D01*
X4153515Y-7702174D02*
X4163039Y-7664079D01*
X4163039Y-7664079D02*
X4172563Y-7645031D01*
X4172563Y-7645031D02*
X4182086Y-7635508D01*
X4182086Y-7635508D02*
X4201134Y-7625984D01*
X4353515Y-7806936D02*
X4363039Y-7816460D01*
X4363039Y-7816460D02*
X4353515Y-7825984D01*
X4353515Y-7825984D02*
X4343991Y-7816460D01*
X4343991Y-7816460D02*
X4353515Y-7806936D01*
X4353515Y-7806936D02*
X4353515Y-7825984D01*
X4486848Y-7625984D02*
X4505896Y-7625984D01*
X4505896Y-7625984D02*
X4524944Y-7635508D01*
X4524944Y-7635508D02*
X4534468Y-7645031D01*
X4534468Y-7645031D02*
X4543991Y-7664079D01*
X4543991Y-7664079D02*
X4553515Y-7702174D01*
X4553515Y-7702174D02*
X4553515Y-7749793D01*
X4553515Y-7749793D02*
X4543991Y-7787888D01*
X4543991Y-7787888D02*
X4534468Y-7806936D01*
X4534468Y-7806936D02*
X4524944Y-7816460D01*
X4524944Y-7816460D02*
X4505896Y-7825984D01*
X4505896Y-7825984D02*
X4486848Y-7825984D01*
X4486848Y-7825984D02*
X4467801Y-7816460D01*
X4467801Y-7816460D02*
X4458277Y-7806936D01*
X4458277Y-7806936D02*
X4448753Y-7787888D01*
X4448753Y-7787888D02*
X4439229Y-7749793D01*
X4439229Y-7749793D02*
X4439229Y-7702174D01*
X4439229Y-7702174D02*
X4448753Y-7664079D01*
X4448753Y-7664079D02*
X4458277Y-7645031D01*
X4458277Y-7645031D02*
X4467801Y-7635508D01*
X4467801Y-7635508D02*
X4486848Y-7625984D01*
X4629706Y-7645031D02*
X4639229Y-7635508D01*
X4639229Y-7635508D02*
X4658277Y-7625984D01*
X4658277Y-7625984D02*
X4705896Y-7625984D01*
X4705896Y-7625984D02*
X4724944Y-7635508D01*
X4724944Y-7635508D02*
X4734468Y-7645031D01*
X4734468Y-7645031D02*
X4743991Y-7664079D01*
X4743991Y-7664079D02*
X4743991Y-7683127D01*
X4743991Y-7683127D02*
X4734468Y-7711698D01*
X4734468Y-7711698D02*
X4620182Y-7825984D01*
X4620182Y-7825984D02*
X4743991Y-7825984D01*
X4810658Y-7625984D02*
X4934468Y-7625984D01*
X4934468Y-7625984D02*
X4867801Y-7702174D01*
X4867801Y-7702174D02*
X4896372Y-7702174D01*
X4896372Y-7702174D02*
X4915420Y-7711698D01*
X4915420Y-7711698D02*
X4924944Y-7721222D01*
X4924944Y-7721222D02*
X4934468Y-7740269D01*
X4934468Y-7740269D02*
X4934468Y-7787888D01*
X4934468Y-7787888D02*
X4924944Y-7806936D01*
X4924944Y-7806936D02*
X4915420Y-7816460D01*
X4915420Y-7816460D02*
X4896372Y-7825984D01*
X4896372Y-7825984D02*
X4839229Y-7825984D01*
X4839229Y-7825984D02*
X4820182Y-7816460D01*
X4820182Y-7816460D02*
X4810658Y-7806936D01*
X5105896Y-7625984D02*
X5067801Y-7625984D01*
X5067801Y-7625984D02*
X5048753Y-7635508D01*
X5048753Y-7635508D02*
X5039229Y-7645031D01*
X5039229Y-7645031D02*
X5020182Y-7673603D01*
X5020182Y-7673603D02*
X5010658Y-7711698D01*
X5010658Y-7711698D02*
X5010658Y-7787888D01*
X5010658Y-7787888D02*
X5020182Y-7806936D01*
X5020182Y-7806936D02*
X5029706Y-7816460D01*
X5029706Y-7816460D02*
X5048753Y-7825984D01*
X5048753Y-7825984D02*
X5086849Y-7825984D01*
X5086849Y-7825984D02*
X5105896Y-7816460D01*
X5105896Y-7816460D02*
X5115420Y-7806936D01*
X5115420Y-7806936D02*
X5124944Y-7787888D01*
X5124944Y-7787888D02*
X5124944Y-7740269D01*
X5124944Y-7740269D02*
X5115420Y-7721222D01*
X5115420Y-7721222D02*
X5105896Y-7711698D01*
X5105896Y-7711698D02*
X5086849Y-7702174D01*
X5086849Y-7702174D02*
X5048753Y-7702174D01*
X5048753Y-7702174D02*
X5029706Y-7711698D01*
X5029706Y-7711698D02*
X5020182Y-7721222D01*
X5020182Y-7721222D02*
X5010658Y-7740269D01*
X5201134Y-7625984D02*
X5201134Y-7664079D01*
X5277325Y-7625984D02*
X5277325Y-7664079D01*
X5572563Y-7902174D02*
X5563039Y-7892650D01*
X5563039Y-7892650D02*
X5543991Y-7864079D01*
X5543991Y-7864079D02*
X5534468Y-7845031D01*
X5534468Y-7845031D02*
X5524944Y-7816460D01*
X5524944Y-7816460D02*
X5515420Y-7768841D01*
X5515420Y-7768841D02*
X5515420Y-7730746D01*
X5515420Y-7730746D02*
X5524944Y-7683127D01*
X5524944Y-7683127D02*
X5534468Y-7654555D01*
X5534468Y-7654555D02*
X5543991Y-7635508D01*
X5543991Y-7635508D02*
X5563039Y-7606936D01*
X5563039Y-7606936D02*
X5572563Y-7597412D01*
X5686848Y-7625984D02*
X5705896Y-7625984D01*
X5705896Y-7625984D02*
X5724944Y-7635508D01*
X5724944Y-7635508D02*
X5734468Y-7645031D01*
X5734468Y-7645031D02*
X5743991Y-7664079D01*
X5743991Y-7664079D02*
X5753515Y-7702174D01*
X5753515Y-7702174D02*
X5753515Y-7749793D01*
X5753515Y-7749793D02*
X5743991Y-7787888D01*
X5743991Y-7787888D02*
X5734468Y-7806936D01*
X5734468Y-7806936D02*
X5724944Y-7816460D01*
X5724944Y-7816460D02*
X5705896Y-7825984D01*
X5705896Y-7825984D02*
X5686848Y-7825984D01*
X5686848Y-7825984D02*
X5667801Y-7816460D01*
X5667801Y-7816460D02*
X5658277Y-7806936D01*
X5658277Y-7806936D02*
X5648753Y-7787888D01*
X5648753Y-7787888D02*
X5639229Y-7749793D01*
X5639229Y-7749793D02*
X5639229Y-7702174D01*
X5639229Y-7702174D02*
X5648753Y-7664079D01*
X5648753Y-7664079D02*
X5658277Y-7645031D01*
X5658277Y-7645031D02*
X5667801Y-7635508D01*
X5667801Y-7635508D02*
X5686848Y-7625984D01*
X5991610Y-7825984D02*
X5991610Y-7625984D01*
X6077325Y-7825984D02*
X6077325Y-7721222D01*
X6077325Y-7721222D02*
X6067801Y-7702174D01*
X6067801Y-7702174D02*
X6048753Y-7692650D01*
X6048753Y-7692650D02*
X6020182Y-7692650D01*
X6020182Y-7692650D02*
X6001134Y-7702174D01*
X6001134Y-7702174D02*
X5991610Y-7711698D01*
X6201134Y-7825984D02*
X6182087Y-7816460D01*
X6182087Y-7816460D02*
X6172563Y-7806936D01*
X6172563Y-7806936D02*
X6163039Y-7787888D01*
X6163039Y-7787888D02*
X6163039Y-7730746D01*
X6163039Y-7730746D02*
X6172563Y-7711698D01*
X6172563Y-7711698D02*
X6182087Y-7702174D01*
X6182087Y-7702174D02*
X6201134Y-7692650D01*
X6201134Y-7692650D02*
X6229706Y-7692650D01*
X6229706Y-7692650D02*
X6248753Y-7702174D01*
X6248753Y-7702174D02*
X6258277Y-7711698D01*
X6258277Y-7711698D02*
X6267801Y-7730746D01*
X6267801Y-7730746D02*
X6267801Y-7787888D01*
X6267801Y-7787888D02*
X6258277Y-7806936D01*
X6258277Y-7806936D02*
X6248753Y-7816460D01*
X6248753Y-7816460D02*
X6229706Y-7825984D01*
X6229706Y-7825984D02*
X6201134Y-7825984D01*
X6382087Y-7825984D02*
X6363039Y-7816460D01*
X6363039Y-7816460D02*
X6353515Y-7797412D01*
X6353515Y-7797412D02*
X6353515Y-7625984D01*
X6534468Y-7816460D02*
X6515420Y-7825984D01*
X6515420Y-7825984D02*
X6477325Y-7825984D01*
X6477325Y-7825984D02*
X6458277Y-7816460D01*
X6458277Y-7816460D02*
X6448753Y-7797412D01*
X6448753Y-7797412D02*
X6448753Y-7721222D01*
X6448753Y-7721222D02*
X6458277Y-7702174D01*
X6458277Y-7702174D02*
X6477325Y-7692650D01*
X6477325Y-7692650D02*
X6515420Y-7692650D01*
X6515420Y-7692650D02*
X6534468Y-7702174D01*
X6534468Y-7702174D02*
X6543991Y-7721222D01*
X6543991Y-7721222D02*
X6543991Y-7740269D01*
X6543991Y-7740269D02*
X6448753Y-7759317D01*
X6620182Y-7816460D02*
X6639230Y-7825984D01*
X6639230Y-7825984D02*
X6677325Y-7825984D01*
X6677325Y-7825984D02*
X6696372Y-7816460D01*
X6696372Y-7816460D02*
X6705896Y-7797412D01*
X6705896Y-7797412D02*
X6705896Y-7787888D01*
X6705896Y-7787888D02*
X6696372Y-7768841D01*
X6696372Y-7768841D02*
X6677325Y-7759317D01*
X6677325Y-7759317D02*
X6648753Y-7759317D01*
X6648753Y-7759317D02*
X6629706Y-7749793D01*
X6629706Y-7749793D02*
X6620182Y-7730746D01*
X6620182Y-7730746D02*
X6620182Y-7721222D01*
X6620182Y-7721222D02*
X6629706Y-7702174D01*
X6629706Y-7702174D02*
X6648753Y-7692650D01*
X6648753Y-7692650D02*
X6677325Y-7692650D01*
X6677325Y-7692650D02*
X6696372Y-7702174D01*
X6943992Y-7749793D02*
X7096373Y-7749793D01*
X7020182Y-7825984D02*
X7020182Y-7673603D01*
X7334468Y-7645031D02*
X7343992Y-7635508D01*
X7343992Y-7635508D02*
X7363039Y-7625984D01*
X7363039Y-7625984D02*
X7410658Y-7625984D01*
X7410658Y-7625984D02*
X7429706Y-7635508D01*
X7429706Y-7635508D02*
X7439230Y-7645031D01*
X7439230Y-7645031D02*
X7448753Y-7664079D01*
X7448753Y-7664079D02*
X7448753Y-7683127D01*
X7448753Y-7683127D02*
X7439230Y-7711698D01*
X7439230Y-7711698D02*
X7324944Y-7825984D01*
X7324944Y-7825984D02*
X7448753Y-7825984D01*
X7677325Y-7816460D02*
X7696373Y-7825984D01*
X7696373Y-7825984D02*
X7734468Y-7825984D01*
X7734468Y-7825984D02*
X7753515Y-7816460D01*
X7753515Y-7816460D02*
X7763039Y-7797412D01*
X7763039Y-7797412D02*
X7763039Y-7787888D01*
X7763039Y-7787888D02*
X7753515Y-7768841D01*
X7753515Y-7768841D02*
X7734468Y-7759317D01*
X7734468Y-7759317D02*
X7705896Y-7759317D01*
X7705896Y-7759317D02*
X7686849Y-7749793D01*
X7686849Y-7749793D02*
X7677325Y-7730746D01*
X7677325Y-7730746D02*
X7677325Y-7721222D01*
X7677325Y-7721222D02*
X7686849Y-7702174D01*
X7686849Y-7702174D02*
X7705896Y-7692650D01*
X7705896Y-7692650D02*
X7734468Y-7692650D01*
X7734468Y-7692650D02*
X7753515Y-7702174D01*
X7877325Y-7825984D02*
X7858277Y-7816460D01*
X7858277Y-7816460D02*
X7848754Y-7797412D01*
X7848754Y-7797412D02*
X7848754Y-7625984D01*
X7982087Y-7825984D02*
X7963039Y-7816460D01*
X7963039Y-7816460D02*
X7953515Y-7806936D01*
X7953515Y-7806936D02*
X7943992Y-7787888D01*
X7943992Y-7787888D02*
X7943992Y-7730746D01*
X7943992Y-7730746D02*
X7953515Y-7711698D01*
X7953515Y-7711698D02*
X7963039Y-7702174D01*
X7963039Y-7702174D02*
X7982087Y-7692650D01*
X7982087Y-7692650D02*
X8010658Y-7692650D01*
X8010658Y-7692650D02*
X8029706Y-7702174D01*
X8029706Y-7702174D02*
X8039230Y-7711698D01*
X8039230Y-7711698D02*
X8048754Y-7730746D01*
X8048754Y-7730746D02*
X8048754Y-7787888D01*
X8048754Y-7787888D02*
X8039230Y-7806936D01*
X8039230Y-7806936D02*
X8029706Y-7816460D01*
X8029706Y-7816460D02*
X8010658Y-7825984D01*
X8010658Y-7825984D02*
X7982087Y-7825984D01*
X8105896Y-7692650D02*
X8182087Y-7692650D01*
X8134468Y-7625984D02*
X8134468Y-7797412D01*
X8134468Y-7797412D02*
X8143992Y-7816460D01*
X8143992Y-7816460D02*
X8163039Y-7825984D01*
X8163039Y-7825984D02*
X8182087Y-7825984D01*
X8239230Y-7816460D02*
X8258277Y-7825984D01*
X8258277Y-7825984D02*
X8296373Y-7825984D01*
X8296373Y-7825984D02*
X8315420Y-7816460D01*
X8315420Y-7816460D02*
X8324944Y-7797412D01*
X8324944Y-7797412D02*
X8324944Y-7787888D01*
X8324944Y-7787888D02*
X8315420Y-7768841D01*
X8315420Y-7768841D02*
X8296373Y-7759317D01*
X8296373Y-7759317D02*
X8267801Y-7759317D01*
X8267801Y-7759317D02*
X8248754Y-7749793D01*
X8248754Y-7749793D02*
X8239230Y-7730746D01*
X8239230Y-7730746D02*
X8239230Y-7721222D01*
X8239230Y-7721222D02*
X8248754Y-7702174D01*
X8248754Y-7702174D02*
X8267801Y-7692650D01*
X8267801Y-7692650D02*
X8296373Y-7692650D01*
X8296373Y-7692650D02*
X8315420Y-7702174D01*
X8391611Y-7902174D02*
X8401135Y-7892650D01*
X8401135Y-7892650D02*
X8420182Y-7864079D01*
X8420182Y-7864079D02*
X8429706Y-7845031D01*
X8429706Y-7845031D02*
X8439230Y-7816460D01*
X8439230Y-7816460D02*
X8448754Y-7768841D01*
X8448754Y-7768841D02*
X8448754Y-7730746D01*
X8448754Y-7730746D02*
X8439230Y-7683127D01*
X8439230Y-7683127D02*
X8429706Y-7654555D01*
X8429706Y-7654555D02*
X8420182Y-7635508D01*
X8420182Y-7635508D02*
X8401135Y-7606936D01*
X8401135Y-7606936D02*
X8391611Y-7597412D01*
D15*
X1959400Y-8036600D02*
X1997500Y-7998500D01*
X1959400Y-7960400D01*
X1921300Y-7998500D01*
X1959400Y-8036600D01*
D11*
X2296372Y-7889984D02*
X2315420Y-7889984D01*
X2315420Y-7889984D02*
X2334467Y-7899508D01*
X2334467Y-7899508D02*
X2343991Y-7909031D01*
X2343991Y-7909031D02*
X2353515Y-7928079D01*
X2353515Y-7928079D02*
X2363039Y-7966174D01*
X2363039Y-7966174D02*
X2363039Y-8013793D01*
X2363039Y-8013793D02*
X2353515Y-8051888D01*
X2353515Y-8051888D02*
X2343991Y-8070936D01*
X2343991Y-8070936D02*
X2334467Y-8080460D01*
X2334467Y-8080460D02*
X2315420Y-8089984D01*
X2315420Y-8089984D02*
X2296372Y-8089984D01*
X2296372Y-8089984D02*
X2277324Y-8080460D01*
X2277324Y-8080460D02*
X2267801Y-8070936D01*
X2267801Y-8070936D02*
X2258277Y-8051888D01*
X2258277Y-8051888D02*
X2248753Y-8013793D01*
X2248753Y-8013793D02*
X2248753Y-7966174D01*
X2248753Y-7966174D02*
X2258277Y-7928079D01*
X2258277Y-7928079D02*
X2267801Y-7909031D01*
X2267801Y-7909031D02*
X2277324Y-7899508D01*
X2277324Y-7899508D02*
X2296372Y-7889984D01*
X2448753Y-8070936D02*
X2458277Y-8080460D01*
X2458277Y-8080460D02*
X2448753Y-8089984D01*
X2448753Y-8089984D02*
X2439229Y-8080460D01*
X2439229Y-8080460D02*
X2448753Y-8070936D01*
X2448753Y-8070936D02*
X2448753Y-8089984D01*
X2524944Y-7889984D02*
X2658277Y-7889984D01*
X2658277Y-7889984D02*
X2572563Y-8089984D01*
X2820182Y-7889984D02*
X2782086Y-7889984D01*
X2782086Y-7889984D02*
X2763039Y-7899508D01*
X2763039Y-7899508D02*
X2753515Y-7909031D01*
X2753515Y-7909031D02*
X2734467Y-7937603D01*
X2734467Y-7937603D02*
X2724944Y-7975698D01*
X2724944Y-7975698D02*
X2724944Y-8051888D01*
X2724944Y-8051888D02*
X2734467Y-8070936D01*
X2734467Y-8070936D02*
X2743991Y-8080460D01*
X2743991Y-8080460D02*
X2763039Y-8089984D01*
X2763039Y-8089984D02*
X2801134Y-8089984D01*
X2801134Y-8089984D02*
X2820182Y-8080460D01*
X2820182Y-8080460D02*
X2829705Y-8070936D01*
X2829705Y-8070936D02*
X2839229Y-8051888D01*
X2839229Y-8051888D02*
X2839229Y-8004269D01*
X2839229Y-8004269D02*
X2829705Y-7985222D01*
X2829705Y-7985222D02*
X2820182Y-7975698D01*
X2820182Y-7975698D02*
X2801134Y-7966174D01*
X2801134Y-7966174D02*
X2763039Y-7966174D01*
X2763039Y-7966174D02*
X2743991Y-7975698D01*
X2743991Y-7975698D02*
X2734467Y-7985222D01*
X2734467Y-7985222D02*
X2724944Y-8004269D01*
X2915420Y-7909031D02*
X2924943Y-7899508D01*
X2924943Y-7899508D02*
X2943991Y-7889984D01*
X2943991Y-7889984D02*
X2991610Y-7889984D01*
X2991610Y-7889984D02*
X3010658Y-7899508D01*
X3010658Y-7899508D02*
X3020182Y-7909031D01*
X3020182Y-7909031D02*
X3029705Y-7928079D01*
X3029705Y-7928079D02*
X3029705Y-7947127D01*
X3029705Y-7947127D02*
X3020182Y-7975698D01*
X3020182Y-7975698D02*
X2905896Y-8089984D01*
X2905896Y-8089984D02*
X3029705Y-8089984D01*
X3115420Y-8089984D02*
X3115420Y-7956650D01*
X3115420Y-7975698D02*
X3124943Y-7966174D01*
X3124943Y-7966174D02*
X3143991Y-7956650D01*
X3143991Y-7956650D02*
X3172563Y-7956650D01*
X3172563Y-7956650D02*
X3191610Y-7966174D01*
X3191610Y-7966174D02*
X3201134Y-7985222D01*
X3201134Y-7985222D02*
X3201134Y-8089984D01*
X3201134Y-7985222D02*
X3210658Y-7966174D01*
X3210658Y-7966174D02*
X3229705Y-7956650D01*
X3229705Y-7956650D02*
X3258277Y-7956650D01*
X3258277Y-7956650D02*
X3277324Y-7966174D01*
X3277324Y-7966174D02*
X3286848Y-7985222D01*
X3286848Y-7985222D02*
X3286848Y-8089984D01*
X3382086Y-8089984D02*
X3382086Y-7956650D01*
X3382086Y-7975698D02*
X3391610Y-7966174D01*
X3391610Y-7966174D02*
X3410658Y-7956650D01*
X3410658Y-7956650D02*
X3439229Y-7956650D01*
X3439229Y-7956650D02*
X3458277Y-7966174D01*
X3458277Y-7966174D02*
X3467801Y-7985222D01*
X3467801Y-7985222D02*
X3467801Y-8089984D01*
X3467801Y-7985222D02*
X3477324Y-7966174D01*
X3477324Y-7966174D02*
X3496372Y-7956650D01*
X3496372Y-7956650D02*
X3524943Y-7956650D01*
X3524943Y-7956650D02*
X3543991Y-7966174D01*
X3543991Y-7966174D02*
X3553515Y-7985222D01*
X3553515Y-7985222D02*
X3553515Y-8089984D01*
X3943991Y-7880460D02*
X3772563Y-8137603D01*
X4201134Y-7889984D02*
X4220182Y-7889984D01*
X4220182Y-7889984D02*
X4239229Y-7899508D01*
X4239229Y-7899508D02*
X4248753Y-7909031D01*
X4248753Y-7909031D02*
X4258277Y-7928079D01*
X4258277Y-7928079D02*
X4267801Y-7966174D01*
X4267801Y-7966174D02*
X4267801Y-8013793D01*
X4267801Y-8013793D02*
X4258277Y-8051888D01*
X4258277Y-8051888D02*
X4248753Y-8070936D01*
X4248753Y-8070936D02*
X4239229Y-8080460D01*
X4239229Y-8080460D02*
X4220182Y-8089984D01*
X4220182Y-8089984D02*
X4201134Y-8089984D01*
X4201134Y-8089984D02*
X4182086Y-8080460D01*
X4182086Y-8080460D02*
X4172563Y-8070936D01*
X4172563Y-8070936D02*
X4163039Y-8051888D01*
X4163039Y-8051888D02*
X4153515Y-8013793D01*
X4153515Y-8013793D02*
X4153515Y-7966174D01*
X4153515Y-7966174D02*
X4163039Y-7928079D01*
X4163039Y-7928079D02*
X4172563Y-7909031D01*
X4172563Y-7909031D02*
X4182086Y-7899508D01*
X4182086Y-7899508D02*
X4201134Y-7889984D01*
X4353515Y-8070936D02*
X4363039Y-8080460D01*
X4363039Y-8080460D02*
X4353515Y-8089984D01*
X4353515Y-8089984D02*
X4343991Y-8080460D01*
X4343991Y-8080460D02*
X4353515Y-8070936D01*
X4353515Y-8070936D02*
X4353515Y-8089984D01*
X4486848Y-7889984D02*
X4505896Y-7889984D01*
X4505896Y-7889984D02*
X4524944Y-7899508D01*
X4524944Y-7899508D02*
X4534468Y-7909031D01*
X4534468Y-7909031D02*
X4543991Y-7928079D01*
X4543991Y-7928079D02*
X4553515Y-7966174D01*
X4553515Y-7966174D02*
X4553515Y-8013793D01*
X4553515Y-8013793D02*
X4543991Y-8051888D01*
X4543991Y-8051888D02*
X4534468Y-8070936D01*
X4534468Y-8070936D02*
X4524944Y-8080460D01*
X4524944Y-8080460D02*
X4505896Y-8089984D01*
X4505896Y-8089984D02*
X4486848Y-8089984D01*
X4486848Y-8089984D02*
X4467801Y-8080460D01*
X4467801Y-8080460D02*
X4458277Y-8070936D01*
X4458277Y-8070936D02*
X4448753Y-8051888D01*
X4448753Y-8051888D02*
X4439229Y-8013793D01*
X4439229Y-8013793D02*
X4439229Y-7966174D01*
X4439229Y-7966174D02*
X4448753Y-7928079D01*
X4448753Y-7928079D02*
X4458277Y-7909031D01*
X4458277Y-7909031D02*
X4467801Y-7899508D01*
X4467801Y-7899508D02*
X4486848Y-7889984D01*
X4620182Y-7889984D02*
X4743991Y-7889984D01*
X4743991Y-7889984D02*
X4677325Y-7966174D01*
X4677325Y-7966174D02*
X4705896Y-7966174D01*
X4705896Y-7966174D02*
X4724944Y-7975698D01*
X4724944Y-7975698D02*
X4734468Y-7985222D01*
X4734468Y-7985222D02*
X4743991Y-8004269D01*
X4743991Y-8004269D02*
X4743991Y-8051888D01*
X4743991Y-8051888D02*
X4734468Y-8070936D01*
X4734468Y-8070936D02*
X4724944Y-8080460D01*
X4724944Y-8080460D02*
X4705896Y-8089984D01*
X4705896Y-8089984D02*
X4648753Y-8089984D01*
X4648753Y-8089984D02*
X4629706Y-8080460D01*
X4629706Y-8080460D02*
X4620182Y-8070936D01*
X4867801Y-7889984D02*
X4886849Y-7889984D01*
X4886849Y-7889984D02*
X4905896Y-7899508D01*
X4905896Y-7899508D02*
X4915420Y-7909031D01*
X4915420Y-7909031D02*
X4924944Y-7928079D01*
X4924944Y-7928079D02*
X4934468Y-7966174D01*
X4934468Y-7966174D02*
X4934468Y-8013793D01*
X4934468Y-8013793D02*
X4924944Y-8051888D01*
X4924944Y-8051888D02*
X4915420Y-8070936D01*
X4915420Y-8070936D02*
X4905896Y-8080460D01*
X4905896Y-8080460D02*
X4886849Y-8089984D01*
X4886849Y-8089984D02*
X4867801Y-8089984D01*
X4867801Y-8089984D02*
X4848753Y-8080460D01*
X4848753Y-8080460D02*
X4839229Y-8070936D01*
X4839229Y-8070936D02*
X4829706Y-8051888D01*
X4829706Y-8051888D02*
X4820182Y-8013793D01*
X4820182Y-8013793D02*
X4820182Y-7966174D01*
X4820182Y-7966174D02*
X4829706Y-7928079D01*
X4829706Y-7928079D02*
X4839229Y-7909031D01*
X4839229Y-7909031D02*
X4848753Y-7899508D01*
X4848753Y-7899508D02*
X4867801Y-7889984D01*
X5058277Y-7889984D02*
X5077325Y-7889984D01*
X5077325Y-7889984D02*
X5096372Y-7899508D01*
X5096372Y-7899508D02*
X5105896Y-7909031D01*
X5105896Y-7909031D02*
X5115420Y-7928079D01*
X5115420Y-7928079D02*
X5124944Y-7966174D01*
X5124944Y-7966174D02*
X5124944Y-8013793D01*
X5124944Y-8013793D02*
X5115420Y-8051888D01*
X5115420Y-8051888D02*
X5105896Y-8070936D01*
X5105896Y-8070936D02*
X5096372Y-8080460D01*
X5096372Y-8080460D02*
X5077325Y-8089984D01*
X5077325Y-8089984D02*
X5058277Y-8089984D01*
X5058277Y-8089984D02*
X5039229Y-8080460D01*
X5039229Y-8080460D02*
X5029706Y-8070936D01*
X5029706Y-8070936D02*
X5020182Y-8051888D01*
X5020182Y-8051888D02*
X5010658Y-8013793D01*
X5010658Y-8013793D02*
X5010658Y-7966174D01*
X5010658Y-7966174D02*
X5020182Y-7928079D01*
X5020182Y-7928079D02*
X5029706Y-7909031D01*
X5029706Y-7909031D02*
X5039229Y-7899508D01*
X5039229Y-7899508D02*
X5058277Y-7889984D01*
X5201134Y-7889984D02*
X5201134Y-7928079D01*
X5277325Y-7889984D02*
X5277325Y-7928079D01*
X5572563Y-8166174D02*
X5563039Y-8156650D01*
X5563039Y-8156650D02*
X5543991Y-8128079D01*
X5543991Y-8128079D02*
X5534468Y-8109031D01*
X5534468Y-8109031D02*
X5524944Y-8080460D01*
X5524944Y-8080460D02*
X5515420Y-8032841D01*
X5515420Y-8032841D02*
X5515420Y-7994746D01*
X5515420Y-7994746D02*
X5524944Y-7947127D01*
X5524944Y-7947127D02*
X5534468Y-7918555D01*
X5534468Y-7918555D02*
X5543991Y-7899508D01*
X5543991Y-7899508D02*
X5563039Y-7870936D01*
X5563039Y-7870936D02*
X5572563Y-7861412D01*
X5639229Y-7909031D02*
X5648753Y-7899508D01*
X5648753Y-7899508D02*
X5667801Y-7889984D01*
X5667801Y-7889984D02*
X5715420Y-7889984D01*
X5715420Y-7889984D02*
X5734468Y-7899508D01*
X5734468Y-7899508D02*
X5743991Y-7909031D01*
X5743991Y-7909031D02*
X5753515Y-7928079D01*
X5753515Y-7928079D02*
X5753515Y-7947127D01*
X5753515Y-7947127D02*
X5743991Y-7975698D01*
X5743991Y-7975698D02*
X5629706Y-8089984D01*
X5629706Y-8089984D02*
X5753515Y-8089984D01*
X5991610Y-8089984D02*
X5991610Y-7889984D01*
X6077325Y-8089984D02*
X6077325Y-7985222D01*
X6077325Y-7985222D02*
X6067801Y-7966174D01*
X6067801Y-7966174D02*
X6048753Y-7956650D01*
X6048753Y-7956650D02*
X6020182Y-7956650D01*
X6020182Y-7956650D02*
X6001134Y-7966174D01*
X6001134Y-7966174D02*
X5991610Y-7975698D01*
X6201134Y-8089984D02*
X6182087Y-8080460D01*
X6182087Y-8080460D02*
X6172563Y-8070936D01*
X6172563Y-8070936D02*
X6163039Y-8051888D01*
X6163039Y-8051888D02*
X6163039Y-7994746D01*
X6163039Y-7994746D02*
X6172563Y-7975698D01*
X6172563Y-7975698D02*
X6182087Y-7966174D01*
X6182087Y-7966174D02*
X6201134Y-7956650D01*
X6201134Y-7956650D02*
X6229706Y-7956650D01*
X6229706Y-7956650D02*
X6248753Y-7966174D01*
X6248753Y-7966174D02*
X6258277Y-7975698D01*
X6258277Y-7975698D02*
X6267801Y-7994746D01*
X6267801Y-7994746D02*
X6267801Y-8051888D01*
X6267801Y-8051888D02*
X6258277Y-8070936D01*
X6258277Y-8070936D02*
X6248753Y-8080460D01*
X6248753Y-8080460D02*
X6229706Y-8089984D01*
X6229706Y-8089984D02*
X6201134Y-8089984D01*
X6382087Y-8089984D02*
X6363039Y-8080460D01*
X6363039Y-8080460D02*
X6353515Y-8061412D01*
X6353515Y-8061412D02*
X6353515Y-7889984D01*
X6534468Y-8080460D02*
X6515420Y-8089984D01*
X6515420Y-8089984D02*
X6477325Y-8089984D01*
X6477325Y-8089984D02*
X6458277Y-8080460D01*
X6458277Y-8080460D02*
X6448753Y-8061412D01*
X6448753Y-8061412D02*
X6448753Y-7985222D01*
X6448753Y-7985222D02*
X6458277Y-7966174D01*
X6458277Y-7966174D02*
X6477325Y-7956650D01*
X6477325Y-7956650D02*
X6515420Y-7956650D01*
X6515420Y-7956650D02*
X6534468Y-7966174D01*
X6534468Y-7966174D02*
X6543991Y-7985222D01*
X6543991Y-7985222D02*
X6543991Y-8004269D01*
X6543991Y-8004269D02*
X6448753Y-8023317D01*
X6620182Y-8080460D02*
X6639230Y-8089984D01*
X6639230Y-8089984D02*
X6677325Y-8089984D01*
X6677325Y-8089984D02*
X6696372Y-8080460D01*
X6696372Y-8080460D02*
X6705896Y-8061412D01*
X6705896Y-8061412D02*
X6705896Y-8051888D01*
X6705896Y-8051888D02*
X6696372Y-8032841D01*
X6696372Y-8032841D02*
X6677325Y-8023317D01*
X6677325Y-8023317D02*
X6648753Y-8023317D01*
X6648753Y-8023317D02*
X6629706Y-8013793D01*
X6629706Y-8013793D02*
X6620182Y-7994746D01*
X6620182Y-7994746D02*
X6620182Y-7985222D01*
X6620182Y-7985222D02*
X6629706Y-7966174D01*
X6629706Y-7966174D02*
X6648753Y-7956650D01*
X6648753Y-7956650D02*
X6677325Y-7956650D01*
X6677325Y-7956650D02*
X6696372Y-7966174D01*
X6772563Y-8166174D02*
X6782087Y-8156650D01*
X6782087Y-8156650D02*
X6801134Y-8128079D01*
X6801134Y-8128079D02*
X6810658Y-8109031D01*
X6810658Y-8109031D02*
X6820182Y-8080460D01*
X6820182Y-8080460D02*
X6829706Y-8032841D01*
X6829706Y-8032841D02*
X6829706Y-7994746D01*
X6829706Y-7994746D02*
X6820182Y-7947127D01*
X6820182Y-7947127D02*
X6810658Y-7918555D01*
X6810658Y-7918555D02*
X6801134Y-7899508D01*
X6801134Y-7899508D02*
X6782087Y-7870936D01*
X6782087Y-7870936D02*
X6772563Y-7861412D01*
D16*
X1912500Y-8220000D02*
X1997500Y-8305000D01*
X1997500Y-8220000D02*
X1912500Y-8305000D01*
X1997500Y-8262500D02*
G75*
G03*
X1997500Y-8262500I-42500J0D01*
G01*
D11*
X2296372Y-8153984D02*
X2315420Y-8153984D01*
X2315420Y-8153984D02*
X2334467Y-8163508D01*
X2334467Y-8163508D02*
X2343991Y-8173031D01*
X2343991Y-8173031D02*
X2353515Y-8192079D01*
X2353515Y-8192079D02*
X2363039Y-8230174D01*
X2363039Y-8230174D02*
X2363039Y-8277793D01*
X2363039Y-8277793D02*
X2353515Y-8315888D01*
X2353515Y-8315888D02*
X2343991Y-8334936D01*
X2343991Y-8334936D02*
X2334467Y-8344460D01*
X2334467Y-8344460D02*
X2315420Y-8353984D01*
X2315420Y-8353984D02*
X2296372Y-8353984D01*
X2296372Y-8353984D02*
X2277324Y-8344460D01*
X2277324Y-8344460D02*
X2267801Y-8334936D01*
X2267801Y-8334936D02*
X2258277Y-8315888D01*
X2258277Y-8315888D02*
X2248753Y-8277793D01*
X2248753Y-8277793D02*
X2248753Y-8230174D01*
X2248753Y-8230174D02*
X2258277Y-8192079D01*
X2258277Y-8192079D02*
X2267801Y-8173031D01*
X2267801Y-8173031D02*
X2277324Y-8163508D01*
X2277324Y-8163508D02*
X2296372Y-8153984D01*
X2448753Y-8334936D02*
X2458277Y-8344460D01*
X2458277Y-8344460D02*
X2448753Y-8353984D01*
X2448753Y-8353984D02*
X2439229Y-8344460D01*
X2439229Y-8344460D02*
X2448753Y-8334936D01*
X2448753Y-8334936D02*
X2448753Y-8353984D01*
X2572563Y-8239698D02*
X2553515Y-8230174D01*
X2553515Y-8230174D02*
X2543991Y-8220650D01*
X2543991Y-8220650D02*
X2534467Y-8201603D01*
X2534467Y-8201603D02*
X2534467Y-8192079D01*
X2534467Y-8192079D02*
X2543991Y-8173031D01*
X2543991Y-8173031D02*
X2553515Y-8163508D01*
X2553515Y-8163508D02*
X2572563Y-8153984D01*
X2572563Y-8153984D02*
X2610658Y-8153984D01*
X2610658Y-8153984D02*
X2629705Y-8163508D01*
X2629705Y-8163508D02*
X2639229Y-8173031D01*
X2639229Y-8173031D02*
X2648753Y-8192079D01*
X2648753Y-8192079D02*
X2648753Y-8201603D01*
X2648753Y-8201603D02*
X2639229Y-8220650D01*
X2639229Y-8220650D02*
X2629705Y-8230174D01*
X2629705Y-8230174D02*
X2610658Y-8239698D01*
X2610658Y-8239698D02*
X2572563Y-8239698D01*
X2572563Y-8239698D02*
X2553515Y-8249222D01*
X2553515Y-8249222D02*
X2543991Y-8258746D01*
X2543991Y-8258746D02*
X2534467Y-8277793D01*
X2534467Y-8277793D02*
X2534467Y-8315888D01*
X2534467Y-8315888D02*
X2543991Y-8334936D01*
X2543991Y-8334936D02*
X2553515Y-8344460D01*
X2553515Y-8344460D02*
X2572563Y-8353984D01*
X2572563Y-8353984D02*
X2610658Y-8353984D01*
X2610658Y-8353984D02*
X2629705Y-8344460D01*
X2629705Y-8344460D02*
X2639229Y-8334936D01*
X2639229Y-8334936D02*
X2648753Y-8315888D01*
X2648753Y-8315888D02*
X2648753Y-8277793D01*
X2648753Y-8277793D02*
X2639229Y-8258746D01*
X2639229Y-8258746D02*
X2629705Y-8249222D01*
X2629705Y-8249222D02*
X2610658Y-8239698D01*
X2829705Y-8153984D02*
X2734467Y-8153984D01*
X2734467Y-8153984D02*
X2724944Y-8249222D01*
X2724944Y-8249222D02*
X2734467Y-8239698D01*
X2734467Y-8239698D02*
X2753515Y-8230174D01*
X2753515Y-8230174D02*
X2801134Y-8230174D01*
X2801134Y-8230174D02*
X2820182Y-8239698D01*
X2820182Y-8239698D02*
X2829705Y-8249222D01*
X2829705Y-8249222D02*
X2839229Y-8268269D01*
X2839229Y-8268269D02*
X2839229Y-8315888D01*
X2839229Y-8315888D02*
X2829705Y-8334936D01*
X2829705Y-8334936D02*
X2820182Y-8344460D01*
X2820182Y-8344460D02*
X2801134Y-8353984D01*
X2801134Y-8353984D02*
X2753515Y-8353984D01*
X2753515Y-8353984D02*
X2734467Y-8344460D01*
X2734467Y-8344460D02*
X2724944Y-8334936D01*
X2963039Y-8153984D02*
X2982086Y-8153984D01*
X2982086Y-8153984D02*
X3001134Y-8163508D01*
X3001134Y-8163508D02*
X3010658Y-8173031D01*
X3010658Y-8173031D02*
X3020182Y-8192079D01*
X3020182Y-8192079D02*
X3029705Y-8230174D01*
X3029705Y-8230174D02*
X3029705Y-8277793D01*
X3029705Y-8277793D02*
X3020182Y-8315888D01*
X3020182Y-8315888D02*
X3010658Y-8334936D01*
X3010658Y-8334936D02*
X3001134Y-8344460D01*
X3001134Y-8344460D02*
X2982086Y-8353984D01*
X2982086Y-8353984D02*
X2963039Y-8353984D01*
X2963039Y-8353984D02*
X2943991Y-8344460D01*
X2943991Y-8344460D02*
X2934467Y-8334936D01*
X2934467Y-8334936D02*
X2924943Y-8315888D01*
X2924943Y-8315888D02*
X2915420Y-8277793D01*
X2915420Y-8277793D02*
X2915420Y-8230174D01*
X2915420Y-8230174D02*
X2924943Y-8192079D01*
X2924943Y-8192079D02*
X2934467Y-8173031D01*
X2934467Y-8173031D02*
X2943991Y-8163508D01*
X2943991Y-8163508D02*
X2963039Y-8153984D01*
X3115420Y-8353984D02*
X3115420Y-8220650D01*
X3115420Y-8239698D02*
X3124943Y-8230174D01*
X3124943Y-8230174D02*
X3143991Y-8220650D01*
X3143991Y-8220650D02*
X3172563Y-8220650D01*
X3172563Y-8220650D02*
X3191610Y-8230174D01*
X3191610Y-8230174D02*
X3201134Y-8249222D01*
X3201134Y-8249222D02*
X3201134Y-8353984D01*
X3201134Y-8249222D02*
X3210658Y-8230174D01*
X3210658Y-8230174D02*
X3229705Y-8220650D01*
X3229705Y-8220650D02*
X3258277Y-8220650D01*
X3258277Y-8220650D02*
X3277324Y-8230174D01*
X3277324Y-8230174D02*
X3286848Y-8249222D01*
X3286848Y-8249222D02*
X3286848Y-8353984D01*
X3382086Y-8353984D02*
X3382086Y-8220650D01*
X3382086Y-8239698D02*
X3391610Y-8230174D01*
X3391610Y-8230174D02*
X3410658Y-8220650D01*
X3410658Y-8220650D02*
X3439229Y-8220650D01*
X3439229Y-8220650D02*
X3458277Y-8230174D01*
X3458277Y-8230174D02*
X3467801Y-8249222D01*
X3467801Y-8249222D02*
X3467801Y-8353984D01*
X3467801Y-8249222D02*
X3477324Y-8230174D01*
X3477324Y-8230174D02*
X3496372Y-8220650D01*
X3496372Y-8220650D02*
X3524943Y-8220650D01*
X3524943Y-8220650D02*
X3543991Y-8230174D01*
X3543991Y-8230174D02*
X3553515Y-8249222D01*
X3553515Y-8249222D02*
X3553515Y-8353984D01*
X3943991Y-8144460D02*
X3772563Y-8401603D01*
X4201134Y-8153984D02*
X4220182Y-8153984D01*
X4220182Y-8153984D02*
X4239229Y-8163508D01*
X4239229Y-8163508D02*
X4248753Y-8173031D01*
X4248753Y-8173031D02*
X4258277Y-8192079D01*
X4258277Y-8192079D02*
X4267801Y-8230174D01*
X4267801Y-8230174D02*
X4267801Y-8277793D01*
X4267801Y-8277793D02*
X4258277Y-8315888D01*
X4258277Y-8315888D02*
X4248753Y-8334936D01*
X4248753Y-8334936D02*
X4239229Y-8344460D01*
X4239229Y-8344460D02*
X4220182Y-8353984D01*
X4220182Y-8353984D02*
X4201134Y-8353984D01*
X4201134Y-8353984D02*
X4182086Y-8344460D01*
X4182086Y-8344460D02*
X4172563Y-8334936D01*
X4172563Y-8334936D02*
X4163039Y-8315888D01*
X4163039Y-8315888D02*
X4153515Y-8277793D01*
X4153515Y-8277793D02*
X4153515Y-8230174D01*
X4153515Y-8230174D02*
X4163039Y-8192079D01*
X4163039Y-8192079D02*
X4172563Y-8173031D01*
X4172563Y-8173031D02*
X4182086Y-8163508D01*
X4182086Y-8163508D02*
X4201134Y-8153984D01*
X4353515Y-8334936D02*
X4363039Y-8344460D01*
X4363039Y-8344460D02*
X4353515Y-8353984D01*
X4353515Y-8353984D02*
X4343991Y-8344460D01*
X4343991Y-8344460D02*
X4353515Y-8334936D01*
X4353515Y-8334936D02*
X4353515Y-8353984D01*
X4486848Y-8153984D02*
X4505896Y-8153984D01*
X4505896Y-8153984D02*
X4524944Y-8163508D01*
X4524944Y-8163508D02*
X4534468Y-8173031D01*
X4534468Y-8173031D02*
X4543991Y-8192079D01*
X4543991Y-8192079D02*
X4553515Y-8230174D01*
X4553515Y-8230174D02*
X4553515Y-8277793D01*
X4553515Y-8277793D02*
X4543991Y-8315888D01*
X4543991Y-8315888D02*
X4534468Y-8334936D01*
X4534468Y-8334936D02*
X4524944Y-8344460D01*
X4524944Y-8344460D02*
X4505896Y-8353984D01*
X4505896Y-8353984D02*
X4486848Y-8353984D01*
X4486848Y-8353984D02*
X4467801Y-8344460D01*
X4467801Y-8344460D02*
X4458277Y-8334936D01*
X4458277Y-8334936D02*
X4448753Y-8315888D01*
X4448753Y-8315888D02*
X4439229Y-8277793D01*
X4439229Y-8277793D02*
X4439229Y-8230174D01*
X4439229Y-8230174D02*
X4448753Y-8192079D01*
X4448753Y-8192079D02*
X4458277Y-8173031D01*
X4458277Y-8173031D02*
X4467801Y-8163508D01*
X4467801Y-8163508D02*
X4486848Y-8153984D01*
X4620182Y-8153984D02*
X4743991Y-8153984D01*
X4743991Y-8153984D02*
X4677325Y-8230174D01*
X4677325Y-8230174D02*
X4705896Y-8230174D01*
X4705896Y-8230174D02*
X4724944Y-8239698D01*
X4724944Y-8239698D02*
X4734468Y-8249222D01*
X4734468Y-8249222D02*
X4743991Y-8268269D01*
X4743991Y-8268269D02*
X4743991Y-8315888D01*
X4743991Y-8315888D02*
X4734468Y-8334936D01*
X4734468Y-8334936D02*
X4724944Y-8344460D01*
X4724944Y-8344460D02*
X4705896Y-8353984D01*
X4705896Y-8353984D02*
X4648753Y-8353984D01*
X4648753Y-8353984D02*
X4629706Y-8344460D01*
X4629706Y-8344460D02*
X4620182Y-8334936D01*
X4810658Y-8153984D02*
X4934468Y-8153984D01*
X4934468Y-8153984D02*
X4867801Y-8230174D01*
X4867801Y-8230174D02*
X4896372Y-8230174D01*
X4896372Y-8230174D02*
X4915420Y-8239698D01*
X4915420Y-8239698D02*
X4924944Y-8249222D01*
X4924944Y-8249222D02*
X4934468Y-8268269D01*
X4934468Y-8268269D02*
X4934468Y-8315888D01*
X4934468Y-8315888D02*
X4924944Y-8334936D01*
X4924944Y-8334936D02*
X4915420Y-8344460D01*
X4915420Y-8344460D02*
X4896372Y-8353984D01*
X4896372Y-8353984D02*
X4839229Y-8353984D01*
X4839229Y-8353984D02*
X4820182Y-8344460D01*
X4820182Y-8344460D02*
X4810658Y-8334936D01*
X5115420Y-8153984D02*
X5020182Y-8153984D01*
X5020182Y-8153984D02*
X5010658Y-8249222D01*
X5010658Y-8249222D02*
X5020182Y-8239698D01*
X5020182Y-8239698D02*
X5039229Y-8230174D01*
X5039229Y-8230174D02*
X5086849Y-8230174D01*
X5086849Y-8230174D02*
X5105896Y-8239698D01*
X5105896Y-8239698D02*
X5115420Y-8249222D01*
X5115420Y-8249222D02*
X5124944Y-8268269D01*
X5124944Y-8268269D02*
X5124944Y-8315888D01*
X5124944Y-8315888D02*
X5115420Y-8334936D01*
X5115420Y-8334936D02*
X5105896Y-8344460D01*
X5105896Y-8344460D02*
X5086849Y-8353984D01*
X5086849Y-8353984D02*
X5039229Y-8353984D01*
X5039229Y-8353984D02*
X5020182Y-8344460D01*
X5020182Y-8344460D02*
X5010658Y-8334936D01*
X5201134Y-8153984D02*
X5201134Y-8192079D01*
X5277325Y-8153984D02*
X5277325Y-8192079D01*
X5572563Y-8430174D02*
X5563039Y-8420650D01*
X5563039Y-8420650D02*
X5543991Y-8392079D01*
X5543991Y-8392079D02*
X5534468Y-8373031D01*
X5534468Y-8373031D02*
X5524944Y-8344460D01*
X5524944Y-8344460D02*
X5515420Y-8296841D01*
X5515420Y-8296841D02*
X5515420Y-8258746D01*
X5515420Y-8258746D02*
X5524944Y-8211127D01*
X5524944Y-8211127D02*
X5534468Y-8182555D01*
X5534468Y-8182555D02*
X5543991Y-8163508D01*
X5543991Y-8163508D02*
X5563039Y-8134936D01*
X5563039Y-8134936D02*
X5572563Y-8125412D01*
X5639229Y-8173031D02*
X5648753Y-8163508D01*
X5648753Y-8163508D02*
X5667801Y-8153984D01*
X5667801Y-8153984D02*
X5715420Y-8153984D01*
X5715420Y-8153984D02*
X5734468Y-8163508D01*
X5734468Y-8163508D02*
X5743991Y-8173031D01*
X5743991Y-8173031D02*
X5753515Y-8192079D01*
X5753515Y-8192079D02*
X5753515Y-8211127D01*
X5753515Y-8211127D02*
X5743991Y-8239698D01*
X5743991Y-8239698D02*
X5629706Y-8353984D01*
X5629706Y-8353984D02*
X5753515Y-8353984D01*
X5991610Y-8353984D02*
X5991610Y-8153984D01*
X6077325Y-8353984D02*
X6077325Y-8249222D01*
X6077325Y-8249222D02*
X6067801Y-8230174D01*
X6067801Y-8230174D02*
X6048753Y-8220650D01*
X6048753Y-8220650D02*
X6020182Y-8220650D01*
X6020182Y-8220650D02*
X6001134Y-8230174D01*
X6001134Y-8230174D02*
X5991610Y-8239698D01*
X6201134Y-8353984D02*
X6182087Y-8344460D01*
X6182087Y-8344460D02*
X6172563Y-8334936D01*
X6172563Y-8334936D02*
X6163039Y-8315888D01*
X6163039Y-8315888D02*
X6163039Y-8258746D01*
X6163039Y-8258746D02*
X6172563Y-8239698D01*
X6172563Y-8239698D02*
X6182087Y-8230174D01*
X6182087Y-8230174D02*
X6201134Y-8220650D01*
X6201134Y-8220650D02*
X6229706Y-8220650D01*
X6229706Y-8220650D02*
X6248753Y-8230174D01*
X6248753Y-8230174D02*
X6258277Y-8239698D01*
X6258277Y-8239698D02*
X6267801Y-8258746D01*
X6267801Y-8258746D02*
X6267801Y-8315888D01*
X6267801Y-8315888D02*
X6258277Y-8334936D01*
X6258277Y-8334936D02*
X6248753Y-8344460D01*
X6248753Y-8344460D02*
X6229706Y-8353984D01*
X6229706Y-8353984D02*
X6201134Y-8353984D01*
X6382087Y-8353984D02*
X6363039Y-8344460D01*
X6363039Y-8344460D02*
X6353515Y-8325412D01*
X6353515Y-8325412D02*
X6353515Y-8153984D01*
X6534468Y-8344460D02*
X6515420Y-8353984D01*
X6515420Y-8353984D02*
X6477325Y-8353984D01*
X6477325Y-8353984D02*
X6458277Y-8344460D01*
X6458277Y-8344460D02*
X6448753Y-8325412D01*
X6448753Y-8325412D02*
X6448753Y-8249222D01*
X6448753Y-8249222D02*
X6458277Y-8230174D01*
X6458277Y-8230174D02*
X6477325Y-8220650D01*
X6477325Y-8220650D02*
X6515420Y-8220650D01*
X6515420Y-8220650D02*
X6534468Y-8230174D01*
X6534468Y-8230174D02*
X6543991Y-8249222D01*
X6543991Y-8249222D02*
X6543991Y-8268269D01*
X6543991Y-8268269D02*
X6448753Y-8287317D01*
X6620182Y-8344460D02*
X6639230Y-8353984D01*
X6639230Y-8353984D02*
X6677325Y-8353984D01*
X6677325Y-8353984D02*
X6696372Y-8344460D01*
X6696372Y-8344460D02*
X6705896Y-8325412D01*
X6705896Y-8325412D02*
X6705896Y-8315888D01*
X6705896Y-8315888D02*
X6696372Y-8296841D01*
X6696372Y-8296841D02*
X6677325Y-8287317D01*
X6677325Y-8287317D02*
X6648753Y-8287317D01*
X6648753Y-8287317D02*
X6629706Y-8277793D01*
X6629706Y-8277793D02*
X6620182Y-8258746D01*
X6620182Y-8258746D02*
X6620182Y-8249222D01*
X6620182Y-8249222D02*
X6629706Y-8230174D01*
X6629706Y-8230174D02*
X6648753Y-8220650D01*
X6648753Y-8220650D02*
X6677325Y-8220650D01*
X6677325Y-8220650D02*
X6696372Y-8230174D01*
X6772563Y-8430174D02*
X6782087Y-8420650D01*
X6782087Y-8420650D02*
X6801134Y-8392079D01*
X6801134Y-8392079D02*
X6810658Y-8373031D01*
X6810658Y-8373031D02*
X6820182Y-8344460D01*
X6820182Y-8344460D02*
X6829706Y-8296841D01*
X6829706Y-8296841D02*
X6829706Y-8258746D01*
X6829706Y-8258746D02*
X6820182Y-8211127D01*
X6820182Y-8211127D02*
X6810658Y-8182555D01*
X6810658Y-8182555D02*
X6801134Y-8163508D01*
X6801134Y-8163508D02*
X6782087Y-8134936D01*
X6782087Y-8134936D02*
X6772563Y-8125412D01*
D17*
X1897500Y-8476500D02*
X1997500Y-8576500D01*
X1997500Y-8476500D02*
X1897500Y-8576500D01*
X1947500Y-8476500D02*
X1947500Y-8576500D01*
X1897500Y-8526500D02*
X1997500Y-8526500D01*
D11*
X2363039Y-8617984D02*
X2248753Y-8617984D01*
X2305896Y-8617984D02*
X2305896Y-8417984D01*
X2305896Y-8417984D02*
X2286848Y-8446555D01*
X2286848Y-8446555D02*
X2267801Y-8465603D01*
X2267801Y-8465603D02*
X2248753Y-8475127D01*
X2448753Y-8598936D02*
X2458277Y-8608460D01*
X2458277Y-8608460D02*
X2448753Y-8617984D01*
X2448753Y-8617984D02*
X2439229Y-8608460D01*
X2439229Y-8608460D02*
X2448753Y-8598936D01*
X2448753Y-8598936D02*
X2448753Y-8617984D01*
X2582086Y-8417984D02*
X2601134Y-8417984D01*
X2601134Y-8417984D02*
X2620182Y-8427508D01*
X2620182Y-8427508D02*
X2629705Y-8437031D01*
X2629705Y-8437031D02*
X2639229Y-8456079D01*
X2639229Y-8456079D02*
X2648753Y-8494174D01*
X2648753Y-8494174D02*
X2648753Y-8541793D01*
X2648753Y-8541793D02*
X2639229Y-8579889D01*
X2639229Y-8579889D02*
X2629705Y-8598936D01*
X2629705Y-8598936D02*
X2620182Y-8608460D01*
X2620182Y-8608460D02*
X2601134Y-8617984D01*
X2601134Y-8617984D02*
X2582086Y-8617984D01*
X2582086Y-8617984D02*
X2563039Y-8608460D01*
X2563039Y-8608460D02*
X2553515Y-8598936D01*
X2553515Y-8598936D02*
X2543991Y-8579889D01*
X2543991Y-8579889D02*
X2534467Y-8541793D01*
X2534467Y-8541793D02*
X2534467Y-8494174D01*
X2534467Y-8494174D02*
X2543991Y-8456079D01*
X2543991Y-8456079D02*
X2553515Y-8437031D01*
X2553515Y-8437031D02*
X2563039Y-8427508D01*
X2563039Y-8427508D02*
X2582086Y-8417984D01*
X2772563Y-8417984D02*
X2791610Y-8417984D01*
X2791610Y-8417984D02*
X2810658Y-8427508D01*
X2810658Y-8427508D02*
X2820182Y-8437031D01*
X2820182Y-8437031D02*
X2829705Y-8456079D01*
X2829705Y-8456079D02*
X2839229Y-8494174D01*
X2839229Y-8494174D02*
X2839229Y-8541793D01*
X2839229Y-8541793D02*
X2829705Y-8579889D01*
X2829705Y-8579889D02*
X2820182Y-8598936D01*
X2820182Y-8598936D02*
X2810658Y-8608460D01*
X2810658Y-8608460D02*
X2791610Y-8617984D01*
X2791610Y-8617984D02*
X2772563Y-8617984D01*
X2772563Y-8617984D02*
X2753515Y-8608460D01*
X2753515Y-8608460D02*
X2743991Y-8598936D01*
X2743991Y-8598936D02*
X2734467Y-8579889D01*
X2734467Y-8579889D02*
X2724944Y-8541793D01*
X2724944Y-8541793D02*
X2724944Y-8494174D01*
X2724944Y-8494174D02*
X2734467Y-8456079D01*
X2734467Y-8456079D02*
X2743991Y-8437031D01*
X2743991Y-8437031D02*
X2753515Y-8427508D01*
X2753515Y-8427508D02*
X2772563Y-8417984D01*
X2963039Y-8417984D02*
X2982086Y-8417984D01*
X2982086Y-8417984D02*
X3001134Y-8427508D01*
X3001134Y-8427508D02*
X3010658Y-8437031D01*
X3010658Y-8437031D02*
X3020182Y-8456079D01*
X3020182Y-8456079D02*
X3029705Y-8494174D01*
X3029705Y-8494174D02*
X3029705Y-8541793D01*
X3029705Y-8541793D02*
X3020182Y-8579889D01*
X3020182Y-8579889D02*
X3010658Y-8598936D01*
X3010658Y-8598936D02*
X3001134Y-8608460D01*
X3001134Y-8608460D02*
X2982086Y-8617984D01*
X2982086Y-8617984D02*
X2963039Y-8617984D01*
X2963039Y-8617984D02*
X2943991Y-8608460D01*
X2943991Y-8608460D02*
X2934467Y-8598936D01*
X2934467Y-8598936D02*
X2924943Y-8579889D01*
X2924943Y-8579889D02*
X2915420Y-8541793D01*
X2915420Y-8541793D02*
X2915420Y-8494174D01*
X2915420Y-8494174D02*
X2924943Y-8456079D01*
X2924943Y-8456079D02*
X2934467Y-8437031D01*
X2934467Y-8437031D02*
X2943991Y-8427508D01*
X2943991Y-8427508D02*
X2963039Y-8417984D01*
X3115420Y-8617984D02*
X3115420Y-8484650D01*
X3115420Y-8503698D02*
X3124943Y-8494174D01*
X3124943Y-8494174D02*
X3143991Y-8484650D01*
X3143991Y-8484650D02*
X3172563Y-8484650D01*
X3172563Y-8484650D02*
X3191610Y-8494174D01*
X3191610Y-8494174D02*
X3201134Y-8513222D01*
X3201134Y-8513222D02*
X3201134Y-8617984D01*
X3201134Y-8513222D02*
X3210658Y-8494174D01*
X3210658Y-8494174D02*
X3229705Y-8484650D01*
X3229705Y-8484650D02*
X3258277Y-8484650D01*
X3258277Y-8484650D02*
X3277324Y-8494174D01*
X3277324Y-8494174D02*
X3286848Y-8513222D01*
X3286848Y-8513222D02*
X3286848Y-8617984D01*
X3382086Y-8617984D02*
X3382086Y-8484650D01*
X3382086Y-8503698D02*
X3391610Y-8494174D01*
X3391610Y-8494174D02*
X3410658Y-8484650D01*
X3410658Y-8484650D02*
X3439229Y-8484650D01*
X3439229Y-8484650D02*
X3458277Y-8494174D01*
X3458277Y-8494174D02*
X3467801Y-8513222D01*
X3467801Y-8513222D02*
X3467801Y-8617984D01*
X3467801Y-8513222D02*
X3477324Y-8494174D01*
X3477324Y-8494174D02*
X3496372Y-8484650D01*
X3496372Y-8484650D02*
X3524943Y-8484650D01*
X3524943Y-8484650D02*
X3543991Y-8494174D01*
X3543991Y-8494174D02*
X3553515Y-8513222D01*
X3553515Y-8513222D02*
X3553515Y-8617984D01*
X3943991Y-8408460D02*
X3772563Y-8665603D01*
X4201134Y-8417984D02*
X4220182Y-8417984D01*
X4220182Y-8417984D02*
X4239229Y-8427508D01*
X4239229Y-8427508D02*
X4248753Y-8437031D01*
X4248753Y-8437031D02*
X4258277Y-8456079D01*
X4258277Y-8456079D02*
X4267801Y-8494174D01*
X4267801Y-8494174D02*
X4267801Y-8541793D01*
X4267801Y-8541793D02*
X4258277Y-8579889D01*
X4258277Y-8579889D02*
X4248753Y-8598936D01*
X4248753Y-8598936D02*
X4239229Y-8608460D01*
X4239229Y-8608460D02*
X4220182Y-8617984D01*
X4220182Y-8617984D02*
X4201134Y-8617984D01*
X4201134Y-8617984D02*
X4182086Y-8608460D01*
X4182086Y-8608460D02*
X4172563Y-8598936D01*
X4172563Y-8598936D02*
X4163039Y-8579889D01*
X4163039Y-8579889D02*
X4153515Y-8541793D01*
X4153515Y-8541793D02*
X4153515Y-8494174D01*
X4153515Y-8494174D02*
X4163039Y-8456079D01*
X4163039Y-8456079D02*
X4172563Y-8437031D01*
X4172563Y-8437031D02*
X4182086Y-8427508D01*
X4182086Y-8427508D02*
X4201134Y-8417984D01*
X4353515Y-8598936D02*
X4363039Y-8608460D01*
X4363039Y-8608460D02*
X4353515Y-8617984D01*
X4353515Y-8617984D02*
X4343991Y-8608460D01*
X4343991Y-8608460D02*
X4353515Y-8598936D01*
X4353515Y-8598936D02*
X4353515Y-8617984D01*
X4486848Y-8417984D02*
X4505896Y-8417984D01*
X4505896Y-8417984D02*
X4524944Y-8427508D01*
X4524944Y-8427508D02*
X4534468Y-8437031D01*
X4534468Y-8437031D02*
X4543991Y-8456079D01*
X4543991Y-8456079D02*
X4553515Y-8494174D01*
X4553515Y-8494174D02*
X4553515Y-8541793D01*
X4553515Y-8541793D02*
X4543991Y-8579889D01*
X4543991Y-8579889D02*
X4534468Y-8598936D01*
X4534468Y-8598936D02*
X4524944Y-8608460D01*
X4524944Y-8608460D02*
X4505896Y-8617984D01*
X4505896Y-8617984D02*
X4486848Y-8617984D01*
X4486848Y-8617984D02*
X4467801Y-8608460D01*
X4467801Y-8608460D02*
X4458277Y-8598936D01*
X4458277Y-8598936D02*
X4448753Y-8579889D01*
X4448753Y-8579889D02*
X4439229Y-8541793D01*
X4439229Y-8541793D02*
X4439229Y-8494174D01*
X4439229Y-8494174D02*
X4448753Y-8456079D01*
X4448753Y-8456079D02*
X4458277Y-8437031D01*
X4458277Y-8437031D02*
X4467801Y-8427508D01*
X4467801Y-8427508D02*
X4486848Y-8417984D01*
X4620182Y-8417984D02*
X4743991Y-8417984D01*
X4743991Y-8417984D02*
X4677325Y-8494174D01*
X4677325Y-8494174D02*
X4705896Y-8494174D01*
X4705896Y-8494174D02*
X4724944Y-8503698D01*
X4724944Y-8503698D02*
X4734468Y-8513222D01*
X4734468Y-8513222D02*
X4743991Y-8532270D01*
X4743991Y-8532270D02*
X4743991Y-8579889D01*
X4743991Y-8579889D02*
X4734468Y-8598936D01*
X4734468Y-8598936D02*
X4724944Y-8608460D01*
X4724944Y-8608460D02*
X4705896Y-8617984D01*
X4705896Y-8617984D02*
X4648753Y-8617984D01*
X4648753Y-8617984D02*
X4629706Y-8608460D01*
X4629706Y-8608460D02*
X4620182Y-8598936D01*
X4839229Y-8617984D02*
X4877325Y-8617984D01*
X4877325Y-8617984D02*
X4896372Y-8608460D01*
X4896372Y-8608460D02*
X4905896Y-8598936D01*
X4905896Y-8598936D02*
X4924944Y-8570365D01*
X4924944Y-8570365D02*
X4934468Y-8532270D01*
X4934468Y-8532270D02*
X4934468Y-8456079D01*
X4934468Y-8456079D02*
X4924944Y-8437031D01*
X4924944Y-8437031D02*
X4915420Y-8427508D01*
X4915420Y-8427508D02*
X4896372Y-8417984D01*
X4896372Y-8417984D02*
X4858277Y-8417984D01*
X4858277Y-8417984D02*
X4839229Y-8427508D01*
X4839229Y-8427508D02*
X4829706Y-8437031D01*
X4829706Y-8437031D02*
X4820182Y-8456079D01*
X4820182Y-8456079D02*
X4820182Y-8503698D01*
X4820182Y-8503698D02*
X4829706Y-8522746D01*
X4829706Y-8522746D02*
X4839229Y-8532270D01*
X4839229Y-8532270D02*
X4858277Y-8541793D01*
X4858277Y-8541793D02*
X4896372Y-8541793D01*
X4896372Y-8541793D02*
X4915420Y-8532270D01*
X4915420Y-8532270D02*
X4924944Y-8522746D01*
X4924944Y-8522746D02*
X4934468Y-8503698D01*
X5105896Y-8484650D02*
X5105896Y-8617984D01*
X5058277Y-8408460D02*
X5010658Y-8551317D01*
X5010658Y-8551317D02*
X5134468Y-8551317D01*
X5201134Y-8417984D02*
X5201134Y-8456079D01*
X5277325Y-8417984D02*
X5277325Y-8456079D01*
X5572563Y-8694174D02*
X5563039Y-8684650D01*
X5563039Y-8684650D02*
X5543991Y-8656079D01*
X5543991Y-8656079D02*
X5534468Y-8637031D01*
X5534468Y-8637031D02*
X5524944Y-8608460D01*
X5524944Y-8608460D02*
X5515420Y-8560841D01*
X5515420Y-8560841D02*
X5515420Y-8522746D01*
X5515420Y-8522746D02*
X5524944Y-8475127D01*
X5524944Y-8475127D02*
X5534468Y-8446555D01*
X5534468Y-8446555D02*
X5543991Y-8427508D01*
X5543991Y-8427508D02*
X5563039Y-8398936D01*
X5563039Y-8398936D02*
X5572563Y-8389412D01*
X5753515Y-8617984D02*
X5639229Y-8617984D01*
X5696372Y-8617984D02*
X5696372Y-8417984D01*
X5696372Y-8417984D02*
X5677325Y-8446555D01*
X5677325Y-8446555D02*
X5658277Y-8465603D01*
X5658277Y-8465603D02*
X5639229Y-8475127D01*
X5867801Y-8503698D02*
X5848753Y-8494174D01*
X5848753Y-8494174D02*
X5839229Y-8484650D01*
X5839229Y-8484650D02*
X5829706Y-8465603D01*
X5829706Y-8465603D02*
X5829706Y-8456079D01*
X5829706Y-8456079D02*
X5839229Y-8437031D01*
X5839229Y-8437031D02*
X5848753Y-8427508D01*
X5848753Y-8427508D02*
X5867801Y-8417984D01*
X5867801Y-8417984D02*
X5905896Y-8417984D01*
X5905896Y-8417984D02*
X5924944Y-8427508D01*
X5924944Y-8427508D02*
X5934468Y-8437031D01*
X5934468Y-8437031D02*
X5943991Y-8456079D01*
X5943991Y-8456079D02*
X5943991Y-8465603D01*
X5943991Y-8465603D02*
X5934468Y-8484650D01*
X5934468Y-8484650D02*
X5924944Y-8494174D01*
X5924944Y-8494174D02*
X5905896Y-8503698D01*
X5905896Y-8503698D02*
X5867801Y-8503698D01*
X5867801Y-8503698D02*
X5848753Y-8513222D01*
X5848753Y-8513222D02*
X5839229Y-8522746D01*
X5839229Y-8522746D02*
X5829706Y-8541793D01*
X5829706Y-8541793D02*
X5829706Y-8579889D01*
X5829706Y-8579889D02*
X5839229Y-8598936D01*
X5839229Y-8598936D02*
X5848753Y-8608460D01*
X5848753Y-8608460D02*
X5867801Y-8617984D01*
X5867801Y-8617984D02*
X5905896Y-8617984D01*
X5905896Y-8617984D02*
X5924944Y-8608460D01*
X5924944Y-8608460D02*
X5934468Y-8598936D01*
X5934468Y-8598936D02*
X5943991Y-8579889D01*
X5943991Y-8579889D02*
X5943991Y-8541793D01*
X5943991Y-8541793D02*
X5934468Y-8522746D01*
X5934468Y-8522746D02*
X5924944Y-8513222D01*
X5924944Y-8513222D02*
X5905896Y-8503698D01*
X6182087Y-8617984D02*
X6182087Y-8417984D01*
X6267801Y-8617984D02*
X6267801Y-8513222D01*
X6267801Y-8513222D02*
X6258277Y-8494174D01*
X6258277Y-8494174D02*
X6239230Y-8484650D01*
X6239230Y-8484650D02*
X6210658Y-8484650D01*
X6210658Y-8484650D02*
X6191610Y-8494174D01*
X6191610Y-8494174D02*
X6182087Y-8503698D01*
X6391610Y-8617984D02*
X6372563Y-8608460D01*
X6372563Y-8608460D02*
X6363039Y-8598936D01*
X6363039Y-8598936D02*
X6353515Y-8579889D01*
X6353515Y-8579889D02*
X6353515Y-8522746D01*
X6353515Y-8522746D02*
X6363039Y-8503698D01*
X6363039Y-8503698D02*
X6372563Y-8494174D01*
X6372563Y-8494174D02*
X6391610Y-8484650D01*
X6391610Y-8484650D02*
X6420182Y-8484650D01*
X6420182Y-8484650D02*
X6439230Y-8494174D01*
X6439230Y-8494174D02*
X6448753Y-8503698D01*
X6448753Y-8503698D02*
X6458277Y-8522746D01*
X6458277Y-8522746D02*
X6458277Y-8579889D01*
X6458277Y-8579889D02*
X6448753Y-8598936D01*
X6448753Y-8598936D02*
X6439230Y-8608460D01*
X6439230Y-8608460D02*
X6420182Y-8617984D01*
X6420182Y-8617984D02*
X6391610Y-8617984D01*
X6572563Y-8617984D02*
X6553515Y-8608460D01*
X6553515Y-8608460D02*
X6543991Y-8589412D01*
X6543991Y-8589412D02*
X6543991Y-8417984D01*
X6724944Y-8608460D02*
X6705896Y-8617984D01*
X6705896Y-8617984D02*
X6667801Y-8617984D01*
X6667801Y-8617984D02*
X6648753Y-8608460D01*
X6648753Y-8608460D02*
X6639230Y-8589412D01*
X6639230Y-8589412D02*
X6639230Y-8513222D01*
X6639230Y-8513222D02*
X6648753Y-8494174D01*
X6648753Y-8494174D02*
X6667801Y-8484650D01*
X6667801Y-8484650D02*
X6705896Y-8484650D01*
X6705896Y-8484650D02*
X6724944Y-8494174D01*
X6724944Y-8494174D02*
X6734468Y-8513222D01*
X6734468Y-8513222D02*
X6734468Y-8532270D01*
X6734468Y-8532270D02*
X6639230Y-8551317D01*
X6810658Y-8608460D02*
X6829706Y-8617984D01*
X6829706Y-8617984D02*
X6867801Y-8617984D01*
X6867801Y-8617984D02*
X6886849Y-8608460D01*
X6886849Y-8608460D02*
X6896372Y-8589412D01*
X6896372Y-8589412D02*
X6896372Y-8579889D01*
X6896372Y-8579889D02*
X6886849Y-8560841D01*
X6886849Y-8560841D02*
X6867801Y-8551317D01*
X6867801Y-8551317D02*
X6839230Y-8551317D01*
X6839230Y-8551317D02*
X6820182Y-8541793D01*
X6820182Y-8541793D02*
X6810658Y-8522746D01*
X6810658Y-8522746D02*
X6810658Y-8513222D01*
X6810658Y-8513222D02*
X6820182Y-8494174D01*
X6820182Y-8494174D02*
X6839230Y-8484650D01*
X6839230Y-8484650D02*
X6867801Y-8484650D01*
X6867801Y-8484650D02*
X6886849Y-8494174D01*
X6963039Y-8694174D02*
X6972563Y-8684650D01*
X6972563Y-8684650D02*
X6991611Y-8656079D01*
X6991611Y-8656079D02*
X7001134Y-8637031D01*
X7001134Y-8637031D02*
X7010658Y-8608460D01*
X7010658Y-8608460D02*
X7020182Y-8560841D01*
X7020182Y-8560841D02*
X7020182Y-8522746D01*
X7020182Y-8522746D02*
X7010658Y-8475127D01*
X7010658Y-8475127D02*
X7001134Y-8446555D01*
X7001134Y-8446555D02*
X6991611Y-8427508D01*
X6991611Y-8427508D02*
X6972563Y-8398936D01*
X6972563Y-8398936D02*
X6963039Y-8389412D01*
M02*
