%TF.GenerationSoftware,KiCad,Pcbnew,7.0.6*%
%TF.CreationDate,2023-11-09T22:10:50-05:00*%
%TF.ProjectId,Crystal,43727973-7461-46c2-9e6b-696361645f70,rev?*%
%TF.SameCoordinates,Original*%
%TF.FileFunction,Legend,Top*%
%TF.FilePolarity,Positive*%
%FSLAX46Y46*%
G04 Gerber Fmt 4.6, Leading zero omitted, Abs format (unit mm)*
G04 Created by KiCad (PCBNEW 7.0.6) date 2023-11-09 22:10:50*
%MOMM*%
%LPD*%
G01*
G04 APERTURE LIST*
%ADD10C,0.120000*%
%ADD11C,0.150000*%
%ADD12C,0.300000*%
%ADD13C,0.100000*%
%ADD14C,0.125000*%
G04 APERTURE END LIST*
D10*
X28000000Y-27950000D02*
X20100000Y-27950000D01*
X28000000Y-55000000D02*
X28000000Y-62900000D01*
X28000000Y-27950000D02*
X28000000Y-20100000D01*
X78000000Y-55500000D02*
X85900000Y-55500000D01*
X78000000Y-62900000D02*
X78000000Y-55500000D01*
X78000000Y-28000000D02*
X78000000Y-20100000D01*
X28000000Y-55000000D02*
X20100000Y-55000000D01*
X85900000Y-28000000D02*
X78000000Y-28000000D01*
D11*
X20250000Y-37395342D02*
X21050000Y-37395342D01*
X21050000Y-37395342D02*
X20535714Y-38595342D01*
X21507143Y-38138200D02*
X22421429Y-38138200D01*
X22935714Y-37509628D02*
X22992857Y-37452485D01*
X22992857Y-37452485D02*
X23107143Y-37395342D01*
X23107143Y-37395342D02*
X23392857Y-37395342D01*
X23392857Y-37395342D02*
X23507143Y-37452485D01*
X23507143Y-37452485D02*
X23564285Y-37509628D01*
X23564285Y-37509628D02*
X23621428Y-37623914D01*
X23621428Y-37623914D02*
X23621428Y-37738200D01*
X23621428Y-37738200D02*
X23564285Y-37909628D01*
X23564285Y-37909628D02*
X22878571Y-38595342D01*
X22878571Y-38595342D02*
X23621428Y-38595342D01*
X24650000Y-37795342D02*
X24650000Y-38595342D01*
X24364285Y-37338200D02*
X24078571Y-38195342D01*
X24078571Y-38195342D02*
X24821428Y-38195342D01*
X25107142Y-37395342D02*
X25507142Y-38595342D01*
X25507142Y-38595342D02*
X25907142Y-37395342D01*
X26307142Y-38595342D02*
X26307142Y-37395342D01*
X26307142Y-37395342D02*
X26592856Y-37395342D01*
X26592856Y-37395342D02*
X26764285Y-37452485D01*
X26764285Y-37452485D02*
X26878570Y-37566771D01*
X26878570Y-37566771D02*
X26935713Y-37681057D01*
X26935713Y-37681057D02*
X26992856Y-37909628D01*
X26992856Y-37909628D02*
X26992856Y-38081057D01*
X26992856Y-38081057D02*
X26935713Y-38309628D01*
X26935713Y-38309628D02*
X26878570Y-38423914D01*
X26878570Y-38423914D02*
X26764285Y-38538200D01*
X26764285Y-38538200D02*
X26592856Y-38595342D01*
X26592856Y-38595342D02*
X26307142Y-38595342D01*
X28192856Y-38481057D02*
X28135713Y-38538200D01*
X28135713Y-38538200D02*
X27964285Y-38595342D01*
X27964285Y-38595342D02*
X27849999Y-38595342D01*
X27849999Y-38595342D02*
X27678570Y-38538200D01*
X27678570Y-38538200D02*
X27564285Y-38423914D01*
X27564285Y-38423914D02*
X27507142Y-38309628D01*
X27507142Y-38309628D02*
X27449999Y-38081057D01*
X27449999Y-38081057D02*
X27449999Y-37909628D01*
X27449999Y-37909628D02*
X27507142Y-37681057D01*
X27507142Y-37681057D02*
X27564285Y-37566771D01*
X27564285Y-37566771D02*
X27678570Y-37452485D01*
X27678570Y-37452485D02*
X27849999Y-37395342D01*
X27849999Y-37395342D02*
X27964285Y-37395342D01*
X27964285Y-37395342D02*
X28135713Y-37452485D01*
X28135713Y-37452485D02*
X28192856Y-37509628D01*
D12*
X80361653Y-34775828D02*
X79861653Y-34061542D01*
X79504510Y-34775828D02*
X79504510Y-33275828D01*
X79504510Y-33275828D02*
X80075939Y-33275828D01*
X80075939Y-33275828D02*
X80218796Y-33347257D01*
X80218796Y-33347257D02*
X80290225Y-33418685D01*
X80290225Y-33418685D02*
X80361653Y-33561542D01*
X80361653Y-33561542D02*
X80361653Y-33775828D01*
X80361653Y-33775828D02*
X80290225Y-33918685D01*
X80290225Y-33918685D02*
X80218796Y-33990114D01*
X80218796Y-33990114D02*
X80075939Y-34061542D01*
X80075939Y-34061542D02*
X79504510Y-34061542D01*
X81004510Y-33990114D02*
X81504510Y-33990114D01*
X81718796Y-34775828D02*
X81004510Y-34775828D01*
X81004510Y-34775828D02*
X81004510Y-33275828D01*
X81004510Y-33275828D02*
X81718796Y-33275828D01*
X82290225Y-34704400D02*
X82504511Y-34775828D01*
X82504511Y-34775828D02*
X82861653Y-34775828D01*
X82861653Y-34775828D02*
X83004511Y-34704400D01*
X83004511Y-34704400D02*
X83075939Y-34632971D01*
X83075939Y-34632971D02*
X83147368Y-34490114D01*
X83147368Y-34490114D02*
X83147368Y-34347257D01*
X83147368Y-34347257D02*
X83075939Y-34204400D01*
X83075939Y-34204400D02*
X83004511Y-34132971D01*
X83004511Y-34132971D02*
X82861653Y-34061542D01*
X82861653Y-34061542D02*
X82575939Y-33990114D01*
X82575939Y-33990114D02*
X82433082Y-33918685D01*
X82433082Y-33918685D02*
X82361653Y-33847257D01*
X82361653Y-33847257D02*
X82290225Y-33704400D01*
X82290225Y-33704400D02*
X82290225Y-33561542D01*
X82290225Y-33561542D02*
X82361653Y-33418685D01*
X82361653Y-33418685D02*
X82433082Y-33347257D01*
X82433082Y-33347257D02*
X82575939Y-33275828D01*
X82575939Y-33275828D02*
X82933082Y-33275828D01*
X82933082Y-33275828D02*
X83147368Y-33347257D01*
X83790224Y-33990114D02*
X84290224Y-33990114D01*
X84504510Y-34775828D02*
X83790224Y-34775828D01*
X83790224Y-34775828D02*
X83790224Y-33275828D01*
X83790224Y-33275828D02*
X84504510Y-33275828D01*
X84933082Y-33275828D02*
X85790225Y-33275828D01*
X85361653Y-34775828D02*
X85361653Y-33275828D01*
X28654510Y-37979400D02*
X29797368Y-37979400D01*
D13*
X54406265Y-24646895D02*
X54406265Y-23846895D01*
X54406265Y-23846895D02*
X54596741Y-23846895D01*
X54596741Y-23846895D02*
X54711027Y-23884990D01*
X54711027Y-23884990D02*
X54787217Y-23961180D01*
X54787217Y-23961180D02*
X54825312Y-24037371D01*
X54825312Y-24037371D02*
X54863408Y-24189752D01*
X54863408Y-24189752D02*
X54863408Y-24304038D01*
X54863408Y-24304038D02*
X54825312Y-24456419D01*
X54825312Y-24456419D02*
X54787217Y-24532609D01*
X54787217Y-24532609D02*
X54711027Y-24608800D01*
X54711027Y-24608800D02*
X54596741Y-24646895D01*
X54596741Y-24646895D02*
X54406265Y-24646895D01*
X55549122Y-23846895D02*
X55396741Y-23846895D01*
X55396741Y-23846895D02*
X55320550Y-23884990D01*
X55320550Y-23884990D02*
X55282455Y-23923085D01*
X55282455Y-23923085D02*
X55206265Y-24037371D01*
X55206265Y-24037371D02*
X55168169Y-24189752D01*
X55168169Y-24189752D02*
X55168169Y-24494514D01*
X55168169Y-24494514D02*
X55206265Y-24570704D01*
X55206265Y-24570704D02*
X55244360Y-24608800D01*
X55244360Y-24608800D02*
X55320550Y-24646895D01*
X55320550Y-24646895D02*
X55472931Y-24646895D01*
X55472931Y-24646895D02*
X55549122Y-24608800D01*
X55549122Y-24608800D02*
X55587217Y-24570704D01*
X55587217Y-24570704D02*
X55625312Y-24494514D01*
X55625312Y-24494514D02*
X55625312Y-24304038D01*
X55625312Y-24304038D02*
X55587217Y-24227847D01*
X55587217Y-24227847D02*
X55549122Y-24189752D01*
X55549122Y-24189752D02*
X55472931Y-24151657D01*
X55472931Y-24151657D02*
X55320550Y-24151657D01*
X55320550Y-24151657D02*
X55244360Y-24189752D01*
X55244360Y-24189752D02*
X55206265Y-24227847D01*
X55206265Y-24227847D02*
X55168169Y-24304038D01*
X64206265Y-24646895D02*
X64206265Y-23846895D01*
X64206265Y-23846895D02*
X64396741Y-23846895D01*
X64396741Y-23846895D02*
X64511027Y-23884990D01*
X64511027Y-23884990D02*
X64587217Y-23961180D01*
X64587217Y-23961180D02*
X64625312Y-24037371D01*
X64625312Y-24037371D02*
X64663408Y-24189752D01*
X64663408Y-24189752D02*
X64663408Y-24304038D01*
X64663408Y-24304038D02*
X64625312Y-24456419D01*
X64625312Y-24456419D02*
X64587217Y-24532609D01*
X64587217Y-24532609D02*
X64511027Y-24608800D01*
X64511027Y-24608800D02*
X64396741Y-24646895D01*
X64396741Y-24646895D02*
X64206265Y-24646895D01*
X65425312Y-24646895D02*
X64968169Y-24646895D01*
X65196741Y-24646895D02*
X65196741Y-23846895D01*
X65196741Y-23846895D02*
X65120550Y-23961180D01*
X65120550Y-23961180D02*
X65044360Y-24037371D01*
X65044360Y-24037371D02*
X64968169Y-24075466D01*
X65920551Y-23846895D02*
X65996741Y-23846895D01*
X65996741Y-23846895D02*
X66072932Y-23884990D01*
X66072932Y-23884990D02*
X66111027Y-23923085D01*
X66111027Y-23923085D02*
X66149122Y-23999276D01*
X66149122Y-23999276D02*
X66187217Y-24151657D01*
X66187217Y-24151657D02*
X66187217Y-24342133D01*
X66187217Y-24342133D02*
X66149122Y-24494514D01*
X66149122Y-24494514D02*
X66111027Y-24570704D01*
X66111027Y-24570704D02*
X66072932Y-24608800D01*
X66072932Y-24608800D02*
X65996741Y-24646895D01*
X65996741Y-24646895D02*
X65920551Y-24646895D01*
X65920551Y-24646895D02*
X65844360Y-24608800D01*
X65844360Y-24608800D02*
X65806265Y-24570704D01*
X65806265Y-24570704D02*
X65768170Y-24494514D01*
X65768170Y-24494514D02*
X65730074Y-24342133D01*
X65730074Y-24342133D02*
X65730074Y-24151657D01*
X65730074Y-24151657D02*
X65768170Y-23999276D01*
X65768170Y-23999276D02*
X65806265Y-23923085D01*
X65806265Y-23923085D02*
X65844360Y-23884990D01*
X65844360Y-23884990D02*
X65920551Y-23846895D01*
X66856265Y-24646895D02*
X66856265Y-23846895D01*
X66856265Y-23846895D02*
X67046741Y-23846895D01*
X67046741Y-23846895D02*
X67161027Y-23884990D01*
X67161027Y-23884990D02*
X67237217Y-23961180D01*
X67237217Y-23961180D02*
X67275312Y-24037371D01*
X67275312Y-24037371D02*
X67313408Y-24189752D01*
X67313408Y-24189752D02*
X67313408Y-24304038D01*
X67313408Y-24304038D02*
X67275312Y-24456419D01*
X67275312Y-24456419D02*
X67237217Y-24532609D01*
X67237217Y-24532609D02*
X67161027Y-24608800D01*
X67161027Y-24608800D02*
X67046741Y-24646895D01*
X67046741Y-24646895D02*
X66856265Y-24646895D01*
X68075312Y-24646895D02*
X67618169Y-24646895D01*
X67846741Y-24646895D02*
X67846741Y-23846895D01*
X67846741Y-23846895D02*
X67770550Y-23961180D01*
X67770550Y-23961180D02*
X67694360Y-24037371D01*
X67694360Y-24037371D02*
X67618169Y-24075466D01*
X68532455Y-24189752D02*
X68456265Y-24151657D01*
X68456265Y-24151657D02*
X68418170Y-24113561D01*
X68418170Y-24113561D02*
X68380074Y-24037371D01*
X68380074Y-24037371D02*
X68380074Y-23999276D01*
X68380074Y-23999276D02*
X68418170Y-23923085D01*
X68418170Y-23923085D02*
X68456265Y-23884990D01*
X68456265Y-23884990D02*
X68532455Y-23846895D01*
X68532455Y-23846895D02*
X68684836Y-23846895D01*
X68684836Y-23846895D02*
X68761027Y-23884990D01*
X68761027Y-23884990D02*
X68799122Y-23923085D01*
X68799122Y-23923085D02*
X68837217Y-23999276D01*
X68837217Y-23999276D02*
X68837217Y-24037371D01*
X68837217Y-24037371D02*
X68799122Y-24113561D01*
X68799122Y-24113561D02*
X68761027Y-24151657D01*
X68761027Y-24151657D02*
X68684836Y-24189752D01*
X68684836Y-24189752D02*
X68532455Y-24189752D01*
X68532455Y-24189752D02*
X68456265Y-24227847D01*
X68456265Y-24227847D02*
X68418170Y-24265942D01*
X68418170Y-24265942D02*
X68380074Y-24342133D01*
X68380074Y-24342133D02*
X68380074Y-24494514D01*
X68380074Y-24494514D02*
X68418170Y-24570704D01*
X68418170Y-24570704D02*
X68456265Y-24608800D01*
X68456265Y-24608800D02*
X68532455Y-24646895D01*
X68532455Y-24646895D02*
X68684836Y-24646895D01*
X68684836Y-24646895D02*
X68761027Y-24608800D01*
X68761027Y-24608800D02*
X68799122Y-24570704D01*
X68799122Y-24570704D02*
X68837217Y-24494514D01*
X68837217Y-24494514D02*
X68837217Y-24342133D01*
X68837217Y-24342133D02*
X68799122Y-24265942D01*
X68799122Y-24265942D02*
X68761027Y-24227847D01*
X68761027Y-24227847D02*
X68684836Y-24189752D01*
X59481265Y-24646895D02*
X59481265Y-23846895D01*
X59481265Y-23846895D02*
X59671741Y-23846895D01*
X59671741Y-23846895D02*
X59786027Y-23884990D01*
X59786027Y-23884990D02*
X59862217Y-23961180D01*
X59862217Y-23961180D02*
X59900312Y-24037371D01*
X59900312Y-24037371D02*
X59938408Y-24189752D01*
X59938408Y-24189752D02*
X59938408Y-24304038D01*
X59938408Y-24304038D02*
X59900312Y-24456419D01*
X59900312Y-24456419D02*
X59862217Y-24532609D01*
X59862217Y-24532609D02*
X59786027Y-24608800D01*
X59786027Y-24608800D02*
X59671741Y-24646895D01*
X59671741Y-24646895D02*
X59481265Y-24646895D01*
X60395550Y-24189752D02*
X60319360Y-24151657D01*
X60319360Y-24151657D02*
X60281265Y-24113561D01*
X60281265Y-24113561D02*
X60243169Y-24037371D01*
X60243169Y-24037371D02*
X60243169Y-23999276D01*
X60243169Y-23999276D02*
X60281265Y-23923085D01*
X60281265Y-23923085D02*
X60319360Y-23884990D01*
X60319360Y-23884990D02*
X60395550Y-23846895D01*
X60395550Y-23846895D02*
X60547931Y-23846895D01*
X60547931Y-23846895D02*
X60624122Y-23884990D01*
X60624122Y-23884990D02*
X60662217Y-23923085D01*
X60662217Y-23923085D02*
X60700312Y-23999276D01*
X60700312Y-23999276D02*
X60700312Y-24037371D01*
X60700312Y-24037371D02*
X60662217Y-24113561D01*
X60662217Y-24113561D02*
X60624122Y-24151657D01*
X60624122Y-24151657D02*
X60547931Y-24189752D01*
X60547931Y-24189752D02*
X60395550Y-24189752D01*
X60395550Y-24189752D02*
X60319360Y-24227847D01*
X60319360Y-24227847D02*
X60281265Y-24265942D01*
X60281265Y-24265942D02*
X60243169Y-24342133D01*
X60243169Y-24342133D02*
X60243169Y-24494514D01*
X60243169Y-24494514D02*
X60281265Y-24570704D01*
X60281265Y-24570704D02*
X60319360Y-24608800D01*
X60319360Y-24608800D02*
X60395550Y-24646895D01*
X60395550Y-24646895D02*
X60547931Y-24646895D01*
X60547931Y-24646895D02*
X60624122Y-24608800D01*
X60624122Y-24608800D02*
X60662217Y-24570704D01*
X60662217Y-24570704D02*
X60700312Y-24494514D01*
X60700312Y-24494514D02*
X60700312Y-24342133D01*
X60700312Y-24342133D02*
X60662217Y-24265942D01*
X60662217Y-24265942D02*
X60624122Y-24227847D01*
X60624122Y-24227847D02*
X60547931Y-24189752D01*
D14*
X47797712Y-62360404D02*
X48273902Y-62360404D01*
X47702474Y-62646119D02*
X48035807Y-61646119D01*
X48035807Y-61646119D02*
X48369140Y-62646119D01*
X49178664Y-61646119D02*
X48702474Y-61646119D01*
X48702474Y-61646119D02*
X48654855Y-62122309D01*
X48654855Y-62122309D02*
X48702474Y-62074690D01*
X48702474Y-62074690D02*
X48797712Y-62027071D01*
X48797712Y-62027071D02*
X49035807Y-62027071D01*
X49035807Y-62027071D02*
X49131045Y-62074690D01*
X49131045Y-62074690D02*
X49178664Y-62122309D01*
X49178664Y-62122309D02*
X49226283Y-62217547D01*
X49226283Y-62217547D02*
X49226283Y-62455642D01*
X49226283Y-62455642D02*
X49178664Y-62550880D01*
X49178664Y-62550880D02*
X49131045Y-62598500D01*
X49131045Y-62598500D02*
X49035807Y-62646119D01*
X49035807Y-62646119D02*
X48797712Y-62646119D01*
X48797712Y-62646119D02*
X48702474Y-62598500D01*
X48702474Y-62598500D02*
X48654855Y-62550880D01*
X50369141Y-62360404D02*
X50845331Y-62360404D01*
X50273903Y-62646119D02*
X50607236Y-61646119D01*
X50607236Y-61646119D02*
X50940569Y-62646119D01*
X51702474Y-61979452D02*
X51702474Y-62646119D01*
X51464379Y-61598500D02*
X51226284Y-62312785D01*
X51226284Y-62312785D02*
X51845331Y-62312785D01*
X52940570Y-62360404D02*
X53416760Y-62360404D01*
X52845332Y-62646119D02*
X53178665Y-61646119D01*
X53178665Y-61646119D02*
X53511998Y-62646119D01*
X53750094Y-61646119D02*
X54369141Y-61646119D01*
X54369141Y-61646119D02*
X54035808Y-62027071D01*
X54035808Y-62027071D02*
X54178665Y-62027071D01*
X54178665Y-62027071D02*
X54273903Y-62074690D01*
X54273903Y-62074690D02*
X54321522Y-62122309D01*
X54321522Y-62122309D02*
X54369141Y-62217547D01*
X54369141Y-62217547D02*
X54369141Y-62455642D01*
X54369141Y-62455642D02*
X54321522Y-62550880D01*
X54321522Y-62550880D02*
X54273903Y-62598500D01*
X54273903Y-62598500D02*
X54178665Y-62646119D01*
X54178665Y-62646119D02*
X53892951Y-62646119D01*
X53892951Y-62646119D02*
X53797713Y-62598500D01*
X53797713Y-62598500D02*
X53750094Y-62550880D01*
X55511999Y-62360404D02*
X55988189Y-62360404D01*
X55416761Y-62646119D02*
X55750094Y-61646119D01*
X55750094Y-61646119D02*
X56083427Y-62646119D01*
X56369142Y-61741357D02*
X56416761Y-61693738D01*
X56416761Y-61693738D02*
X56511999Y-61646119D01*
X56511999Y-61646119D02*
X56750094Y-61646119D01*
X56750094Y-61646119D02*
X56845332Y-61693738D01*
X56845332Y-61693738D02*
X56892951Y-61741357D01*
X56892951Y-61741357D02*
X56940570Y-61836595D01*
X56940570Y-61836595D02*
X56940570Y-61931833D01*
X56940570Y-61931833D02*
X56892951Y-62074690D01*
X56892951Y-62074690D02*
X56321523Y-62646119D01*
X56321523Y-62646119D02*
X56940570Y-62646119D01*
X58083428Y-62360404D02*
X58559618Y-62360404D01*
X57988190Y-62646119D02*
X58321523Y-61646119D01*
X58321523Y-61646119D02*
X58654856Y-62646119D01*
X59511999Y-62646119D02*
X58940571Y-62646119D01*
X59226285Y-62646119D02*
X59226285Y-61646119D01*
X59226285Y-61646119D02*
X59131047Y-61788976D01*
X59131047Y-61788976D02*
X59035809Y-61884214D01*
X59035809Y-61884214D02*
X58940571Y-61931833D01*
D11*
X29712969Y-61694819D02*
X29236779Y-61694819D01*
X29236779Y-61694819D02*
X29189160Y-62171009D01*
X29189160Y-62171009D02*
X29236779Y-62123390D01*
X29236779Y-62123390D02*
X29332017Y-62075771D01*
X29332017Y-62075771D02*
X29570112Y-62075771D01*
X29570112Y-62075771D02*
X29665350Y-62123390D01*
X29665350Y-62123390D02*
X29712969Y-62171009D01*
X29712969Y-62171009D02*
X29760588Y-62266247D01*
X29760588Y-62266247D02*
X29760588Y-62504342D01*
X29760588Y-62504342D02*
X29712969Y-62599580D01*
X29712969Y-62599580D02*
X29665350Y-62647200D01*
X29665350Y-62647200D02*
X29570112Y-62694819D01*
X29570112Y-62694819D02*
X29332017Y-62694819D01*
X29332017Y-62694819D02*
X29236779Y-62647200D01*
X29236779Y-62647200D02*
X29189160Y-62599580D01*
X30046303Y-61694819D02*
X30379636Y-62694819D01*
X30379636Y-62694819D02*
X30712969Y-61694819D01*
X31665351Y-61694819D02*
X32236779Y-61694819D01*
X31951065Y-62694819D02*
X31951065Y-61694819D01*
X32474875Y-61694819D02*
X33141541Y-62694819D01*
X33141541Y-61694819D02*
X32474875Y-62694819D01*
X34855827Y-62694819D02*
X34522494Y-62218628D01*
X34284399Y-62694819D02*
X34284399Y-61694819D01*
X34284399Y-61694819D02*
X34665351Y-61694819D01*
X34665351Y-61694819D02*
X34760589Y-61742438D01*
X34760589Y-61742438D02*
X34808208Y-61790057D01*
X34808208Y-61790057D02*
X34855827Y-61885295D01*
X34855827Y-61885295D02*
X34855827Y-62028152D01*
X34855827Y-62028152D02*
X34808208Y-62123390D01*
X34808208Y-62123390D02*
X34760589Y-62171009D01*
X34760589Y-62171009D02*
X34665351Y-62218628D01*
X34665351Y-62218628D02*
X34284399Y-62218628D01*
X35189161Y-61694819D02*
X35855827Y-62694819D01*
X35855827Y-61694819D02*
X35189161Y-62694819D01*
X37522494Y-61742438D02*
X37427256Y-61694819D01*
X37427256Y-61694819D02*
X37284399Y-61694819D01*
X37284399Y-61694819D02*
X37141542Y-61742438D01*
X37141542Y-61742438D02*
X37046304Y-61837676D01*
X37046304Y-61837676D02*
X36998685Y-61932914D01*
X36998685Y-61932914D02*
X36951066Y-62123390D01*
X36951066Y-62123390D02*
X36951066Y-62266247D01*
X36951066Y-62266247D02*
X36998685Y-62456723D01*
X36998685Y-62456723D02*
X37046304Y-62551961D01*
X37046304Y-62551961D02*
X37141542Y-62647200D01*
X37141542Y-62647200D02*
X37284399Y-62694819D01*
X37284399Y-62694819D02*
X37379637Y-62694819D01*
X37379637Y-62694819D02*
X37522494Y-62647200D01*
X37522494Y-62647200D02*
X37570113Y-62599580D01*
X37570113Y-62599580D02*
X37570113Y-62266247D01*
X37570113Y-62266247D02*
X37379637Y-62266247D01*
X37998685Y-62694819D02*
X37998685Y-61694819D01*
X37998685Y-61694819D02*
X38570113Y-62694819D01*
X38570113Y-62694819D02*
X38570113Y-61694819D01*
X39046304Y-62694819D02*
X39046304Y-61694819D01*
X39046304Y-61694819D02*
X39284399Y-61694819D01*
X39284399Y-61694819D02*
X39427256Y-61742438D01*
X39427256Y-61742438D02*
X39522494Y-61837676D01*
X39522494Y-61837676D02*
X39570113Y-61932914D01*
X39570113Y-61932914D02*
X39617732Y-62123390D01*
X39617732Y-62123390D02*
X39617732Y-62266247D01*
X39617732Y-62266247D02*
X39570113Y-62456723D01*
X39570113Y-62456723D02*
X39522494Y-62551961D01*
X39522494Y-62551961D02*
X39427256Y-62647200D01*
X39427256Y-62647200D02*
X39284399Y-62694819D01*
X39284399Y-62694819D02*
X39046304Y-62694819D01*
D13*
X62031265Y-24646895D02*
X62031265Y-23846895D01*
X62031265Y-23846895D02*
X62221741Y-23846895D01*
X62221741Y-23846895D02*
X62336027Y-23884990D01*
X62336027Y-23884990D02*
X62412217Y-23961180D01*
X62412217Y-23961180D02*
X62450312Y-24037371D01*
X62450312Y-24037371D02*
X62488408Y-24189752D01*
X62488408Y-24189752D02*
X62488408Y-24304038D01*
X62488408Y-24304038D02*
X62450312Y-24456419D01*
X62450312Y-24456419D02*
X62412217Y-24532609D01*
X62412217Y-24532609D02*
X62336027Y-24608800D01*
X62336027Y-24608800D02*
X62221741Y-24646895D01*
X62221741Y-24646895D02*
X62031265Y-24646895D01*
X62869360Y-24646895D02*
X63021741Y-24646895D01*
X63021741Y-24646895D02*
X63097931Y-24608800D01*
X63097931Y-24608800D02*
X63136027Y-24570704D01*
X63136027Y-24570704D02*
X63212217Y-24456419D01*
X63212217Y-24456419D02*
X63250312Y-24304038D01*
X63250312Y-24304038D02*
X63250312Y-23999276D01*
X63250312Y-23999276D02*
X63212217Y-23923085D01*
X63212217Y-23923085D02*
X63174122Y-23884990D01*
X63174122Y-23884990D02*
X63097931Y-23846895D01*
X63097931Y-23846895D02*
X62945550Y-23846895D01*
X62945550Y-23846895D02*
X62869360Y-23884990D01*
X62869360Y-23884990D02*
X62831265Y-23923085D01*
X62831265Y-23923085D02*
X62793169Y-23999276D01*
X62793169Y-23999276D02*
X62793169Y-24189752D01*
X62793169Y-24189752D02*
X62831265Y-24265942D01*
X62831265Y-24265942D02*
X62869360Y-24304038D01*
X62869360Y-24304038D02*
X62945550Y-24342133D01*
X62945550Y-24342133D02*
X63097931Y-24342133D01*
X63097931Y-24342133D02*
X63174122Y-24304038D01*
X63174122Y-24304038D02*
X63212217Y-24265942D01*
X63212217Y-24265942D02*
X63250312Y-24189752D01*
X51856265Y-24646895D02*
X51856265Y-23846895D01*
X51856265Y-23846895D02*
X52046741Y-23846895D01*
X52046741Y-23846895D02*
X52161027Y-23884990D01*
X52161027Y-23884990D02*
X52237217Y-23961180D01*
X52237217Y-23961180D02*
X52275312Y-24037371D01*
X52275312Y-24037371D02*
X52313408Y-24189752D01*
X52313408Y-24189752D02*
X52313408Y-24304038D01*
X52313408Y-24304038D02*
X52275312Y-24456419D01*
X52275312Y-24456419D02*
X52237217Y-24532609D01*
X52237217Y-24532609D02*
X52161027Y-24608800D01*
X52161027Y-24608800D02*
X52046741Y-24646895D01*
X52046741Y-24646895D02*
X51856265Y-24646895D01*
X53037217Y-23846895D02*
X52656265Y-23846895D01*
X52656265Y-23846895D02*
X52618169Y-24227847D01*
X52618169Y-24227847D02*
X52656265Y-24189752D01*
X52656265Y-24189752D02*
X52732455Y-24151657D01*
X52732455Y-24151657D02*
X52922931Y-24151657D01*
X52922931Y-24151657D02*
X52999122Y-24189752D01*
X52999122Y-24189752D02*
X53037217Y-24227847D01*
X53037217Y-24227847D02*
X53075312Y-24304038D01*
X53075312Y-24304038D02*
X53075312Y-24494514D01*
X53075312Y-24494514D02*
X53037217Y-24570704D01*
X53037217Y-24570704D02*
X52999122Y-24608800D01*
X52999122Y-24608800D02*
X52922931Y-24646895D01*
X52922931Y-24646895D02*
X52732455Y-24646895D01*
X52732455Y-24646895D02*
X52656265Y-24608800D01*
X52656265Y-24608800D02*
X52618169Y-24570704D01*
D11*
X25461779Y-41519819D02*
X25461779Y-42329342D01*
X25461779Y-42329342D02*
X25509398Y-42424580D01*
X25509398Y-42424580D02*
X25557017Y-42472200D01*
X25557017Y-42472200D02*
X25652255Y-42519819D01*
X25652255Y-42519819D02*
X25842731Y-42519819D01*
X25842731Y-42519819D02*
X25937969Y-42472200D01*
X25937969Y-42472200D02*
X25985588Y-42424580D01*
X25985588Y-42424580D02*
X26033207Y-42329342D01*
X26033207Y-42329342D02*
X26033207Y-41519819D01*
X26461779Y-42472200D02*
X26604636Y-42519819D01*
X26604636Y-42519819D02*
X26842731Y-42519819D01*
X26842731Y-42519819D02*
X26937969Y-42472200D01*
X26937969Y-42472200D02*
X26985588Y-42424580D01*
X26985588Y-42424580D02*
X27033207Y-42329342D01*
X27033207Y-42329342D02*
X27033207Y-42234104D01*
X27033207Y-42234104D02*
X26985588Y-42138866D01*
X26985588Y-42138866D02*
X26937969Y-42091247D01*
X26937969Y-42091247D02*
X26842731Y-42043628D01*
X26842731Y-42043628D02*
X26652255Y-41996009D01*
X26652255Y-41996009D02*
X26557017Y-41948390D01*
X26557017Y-41948390D02*
X26509398Y-41900771D01*
X26509398Y-41900771D02*
X26461779Y-41805533D01*
X26461779Y-41805533D02*
X26461779Y-41710295D01*
X26461779Y-41710295D02*
X26509398Y-41615057D01*
X26509398Y-41615057D02*
X26557017Y-41567438D01*
X26557017Y-41567438D02*
X26652255Y-41519819D01*
X26652255Y-41519819D02*
X26890350Y-41519819D01*
X26890350Y-41519819D02*
X27033207Y-41567438D01*
X27795112Y-41996009D02*
X27937969Y-42043628D01*
X27937969Y-42043628D02*
X27985588Y-42091247D01*
X27985588Y-42091247D02*
X28033207Y-42186485D01*
X28033207Y-42186485D02*
X28033207Y-42329342D01*
X28033207Y-42329342D02*
X27985588Y-42424580D01*
X27985588Y-42424580D02*
X27937969Y-42472200D01*
X27937969Y-42472200D02*
X27842731Y-42519819D01*
X27842731Y-42519819D02*
X27461779Y-42519819D01*
X27461779Y-42519819D02*
X27461779Y-41519819D01*
X27461779Y-41519819D02*
X27795112Y-41519819D01*
X27795112Y-41519819D02*
X27890350Y-41567438D01*
X27890350Y-41567438D02*
X27937969Y-41615057D01*
X27937969Y-41615057D02*
X27985588Y-41710295D01*
X27985588Y-41710295D02*
X27985588Y-41805533D01*
X27985588Y-41805533D02*
X27937969Y-41900771D01*
X27937969Y-41900771D02*
X27890350Y-41948390D01*
X27890350Y-41948390D02*
X27795112Y-41996009D01*
X27795112Y-41996009D02*
X27461779Y-41996009D01*
D13*
X69606265Y-24646895D02*
X69606265Y-23846895D01*
X69606265Y-23846895D02*
X69796741Y-23846895D01*
X69796741Y-23846895D02*
X69911027Y-23884990D01*
X69911027Y-23884990D02*
X69987217Y-23961180D01*
X69987217Y-23961180D02*
X70025312Y-24037371D01*
X70025312Y-24037371D02*
X70063408Y-24189752D01*
X70063408Y-24189752D02*
X70063408Y-24304038D01*
X70063408Y-24304038D02*
X70025312Y-24456419D01*
X70025312Y-24456419D02*
X69987217Y-24532609D01*
X69987217Y-24532609D02*
X69911027Y-24608800D01*
X69911027Y-24608800D02*
X69796741Y-24646895D01*
X69796741Y-24646895D02*
X69606265Y-24646895D01*
X70825312Y-24646895D02*
X70368169Y-24646895D01*
X70596741Y-24646895D02*
X70596741Y-23846895D01*
X70596741Y-23846895D02*
X70520550Y-23961180D01*
X70520550Y-23961180D02*
X70444360Y-24037371D01*
X70444360Y-24037371D02*
X70368169Y-24075466D01*
X71206265Y-24646895D02*
X71358646Y-24646895D01*
X71358646Y-24646895D02*
X71434836Y-24608800D01*
X71434836Y-24608800D02*
X71472932Y-24570704D01*
X71472932Y-24570704D02*
X71549122Y-24456419D01*
X71549122Y-24456419D02*
X71587217Y-24304038D01*
X71587217Y-24304038D02*
X71587217Y-23999276D01*
X71587217Y-23999276D02*
X71549122Y-23923085D01*
X71549122Y-23923085D02*
X71511027Y-23884990D01*
X71511027Y-23884990D02*
X71434836Y-23846895D01*
X71434836Y-23846895D02*
X71282455Y-23846895D01*
X71282455Y-23846895D02*
X71206265Y-23884990D01*
X71206265Y-23884990D02*
X71168170Y-23923085D01*
X71168170Y-23923085D02*
X71130074Y-23999276D01*
X71130074Y-23999276D02*
X71130074Y-24189752D01*
X71130074Y-24189752D02*
X71168170Y-24265942D01*
X71168170Y-24265942D02*
X71206265Y-24304038D01*
X71206265Y-24304038D02*
X71282455Y-24342133D01*
X71282455Y-24342133D02*
X71434836Y-24342133D01*
X71434836Y-24342133D02*
X71511027Y-24304038D01*
X71511027Y-24304038D02*
X71549122Y-24265942D01*
X71549122Y-24265942D02*
X71587217Y-24189752D01*
X57006265Y-24646895D02*
X57006265Y-23846895D01*
X57006265Y-23846895D02*
X57196741Y-23846895D01*
X57196741Y-23846895D02*
X57311027Y-23884990D01*
X57311027Y-23884990D02*
X57387217Y-23961180D01*
X57387217Y-23961180D02*
X57425312Y-24037371D01*
X57425312Y-24037371D02*
X57463408Y-24189752D01*
X57463408Y-24189752D02*
X57463408Y-24304038D01*
X57463408Y-24304038D02*
X57425312Y-24456419D01*
X57425312Y-24456419D02*
X57387217Y-24532609D01*
X57387217Y-24532609D02*
X57311027Y-24608800D01*
X57311027Y-24608800D02*
X57196741Y-24646895D01*
X57196741Y-24646895D02*
X57006265Y-24646895D01*
X57730074Y-23846895D02*
X58263408Y-23846895D01*
X58263408Y-23846895D02*
X57920550Y-24646895D01*
D12*
X28654510Y-27129400D02*
X29797368Y-27129400D01*
X29225939Y-27700828D02*
X29225939Y-26557971D01*
D11*
X30683333Y-35454819D02*
X30207143Y-35454819D01*
X30207143Y-35454819D02*
X30207143Y-34454819D01*
X31540476Y-35454819D02*
X30969048Y-35454819D01*
X31254762Y-35454819D02*
X31254762Y-34454819D01*
X31254762Y-34454819D02*
X31159524Y-34597676D01*
X31159524Y-34597676D02*
X31064286Y-34692914D01*
X31064286Y-34692914D02*
X30969048Y-34740533D01*
X63369642Y-44204819D02*
X63036309Y-43728628D01*
X62798214Y-44204819D02*
X62798214Y-43204819D01*
X62798214Y-43204819D02*
X63179166Y-43204819D01*
X63179166Y-43204819D02*
X63274404Y-43252438D01*
X63274404Y-43252438D02*
X63322023Y-43300057D01*
X63322023Y-43300057D02*
X63369642Y-43395295D01*
X63369642Y-43395295D02*
X63369642Y-43538152D01*
X63369642Y-43538152D02*
X63322023Y-43633390D01*
X63322023Y-43633390D02*
X63274404Y-43681009D01*
X63274404Y-43681009D02*
X63179166Y-43728628D01*
X63179166Y-43728628D02*
X62798214Y-43728628D01*
X64322023Y-44204819D02*
X63750595Y-44204819D01*
X64036309Y-44204819D02*
X64036309Y-43204819D01*
X64036309Y-43204819D02*
X63941071Y-43347676D01*
X63941071Y-43347676D02*
X63845833Y-43442914D01*
X63845833Y-43442914D02*
X63750595Y-43490533D01*
X64702976Y-43300057D02*
X64750595Y-43252438D01*
X64750595Y-43252438D02*
X64845833Y-43204819D01*
X64845833Y-43204819D02*
X65083928Y-43204819D01*
X65083928Y-43204819D02*
X65179166Y-43252438D01*
X65179166Y-43252438D02*
X65226785Y-43300057D01*
X65226785Y-43300057D02*
X65274404Y-43395295D01*
X65274404Y-43395295D02*
X65274404Y-43490533D01*
X65274404Y-43490533D02*
X65226785Y-43633390D01*
X65226785Y-43633390D02*
X64655357Y-44204819D01*
X64655357Y-44204819D02*
X65274404Y-44204819D01*
X39383333Y-21259580D02*
X39335714Y-21307200D01*
X39335714Y-21307200D02*
X39192857Y-21354819D01*
X39192857Y-21354819D02*
X39097619Y-21354819D01*
X39097619Y-21354819D02*
X38954762Y-21307200D01*
X38954762Y-21307200D02*
X38859524Y-21211961D01*
X38859524Y-21211961D02*
X38811905Y-21116723D01*
X38811905Y-21116723D02*
X38764286Y-20926247D01*
X38764286Y-20926247D02*
X38764286Y-20783390D01*
X38764286Y-20783390D02*
X38811905Y-20592914D01*
X38811905Y-20592914D02*
X38859524Y-20497676D01*
X38859524Y-20497676D02*
X38954762Y-20402438D01*
X38954762Y-20402438D02*
X39097619Y-20354819D01*
X39097619Y-20354819D02*
X39192857Y-20354819D01*
X39192857Y-20354819D02*
X39335714Y-20402438D01*
X39335714Y-20402438D02*
X39383333Y-20450057D01*
X40145238Y-20831009D02*
X40288095Y-20878628D01*
X40288095Y-20878628D02*
X40335714Y-20926247D01*
X40335714Y-20926247D02*
X40383333Y-21021485D01*
X40383333Y-21021485D02*
X40383333Y-21164342D01*
X40383333Y-21164342D02*
X40335714Y-21259580D01*
X40335714Y-21259580D02*
X40288095Y-21307200D01*
X40288095Y-21307200D02*
X40192857Y-21354819D01*
X40192857Y-21354819D02*
X39811905Y-21354819D01*
X39811905Y-21354819D02*
X39811905Y-20354819D01*
X39811905Y-20354819D02*
X40145238Y-20354819D01*
X40145238Y-20354819D02*
X40240476Y-20402438D01*
X40240476Y-20402438D02*
X40288095Y-20450057D01*
X40288095Y-20450057D02*
X40335714Y-20545295D01*
X40335714Y-20545295D02*
X40335714Y-20640533D01*
X40335714Y-20640533D02*
X40288095Y-20735771D01*
X40288095Y-20735771D02*
X40240476Y-20783390D01*
X40240476Y-20783390D02*
X40145238Y-20831009D01*
X40145238Y-20831009D02*
X39811905Y-20831009D01*
X41335714Y-21354819D02*
X40764286Y-21354819D01*
X41050000Y-21354819D02*
X41050000Y-20354819D01*
X41050000Y-20354819D02*
X40954762Y-20497676D01*
X40954762Y-20497676D02*
X40859524Y-20592914D01*
X40859524Y-20592914D02*
X40764286Y-20640533D01*
X56729819Y-52366666D02*
X56253628Y-52699999D01*
X56729819Y-52938094D02*
X55729819Y-52938094D01*
X55729819Y-52938094D02*
X55729819Y-52557142D01*
X55729819Y-52557142D02*
X55777438Y-52461904D01*
X55777438Y-52461904D02*
X55825057Y-52414285D01*
X55825057Y-52414285D02*
X55920295Y-52366666D01*
X55920295Y-52366666D02*
X56063152Y-52366666D01*
X56063152Y-52366666D02*
X56158390Y-52414285D01*
X56158390Y-52414285D02*
X56206009Y-52461904D01*
X56206009Y-52461904D02*
X56253628Y-52557142D01*
X56253628Y-52557142D02*
X56253628Y-52938094D01*
X56729819Y-51890475D02*
X56729819Y-51699999D01*
X56729819Y-51699999D02*
X56682200Y-51604761D01*
X56682200Y-51604761D02*
X56634580Y-51557142D01*
X56634580Y-51557142D02*
X56491723Y-51461904D01*
X56491723Y-51461904D02*
X56301247Y-51414285D01*
X56301247Y-51414285D02*
X55920295Y-51414285D01*
X55920295Y-51414285D02*
X55825057Y-51461904D01*
X55825057Y-51461904D02*
X55777438Y-51509523D01*
X55777438Y-51509523D02*
X55729819Y-51604761D01*
X55729819Y-51604761D02*
X55729819Y-51795237D01*
X55729819Y-51795237D02*
X55777438Y-51890475D01*
X55777438Y-51890475D02*
X55825057Y-51938094D01*
X55825057Y-51938094D02*
X55920295Y-51985713D01*
X55920295Y-51985713D02*
X56158390Y-51985713D01*
X56158390Y-51985713D02*
X56253628Y-51938094D01*
X56253628Y-51938094D02*
X56301247Y-51890475D01*
X56301247Y-51890475D02*
X56348866Y-51795237D01*
X56348866Y-51795237D02*
X56348866Y-51604761D01*
X56348866Y-51604761D02*
X56301247Y-51509523D01*
X56301247Y-51509523D02*
X56253628Y-51461904D01*
X56253628Y-51461904D02*
X56158390Y-51414285D01*
X73004819Y-28041666D02*
X72528628Y-28374999D01*
X73004819Y-28613094D02*
X72004819Y-28613094D01*
X72004819Y-28613094D02*
X72004819Y-28232142D01*
X72004819Y-28232142D02*
X72052438Y-28136904D01*
X72052438Y-28136904D02*
X72100057Y-28089285D01*
X72100057Y-28089285D02*
X72195295Y-28041666D01*
X72195295Y-28041666D02*
X72338152Y-28041666D01*
X72338152Y-28041666D02*
X72433390Y-28089285D01*
X72433390Y-28089285D02*
X72481009Y-28136904D01*
X72481009Y-28136904D02*
X72528628Y-28232142D01*
X72528628Y-28232142D02*
X72528628Y-28613094D01*
X72004819Y-27708332D02*
X72004819Y-27089285D01*
X72004819Y-27089285D02*
X72385771Y-27422618D01*
X72385771Y-27422618D02*
X72385771Y-27279761D01*
X72385771Y-27279761D02*
X72433390Y-27184523D01*
X72433390Y-27184523D02*
X72481009Y-27136904D01*
X72481009Y-27136904D02*
X72576247Y-27089285D01*
X72576247Y-27089285D02*
X72814342Y-27089285D01*
X72814342Y-27089285D02*
X72909580Y-27136904D01*
X72909580Y-27136904D02*
X72957200Y-27184523D01*
X72957200Y-27184523D02*
X73004819Y-27279761D01*
X73004819Y-27279761D02*
X73004819Y-27565475D01*
X73004819Y-27565475D02*
X72957200Y-27660713D01*
X72957200Y-27660713D02*
X72909580Y-27708332D01*
X26411905Y-54004819D02*
X26411905Y-53004819D01*
X26411905Y-53004819D02*
X26650000Y-53004819D01*
X26650000Y-53004819D02*
X26792857Y-53052438D01*
X26792857Y-53052438D02*
X26888095Y-53147676D01*
X26888095Y-53147676D02*
X26935714Y-53242914D01*
X26935714Y-53242914D02*
X26983333Y-53433390D01*
X26983333Y-53433390D02*
X26983333Y-53576247D01*
X26983333Y-53576247D02*
X26935714Y-53766723D01*
X26935714Y-53766723D02*
X26888095Y-53861961D01*
X26888095Y-53861961D02*
X26792857Y-53957200D01*
X26792857Y-53957200D02*
X26650000Y-54004819D01*
X26650000Y-54004819D02*
X26411905Y-54004819D01*
X27364286Y-53100057D02*
X27411905Y-53052438D01*
X27411905Y-53052438D02*
X27507143Y-53004819D01*
X27507143Y-53004819D02*
X27745238Y-53004819D01*
X27745238Y-53004819D02*
X27840476Y-53052438D01*
X27840476Y-53052438D02*
X27888095Y-53100057D01*
X27888095Y-53100057D02*
X27935714Y-53195295D01*
X27935714Y-53195295D02*
X27935714Y-53290533D01*
X27935714Y-53290533D02*
X27888095Y-53433390D01*
X27888095Y-53433390D02*
X27316667Y-54004819D01*
X27316667Y-54004819D02*
X27935714Y-54004819D01*
X37204819Y-43261904D02*
X38014342Y-43261904D01*
X38014342Y-43261904D02*
X38109580Y-43214285D01*
X38109580Y-43214285D02*
X38157200Y-43166666D01*
X38157200Y-43166666D02*
X38204819Y-43071428D01*
X38204819Y-43071428D02*
X38204819Y-42880952D01*
X38204819Y-42880952D02*
X38157200Y-42785714D01*
X38157200Y-42785714D02*
X38109580Y-42738095D01*
X38109580Y-42738095D02*
X38014342Y-42690476D01*
X38014342Y-42690476D02*
X37204819Y-42690476D01*
X37300057Y-42261904D02*
X37252438Y-42214285D01*
X37252438Y-42214285D02*
X37204819Y-42119047D01*
X37204819Y-42119047D02*
X37204819Y-41880952D01*
X37204819Y-41880952D02*
X37252438Y-41785714D01*
X37252438Y-41785714D02*
X37300057Y-41738095D01*
X37300057Y-41738095D02*
X37395295Y-41690476D01*
X37395295Y-41690476D02*
X37490533Y-41690476D01*
X37490533Y-41690476D02*
X37633390Y-41738095D01*
X37633390Y-41738095D02*
X38204819Y-42309523D01*
X38204819Y-42309523D02*
X38204819Y-41690476D01*
X72884580Y-25541666D02*
X72932200Y-25589285D01*
X72932200Y-25589285D02*
X72979819Y-25732142D01*
X72979819Y-25732142D02*
X72979819Y-25827380D01*
X72979819Y-25827380D02*
X72932200Y-25970237D01*
X72932200Y-25970237D02*
X72836961Y-26065475D01*
X72836961Y-26065475D02*
X72741723Y-26113094D01*
X72741723Y-26113094D02*
X72551247Y-26160713D01*
X72551247Y-26160713D02*
X72408390Y-26160713D01*
X72408390Y-26160713D02*
X72217914Y-26113094D01*
X72217914Y-26113094D02*
X72122676Y-26065475D01*
X72122676Y-26065475D02*
X72027438Y-25970237D01*
X72027438Y-25970237D02*
X71979819Y-25827380D01*
X71979819Y-25827380D02*
X71979819Y-25732142D01*
X71979819Y-25732142D02*
X72027438Y-25589285D01*
X72027438Y-25589285D02*
X72075057Y-25541666D01*
X72075057Y-25160713D02*
X72027438Y-25113094D01*
X72027438Y-25113094D02*
X71979819Y-25017856D01*
X71979819Y-25017856D02*
X71979819Y-24779761D01*
X71979819Y-24779761D02*
X72027438Y-24684523D01*
X72027438Y-24684523D02*
X72075057Y-24636904D01*
X72075057Y-24636904D02*
X72170295Y-24589285D01*
X72170295Y-24589285D02*
X72265533Y-24589285D01*
X72265533Y-24589285D02*
X72408390Y-24636904D01*
X72408390Y-24636904D02*
X72979819Y-25208332D01*
X72979819Y-25208332D02*
X72979819Y-24589285D01*
X51286905Y-46704819D02*
X51286905Y-45704819D01*
X51286905Y-45704819D02*
X51525000Y-45704819D01*
X51525000Y-45704819D02*
X51667857Y-45752438D01*
X51667857Y-45752438D02*
X51763095Y-45847676D01*
X51763095Y-45847676D02*
X51810714Y-45942914D01*
X51810714Y-45942914D02*
X51858333Y-46133390D01*
X51858333Y-46133390D02*
X51858333Y-46276247D01*
X51858333Y-46276247D02*
X51810714Y-46466723D01*
X51810714Y-46466723D02*
X51763095Y-46561961D01*
X51763095Y-46561961D02*
X51667857Y-46657200D01*
X51667857Y-46657200D02*
X51525000Y-46704819D01*
X51525000Y-46704819D02*
X51286905Y-46704819D01*
X52715476Y-46038152D02*
X52715476Y-46704819D01*
X52477381Y-45657200D02*
X52239286Y-46371485D01*
X52239286Y-46371485D02*
X52858333Y-46371485D01*
X51667319Y-52342857D02*
X51191128Y-52676190D01*
X51667319Y-52914285D02*
X50667319Y-52914285D01*
X50667319Y-52914285D02*
X50667319Y-52533333D01*
X50667319Y-52533333D02*
X50714938Y-52438095D01*
X50714938Y-52438095D02*
X50762557Y-52390476D01*
X50762557Y-52390476D02*
X50857795Y-52342857D01*
X50857795Y-52342857D02*
X51000652Y-52342857D01*
X51000652Y-52342857D02*
X51095890Y-52390476D01*
X51095890Y-52390476D02*
X51143509Y-52438095D01*
X51143509Y-52438095D02*
X51191128Y-52533333D01*
X51191128Y-52533333D02*
X51191128Y-52914285D01*
X51667319Y-51390476D02*
X51667319Y-51961904D01*
X51667319Y-51676190D02*
X50667319Y-51676190D01*
X50667319Y-51676190D02*
X50810176Y-51771428D01*
X50810176Y-51771428D02*
X50905414Y-51866666D01*
X50905414Y-51866666D02*
X50953033Y-51961904D01*
X50667319Y-51057142D02*
X50667319Y-50438095D01*
X50667319Y-50438095D02*
X51048271Y-50771428D01*
X51048271Y-50771428D02*
X51048271Y-50628571D01*
X51048271Y-50628571D02*
X51095890Y-50533333D01*
X51095890Y-50533333D02*
X51143509Y-50485714D01*
X51143509Y-50485714D02*
X51238747Y-50438095D01*
X51238747Y-50438095D02*
X51476842Y-50438095D01*
X51476842Y-50438095D02*
X51572080Y-50485714D01*
X51572080Y-50485714D02*
X51619700Y-50533333D01*
X51619700Y-50533333D02*
X51667319Y-50628571D01*
X51667319Y-50628571D02*
X51667319Y-50914285D01*
X51667319Y-50914285D02*
X51619700Y-51009523D01*
X51619700Y-51009523D02*
X51572080Y-51057142D01*
X63369642Y-46604819D02*
X63036309Y-46128628D01*
X62798214Y-46604819D02*
X62798214Y-45604819D01*
X62798214Y-45604819D02*
X63179166Y-45604819D01*
X63179166Y-45604819D02*
X63274404Y-45652438D01*
X63274404Y-45652438D02*
X63322023Y-45700057D01*
X63322023Y-45700057D02*
X63369642Y-45795295D01*
X63369642Y-45795295D02*
X63369642Y-45938152D01*
X63369642Y-45938152D02*
X63322023Y-46033390D01*
X63322023Y-46033390D02*
X63274404Y-46081009D01*
X63274404Y-46081009D02*
X63179166Y-46128628D01*
X63179166Y-46128628D02*
X62798214Y-46128628D01*
X64322023Y-46604819D02*
X63750595Y-46604819D01*
X64036309Y-46604819D02*
X64036309Y-45604819D01*
X64036309Y-45604819D02*
X63941071Y-45747676D01*
X63941071Y-45747676D02*
X63845833Y-45842914D01*
X63845833Y-45842914D02*
X63750595Y-45890533D01*
X64941071Y-45604819D02*
X65036309Y-45604819D01*
X65036309Y-45604819D02*
X65131547Y-45652438D01*
X65131547Y-45652438D02*
X65179166Y-45700057D01*
X65179166Y-45700057D02*
X65226785Y-45795295D01*
X65226785Y-45795295D02*
X65274404Y-45985771D01*
X65274404Y-45985771D02*
X65274404Y-46223866D01*
X65274404Y-46223866D02*
X65226785Y-46414342D01*
X65226785Y-46414342D02*
X65179166Y-46509580D01*
X65179166Y-46509580D02*
X65131547Y-46557200D01*
X65131547Y-46557200D02*
X65036309Y-46604819D01*
X65036309Y-46604819D02*
X64941071Y-46604819D01*
X64941071Y-46604819D02*
X64845833Y-46557200D01*
X64845833Y-46557200D02*
X64798214Y-46509580D01*
X64798214Y-46509580D02*
X64750595Y-46414342D01*
X64750595Y-46414342D02*
X64702976Y-46223866D01*
X64702976Y-46223866D02*
X64702976Y-45985771D01*
X64702976Y-45985771D02*
X64750595Y-45795295D01*
X64750595Y-45795295D02*
X64798214Y-45700057D01*
X64798214Y-45700057D02*
X64845833Y-45652438D01*
X64845833Y-45652438D02*
X64941071Y-45604819D01*
X63369642Y-39204819D02*
X63036309Y-38728628D01*
X62798214Y-39204819D02*
X62798214Y-38204819D01*
X62798214Y-38204819D02*
X63179166Y-38204819D01*
X63179166Y-38204819D02*
X63274404Y-38252438D01*
X63274404Y-38252438D02*
X63322023Y-38300057D01*
X63322023Y-38300057D02*
X63369642Y-38395295D01*
X63369642Y-38395295D02*
X63369642Y-38538152D01*
X63369642Y-38538152D02*
X63322023Y-38633390D01*
X63322023Y-38633390D02*
X63274404Y-38681009D01*
X63274404Y-38681009D02*
X63179166Y-38728628D01*
X63179166Y-38728628D02*
X62798214Y-38728628D01*
X64322023Y-39204819D02*
X63750595Y-39204819D01*
X64036309Y-39204819D02*
X64036309Y-38204819D01*
X64036309Y-38204819D02*
X63941071Y-38347676D01*
X63941071Y-38347676D02*
X63845833Y-38442914D01*
X63845833Y-38442914D02*
X63750595Y-38490533D01*
X65179166Y-38204819D02*
X64988690Y-38204819D01*
X64988690Y-38204819D02*
X64893452Y-38252438D01*
X64893452Y-38252438D02*
X64845833Y-38300057D01*
X64845833Y-38300057D02*
X64750595Y-38442914D01*
X64750595Y-38442914D02*
X64702976Y-38633390D01*
X64702976Y-38633390D02*
X64702976Y-39014342D01*
X64702976Y-39014342D02*
X64750595Y-39109580D01*
X64750595Y-39109580D02*
X64798214Y-39157200D01*
X64798214Y-39157200D02*
X64893452Y-39204819D01*
X64893452Y-39204819D02*
X65083928Y-39204819D01*
X65083928Y-39204819D02*
X65179166Y-39157200D01*
X65179166Y-39157200D02*
X65226785Y-39109580D01*
X65226785Y-39109580D02*
X65274404Y-39014342D01*
X65274404Y-39014342D02*
X65274404Y-38776247D01*
X65274404Y-38776247D02*
X65226785Y-38681009D01*
X65226785Y-38681009D02*
X65179166Y-38633390D01*
X65179166Y-38633390D02*
X65083928Y-38585771D01*
X65083928Y-38585771D02*
X64893452Y-38585771D01*
X64893452Y-38585771D02*
X64798214Y-38633390D01*
X64798214Y-38633390D02*
X64750595Y-38681009D01*
X64750595Y-38681009D02*
X64702976Y-38776247D01*
X39754819Y-61271428D02*
X39754819Y-60700000D01*
X40754819Y-60985714D02*
X39754819Y-60985714D01*
X39754819Y-60509523D02*
X39754819Y-59938095D01*
X40754819Y-60223809D02*
X39754819Y-60223809D01*
X40278628Y-59414285D02*
X40754819Y-59414285D01*
X39754819Y-59747618D02*
X40278628Y-59414285D01*
X40278628Y-59414285D02*
X39754819Y-59080952D01*
X40754819Y-58223809D02*
X40754819Y-58795237D01*
X40754819Y-58509523D02*
X39754819Y-58509523D01*
X39754819Y-58509523D02*
X39897676Y-58604761D01*
X39897676Y-58604761D02*
X39992914Y-58699999D01*
X39992914Y-58699999D02*
X40040533Y-58795237D01*
X51286905Y-44179819D02*
X51286905Y-43179819D01*
X51286905Y-43179819D02*
X51525000Y-43179819D01*
X51525000Y-43179819D02*
X51667857Y-43227438D01*
X51667857Y-43227438D02*
X51763095Y-43322676D01*
X51763095Y-43322676D02*
X51810714Y-43417914D01*
X51810714Y-43417914D02*
X51858333Y-43608390D01*
X51858333Y-43608390D02*
X51858333Y-43751247D01*
X51858333Y-43751247D02*
X51810714Y-43941723D01*
X51810714Y-43941723D02*
X51763095Y-44036961D01*
X51763095Y-44036961D02*
X51667857Y-44132200D01*
X51667857Y-44132200D02*
X51525000Y-44179819D01*
X51525000Y-44179819D02*
X51286905Y-44179819D01*
X52763095Y-43179819D02*
X52286905Y-43179819D01*
X52286905Y-43179819D02*
X52239286Y-43656009D01*
X52239286Y-43656009D02*
X52286905Y-43608390D01*
X52286905Y-43608390D02*
X52382143Y-43560771D01*
X52382143Y-43560771D02*
X52620238Y-43560771D01*
X52620238Y-43560771D02*
X52715476Y-43608390D01*
X52715476Y-43608390D02*
X52763095Y-43656009D01*
X52763095Y-43656009D02*
X52810714Y-43751247D01*
X52810714Y-43751247D02*
X52810714Y-43989342D01*
X52810714Y-43989342D02*
X52763095Y-44084580D01*
X52763095Y-44084580D02*
X52715476Y-44132200D01*
X52715476Y-44132200D02*
X52620238Y-44179819D01*
X52620238Y-44179819D02*
X52382143Y-44179819D01*
X52382143Y-44179819D02*
X52286905Y-44132200D01*
X52286905Y-44132200D02*
X52239286Y-44084580D01*
X67933333Y-31592319D02*
X67600000Y-31116128D01*
X67361905Y-31592319D02*
X67361905Y-30592319D01*
X67361905Y-30592319D02*
X67742857Y-30592319D01*
X67742857Y-30592319D02*
X67838095Y-30639938D01*
X67838095Y-30639938D02*
X67885714Y-30687557D01*
X67885714Y-30687557D02*
X67933333Y-30782795D01*
X67933333Y-30782795D02*
X67933333Y-30925652D01*
X67933333Y-30925652D02*
X67885714Y-31020890D01*
X67885714Y-31020890D02*
X67838095Y-31068509D01*
X67838095Y-31068509D02*
X67742857Y-31116128D01*
X67742857Y-31116128D02*
X67361905Y-31116128D01*
X68790476Y-30592319D02*
X68600000Y-30592319D01*
X68600000Y-30592319D02*
X68504762Y-30639938D01*
X68504762Y-30639938D02*
X68457143Y-30687557D01*
X68457143Y-30687557D02*
X68361905Y-30830414D01*
X68361905Y-30830414D02*
X68314286Y-31020890D01*
X68314286Y-31020890D02*
X68314286Y-31401842D01*
X68314286Y-31401842D02*
X68361905Y-31497080D01*
X68361905Y-31497080D02*
X68409524Y-31544700D01*
X68409524Y-31544700D02*
X68504762Y-31592319D01*
X68504762Y-31592319D02*
X68695238Y-31592319D01*
X68695238Y-31592319D02*
X68790476Y-31544700D01*
X68790476Y-31544700D02*
X68838095Y-31497080D01*
X68838095Y-31497080D02*
X68885714Y-31401842D01*
X68885714Y-31401842D02*
X68885714Y-31163747D01*
X68885714Y-31163747D02*
X68838095Y-31068509D01*
X68838095Y-31068509D02*
X68790476Y-31020890D01*
X68790476Y-31020890D02*
X68695238Y-30973271D01*
X68695238Y-30973271D02*
X68504762Y-30973271D01*
X68504762Y-30973271D02*
X68409524Y-31020890D01*
X68409524Y-31020890D02*
X68361905Y-31068509D01*
X68361905Y-31068509D02*
X68314286Y-31163747D01*
X41883333Y-36459580D02*
X41835714Y-36507200D01*
X41835714Y-36507200D02*
X41692857Y-36554819D01*
X41692857Y-36554819D02*
X41597619Y-36554819D01*
X41597619Y-36554819D02*
X41454762Y-36507200D01*
X41454762Y-36507200D02*
X41359524Y-36411961D01*
X41359524Y-36411961D02*
X41311905Y-36316723D01*
X41311905Y-36316723D02*
X41264286Y-36126247D01*
X41264286Y-36126247D02*
X41264286Y-35983390D01*
X41264286Y-35983390D02*
X41311905Y-35792914D01*
X41311905Y-35792914D02*
X41359524Y-35697676D01*
X41359524Y-35697676D02*
X41454762Y-35602438D01*
X41454762Y-35602438D02*
X41597619Y-35554819D01*
X41597619Y-35554819D02*
X41692857Y-35554819D01*
X41692857Y-35554819D02*
X41835714Y-35602438D01*
X41835714Y-35602438D02*
X41883333Y-35650057D01*
X42740476Y-35554819D02*
X42550000Y-35554819D01*
X42550000Y-35554819D02*
X42454762Y-35602438D01*
X42454762Y-35602438D02*
X42407143Y-35650057D01*
X42407143Y-35650057D02*
X42311905Y-35792914D01*
X42311905Y-35792914D02*
X42264286Y-35983390D01*
X42264286Y-35983390D02*
X42264286Y-36364342D01*
X42264286Y-36364342D02*
X42311905Y-36459580D01*
X42311905Y-36459580D02*
X42359524Y-36507200D01*
X42359524Y-36507200D02*
X42454762Y-36554819D01*
X42454762Y-36554819D02*
X42645238Y-36554819D01*
X42645238Y-36554819D02*
X42740476Y-36507200D01*
X42740476Y-36507200D02*
X42788095Y-36459580D01*
X42788095Y-36459580D02*
X42835714Y-36364342D01*
X42835714Y-36364342D02*
X42835714Y-36126247D01*
X42835714Y-36126247D02*
X42788095Y-36031009D01*
X42788095Y-36031009D02*
X42740476Y-35983390D01*
X42740476Y-35983390D02*
X42645238Y-35935771D01*
X42645238Y-35935771D02*
X42454762Y-35935771D01*
X42454762Y-35935771D02*
X42359524Y-35983390D01*
X42359524Y-35983390D02*
X42311905Y-36031009D01*
X42311905Y-36031009D02*
X42264286Y-36126247D01*
X61934104Y-61201189D02*
X61934104Y-60724999D01*
X62219819Y-61296427D02*
X61219819Y-60963094D01*
X61219819Y-60963094D02*
X62219819Y-60629761D01*
X62219819Y-60296427D02*
X61219819Y-60296427D01*
X62219819Y-59820237D02*
X61219819Y-59820237D01*
X61219819Y-59820237D02*
X62219819Y-59248809D01*
X62219819Y-59248809D02*
X61219819Y-59248809D01*
X62219819Y-58248809D02*
X62219819Y-58820237D01*
X62219819Y-58534523D02*
X61219819Y-58534523D01*
X61219819Y-58534523D02*
X61362676Y-58629761D01*
X61362676Y-58629761D02*
X61457914Y-58724999D01*
X61457914Y-58724999D02*
X61505533Y-58820237D01*
X23930476Y-32134819D02*
X24263809Y-33134819D01*
X24263809Y-33134819D02*
X24597142Y-32134819D01*
X25454285Y-33134819D02*
X24882857Y-33134819D01*
X25168571Y-33134819D02*
X25168571Y-32134819D01*
X25168571Y-32134819D02*
X25073333Y-32277676D01*
X25073333Y-32277676D02*
X24978095Y-32372914D01*
X24978095Y-32372914D02*
X24882857Y-32420533D01*
X63345833Y-49204819D02*
X63012500Y-48728628D01*
X62774405Y-49204819D02*
X62774405Y-48204819D01*
X62774405Y-48204819D02*
X63155357Y-48204819D01*
X63155357Y-48204819D02*
X63250595Y-48252438D01*
X63250595Y-48252438D02*
X63298214Y-48300057D01*
X63298214Y-48300057D02*
X63345833Y-48395295D01*
X63345833Y-48395295D02*
X63345833Y-48538152D01*
X63345833Y-48538152D02*
X63298214Y-48633390D01*
X63298214Y-48633390D02*
X63250595Y-48681009D01*
X63250595Y-48681009D02*
X63155357Y-48728628D01*
X63155357Y-48728628D02*
X62774405Y-48728628D01*
X63917262Y-48633390D02*
X63822024Y-48585771D01*
X63822024Y-48585771D02*
X63774405Y-48538152D01*
X63774405Y-48538152D02*
X63726786Y-48442914D01*
X63726786Y-48442914D02*
X63726786Y-48395295D01*
X63726786Y-48395295D02*
X63774405Y-48300057D01*
X63774405Y-48300057D02*
X63822024Y-48252438D01*
X63822024Y-48252438D02*
X63917262Y-48204819D01*
X63917262Y-48204819D02*
X64107738Y-48204819D01*
X64107738Y-48204819D02*
X64202976Y-48252438D01*
X64202976Y-48252438D02*
X64250595Y-48300057D01*
X64250595Y-48300057D02*
X64298214Y-48395295D01*
X64298214Y-48395295D02*
X64298214Y-48442914D01*
X64298214Y-48442914D02*
X64250595Y-48538152D01*
X64250595Y-48538152D02*
X64202976Y-48585771D01*
X64202976Y-48585771D02*
X64107738Y-48633390D01*
X64107738Y-48633390D02*
X63917262Y-48633390D01*
X63917262Y-48633390D02*
X63822024Y-48681009D01*
X63822024Y-48681009D02*
X63774405Y-48728628D01*
X63774405Y-48728628D02*
X63726786Y-48823866D01*
X63726786Y-48823866D02*
X63726786Y-49014342D01*
X63726786Y-49014342D02*
X63774405Y-49109580D01*
X63774405Y-49109580D02*
X63822024Y-49157200D01*
X63822024Y-49157200D02*
X63917262Y-49204819D01*
X63917262Y-49204819D02*
X64107738Y-49204819D01*
X64107738Y-49204819D02*
X64202976Y-49157200D01*
X64202976Y-49157200D02*
X64250595Y-49109580D01*
X64250595Y-49109580D02*
X64298214Y-49014342D01*
X64298214Y-49014342D02*
X64298214Y-48823866D01*
X64298214Y-48823866D02*
X64250595Y-48728628D01*
X64250595Y-48728628D02*
X64202976Y-48681009D01*
X64202976Y-48681009D02*
X64107738Y-48633390D01*
X35759580Y-37966666D02*
X35807200Y-38014285D01*
X35807200Y-38014285D02*
X35854819Y-38157142D01*
X35854819Y-38157142D02*
X35854819Y-38252380D01*
X35854819Y-38252380D02*
X35807200Y-38395237D01*
X35807200Y-38395237D02*
X35711961Y-38490475D01*
X35711961Y-38490475D02*
X35616723Y-38538094D01*
X35616723Y-38538094D02*
X35426247Y-38585713D01*
X35426247Y-38585713D02*
X35283390Y-38585713D01*
X35283390Y-38585713D02*
X35092914Y-38538094D01*
X35092914Y-38538094D02*
X34997676Y-38490475D01*
X34997676Y-38490475D02*
X34902438Y-38395237D01*
X34902438Y-38395237D02*
X34854819Y-38252380D01*
X34854819Y-38252380D02*
X34854819Y-38157142D01*
X34854819Y-38157142D02*
X34902438Y-38014285D01*
X34902438Y-38014285D02*
X34950057Y-37966666D01*
X34854819Y-37633332D02*
X34854819Y-37014285D01*
X34854819Y-37014285D02*
X35235771Y-37347618D01*
X35235771Y-37347618D02*
X35235771Y-37204761D01*
X35235771Y-37204761D02*
X35283390Y-37109523D01*
X35283390Y-37109523D02*
X35331009Y-37061904D01*
X35331009Y-37061904D02*
X35426247Y-37014285D01*
X35426247Y-37014285D02*
X35664342Y-37014285D01*
X35664342Y-37014285D02*
X35759580Y-37061904D01*
X35759580Y-37061904D02*
X35807200Y-37109523D01*
X35807200Y-37109523D02*
X35854819Y-37204761D01*
X35854819Y-37204761D02*
X35854819Y-37490475D01*
X35854819Y-37490475D02*
X35807200Y-37585713D01*
X35807200Y-37585713D02*
X35759580Y-37633332D01*
X39554819Y-57061904D02*
X40364342Y-57061904D01*
X40364342Y-57061904D02*
X40459580Y-57014285D01*
X40459580Y-57014285D02*
X40507200Y-56966666D01*
X40507200Y-56966666D02*
X40554819Y-56871428D01*
X40554819Y-56871428D02*
X40554819Y-56680952D01*
X40554819Y-56680952D02*
X40507200Y-56585714D01*
X40507200Y-56585714D02*
X40459580Y-56538095D01*
X40459580Y-56538095D02*
X40364342Y-56490476D01*
X40364342Y-56490476D02*
X39554819Y-56490476D01*
X39888152Y-55585714D02*
X40554819Y-55585714D01*
X39507200Y-55823809D02*
X40221485Y-56061904D01*
X40221485Y-56061904D02*
X40221485Y-55442857D01*
X27811905Y-44229819D02*
X27811905Y-43229819D01*
X27811905Y-43229819D02*
X28050000Y-43229819D01*
X28050000Y-43229819D02*
X28192857Y-43277438D01*
X28192857Y-43277438D02*
X28288095Y-43372676D01*
X28288095Y-43372676D02*
X28335714Y-43467914D01*
X28335714Y-43467914D02*
X28383333Y-43658390D01*
X28383333Y-43658390D02*
X28383333Y-43801247D01*
X28383333Y-43801247D02*
X28335714Y-43991723D01*
X28335714Y-43991723D02*
X28288095Y-44086961D01*
X28288095Y-44086961D02*
X28192857Y-44182200D01*
X28192857Y-44182200D02*
X28050000Y-44229819D01*
X28050000Y-44229819D02*
X27811905Y-44229819D01*
X29240476Y-43229819D02*
X29050000Y-43229819D01*
X29050000Y-43229819D02*
X28954762Y-43277438D01*
X28954762Y-43277438D02*
X28907143Y-43325057D01*
X28907143Y-43325057D02*
X28811905Y-43467914D01*
X28811905Y-43467914D02*
X28764286Y-43658390D01*
X28764286Y-43658390D02*
X28764286Y-44039342D01*
X28764286Y-44039342D02*
X28811905Y-44134580D01*
X28811905Y-44134580D02*
X28859524Y-44182200D01*
X28859524Y-44182200D02*
X28954762Y-44229819D01*
X28954762Y-44229819D02*
X29145238Y-44229819D01*
X29145238Y-44229819D02*
X29240476Y-44182200D01*
X29240476Y-44182200D02*
X29288095Y-44134580D01*
X29288095Y-44134580D02*
X29335714Y-44039342D01*
X29335714Y-44039342D02*
X29335714Y-43801247D01*
X29335714Y-43801247D02*
X29288095Y-43706009D01*
X29288095Y-43706009D02*
X29240476Y-43658390D01*
X29240476Y-43658390D02*
X29145238Y-43610771D01*
X29145238Y-43610771D02*
X28954762Y-43610771D01*
X28954762Y-43610771D02*
X28859524Y-43658390D01*
X28859524Y-43658390D02*
X28811905Y-43706009D01*
X28811905Y-43706009D02*
X28764286Y-43801247D01*
X30634819Y-56318094D02*
X29634819Y-56318094D01*
X29634819Y-56318094D02*
X29634819Y-56079999D01*
X29634819Y-56079999D02*
X29682438Y-55937142D01*
X29682438Y-55937142D02*
X29777676Y-55841904D01*
X29777676Y-55841904D02*
X29872914Y-55794285D01*
X29872914Y-55794285D02*
X30063390Y-55746666D01*
X30063390Y-55746666D02*
X30206247Y-55746666D01*
X30206247Y-55746666D02*
X30396723Y-55794285D01*
X30396723Y-55794285D02*
X30491961Y-55841904D01*
X30491961Y-55841904D02*
X30587200Y-55937142D01*
X30587200Y-55937142D02*
X30634819Y-56079999D01*
X30634819Y-56079999D02*
X30634819Y-56318094D01*
X30634819Y-55270475D02*
X30634819Y-55079999D01*
X30634819Y-55079999D02*
X30587200Y-54984761D01*
X30587200Y-54984761D02*
X30539580Y-54937142D01*
X30539580Y-54937142D02*
X30396723Y-54841904D01*
X30396723Y-54841904D02*
X30206247Y-54794285D01*
X30206247Y-54794285D02*
X29825295Y-54794285D01*
X29825295Y-54794285D02*
X29730057Y-54841904D01*
X29730057Y-54841904D02*
X29682438Y-54889523D01*
X29682438Y-54889523D02*
X29634819Y-54984761D01*
X29634819Y-54984761D02*
X29634819Y-55175237D01*
X29634819Y-55175237D02*
X29682438Y-55270475D01*
X29682438Y-55270475D02*
X29730057Y-55318094D01*
X29730057Y-55318094D02*
X29825295Y-55365713D01*
X29825295Y-55365713D02*
X30063390Y-55365713D01*
X30063390Y-55365713D02*
X30158628Y-55318094D01*
X30158628Y-55318094D02*
X30206247Y-55270475D01*
X30206247Y-55270475D02*
X30253866Y-55175237D01*
X30253866Y-55175237D02*
X30253866Y-54984761D01*
X30253866Y-54984761D02*
X30206247Y-54889523D01*
X30206247Y-54889523D02*
X30158628Y-54841904D01*
X30158628Y-54841904D02*
X30063390Y-54794285D01*
X51286905Y-49204819D02*
X51286905Y-48204819D01*
X51286905Y-48204819D02*
X51525000Y-48204819D01*
X51525000Y-48204819D02*
X51667857Y-48252438D01*
X51667857Y-48252438D02*
X51763095Y-48347676D01*
X51763095Y-48347676D02*
X51810714Y-48442914D01*
X51810714Y-48442914D02*
X51858333Y-48633390D01*
X51858333Y-48633390D02*
X51858333Y-48776247D01*
X51858333Y-48776247D02*
X51810714Y-48966723D01*
X51810714Y-48966723D02*
X51763095Y-49061961D01*
X51763095Y-49061961D02*
X51667857Y-49157200D01*
X51667857Y-49157200D02*
X51525000Y-49204819D01*
X51525000Y-49204819D02*
X51286905Y-49204819D01*
X52191667Y-48204819D02*
X52810714Y-48204819D01*
X52810714Y-48204819D02*
X52477381Y-48585771D01*
X52477381Y-48585771D02*
X52620238Y-48585771D01*
X52620238Y-48585771D02*
X52715476Y-48633390D01*
X52715476Y-48633390D02*
X52763095Y-48681009D01*
X52763095Y-48681009D02*
X52810714Y-48776247D01*
X52810714Y-48776247D02*
X52810714Y-49014342D01*
X52810714Y-49014342D02*
X52763095Y-49109580D01*
X52763095Y-49109580D02*
X52715476Y-49157200D01*
X52715476Y-49157200D02*
X52620238Y-49204819D01*
X52620238Y-49204819D02*
X52334524Y-49204819D01*
X52334524Y-49204819D02*
X52239286Y-49157200D01*
X52239286Y-49157200D02*
X52191667Y-49109580D01*
X34454819Y-50567857D02*
X33978628Y-50901190D01*
X34454819Y-51139285D02*
X33454819Y-51139285D01*
X33454819Y-51139285D02*
X33454819Y-50758333D01*
X33454819Y-50758333D02*
X33502438Y-50663095D01*
X33502438Y-50663095D02*
X33550057Y-50615476D01*
X33550057Y-50615476D02*
X33645295Y-50567857D01*
X33645295Y-50567857D02*
X33788152Y-50567857D01*
X33788152Y-50567857D02*
X33883390Y-50615476D01*
X33883390Y-50615476D02*
X33931009Y-50663095D01*
X33931009Y-50663095D02*
X33978628Y-50758333D01*
X33978628Y-50758333D02*
X33978628Y-51139285D01*
X34454819Y-49615476D02*
X34454819Y-50186904D01*
X34454819Y-49901190D02*
X33454819Y-49901190D01*
X33454819Y-49901190D02*
X33597676Y-49996428D01*
X33597676Y-49996428D02*
X33692914Y-50091666D01*
X33692914Y-50091666D02*
X33740533Y-50186904D01*
X33454819Y-49282142D02*
X33454819Y-48615476D01*
X33454819Y-48615476D02*
X34454819Y-49044047D01*
X54083333Y-36459580D02*
X54035714Y-36507200D01*
X54035714Y-36507200D02*
X53892857Y-36554819D01*
X53892857Y-36554819D02*
X53797619Y-36554819D01*
X53797619Y-36554819D02*
X53654762Y-36507200D01*
X53654762Y-36507200D02*
X53559524Y-36411961D01*
X53559524Y-36411961D02*
X53511905Y-36316723D01*
X53511905Y-36316723D02*
X53464286Y-36126247D01*
X53464286Y-36126247D02*
X53464286Y-35983390D01*
X53464286Y-35983390D02*
X53511905Y-35792914D01*
X53511905Y-35792914D02*
X53559524Y-35697676D01*
X53559524Y-35697676D02*
X53654762Y-35602438D01*
X53654762Y-35602438D02*
X53797619Y-35554819D01*
X53797619Y-35554819D02*
X53892857Y-35554819D01*
X53892857Y-35554819D02*
X54035714Y-35602438D01*
X54035714Y-35602438D02*
X54083333Y-35650057D01*
X54416667Y-35554819D02*
X55083333Y-35554819D01*
X55083333Y-35554819D02*
X54654762Y-36554819D01*
X75988095Y-55204819D02*
X75988095Y-56014342D01*
X75988095Y-56014342D02*
X76035714Y-56109580D01*
X76035714Y-56109580D02*
X76083333Y-56157200D01*
X76083333Y-56157200D02*
X76178571Y-56204819D01*
X76178571Y-56204819D02*
X76369047Y-56204819D01*
X76369047Y-56204819D02*
X76464285Y-56157200D01*
X76464285Y-56157200D02*
X76511904Y-56109580D01*
X76511904Y-56109580D02*
X76559523Y-56014342D01*
X76559523Y-56014342D02*
X76559523Y-55204819D01*
X76940476Y-55204819D02*
X77559523Y-55204819D01*
X77559523Y-55204819D02*
X77226190Y-55585771D01*
X77226190Y-55585771D02*
X77369047Y-55585771D01*
X77369047Y-55585771D02*
X77464285Y-55633390D01*
X77464285Y-55633390D02*
X77511904Y-55681009D01*
X77511904Y-55681009D02*
X77559523Y-55776247D01*
X77559523Y-55776247D02*
X77559523Y-56014342D01*
X77559523Y-56014342D02*
X77511904Y-56109580D01*
X77511904Y-56109580D02*
X77464285Y-56157200D01*
X77464285Y-56157200D02*
X77369047Y-56204819D01*
X77369047Y-56204819D02*
X77083333Y-56204819D01*
X77083333Y-56204819D02*
X76988095Y-56157200D01*
X76988095Y-56157200D02*
X76940476Y-56109580D01*
X83069104Y-49761905D02*
X83069104Y-49285715D01*
X83354819Y-49857143D02*
X82354819Y-49523810D01*
X82354819Y-49523810D02*
X83354819Y-49190477D01*
X82688152Y-48857143D02*
X83354819Y-48857143D01*
X82783390Y-48857143D02*
X82735771Y-48809524D01*
X82735771Y-48809524D02*
X82688152Y-48714286D01*
X82688152Y-48714286D02*
X82688152Y-48571429D01*
X82688152Y-48571429D02*
X82735771Y-48476191D01*
X82735771Y-48476191D02*
X82831009Y-48428572D01*
X82831009Y-48428572D02*
X83354819Y-48428572D01*
X82688152Y-48095238D02*
X82688152Y-47714286D01*
X82354819Y-47952381D02*
X83211961Y-47952381D01*
X83211961Y-47952381D02*
X83307200Y-47904762D01*
X83307200Y-47904762D02*
X83354819Y-47809524D01*
X83354819Y-47809524D02*
X83354819Y-47714286D01*
X83307200Y-47000000D02*
X83354819Y-47095238D01*
X83354819Y-47095238D02*
X83354819Y-47285714D01*
X83354819Y-47285714D02*
X83307200Y-47380952D01*
X83307200Y-47380952D02*
X83211961Y-47428571D01*
X83211961Y-47428571D02*
X82831009Y-47428571D01*
X82831009Y-47428571D02*
X82735771Y-47380952D01*
X82735771Y-47380952D02*
X82688152Y-47285714D01*
X82688152Y-47285714D02*
X82688152Y-47095238D01*
X82688152Y-47095238D02*
X82735771Y-47000000D01*
X82735771Y-47000000D02*
X82831009Y-46952381D01*
X82831009Y-46952381D02*
X82926247Y-46952381D01*
X82926247Y-46952381D02*
X83021485Y-47428571D01*
X82688152Y-46523809D02*
X83354819Y-46523809D01*
X82783390Y-46523809D02*
X82735771Y-46476190D01*
X82735771Y-46476190D02*
X82688152Y-46380952D01*
X82688152Y-46380952D02*
X82688152Y-46238095D01*
X82688152Y-46238095D02*
X82735771Y-46142857D01*
X82735771Y-46142857D02*
X82831009Y-46095238D01*
X82831009Y-46095238D02*
X83354819Y-46095238D01*
X82688152Y-45619047D02*
X83354819Y-45619047D01*
X82783390Y-45619047D02*
X82735771Y-45571428D01*
X82735771Y-45571428D02*
X82688152Y-45476190D01*
X82688152Y-45476190D02*
X82688152Y-45333333D01*
X82688152Y-45333333D02*
X82735771Y-45238095D01*
X82735771Y-45238095D02*
X82831009Y-45190476D01*
X82831009Y-45190476D02*
X83354819Y-45190476D01*
X83354819Y-44285714D02*
X82831009Y-44285714D01*
X82831009Y-44285714D02*
X82735771Y-44333333D01*
X82735771Y-44333333D02*
X82688152Y-44428571D01*
X82688152Y-44428571D02*
X82688152Y-44619047D01*
X82688152Y-44619047D02*
X82735771Y-44714285D01*
X83307200Y-44285714D02*
X83354819Y-44380952D01*
X83354819Y-44380952D02*
X83354819Y-44619047D01*
X83354819Y-44619047D02*
X83307200Y-44714285D01*
X83307200Y-44714285D02*
X83211961Y-44761904D01*
X83211961Y-44761904D02*
X83116723Y-44761904D01*
X83116723Y-44761904D02*
X83021485Y-44714285D01*
X83021485Y-44714285D02*
X82973866Y-44619047D01*
X82973866Y-44619047D02*
X82973866Y-44380952D01*
X82973866Y-44380952D02*
X82926247Y-44285714D01*
X83069104Y-43095237D02*
X83069104Y-42619047D01*
X83354819Y-43190475D02*
X82354819Y-42857142D01*
X82354819Y-42857142D02*
X83354819Y-42523809D01*
X83354819Y-42190475D02*
X82688152Y-42190475D01*
X82878628Y-42190475D02*
X82783390Y-42142856D01*
X82783390Y-42142856D02*
X82735771Y-42095237D01*
X82735771Y-42095237D02*
X82688152Y-41999999D01*
X82688152Y-41999999D02*
X82688152Y-41904761D01*
X83307200Y-41190475D02*
X83354819Y-41285713D01*
X83354819Y-41285713D02*
X83354819Y-41476189D01*
X83354819Y-41476189D02*
X83307200Y-41571427D01*
X83307200Y-41571427D02*
X83211961Y-41619046D01*
X83211961Y-41619046D02*
X82831009Y-41619046D01*
X82831009Y-41619046D02*
X82735771Y-41571427D01*
X82735771Y-41571427D02*
X82688152Y-41476189D01*
X82688152Y-41476189D02*
X82688152Y-41285713D01*
X82688152Y-41285713D02*
X82735771Y-41190475D01*
X82735771Y-41190475D02*
X82831009Y-41142856D01*
X82831009Y-41142856D02*
X82926247Y-41142856D01*
X82926247Y-41142856D02*
X83021485Y-41619046D01*
X83354819Y-40285713D02*
X82831009Y-40285713D01*
X82831009Y-40285713D02*
X82735771Y-40333332D01*
X82735771Y-40333332D02*
X82688152Y-40428570D01*
X82688152Y-40428570D02*
X82688152Y-40619046D01*
X82688152Y-40619046D02*
X82735771Y-40714284D01*
X83307200Y-40285713D02*
X83354819Y-40380951D01*
X83354819Y-40380951D02*
X83354819Y-40619046D01*
X83354819Y-40619046D02*
X83307200Y-40714284D01*
X83307200Y-40714284D02*
X83211961Y-40761903D01*
X83211961Y-40761903D02*
X83116723Y-40761903D01*
X83116723Y-40761903D02*
X83021485Y-40714284D01*
X83021485Y-40714284D02*
X82973866Y-40619046D01*
X82973866Y-40619046D02*
X82973866Y-40380951D01*
X82973866Y-40380951D02*
X82926247Y-40285713D01*
X59738095Y-33704819D02*
X59738095Y-34514342D01*
X59738095Y-34514342D02*
X59785714Y-34609580D01*
X59785714Y-34609580D02*
X59833333Y-34657200D01*
X59833333Y-34657200D02*
X59928571Y-34704819D01*
X59928571Y-34704819D02*
X60119047Y-34704819D01*
X60119047Y-34704819D02*
X60214285Y-34657200D01*
X60214285Y-34657200D02*
X60261904Y-34609580D01*
X60261904Y-34609580D02*
X60309523Y-34514342D01*
X60309523Y-34514342D02*
X60309523Y-33704819D01*
X61261904Y-33704819D02*
X60785714Y-33704819D01*
X60785714Y-33704819D02*
X60738095Y-34181009D01*
X60738095Y-34181009D02*
X60785714Y-34133390D01*
X60785714Y-34133390D02*
X60880952Y-34085771D01*
X60880952Y-34085771D02*
X61119047Y-34085771D01*
X61119047Y-34085771D02*
X61214285Y-34133390D01*
X61214285Y-34133390D02*
X61261904Y-34181009D01*
X61261904Y-34181009D02*
X61309523Y-34276247D01*
X61309523Y-34276247D02*
X61309523Y-34514342D01*
X61309523Y-34514342D02*
X61261904Y-34609580D01*
X61261904Y-34609580D02*
X61214285Y-34657200D01*
X61214285Y-34657200D02*
X61119047Y-34704819D01*
X61119047Y-34704819D02*
X60880952Y-34704819D01*
X60880952Y-34704819D02*
X60785714Y-34657200D01*
X60785714Y-34657200D02*
X60738095Y-34609580D01*
X51286905Y-39229819D02*
X51286905Y-38229819D01*
X51286905Y-38229819D02*
X51525000Y-38229819D01*
X51525000Y-38229819D02*
X51667857Y-38277438D01*
X51667857Y-38277438D02*
X51763095Y-38372676D01*
X51763095Y-38372676D02*
X51810714Y-38467914D01*
X51810714Y-38467914D02*
X51858333Y-38658390D01*
X51858333Y-38658390D02*
X51858333Y-38801247D01*
X51858333Y-38801247D02*
X51810714Y-38991723D01*
X51810714Y-38991723D02*
X51763095Y-39086961D01*
X51763095Y-39086961D02*
X51667857Y-39182200D01*
X51667857Y-39182200D02*
X51525000Y-39229819D01*
X51525000Y-39229819D02*
X51286905Y-39229819D01*
X52429762Y-38658390D02*
X52334524Y-38610771D01*
X52334524Y-38610771D02*
X52286905Y-38563152D01*
X52286905Y-38563152D02*
X52239286Y-38467914D01*
X52239286Y-38467914D02*
X52239286Y-38420295D01*
X52239286Y-38420295D02*
X52286905Y-38325057D01*
X52286905Y-38325057D02*
X52334524Y-38277438D01*
X52334524Y-38277438D02*
X52429762Y-38229819D01*
X52429762Y-38229819D02*
X52620238Y-38229819D01*
X52620238Y-38229819D02*
X52715476Y-38277438D01*
X52715476Y-38277438D02*
X52763095Y-38325057D01*
X52763095Y-38325057D02*
X52810714Y-38420295D01*
X52810714Y-38420295D02*
X52810714Y-38467914D01*
X52810714Y-38467914D02*
X52763095Y-38563152D01*
X52763095Y-38563152D02*
X52715476Y-38610771D01*
X52715476Y-38610771D02*
X52620238Y-38658390D01*
X52620238Y-38658390D02*
X52429762Y-38658390D01*
X52429762Y-38658390D02*
X52334524Y-38706009D01*
X52334524Y-38706009D02*
X52286905Y-38753628D01*
X52286905Y-38753628D02*
X52239286Y-38848866D01*
X52239286Y-38848866D02*
X52239286Y-39039342D01*
X52239286Y-39039342D02*
X52286905Y-39134580D01*
X52286905Y-39134580D02*
X52334524Y-39182200D01*
X52334524Y-39182200D02*
X52429762Y-39229819D01*
X52429762Y-39229819D02*
X52620238Y-39229819D01*
X52620238Y-39229819D02*
X52715476Y-39182200D01*
X52715476Y-39182200D02*
X52763095Y-39134580D01*
X52763095Y-39134580D02*
X52810714Y-39039342D01*
X52810714Y-39039342D02*
X52810714Y-38848866D01*
X52810714Y-38848866D02*
X52763095Y-38753628D01*
X52763095Y-38753628D02*
X52715476Y-38706009D01*
X52715476Y-38706009D02*
X52620238Y-38658390D01*
X50904819Y-25488094D02*
X49904819Y-25488094D01*
X49904819Y-25488094D02*
X49904819Y-25249999D01*
X49904819Y-25249999D02*
X49952438Y-25107142D01*
X49952438Y-25107142D02*
X50047676Y-25011904D01*
X50047676Y-25011904D02*
X50142914Y-24964285D01*
X50142914Y-24964285D02*
X50333390Y-24916666D01*
X50333390Y-24916666D02*
X50476247Y-24916666D01*
X50476247Y-24916666D02*
X50666723Y-24964285D01*
X50666723Y-24964285D02*
X50761961Y-25011904D01*
X50761961Y-25011904D02*
X50857200Y-25107142D01*
X50857200Y-25107142D02*
X50904819Y-25249999D01*
X50904819Y-25249999D02*
X50904819Y-25488094D01*
X50904819Y-23964285D02*
X50904819Y-24535713D01*
X50904819Y-24249999D02*
X49904819Y-24249999D01*
X49904819Y-24249999D02*
X50047676Y-24345237D01*
X50047676Y-24345237D02*
X50142914Y-24440475D01*
X50142914Y-24440475D02*
X50190533Y-24535713D01*
X63369642Y-41704819D02*
X63036309Y-41228628D01*
X62798214Y-41704819D02*
X62798214Y-40704819D01*
X62798214Y-40704819D02*
X63179166Y-40704819D01*
X63179166Y-40704819D02*
X63274404Y-40752438D01*
X63274404Y-40752438D02*
X63322023Y-40800057D01*
X63322023Y-40800057D02*
X63369642Y-40895295D01*
X63369642Y-40895295D02*
X63369642Y-41038152D01*
X63369642Y-41038152D02*
X63322023Y-41133390D01*
X63322023Y-41133390D02*
X63274404Y-41181009D01*
X63274404Y-41181009D02*
X63179166Y-41228628D01*
X63179166Y-41228628D02*
X62798214Y-41228628D01*
X64322023Y-41704819D02*
X63750595Y-41704819D01*
X64036309Y-41704819D02*
X64036309Y-40704819D01*
X64036309Y-40704819D02*
X63941071Y-40847676D01*
X63941071Y-40847676D02*
X63845833Y-40942914D01*
X63845833Y-40942914D02*
X63750595Y-40990533D01*
X65179166Y-41038152D02*
X65179166Y-41704819D01*
X64941071Y-40657200D02*
X64702976Y-41371485D01*
X64702976Y-41371485D02*
X65322023Y-41371485D01*
X48159580Y-36716666D02*
X48207200Y-36764285D01*
X48207200Y-36764285D02*
X48254819Y-36907142D01*
X48254819Y-36907142D02*
X48254819Y-37002380D01*
X48254819Y-37002380D02*
X48207200Y-37145237D01*
X48207200Y-37145237D02*
X48111961Y-37240475D01*
X48111961Y-37240475D02*
X48016723Y-37288094D01*
X48016723Y-37288094D02*
X47826247Y-37335713D01*
X47826247Y-37335713D02*
X47683390Y-37335713D01*
X47683390Y-37335713D02*
X47492914Y-37288094D01*
X47492914Y-37288094D02*
X47397676Y-37240475D01*
X47397676Y-37240475D02*
X47302438Y-37145237D01*
X47302438Y-37145237D02*
X47254819Y-37002380D01*
X47254819Y-37002380D02*
X47254819Y-36907142D01*
X47254819Y-36907142D02*
X47302438Y-36764285D01*
X47302438Y-36764285D02*
X47350057Y-36716666D01*
X47254819Y-35811904D02*
X47254819Y-36288094D01*
X47254819Y-36288094D02*
X47731009Y-36335713D01*
X47731009Y-36335713D02*
X47683390Y-36288094D01*
X47683390Y-36288094D02*
X47635771Y-36192856D01*
X47635771Y-36192856D02*
X47635771Y-35954761D01*
X47635771Y-35954761D02*
X47683390Y-35859523D01*
X47683390Y-35859523D02*
X47731009Y-35811904D01*
X47731009Y-35811904D02*
X47826247Y-35764285D01*
X47826247Y-35764285D02*
X48064342Y-35764285D01*
X48064342Y-35764285D02*
X48159580Y-35811904D01*
X48159580Y-35811904D02*
X48207200Y-35859523D01*
X48207200Y-35859523D02*
X48254819Y-35954761D01*
X48254819Y-35954761D02*
X48254819Y-36192856D01*
X48254819Y-36192856D02*
X48207200Y-36288094D01*
X48207200Y-36288094D02*
X48159580Y-36335713D01*
X70458333Y-31542319D02*
X70125000Y-31066128D01*
X69886905Y-31542319D02*
X69886905Y-30542319D01*
X69886905Y-30542319D02*
X70267857Y-30542319D01*
X70267857Y-30542319D02*
X70363095Y-30589938D01*
X70363095Y-30589938D02*
X70410714Y-30637557D01*
X70410714Y-30637557D02*
X70458333Y-30732795D01*
X70458333Y-30732795D02*
X70458333Y-30875652D01*
X70458333Y-30875652D02*
X70410714Y-30970890D01*
X70410714Y-30970890D02*
X70363095Y-31018509D01*
X70363095Y-31018509D02*
X70267857Y-31066128D01*
X70267857Y-31066128D02*
X69886905Y-31066128D01*
X71410714Y-31542319D02*
X70839286Y-31542319D01*
X71125000Y-31542319D02*
X71125000Y-30542319D01*
X71125000Y-30542319D02*
X71029762Y-30685176D01*
X71029762Y-30685176D02*
X70934524Y-30780414D01*
X70934524Y-30780414D02*
X70839286Y-30828033D01*
X30704819Y-32561904D02*
X31514342Y-32561904D01*
X31514342Y-32561904D02*
X31609580Y-32514285D01*
X31609580Y-32514285D02*
X31657200Y-32466666D01*
X31657200Y-32466666D02*
X31704819Y-32371428D01*
X31704819Y-32371428D02*
X31704819Y-32180952D01*
X31704819Y-32180952D02*
X31657200Y-32085714D01*
X31657200Y-32085714D02*
X31609580Y-32038095D01*
X31609580Y-32038095D02*
X31514342Y-31990476D01*
X31514342Y-31990476D02*
X30704819Y-31990476D01*
X31704819Y-30990476D02*
X31704819Y-31561904D01*
X31704819Y-31276190D02*
X30704819Y-31276190D01*
X30704819Y-31276190D02*
X30847676Y-31371428D01*
X30847676Y-31371428D02*
X30942914Y-31466666D01*
X30942914Y-31466666D02*
X30990533Y-31561904D01*
X32983333Y-22759580D02*
X32935714Y-22807200D01*
X32935714Y-22807200D02*
X32792857Y-22854819D01*
X32792857Y-22854819D02*
X32697619Y-22854819D01*
X32697619Y-22854819D02*
X32554762Y-22807200D01*
X32554762Y-22807200D02*
X32459524Y-22711961D01*
X32459524Y-22711961D02*
X32411905Y-22616723D01*
X32411905Y-22616723D02*
X32364286Y-22426247D01*
X32364286Y-22426247D02*
X32364286Y-22283390D01*
X32364286Y-22283390D02*
X32411905Y-22092914D01*
X32411905Y-22092914D02*
X32459524Y-21997676D01*
X32459524Y-21997676D02*
X32554762Y-21902438D01*
X32554762Y-21902438D02*
X32697619Y-21854819D01*
X32697619Y-21854819D02*
X32792857Y-21854819D01*
X32792857Y-21854819D02*
X32935714Y-21902438D01*
X32935714Y-21902438D02*
X32983333Y-21950057D01*
X33840476Y-22188152D02*
X33840476Y-22854819D01*
X33602381Y-21807200D02*
X33364286Y-22521485D01*
X33364286Y-22521485D02*
X33983333Y-22521485D01*
X65483333Y-31534580D02*
X65435714Y-31582200D01*
X65435714Y-31582200D02*
X65292857Y-31629819D01*
X65292857Y-31629819D02*
X65197619Y-31629819D01*
X65197619Y-31629819D02*
X65054762Y-31582200D01*
X65054762Y-31582200D02*
X64959524Y-31486961D01*
X64959524Y-31486961D02*
X64911905Y-31391723D01*
X64911905Y-31391723D02*
X64864286Y-31201247D01*
X64864286Y-31201247D02*
X64864286Y-31058390D01*
X64864286Y-31058390D02*
X64911905Y-30867914D01*
X64911905Y-30867914D02*
X64959524Y-30772676D01*
X64959524Y-30772676D02*
X65054762Y-30677438D01*
X65054762Y-30677438D02*
X65197619Y-30629819D01*
X65197619Y-30629819D02*
X65292857Y-30629819D01*
X65292857Y-30629819D02*
X65435714Y-30677438D01*
X65435714Y-30677438D02*
X65483333Y-30725057D01*
X66054762Y-31058390D02*
X65959524Y-31010771D01*
X65959524Y-31010771D02*
X65911905Y-30963152D01*
X65911905Y-30963152D02*
X65864286Y-30867914D01*
X65864286Y-30867914D02*
X65864286Y-30820295D01*
X65864286Y-30820295D02*
X65911905Y-30725057D01*
X65911905Y-30725057D02*
X65959524Y-30677438D01*
X65959524Y-30677438D02*
X66054762Y-30629819D01*
X66054762Y-30629819D02*
X66245238Y-30629819D01*
X66245238Y-30629819D02*
X66340476Y-30677438D01*
X66340476Y-30677438D02*
X66388095Y-30725057D01*
X66388095Y-30725057D02*
X66435714Y-30820295D01*
X66435714Y-30820295D02*
X66435714Y-30867914D01*
X66435714Y-30867914D02*
X66388095Y-30963152D01*
X66388095Y-30963152D02*
X66340476Y-31010771D01*
X66340476Y-31010771D02*
X66245238Y-31058390D01*
X66245238Y-31058390D02*
X66054762Y-31058390D01*
X66054762Y-31058390D02*
X65959524Y-31106009D01*
X65959524Y-31106009D02*
X65911905Y-31153628D01*
X65911905Y-31153628D02*
X65864286Y-31248866D01*
X65864286Y-31248866D02*
X65864286Y-31439342D01*
X65864286Y-31439342D02*
X65911905Y-31534580D01*
X65911905Y-31534580D02*
X65959524Y-31582200D01*
X65959524Y-31582200D02*
X66054762Y-31629819D01*
X66054762Y-31629819D02*
X66245238Y-31629819D01*
X66245238Y-31629819D02*
X66340476Y-31582200D01*
X66340476Y-31582200D02*
X66388095Y-31534580D01*
X66388095Y-31534580D02*
X66435714Y-31439342D01*
X66435714Y-31439342D02*
X66435714Y-31248866D01*
X66435714Y-31248866D02*
X66388095Y-31153628D01*
X66388095Y-31153628D02*
X66340476Y-31106009D01*
X66340476Y-31106009D02*
X66245238Y-31058390D01*
X54229819Y-52342857D02*
X53753628Y-52676190D01*
X54229819Y-52914285D02*
X53229819Y-52914285D01*
X53229819Y-52914285D02*
X53229819Y-52533333D01*
X53229819Y-52533333D02*
X53277438Y-52438095D01*
X53277438Y-52438095D02*
X53325057Y-52390476D01*
X53325057Y-52390476D02*
X53420295Y-52342857D01*
X53420295Y-52342857D02*
X53563152Y-52342857D01*
X53563152Y-52342857D02*
X53658390Y-52390476D01*
X53658390Y-52390476D02*
X53706009Y-52438095D01*
X53706009Y-52438095D02*
X53753628Y-52533333D01*
X53753628Y-52533333D02*
X53753628Y-52914285D01*
X54229819Y-51390476D02*
X54229819Y-51961904D01*
X54229819Y-51676190D02*
X53229819Y-51676190D01*
X53229819Y-51676190D02*
X53372676Y-51771428D01*
X53372676Y-51771428D02*
X53467914Y-51866666D01*
X53467914Y-51866666D02*
X53515533Y-51961904D01*
X54229819Y-50438095D02*
X54229819Y-51009523D01*
X54229819Y-50723809D02*
X53229819Y-50723809D01*
X53229819Y-50723809D02*
X53372676Y-50819047D01*
X53372676Y-50819047D02*
X53467914Y-50914285D01*
X53467914Y-50914285D02*
X53515533Y-51009523D01*
X22233333Y-54004819D02*
X21900000Y-53528628D01*
X21661905Y-54004819D02*
X21661905Y-53004819D01*
X21661905Y-53004819D02*
X22042857Y-53004819D01*
X22042857Y-53004819D02*
X22138095Y-53052438D01*
X22138095Y-53052438D02*
X22185714Y-53100057D01*
X22185714Y-53100057D02*
X22233333Y-53195295D01*
X22233333Y-53195295D02*
X22233333Y-53338152D01*
X22233333Y-53338152D02*
X22185714Y-53433390D01*
X22185714Y-53433390D02*
X22138095Y-53481009D01*
X22138095Y-53481009D02*
X22042857Y-53528628D01*
X22042857Y-53528628D02*
X21661905Y-53528628D01*
X23090476Y-53338152D02*
X23090476Y-54004819D01*
X22852381Y-52957200D02*
X22614286Y-53671485D01*
X22614286Y-53671485D02*
X23233333Y-53671485D01*
X51236905Y-41679819D02*
X51236905Y-40679819D01*
X51236905Y-40679819D02*
X51475000Y-40679819D01*
X51475000Y-40679819D02*
X51617857Y-40727438D01*
X51617857Y-40727438D02*
X51713095Y-40822676D01*
X51713095Y-40822676D02*
X51760714Y-40917914D01*
X51760714Y-40917914D02*
X51808333Y-41108390D01*
X51808333Y-41108390D02*
X51808333Y-41251247D01*
X51808333Y-41251247D02*
X51760714Y-41441723D01*
X51760714Y-41441723D02*
X51713095Y-41536961D01*
X51713095Y-41536961D02*
X51617857Y-41632200D01*
X51617857Y-41632200D02*
X51475000Y-41679819D01*
X51475000Y-41679819D02*
X51236905Y-41679819D01*
X52141667Y-40679819D02*
X52808333Y-40679819D01*
X52808333Y-40679819D02*
X52379762Y-41679819D01*
X36433333Y-51384819D02*
X36100000Y-50908628D01*
X35861905Y-51384819D02*
X35861905Y-50384819D01*
X35861905Y-50384819D02*
X36242857Y-50384819D01*
X36242857Y-50384819D02*
X36338095Y-50432438D01*
X36338095Y-50432438D02*
X36385714Y-50480057D01*
X36385714Y-50480057D02*
X36433333Y-50575295D01*
X36433333Y-50575295D02*
X36433333Y-50718152D01*
X36433333Y-50718152D02*
X36385714Y-50813390D01*
X36385714Y-50813390D02*
X36338095Y-50861009D01*
X36338095Y-50861009D02*
X36242857Y-50908628D01*
X36242857Y-50908628D02*
X35861905Y-50908628D01*
X37338095Y-50384819D02*
X36861905Y-50384819D01*
X36861905Y-50384819D02*
X36814286Y-50861009D01*
X36814286Y-50861009D02*
X36861905Y-50813390D01*
X36861905Y-50813390D02*
X36957143Y-50765771D01*
X36957143Y-50765771D02*
X37195238Y-50765771D01*
X37195238Y-50765771D02*
X37290476Y-50813390D01*
X37290476Y-50813390D02*
X37338095Y-50861009D01*
X37338095Y-50861009D02*
X37385714Y-50956247D01*
X37385714Y-50956247D02*
X37385714Y-51194342D01*
X37385714Y-51194342D02*
X37338095Y-51289580D01*
X37338095Y-51289580D02*
X37290476Y-51337200D01*
X37290476Y-51337200D02*
X37195238Y-51384819D01*
X37195238Y-51384819D02*
X36957143Y-51384819D01*
X36957143Y-51384819D02*
X36861905Y-51337200D01*
X36861905Y-51337200D02*
X36814286Y-51289580D01*
D10*
%TO.C,L1*%
X33738748Y-34090000D02*
X34261252Y-34090000D01*
X33738748Y-36310000D02*
X34261252Y-36310000D01*
%TO.C,R12*%
X60952064Y-44660000D02*
X59497936Y-44660000D01*
X60952064Y-42840000D02*
X59497936Y-42840000D01*
%TO.C,CB1*%
X40652500Y-29637500D02*
X40652500Y-28850000D01*
X40258750Y-29243750D02*
X41046250Y-29243750D01*
X40154437Y-28610000D02*
X41440000Y-28610000D01*
X40154437Y-28610000D02*
X39090000Y-27545563D01*
X44845563Y-28610000D02*
X43560000Y-28610000D01*
X44845563Y-28610000D02*
X45910000Y-27545563D01*
X39090000Y-27545563D02*
X39090000Y-21790000D01*
X45910000Y-27545563D02*
X45910000Y-21790000D01*
X39090000Y-21790000D02*
X41440000Y-21790000D01*
X45910000Y-21790000D02*
X43560000Y-21790000D01*
%TO.C,R9*%
X57185000Y-54685436D02*
X57185000Y-56139564D01*
X55365000Y-54685436D02*
X55365000Y-56139564D01*
%TO.C,R3*%
X74710436Y-26965000D02*
X76164564Y-26965000D01*
X74710436Y-28785000D02*
X76164564Y-28785000D01*
%TO.C,D2*%
X24877500Y-50465000D02*
X24877500Y-52735000D01*
X24877500Y-52735000D02*
X28762500Y-52735000D01*
X28762500Y-50465000D02*
X24877500Y-50465000D01*
%TO.C,U2*%
X47100000Y-45910000D02*
X41090000Y-45910000D01*
X44850000Y-39090000D02*
X41090000Y-39090000D01*
X41090000Y-45910000D02*
X41090000Y-44650000D01*
X41090000Y-39090000D02*
X41090000Y-40350000D01*
%TO.C,R15*%
X49685000Y-54685436D02*
X49685000Y-56139564D01*
X47865000Y-54685436D02*
X47865000Y-56139564D01*
%TO.C,BOOT1*%
X73875000Y-21025000D02*
X77175000Y-21025000D01*
X73875000Y-21325000D02*
X73875000Y-21025000D01*
X73875000Y-23525000D02*
X73875000Y-23825000D01*
X73875000Y-23825000D02*
X77175000Y-23825000D01*
X74525000Y-20705000D02*
X74525000Y-21025000D01*
X75025000Y-20325000D02*
X74525000Y-20705000D01*
X75025000Y-20325000D02*
X76025000Y-20325000D01*
X76025000Y-20325000D02*
X76525000Y-20705000D01*
X76525000Y-20705000D02*
X76525000Y-21025000D01*
X77175000Y-21025000D02*
X77175000Y-21325000D01*
X77175000Y-23825000D02*
X77175000Y-23525000D01*
%TO.C,C2*%
X74701248Y-24465000D02*
X76123752Y-24465000D01*
X74701248Y-26285000D02*
X76123752Y-26285000D01*
%TO.C,D4*%
X57697500Y-47250000D02*
X57697500Y-45250000D01*
X57697500Y-47250000D02*
X53687500Y-47250000D01*
X57697500Y-45250000D02*
X53687500Y-45250000D01*
%TO.C,R13*%
X52185000Y-54685436D02*
X52185000Y-56139564D01*
X50365000Y-54685436D02*
X50365000Y-56139564D01*
%TO.C,R10*%
X60952064Y-47160000D02*
X59497936Y-47160000D01*
X60952064Y-45340000D02*
X59497936Y-45340000D01*
%TO.C,R16*%
X60952064Y-39660000D02*
X59497936Y-39660000D01*
X60952064Y-37840000D02*
X59497936Y-37840000D01*
%TO.C,TTY1*%
X31220000Y-61055000D02*
X38900000Y-61055000D01*
X31220000Y-61055000D02*
X31220000Y-58395000D01*
X38900000Y-61055000D02*
X38900000Y-58395000D01*
X28620000Y-59725000D02*
X28620000Y-58395000D01*
X28620000Y-58395000D02*
X29950000Y-58395000D01*
X31220000Y-58395000D02*
X38900000Y-58395000D01*
%TO.C,R7*%
X59685000Y-54685436D02*
X59685000Y-56139564D01*
X57865000Y-54685436D02*
X57865000Y-56139564D01*
%TO.C,D5*%
X57697500Y-44750000D02*
X57697500Y-42750000D01*
X57697500Y-44750000D02*
X53687500Y-44750000D01*
X57697500Y-42750000D02*
X53687500Y-42750000D01*
%TO.C,R6*%
X69010000Y-27360436D02*
X69010000Y-28814564D01*
X67190000Y-27360436D02*
X67190000Y-28814564D01*
%TO.C,C6*%
X37415000Y-36625000D02*
X37415000Y-36000000D01*
X37102500Y-36312500D02*
X37727500Y-36312500D01*
X37404437Y-35760000D02*
X38040000Y-35760000D01*
X37404437Y-35760000D02*
X36340000Y-34695563D01*
X40795563Y-35760000D02*
X40160000Y-35760000D01*
X40795563Y-35760000D02*
X41860000Y-34695563D01*
X36340000Y-34695563D02*
X36340000Y-30240000D01*
X41860000Y-34695563D02*
X41860000Y-30240000D01*
X36340000Y-30240000D02*
X38040000Y-30240000D01*
X41860000Y-30240000D02*
X40160000Y-30240000D01*
%TO.C,AIN1*%
X57555000Y-58395000D02*
X44795000Y-58395000D01*
X57555000Y-58395000D02*
X57555000Y-61055000D01*
X44795000Y-58395000D02*
X44795000Y-61055000D01*
X60155000Y-59725000D02*
X60155000Y-61055000D01*
X60155000Y-61055000D02*
X58825000Y-61055000D01*
X57555000Y-61055000D02*
X44795000Y-61055000D01*
%TO.C,V1*%
X29340000Y-28280000D02*
X29340000Y-37080000D01*
X20140000Y-28280000D02*
X29340000Y-28280000D01*
X29340000Y-37080000D02*
X20140000Y-37080000D01*
X20140000Y-37080000D02*
X20140000Y-28280000D01*
%TO.C,R8*%
X60952064Y-49660000D02*
X59497936Y-49660000D01*
X60952064Y-47840000D02*
X59497936Y-47840000D01*
%TO.C,C3*%
X33111252Y-38710000D02*
X31688748Y-38710000D01*
X33111252Y-36890000D02*
X31688748Y-36890000D01*
%TO.C,U4*%
X35100000Y-57160000D02*
X39100000Y-57160000D01*
X35100000Y-54160000D02*
X38100000Y-54160000D01*
%TO.C,D6*%
X25462500Y-47810000D02*
X27462500Y-47810000D01*
X25462500Y-47810000D02*
X25462500Y-43800000D01*
X27462500Y-47810000D02*
X27462500Y-43800000D01*
%TO.C,J1*%
X24462500Y-41700000D02*
X24462500Y-42150000D01*
X22612500Y-41700000D02*
X24462500Y-41700000D01*
X20062500Y-41700000D02*
X20312500Y-41700000D01*
X25012500Y-43900000D02*
X24562500Y-43900000D01*
X25012500Y-43900000D02*
X25012500Y-44350000D01*
X24462500Y-49500000D02*
X24462500Y-49050000D01*
X22612500Y-49500000D02*
X24462500Y-49500000D01*
X20062500Y-49500000D02*
X20312500Y-49500000D01*
%TO.C,D9*%
X33235000Y-53315000D02*
X30965000Y-53315000D01*
X30965000Y-53315000D02*
X30965000Y-57200000D01*
X33235000Y-57200000D02*
X33235000Y-53315000D01*
%TO.C,D3*%
X57697500Y-49750000D02*
X57697500Y-47750000D01*
X57697500Y-49750000D02*
X53687500Y-49750000D01*
X57697500Y-47750000D02*
X53687500Y-47750000D01*
%TO.C,R17*%
X31190000Y-51514564D02*
X31190000Y-50060436D01*
X33010000Y-51514564D02*
X33010000Y-50060436D01*
%TO.C,C7*%
X49565000Y-36625000D02*
X49565000Y-36000000D01*
X49252500Y-36312500D02*
X49877500Y-36312500D01*
X49554437Y-35760000D02*
X50190000Y-35760000D01*
X49554437Y-35760000D02*
X48490000Y-34695563D01*
X52945563Y-35760000D02*
X52310000Y-35760000D01*
X52945563Y-35760000D02*
X54010000Y-34695563D01*
X48490000Y-34695563D02*
X48490000Y-30240000D01*
X54010000Y-34695563D02*
X54010000Y-30240000D01*
X48490000Y-30240000D02*
X50190000Y-30240000D01*
X54010000Y-30240000D02*
X52310000Y-30240000D01*
%TO.C,U3*%
X85500000Y-36000000D02*
X79000000Y-36000000D01*
X85500000Y-36000000D02*
X85500000Y-54000000D01*
X65500000Y-36000000D02*
X65750000Y-36000000D01*
X85500000Y-54000000D02*
X79000000Y-54000000D01*
X79500000Y-54000000D02*
X79500000Y-36050000D01*
X65750000Y-54000000D02*
X65500000Y-54000000D01*
X65500000Y-54000000D02*
X65500000Y-36000000D01*
%TO.C,U5*%
X60500000Y-33435000D02*
X64100000Y-33435000D01*
X60500000Y-33435000D02*
X58300000Y-33435000D01*
X60500000Y-26665000D02*
X62700000Y-26665000D01*
X60500000Y-26665000D02*
X58300000Y-26665000D01*
%TO.C,D8*%
X57697500Y-39750000D02*
X57697500Y-37750000D01*
X57697500Y-39750000D02*
X53687500Y-39750000D01*
X57697500Y-37750000D02*
X53687500Y-37750000D01*
%TO.C,D1*%
X46400000Y-28660000D02*
X49700000Y-28660000D01*
X46400000Y-28660000D02*
X46400000Y-23150000D01*
X49700000Y-28660000D02*
X49700000Y-23150000D01*
%TO.C,R14*%
X60952064Y-42160000D02*
X59497936Y-42160000D01*
X60952064Y-40340000D02*
X59497936Y-40340000D01*
%TO.C,RESET1*%
X85000000Y-28850000D02*
X85000000Y-32150000D01*
X84700000Y-28850000D02*
X85000000Y-28850000D01*
X82500000Y-28850000D02*
X82200000Y-28850000D01*
X82200000Y-28850000D02*
X82200000Y-32150000D01*
X85320000Y-29500000D02*
X85000000Y-29500000D01*
X85700000Y-30000000D02*
X85320000Y-29500000D01*
X85700000Y-30000000D02*
X85700000Y-31000000D01*
X85700000Y-31000000D02*
X85320000Y-31500000D01*
X85320000Y-31500000D02*
X85000000Y-31500000D01*
X85000000Y-32150000D02*
X84700000Y-32150000D01*
X82200000Y-32150000D02*
X82500000Y-32150000D01*
%TO.C,C5*%
X43565000Y-36625000D02*
X43565000Y-36000000D01*
X43252500Y-36312500D02*
X43877500Y-36312500D01*
X43554437Y-35760000D02*
X44190000Y-35760000D01*
X43554437Y-35760000D02*
X42490000Y-34695563D01*
X46945563Y-35760000D02*
X46310000Y-35760000D01*
X46945563Y-35760000D02*
X48010000Y-34695563D01*
X42490000Y-34695563D02*
X42490000Y-30240000D01*
X48010000Y-34695563D02*
X48010000Y-30240000D01*
X42490000Y-30240000D02*
X44190000Y-30240000D01*
X48010000Y-30240000D02*
X46310000Y-30240000D01*
%TO.C,R1*%
X69690000Y-28839564D02*
X69690000Y-27385436D01*
X71510000Y-28839564D02*
X71510000Y-27385436D01*
%TO.C,GPIO1*%
X53770000Y-23130000D02*
X71610000Y-23130000D01*
X53770000Y-23130000D02*
X53770000Y-20470000D01*
X71610000Y-23130000D02*
X71610000Y-20470000D01*
X51170000Y-21800000D02*
X51170000Y-20470000D01*
X51170000Y-20470000D02*
X52500000Y-20470000D01*
X53770000Y-20470000D02*
X71610000Y-20470000D01*
%TO.C,R2*%
X74710436Y-30365000D02*
X76164564Y-30365000D01*
X74710436Y-32185000D02*
X76164564Y-32185000D01*
%TO.C,U1*%
X34000000Y-33360000D02*
X35800000Y-33360000D01*
X34000000Y-33360000D02*
X33200000Y-33360000D01*
X34000000Y-30240000D02*
X34800000Y-30240000D01*
X34000000Y-30240000D02*
X33200000Y-30240000D01*
%TO.C,C4*%
X33465000Y-29625000D02*
X33465000Y-29000000D01*
X33152500Y-29312500D02*
X33777500Y-29312500D01*
X33454437Y-28760000D02*
X34090000Y-28760000D01*
X33454437Y-28760000D02*
X32390000Y-27695563D01*
X36845563Y-28760000D02*
X36210000Y-28760000D01*
X36845563Y-28760000D02*
X37910000Y-27695563D01*
X32390000Y-27695563D02*
X32390000Y-23240000D01*
X37910000Y-27695563D02*
X37910000Y-23240000D01*
X32390000Y-23240000D02*
X34090000Y-23240000D01*
X37910000Y-23240000D02*
X36210000Y-23240000D01*
%TO.C,C8*%
X66535000Y-27388748D02*
X66535000Y-28811252D01*
X64715000Y-27388748D02*
X64715000Y-28811252D01*
%TO.C,R11*%
X54685000Y-54685436D02*
X54685000Y-56139564D01*
X52865000Y-54685436D02*
X52865000Y-56139564D01*
%TO.C,R4*%
X21685436Y-50690000D02*
X23139564Y-50690000D01*
X21685436Y-52510000D02*
X23139564Y-52510000D01*
%TO.C,D7*%
X57697500Y-42250000D02*
X57697500Y-40250000D01*
X57697500Y-42250000D02*
X53687500Y-42250000D01*
X57697500Y-40250000D02*
X53687500Y-40250000D01*
%TO.C,R5*%
X35872936Y-51840000D02*
X37327064Y-51840000D01*
X35872936Y-53660000D02*
X37327064Y-53660000D01*
%TO.C,C1*%
X74738748Y-32765000D02*
X76161252Y-32765000D01*
X74738748Y-34585000D02*
X76161252Y-34585000D01*
%TD*%
M02*
