%TF.GenerationSoftware,KiCad,Pcbnew,7.0.6*%
%TF.CreationDate,2023-12-17T21:00:59-05:00*%
%TF.ProjectId,Crystal,43727973-7461-46c2-9e6b-696361645f70,rev?*%
%TF.SameCoordinates,PX1312d00PY1312d00*%
%TF.FileFunction,Copper,L1,Top*%
%TF.FilePolarity,Positive*%
%FSLAX46Y46*%
G04 Gerber Fmt 4.6, Leading zero omitted, Abs format (unit mm)*
G04 Created by KiCad (PCBNEW 7.0.6) date 2023-12-17 21:00:59*
%MOMM*%
%LPD*%
G01*
G04 APERTURE LIST*
G04 Aperture macros list*
%AMRoundRect*
0 Rectangle with rounded corners*
0 $1 Rounding radius*
0 $2 $3 $4 $5 $6 $7 $8 $9 X,Y pos of 4 corners*
0 Add a 4 corners polygon primitive as box body*
4,1,4,$2,$3,$4,$5,$6,$7,$8,$9,$2,$3,0*
0 Add four circle primitives for the rounded corners*
1,1,$1+$1,$2,$3*
1,1,$1+$1,$4,$5*
1,1,$1+$1,$6,$7*
1,1,$1+$1,$8,$9*
0 Add four rect primitives between the rounded corners*
20,1,$1+$1,$2,$3,$4,$5,0*
20,1,$1+$1,$4,$5,$6,$7,0*
20,1,$1+$1,$6,$7,$8,$9,0*
20,1,$1+$1,$8,$9,$2,$3,0*%
G04 Aperture macros list end*
%TA.AperFunction,SMDPad,CuDef*%
%ADD10R,1.700000X0.900000*%
%TD*%
%TA.AperFunction,SMDPad,CuDef*%
%ADD11R,0.900000X1.700000*%
%TD*%
%TA.AperFunction,ComponentPad*%
%ADD12O,1.700000X1.700000*%
%TD*%
%TA.AperFunction,ComponentPad*%
%ADD13R,1.700000X1.700000*%
%TD*%
%TA.AperFunction,SMDPad,CuDef*%
%ADD14RoundRect,0.250001X-0.462499X-0.849999X0.462499X-0.849999X0.462499X0.849999X-0.462499X0.849999X0*%
%TD*%
%TA.AperFunction,SMDPad,CuDef*%
%ADD15RoundRect,0.250000X0.312500X0.625000X-0.312500X0.625000X-0.312500X-0.625000X0.312500X-0.625000X0*%
%TD*%
%TA.AperFunction,ComponentPad*%
%ADD16R,1.600000X1.600000*%
%TD*%
%TA.AperFunction,ComponentPad*%
%ADD17C,1.600000*%
%TD*%
%TA.AperFunction,SMDPad,CuDef*%
%ADD18RoundRect,0.250000X-0.625000X0.312500X-0.625000X-0.312500X0.625000X-0.312500X0.625000X0.312500X0*%
%TD*%
%TA.AperFunction,SMDPad,CuDef*%
%ADD19RoundRect,0.250000X-0.312500X-0.625000X0.312500X-0.625000X0.312500X0.625000X-0.312500X0.625000X0*%
%TD*%
%TA.AperFunction,SMDPad,CuDef*%
%ADD20RoundRect,0.250000X-0.375000X-0.625000X0.375000X-0.625000X0.375000X0.625000X-0.375000X0.625000X0*%
%TD*%
%TA.AperFunction,SMDPad,CuDef*%
%ADD21R,2.000000X1.500000*%
%TD*%
%TA.AperFunction,SMDPad,CuDef*%
%ADD22R,2.000000X3.800000*%
%TD*%
%TA.AperFunction,SMDPad,CuDef*%
%ADD23RoundRect,0.250000X-0.325000X-0.650000X0.325000X-0.650000X0.325000X0.650000X-0.325000X0.650000X0*%
%TD*%
%TA.AperFunction,SMDPad,CuDef*%
%ADD24RoundRect,0.225000X0.225000X0.375000X-0.225000X0.375000X-0.225000X-0.375000X0.225000X-0.375000X0*%
%TD*%
%TA.AperFunction,SMDPad,CuDef*%
%ADD25RoundRect,0.250000X0.550000X-1.250000X0.550000X1.250000X-0.550000X1.250000X-0.550000X-1.250000X0*%
%TD*%
%TA.AperFunction,ComponentPad*%
%ADD26C,3.000000*%
%TD*%
%TA.AperFunction,SMDPad,CuDef*%
%ADD27RoundRect,0.250000X0.325000X0.650000X-0.325000X0.650000X-0.325000X-0.650000X0.325000X-0.650000X0*%
%TD*%
%TA.AperFunction,SMDPad,CuDef*%
%ADD28R,1.600000X0.300000*%
%TD*%
%TA.AperFunction,SMDPad,CuDef*%
%ADD29RoundRect,0.225000X0.375000X-0.225000X0.375000X0.225000X-0.375000X0.225000X-0.375000X-0.225000X0*%
%TD*%
%TA.AperFunction,SMDPad,CuDef*%
%ADD30R,1.350000X0.400000*%
%TD*%
%TA.AperFunction,ComponentPad*%
%ADD31O,1.900000X1.200000*%
%TD*%
%TA.AperFunction,SMDPad,CuDef*%
%ADD32R,1.900000X1.200000*%
%TD*%
%TA.AperFunction,ComponentPad*%
%ADD33C,1.450000*%
%TD*%
%TA.AperFunction,SMDPad,CuDef*%
%ADD34R,1.900000X1.500000*%
%TD*%
%TA.AperFunction,SMDPad,CuDef*%
%ADD35RoundRect,0.250000X-0.625000X0.375000X-0.625000X-0.375000X0.625000X-0.375000X0.625000X0.375000X0*%
%TD*%
%TA.AperFunction,SMDPad,CuDef*%
%ADD36RoundRect,0.250000X0.625000X-0.312500X0.625000X0.312500X-0.625000X0.312500X-0.625000X-0.312500X0*%
%TD*%
%TA.AperFunction,SMDPad,CuDef*%
%ADD37R,0.900000X1.500000*%
%TD*%
%TA.AperFunction,SMDPad,CuDef*%
%ADD38R,0.800000X0.800000*%
%TD*%
%TA.AperFunction,SMDPad,CuDef*%
%ADD39RoundRect,0.100000X0.637500X0.100000X-0.637500X0.100000X-0.637500X-0.100000X0.637500X-0.100000X0*%
%TD*%
%TA.AperFunction,SMDPad,CuDef*%
%ADD40RoundRect,0.250000X0.650000X-1.000000X0.650000X1.000000X-0.650000X1.000000X-0.650000X-1.000000X0*%
%TD*%
%TA.AperFunction,SMDPad,CuDef*%
%ADD41RoundRect,0.150000X0.512500X0.150000X-0.512500X0.150000X-0.512500X-0.150000X0.512500X-0.150000X0*%
%TD*%
%TA.AperFunction,SMDPad,CuDef*%
%ADD42RoundRect,0.250000X-0.650000X0.325000X-0.650000X-0.325000X0.650000X-0.325000X0.650000X0.325000X0*%
%TD*%
%TA.AperFunction,ViaPad*%
%ADD43C,1.200000*%
%TD*%
%TA.AperFunction,ViaPad*%
%ADD44C,0.800000*%
%TD*%
%TA.AperFunction,Conductor*%
%ADD45C,0.250000*%
%TD*%
%TA.AperFunction,Conductor*%
%ADD46C,1.000000*%
%TD*%
%TA.AperFunction,Conductor*%
%ADD47C,0.800000*%
%TD*%
%TA.AperFunction,Conductor*%
%ADD48C,1.200000*%
%TD*%
%TA.AperFunction,Conductor*%
%ADD49C,0.600000*%
%TD*%
%TA.AperFunction,Conductor*%
%ADD50C,2.000000*%
%TD*%
%TA.AperFunction,Conductor*%
%ADD51C,0.200000*%
%TD*%
G04 APERTURE END LIST*
D10*
%TO.P,RESET1,1,1*%
%TO.N,GND*%
X63600000Y-8800000D03*
%TO.P,RESET1,2,2*%
%TO.N,Net-(U3-EN{slash}CHIP_PU)*%
X63600000Y-12200000D03*
%TD*%
D11*
%TO.P,BOOT1,2,2*%
%TO.N,/GPIO9*%
X57225000Y-2425000D03*
%TO.P,BOOT1,1,1*%
%TO.N,GND*%
X53825000Y-2425000D03*
%TD*%
D12*
%TO.P,GPIO1,6,Pin_6*%
%TO.N,Net-(GPIO1-Pin_6)*%
X45250000Y-1800000D03*
%TO.P,GPIO1,5,Pin_5*%
%TO.N,Net-(GPIO1-Pin_5)*%
X42710000Y-1800000D03*
%TO.P,GPIO1,4,Pin_4*%
%TO.N,Net-(GPIO1-Pin_4)*%
X40170000Y-1800000D03*
%TO.P,GPIO1,3,Pin_3*%
%TO.N,Net-(GPIO1-Pin_3)*%
X37630000Y-1800000D03*
%TO.P,GPIO1,2,Pin_2*%
%TO.N,Net-(GPIO1-Pin_2)*%
X35090000Y-1800000D03*
D13*
%TO.P,GPIO1,1,Pin_1*%
%TO.N,Net-(GPIO1-Pin_1)*%
X32550000Y-1800000D03*
%TD*%
D14*
%TO.P,L1,1,1*%
%TO.N,Net-(U1-SW)*%
X12837500Y-15200000D03*
%TO.P,L1,2,2*%
%TO.N,+5V*%
X15162500Y-15200000D03*
%TD*%
D15*
%TO.P,R12,1*%
%TO.N,GND*%
X41687500Y-23750000D03*
%TO.P,R12,2*%
%TO.N,/AIN3*%
X38762500Y-23750000D03*
%TD*%
D16*
%TO.P,CB1,1*%
%TO.N,+12V*%
X22000000Y-6432380D03*
D17*
%TO.P,CB1,2*%
%TO.N,GND*%
X22000000Y-3932380D03*
%TD*%
D18*
%TO.P,R9,1*%
%TO.N,/AIN2*%
X36275000Y-33950000D03*
%TO.P,R9,2*%
%TO.N,Net-(AIN1-Pin_2)*%
X36275000Y-36875000D03*
%TD*%
D19*
%TO.P,R3,1*%
%TO.N,+3.3V*%
X53975000Y-7875000D03*
%TO.P,R3,2*%
%TO.N,/GPIO9*%
X56900000Y-7875000D03*
%TD*%
D20*
%TO.P,D2,1,K*%
%TO.N,Net-(D2-K)*%
X5762500Y-31600000D03*
%TO.P,D2,2,A*%
%TO.N,+5V*%
X8562500Y-31600000D03*
%TD*%
D21*
%TO.P,U2,1,GND*%
%TO.N,GND*%
X26150000Y-24800000D03*
%TO.P,U2,2,VO*%
%TO.N,+3.3V*%
X26150000Y-22500000D03*
D22*
X19850000Y-22500000D03*
D21*
%TO.P,U2,3,VI*%
%TO.N,+5V*%
X26150000Y-20200000D03*
%TD*%
D18*
%TO.P,R15,1*%
%TO.N,/AIN5*%
X28775000Y-33950000D03*
%TO.P,R15,2*%
%TO.N,Net-(AIN1-Pin_5)*%
X28775000Y-36875000D03*
%TD*%
D23*
%TO.P,C2,1*%
%TO.N,GND*%
X53937500Y-5375000D03*
%TO.P,C2,2*%
%TO.N,/GPIO9*%
X56887500Y-5375000D03*
%TD*%
D24*
%TO.P,D4,1,K*%
%TO.N,/AIN2*%
X36987500Y-26250000D03*
%TO.P,D4,2,A*%
%TO.N,GND*%
X33687500Y-26250000D03*
%TD*%
D18*
%TO.P,R13,1*%
%TO.N,/AIN4*%
X31275000Y-33950000D03*
%TO.P,R13,2*%
%TO.N,Net-(AIN1-Pin_4)*%
X31275000Y-36875000D03*
%TD*%
D15*
%TO.P,R10,1*%
%TO.N,GND*%
X41687500Y-26250000D03*
%TO.P,R10,2*%
%TO.N,/AIN2*%
X38762500Y-26250000D03*
%TD*%
%TO.P,R16,1*%
%TO.N,GND*%
X41687500Y-18750000D03*
%TO.P,R16,2*%
%TO.N,/AIN5*%
X38762500Y-18750000D03*
%TD*%
D13*
%TO.P,TTY1,1,Pin_1*%
%TO.N,+5V*%
X9950000Y-39725000D03*
D12*
%TO.P,TTY1,2,Pin_2*%
%TO.N,Net-(TTY1-Pin_2)*%
X12490000Y-39725000D03*
%TO.P,TTY1,3,Pin_3*%
%TO.N,Net-(D9-A)*%
X15030000Y-39725000D03*
%TO.P,TTY1,4,Pin_4*%
%TO.N,GND*%
X17570000Y-39725000D03*
%TD*%
D18*
%TO.P,R7,1*%
%TO.N,/AIN1*%
X38775000Y-33950000D03*
%TO.P,R7,2*%
%TO.N,Net-(AIN1-Pin_1)*%
X38775000Y-36875000D03*
%TD*%
D24*
%TO.P,D5,1,K*%
%TO.N,/AIN3*%
X36987500Y-23750000D03*
%TO.P,D5,2,A*%
%TO.N,GND*%
X33687500Y-23750000D03*
%TD*%
D18*
%TO.P,R6,2*%
%TO.N,+3.3V*%
X48100000Y-9550000D03*
%TO.P,R6,1*%
%TO.N,Net-(U5-OE)*%
X48100000Y-6625000D03*
%TD*%
D25*
%TO.P,C6,1*%
%TO.N,+5V*%
X19100000Y-15200000D03*
%TO.P,C6,2*%
%TO.N,GND*%
X19100000Y-10800000D03*
%TD*%
D13*
%TO.P,AIN1,1,Pin_1*%
%TO.N,Net-(AIN1-Pin_1)*%
X38825000Y-39725000D03*
D12*
%TO.P,AIN1,2,Pin_2*%
%TO.N,Net-(AIN1-Pin_2)*%
X36285000Y-39725000D03*
%TO.P,AIN1,3,Pin_3*%
%TO.N,Net-(AIN1-Pin_3)*%
X33745000Y-39725000D03*
%TO.P,AIN1,4,Pin_4*%
%TO.N,Net-(AIN1-Pin_4)*%
X31205000Y-39725000D03*
%TO.P,AIN1,5,Pin_5*%
%TO.N,Net-(AIN1-Pin_5)*%
X28665000Y-39725000D03*
%TO.P,AIN1,6,Pin_6*%
%TO.N,GND*%
X26125000Y-39725000D03*
%TD*%
D26*
%TO.P,V1,1,Pin_1*%
%TO.N,+12V*%
X7740000Y-10780000D03*
%TO.P,V1,2,Pin_2*%
%TO.N,GND*%
X7740000Y-14580000D03*
%TD*%
D15*
%TO.P,R8,1*%
%TO.N,GND*%
X41687500Y-28750000D03*
%TO.P,R8,2*%
%TO.N,/AIN1*%
X38762500Y-28750000D03*
%TD*%
D27*
%TO.P,C3,1*%
%TO.N,Net-(U1-BST)*%
X13875000Y-17800000D03*
%TO.P,C3,2*%
%TO.N,Net-(U1-SW)*%
X10925000Y-17800000D03*
%TD*%
D28*
%TO.P,U4,1,B2*%
%TO.N,Net-(D9-A)*%
X15700000Y-37225000D03*
%TO.P,U4,2,GND*%
%TO.N,GND*%
X15700000Y-36575000D03*
%TO.P,U4,3,VCCA*%
%TO.N,+3.3V*%
X15700000Y-35925000D03*
%TO.P,U4,4,A2*%
%TO.N,/TXD*%
X15700000Y-35275000D03*
%TO.P,U4,5,A1*%
%TO.N,/RXD*%
X12300000Y-35275000D03*
%TO.P,U4,6,OE*%
%TO.N,Net-(U4-OE)*%
X12300000Y-35925000D03*
%TO.P,U4,7,VCCB*%
%TO.N,+5V*%
X12300000Y-36575000D03*
%TO.P,U4,8,B1*%
%TO.N,Net-(TTY1-Pin_2)*%
X12300000Y-37225000D03*
%TD*%
D29*
%TO.P,D6,1,K*%
%TO.N,+5V*%
X6462500Y-27100000D03*
%TO.P,D6,2,A*%
%TO.N,Net-(D6-A)*%
X6462500Y-23800000D03*
%TD*%
D30*
%TO.P,J1,1,VBUS*%
%TO.N,Net-(D6-A)*%
X4162500Y-24300000D03*
%TO.P,J1,2,D-*%
%TO.N,/USB_D-*%
X4162500Y-24950000D03*
%TO.P,J1,3,D+*%
%TO.N,/USB_D+*%
X4162500Y-25600000D03*
%TO.P,J1,4,ID*%
%TO.N,unconnected-(J1-ID-Pad4)*%
X4162500Y-26250000D03*
%TO.P,J1,5,GND*%
%TO.N,GND*%
X4162500Y-26900000D03*
D31*
%TO.P,J1,6,Shield*%
X1462500Y-22100000D03*
D32*
X1462500Y-22700000D03*
D33*
X4162500Y-23100000D03*
D34*
X1462500Y-24600000D03*
X1462500Y-26600000D03*
D33*
X4162500Y-28100000D03*
D32*
X1462500Y-28500000D03*
D31*
X1462500Y-29100000D03*
%TD*%
D35*
%TO.P,D9,1,K*%
%TO.N,Net-(D9-K)*%
X19000000Y-34250000D03*
%TO.P,D9,2,A*%
%TO.N,Net-(D9-A)*%
X19000000Y-37050000D03*
%TD*%
D24*
%TO.P,D3,1,K*%
%TO.N,/AIN1*%
X36987500Y-28750000D03*
%TO.P,D3,2,A*%
%TO.N,GND*%
X33687500Y-28750000D03*
%TD*%
D36*
%TO.P,R17,1*%
%TO.N,Net-(D9-K)*%
X19000000Y-32300000D03*
%TO.P,R17,2*%
%TO.N,GND*%
X19000000Y-29375000D03*
%TD*%
D25*
%TO.P,C7,1*%
%TO.N,+3.3V*%
X31250000Y-15200000D03*
%TO.P,C7,2*%
%TO.N,GND*%
X31250000Y-10800000D03*
%TD*%
D37*
%TO.P,U3,1,3V3*%
%TO.N,+3.3V*%
X58400000Y-16250000D03*
%TO.P,U3,2,EN/CHIP_PU*%
%TO.N,Net-(U3-EN{slash}CHIP_PU)*%
X56900000Y-16250000D03*
%TO.P,U3,3,GPIO4/ADC1_CH4*%
%TO.N,/AIN5*%
X55400000Y-16250000D03*
%TO.P,U3,4,GPIO5/ADC2_CH0*%
%TO.N,/GPIO5*%
X53900000Y-16250000D03*
%TO.P,U3,5,GPIO6*%
%TO.N,/GPIO6*%
X52400000Y-16250000D03*
%TO.P,U3,6,GPIO7*%
%TO.N,/GPIO7*%
X50900000Y-16250000D03*
%TO.P,U3,7,GPIO8*%
%TO.N,/GPIO8*%
X49400000Y-16250000D03*
%TO.P,U3,8,GPIO9*%
%TO.N,/GPIO9*%
X47900000Y-16250000D03*
%TO.P,U3,9,GND*%
%TO.N,GND*%
X46400000Y-16250000D03*
%TO.P,U3,10,GPIO10*%
%TO.N,/GPIO10*%
X46400000Y-33750000D03*
%TO.P,U3,11,GPIO20/U0RXD*%
%TO.N,/RXD*%
X47900000Y-33750000D03*
%TO.P,U3,12,GPIO21/U0TXD*%
%TO.N,/TXD*%
X49400000Y-33750000D03*
%TO.P,U3,13,GPIO18/USB_D-*%
%TO.N,/USB_D-*%
X50900000Y-33750000D03*
%TO.P,U3,14,GPIO19/USB_D+*%
%TO.N,/USB_D+*%
X52400000Y-33750000D03*
%TO.P,U3,15,GPIO3/ADC1_CH3*%
%TO.N,/AIN4*%
X53900000Y-33750000D03*
%TO.P,U3,16,GPIO2/ADC1_CH2*%
%TO.N,/AIN3*%
X55400000Y-33750000D03*
%TO.P,U3,17,GPIO1/ADC1_CH1/XTAL_32K_N*%
%TO.N,/AIN2*%
X56900000Y-33750000D03*
%TO.P,U3,18,GPIO0/ADC1_CH0/XTAL_32K_P*%
%TO.N,/AIN1*%
X58400000Y-33750000D03*
D38*
%TO.P,U3,19,GND*%
%TO.N,GND*%
X53300000Y-24860000D03*
X52200000Y-24860000D03*
X51100000Y-24860000D03*
X53300000Y-25910000D03*
X52200000Y-25910000D03*
X51100000Y-25910000D03*
X53300000Y-27060000D03*
X52200000Y-27060000D03*
X51100000Y-27060000D03*
%TD*%
D39*
%TO.P,U5,20,B1*%
%TO.N,Net-(GPIO1-Pin_1)*%
X37637500Y-12975000D03*
%TO.P,U5,19,VCCB*%
%TO.N,+5V*%
X37637500Y-12325000D03*
%TO.P,U5,18,B2*%
%TO.N,Net-(GPIO1-Pin_2)*%
X37637500Y-11675000D03*
%TO.P,U5,17,B3*%
%TO.N,Net-(GPIO1-Pin_3)*%
X37637500Y-11025000D03*
%TO.P,U5,16,B4*%
%TO.N,Net-(GPIO1-Pin_4)*%
X37637500Y-10375000D03*
%TO.P,U5,15,B5*%
%TO.N,Net-(GPIO1-Pin_5)*%
X37637500Y-9725000D03*
%TO.P,U5,14,B6*%
%TO.N,Net-(GPIO1-Pin_6)*%
X37637500Y-9075000D03*
%TO.P,U5,13,B7*%
%TO.N,unconnected-(U5-B7-Pad13)*%
X37637500Y-8425000D03*
%TO.P,U5,12,B8*%
%TO.N,unconnected-(U5-B8-Pad12)*%
X37637500Y-7775000D03*
%TO.P,U5,11,GND*%
%TO.N,GND*%
X37637500Y-7125000D03*
%TO.P,U5,10,OE*%
%TO.N,Net-(U5-OE)*%
X43362500Y-7125000D03*
%TO.P,U5,9,A8*%
%TO.N,unconnected-(U5-A8-Pad9)*%
X43362500Y-7775000D03*
%TO.P,U5,8,A7*%
%TO.N,unconnected-(U5-A7-Pad8)*%
X43362500Y-8425000D03*
%TO.P,U5,7,A6*%
%TO.N,/GPIO10*%
X43362500Y-9075000D03*
%TO.P,U5,6,A5*%
%TO.N,/GPIO9*%
X43362500Y-9725000D03*
%TO.P,U5,5,A4*%
%TO.N,/GPIO8*%
X43362500Y-10375000D03*
%TO.P,U5,4,A3*%
%TO.N,/GPIO7*%
X43362500Y-11025000D03*
%TO.P,U5,3,A2*%
%TO.N,/GPIO6*%
X43362500Y-11675000D03*
%TO.P,U5,2,VCCA*%
%TO.N,+3.3V*%
X43362500Y-12325000D03*
%TO.P,U5,1,A1*%
%TO.N,/GPIO5*%
X43362500Y-12975000D03*
%TD*%
D24*
%TO.P,D8,1,K*%
%TO.N,/AIN5*%
X36987500Y-18750000D03*
%TO.P,D8,2,A*%
%TO.N,GND*%
X33687500Y-18750000D03*
%TD*%
D40*
%TO.P,D1,1,A1*%
%TO.N,+12V*%
X28050000Y-7150000D03*
%TO.P,D1,2,A2*%
%TO.N,GND*%
X28050000Y-3150000D03*
%TD*%
D15*
%TO.P,R14,1*%
%TO.N,GND*%
X41687500Y-21250000D03*
%TO.P,R14,2*%
%TO.N,/AIN4*%
X38762500Y-21250000D03*
%TD*%
D25*
%TO.P,C5,1*%
%TO.N,+5V*%
X25250000Y-15200000D03*
%TO.P,C5,2*%
%TO.N,GND*%
X25250000Y-10800000D03*
%TD*%
D36*
%TO.P,R1,1*%
%TO.N,+3.3V*%
X50600000Y-9575000D03*
%TO.P,R1,2*%
%TO.N,/GPIO8*%
X50600000Y-6650000D03*
%TD*%
D19*
%TO.P,R2,1*%
%TO.N,+3.3V*%
X53975000Y-11275000D03*
%TO.P,R2,2*%
%TO.N,Net-(U3-EN{slash}CHIP_PU)*%
X56900000Y-11275000D03*
%TD*%
D41*
%TO.P,U1,1,FB*%
%TO.N,+5V*%
X15137500Y-12750000D03*
%TO.P,U1,2,EN*%
%TO.N,+12V*%
X15137500Y-11800000D03*
%TO.P,U1,3,IN*%
X15137500Y-10850000D03*
%TO.P,U1,4,GND*%
%TO.N,GND*%
X12862500Y-10850000D03*
%TO.P,U1,5,SW*%
%TO.N,Net-(U1-SW)*%
X12862500Y-11800000D03*
%TO.P,U1,6,BST*%
%TO.N,Net-(U1-BST)*%
X12862500Y-12750000D03*
%TD*%
D25*
%TO.P,C4,1*%
%TO.N,+12V*%
X14000000Y-8200000D03*
%TO.P,C4,2*%
%TO.N,GND*%
X14000000Y-3800000D03*
%TD*%
D42*
%TO.P,C8,2*%
%TO.N,GND*%
X45625000Y-9575000D03*
%TO.P,C8,1*%
%TO.N,Net-(U5-OE)*%
X45625000Y-6625000D03*
%TD*%
D18*
%TO.P,R11,1*%
%TO.N,/AIN3*%
X33775000Y-33950000D03*
%TO.P,R11,2*%
%TO.N,Net-(AIN1-Pin_3)*%
X33775000Y-36875000D03*
%TD*%
D19*
%TO.P,R4,1*%
%TO.N,GND*%
X950000Y-31600000D03*
%TO.P,R4,2*%
%TO.N,Net-(D2-K)*%
X3875000Y-31600000D03*
%TD*%
D24*
%TO.P,D7,1,K*%
%TO.N,/AIN4*%
X36987500Y-21250000D03*
%TO.P,D7,2,A*%
%TO.N,GND*%
X33687500Y-21250000D03*
%TD*%
D19*
%TO.P,R5,1*%
%TO.N,Net-(U4-OE)*%
X12537500Y-33250000D03*
%TO.P,R5,2*%
%TO.N,+3.3V*%
X15462500Y-33250000D03*
%TD*%
D23*
%TO.P,C1,1*%
%TO.N,GND*%
X53975000Y-13675000D03*
%TO.P,C1,2*%
%TO.N,Net-(U3-EN{slash}CHIP_PU)*%
X56925000Y-13675000D03*
%TD*%
D43*
%TO.N,+5V*%
X8500000Y-29000000D03*
X17000000Y-15200000D03*
D44*
X10000000Y-37000000D03*
D43*
%TO.N,GND*%
X58500000Y-18625000D03*
D44*
X14000000Y-36250000D03*
X42900000Y-30000000D03*
X13000000Y-20000000D03*
D43*
X26150000Y-26750000D03*
D44*
X35325000Y-18750000D03*
X32500000Y-29500000D03*
X8500000Y-27500000D03*
D43*
X55525000Y-4050000D03*
D44*
X52200000Y-23800000D03*
X41750000Y-17125000D03*
D43*
X46250000Y-20250000D03*
X10350000Y-3800000D03*
D44*
X45600000Y-8125000D03*
X46400000Y-17625000D03*
X37750000Y-30125000D03*
D43*
X22200000Y-10800000D03*
D44*
X55400000Y-13700000D03*
X40525000Y-34250000D03*
X61800000Y-10500000D03*
X52200000Y-28100000D03*
D43*
X58500000Y-31500000D03*
X15500000Y-29000000D03*
X31250000Y-8250000D03*
D44*
X54350000Y-25900000D03*
D43*
X22250000Y-29250000D03*
X28250000Y-10800000D03*
X46250000Y-29250000D03*
D44*
X8000000Y-20000000D03*
X50050000Y-25950000D03*
D43*
X39500000Y-7125000D03*
D44*
%TO.N,/GPIO9*%
X47900000Y-17600000D03*
X55500000Y-7875000D03*
%TO.N,+12V*%
X16750000Y-11000000D03*
%TO.N,/AIN5*%
X40225000Y-18750000D03*
X48425000Y-18750000D03*
%TO.N,/USB_D-*%
X45050000Y-34200000D03*
X11250000Y-26750000D03*
%TO.N,/USB_D+*%
X44050000Y-33200000D03*
X11250000Y-25600000D03*
%TO.N,/GPIO8*%
X50600000Y-8112500D03*
X49400000Y-14900000D03*
%TO.N,/TXD*%
X17250000Y-30750000D03*
X46010000Y-31000000D03*
%TO.N,/RXD*%
X16000000Y-30750000D03*
X46000000Y-32250000D03*
D43*
%TO.N,+3.3V*%
X31250000Y-17500000D03*
D44*
X17850000Y-23500000D03*
X21850000Y-19500000D03*
X17850000Y-25500000D03*
X21850000Y-25500000D03*
X17850000Y-21500000D03*
D43*
X48100000Y-11112500D03*
D44*
X21850000Y-23500000D03*
X17850000Y-19500000D03*
X21850000Y-21500000D03*
%TD*%
D45*
%TO.N,Net-(GPIO1-Pin_4)*%
X40170000Y-2830000D02*
X40170000Y-1800000D01*
X37475000Y-3313198D02*
X39686802Y-3313198D01*
X39686802Y-3313198D02*
X40170000Y-2830000D01*
X34775000Y-8225000D02*
X34775000Y-6013198D01*
X35910875Y-9364124D02*
X35910875Y-9360875D01*
X35910875Y-9360875D02*
X34775000Y-8225000D01*
X34775000Y-6013198D02*
X37475000Y-3313198D01*
X36921751Y-10375000D02*
X35910875Y-9364124D01*
X37637500Y-10375000D02*
X36921751Y-10375000D01*
%TO.N,Net-(GPIO1-Pin_5)*%
X42710000Y-3215000D02*
X42710000Y-1800000D01*
X35225000Y-8038604D02*
X35225000Y-6213198D01*
X36911396Y-9725000D02*
X35225000Y-8038604D01*
X42161802Y-3763198D02*
X42710000Y-3215000D01*
X37637500Y-9725000D02*
X36911396Y-9725000D01*
X35225000Y-6213198D02*
X37675000Y-3763198D01*
X37675000Y-3763198D02*
X42161802Y-3763198D01*
%TO.N,Net-(GPIO1-Pin_6)*%
X45250000Y-3225000D02*
X45250000Y-1800000D01*
X44261802Y-4213198D02*
X45250000Y-3225000D01*
X37925000Y-4213198D02*
X44261802Y-4213198D01*
%TO.N,GND*%
X37637500Y-6287500D02*
X38050000Y-5875000D01*
X38050000Y-5875000D02*
X39100000Y-5875000D01*
X37637500Y-7125000D02*
X37637500Y-6287500D01*
%TO.N,+5V*%
X9950000Y-37050000D02*
X9950000Y-39725000D01*
D46*
X6462500Y-28062500D02*
X7400000Y-29000000D01*
X15162500Y-15200000D02*
X19100000Y-15200000D01*
X26150000Y-17500000D02*
X26150000Y-16100000D01*
X26150000Y-16100000D02*
X25250000Y-15200000D01*
D45*
X28300000Y-15200000D02*
X30500000Y-13000000D01*
X10425000Y-36575000D02*
X10000000Y-37000000D01*
D46*
X19100000Y-15200000D02*
X25250000Y-15200000D01*
D45*
X38700000Y-12698959D02*
X38326041Y-12325000D01*
D46*
X26150000Y-20200000D02*
X26150000Y-17500000D01*
D45*
X25250000Y-15200000D02*
X28300000Y-15200000D01*
X8562500Y-31600000D02*
X8562500Y-29062500D01*
X10000000Y-37000000D02*
X9950000Y-37050000D01*
X12300000Y-36575000D02*
X10425000Y-36575000D01*
D46*
X6462500Y-27100000D02*
X6462500Y-28062500D01*
D45*
X38451041Y-13500000D02*
X32750000Y-13500000D01*
X32000000Y-13000000D02*
X32500000Y-13500000D01*
D46*
X7400000Y-29000000D02*
X8500000Y-29000000D01*
D45*
X30500000Y-13000000D02*
X32000000Y-13000000D01*
X32500000Y-13500000D02*
X32750000Y-13500000D01*
X8562500Y-29062500D02*
X8500000Y-29000000D01*
X38326041Y-12325000D02*
X37637500Y-12325000D01*
X38451041Y-13500000D02*
X38700000Y-13251041D01*
X38700000Y-13251041D02*
X38700000Y-12698959D01*
D46*
%TO.N,GND*%
X28250000Y-10800000D02*
X25250000Y-10800000D01*
X3162500Y-29100000D02*
X4162500Y-28100000D01*
D45*
X16825000Y-36575000D02*
X17900000Y-35500000D01*
X15700000Y-36575000D02*
X14325000Y-36575000D01*
D46*
X31250000Y-10800000D02*
X28250000Y-10800000D01*
D45*
X4162500Y-26900000D02*
X4162500Y-28100000D01*
D46*
X1462500Y-22100000D02*
X1462500Y-22700000D01*
X27267620Y-3932380D02*
X28050000Y-3150000D01*
D45*
X17900000Y-35500000D02*
X20500000Y-35500000D01*
X14325000Y-36575000D02*
X14000000Y-36250000D01*
D46*
X1462500Y-28500000D02*
X1462500Y-29100000D01*
X14000000Y-3800000D02*
X10350000Y-3800000D01*
X22200000Y-10800000D02*
X25250000Y-10800000D01*
X1462500Y-22700000D02*
X1462500Y-24600000D01*
X3162500Y-22100000D02*
X4162500Y-23100000D01*
X19100000Y-10800000D02*
X22200000Y-10800000D01*
X1462500Y-26600000D02*
X1462500Y-28500000D01*
X1462500Y-22100000D02*
X3162500Y-22100000D01*
D45*
X11450000Y-10850000D02*
X12862500Y-10850000D01*
D46*
X46400000Y-16250000D02*
X46400000Y-17625000D01*
X22000000Y-3932380D02*
X27267620Y-3932380D01*
X14000000Y-3800000D02*
X21867620Y-3800000D01*
X1462500Y-29100000D02*
X3162500Y-29100000D01*
D45*
X7750000Y-14550000D02*
X11450000Y-10850000D01*
X15700000Y-36575000D02*
X16825000Y-36575000D01*
D46*
X1462500Y-24600000D02*
X1462500Y-26600000D01*
X21867620Y-3800000D02*
X22000000Y-3932380D01*
D45*
%TO.N,/GPIO9*%
X47900000Y-16250000D02*
X47900000Y-15500000D01*
X47250000Y-14850000D02*
X41989771Y-14850000D01*
X56900000Y-7875000D02*
X56900000Y-5387500D01*
X56900000Y-5387500D02*
X56887500Y-5375000D01*
X57225000Y-3425000D02*
X56887500Y-3762500D01*
X42673959Y-9725000D02*
X43362500Y-9725000D01*
X47900000Y-15500000D02*
X47250000Y-14850000D01*
X56887500Y-5375000D02*
X56887500Y-3762500D01*
X41989771Y-14850000D02*
X40950000Y-13810229D01*
X40950000Y-13810229D02*
X40950000Y-11448959D01*
X47900000Y-16250000D02*
X47900000Y-17600000D01*
X40950000Y-11448959D02*
X42673959Y-9725000D01*
X56900000Y-7875000D02*
X55500000Y-7875000D01*
X57225000Y-2425000D02*
X57225000Y-3425000D01*
D46*
%TO.N,Net-(U3-EN{slash}CHIP_PU)*%
X56900000Y-11275000D02*
X56900000Y-13650000D01*
D45*
X56900000Y-16600000D02*
X56900000Y-16250000D01*
X56900000Y-16250000D02*
X56900000Y-13675000D01*
X59225000Y-13425000D02*
X59225000Y-17275000D01*
X59225000Y-17275000D02*
X59175000Y-17325000D01*
X60450000Y-12200000D02*
X59225000Y-13425000D01*
X63600000Y-12200000D02*
X60450000Y-12200000D01*
X59175000Y-17325000D02*
X57625000Y-17325000D01*
D46*
X56900000Y-13650000D02*
X56925000Y-13675000D01*
D45*
X57625000Y-17325000D02*
X56900000Y-16600000D01*
%TO.N,Net-(U1-BST)*%
X12862500Y-12750000D02*
X13875000Y-13762500D01*
X13875000Y-13762500D02*
X13875000Y-17800000D01*
D47*
%TO.N,Net-(U1-SW)*%
X12837500Y-15200000D02*
X10925000Y-15200000D01*
X11989340Y-11800000D02*
X10925000Y-12864340D01*
X10925000Y-15200000D02*
X10925000Y-17800000D01*
X10925000Y-12864340D02*
X10925000Y-15200000D01*
X12862500Y-11800000D02*
X11989340Y-11800000D01*
D48*
%TO.N,+12V*%
X27000000Y-8200000D02*
X28050000Y-7150000D01*
X10320000Y-8200000D02*
X14000000Y-8200000D01*
D49*
X14550000Y-11800000D02*
X14250000Y-11500000D01*
D48*
X14000000Y-8200000D02*
X15150000Y-8200000D01*
D49*
X15137500Y-11800000D02*
X15700000Y-11800000D01*
D50*
X27300000Y-7900000D02*
X28050000Y-7150000D01*
D48*
X16000000Y-8200000D02*
X22000000Y-8200000D01*
X7740000Y-10780000D02*
X10320000Y-8200000D01*
X22000000Y-8200000D02*
X27000000Y-8200000D01*
D49*
X16000000Y-11500000D02*
X16000000Y-8200000D01*
X15700000Y-11800000D02*
X16000000Y-11500000D01*
X14250000Y-11500000D02*
X14250000Y-8450000D01*
X14250000Y-8450000D02*
X14000000Y-8200000D01*
D48*
X22000000Y-6432380D02*
X22000000Y-8200000D01*
X15137500Y-8212500D02*
X15150000Y-8200000D01*
D49*
X15137500Y-11800000D02*
X14550000Y-11800000D01*
D48*
X15150000Y-8200000D02*
X16000000Y-8200000D01*
D45*
%TO.N,Net-(U5-OE)*%
X48100000Y-6625000D02*
X43862500Y-6625000D01*
X43862500Y-6625000D02*
X43362500Y-7125000D01*
%TO.N,Net-(D2-K)*%
X5762500Y-31600000D02*
X3875000Y-31600000D01*
%TO.N,/AIN1*%
X58187906Y-33962094D02*
X58400000Y-33750000D01*
X55425000Y-37075000D02*
X58400000Y-34100000D01*
X41900000Y-37075000D02*
X55425000Y-37075000D01*
X36662500Y-29075000D02*
X36662500Y-31837500D01*
X58400000Y-34100000D02*
X58400000Y-33750000D01*
X36662500Y-31837500D02*
X38775000Y-33950000D01*
X36987500Y-28750000D02*
X36662500Y-29075000D01*
X38775000Y-33950000D02*
X41900000Y-37075000D01*
X36737500Y-28750000D02*
X38762500Y-28750000D01*
%TO.N,/AIN2*%
X36212500Y-27025000D02*
X36987500Y-26250000D01*
X36737500Y-26250000D02*
X38762500Y-26250000D01*
X36212500Y-33887500D02*
X36212500Y-27025000D01*
X45400000Y-36625000D02*
X44525000Y-36625000D01*
X38762500Y-26250000D02*
X39650000Y-27137500D01*
X56900000Y-33750000D02*
X56900000Y-34050000D01*
X44527208Y-36625000D02*
X45400000Y-36625000D01*
X36275000Y-33950000D02*
X36212500Y-33887500D01*
X54325000Y-36625000D02*
X45400000Y-36625000D01*
X56900000Y-34162094D02*
X56900000Y-33750000D01*
X56900000Y-34050000D02*
X54325000Y-36625000D01*
X39650000Y-27137500D02*
X39650000Y-31747792D01*
X39650000Y-31747792D02*
X44527208Y-36625000D01*
%TO.N,/AIN3*%
X34524327Y-33950000D02*
X35762500Y-32711827D01*
X35762500Y-24975000D02*
X36987500Y-23750000D01*
X40100000Y-31561396D02*
X44713604Y-36175000D01*
X55400000Y-34150000D02*
X55400000Y-33750000D01*
X44713604Y-36175000D02*
X45625000Y-36175000D01*
X36737500Y-23750000D02*
X38762500Y-23750000D01*
X53275000Y-36175000D02*
X45625000Y-36175000D01*
X40100000Y-25087500D02*
X40100000Y-31561396D01*
X38762500Y-23750000D02*
X40100000Y-25087500D01*
X35762500Y-32711827D02*
X35762500Y-24975000D01*
X55400000Y-34050000D02*
X53275000Y-36175000D01*
X55400000Y-33750000D02*
X55400000Y-34050000D01*
X33775000Y-33950000D02*
X34524327Y-33950000D01*
%TO.N,Net-(D6-A)*%
X4162500Y-24300000D02*
X5962500Y-24300000D01*
X5962500Y-24300000D02*
X6462500Y-23800000D01*
%TO.N,/AIN4*%
X53900000Y-33750000D02*
X53900000Y-34050000D01*
X53900000Y-34050000D02*
X52225000Y-35725000D01*
X52225000Y-35725000D02*
X45525000Y-35725000D01*
X40550000Y-23037500D02*
X40550000Y-31375000D01*
X53900000Y-34100000D02*
X53900000Y-33750000D01*
X35312500Y-32262500D02*
X34512500Y-33062500D01*
X32162500Y-33062500D02*
X31275000Y-33950000D01*
X36987500Y-21250000D02*
X35312500Y-22925000D01*
X34512500Y-33062500D02*
X32162500Y-33062500D01*
X36737500Y-21250000D02*
X38762500Y-21250000D01*
X44900000Y-35725000D02*
X45525000Y-35725000D01*
X38762500Y-21250000D02*
X40550000Y-23037500D01*
X35312500Y-22925000D02*
X35312500Y-32262500D01*
X40550000Y-31375000D02*
X44900000Y-35725000D01*
%TO.N,/AIN5*%
X34862500Y-32062500D02*
X34312500Y-32612500D01*
X55400000Y-16250000D02*
X55400000Y-16600000D01*
X30112500Y-32612500D02*
X28775000Y-33950000D01*
X48425000Y-18750000D02*
X49850000Y-17325000D01*
X36737500Y-18750000D02*
X38762500Y-18750000D01*
X34862500Y-20875000D02*
X34862500Y-32062500D01*
X54675000Y-17325000D02*
X49850000Y-17325000D01*
X34312500Y-32612500D02*
X30112500Y-32612500D01*
X55400000Y-16600000D02*
X54675000Y-17325000D01*
X36987500Y-18750000D02*
X34862500Y-20875000D01*
X40225000Y-18750000D02*
X38762500Y-18750000D01*
%TO.N,Net-(GPIO1-Pin_6)*%
X35675000Y-7801041D02*
X35675000Y-6463198D01*
X37637500Y-9075000D02*
X36948959Y-9075000D01*
X36948959Y-9075000D02*
X35675000Y-7801041D01*
X35675000Y-6463198D02*
X37925000Y-4213198D01*
%TO.N,Net-(GPIO1-Pin_3)*%
X37637500Y-11025000D02*
X36935355Y-11025000D01*
X34325000Y-5826802D02*
X37580000Y-2571802D01*
X34325000Y-8414644D02*
X34325000Y-5826802D01*
X37580000Y-2571802D02*
X37580000Y-1800000D01*
X36935355Y-11025000D02*
X34325000Y-8414644D01*
%TO.N,Net-(GPIO1-Pin_2)*%
X36948959Y-11675000D02*
X33875000Y-8601040D01*
X37637500Y-11675000D02*
X36948959Y-11675000D01*
X33875000Y-8601040D02*
X33875000Y-5640406D01*
X33875000Y-5640406D02*
X36100000Y-3415406D01*
X36100000Y-3415406D02*
X36100000Y-2860000D01*
X36100000Y-2860000D02*
X35040000Y-1800000D01*
%TO.N,Net-(GPIO1-Pin_1)*%
X33425000Y-2725000D02*
X32500000Y-1800000D01*
X33425000Y-8787436D02*
X33425000Y-2725000D01*
X36498959Y-11861396D02*
X33425000Y-8787436D01*
X36948959Y-12975000D02*
X36498959Y-12525000D01*
X36498959Y-12525000D02*
X36498959Y-11861396D01*
X37637500Y-12975000D02*
X36948959Y-12975000D01*
%TO.N,/USB_D-*%
X45050000Y-34250000D02*
X45625000Y-34825000D01*
D51*
X4162500Y-24950000D02*
X4212500Y-24900000D01*
D45*
X45050000Y-34200000D02*
X45050000Y-34250000D01*
D51*
X4212500Y-24900000D02*
X11539950Y-24900000D01*
D45*
X45625000Y-34825000D02*
X50125000Y-34825000D01*
D51*
X11950000Y-25310050D02*
X11950000Y-26050000D01*
D45*
X50125000Y-34825000D02*
X50900000Y-34050000D01*
D51*
X11950000Y-26050000D02*
X11250000Y-26750000D01*
X11539950Y-24900000D02*
X11950000Y-25310050D01*
D45*
%TO.N,/USB_D+*%
X44050000Y-34225305D02*
X44050000Y-33200000D01*
X11250000Y-25600000D02*
X4162500Y-25600000D01*
X45099695Y-35275000D02*
X44050000Y-34225305D01*
X51225000Y-35275000D02*
X45099695Y-35275000D01*
X52400000Y-34100000D02*
X51225000Y-35275000D01*
%TO.N,/GPIO8*%
X41400000Y-13623833D02*
X42038083Y-14261917D01*
X42673959Y-10375000D02*
X41400000Y-11648959D01*
X49400000Y-16250000D02*
X49400000Y-14900000D01*
X41400000Y-11648959D02*
X41400000Y-13623833D01*
X49400000Y-14900000D02*
X48900000Y-14400000D01*
X42176167Y-14400000D02*
X42038083Y-14261917D01*
X43362500Y-10375000D02*
X42673959Y-10375000D01*
X48900000Y-14400000D02*
X42176167Y-14400000D01*
X50600000Y-8112500D02*
X50600000Y-6650000D01*
%TO.N,Net-(U4-OE)*%
X11000000Y-35500000D02*
X11000000Y-34250000D01*
X12537500Y-33250000D02*
X12000000Y-33250000D01*
X11425000Y-35925000D02*
X11000000Y-35500000D01*
X12300000Y-35925000D02*
X11425000Y-35925000D01*
X12000000Y-33250000D02*
X11000000Y-34250000D01*
%TO.N,/TXD*%
X14500000Y-34075000D02*
X14500000Y-32461827D01*
X49400000Y-33450000D02*
X49400000Y-33750000D01*
X14500000Y-32461827D02*
X15486827Y-31475000D01*
X15700000Y-35275000D02*
X14500000Y-34075000D01*
X46950000Y-31000000D02*
X49400000Y-33450000D01*
X16525000Y-31475000D02*
X17250000Y-30750000D01*
X46010000Y-31000000D02*
X46950000Y-31000000D01*
X15486827Y-31475000D02*
X16525000Y-31475000D01*
%TO.N,/RXD*%
X12300000Y-35275000D02*
X13500000Y-34075000D01*
X13500000Y-32500000D02*
X15250000Y-30750000D01*
X47900000Y-33750000D02*
X47900000Y-32850000D01*
X13500000Y-34075000D02*
X13500000Y-32500000D01*
X47900000Y-32850000D02*
X47300000Y-32250000D01*
X15250000Y-30750000D02*
X16000000Y-30750000D01*
X47300000Y-32250000D02*
X46000000Y-32250000D01*
%TO.N,/GPIO10*%
X40500000Y-11248959D02*
X40500000Y-13996625D01*
X42673959Y-9075000D02*
X40500000Y-11248959D01*
X44750000Y-32100000D02*
X46400000Y-33750000D01*
X43777208Y-15300000D02*
X41803375Y-15300000D01*
X40500000Y-13996625D02*
X41803375Y-15300000D01*
X44750000Y-16272792D02*
X44750000Y-32100000D01*
X43362500Y-9075000D02*
X42673959Y-9075000D01*
X44750000Y-16272792D02*
X43777208Y-15300000D01*
%TO.N,/GPIO7*%
X41850000Y-11848959D02*
X41850000Y-13437437D01*
X49600000Y-13950000D02*
X50900000Y-15250000D01*
X42673959Y-11025000D02*
X41850000Y-11848959D01*
X43362500Y-11025000D02*
X42673959Y-11025000D01*
X42362563Y-13950000D02*
X49600000Y-13950000D01*
X41850000Y-13437437D02*
X42362563Y-13950000D01*
X50900000Y-15250000D02*
X50900000Y-16250000D01*
%TO.N,/GPIO6*%
X52400000Y-16000000D02*
X49900000Y-13500000D01*
X42673959Y-11675000D02*
X43362500Y-11675000D01*
X42548959Y-13500000D02*
X42300000Y-13251041D01*
X42300000Y-13251041D02*
X42300000Y-12048959D01*
X49900000Y-13500000D02*
X42548959Y-13500000D01*
X52400000Y-16250000D02*
X52400000Y-16000000D01*
X42300000Y-12048959D02*
X42673959Y-11675000D01*
%TO.N,/GPIO5*%
X53075000Y-15125000D02*
X53900000Y-15950000D01*
X53900000Y-15950000D02*
X53900000Y-16250000D01*
X50086396Y-13050000D02*
X52161396Y-15125000D01*
X52161396Y-15125000D02*
X53075000Y-15125000D01*
X44475000Y-12975000D02*
X44550000Y-13050000D01*
X43362500Y-12975000D02*
X44475000Y-12975000D01*
X44550000Y-13050000D02*
X50086396Y-13050000D01*
D46*
%TO.N,+3.3V*%
X31250000Y-17500000D02*
X28500000Y-20250000D01*
X50575000Y-9550000D02*
X50600000Y-9575000D01*
X53975000Y-9575000D02*
X53975000Y-11275000D01*
D45*
X17000000Y-35500000D02*
X17000000Y-34000000D01*
D46*
X53975000Y-7875000D02*
X53975000Y-9575000D01*
D45*
X43362500Y-12325000D02*
X46887500Y-12325000D01*
D46*
X53975000Y-9575000D02*
X50600000Y-9575000D01*
D45*
X16575000Y-35925000D02*
X17000000Y-35500000D01*
X15462500Y-33250000D02*
X17000000Y-33250000D01*
X17000000Y-34000000D02*
X17000000Y-33250000D01*
D46*
X28000000Y-22500000D02*
X26150000Y-22500000D01*
X28500000Y-20250000D02*
X28500000Y-22000000D01*
D45*
X17350000Y-29750000D02*
X17350000Y-26000000D01*
X15700000Y-35925000D02*
X16575000Y-35925000D01*
D46*
X28500000Y-22000000D02*
X28000000Y-22500000D01*
D45*
X18000000Y-31250000D02*
X18000000Y-30400000D01*
X46887500Y-12325000D02*
X48100000Y-11112500D01*
D46*
X31250000Y-15200000D02*
X31250000Y-17500000D01*
D45*
X17000000Y-32250000D02*
X18000000Y-31250000D01*
X17350000Y-26000000D02*
X17850000Y-25500000D01*
D46*
X58400000Y-10493997D02*
X57481003Y-9575000D01*
D45*
X18000000Y-30400000D02*
X17350000Y-29750000D01*
D46*
X58400000Y-16250000D02*
X58400000Y-10493997D01*
X48100000Y-9550000D02*
X50575000Y-9550000D01*
D45*
X17000000Y-33250000D02*
X17000000Y-32250000D01*
D46*
X48100000Y-9550000D02*
X48100000Y-11112500D01*
X57481003Y-9575000D02*
X53975000Y-9575000D01*
D45*
%TO.N,Net-(AIN1-Pin_1)*%
X38825000Y-36925000D02*
X38825000Y-39725000D01*
X38775000Y-36875000D02*
X38825000Y-36925000D01*
%TO.N,Net-(AIN1-Pin_2)*%
X36285000Y-36885000D02*
X36285000Y-39725000D01*
X36275000Y-36875000D02*
X36285000Y-36885000D01*
%TO.N,Net-(AIN1-Pin_3)*%
X33745000Y-36905000D02*
X33775000Y-36875000D01*
X33745000Y-39725000D02*
X33745000Y-36905000D01*
%TO.N,Net-(AIN1-Pin_4)*%
X31205000Y-39725000D02*
X31205000Y-36945000D01*
X31205000Y-36945000D02*
X31275000Y-36875000D01*
%TO.N,Net-(AIN1-Pin_5)*%
X28665000Y-36985000D02*
X28775000Y-36875000D01*
X28665000Y-39725000D02*
X28665000Y-36985000D01*
%TO.N,Net-(D9-K)*%
X19000000Y-34250000D02*
X19000000Y-32300000D01*
%TO.N,Net-(D9-A)*%
X14750000Y-39445000D02*
X15030000Y-39725000D01*
X14750000Y-37500000D02*
X14750000Y-39445000D01*
X15700000Y-37225000D02*
X18825000Y-37225000D01*
X18825000Y-37225000D02*
X19000000Y-37050000D01*
X15700000Y-37225000D02*
X15025000Y-37225000D01*
X15025000Y-37225000D02*
X14750000Y-37500000D01*
%TO.N,Net-(TTY1-Pin_2)*%
X12300000Y-37225000D02*
X12975000Y-37225000D01*
X13250000Y-37500000D02*
X13250000Y-38965000D01*
X13250000Y-38965000D02*
X12490000Y-39725000D01*
X12975000Y-37225000D02*
X13250000Y-37500000D01*
%TD*%
%TA.AperFunction,Conductor*%
%TO.N,+3.3V*%
G36*
X24992121Y-17520002D02*
G01*
X25038614Y-17573658D01*
X25050000Y-17626000D01*
X25050000Y-18857096D01*
X25029998Y-18925217D01*
X24976342Y-18971710D01*
X24968034Y-18975151D01*
X24903795Y-18999111D01*
X24903792Y-18999112D01*
X24786738Y-19086738D01*
X24699112Y-19203792D01*
X24699110Y-19203797D01*
X24648011Y-19340795D01*
X24648009Y-19340803D01*
X24641500Y-19401350D01*
X24641500Y-20998649D01*
X24648009Y-21059196D01*
X24648011Y-21059204D01*
X24699110Y-21196202D01*
X24699112Y-21196207D01*
X24786738Y-21313261D01*
X24903792Y-21400887D01*
X24903794Y-21400888D01*
X24903796Y-21400889D01*
X24962875Y-21422924D01*
X25040795Y-21451988D01*
X25040803Y-21451990D01*
X25101350Y-21458499D01*
X25101355Y-21458499D01*
X25101362Y-21458500D01*
X25101368Y-21458500D01*
X27198632Y-21458500D01*
X27198638Y-21458500D01*
X27259201Y-21451989D01*
X27259201Y-21451988D01*
X27260531Y-21451846D01*
X27330400Y-21464452D01*
X27382362Y-21512830D01*
X27400000Y-21577124D01*
X27400000Y-23422875D01*
X27379998Y-23490996D01*
X27326342Y-23537489D01*
X27260533Y-23548153D01*
X27198652Y-23541501D01*
X27198643Y-23541500D01*
X27198638Y-23541500D01*
X25101362Y-23541500D01*
X25101350Y-23541500D01*
X25040803Y-23548009D01*
X25040795Y-23548011D01*
X24903797Y-23599110D01*
X24903792Y-23599112D01*
X24786738Y-23686738D01*
X24699112Y-23803792D01*
X24699110Y-23803797D01*
X24648011Y-23940795D01*
X24648009Y-23940803D01*
X24641500Y-24001350D01*
X24641500Y-25598649D01*
X24648009Y-25659196D01*
X24648011Y-25659204D01*
X24699110Y-25796202D01*
X24699112Y-25796207D01*
X24786738Y-25913261D01*
X24903792Y-26000887D01*
X24903794Y-26000887D01*
X24903796Y-26000889D01*
X24968034Y-26024849D01*
X25024868Y-26067394D01*
X25049679Y-26133914D01*
X25050000Y-26142903D01*
X25050000Y-26604099D01*
X25049731Y-26609915D01*
X25036751Y-26749999D01*
X25049731Y-26890083D01*
X25050000Y-26895899D01*
X25050000Y-27374000D01*
X25029998Y-27442121D01*
X24976342Y-27488614D01*
X24924000Y-27500000D01*
X15176000Y-27500000D01*
X15107879Y-27479998D01*
X15061386Y-27426342D01*
X15050000Y-27374000D01*
X15050000Y-17626000D01*
X15070002Y-17557879D01*
X15123658Y-17511386D01*
X15176000Y-17500000D01*
X24924000Y-17500000D01*
X24992121Y-17520002D01*
G37*
%TD.AperFunction*%
%TD*%
%TA.AperFunction,Conductor*%
%TO.N,+5V*%
G36*
X15968968Y-12587463D02*
G01*
X15986802Y-12592700D01*
X16131471Y-12613500D01*
X16131475Y-12613500D01*
X16411310Y-12613500D01*
X16479431Y-12633502D01*
X16500400Y-12650400D01*
X16850000Y-13000000D01*
X27374000Y-13000000D01*
X27442121Y-13020002D01*
X27488614Y-13073658D01*
X27500000Y-13126000D01*
X27499999Y-20111050D01*
X27499696Y-20117228D01*
X27486620Y-20249995D01*
X27486620Y-20250002D01*
X27491196Y-20296464D01*
X27491500Y-20302643D01*
X27491500Y-20821261D01*
X27471498Y-20889382D01*
X27417842Y-20935875D01*
X27356232Y-20945864D01*
X27356204Y-20946666D01*
X27352178Y-20946522D01*
X27352056Y-20946542D01*
X27351718Y-20946505D01*
X27242157Y-20942592D01*
X27205642Y-20941288D01*
X27205641Y-20941288D01*
X27205638Y-20941288D01*
X27205636Y-20941288D01*
X27185039Y-20943502D01*
X27174468Y-20944639D01*
X27167736Y-20945000D01*
X25376000Y-20945000D01*
X25307879Y-20924998D01*
X25261386Y-20871342D01*
X25250000Y-20819000D01*
X25250000Y-19468827D01*
X25270002Y-19400706D01*
X25307879Y-19362829D01*
X25312612Y-19359788D01*
X25365011Y-19314384D01*
X25366101Y-19313489D01*
X25461980Y-19202837D01*
X25461982Y-19202835D01*
X25522698Y-19069886D01*
X25542700Y-19001765D01*
X25563500Y-18857096D01*
X25563500Y-17626000D01*
X25551766Y-17516851D01*
X25548100Y-17500000D01*
X25540382Y-17464519D01*
X25540380Y-17464509D01*
X25505710Y-17360343D01*
X25426692Y-17237388D01*
X25381307Y-17185011D01*
X25380398Y-17183903D01*
X25293488Y-17108596D01*
X25255104Y-17048870D01*
X25250000Y-17013371D01*
X25250000Y-16950000D01*
X15023772Y-16950000D01*
X14955651Y-16929998D01*
X14909158Y-16876342D01*
X14904168Y-16863634D01*
X14897790Y-16844389D01*
X14892115Y-16827262D01*
X14799030Y-16676348D01*
X14799029Y-16676347D01*
X14799024Y-16676341D01*
X14736905Y-16614222D01*
X14702879Y-16551910D01*
X14700000Y-16525127D01*
X14700000Y-12734500D01*
X14720002Y-12666379D01*
X14773658Y-12619886D01*
X14826000Y-12608500D01*
X15791093Y-12608500D01*
X15791097Y-12608500D01*
X15832209Y-12599115D01*
X15839145Y-12597937D01*
X15881047Y-12593217D01*
X15891858Y-12589433D01*
X15962759Y-12585811D01*
X15968968Y-12587463D01*
G37*
%TD.AperFunction*%
%TD*%
%TA.AperFunction,Conductor*%
%TO.N,+12V*%
G36*
X13170357Y-5756395D02*
G01*
X13295574Y-5797887D01*
X13399455Y-5808500D01*
X14600544Y-5808499D01*
X14704426Y-5797887D01*
X14829642Y-5756395D01*
X14869275Y-5750000D01*
X28824000Y-5750000D01*
X28892121Y-5770002D01*
X28938614Y-5823658D01*
X28950000Y-5876000D01*
X28950000Y-9524000D01*
X28929998Y-9592121D01*
X28876342Y-9638614D01*
X28824000Y-9650000D01*
X26684499Y-9650000D01*
X26616378Y-9629998D01*
X26569885Y-9576342D01*
X26558499Y-9524000D01*
X26558499Y-9499455D01*
X26547887Y-9395574D01*
X26547886Y-9395572D01*
X26492115Y-9227262D01*
X26399030Y-9076348D01*
X26399029Y-9076347D01*
X26399024Y-9076341D01*
X26273658Y-8950975D01*
X26273652Y-8950970D01*
X26122738Y-8857885D01*
X26038581Y-8829998D01*
X25954427Y-8802113D01*
X25954420Y-8802112D01*
X25850553Y-8791500D01*
X24649455Y-8791500D01*
X24545574Y-8802112D01*
X24377261Y-8857885D01*
X24226347Y-8950970D01*
X24226341Y-8950975D01*
X24100975Y-9076341D01*
X24100970Y-9076347D01*
X24007885Y-9227262D01*
X23952113Y-9395572D01*
X23952112Y-9395579D01*
X23941500Y-9499446D01*
X23941500Y-9524000D01*
X23921498Y-9592121D01*
X23867842Y-9638614D01*
X23815500Y-9650000D01*
X20534499Y-9650000D01*
X20466378Y-9629998D01*
X20419885Y-9576342D01*
X20408499Y-9524000D01*
X20408499Y-9499455D01*
X20397887Y-9395574D01*
X20397886Y-9395572D01*
X20342115Y-9227262D01*
X20249030Y-9076348D01*
X20249029Y-9076347D01*
X20249024Y-9076341D01*
X20123658Y-8950975D01*
X20123652Y-8950970D01*
X20123651Y-8950969D01*
X19972738Y-8857885D01*
X19888581Y-8829998D01*
X19804427Y-8802113D01*
X19804420Y-8802112D01*
X19700553Y-8791500D01*
X18499455Y-8791500D01*
X18395574Y-8802112D01*
X18227261Y-8857885D01*
X18076347Y-8950970D01*
X18076341Y-8950975D01*
X17950975Y-9076341D01*
X17950970Y-9076347D01*
X17857885Y-9227262D01*
X17802113Y-9395572D01*
X17802112Y-9395579D01*
X17791500Y-9499446D01*
X17791500Y-11306308D01*
X17771498Y-11374429D01*
X17754596Y-11395403D01*
X17086905Y-12063095D01*
X17024592Y-12097120D01*
X16997809Y-12100000D01*
X16131471Y-12100000D01*
X16063350Y-12079998D01*
X16058318Y-12076440D01*
X15913605Y-11990856D01*
X15753829Y-11944437D01*
X15716506Y-11941500D01*
X15716502Y-11941500D01*
X14558498Y-11941500D01*
X14558494Y-11941500D01*
X14521170Y-11944437D01*
X14361397Y-11990855D01*
X14223638Y-12072326D01*
X14154821Y-12089785D01*
X14087490Y-12067268D01*
X14043021Y-12011923D01*
X14033500Y-11963877D01*
X14033500Y-11583498D01*
X14030562Y-11546169D01*
X13984145Y-11386399D01*
X13984141Y-11386392D01*
X13980993Y-11379115D01*
X13983003Y-11378245D01*
X13968306Y-11320329D01*
X13982620Y-11271578D01*
X13980997Y-11270876D01*
X13984143Y-11263604D01*
X13984142Y-11263604D01*
X13984145Y-11263601D01*
X14030562Y-11103831D01*
X14033500Y-11066502D01*
X14033500Y-10633498D01*
X14030562Y-10596169D01*
X13984145Y-10436399D01*
X13984143Y-10436397D01*
X13984143Y-10436394D01*
X13899455Y-10293196D01*
X13899450Y-10293189D01*
X13781810Y-10175549D01*
X13781803Y-10175544D01*
X13638605Y-10090856D01*
X13531892Y-10059853D01*
X13477952Y-10027952D01*
X13200000Y-9750000D01*
X11499998Y-9750000D01*
X8986905Y-12263095D01*
X8924593Y-12297120D01*
X8897810Y-12300000D01*
X6126000Y-12300000D01*
X6057879Y-12279998D01*
X6011386Y-12226342D01*
X6000000Y-12174000D01*
X6000000Y-8426000D01*
X6020002Y-8357879D01*
X6073658Y-8311386D01*
X6126000Y-8300000D01*
X8950000Y-8300000D01*
X11463095Y-5786905D01*
X11525407Y-5752880D01*
X11552190Y-5750000D01*
X13130725Y-5750000D01*
X13170357Y-5756395D01*
G37*
%TD.AperFunction*%
%TD*%
%TA.AperFunction,Conductor*%
%TO.N,GND*%
G36*
X14041728Y-34531142D02*
G01*
X14090525Y-34561429D01*
X14380654Y-34851558D01*
X14414680Y-34913870D01*
X14409616Y-34984682D01*
X14398011Y-35015798D01*
X14398009Y-35015804D01*
X14391500Y-35076350D01*
X14391500Y-35473649D01*
X14398009Y-35534196D01*
X14398010Y-35534199D01*
X14406130Y-35555970D01*
X14411193Y-35626786D01*
X14406130Y-35644030D01*
X14398010Y-35665800D01*
X14398009Y-35665803D01*
X14391500Y-35726350D01*
X14391500Y-36123649D01*
X14398009Y-36184195D01*
X14398010Y-36184198D01*
X14406397Y-36206685D01*
X14411460Y-36277501D01*
X14406398Y-36294741D01*
X14398505Y-36315906D01*
X14398503Y-36315911D01*
X14392000Y-36376399D01*
X14392000Y-36425000D01*
X14477087Y-36425000D01*
X14545208Y-36445002D01*
X14552596Y-36450132D01*
X14584656Y-36474132D01*
X14627203Y-36530968D01*
X14632267Y-36601784D01*
X14598242Y-36664096D01*
X14584656Y-36675868D01*
X14552596Y-36699868D01*
X14486076Y-36724679D01*
X14477087Y-36725000D01*
X14392000Y-36725000D01*
X14392000Y-36773597D01*
X14398505Y-36834096D01*
X14398505Y-36834097D01*
X14403213Y-36846719D01*
X14408276Y-36917535D01*
X14374251Y-36979842D01*
X14361336Y-36992757D01*
X14348901Y-37002720D01*
X14349089Y-37002947D01*
X14342982Y-37007999D01*
X14295015Y-37059079D01*
X14273866Y-37080227D01*
X14269560Y-37085777D01*
X14265714Y-37090279D01*
X14233417Y-37124674D01*
X14233411Y-37124683D01*
X14223651Y-37142435D01*
X14212803Y-37158950D01*
X14200386Y-37174958D01*
X14181645Y-37218264D01*
X14179034Y-37223594D01*
X14156305Y-37264939D01*
X14156303Y-37264944D01*
X14151267Y-37284559D01*
X14144864Y-37303262D01*
X14136819Y-37321852D01*
X14129437Y-37368456D01*
X14128233Y-37374268D01*
X14123111Y-37394218D01*
X14086798Y-37455225D01*
X14023266Y-37486915D01*
X13952687Y-37479227D01*
X13897469Y-37434601D01*
X13880074Y-37398045D01*
X13878638Y-37393104D01*
X13875020Y-37380651D01*
X13871012Y-37361298D01*
X13868474Y-37341203D01*
X13851100Y-37297322D01*
X13849181Y-37291716D01*
X13836018Y-37246407D01*
X13825706Y-37228970D01*
X13817010Y-37211221D01*
X13809552Y-37192383D01*
X13781812Y-37154203D01*
X13778564Y-37149258D01*
X13754542Y-37108638D01*
X13740214Y-37094310D01*
X13727384Y-37079289D01*
X13715472Y-37062893D01*
X13679111Y-37032812D01*
X13674725Y-37028821D01*
X13626136Y-36980230D01*
X13592111Y-36917918D01*
X13597177Y-36847102D01*
X13597178Y-36847100D01*
X13601989Y-36834200D01*
X13608499Y-36773649D01*
X13608500Y-36773632D01*
X13608500Y-36376367D01*
X13608499Y-36376350D01*
X13601990Y-36315803D01*
X13601989Y-36315801D01*
X13601989Y-36315799D01*
X13593870Y-36294033D01*
X13588803Y-36223221D01*
X13593867Y-36205975D01*
X13601989Y-36184201D01*
X13608500Y-36123638D01*
X13608500Y-35726362D01*
X13608499Y-35726350D01*
X13601990Y-35665802D01*
X13599377Y-35658797D01*
X13593870Y-35644034D01*
X13588803Y-35573223D01*
X13593869Y-35555970D01*
X13601989Y-35534201D01*
X13601989Y-35534199D01*
X13601990Y-35534197D01*
X13608499Y-35473649D01*
X13608500Y-35473632D01*
X13608500Y-35076367D01*
X13608499Y-35076350D01*
X13601990Y-35015803D01*
X13601989Y-35015802D01*
X13601989Y-35015799D01*
X13590383Y-34984684D01*
X13585318Y-34913873D01*
X13619340Y-34851562D01*
X13888657Y-34582245D01*
X13901092Y-34572284D01*
X13900905Y-34572057D01*
X13907015Y-34567002D01*
X13907015Y-34567001D01*
X13907018Y-34567000D01*
X13909578Y-34564272D01*
X13912117Y-34562781D01*
X13913126Y-34561947D01*
X13913260Y-34562109D01*
X13970789Y-34528307D01*
X14041728Y-34531142D01*
G37*
%TD.AperFunction*%
%TA.AperFunction,Conductor*%
G36*
X4206533Y-27594449D02*
G01*
X4251595Y-27623410D01*
X4343337Y-27715152D01*
X4295469Y-27690762D01*
X4195951Y-27675000D01*
X4129049Y-27675000D01*
X4029531Y-27690762D01*
X3981662Y-27715152D01*
X4073405Y-27623410D01*
X4135717Y-27589384D01*
X4206533Y-27594449D01*
G37*
%TD.AperFunction*%
%TA.AperFunction,Conductor*%
G36*
X4273590Y-23554595D02*
G01*
X4211278Y-23588620D01*
X4184495Y-23591500D01*
X4140505Y-23591500D01*
X4072384Y-23571498D01*
X4051410Y-23554595D01*
X3981662Y-23484847D01*
X4029531Y-23509238D01*
X4129049Y-23525000D01*
X4195951Y-23525000D01*
X4295469Y-23509238D01*
X4343336Y-23484847D01*
X4273590Y-23554595D01*
G37*
%TD.AperFunction*%
%TA.AperFunction,Conductor*%
G36*
X65916621Y-45502D02*
G01*
X65963114Y-99158D01*
X65974500Y-151500D01*
X65974500Y-15074000D01*
X65954498Y-15142121D01*
X65900842Y-15188614D01*
X65848500Y-15200000D01*
X59984500Y-15200000D01*
X59916379Y-15179998D01*
X59869886Y-15126342D01*
X59858500Y-15074000D01*
X59858500Y-13739594D01*
X59878502Y-13671473D01*
X59895405Y-13650498D01*
X60675500Y-12870404D01*
X60737812Y-12836379D01*
X60764595Y-12833500D01*
X62190113Y-12833500D01*
X62258234Y-12853502D01*
X62292275Y-12890064D01*
X62293711Y-12888990D01*
X62299110Y-12896202D01*
X62299111Y-12896204D01*
X62311047Y-12912149D01*
X62386738Y-13013261D01*
X62503792Y-13100887D01*
X62503794Y-13100888D01*
X62503796Y-13100889D01*
X62562875Y-13122924D01*
X62640795Y-13151988D01*
X62640803Y-13151990D01*
X62701350Y-13158499D01*
X62701355Y-13158499D01*
X62701362Y-13158500D01*
X62701368Y-13158500D01*
X64498632Y-13158500D01*
X64498638Y-13158500D01*
X64498645Y-13158499D01*
X64498649Y-13158499D01*
X64559196Y-13151990D01*
X64559199Y-13151989D01*
X64559201Y-13151989D01*
X64696204Y-13100889D01*
X64813261Y-13013261D01*
X64900889Y-12896204D01*
X64951989Y-12759201D01*
X64952006Y-12759050D01*
X64958499Y-12698649D01*
X64958500Y-12698632D01*
X64958500Y-11701367D01*
X64958499Y-11701350D01*
X64951990Y-11640803D01*
X64951988Y-11640795D01*
X64912571Y-11535116D01*
X64900889Y-11503796D01*
X64900888Y-11503794D01*
X64900887Y-11503792D01*
X64813261Y-11386738D01*
X64696207Y-11299112D01*
X64696202Y-11299110D01*
X64559204Y-11248011D01*
X64559196Y-11248009D01*
X64498649Y-11241500D01*
X64498638Y-11241500D01*
X64073897Y-11241500D01*
X64005776Y-11221498D01*
X63959283Y-11167842D01*
X63949179Y-11097568D01*
X63978673Y-11032988D01*
X63999834Y-11013564D01*
X64048837Y-10977963D01*
X64153600Y-10851326D01*
X64223579Y-10702613D01*
X64224078Y-10700000D01*
X64254375Y-10541176D01*
X64254376Y-10541165D01*
X64244056Y-10377143D01*
X64244056Y-10377138D01*
X64193268Y-10220829D01*
X64105203Y-10082060D01*
X63992100Y-9975850D01*
X63956135Y-9914638D01*
X63958972Y-9843698D01*
X63999713Y-9785554D01*
X64065421Y-9758665D01*
X64078353Y-9758000D01*
X64498585Y-9758000D01*
X64498597Y-9757999D01*
X64559093Y-9751494D01*
X64695964Y-9700444D01*
X64695965Y-9700444D01*
X64812904Y-9612904D01*
X64900444Y-9495965D01*
X64900444Y-9495964D01*
X64951494Y-9359093D01*
X64957999Y-9298597D01*
X64958000Y-9298585D01*
X64958000Y-9200000D01*
X62242000Y-9200000D01*
X62242000Y-9298597D01*
X62248505Y-9359093D01*
X62299555Y-9495964D01*
X62299555Y-9495965D01*
X62387095Y-9612904D01*
X62504034Y-9700444D01*
X62640906Y-9751494D01*
X62701402Y-9757999D01*
X62701415Y-9758000D01*
X63126791Y-9758000D01*
X63194912Y-9778002D01*
X63241405Y-9831658D01*
X63251509Y-9901932D01*
X63222015Y-9966512D01*
X63200851Y-9985937D01*
X63151163Y-10022036D01*
X63046399Y-10148674D01*
X62976420Y-10297389D01*
X62976419Y-10297390D01*
X62945624Y-10458823D01*
X62945624Y-10458830D01*
X62955943Y-10622856D01*
X62955943Y-10622861D01*
X63006731Y-10779170D01*
X63094796Y-10917939D01*
X63094799Y-10917943D01*
X63207367Y-11023650D01*
X63243333Y-11084862D01*
X63240496Y-11155802D01*
X63199756Y-11213946D01*
X63134048Y-11240835D01*
X63121115Y-11241500D01*
X62701350Y-11241500D01*
X62640803Y-11248009D01*
X62640795Y-11248011D01*
X62503797Y-11299110D01*
X62503792Y-11299112D01*
X62386738Y-11386738D01*
X62293711Y-11511010D01*
X62291918Y-11509668D01*
X62250493Y-11551091D01*
X62190113Y-11566500D01*
X60533854Y-11566500D01*
X60518012Y-11564750D01*
X60517985Y-11565044D01*
X60510092Y-11564297D01*
X60440029Y-11566500D01*
X60410144Y-11566500D01*
X60410140Y-11566500D01*
X60410129Y-11566501D01*
X60403190Y-11567377D01*
X60397277Y-11567843D01*
X60350111Y-11569325D01*
X60330650Y-11574979D01*
X60311304Y-11578985D01*
X60291204Y-11581525D01*
X60291203Y-11581525D01*
X60247335Y-11598893D01*
X60241720Y-11600815D01*
X60196413Y-11613978D01*
X60196404Y-11613982D01*
X60178962Y-11624297D01*
X60161215Y-11632991D01*
X60142383Y-11640447D01*
X60142381Y-11640448D01*
X60104214Y-11668178D01*
X60099254Y-11671436D01*
X60058636Y-11695459D01*
X60058633Y-11695461D01*
X60044312Y-11709783D01*
X60029283Y-11722619D01*
X60012893Y-11734527D01*
X59982813Y-11770886D01*
X59978817Y-11775277D01*
X59623594Y-12130499D01*
X59561282Y-12164525D01*
X59490467Y-12159460D01*
X59433631Y-12116913D01*
X59408820Y-12050393D01*
X59408499Y-12041404D01*
X59408499Y-11450977D01*
X59408499Y-10546618D01*
X59408801Y-10540479D01*
X59413380Y-10493997D01*
X59410282Y-10462544D01*
X59393910Y-10296304D01*
X59393908Y-10296292D01*
X59336242Y-10106197D01*
X59336241Y-10106193D01*
X59324972Y-10085111D01*
X59242595Y-9930993D01*
X59116568Y-9777429D01*
X59080463Y-9747798D01*
X59075893Y-9743656D01*
X58231337Y-8899100D01*
X58227192Y-8894526D01*
X58221282Y-8887325D01*
X58197571Y-8858432D01*
X58197461Y-8858342D01*
X58044007Y-8732405D01*
X58031704Y-8725829D01*
X57981056Y-8676077D01*
X57965346Y-8606840D01*
X57965750Y-8601924D01*
X57971000Y-8550545D01*
X57971000Y-8400000D01*
X62242000Y-8400000D01*
X63200000Y-8400000D01*
X63200000Y-7842000D01*
X64000000Y-7842000D01*
X64000000Y-8400000D01*
X64958000Y-8400000D01*
X64958000Y-8301414D01*
X64957999Y-8301402D01*
X64951494Y-8240906D01*
X64900444Y-8104035D01*
X64900444Y-8104034D01*
X64812904Y-7987095D01*
X64695965Y-7899555D01*
X64559093Y-7848505D01*
X64498597Y-7842000D01*
X64000000Y-7842000D01*
X63200000Y-7842000D01*
X62701402Y-7842000D01*
X62640906Y-7848505D01*
X62504035Y-7899555D01*
X62504034Y-7899555D01*
X62387095Y-7987095D01*
X62299555Y-8104034D01*
X62299555Y-8104035D01*
X62248505Y-8240906D01*
X62242000Y-8301402D01*
X62242000Y-8400000D01*
X57971000Y-8400000D01*
X57970999Y-7199456D01*
X57960387Y-7095574D01*
X57904615Y-6927262D01*
X57811530Y-6776348D01*
X57811529Y-6776347D01*
X57811524Y-6776341D01*
X57761778Y-6726595D01*
X57727752Y-6664283D01*
X57732817Y-6593468D01*
X57761778Y-6548405D01*
X57811524Y-6498658D01*
X57811530Y-6498652D01*
X57904615Y-6347738D01*
X57960387Y-6179426D01*
X57971000Y-6075545D01*
X57970999Y-4674456D01*
X57960387Y-4570574D01*
X57904615Y-4402262D01*
X57811530Y-4251348D01*
X57811529Y-4251347D01*
X57811524Y-4251341D01*
X57686158Y-4125975D01*
X57686152Y-4125970D01*
X57686152Y-4125969D01*
X57658943Y-4109187D01*
X57611467Y-4056403D01*
X57602289Y-4000004D01*
X59969767Y-4000004D01*
X59988675Y-4276436D01*
X59988676Y-4276442D01*
X59988677Y-4276450D01*
X60009128Y-4374866D01*
X60045052Y-4547743D01*
X60045056Y-4547756D01*
X60137846Y-4808847D01*
X60265333Y-5054882D01*
X60416444Y-5268958D01*
X60425125Y-5281256D01*
X60614255Y-5483764D01*
X60614254Y-5483764D01*
X60614258Y-5483767D01*
X60829205Y-5658639D01*
X61065961Y-5802614D01*
X61320116Y-5913009D01*
X61386636Y-5931647D01*
X61586929Y-5987767D01*
X61586937Y-5987769D01*
X61861438Y-6025499D01*
X61861452Y-6025500D01*
X62138548Y-6025500D01*
X62138561Y-6025499D01*
X62379537Y-5992377D01*
X62413063Y-5987769D01*
X62679884Y-5913009D01*
X62934039Y-5802614D01*
X63170795Y-5658639D01*
X63385742Y-5483767D01*
X63574875Y-5281256D01*
X63725763Y-5067495D01*
X63734666Y-5054882D01*
X63734666Y-5054880D01*
X63734670Y-5054876D01*
X63862153Y-4808847D01*
X63954946Y-4547750D01*
X64011323Y-4276450D01*
X64016517Y-4200516D01*
X64030233Y-4000004D01*
X64030233Y-3999995D01*
X64011324Y-3723563D01*
X64011323Y-3723557D01*
X64011323Y-3723550D01*
X63954946Y-3452250D01*
X63888347Y-3264856D01*
X63862153Y-3191152D01*
X63769976Y-3013261D01*
X63734670Y-2945124D01*
X63734668Y-2945122D01*
X63734666Y-2945117D01*
X63574877Y-2718747D01*
X63574875Y-2718744D01*
X63385744Y-2516235D01*
X63385745Y-2516235D01*
X63237560Y-2395678D01*
X63170795Y-2341361D01*
X62975151Y-2222387D01*
X62934036Y-2197384D01*
X62679885Y-2086991D01*
X62679875Y-2086988D01*
X62413070Y-2012232D01*
X62413062Y-2012230D01*
X62138561Y-1974500D01*
X62138548Y-1974500D01*
X61861452Y-1974500D01*
X61861438Y-1974500D01*
X61586937Y-2012230D01*
X61586929Y-2012232D01*
X61320124Y-2086988D01*
X61320114Y-2086991D01*
X61065963Y-2197384D01*
X60829202Y-2341363D01*
X60614255Y-2516235D01*
X60425122Y-2718747D01*
X60265333Y-2945117D01*
X60137846Y-3191152D01*
X60045056Y-3452243D01*
X60045052Y-3452256D01*
X60014284Y-3600321D01*
X59988910Y-3722433D01*
X59988676Y-3723557D01*
X59988675Y-3723563D01*
X59969767Y-3999995D01*
X59969767Y-4000004D01*
X57602289Y-4000004D01*
X57600064Y-3986328D01*
X57628356Y-3921213D01*
X57633218Y-3915721D01*
X57679984Y-3865920D01*
X57701135Y-3844770D01*
X57705440Y-3839219D01*
X57709271Y-3834732D01*
X57732150Y-3810368D01*
X57779966Y-3778567D01*
X57784195Y-3776989D01*
X57784201Y-3776989D01*
X57921204Y-3725889D01*
X57921799Y-3725444D01*
X58038261Y-3638261D01*
X58125887Y-3521207D01*
X58125887Y-3521206D01*
X58125889Y-3521204D01*
X58176989Y-3384201D01*
X58178130Y-3373596D01*
X58183499Y-3323649D01*
X58183500Y-3323632D01*
X58183500Y-1526367D01*
X58183499Y-1526350D01*
X58176990Y-1465803D01*
X58176988Y-1465795D01*
X58136553Y-1357387D01*
X58125889Y-1328796D01*
X58125888Y-1328794D01*
X58125887Y-1328792D01*
X58038261Y-1211738D01*
X57921207Y-1124112D01*
X57921202Y-1124110D01*
X57784204Y-1073011D01*
X57784196Y-1073009D01*
X57723649Y-1066500D01*
X57723638Y-1066500D01*
X56726362Y-1066500D01*
X56726350Y-1066500D01*
X56665803Y-1073009D01*
X56665795Y-1073011D01*
X56528797Y-1124110D01*
X56528792Y-1124112D01*
X56411738Y-1211738D01*
X56324112Y-1328792D01*
X56324110Y-1328797D01*
X56273011Y-1465795D01*
X56273009Y-1465803D01*
X56266500Y-1526350D01*
X56266500Y-1945710D01*
X56246498Y-2013831D01*
X56192842Y-2060324D01*
X56122568Y-2070428D01*
X56057988Y-2040934D01*
X56034115Y-2013225D01*
X56030202Y-2007059D01*
X55910393Y-1894552D01*
X55910392Y-1894551D01*
X55766367Y-1815372D01*
X55766365Y-1815371D01*
X55607184Y-1774501D01*
X55607178Y-1774500D01*
X55607177Y-1774500D01*
X55484075Y-1774500D01*
X55484072Y-1774500D01*
X55484059Y-1774501D01*
X55361946Y-1789927D01*
X55361941Y-1789929D01*
X55209133Y-1850429D01*
X55209126Y-1850433D01*
X55076164Y-1947035D01*
X55076162Y-1947037D01*
X55006084Y-2031747D01*
X54947251Y-2071485D01*
X54876272Y-2073106D01*
X54815685Y-2036097D01*
X54784725Y-1972207D01*
X54783000Y-1951431D01*
X54783000Y-1526414D01*
X54782999Y-1526402D01*
X54776494Y-1465906D01*
X54725444Y-1329035D01*
X54725444Y-1329034D01*
X54637904Y-1212095D01*
X54520965Y-1124555D01*
X54384093Y-1073505D01*
X54323597Y-1067000D01*
X54225000Y-1067000D01*
X54225000Y-2699000D01*
X54204998Y-2767121D01*
X54151342Y-2813614D01*
X54099000Y-2825000D01*
X52867000Y-2825000D01*
X52867000Y-3323597D01*
X52873505Y-3384093D01*
X52924555Y-3520964D01*
X52924555Y-3520965D01*
X53012095Y-3637904D01*
X53129034Y-3725444D01*
X53265906Y-3776494D01*
X53291584Y-3779255D01*
X53357177Y-3806423D01*
X53397669Y-3864741D01*
X53400204Y-3935692D01*
X53363977Y-3996751D01*
X53317753Y-4024136D01*
X53289978Y-4033340D01*
X53139160Y-4126365D01*
X53139154Y-4126370D01*
X53013870Y-4251654D01*
X53013865Y-4251660D01*
X52920842Y-4402474D01*
X52865106Y-4570678D01*
X52865105Y-4570681D01*
X52854500Y-4674483D01*
X52854500Y-4975000D01*
X55020500Y-4975000D01*
X55020500Y-4674483D01*
X55009894Y-4570681D01*
X55009893Y-4570678D01*
X54954157Y-4402474D01*
X54861134Y-4251660D01*
X54861129Y-4251654D01*
X54735845Y-4126370D01*
X54735839Y-4126365D01*
X54585025Y-4033342D01*
X54453711Y-3989830D01*
X54395340Y-3949416D01*
X54368084Y-3883859D01*
X54380597Y-3813974D01*
X54428907Y-3761948D01*
X54449312Y-3752169D01*
X54520965Y-3725444D01*
X54637904Y-3637904D01*
X54725444Y-3520965D01*
X54725444Y-3520964D01*
X54776494Y-3384093D01*
X54782999Y-3323597D01*
X54783000Y-3323585D01*
X54783000Y-2903502D01*
X54803002Y-2835381D01*
X54856658Y-2788888D01*
X54926932Y-2778784D01*
X54991512Y-2808278D01*
X55015385Y-2835988D01*
X55019796Y-2842939D01*
X55139606Y-2955447D01*
X55139607Y-2955448D01*
X55283632Y-3034627D01*
X55283634Y-3034628D01*
X55442815Y-3075498D01*
X55442823Y-3075500D01*
X55442826Y-3075500D01*
X55565922Y-3075500D01*
X55565925Y-3075500D01*
X55593038Y-3072074D01*
X55688053Y-3060072D01*
X55688054Y-3060071D01*
X55688058Y-3060071D01*
X55840871Y-2999568D01*
X55973837Y-2902963D01*
X56043415Y-2818856D01*
X56102249Y-2779119D01*
X56173227Y-2777496D01*
X56233814Y-2814505D01*
X56264775Y-2878395D01*
X56266500Y-2899172D01*
X56266500Y-3323649D01*
X56273009Y-3384195D01*
X56273011Y-3384202D01*
X56293681Y-3439621D01*
X56298745Y-3510436D01*
X56295078Y-3522479D01*
X56288767Y-3547060D01*
X56282365Y-3565760D01*
X56274319Y-3584354D01*
X56266937Y-3630956D01*
X56265733Y-3636768D01*
X56254000Y-3682468D01*
X56254000Y-3702723D01*
X56252449Y-3722433D01*
X56249280Y-3742442D01*
X56249280Y-3742443D01*
X56253720Y-3789417D01*
X56254000Y-3795350D01*
X56254000Y-3953780D01*
X56233998Y-4021901D01*
X56194147Y-4061021D01*
X56088847Y-4125970D01*
X56088841Y-4125975D01*
X55963475Y-4251341D01*
X55963470Y-4251347D01*
X55870385Y-4402262D01*
X55814613Y-4570572D01*
X55814612Y-4570579D01*
X55804000Y-4674446D01*
X55804000Y-6075544D01*
X55814612Y-6179425D01*
X55870385Y-6347738D01*
X55963470Y-6498652D01*
X55963475Y-6498658D01*
X56025722Y-6560905D01*
X56059748Y-6623217D01*
X56054683Y-6694032D01*
X56025722Y-6739095D01*
X55988475Y-6776341D01*
X55988470Y-6776347D01*
X55895385Y-6927261D01*
X55894049Y-6930128D01*
X55892609Y-6931762D01*
X55891533Y-6933508D01*
X55891234Y-6933323D01*
X55847129Y-6983411D01*
X55778851Y-7002869D01*
X55753659Y-7000120D01*
X55595488Y-6966500D01*
X55595487Y-6966500D01*
X55404513Y-6966500D01*
X55217707Y-7006206D01*
X55160113Y-7031849D01*
X55089746Y-7041283D01*
X55025450Y-7011176D01*
X54989262Y-6956377D01*
X54979615Y-6927262D01*
X54886530Y-6776348D01*
X54886529Y-6776347D01*
X54886524Y-6776341D01*
X54823924Y-6713741D01*
X54789898Y-6651429D01*
X54794963Y-6580614D01*
X54823924Y-6535551D01*
X54861129Y-6498345D01*
X54861134Y-6498339D01*
X54954157Y-6347525D01*
X55009893Y-6179321D01*
X55009894Y-6179318D01*
X55020499Y-6075516D01*
X55020500Y-6075516D01*
X55020500Y-5775000D01*
X52854500Y-5775000D01*
X52854500Y-6075516D01*
X52865105Y-6179318D01*
X52865106Y-6179321D01*
X52920842Y-6347525D01*
X53013865Y-6498339D01*
X53013870Y-6498345D01*
X53088575Y-6573050D01*
X53122601Y-6635362D01*
X53117536Y-6706177D01*
X53088578Y-6751238D01*
X53063472Y-6776344D01*
X53063470Y-6776347D01*
X52970385Y-6927262D01*
X52914613Y-7095572D01*
X52914612Y-7095579D01*
X52904000Y-7199446D01*
X52904000Y-7199454D01*
X52904000Y-7199455D01*
X52904000Y-7848505D01*
X52904001Y-8440500D01*
X52883999Y-8508621D01*
X52830343Y-8555114D01*
X52778001Y-8566500D01*
X51581164Y-8566500D01*
X51513043Y-8546498D01*
X51466550Y-8492842D01*
X51456446Y-8422568D01*
X51461331Y-8401564D01*
X51493542Y-8302428D01*
X51493650Y-8301402D01*
X51513504Y-8112500D01*
X51493542Y-7922572D01*
X51458917Y-7816010D01*
X51456890Y-7745046D01*
X51493552Y-7684247D01*
X51539120Y-7657471D01*
X51547735Y-7654616D01*
X51547735Y-7654615D01*
X51547738Y-7654615D01*
X51698652Y-7561530D01*
X51824030Y-7436152D01*
X51917115Y-7285238D01*
X51972887Y-7116926D01*
X51983500Y-7013045D01*
X51983499Y-6286956D01*
X51972887Y-6183074D01*
X51917115Y-6014762D01*
X51824030Y-5863848D01*
X51824029Y-5863847D01*
X51824024Y-5863841D01*
X51698658Y-5738475D01*
X51698652Y-5738470D01*
X51658124Y-5713472D01*
X51547738Y-5645385D01*
X51441986Y-5610343D01*
X51379427Y-5589613D01*
X51379420Y-5589612D01*
X51275553Y-5579000D01*
X49924455Y-5579000D01*
X49820574Y-5589612D01*
X49652261Y-5645385D01*
X49501347Y-5738470D01*
X49501341Y-5738475D01*
X49451595Y-5788222D01*
X49389283Y-5822248D01*
X49318468Y-5817183D01*
X49273405Y-5788222D01*
X49198658Y-5713475D01*
X49198652Y-5713470D01*
X49088269Y-5645385D01*
X49047738Y-5620385D01*
X48963582Y-5592499D01*
X48879427Y-5564613D01*
X48879420Y-5564612D01*
X48775553Y-5554000D01*
X47424455Y-5554000D01*
X47320574Y-5564612D01*
X47152261Y-5620385D01*
X47001347Y-5713470D01*
X47001345Y-5713472D01*
X46970342Y-5744474D01*
X46908029Y-5778497D01*
X46837213Y-5773430D01*
X46792154Y-5744471D01*
X46748658Y-5700975D01*
X46748652Y-5700970D01*
X46748652Y-5700969D01*
X46597738Y-5607885D01*
X46510567Y-5579000D01*
X46429427Y-5552113D01*
X46429420Y-5552112D01*
X46325553Y-5541500D01*
X44924455Y-5541500D01*
X44820574Y-5552112D01*
X44652261Y-5607885D01*
X44501347Y-5700970D01*
X44501341Y-5700975D01*
X44375975Y-5826341D01*
X44375970Y-5826347D01*
X44345350Y-5875990D01*
X44322518Y-5913008D01*
X44311021Y-5931647D01*
X44258235Y-5979125D01*
X44203780Y-5991500D01*
X43946354Y-5991500D01*
X43930512Y-5989750D01*
X43930485Y-5990044D01*
X43922592Y-5989297D01*
X43852529Y-5991500D01*
X43822644Y-5991500D01*
X43822640Y-5991500D01*
X43822629Y-5991501D01*
X43815690Y-5992377D01*
X43809777Y-5992843D01*
X43762614Y-5994325D01*
X43762607Y-5994327D01*
X43743149Y-5999979D01*
X43723804Y-6003985D01*
X43703706Y-6006525D01*
X43703697Y-6006527D01*
X43659831Y-6023894D01*
X43654216Y-6025817D01*
X43608908Y-6038981D01*
X43591464Y-6049297D01*
X43573718Y-6057990D01*
X43554882Y-6065448D01*
X43516709Y-6093181D01*
X43511748Y-6096440D01*
X43471138Y-6120458D01*
X43456811Y-6134784D01*
X43441785Y-6147617D01*
X43425395Y-6159525D01*
X43425393Y-6159527D01*
X43395313Y-6195886D01*
X43391317Y-6200277D01*
X43211998Y-6379595D01*
X43149686Y-6413621D01*
X43122903Y-6416500D01*
X42685116Y-6416500D01*
X42685107Y-6416501D01*
X42578046Y-6430595D01*
X42566150Y-6432162D01*
X42418121Y-6493477D01*
X42291013Y-6591013D01*
X42193477Y-6718121D01*
X42132161Y-6866151D01*
X42116500Y-6985113D01*
X42116500Y-7264883D01*
X42116501Y-7264892D01*
X42132162Y-7383848D01*
X42132162Y-7383849D01*
X42139591Y-7401786D01*
X42147177Y-7472376D01*
X42139591Y-7498214D01*
X42132161Y-7516151D01*
X42116500Y-7635113D01*
X42116500Y-7914883D01*
X42116501Y-7914892D01*
X42132162Y-8033848D01*
X42132162Y-8033849D01*
X42139591Y-8051786D01*
X42147177Y-8122376D01*
X42139591Y-8148214D01*
X42132161Y-8166151D01*
X42116500Y-8285113D01*
X42116500Y-8564883D01*
X42116501Y-8564892D01*
X42128361Y-8654977D01*
X42117421Y-8725126D01*
X42092534Y-8760518D01*
X40111336Y-10741716D01*
X40098901Y-10751680D01*
X40099089Y-10751907D01*
X40092980Y-10756960D01*
X40045016Y-10808037D01*
X40023866Y-10829186D01*
X40019560Y-10834736D01*
X40015714Y-10839238D01*
X39983417Y-10873633D01*
X39983411Y-10873642D01*
X39973651Y-10891394D01*
X39962803Y-10907909D01*
X39950386Y-10923917D01*
X39931645Y-10967223D01*
X39929034Y-10972553D01*
X39906305Y-11013898D01*
X39906303Y-11013903D01*
X39901267Y-11033518D01*
X39894864Y-11052221D01*
X39886819Y-11070811D01*
X39879437Y-11117415D01*
X39878233Y-11123227D01*
X39866500Y-11168927D01*
X39866500Y-11189182D01*
X39864949Y-11208892D01*
X39861780Y-11228901D01*
X39861780Y-11228902D01*
X39866220Y-11275876D01*
X39866500Y-11281809D01*
X39866499Y-13912771D01*
X39864751Y-13928613D01*
X39865044Y-13928641D01*
X39864298Y-13936532D01*
X39866500Y-14006582D01*
X39866500Y-14036476D01*
X39866501Y-14036497D01*
X39867378Y-14043445D01*
X39867844Y-14049357D01*
X39869326Y-14096513D01*
X39869327Y-14096518D01*
X39874977Y-14115964D01*
X39878986Y-14135322D01*
X39881525Y-14155418D01*
X39881526Y-14155424D01*
X39898893Y-14199287D01*
X39900816Y-14204904D01*
X39913982Y-14250218D01*
X39924294Y-14267656D01*
X39932988Y-14285404D01*
X39940444Y-14304234D01*
X39940450Y-14304245D01*
X39968177Y-14342408D01*
X39971437Y-14347371D01*
X39995460Y-14387990D01*
X40009779Y-14402309D01*
X40022617Y-14417339D01*
X40032156Y-14430468D01*
X40034528Y-14433732D01*
X40052835Y-14448877D01*
X40070886Y-14463810D01*
X40075267Y-14467796D01*
X40696853Y-15089382D01*
X41296128Y-15688657D01*
X41306095Y-15701097D01*
X41306322Y-15700910D01*
X41311374Y-15707017D01*
X41311375Y-15707018D01*
X41362470Y-15754999D01*
X41383606Y-15776135D01*
X41389145Y-15780431D01*
X41393657Y-15784285D01*
X41428053Y-15816585D01*
X41428057Y-15816588D01*
X41445805Y-15826345D01*
X41462332Y-15837201D01*
X41472239Y-15844886D01*
X41478335Y-15849614D01*
X41521634Y-15868351D01*
X41526960Y-15870960D01*
X41568310Y-15893693D01*
X41568313Y-15893694D01*
X41568315Y-15893695D01*
X41587937Y-15898733D01*
X41606638Y-15905135D01*
X41612978Y-15907879D01*
X41625227Y-15913180D01*
X41625228Y-15913180D01*
X41625230Y-15913181D01*
X41671852Y-15920564D01*
X41677637Y-15921763D01*
X41723345Y-15933500D01*
X41743599Y-15933500D01*
X41763309Y-15935051D01*
X41765516Y-15935400D01*
X41783318Y-15938220D01*
X41817245Y-15935012D01*
X41830292Y-15933780D01*
X41836225Y-15933500D01*
X43462614Y-15933500D01*
X43530735Y-15953502D01*
X43551709Y-15970405D01*
X44079595Y-16498291D01*
X44113621Y-16560603D01*
X44116500Y-16587386D01*
X44116500Y-32016146D01*
X44114751Y-32031988D01*
X44115044Y-32032016D01*
X44114298Y-32039907D01*
X44114298Y-32039909D01*
X44114708Y-32052947D01*
X44116500Y-32109957D01*
X44116500Y-32139851D01*
X44116501Y-32139870D01*
X44117378Y-32146818D01*
X44117843Y-32152728D01*
X44118121Y-32161534D01*
X44100273Y-32230251D01*
X44048107Y-32278409D01*
X43992183Y-32291500D01*
X43954513Y-32291500D01*
X43767711Y-32331206D01*
X43593247Y-32408882D01*
X43438744Y-32521135D01*
X43310965Y-32663048D01*
X43310958Y-32663058D01*
X43218022Y-32824029D01*
X43215473Y-32828444D01*
X43201485Y-32871495D01*
X43161410Y-32930100D01*
X43096013Y-32957736D01*
X43026057Y-32945628D01*
X42992557Y-32921652D01*
X41220404Y-31149499D01*
X41186378Y-31087187D01*
X41183499Y-31060413D01*
X41183499Y-30258118D01*
X41203501Y-30190001D01*
X41257157Y-30143508D01*
X41274917Y-30140582D01*
X41287500Y-30129219D01*
X41287500Y-29150000D01*
X42087500Y-29150000D01*
X42087500Y-30129219D01*
X42154318Y-30122394D01*
X42322525Y-30066657D01*
X42473339Y-29973634D01*
X42473345Y-29973629D01*
X42598629Y-29848345D01*
X42598634Y-29848339D01*
X42691657Y-29697525D01*
X42747393Y-29529321D01*
X42747394Y-29529318D01*
X42757999Y-29425516D01*
X42758000Y-29425516D01*
X42758000Y-29150000D01*
X42087500Y-29150000D01*
X41287500Y-29150000D01*
X41287500Y-26650000D01*
X42087500Y-26650000D01*
X42087500Y-28350000D01*
X42758000Y-28350000D01*
X42758000Y-28074483D01*
X42747394Y-27970681D01*
X42747393Y-27970678D01*
X42691657Y-27802474D01*
X42598634Y-27651660D01*
X42598633Y-27651659D01*
X42536069Y-27589096D01*
X42502044Y-27526784D01*
X42507108Y-27455968D01*
X42536069Y-27410904D01*
X42598634Y-27348339D01*
X42691657Y-27197525D01*
X42747393Y-27029321D01*
X42747394Y-27029318D01*
X42757999Y-26925516D01*
X42758000Y-26925516D01*
X42758000Y-26650000D01*
X42087500Y-26650000D01*
X41287500Y-26650000D01*
X41287500Y-24150000D01*
X42087500Y-24150000D01*
X42087500Y-25850000D01*
X42758000Y-25850000D01*
X42758000Y-25574483D01*
X42747394Y-25470681D01*
X42747393Y-25470678D01*
X42691657Y-25302474D01*
X42598634Y-25151660D01*
X42598629Y-25151654D01*
X42536070Y-25089095D01*
X42502044Y-25026783D01*
X42507109Y-24955968D01*
X42536070Y-24910905D01*
X42598629Y-24848345D01*
X42598634Y-24848339D01*
X42691657Y-24697525D01*
X42747393Y-24529321D01*
X42747394Y-24529318D01*
X42757999Y-24425516D01*
X42758000Y-24425516D01*
X42758000Y-24150000D01*
X42087500Y-24150000D01*
X41287500Y-24150000D01*
X41287500Y-21650000D01*
X42087500Y-21650000D01*
X42087500Y-23350000D01*
X42758000Y-23350000D01*
X42758000Y-23074483D01*
X42747394Y-22970681D01*
X42747393Y-22970678D01*
X42691657Y-22802474D01*
X42598634Y-22651660D01*
X42598633Y-22651659D01*
X42536069Y-22589096D01*
X42502044Y-22526784D01*
X42507108Y-22455968D01*
X42536069Y-22410904D01*
X42598634Y-22348339D01*
X42691657Y-22197525D01*
X42747393Y-22029321D01*
X42747394Y-22029318D01*
X42757999Y-21925516D01*
X42758000Y-21925516D01*
X42758000Y-21650000D01*
X42087500Y-21650000D01*
X41287500Y-21650000D01*
X40617000Y-21650000D01*
X40617000Y-21904405D01*
X40596998Y-21972526D01*
X40543342Y-22019019D01*
X40473068Y-22029123D01*
X40408488Y-21999629D01*
X40401905Y-21993500D01*
X39870404Y-21461999D01*
X39836378Y-21399687D01*
X39833499Y-21372904D01*
X39833499Y-20574455D01*
X39822887Y-20470574D01*
X39793868Y-20383000D01*
X39767115Y-20302262D01*
X39674030Y-20151348D01*
X39674029Y-20151347D01*
X39674024Y-20151341D01*
X39611778Y-20089095D01*
X39577752Y-20026783D01*
X39582817Y-19955968D01*
X39611778Y-19910905D01*
X39674024Y-19848658D01*
X39674030Y-19848652D01*
X39767115Y-19697738D01*
X39768725Y-19692878D01*
X39809132Y-19634508D01*
X39874686Y-19607247D01*
X39936384Y-19616899D01*
X39936432Y-19616754D01*
X39937338Y-19617048D01*
X39939578Y-19617398D01*
X39942712Y-19618794D01*
X40129513Y-19658500D01*
X40320487Y-19658500D01*
X40507288Y-19618794D01*
X40510875Y-19617196D01*
X40513136Y-19616893D01*
X40513563Y-19616755D01*
X40513588Y-19616832D01*
X40581240Y-19607759D01*
X40645539Y-19637862D01*
X40681732Y-19692666D01*
X40683341Y-19697523D01*
X40776365Y-19848339D01*
X40776370Y-19848345D01*
X40838930Y-19910905D01*
X40872956Y-19973217D01*
X40867891Y-20044032D01*
X40838930Y-20089095D01*
X40776370Y-20151654D01*
X40776365Y-20151660D01*
X40683342Y-20302474D01*
X40627606Y-20470678D01*
X40627605Y-20470681D01*
X40617000Y-20574483D01*
X40617000Y-20850000D01*
X41287500Y-20850000D01*
X41287500Y-19150000D01*
X42087500Y-19150000D01*
X42087500Y-20850000D01*
X42758000Y-20850000D01*
X42758000Y-20574483D01*
X42747394Y-20470681D01*
X42747393Y-20470678D01*
X42691657Y-20302474D01*
X42598634Y-20151660D01*
X42598629Y-20151654D01*
X42536070Y-20089095D01*
X42502044Y-20026783D01*
X42507109Y-19955968D01*
X42536070Y-19910905D01*
X42598629Y-19848345D01*
X42598634Y-19848339D01*
X42691657Y-19697525D01*
X42747393Y-19529321D01*
X42747394Y-19529318D01*
X42757999Y-19425516D01*
X42758000Y-19425516D01*
X42758000Y-19150000D01*
X42087500Y-19150000D01*
X41287500Y-19150000D01*
X41287500Y-18350000D01*
X42087500Y-18350000D01*
X42758000Y-18350000D01*
X42758000Y-18074483D01*
X42747394Y-17970681D01*
X42747393Y-17970678D01*
X42691657Y-17802474D01*
X42598634Y-17651660D01*
X42598629Y-17651654D01*
X42473345Y-17526370D01*
X42473339Y-17526365D01*
X42322525Y-17433342D01*
X42154321Y-17377606D01*
X42154317Y-17377605D01*
X42087501Y-17370778D01*
X42087500Y-17370779D01*
X42087500Y-18350000D01*
X41287500Y-18350000D01*
X41287500Y-17370779D01*
X41287498Y-17370778D01*
X41220682Y-17377605D01*
X41220678Y-17377606D01*
X41052474Y-17433342D01*
X40901660Y-17526365D01*
X40901654Y-17526370D01*
X40776370Y-17651654D01*
X40776365Y-17651660D01*
X40683341Y-17802476D01*
X40681731Y-17807336D01*
X40641314Y-17865706D01*
X40575757Y-17892959D01*
X40513574Y-17883226D01*
X40513568Y-17883246D01*
X40513443Y-17883205D01*
X40510878Y-17882804D01*
X40507290Y-17881206D01*
X40320487Y-17841500D01*
X40129513Y-17841500D01*
X39942707Y-17881207D01*
X39939574Y-17882602D01*
X39937599Y-17882866D01*
X39936432Y-17883246D01*
X39936362Y-17883032D01*
X39869207Y-17892033D01*
X39804911Y-17861924D01*
X39768726Y-17807125D01*
X39767115Y-17802262D01*
X39674030Y-17651348D01*
X39674029Y-17651347D01*
X39674024Y-17651341D01*
X39548658Y-17525975D01*
X39548652Y-17525970D01*
X39519518Y-17508000D01*
X39397738Y-17432885D01*
X39309390Y-17403610D01*
X39229427Y-17377113D01*
X39229420Y-17377112D01*
X39125553Y-17366500D01*
X38399455Y-17366500D01*
X38295574Y-17377112D01*
X38127261Y-17432885D01*
X37976347Y-17525970D01*
X37976341Y-17525975D01*
X37850975Y-17651341D01*
X37850968Y-17651350D01*
X37802884Y-17729306D01*
X37750098Y-17776784D01*
X37680023Y-17788186D01*
X37629497Y-17770399D01*
X37599387Y-17751827D01*
X37524601Y-17705698D01*
X37361836Y-17651764D01*
X37361833Y-17651763D01*
X37261380Y-17641500D01*
X37261372Y-17641500D01*
X36713628Y-17641500D01*
X36713620Y-17641500D01*
X36613166Y-17651763D01*
X36450399Y-17705698D01*
X36304459Y-17795715D01*
X36304453Y-17795720D01*
X36183220Y-17916953D01*
X36183215Y-17916959D01*
X36093198Y-18062899D01*
X36039263Y-18225666D01*
X36029000Y-18326119D01*
X36029000Y-18760404D01*
X36008998Y-18828525D01*
X35992095Y-18849499D01*
X34546952Y-20294642D01*
X34484640Y-20328668D01*
X34413825Y-20323603D01*
X34376708Y-20299748D01*
X34375986Y-20300662D01*
X34370228Y-20296109D01*
X34224385Y-20206153D01*
X34087500Y-20160793D01*
X34087500Y-22339206D01*
X34096973Y-22346046D01*
X34134317Y-22344762D01*
X34195328Y-22381068D01*
X34227025Y-22444596D01*
X34228998Y-22466807D01*
X34228998Y-22533191D01*
X34208996Y-22601312D01*
X34155340Y-22647805D01*
X34093092Y-22656754D01*
X34087500Y-22660793D01*
X34087500Y-24839205D01*
X34096973Y-24846046D01*
X34134317Y-24844762D01*
X34195328Y-24881068D01*
X34227025Y-24944596D01*
X34228998Y-24966807D01*
X34228998Y-25033191D01*
X34208996Y-25101312D01*
X34155340Y-25147805D01*
X34093092Y-25156754D01*
X34087500Y-25160793D01*
X34087500Y-27339206D01*
X34096973Y-27346046D01*
X34134317Y-27344762D01*
X34195328Y-27381068D01*
X34227025Y-27444596D01*
X34228998Y-27466807D01*
X34228998Y-27533191D01*
X34208996Y-27601312D01*
X34155340Y-27647805D01*
X34093092Y-27656754D01*
X34087500Y-27660793D01*
X34087500Y-29839206D01*
X34096973Y-29846046D01*
X34134319Y-29844762D01*
X34195330Y-29881069D01*
X34227026Y-29944597D01*
X34228999Y-29966807D01*
X34228999Y-31747903D01*
X34208997Y-31816024D01*
X34192095Y-31836998D01*
X34087000Y-31942095D01*
X34024688Y-31976120D01*
X33997904Y-31979000D01*
X30196354Y-31979000D01*
X30180512Y-31977250D01*
X30180485Y-31977544D01*
X30172592Y-31976797D01*
X30102529Y-31979000D01*
X30072644Y-31979000D01*
X30072640Y-31979000D01*
X30072629Y-31979001D01*
X30065690Y-31979877D01*
X30059777Y-31980343D01*
X30012611Y-31981825D01*
X29993150Y-31987479D01*
X29973804Y-31991485D01*
X29953704Y-31994025D01*
X29953703Y-31994025D01*
X29909835Y-32011393D01*
X29904220Y-32013315D01*
X29858913Y-32026478D01*
X29858904Y-32026482D01*
X29841462Y-32036797D01*
X29823715Y-32045491D01*
X29804883Y-32052947D01*
X29804881Y-32052948D01*
X29766714Y-32080678D01*
X29761754Y-32083936D01*
X29721136Y-32107959D01*
X29721133Y-32107961D01*
X29706812Y-32122283D01*
X29691783Y-32135119D01*
X29675393Y-32147027D01*
X29645308Y-32183392D01*
X29641312Y-32187783D01*
X28986999Y-32842095D01*
X28924687Y-32876121D01*
X28897904Y-32879000D01*
X28099455Y-32879000D01*
X27995574Y-32889612D01*
X27827261Y-32945385D01*
X27676347Y-33038470D01*
X27676341Y-33038475D01*
X27550975Y-33163841D01*
X27550970Y-33163847D01*
X27457885Y-33314762D01*
X27402113Y-33483072D01*
X27402112Y-33483079D01*
X27391500Y-33586946D01*
X27391500Y-34313044D01*
X27402112Y-34416925D01*
X27457885Y-34585238D01*
X27550970Y-34736152D01*
X27550975Y-34736158D01*
X27676341Y-34861524D01*
X27676346Y-34861528D01*
X27676348Y-34861530D01*
X27827262Y-34954615D01*
X27995574Y-35010387D01*
X28099455Y-35021000D01*
X29450544Y-35020999D01*
X29554426Y-35010387D01*
X29722738Y-34954615D01*
X29873652Y-34861530D01*
X29935905Y-34799276D01*
X29998215Y-34765253D01*
X30069031Y-34770317D01*
X30114094Y-34799277D01*
X30166376Y-34851558D01*
X30176348Y-34861530D01*
X30327262Y-34954615D01*
X30495574Y-35010387D01*
X30599455Y-35021000D01*
X31950544Y-35020999D01*
X32054426Y-35010387D01*
X32222738Y-34954615D01*
X32373652Y-34861530D01*
X32435905Y-34799276D01*
X32498215Y-34765253D01*
X32569031Y-34770317D01*
X32614094Y-34799277D01*
X32666376Y-34851558D01*
X32676348Y-34861530D01*
X32827262Y-34954615D01*
X32995574Y-35010387D01*
X33099455Y-35021000D01*
X34450544Y-35020999D01*
X34554426Y-35010387D01*
X34722738Y-34954615D01*
X34873652Y-34861530D01*
X34883624Y-34851558D01*
X34935905Y-34799278D01*
X34998217Y-34765252D01*
X35069032Y-34770317D01*
X35114095Y-34799278D01*
X35176341Y-34861524D01*
X35176346Y-34861528D01*
X35176348Y-34861530D01*
X35327262Y-34954615D01*
X35495574Y-35010387D01*
X35599455Y-35021000D01*
X36950544Y-35020999D01*
X37054426Y-35010387D01*
X37222738Y-34954615D01*
X37373652Y-34861530D01*
X37435905Y-34799276D01*
X37498215Y-34765253D01*
X37569031Y-34770317D01*
X37614094Y-34799277D01*
X37666376Y-34851558D01*
X37676348Y-34861530D01*
X37827262Y-34954615D01*
X37995574Y-35010387D01*
X38099455Y-35021000D01*
X38897905Y-35020999D01*
X38966026Y-35041001D01*
X38987000Y-35057904D01*
X39518001Y-35588905D01*
X39552027Y-35651217D01*
X39546962Y-35722032D01*
X39504415Y-35778868D01*
X39437895Y-35803679D01*
X39428906Y-35804000D01*
X38099455Y-35804000D01*
X37995574Y-35814612D01*
X37827261Y-35870385D01*
X37676347Y-35963470D01*
X37614094Y-36025723D01*
X37551781Y-36059748D01*
X37480966Y-36054682D01*
X37435905Y-36025723D01*
X37373652Y-35963470D01*
X37222738Y-35870385D01*
X37134179Y-35841040D01*
X37054427Y-35814613D01*
X37054420Y-35814612D01*
X36950553Y-35804000D01*
X35599455Y-35804000D01*
X35495574Y-35814612D01*
X35327261Y-35870385D01*
X35176347Y-35963470D01*
X35176341Y-35963475D01*
X35114095Y-36025722D01*
X35051783Y-36059748D01*
X34980968Y-36054683D01*
X34935905Y-36025722D01*
X34873658Y-35963475D01*
X34873652Y-35963470D01*
X34842281Y-35944120D01*
X34722738Y-35870385D01*
X34634179Y-35841040D01*
X34554427Y-35814613D01*
X34554420Y-35814612D01*
X34450553Y-35804000D01*
X33099455Y-35804000D01*
X32995574Y-35814612D01*
X32827261Y-35870385D01*
X32676347Y-35963470D01*
X32614094Y-36025723D01*
X32551781Y-36059748D01*
X32480966Y-36054682D01*
X32435905Y-36025723D01*
X32373652Y-35963470D01*
X32222738Y-35870385D01*
X32134179Y-35841040D01*
X32054427Y-35814613D01*
X32054420Y-35814612D01*
X31950553Y-35804000D01*
X30599455Y-35804000D01*
X30495574Y-35814612D01*
X30327261Y-35870385D01*
X30176347Y-35963470D01*
X30176341Y-35963475D01*
X30114095Y-36025722D01*
X30051783Y-36059748D01*
X29980968Y-36054683D01*
X29935905Y-36025722D01*
X29873658Y-35963475D01*
X29873652Y-35963470D01*
X29842281Y-35944120D01*
X29722738Y-35870385D01*
X29634179Y-35841040D01*
X29554427Y-35814613D01*
X29554420Y-35814612D01*
X29450553Y-35804000D01*
X28099455Y-35804000D01*
X27995574Y-35814612D01*
X27827261Y-35870385D01*
X27676347Y-35963470D01*
X27676341Y-35963475D01*
X27550975Y-36088841D01*
X27550970Y-36088847D01*
X27457885Y-36239762D01*
X27402113Y-36408072D01*
X27402112Y-36408079D01*
X27391500Y-36511946D01*
X27391500Y-37238044D01*
X27402112Y-37341925D01*
X27457885Y-37510238D01*
X27550970Y-37661152D01*
X27550975Y-37661158D01*
X27676341Y-37786524D01*
X27676346Y-37786528D01*
X27676348Y-37786530D01*
X27827262Y-37879615D01*
X27945133Y-37918672D01*
X28003504Y-37959086D01*
X28030760Y-38024642D01*
X28031500Y-38038277D01*
X28031500Y-38448078D01*
X28011498Y-38516199D01*
X27965471Y-38558891D01*
X27919426Y-38583810D01*
X27919424Y-38583811D01*
X27741762Y-38722091D01*
X27589279Y-38887729D01*
X27500183Y-39024101D01*
X27446179Y-39070189D01*
X27375831Y-39079764D01*
X27311474Y-39049786D01*
X27289217Y-39024100D01*
X27200327Y-38888044D01*
X27047902Y-38722465D01*
X26870301Y-38584232D01*
X26870300Y-38584231D01*
X26672371Y-38477117D01*
X26672369Y-38477116D01*
X26525000Y-38426525D01*
X26525000Y-39422582D01*
X26506761Y-39394202D01*
X26398100Y-39300048D01*
X26267315Y-39240320D01*
X26160763Y-39225000D01*
X26089237Y-39225000D01*
X25982685Y-39240320D01*
X25851900Y-39300048D01*
X25743239Y-39394202D01*
X25665507Y-39515156D01*
X25625000Y-39653111D01*
X25625000Y-39796889D01*
X25665507Y-39934844D01*
X25743239Y-40055798D01*
X25851900Y-40149952D01*
X25982685Y-40209680D01*
X26089237Y-40225000D01*
X26160763Y-40225000D01*
X26267315Y-40209680D01*
X26398100Y-40149952D01*
X26506761Y-40055798D01*
X26525000Y-40027417D01*
X26525000Y-41023474D01*
X26672365Y-40972884D01*
X26672371Y-40972882D01*
X26870300Y-40865768D01*
X26870301Y-40865767D01*
X27047902Y-40727534D01*
X27200327Y-40561955D01*
X27289217Y-40425899D01*
X27343220Y-40379810D01*
X27413568Y-40370235D01*
X27477925Y-40400212D01*
X27500183Y-40425898D01*
X27589279Y-40562270D01*
X27741762Y-40727908D01*
X27796331Y-40770381D01*
X27919424Y-40866189D01*
X28117426Y-40973342D01*
X28117427Y-40973342D01*
X28117428Y-40973343D01*
X28159450Y-40987769D01*
X28330365Y-41046444D01*
X28552431Y-41083500D01*
X28552435Y-41083500D01*
X28777565Y-41083500D01*
X28777569Y-41083500D01*
X28999635Y-41046444D01*
X29212574Y-40973342D01*
X29410576Y-40866189D01*
X29588240Y-40727906D01*
X29740722Y-40562268D01*
X29740927Y-40561955D01*
X29792011Y-40483764D01*
X29829518Y-40426354D01*
X29883520Y-40380268D01*
X29953868Y-40370692D01*
X30018225Y-40400669D01*
X30040480Y-40426353D01*
X30073607Y-40477058D01*
X30129275Y-40562265D01*
X30129279Y-40562270D01*
X30281762Y-40727908D01*
X30336331Y-40770381D01*
X30459424Y-40866189D01*
X30657426Y-40973342D01*
X30657427Y-40973342D01*
X30657428Y-40973343D01*
X30699450Y-40987769D01*
X30870365Y-41046444D01*
X31092431Y-41083500D01*
X31092435Y-41083500D01*
X31317565Y-41083500D01*
X31317569Y-41083500D01*
X31539635Y-41046444D01*
X31752574Y-40973342D01*
X31950576Y-40866189D01*
X32128240Y-40727906D01*
X32280722Y-40562268D01*
X32369519Y-40426353D01*
X32423518Y-40380268D01*
X32493866Y-40370692D01*
X32558224Y-40400668D01*
X32580482Y-40426356D01*
X32669275Y-40562265D01*
X32669279Y-40562270D01*
X32821762Y-40727908D01*
X32876331Y-40770381D01*
X32999424Y-40866189D01*
X33197426Y-40973342D01*
X33197427Y-40973342D01*
X33197428Y-40973343D01*
X33239450Y-40987769D01*
X33410365Y-41046444D01*
X33632431Y-41083500D01*
X33632435Y-41083500D01*
X33857565Y-41083500D01*
X33857569Y-41083500D01*
X34079635Y-41046444D01*
X34292574Y-40973342D01*
X34490576Y-40866189D01*
X34668240Y-40727906D01*
X34820722Y-40562268D01*
X34820927Y-40561955D01*
X34872011Y-40483764D01*
X34909518Y-40426354D01*
X34963520Y-40380268D01*
X35033868Y-40370692D01*
X35098225Y-40400669D01*
X35120480Y-40426353D01*
X35153607Y-40477058D01*
X35209275Y-40562265D01*
X35209279Y-40562270D01*
X35361762Y-40727908D01*
X35416331Y-40770381D01*
X35539424Y-40866189D01*
X35737426Y-40973342D01*
X35737427Y-40973342D01*
X35737428Y-40973343D01*
X35779450Y-40987769D01*
X35950365Y-41046444D01*
X36172431Y-41083500D01*
X36172435Y-41083500D01*
X36397565Y-41083500D01*
X36397569Y-41083500D01*
X36619635Y-41046444D01*
X36832574Y-40973342D01*
X37030576Y-40866189D01*
X37208240Y-40727906D01*
X37269245Y-40661637D01*
X37330096Y-40625067D01*
X37401061Y-40627200D01*
X37459606Y-40667362D01*
X37480000Y-40702941D01*
X37524111Y-40821204D01*
X37524112Y-40821207D01*
X37611738Y-40938261D01*
X37728792Y-41025887D01*
X37728794Y-41025888D01*
X37728796Y-41025889D01*
X37783900Y-41046442D01*
X37865795Y-41076988D01*
X37865803Y-41076990D01*
X37926350Y-41083499D01*
X37926355Y-41083499D01*
X37926362Y-41083500D01*
X37926368Y-41083500D01*
X39723632Y-41083500D01*
X39723638Y-41083500D01*
X39723645Y-41083499D01*
X39723649Y-41083499D01*
X39784196Y-41076990D01*
X39784199Y-41076989D01*
X39784201Y-41076989D01*
X39921204Y-41025889D01*
X39924432Y-41023473D01*
X40038261Y-40938261D01*
X40125887Y-40821207D01*
X40125887Y-40821206D01*
X40125889Y-40821204D01*
X40176989Y-40684201D01*
X40178800Y-40667362D01*
X40183499Y-40623649D01*
X40183500Y-40623632D01*
X40183500Y-39000004D01*
X59969767Y-39000004D01*
X59988675Y-39276436D01*
X59988676Y-39276442D01*
X59988677Y-39276450D01*
X59989943Y-39282541D01*
X60045052Y-39547743D01*
X60045056Y-39547756D01*
X60137846Y-39808847D01*
X60265333Y-40054882D01*
X60425122Y-40281252D01*
X60425125Y-40281256D01*
X60614255Y-40483764D01*
X60614254Y-40483764D01*
X60614258Y-40483767D01*
X60829205Y-40658639D01*
X61055197Y-40796068D01*
X61065963Y-40802615D01*
X61108766Y-40821207D01*
X61320116Y-40913009D01*
X61453526Y-40950389D01*
X61586929Y-40987767D01*
X61586937Y-40987769D01*
X61861438Y-41025499D01*
X61861452Y-41025500D01*
X62138548Y-41025500D01*
X62138561Y-41025499D01*
X62372240Y-40993379D01*
X62413063Y-40987769D01*
X62679884Y-40913009D01*
X62934039Y-40802614D01*
X63170795Y-40658639D01*
X63385742Y-40483767D01*
X63574875Y-40281256D01*
X63734670Y-40054876D01*
X63862153Y-39808847D01*
X63954946Y-39547750D01*
X64011323Y-39276450D01*
X64025463Y-39069731D01*
X64030233Y-39000004D01*
X64030233Y-38999995D01*
X64011324Y-38723563D01*
X64011323Y-38723557D01*
X64011323Y-38723550D01*
X63954946Y-38452250D01*
X63862153Y-38191153D01*
X63862153Y-38191152D01*
X63743666Y-37962486D01*
X63734670Y-37945124D01*
X63734668Y-37945122D01*
X63734666Y-37945117D01*
X63578781Y-37724278D01*
X63574875Y-37718744D01*
X63385744Y-37516235D01*
X63385745Y-37516235D01*
X63258742Y-37412911D01*
X63170795Y-37341361D01*
X62968371Y-37218264D01*
X62934036Y-37197384D01*
X62679885Y-37086991D01*
X62679875Y-37086988D01*
X62413070Y-37012232D01*
X62413062Y-37012230D01*
X62138561Y-36974500D01*
X62138548Y-36974500D01*
X61861452Y-36974500D01*
X61861438Y-36974500D01*
X61586937Y-37012230D01*
X61586929Y-37012232D01*
X61320124Y-37086988D01*
X61320114Y-37086991D01*
X61065963Y-37197384D01*
X60910842Y-37291716D01*
X60829467Y-37341202D01*
X60829202Y-37341363D01*
X60614255Y-37516235D01*
X60425122Y-37718747D01*
X60265333Y-37945117D01*
X60137846Y-38191152D01*
X60045056Y-38452243D01*
X60045052Y-38452256D01*
X60017715Y-38583810D01*
X59988903Y-38722465D01*
X59988676Y-38723557D01*
X59988675Y-38723563D01*
X59969767Y-38999995D01*
X59969767Y-39000004D01*
X40183500Y-39000004D01*
X40183500Y-38826367D01*
X40183499Y-38826350D01*
X40176990Y-38765803D01*
X40176988Y-38765795D01*
X40125889Y-38628797D01*
X40125887Y-38628792D01*
X40038261Y-38511738D01*
X39921207Y-38424112D01*
X39921202Y-38424110D01*
X39784204Y-38373011D01*
X39784196Y-38373009D01*
X39723649Y-38366500D01*
X39723638Y-38366500D01*
X39584500Y-38366500D01*
X39516379Y-38346498D01*
X39469886Y-38292842D01*
X39458500Y-38240500D01*
X39458500Y-38057804D01*
X39478502Y-37989683D01*
X39532158Y-37943190D01*
X39548023Y-37937939D01*
X39547895Y-37937551D01*
X39563123Y-37932505D01*
X39722738Y-37879615D01*
X39873652Y-37786530D01*
X39999030Y-37661152D01*
X40092115Y-37510238D01*
X40147887Y-37341926D01*
X40158500Y-37238045D01*
X40158499Y-36533592D01*
X40178501Y-36465472D01*
X40232157Y-36418979D01*
X40302430Y-36408875D01*
X40367011Y-36438368D01*
X40373594Y-36444498D01*
X41392753Y-37463657D01*
X41402720Y-37476097D01*
X41402947Y-37475910D01*
X41407999Y-37482017D01*
X41408000Y-37482018D01*
X41444436Y-37516233D01*
X41459095Y-37529999D01*
X41480225Y-37551130D01*
X41485768Y-37555430D01*
X41490281Y-37559285D01*
X41493902Y-37562685D01*
X41524679Y-37591586D01*
X41524680Y-37591586D01*
X41524682Y-37591588D01*
X41542429Y-37601344D01*
X41558959Y-37612202D01*
X41574959Y-37624613D01*
X41597925Y-37634551D01*
X41618251Y-37643347D01*
X41623585Y-37645959D01*
X41664940Y-37668695D01*
X41684562Y-37673733D01*
X41703263Y-37680135D01*
X41721855Y-37688181D01*
X41768470Y-37695563D01*
X41774242Y-37696758D01*
X41819970Y-37708500D01*
X41840231Y-37708500D01*
X41859939Y-37710050D01*
X41879943Y-37713219D01*
X41914464Y-37709956D01*
X41926910Y-37708780D01*
X41932842Y-37708500D01*
X55341147Y-37708500D01*
X55356988Y-37710249D01*
X55357016Y-37709956D01*
X55364902Y-37710700D01*
X55364909Y-37710702D01*
X55434958Y-37708500D01*
X55464856Y-37708500D01*
X55471818Y-37707619D01*
X55477719Y-37707154D01*
X55524889Y-37705673D01*
X55544347Y-37700019D01*
X55563694Y-37696013D01*
X55583797Y-37693474D01*
X55627679Y-37676099D01*
X55633274Y-37674183D01*
X55661816Y-37665891D01*
X55678591Y-37661019D01*
X55678595Y-37661017D01*
X55696026Y-37650708D01*
X55713780Y-37642009D01*
X55732617Y-37634552D01*
X55770786Y-37606818D01*
X55775744Y-37603562D01*
X55816362Y-37579542D01*
X55830685Y-37565218D01*
X55845724Y-37552374D01*
X55847431Y-37551134D01*
X55862107Y-37540472D01*
X55892193Y-37504103D01*
X55896161Y-37499741D01*
X58350498Y-35045405D01*
X58412811Y-35011379D01*
X58439594Y-35008500D01*
X58898632Y-35008500D01*
X58898638Y-35008500D01*
X58898645Y-35008499D01*
X58898649Y-35008499D01*
X58959196Y-35001990D01*
X58959199Y-35001989D01*
X58959201Y-35001989D01*
X59096204Y-34950889D01*
X59100414Y-34947738D01*
X59152405Y-34908817D01*
X59213261Y-34863261D01*
X59254552Y-34808101D01*
X59311386Y-34765556D01*
X59382202Y-34760490D01*
X59444515Y-34794515D01*
X59444515Y-34794516D01*
X59449999Y-34800000D01*
X59450000Y-34800000D01*
X65848500Y-34800000D01*
X65916621Y-34820002D01*
X65963114Y-34873658D01*
X65974500Y-34926000D01*
X65974500Y-42848500D01*
X65954498Y-42916621D01*
X65900842Y-42963114D01*
X65848500Y-42974500D01*
X151500Y-42974500D01*
X83379Y-42954498D01*
X36886Y-42900842D01*
X25500Y-42848500D01*
X25500Y-39000004D01*
X1969767Y-39000004D01*
X1988675Y-39276436D01*
X1988676Y-39276442D01*
X1988677Y-39276450D01*
X1989943Y-39282541D01*
X2045052Y-39547743D01*
X2045056Y-39547756D01*
X2137846Y-39808847D01*
X2265333Y-40054882D01*
X2425122Y-40281252D01*
X2425125Y-40281256D01*
X2614255Y-40483764D01*
X2614254Y-40483764D01*
X2614258Y-40483767D01*
X2829205Y-40658639D01*
X3055197Y-40796068D01*
X3065963Y-40802615D01*
X3108766Y-40821207D01*
X3320116Y-40913009D01*
X3453526Y-40950389D01*
X3586929Y-40987767D01*
X3586937Y-40987769D01*
X3861438Y-41025499D01*
X3861452Y-41025500D01*
X4138548Y-41025500D01*
X4138561Y-41025499D01*
X4372240Y-40993379D01*
X4413063Y-40987769D01*
X4679884Y-40913009D01*
X4934039Y-40802614D01*
X5170795Y-40658639D01*
X5385742Y-40483767D01*
X5574875Y-40281256D01*
X5734670Y-40054876D01*
X5862153Y-39808847D01*
X5954946Y-39547750D01*
X6011323Y-39276450D01*
X6025463Y-39069731D01*
X6030233Y-39000004D01*
X6030233Y-38999995D01*
X6011324Y-38723563D01*
X6011323Y-38723557D01*
X6011323Y-38723550D01*
X5954946Y-38452250D01*
X5862153Y-38191153D01*
X5862153Y-38191152D01*
X5743666Y-37962486D01*
X5734670Y-37945124D01*
X5734668Y-37945122D01*
X5734666Y-37945117D01*
X5578781Y-37724278D01*
X5574875Y-37718744D01*
X5385744Y-37516235D01*
X5385745Y-37516235D01*
X5258742Y-37412911D01*
X5170795Y-37341361D01*
X4968371Y-37218264D01*
X4934036Y-37197384D01*
X4679885Y-37086991D01*
X4679875Y-37086988D01*
X4413070Y-37012232D01*
X4413062Y-37012230D01*
X4138561Y-36974500D01*
X4138548Y-36974500D01*
X3861452Y-36974500D01*
X3861438Y-36974500D01*
X3586937Y-37012230D01*
X3586929Y-37012232D01*
X3320124Y-37086988D01*
X3320114Y-37086991D01*
X3065963Y-37197384D01*
X2910842Y-37291716D01*
X2829467Y-37341202D01*
X2829202Y-37341363D01*
X2614255Y-37516235D01*
X2425122Y-37718747D01*
X2265333Y-37945117D01*
X2137846Y-38191152D01*
X2045056Y-38452243D01*
X2045052Y-38452256D01*
X2017715Y-38583810D01*
X1988903Y-38722465D01*
X1988676Y-38723557D01*
X1988675Y-38723563D01*
X1969767Y-38999995D01*
X1969767Y-39000004D01*
X25500Y-39000004D01*
X25500Y-32963866D01*
X45502Y-32895745D01*
X99158Y-32849252D01*
X169432Y-32839148D01*
X217647Y-32856625D01*
X314974Y-32916657D01*
X483181Y-32972394D01*
X549999Y-32979219D01*
X550000Y-32979219D01*
X550000Y-32000000D01*
X1350000Y-32000000D01*
X1350000Y-32979219D01*
X1416818Y-32972394D01*
X1585025Y-32916657D01*
X1735839Y-32823634D01*
X1735845Y-32823629D01*
X1861129Y-32698345D01*
X1861134Y-32698339D01*
X1954157Y-32547525D01*
X2009893Y-32379321D01*
X2009894Y-32379318D01*
X2020496Y-32275544D01*
X2804000Y-32275544D01*
X2814612Y-32379425D01*
X2870385Y-32547738D01*
X2963470Y-32698652D01*
X2963475Y-32698658D01*
X3088841Y-32824024D01*
X3088846Y-32824028D01*
X3088848Y-32824030D01*
X3239762Y-32917115D01*
X3408074Y-32972887D01*
X3511955Y-32983500D01*
X4238044Y-32983499D01*
X4341926Y-32972887D01*
X4510238Y-32917115D01*
X4661152Y-32824030D01*
X4698404Y-32786777D01*
X4760714Y-32752753D01*
X4831530Y-32757817D01*
X4876593Y-32786776D01*
X4913845Y-32824028D01*
X4913847Y-32824029D01*
X4913848Y-32824030D01*
X5064762Y-32917115D01*
X5233074Y-32972887D01*
X5336955Y-32983500D01*
X6188044Y-32983499D01*
X6291926Y-32972887D01*
X6460238Y-32917115D01*
X6611152Y-32824030D01*
X6736530Y-32698652D01*
X6829615Y-32547738D01*
X6885387Y-32379426D01*
X6896000Y-32275545D01*
X6895999Y-30924456D01*
X6885387Y-30820574D01*
X6829615Y-30652262D01*
X6736530Y-30501348D01*
X6736529Y-30501347D01*
X6736524Y-30501341D01*
X6611158Y-30375975D01*
X6611152Y-30375970D01*
X6585494Y-30360144D01*
X6460238Y-30282885D01*
X6334445Y-30241202D01*
X6291927Y-30227113D01*
X6291920Y-30227112D01*
X6188053Y-30216500D01*
X5336955Y-30216500D01*
X5233074Y-30227112D01*
X5064761Y-30282885D01*
X4913847Y-30375970D01*
X4913841Y-30375975D01*
X4876595Y-30413222D01*
X4814283Y-30447248D01*
X4743468Y-30442183D01*
X4698405Y-30413222D01*
X4661158Y-30375975D01*
X4661152Y-30375970D01*
X4635494Y-30360144D01*
X4510238Y-30282885D01*
X4384445Y-30241202D01*
X4341927Y-30227113D01*
X4341920Y-30227112D01*
X4238053Y-30216500D01*
X3511955Y-30216500D01*
X3408074Y-30227112D01*
X3239761Y-30282885D01*
X3088847Y-30375970D01*
X3088841Y-30375975D01*
X2963475Y-30501341D01*
X2963470Y-30501347D01*
X2870385Y-30652262D01*
X2814613Y-30820572D01*
X2814612Y-30820579D01*
X2804000Y-30924446D01*
X2804000Y-32275544D01*
X2020496Y-32275544D01*
X2020499Y-32275516D01*
X2020500Y-32275516D01*
X2020500Y-32000000D01*
X1350000Y-32000000D01*
X550000Y-32000000D01*
X550000Y-31326000D01*
X570002Y-31257879D01*
X623658Y-31211386D01*
X676000Y-31200000D01*
X2020500Y-31200000D01*
X2020500Y-30924483D01*
X2009894Y-30820681D01*
X2009893Y-30820678D01*
X1954157Y-30652474D01*
X1861134Y-30501660D01*
X1861129Y-30501654D01*
X1782416Y-30422941D01*
X1748390Y-30360629D01*
X1753455Y-30289814D01*
X1796002Y-30232978D01*
X1862522Y-30208167D01*
X1865213Y-30208007D01*
X2023133Y-30192927D01*
X2023148Y-30192924D01*
X2226177Y-30133310D01*
X2414254Y-30036349D01*
X2580585Y-29905544D01*
X2580591Y-29905539D01*
X2719156Y-29745625D01*
X2719157Y-29745624D01*
X2824956Y-29562374D01*
X2824957Y-29562372D01*
X2846545Y-29500000D01*
X1188500Y-29500000D01*
X1120379Y-29479998D01*
X1073886Y-29426342D01*
X1068156Y-29400000D01*
X1840302Y-29400000D01*
X1922750Y-29384588D01*
X2018110Y-29325543D01*
X2085701Y-29236038D01*
X2093760Y-29207712D01*
X3620471Y-29207712D01*
X3620472Y-29207713D01*
X3739170Y-29263063D01*
X3739180Y-29263067D01*
X3947570Y-29318905D01*
X4162500Y-29337709D01*
X4377429Y-29318905D01*
X4585826Y-29263065D01*
X4585827Y-29263065D01*
X4704526Y-29207713D01*
X4162500Y-28665685D01*
X4162499Y-28665685D01*
X3620471Y-29207712D01*
X2093760Y-29207712D01*
X2116395Y-29128160D01*
X2106046Y-29016479D01*
X2056052Y-28916078D01*
X1973166Y-28840516D01*
X1868580Y-28800000D01*
X1084698Y-28800000D01*
X1062500Y-28804149D01*
X1062500Y-22500000D01*
X1862500Y-22500000D01*
X1862500Y-28700000D01*
X2920499Y-28700000D01*
X2943531Y-28676968D01*
X3005843Y-28642943D01*
X3054508Y-28641978D01*
X3054786Y-28642027D01*
X3777652Y-27919161D01*
X3753262Y-27967031D01*
X3732202Y-28100000D01*
X3753262Y-28232969D01*
X3814382Y-28352923D01*
X3909577Y-28448118D01*
X4029531Y-28509238D01*
X4129049Y-28525000D01*
X4195951Y-28525000D01*
X4295469Y-28509238D01*
X4415423Y-28448118D01*
X4510618Y-28352923D01*
X4571738Y-28232969D01*
X4592798Y-28100000D01*
X4571738Y-27967031D01*
X4547347Y-27919162D01*
X5270212Y-28642026D01*
X5270213Y-28642026D01*
X5325562Y-28523333D01*
X5326162Y-28521686D01*
X5326622Y-28521060D01*
X5327893Y-28518336D01*
X5328440Y-28518591D01*
X5368249Y-28464509D01*
X5434567Y-28439163D01*
X5504061Y-28453694D01*
X5554666Y-28503490D01*
X5555691Y-28505369D01*
X5619905Y-28625504D01*
X5662140Y-28676968D01*
X5745932Y-28779068D01*
X5782031Y-28808694D01*
X5786600Y-28812834D01*
X6649659Y-29675893D01*
X6653801Y-29680463D01*
X6673027Y-29703890D01*
X6683434Y-29716570D01*
X6736302Y-29759957D01*
X6776220Y-29792717D01*
X6836996Y-29842595D01*
X7012196Y-29936241D01*
X7202299Y-29993908D01*
X7202303Y-29993908D01*
X7202305Y-29993909D01*
X7399997Y-30013380D01*
X7400000Y-30013380D01*
X7400002Y-30013380D01*
X7446461Y-30008804D01*
X7452641Y-30008500D01*
X7803000Y-30008500D01*
X7871121Y-30028502D01*
X7917614Y-30082158D01*
X7928999Y-30134500D01*
X7928999Y-30157066D01*
X7928999Y-30172943D01*
X7908995Y-30241064D01*
X7869146Y-30280181D01*
X7713847Y-30375970D01*
X7713841Y-30375975D01*
X7588475Y-30501341D01*
X7588470Y-30501347D01*
X7495385Y-30652262D01*
X7439613Y-30820572D01*
X7439612Y-30820579D01*
X7429000Y-30924446D01*
X7429000Y-32275544D01*
X7439612Y-32379425D01*
X7495385Y-32547738D01*
X7588470Y-32698652D01*
X7588475Y-32698658D01*
X7713841Y-32824024D01*
X7713846Y-32824028D01*
X7713848Y-32824030D01*
X7864762Y-32917115D01*
X8033074Y-32972887D01*
X8136955Y-32983500D01*
X8988044Y-32983499D01*
X9091926Y-32972887D01*
X9260238Y-32917115D01*
X9411152Y-32824030D01*
X9536530Y-32698652D01*
X9629615Y-32547738D01*
X9685387Y-32379426D01*
X9696000Y-32275545D01*
X9695999Y-30924456D01*
X9685387Y-30820574D01*
X9629615Y-30652262D01*
X9536530Y-30501348D01*
X9536529Y-30501347D01*
X9536524Y-30501341D01*
X9411158Y-30375975D01*
X9411152Y-30375970D01*
X9255853Y-30280180D01*
X9208375Y-30227394D01*
X9196000Y-30172939D01*
X9196000Y-29921127D01*
X9216002Y-29853006D01*
X9237110Y-29828015D01*
X9322701Y-29749991D01*
X9446503Y-29586050D01*
X9446504Y-29586046D01*
X9446506Y-29586045D01*
X9538070Y-29402160D01*
X9538069Y-29402160D01*
X9538074Y-29402152D01*
X9594294Y-29204559D01*
X9613249Y-29000000D01*
X9594294Y-28795441D01*
X9589635Y-28779068D01*
X9538076Y-28597855D01*
X9538075Y-28597854D01*
X9538074Y-28597848D01*
X9500150Y-28521686D01*
X9446506Y-28413954D01*
X9446502Y-28413949D01*
X9322702Y-28250009D01*
X9170883Y-28111608D01*
X8996223Y-28003463D01*
X8996222Y-28003462D01*
X8996218Y-28003460D01*
X8870081Y-27954595D01*
X8804656Y-27929249D01*
X8740547Y-27917265D01*
X8602718Y-27891500D01*
X8397282Y-27891500D01*
X8276119Y-27914149D01*
X8195343Y-27929249D01*
X8056617Y-27982992D01*
X8011101Y-27991500D01*
X7869924Y-27991500D01*
X7801803Y-27971498D01*
X7780829Y-27954595D01*
X7550938Y-27724704D01*
X7516912Y-27662392D01*
X7520427Y-27595980D01*
X7560736Y-27474336D01*
X7564683Y-27435696D01*
X7571000Y-27373880D01*
X7571000Y-26826119D01*
X7560736Y-26725666D01*
X7560736Y-26725664D01*
X7506802Y-26562899D01*
X7422142Y-26425646D01*
X7403406Y-26357168D01*
X7424665Y-26289429D01*
X7479172Y-26243937D01*
X7529384Y-26233500D01*
X10289144Y-26233500D01*
X10357265Y-26253502D01*
X10403758Y-26307158D01*
X10413862Y-26377432D01*
X10408977Y-26398437D01*
X10356457Y-26560072D01*
X10336496Y-26750000D01*
X10356457Y-26939927D01*
X10362492Y-26958500D01*
X10415473Y-27121556D01*
X10415476Y-27121561D01*
X10510958Y-27286941D01*
X10510965Y-27286951D01*
X10638744Y-27428864D01*
X10690968Y-27466807D01*
X10793248Y-27541118D01*
X10967712Y-27618794D01*
X11154513Y-27658500D01*
X11345487Y-27658500D01*
X11532288Y-27618794D01*
X11706752Y-27541118D01*
X11861253Y-27428866D01*
X11861255Y-27428864D01*
X11989034Y-27286951D01*
X11989035Y-27286949D01*
X11989040Y-27286944D01*
X12084527Y-27121556D01*
X12143542Y-26939928D01*
X12163504Y-26750000D01*
X12163504Y-26749998D01*
X12163504Y-26749234D01*
X12163629Y-26748807D01*
X12164194Y-26743433D01*
X12165176Y-26743536D01*
X12183506Y-26681113D01*
X12200403Y-26660144D01*
X12349159Y-26511388D01*
X12355341Y-26505966D01*
X12383987Y-26483987D01*
X12402162Y-26460299D01*
X12402170Y-26460292D01*
X12449632Y-26398437D01*
X12479705Y-26359245D01*
X12483577Y-26354670D01*
X12488100Y-26349813D01*
X12491623Y-26343712D01*
X12494826Y-26339536D01*
X12494583Y-26338137D01*
X12503367Y-26304139D01*
X12542838Y-26208850D01*
X12558500Y-26089885D01*
X12558499Y-26089883D01*
X12559011Y-26086000D01*
X12559013Y-26085978D01*
X12561197Y-26069386D01*
X12563750Y-26050000D01*
X12559038Y-26014207D01*
X12558499Y-26006003D01*
X12558499Y-25354063D01*
X12559039Y-25345830D01*
X12563750Y-25310048D01*
X12563750Y-25310047D01*
X12559623Y-25278710D01*
X12559623Y-25278698D01*
X12557056Y-25259201D01*
X12542838Y-25151200D01*
X12481524Y-25003175D01*
X12453382Y-24966500D01*
X12408477Y-24907978D01*
X12408474Y-24907975D01*
X12383987Y-24876063D01*
X12364851Y-24861379D01*
X12355346Y-24854085D01*
X12349151Y-24848652D01*
X12001340Y-24500841D01*
X11995913Y-24494653D01*
X11973937Y-24466013D01*
X11942024Y-24441525D01*
X11942022Y-24441523D01*
X11887909Y-24400000D01*
X11846832Y-24368480D01*
X11846824Y-24368475D01*
X11698801Y-24307162D01*
X11679406Y-24304608D01*
X11644152Y-24299967D01*
X11577991Y-24291257D01*
X11577970Y-24291255D01*
X11539952Y-24286250D01*
X11539949Y-24286250D01*
X11504169Y-24290960D01*
X11495938Y-24291500D01*
X7688294Y-24291500D01*
X7620173Y-24271498D01*
X7573680Y-24217842D01*
X7562947Y-24152692D01*
X7571000Y-24073879D01*
X7571000Y-23526119D01*
X7561817Y-23436241D01*
X7560736Y-23425664D01*
X7506802Y-23262899D01*
X7416785Y-23116960D01*
X7416784Y-23116959D01*
X7416779Y-23116953D01*
X7295546Y-22995720D01*
X7295540Y-22995715D01*
X7249036Y-22967031D01*
X7149601Y-22905698D01*
X6986836Y-22851764D01*
X6986833Y-22851763D01*
X6886380Y-22841500D01*
X6886372Y-22841500D01*
X6038628Y-22841500D01*
X6038620Y-22841500D01*
X5938166Y-22851763D01*
X5775399Y-22905698D01*
X5629459Y-22995715D01*
X5601327Y-23023847D01*
X5539014Y-23057871D01*
X5468199Y-23052805D01*
X5411364Y-23010257D01*
X5386712Y-22945731D01*
X5381405Y-22885070D01*
X5325567Y-22676680D01*
X5325563Y-22676670D01*
X5270213Y-22557972D01*
X5270212Y-22557971D01*
X4547348Y-23280836D01*
X4571738Y-23232969D01*
X4592798Y-23100000D01*
X4571738Y-22967031D01*
X4510618Y-22847077D01*
X4415423Y-22751882D01*
X4295469Y-22690762D01*
X4195951Y-22675000D01*
X4129049Y-22675000D01*
X4029531Y-22690762D01*
X3909577Y-22751882D01*
X3814382Y-22847077D01*
X3753262Y-22967031D01*
X3732202Y-23100000D01*
X3753262Y-23232969D01*
X3777652Y-23280837D01*
X3054786Y-22557971D01*
X3054505Y-22558021D01*
X2983946Y-22550151D01*
X2943531Y-22523030D01*
X2920501Y-22500000D01*
X1862500Y-22500000D01*
X1062500Y-22500000D01*
X1062500Y-22400000D01*
X1840302Y-22400000D01*
X1922750Y-22384588D01*
X2018110Y-22325543D01*
X2085701Y-22236038D01*
X2116395Y-22128160D01*
X2106046Y-22016479D01*
X2093999Y-21992286D01*
X3620471Y-21992286D01*
X4162499Y-22534314D01*
X4162500Y-22534314D01*
X4704527Y-21992286D01*
X4704526Y-21992285D01*
X4585825Y-21936934D01*
X4585819Y-21936932D01*
X4377429Y-21881094D01*
X4162500Y-21862290D01*
X3947570Y-21881094D01*
X3739180Y-21936932D01*
X3739174Y-21936934D01*
X3620471Y-21992286D01*
X2093999Y-21992286D01*
X2056052Y-21916078D01*
X1973166Y-21840516D01*
X1868580Y-21800000D01*
X1084698Y-21800000D01*
X1062500Y-21804149D01*
X1062500Y-20992000D01*
X1862500Y-20992000D01*
X1862500Y-21700000D01*
X2847902Y-21700000D01*
X2847902Y-21699999D01*
X2776422Y-21543484D01*
X2776420Y-21543480D01*
X2653678Y-21371112D01*
X2653677Y-21371111D01*
X2500535Y-21225090D01*
X2500534Y-21225089D01*
X2322524Y-21110691D01*
X2322519Y-21110688D01*
X2126085Y-21032047D01*
X2126079Y-21032046D01*
X1918305Y-20992000D01*
X1862500Y-20992000D01*
X1062500Y-20992000D01*
X1059721Y-20992000D01*
X1059699Y-20992001D01*
X901866Y-21007072D01*
X901851Y-21007075D01*
X698822Y-21066689D01*
X510745Y-21163650D01*
X344414Y-21294455D01*
X344408Y-21294460D01*
X246725Y-21407194D01*
X186998Y-21445578D01*
X116002Y-21445578D01*
X56276Y-21407195D01*
X26783Y-21342614D01*
X25500Y-21324682D01*
X25500Y-12174009D01*
X5486500Y-12174009D01*
X5492665Y-12231345D01*
X5497394Y-12275339D01*
X5498235Y-12283155D01*
X5498235Y-12283159D01*
X5509617Y-12335480D01*
X5509623Y-12335501D01*
X5544288Y-12439654D01*
X5544290Y-12439657D01*
X5623308Y-12562612D01*
X5623311Y-12562615D01*
X5623315Y-12562621D01*
X5668685Y-12614981D01*
X5669601Y-12616097D01*
X5780258Y-12711980D01*
X5780261Y-12711982D01*
X5913210Y-12772698D01*
X5981331Y-12792700D01*
X6126000Y-12813500D01*
X6126004Y-12813500D01*
X6499257Y-12813500D01*
X6567378Y-12833502D01*
X6613871Y-12887158D01*
X6614060Y-12888376D01*
X7570401Y-13844717D01*
X7565861Y-13845248D01*
X7401109Y-13905213D01*
X7254627Y-14001555D01*
X7134312Y-14129082D01*
X7046650Y-14280918D01*
X7007155Y-14412838D01*
X6065103Y-13470787D01*
X6020315Y-13534241D01*
X5893938Y-13778134D01*
X5801944Y-14036980D01*
X5801942Y-14036988D01*
X5746053Y-14305945D01*
X5746052Y-14305951D01*
X5727308Y-14579995D01*
X5727308Y-14580004D01*
X5746052Y-14854048D01*
X5746053Y-14854054D01*
X5801942Y-15123011D01*
X5801944Y-15123019D01*
X5893938Y-15381865D01*
X6020317Y-15625763D01*
X6020318Y-15625764D01*
X6065102Y-15689210D01*
X6065103Y-15689211D01*
X7007792Y-14746522D01*
X7016616Y-14796567D01*
X7086059Y-14957553D01*
X7190756Y-15098185D01*
X7325062Y-15210882D01*
X7481739Y-15289568D01*
X7574201Y-15311481D01*
X6630345Y-16255337D01*
X6630346Y-16255338D01*
X6814030Y-16367038D01*
X7065989Y-16476480D01*
X7330509Y-16550595D01*
X7602635Y-16587999D01*
X7602649Y-16588000D01*
X7877351Y-16588000D01*
X7877364Y-16587999D01*
X8149490Y-16550595D01*
X8414010Y-16476480D01*
X8665969Y-16367038D01*
X8849653Y-16255338D01*
X8849653Y-16255337D01*
X7909598Y-15315282D01*
X7914139Y-15314752D01*
X8078891Y-15254787D01*
X8225373Y-15158445D01*
X8345688Y-15030918D01*
X8433350Y-14879082D01*
X8472844Y-14747160D01*
X9414895Y-15689211D01*
X9459683Y-15625760D01*
X9459685Y-15625756D01*
X9586061Y-15381865D01*
X9678055Y-15123019D01*
X9678057Y-15123011D01*
X9733946Y-14854054D01*
X9733947Y-14854048D01*
X9752692Y-14580004D01*
X9752692Y-14579995D01*
X9733947Y-14305951D01*
X9733946Y-14305945D01*
X9678057Y-14036988D01*
X9678055Y-14036980D01*
X9586061Y-13778134D01*
X9459679Y-13534231D01*
X9414896Y-13470788D01*
X9414895Y-13470788D01*
X8472207Y-14413475D01*
X8463384Y-14363433D01*
X8393941Y-14202447D01*
X8289244Y-14061815D01*
X8154938Y-13949118D01*
X7998261Y-13870432D01*
X7905797Y-13848518D01*
X8865103Y-12889211D01*
X8866758Y-12879339D01*
X8914487Y-12826780D01*
X8966657Y-12809057D01*
X8976324Y-12808017D01*
X8979487Y-12807678D01*
X8979483Y-12807679D01*
X8998709Y-12804563D01*
X9033746Y-12798885D01*
X9170688Y-12747808D01*
X9233000Y-12713783D01*
X9350004Y-12626194D01*
X11484693Y-10491502D01*
X11547002Y-10457480D01*
X11617817Y-10462544D01*
X11674545Y-10504947D01*
X11708372Y-10550000D01*
X13036500Y-10550000D01*
X13104621Y-10570002D01*
X13151114Y-10623658D01*
X13162500Y-10676000D01*
X13162500Y-10778089D01*
X13142498Y-10846210D01*
X13088842Y-10892703D01*
X13023330Y-10903399D01*
X12910115Y-10891500D01*
X12910110Y-10891500D01*
X12070757Y-10891500D01*
X12051046Y-10889949D01*
X12037145Y-10887747D01*
X11992987Y-10890062D01*
X11967186Y-10891414D01*
X11963916Y-10891500D01*
X11941730Y-10891500D01*
X11941724Y-10891500D01*
X11941714Y-10891501D01*
X11922333Y-10893537D01*
X11919664Y-10893818D01*
X11916383Y-10894076D01*
X11846442Y-10897742D01*
X11846438Y-10897742D01*
X11846437Y-10897743D01*
X11832843Y-10901385D01*
X11813419Y-10904985D01*
X11799410Y-10906458D01*
X11732769Y-10928109D01*
X11729609Y-10929045D01*
X11682237Y-10941739D01*
X11661970Y-10947171D01*
X11661968Y-10947171D01*
X11661968Y-10947172D01*
X11661963Y-10947173D01*
X11649430Y-10953559D01*
X11631180Y-10961119D01*
X11617786Y-10965471D01*
X11557128Y-11000492D01*
X11554230Y-11002066D01*
X11491809Y-11033871D01*
X11491805Y-11033873D01*
X11480862Y-11042734D01*
X11464589Y-11053918D01*
X11452400Y-11060956D01*
X11452391Y-11060963D01*
X11400339Y-11107829D01*
X11397837Y-11109966D01*
X11380600Y-11123926D01*
X11380595Y-11123931D01*
X11364903Y-11139622D01*
X11362513Y-11141889D01*
X11310474Y-11188746D01*
X11302198Y-11200136D01*
X11289362Y-11215163D01*
X10340163Y-12164362D01*
X10325136Y-12177198D01*
X10313746Y-12185474D01*
X10266889Y-12237513D01*
X10264622Y-12239903D01*
X10248931Y-12255595D01*
X10248926Y-12255600D01*
X10234966Y-12272837D01*
X10232829Y-12275339D01*
X10185963Y-12327391D01*
X10185956Y-12327400D01*
X10178918Y-12339589D01*
X10167734Y-12355862D01*
X10158873Y-12366805D01*
X10158871Y-12366809D01*
X10127066Y-12429230D01*
X10125492Y-12432128D01*
X10090471Y-12492786D01*
X10086119Y-12506180D01*
X10078559Y-12524430D01*
X10072173Y-12536963D01*
X10072172Y-12536968D01*
X10054045Y-12604609D01*
X10053109Y-12607769D01*
X10031458Y-12674410D01*
X10029985Y-12688419D01*
X10026385Y-12707843D01*
X10024794Y-12713783D01*
X10022742Y-12721442D01*
X10019076Y-12791383D01*
X10018818Y-12794668D01*
X10016501Y-12816714D01*
X10016500Y-12816738D01*
X10016500Y-12838914D01*
X10016414Y-12842186D01*
X10014970Y-12869736D01*
X10012747Y-12912149D01*
X10014949Y-12926052D01*
X10016499Y-12945757D01*
X10016499Y-15129572D01*
X10016500Y-15129577D01*
X10016500Y-16615436D01*
X9997741Y-16681583D01*
X9907885Y-16827262D01*
X9852113Y-16995572D01*
X9852112Y-16995579D01*
X9841500Y-17099446D01*
X9841500Y-18500544D01*
X9852112Y-18604425D01*
X9907885Y-18772738D01*
X10000970Y-18923652D01*
X10000975Y-18923658D01*
X10126341Y-19049024D01*
X10126347Y-19049029D01*
X10126348Y-19049030D01*
X10277262Y-19142115D01*
X10445574Y-19197887D01*
X10549455Y-19208500D01*
X11300544Y-19208499D01*
X11404426Y-19197887D01*
X11572738Y-19142115D01*
X11723652Y-19049030D01*
X11849030Y-18923652D01*
X11942115Y-18772738D01*
X11997887Y-18604426D01*
X12008500Y-18500545D01*
X12008499Y-17099456D01*
X12003328Y-17048841D01*
X11997887Y-16995574D01*
X11997884Y-16995566D01*
X11975747Y-16928761D01*
X11973308Y-16857808D01*
X12009616Y-16796798D01*
X12073145Y-16765103D01*
X12134981Y-16769524D01*
X12220575Y-16797887D01*
X12248906Y-16800781D01*
X12324448Y-16808500D01*
X12324456Y-16808500D01*
X12689613Y-16808500D01*
X12757734Y-16828502D01*
X12804227Y-16882158D01*
X12814331Y-16952432D01*
X12809218Y-16974130D01*
X12802115Y-16995566D01*
X12802112Y-16995579D01*
X12791500Y-17099446D01*
X12791500Y-18500544D01*
X12802112Y-18604425D01*
X12857885Y-18772738D01*
X12950970Y-18923652D01*
X12950975Y-18923658D01*
X13076341Y-19049024D01*
X13076347Y-19049029D01*
X13076348Y-19049030D01*
X13227262Y-19142115D01*
X13395574Y-19197887D01*
X13499455Y-19208500D01*
X14250544Y-19208499D01*
X14354426Y-19197887D01*
X14370864Y-19192439D01*
X14441818Y-19189997D01*
X14502829Y-19226303D01*
X14534527Y-19289831D01*
X14536500Y-19312043D01*
X14536500Y-27374009D01*
X14542398Y-27428864D01*
X14547166Y-27473217D01*
X14548235Y-27483155D01*
X14548235Y-27483159D01*
X14559617Y-27535480D01*
X14559623Y-27535501D01*
X14594288Y-27639654D01*
X14594290Y-27639657D01*
X14673308Y-27762612D01*
X14673311Y-27762615D01*
X14673315Y-27762621D01*
X14718685Y-27814981D01*
X14719601Y-27816097D01*
X14830258Y-27911980D01*
X14830261Y-27911982D01*
X14963210Y-27972698D01*
X15031331Y-27992700D01*
X15176000Y-28013500D01*
X16590500Y-28013500D01*
X16658621Y-28033502D01*
X16705114Y-28087158D01*
X16716500Y-28139500D01*
X16716500Y-29666146D01*
X16714751Y-29681988D01*
X16715044Y-29682016D01*
X16714298Y-29689907D01*
X16716500Y-29759957D01*
X16716500Y-29789851D01*
X16716501Y-29789872D01*
X16717378Y-29796820D01*
X16717844Y-29802732D01*
X16719326Y-29849888D01*
X16719327Y-29849893D01*
X16724977Y-29869339D01*
X16728986Y-29888698D01*
X16729767Y-29894880D01*
X16718461Y-29964971D01*
X16671056Y-30017822D01*
X16602603Y-30036655D01*
X16534835Y-30015488D01*
X16530713Y-30012618D01*
X16456752Y-29958882D01*
X16282288Y-29881206D01*
X16095487Y-29841500D01*
X15904513Y-29841500D01*
X15717711Y-29881206D01*
X15543247Y-29958882D01*
X15388743Y-30071136D01*
X15386996Y-30073077D01*
X15385704Y-30073872D01*
X15383837Y-30075554D01*
X15383529Y-30075212D01*
X15326548Y-30110313D01*
X15297324Y-30114699D01*
X15240029Y-30116500D01*
X15210144Y-30116500D01*
X15210140Y-30116500D01*
X15210129Y-30116501D01*
X15203190Y-30117377D01*
X15197277Y-30117843D01*
X15150114Y-30119325D01*
X15150107Y-30119327D01*
X15130649Y-30124979D01*
X15111304Y-30128985D01*
X15091206Y-30131525D01*
X15091197Y-30131527D01*
X15047331Y-30148894D01*
X15041716Y-30150817D01*
X14996408Y-30163981D01*
X14978964Y-30174297D01*
X14961218Y-30182990D01*
X14942382Y-30190448D01*
X14904209Y-30218181D01*
X14899248Y-30221440D01*
X14858638Y-30245458D01*
X14844311Y-30259784D01*
X14829285Y-30272617D01*
X14812895Y-30284525D01*
X14812893Y-30284527D01*
X14782808Y-30320892D01*
X14778812Y-30325283D01*
X13226544Y-31877549D01*
X13164232Y-31911575D01*
X13097818Y-31908059D01*
X13004423Y-31877112D01*
X13004424Y-31877112D01*
X12900553Y-31866500D01*
X12174455Y-31866500D01*
X12070574Y-31877112D01*
X11902261Y-31932885D01*
X11751347Y-32025970D01*
X11751341Y-32025975D01*
X11625975Y-32151341D01*
X11625970Y-32151347D01*
X11532885Y-32302262D01*
X11477113Y-32470572D01*
X11477112Y-32470579D01*
X11466499Y-32574446D01*
X11466500Y-32835405D01*
X11446498Y-32903526D01*
X11429599Y-32924495D01*
X11009062Y-33345033D01*
X10611340Y-33742755D01*
X10598903Y-33752719D01*
X10599091Y-33752946D01*
X10592982Y-33757999D01*
X10545015Y-33809079D01*
X10523866Y-33830227D01*
X10519560Y-33835777D01*
X10515714Y-33840279D01*
X10483417Y-33874674D01*
X10483411Y-33874683D01*
X10473651Y-33892435D01*
X10462803Y-33908950D01*
X10450386Y-33924958D01*
X10431645Y-33968264D01*
X10429034Y-33973594D01*
X10406305Y-34014939D01*
X10406303Y-34014944D01*
X10401267Y-34034559D01*
X10394864Y-34053262D01*
X10386819Y-34071852D01*
X10379437Y-34118456D01*
X10378233Y-34124268D01*
X10366500Y-34169968D01*
X10366500Y-34190223D01*
X10364949Y-34209933D01*
X10361780Y-34229942D01*
X10361780Y-34229943D01*
X10366220Y-34276917D01*
X10366500Y-34282850D01*
X10366500Y-35416146D01*
X10364751Y-35431988D01*
X10365044Y-35432016D01*
X10364298Y-35439907D01*
X10366500Y-35509957D01*
X10366500Y-35539851D01*
X10366501Y-35539872D01*
X10367378Y-35546820D01*
X10367844Y-35552732D01*
X10369326Y-35599888D01*
X10369327Y-35599893D01*
X10374977Y-35619339D01*
X10378986Y-35638697D01*
X10381525Y-35658793D01*
X10381526Y-35658799D01*
X10398893Y-35702662D01*
X10400816Y-35708279D01*
X10413981Y-35753592D01*
X10415132Y-35755537D01*
X10415569Y-35757261D01*
X10417131Y-35760870D01*
X10416548Y-35761121D01*
X10432590Y-35824353D01*
X10410072Y-35891684D01*
X10354727Y-35936152D01*
X10326402Y-35944120D01*
X10325120Y-35944323D01*
X10305649Y-35949979D01*
X10286304Y-35953985D01*
X10266206Y-35956525D01*
X10266197Y-35956527D01*
X10222331Y-35973894D01*
X10216716Y-35975817D01*
X10171408Y-35988981D01*
X10153964Y-35999297D01*
X10136218Y-36007990D01*
X10117382Y-36015448D01*
X10079210Y-36043181D01*
X10074249Y-36046439D01*
X10027729Y-36073952D01*
X9963588Y-36091500D01*
X9904513Y-36091500D01*
X9717711Y-36131206D01*
X9543247Y-36208882D01*
X9388744Y-36321135D01*
X9260965Y-36463048D01*
X9260958Y-36463058D01*
X9165476Y-36628438D01*
X9165473Y-36628445D01*
X9106457Y-36810072D01*
X9086496Y-37000000D01*
X9106457Y-37189927D01*
X9122092Y-37238044D01*
X9165473Y-37371556D01*
X9181959Y-37400111D01*
X9260958Y-37536941D01*
X9260965Y-37536951D01*
X9284136Y-37562685D01*
X9314853Y-37626693D01*
X9316499Y-37646994D01*
X9316500Y-38240500D01*
X9296498Y-38308621D01*
X9242842Y-38355114D01*
X9190500Y-38366500D01*
X9051350Y-38366500D01*
X8990803Y-38373009D01*
X8990795Y-38373011D01*
X8853797Y-38424110D01*
X8853792Y-38424112D01*
X8736738Y-38511738D01*
X8649112Y-38628792D01*
X8649110Y-38628797D01*
X8598011Y-38765795D01*
X8598009Y-38765803D01*
X8591500Y-38826350D01*
X8591500Y-40623649D01*
X8598009Y-40684196D01*
X8598011Y-40684204D01*
X8649110Y-40821202D01*
X8649112Y-40821207D01*
X8736738Y-40938261D01*
X8853792Y-41025887D01*
X8853794Y-41025888D01*
X8853796Y-41025889D01*
X8908900Y-41046442D01*
X8990795Y-41076988D01*
X8990803Y-41076990D01*
X9051350Y-41083499D01*
X9051355Y-41083499D01*
X9051362Y-41083500D01*
X9051368Y-41083500D01*
X10848632Y-41083500D01*
X10848638Y-41083500D01*
X10848645Y-41083499D01*
X10848649Y-41083499D01*
X10909196Y-41076990D01*
X10909199Y-41076989D01*
X10909201Y-41076989D01*
X11046204Y-41025889D01*
X11049432Y-41023473D01*
X11163261Y-40938261D01*
X11250886Y-40821208D01*
X11250885Y-40821208D01*
X11250889Y-40821204D01*
X11294999Y-40702939D01*
X11337545Y-40646107D01*
X11404066Y-40621296D01*
X11473440Y-40636388D01*
X11505753Y-40661635D01*
X11526529Y-40684204D01*
X11566762Y-40727908D01*
X11621331Y-40770381D01*
X11744424Y-40866189D01*
X11942426Y-40973342D01*
X11942427Y-40973342D01*
X11942428Y-40973343D01*
X11984450Y-40987769D01*
X12155365Y-41046444D01*
X12377431Y-41083500D01*
X12377435Y-41083500D01*
X12602565Y-41083500D01*
X12602569Y-41083500D01*
X12824635Y-41046444D01*
X13037574Y-40973342D01*
X13235576Y-40866189D01*
X13413240Y-40727906D01*
X13565722Y-40562268D01*
X13565927Y-40561955D01*
X13617011Y-40483764D01*
X13654518Y-40426354D01*
X13708520Y-40380268D01*
X13778868Y-40370692D01*
X13843225Y-40400669D01*
X13865480Y-40426353D01*
X13898607Y-40477058D01*
X13954275Y-40562265D01*
X13954279Y-40562270D01*
X14106762Y-40727908D01*
X14161331Y-40770381D01*
X14284424Y-40866189D01*
X14482426Y-40973342D01*
X14482427Y-40973342D01*
X14482428Y-40973343D01*
X14524450Y-40987769D01*
X14695365Y-41046444D01*
X14917431Y-41083500D01*
X14917435Y-41083500D01*
X15142565Y-41083500D01*
X15142569Y-41083500D01*
X15364635Y-41046444D01*
X15577574Y-40973342D01*
X15775576Y-40866189D01*
X15953240Y-40727906D01*
X16105722Y-40562268D01*
X16105927Y-40561955D01*
X16194517Y-40426357D01*
X16194816Y-40425898D01*
X16248819Y-40379810D01*
X16319167Y-40370235D01*
X16383524Y-40400212D01*
X16405782Y-40425898D01*
X16494674Y-40561958D01*
X16647097Y-40727534D01*
X16824698Y-40865767D01*
X16824699Y-40865768D01*
X17022628Y-40972882D01*
X17022634Y-40972884D01*
X17169999Y-41023474D01*
X17170000Y-41023473D01*
X17170000Y-40027417D01*
X17188239Y-40055798D01*
X17296900Y-40149952D01*
X17427685Y-40209680D01*
X17534237Y-40225000D01*
X17605763Y-40225000D01*
X17712315Y-40209680D01*
X17843100Y-40149952D01*
X17871897Y-40125000D01*
X17970000Y-40125000D01*
X17970000Y-41023474D01*
X18117365Y-40972884D01*
X18117371Y-40972882D01*
X18315300Y-40865768D01*
X18315301Y-40865767D01*
X18492902Y-40727534D01*
X18645325Y-40561958D01*
X18768419Y-40373548D01*
X18858819Y-40167458D01*
X18869571Y-40125000D01*
X24825429Y-40125000D01*
X24836180Y-40167458D01*
X24926580Y-40373548D01*
X25049674Y-40561958D01*
X25202097Y-40727534D01*
X25379698Y-40865767D01*
X25379699Y-40865768D01*
X25577628Y-40972882D01*
X25577634Y-40972884D01*
X25724999Y-41023474D01*
X25725000Y-41023473D01*
X25725000Y-40125000D01*
X24825429Y-40125000D01*
X18869571Y-40125000D01*
X17970000Y-40125000D01*
X17871897Y-40125000D01*
X17951761Y-40055798D01*
X18029493Y-39934844D01*
X18070000Y-39796889D01*
X18070000Y-39653111D01*
X18029493Y-39515156D01*
X17951761Y-39394202D01*
X17843100Y-39300048D01*
X17712315Y-39240320D01*
X17605763Y-39225000D01*
X17534237Y-39225000D01*
X17427685Y-39240320D01*
X17296900Y-39300048D01*
X17188239Y-39394202D01*
X17170000Y-39422582D01*
X17170000Y-38426525D01*
X17970000Y-38426525D01*
X17970000Y-39325000D01*
X18869571Y-39325000D01*
X24825429Y-39325000D01*
X25725000Y-39325000D01*
X25725000Y-38426525D01*
X25577630Y-38477116D01*
X25577628Y-38477117D01*
X25379699Y-38584231D01*
X25379698Y-38584232D01*
X25202097Y-38722465D01*
X25049674Y-38888041D01*
X24926580Y-39076451D01*
X24836180Y-39282541D01*
X24825429Y-39325000D01*
X18869571Y-39325000D01*
X18858819Y-39282541D01*
X18768419Y-39076451D01*
X18645325Y-38888041D01*
X18492902Y-38722465D01*
X18315301Y-38584232D01*
X18315300Y-38584231D01*
X18117371Y-38477117D01*
X18117369Y-38477116D01*
X17970000Y-38426525D01*
X17170000Y-38426525D01*
X17022630Y-38477116D01*
X17022628Y-38477117D01*
X16824699Y-38584231D01*
X16824698Y-38584232D01*
X16647097Y-38722465D01*
X16494670Y-38888045D01*
X16405780Y-39024101D01*
X16351776Y-39070189D01*
X16281428Y-39079764D01*
X16217071Y-39049786D01*
X16194816Y-39024101D01*
X16136685Y-38935124D01*
X16105724Y-38887734D01*
X16105720Y-38887729D01*
X15954580Y-38723550D01*
X15953240Y-38722094D01*
X15953239Y-38722093D01*
X15953237Y-38722091D01*
X15833372Y-38628796D01*
X15775576Y-38583811D01*
X15577574Y-38476658D01*
X15468587Y-38439242D01*
X15410652Y-38398204D01*
X15384101Y-38332359D01*
X15383500Y-38320069D01*
X15383500Y-38009500D01*
X15403502Y-37941379D01*
X15457158Y-37894886D01*
X15509500Y-37883500D01*
X16548632Y-37883500D01*
X16548638Y-37883500D01*
X16548645Y-37883499D01*
X16548649Y-37883499D01*
X16609196Y-37876990D01*
X16609197Y-37876989D01*
X16609201Y-37876989D01*
X16637470Y-37866444D01*
X16681504Y-37858500D01*
X17683627Y-37858500D01*
X17751748Y-37878502D01*
X17772722Y-37895405D01*
X17901341Y-38024024D01*
X17901347Y-38024029D01*
X17901348Y-38024030D01*
X18052262Y-38117115D01*
X18220574Y-38172887D01*
X18324455Y-38183500D01*
X19675544Y-38183499D01*
X19779426Y-38172887D01*
X19947738Y-38117115D01*
X20098652Y-38024030D01*
X20224030Y-37898652D01*
X20317115Y-37747738D01*
X20372887Y-37579426D01*
X20383500Y-37475545D01*
X20383499Y-36624456D01*
X20377272Y-36563504D01*
X20372887Y-36520574D01*
X20370028Y-36511946D01*
X20317115Y-36352262D01*
X20224030Y-36201348D01*
X20224029Y-36201347D01*
X20224024Y-36201341D01*
X20098658Y-36075975D01*
X20098652Y-36075970D01*
X20050775Y-36046439D01*
X19947738Y-35982885D01*
X19856777Y-35952744D01*
X19779427Y-35927113D01*
X19779420Y-35927112D01*
X19675553Y-35916500D01*
X18324455Y-35916500D01*
X18220574Y-35927112D01*
X18052261Y-35982885D01*
X17901347Y-36075970D01*
X17901341Y-36075975D01*
X17775975Y-36201341D01*
X17775970Y-36201347D01*
X17702085Y-36321134D01*
X17682885Y-36352262D01*
X17632228Y-36505135D01*
X17591817Y-36563504D01*
X17526261Y-36590760D01*
X17512626Y-36591500D01*
X17134000Y-36591500D01*
X17065879Y-36571498D01*
X17019386Y-36517842D01*
X17008000Y-36465500D01*
X17008000Y-36440798D01*
X17028002Y-36372677D01*
X17036910Y-36360489D01*
X17037702Y-36359532D01*
X17042190Y-36354106D01*
X17046178Y-36349725D01*
X17211708Y-36184195D01*
X17388663Y-36007240D01*
X17401097Y-35997281D01*
X17400909Y-35997054D01*
X17407014Y-35992003D01*
X17407015Y-35992001D01*
X17407018Y-35992000D01*
X17454984Y-35940920D01*
X17476135Y-35919770D01*
X17480445Y-35914212D01*
X17484274Y-35909729D01*
X17516586Y-35875321D01*
X17526346Y-35857565D01*
X17537195Y-35841050D01*
X17549614Y-35825041D01*
X17568363Y-35781710D01*
X17570953Y-35776423D01*
X17593695Y-35735060D01*
X17598733Y-35715434D01*
X17605137Y-35696732D01*
X17613180Y-35678147D01*
X17613179Y-35678147D01*
X17613181Y-35678145D01*
X17619216Y-35640035D01*
X17620561Y-35631547D01*
X17621762Y-35625740D01*
X17633500Y-35580030D01*
X17633500Y-35559774D01*
X17635051Y-35540063D01*
X17638220Y-35520057D01*
X17635629Y-35492651D01*
X17633780Y-35473080D01*
X17633500Y-35467148D01*
X17633500Y-35260373D01*
X17653502Y-35192252D01*
X17707158Y-35145759D01*
X17777432Y-35135655D01*
X17842012Y-35165149D01*
X17848595Y-35171278D01*
X17901341Y-35224024D01*
X17901347Y-35224029D01*
X17901348Y-35224030D01*
X18052262Y-35317115D01*
X18220574Y-35372887D01*
X18324455Y-35383500D01*
X19675544Y-35383499D01*
X19779426Y-35372887D01*
X19947738Y-35317115D01*
X20098652Y-35224030D01*
X20224030Y-35098652D01*
X20317115Y-34947738D01*
X20372887Y-34779426D01*
X20383500Y-34675545D01*
X20383499Y-33824456D01*
X20372887Y-33720574D01*
X20317115Y-33552262D01*
X20224030Y-33401348D01*
X20224028Y-33401345D01*
X20155527Y-33332844D01*
X20121502Y-33270531D01*
X20126568Y-33199716D01*
X20155526Y-33154655D01*
X20224030Y-33086152D01*
X20317115Y-32935238D01*
X20372887Y-32766926D01*
X20383500Y-32663045D01*
X20383499Y-31936956D01*
X20380396Y-31906585D01*
X20372887Y-31833074D01*
X20357840Y-31787664D01*
X20317115Y-31664762D01*
X20224030Y-31513848D01*
X20224029Y-31513847D01*
X20224024Y-31513841D01*
X20098658Y-31388475D01*
X20098652Y-31388470D01*
X20098652Y-31388469D01*
X19947738Y-31295385D01*
X19863581Y-31267499D01*
X19779427Y-31239613D01*
X19779420Y-31239612D01*
X19675553Y-31229000D01*
X19675545Y-31229000D01*
X18759500Y-31229000D01*
X18691379Y-31208998D01*
X18644886Y-31155342D01*
X18633500Y-31103000D01*
X18633500Y-30483853D01*
X18635249Y-30468011D01*
X18634956Y-30467984D01*
X18635702Y-30460091D01*
X18633500Y-30390028D01*
X18633500Y-30360150D01*
X18633500Y-30360144D01*
X18632620Y-30353182D01*
X18632156Y-30347293D01*
X18630674Y-30300111D01*
X18625017Y-30280642D01*
X18621012Y-30261298D01*
X18618474Y-30241203D01*
X18608848Y-30216893D01*
X18600000Y-30170508D01*
X18600000Y-29775000D01*
X19400000Y-29775000D01*
X19400000Y-30445500D01*
X19675517Y-30445500D01*
X19675516Y-30445499D01*
X19779318Y-30434894D01*
X19779321Y-30434893D01*
X19947525Y-30379157D01*
X20098339Y-30286134D01*
X20098345Y-30286129D01*
X20223629Y-30160845D01*
X20223634Y-30160839D01*
X20316657Y-30010025D01*
X20372393Y-29841821D01*
X20372394Y-29841817D01*
X20379221Y-29775001D01*
X20379220Y-29775000D01*
X19400000Y-29775000D01*
X18600000Y-29775000D01*
X18600000Y-29150000D01*
X32729500Y-29150000D01*
X32729500Y-29173852D01*
X32739755Y-29274229D01*
X32739757Y-29274241D01*
X32793652Y-29436884D01*
X32883609Y-29582728D01*
X32883614Y-29582734D01*
X33004765Y-29703885D01*
X33004771Y-29703890D01*
X33150615Y-29793847D01*
X33287499Y-29839206D01*
X33287500Y-29839206D01*
X33287500Y-29150000D01*
X32729500Y-29150000D01*
X18600000Y-29150000D01*
X18600000Y-28304500D01*
X19400000Y-28304500D01*
X19400000Y-28975000D01*
X20379220Y-28975000D01*
X20379221Y-28974998D01*
X20372394Y-28908182D01*
X20372393Y-28908178D01*
X20316657Y-28739974D01*
X20223634Y-28589160D01*
X20223629Y-28589154D01*
X20098345Y-28463870D01*
X20098339Y-28463865D01*
X19947525Y-28370842D01*
X19884627Y-28350000D01*
X32729500Y-28350000D01*
X33287500Y-28350000D01*
X33287500Y-27660793D01*
X33287499Y-27660793D01*
X33150614Y-27706153D01*
X33004771Y-27796109D01*
X33004765Y-27796114D01*
X32883614Y-27917265D01*
X32883609Y-27917271D01*
X32793652Y-28063115D01*
X32739757Y-28225758D01*
X32739755Y-28225770D01*
X32729500Y-28326147D01*
X32729500Y-28350000D01*
X19884627Y-28350000D01*
X19779321Y-28315106D01*
X19779318Y-28315105D01*
X19675516Y-28304500D01*
X19400000Y-28304500D01*
X18600000Y-28304500D01*
X18324483Y-28304500D01*
X18220681Y-28315105D01*
X18220674Y-28315106D01*
X18149132Y-28338813D01*
X18078177Y-28341253D01*
X18017167Y-28304944D01*
X17985472Y-28241415D01*
X17983500Y-28219208D01*
X17983500Y-28139500D01*
X18003502Y-28071379D01*
X18057158Y-28024886D01*
X18109500Y-28013500D01*
X24923994Y-28013500D01*
X24924000Y-28013500D01*
X25033149Y-28001766D01*
X25033158Y-28001764D01*
X25033159Y-28001764D01*
X25049303Y-27998251D01*
X25085491Y-27990380D01*
X25189657Y-27955710D01*
X25312612Y-27876692D01*
X25365011Y-27831288D01*
X25366101Y-27830393D01*
X25366270Y-27830198D01*
X25461982Y-27719739D01*
X25522698Y-27586790D01*
X25542700Y-27518669D01*
X25563500Y-27374000D01*
X25563500Y-26889965D01*
X25563226Y-26878101D01*
X25562409Y-26860436D01*
X25561588Y-26848609D01*
X25553527Y-26761621D01*
X25553527Y-26738376D01*
X25561588Y-26651389D01*
X25561684Y-26650000D01*
X32729500Y-26650000D01*
X32729500Y-26673852D01*
X32739755Y-26774229D01*
X32739757Y-26774241D01*
X32793652Y-26936884D01*
X32883609Y-27082728D01*
X32883614Y-27082734D01*
X33004765Y-27203885D01*
X33004771Y-27203890D01*
X33150615Y-27293847D01*
X33287499Y-27339206D01*
X33287500Y-27339206D01*
X33287500Y-26650000D01*
X32729500Y-26650000D01*
X25561684Y-26650000D01*
X25562409Y-26639562D01*
X25563226Y-26621897D01*
X25563500Y-26610033D01*
X25563500Y-26184000D01*
X25583502Y-26115879D01*
X25637158Y-26069386D01*
X25689500Y-26058000D01*
X25750000Y-26058000D01*
X25750000Y-25200000D01*
X26550000Y-25200000D01*
X26550000Y-26058000D01*
X27198585Y-26058000D01*
X27198597Y-26057999D01*
X27259093Y-26051494D01*
X27395964Y-26000444D01*
X27395965Y-26000444D01*
X27512904Y-25912904D01*
X27559994Y-25850000D01*
X32729500Y-25850000D01*
X33287500Y-25850000D01*
X33287500Y-25160793D01*
X33287499Y-25160793D01*
X33150614Y-25206153D01*
X33004771Y-25296109D01*
X33004765Y-25296114D01*
X32883614Y-25417265D01*
X32883609Y-25417271D01*
X32793652Y-25563115D01*
X32739757Y-25725758D01*
X32739755Y-25725770D01*
X32729500Y-25826147D01*
X32729500Y-25850000D01*
X27559994Y-25850000D01*
X27600444Y-25795965D01*
X27600444Y-25795964D01*
X27651494Y-25659093D01*
X27657999Y-25598597D01*
X27658000Y-25598585D01*
X27658000Y-25200000D01*
X26550000Y-25200000D01*
X25750000Y-25200000D01*
X25750000Y-24526000D01*
X25770002Y-24457879D01*
X25823658Y-24411386D01*
X25876000Y-24400000D01*
X27658000Y-24400000D01*
X27658000Y-24150000D01*
X32729500Y-24150000D01*
X32729500Y-24173852D01*
X32739755Y-24274229D01*
X32739757Y-24274241D01*
X32793652Y-24436884D01*
X32883609Y-24582728D01*
X32883614Y-24582734D01*
X33004765Y-24703885D01*
X33004771Y-24703890D01*
X33150615Y-24793847D01*
X33287499Y-24839206D01*
X33287500Y-24839206D01*
X33287500Y-24150000D01*
X32729500Y-24150000D01*
X27658000Y-24150000D01*
X27658000Y-24001417D01*
X27657981Y-24001241D01*
X27657988Y-24001199D01*
X27657819Y-23998036D01*
X27658565Y-23997995D01*
X27670574Y-23931370D01*
X27700741Y-23892527D01*
X27715007Y-23880166D01*
X27716102Y-23879267D01*
X27811980Y-23768616D01*
X27811982Y-23768614D01*
X27872698Y-23635665D01*
X27882030Y-23603881D01*
X27920413Y-23544156D01*
X27984994Y-23514663D01*
X27993845Y-23514029D01*
X27993841Y-23513987D01*
X28197692Y-23493910D01*
X28197693Y-23493909D01*
X28197701Y-23493909D01*
X28387804Y-23436241D01*
X28412810Y-23422875D01*
X28549150Y-23350000D01*
X32729500Y-23350000D01*
X33287500Y-23350000D01*
X33287500Y-22660793D01*
X33287499Y-22660793D01*
X33150614Y-22706153D01*
X33004771Y-22796109D01*
X33004765Y-22796114D01*
X32883614Y-22917265D01*
X32883609Y-22917271D01*
X32793652Y-23063115D01*
X32739757Y-23225758D01*
X32739755Y-23225770D01*
X32729500Y-23326147D01*
X32729500Y-23350000D01*
X28549150Y-23350000D01*
X28563004Y-23342595D01*
X28716568Y-23216568D01*
X28746211Y-23180445D01*
X28750325Y-23175907D01*
X29175907Y-22750325D01*
X29180445Y-22746211D01*
X29216568Y-22716568D01*
X29342595Y-22563004D01*
X29436241Y-22387804D01*
X29463551Y-22297775D01*
X29493909Y-22197701D01*
X29495306Y-22183521D01*
X29513380Y-22000004D01*
X29513380Y-21999996D01*
X29508804Y-21953534D01*
X29508500Y-21947355D01*
X29508500Y-21650000D01*
X32729500Y-21650000D01*
X32729500Y-21673852D01*
X32739755Y-21774229D01*
X32739757Y-21774241D01*
X32793652Y-21936884D01*
X32883609Y-22082728D01*
X32883614Y-22082734D01*
X33004765Y-22203885D01*
X33004771Y-22203890D01*
X33150615Y-22293847D01*
X33287499Y-22339206D01*
X33287500Y-22339206D01*
X33287500Y-21650000D01*
X32729500Y-21650000D01*
X29508500Y-21650000D01*
X29508500Y-20850000D01*
X32729500Y-20850000D01*
X33287500Y-20850000D01*
X33287500Y-20160793D01*
X33287499Y-20160793D01*
X33150614Y-20206153D01*
X33004771Y-20296109D01*
X33004765Y-20296114D01*
X32883614Y-20417265D01*
X32883609Y-20417271D01*
X32793652Y-20563115D01*
X32739757Y-20725758D01*
X32739755Y-20725770D01*
X32729500Y-20826147D01*
X32729500Y-20850000D01*
X29508500Y-20850000D01*
X29508500Y-20719923D01*
X29528502Y-20651802D01*
X29545400Y-20630833D01*
X31026232Y-19150000D01*
X32729500Y-19150000D01*
X32729500Y-19173852D01*
X32739755Y-19274229D01*
X32739757Y-19274241D01*
X32793652Y-19436884D01*
X32883609Y-19582728D01*
X32883614Y-19582734D01*
X33004765Y-19703885D01*
X33004771Y-19703890D01*
X33150615Y-19793847D01*
X33287499Y-19839206D01*
X33287500Y-19839206D01*
X33287500Y-19150000D01*
X34087500Y-19150000D01*
X34087500Y-19839206D01*
X34224384Y-19793847D01*
X34370228Y-19703890D01*
X34370234Y-19703885D01*
X34491385Y-19582734D01*
X34491390Y-19582728D01*
X34581347Y-19436884D01*
X34635242Y-19274241D01*
X34635244Y-19274229D01*
X34645499Y-19173852D01*
X34645500Y-19173852D01*
X34645500Y-19150000D01*
X34087500Y-19150000D01*
X33287500Y-19150000D01*
X32729500Y-19150000D01*
X31026232Y-19150000D01*
X31618831Y-18557401D01*
X31662405Y-18529008D01*
X31746218Y-18496540D01*
X31920882Y-18388392D01*
X31962996Y-18350000D01*
X32729500Y-18350000D01*
X33287500Y-18350000D01*
X33287500Y-17660793D01*
X34087500Y-17660793D01*
X34087500Y-18350000D01*
X34645500Y-18350000D01*
X34645500Y-18326147D01*
X34635244Y-18225770D01*
X34635242Y-18225758D01*
X34581347Y-18063115D01*
X34491390Y-17917271D01*
X34491385Y-17917265D01*
X34370234Y-17796114D01*
X34370228Y-17796109D01*
X34224385Y-17706153D01*
X34087500Y-17660793D01*
X33287500Y-17660793D01*
X33287499Y-17660793D01*
X33150614Y-17706153D01*
X33004771Y-17796109D01*
X33004765Y-17796114D01*
X32883614Y-17917265D01*
X32883609Y-17917271D01*
X32793652Y-18063115D01*
X32739757Y-18225758D01*
X32739755Y-18225770D01*
X32729500Y-18326147D01*
X32729500Y-18350000D01*
X31962996Y-18350000D01*
X32072701Y-18249991D01*
X32196503Y-18086050D01*
X32196504Y-18086046D01*
X32196506Y-18086045D01*
X32288070Y-17902160D01*
X32288069Y-17902160D01*
X32288074Y-17902152D01*
X32344294Y-17704559D01*
X32363249Y-17500000D01*
X32344294Y-17295441D01*
X32294329Y-17119832D01*
X32294925Y-17048841D01*
X32326422Y-16996259D01*
X32399030Y-16923652D01*
X32492115Y-16772738D01*
X32547887Y-16604426D01*
X32558500Y-16500545D01*
X32558499Y-14259499D01*
X32578501Y-14191379D01*
X32632157Y-14144886D01*
X32684499Y-14133500D01*
X38367188Y-14133500D01*
X38383029Y-14135249D01*
X38383057Y-14134956D01*
X38390943Y-14135700D01*
X38390950Y-14135702D01*
X38460999Y-14133500D01*
X38490897Y-14133500D01*
X38497859Y-14132619D01*
X38503760Y-14132154D01*
X38550930Y-14130673D01*
X38570388Y-14125019D01*
X38589735Y-14121013D01*
X38609838Y-14118474D01*
X38653720Y-14101099D01*
X38659315Y-14099183D01*
X38687857Y-14090891D01*
X38704632Y-14086019D01*
X38704636Y-14086017D01*
X38722067Y-14075708D01*
X38739821Y-14067009D01*
X38758658Y-14059552D01*
X38796827Y-14031818D01*
X38801785Y-14028562D01*
X38842403Y-14004542D01*
X38856726Y-13990218D01*
X38871765Y-13977374D01*
X38888148Y-13965472D01*
X38918234Y-13929103D01*
X38922202Y-13924741D01*
X39088657Y-13758286D01*
X39101092Y-13748325D01*
X39100905Y-13748098D01*
X39107009Y-13743046D01*
X39107018Y-13743041D01*
X39154999Y-13691945D01*
X39176134Y-13670811D01*
X39180429Y-13665273D01*
X39184271Y-13660772D01*
X39216586Y-13626362D01*
X39226345Y-13608608D01*
X39237197Y-13592087D01*
X39249613Y-13576082D01*
X39260946Y-13549891D01*
X39268347Y-13532789D01*
X39270961Y-13527453D01*
X39293694Y-13486102D01*
X39293695Y-13486101D01*
X39298733Y-13466476D01*
X39305138Y-13447771D01*
X39313181Y-13429186D01*
X39320561Y-13382588D01*
X39321762Y-13376781D01*
X39333500Y-13331071D01*
X39333500Y-13310816D01*
X39335051Y-13291104D01*
X39338220Y-13271098D01*
X39335629Y-13243692D01*
X39333780Y-13224121D01*
X39333500Y-13218189D01*
X39333500Y-12782812D01*
X39335249Y-12766970D01*
X39334956Y-12766943D01*
X39335702Y-12759050D01*
X39333500Y-12688987D01*
X39333500Y-12659109D01*
X39333500Y-12659103D01*
X39332620Y-12652141D01*
X39332156Y-12646252D01*
X39330674Y-12599070D01*
X39325017Y-12579601D01*
X39321012Y-12560257D01*
X39318474Y-12540162D01*
X39301100Y-12496281D01*
X39299181Y-12490675D01*
X39296215Y-12480467D01*
X39286018Y-12445366D01*
X39275706Y-12427929D01*
X39267010Y-12410180D01*
X39259552Y-12391342D01*
X39231812Y-12353162D01*
X39228564Y-12348217D01*
X39204542Y-12307597D01*
X39190214Y-12293269D01*
X39177384Y-12278248D01*
X39165472Y-12261852D01*
X39165469Y-12261850D01*
X39165469Y-12261849D01*
X39129109Y-12231768D01*
X39124728Y-12227782D01*
X38907464Y-12010518D01*
X38873439Y-11948207D01*
X38871638Y-11904983D01*
X38883500Y-11814885D01*
X38883499Y-11535116D01*
X38867838Y-11416150D01*
X38860409Y-11398217D01*
X38852821Y-11327628D01*
X38860411Y-11301779D01*
X38867838Y-11283849D01*
X38872556Y-11248011D01*
X38883500Y-11164885D01*
X38883499Y-10885116D01*
X38881987Y-10873633D01*
X38867838Y-10766151D01*
X38866246Y-10762307D01*
X38860410Y-10748219D01*
X38852819Y-10677634D01*
X38860408Y-10651786D01*
X38867838Y-10633850D01*
X38883500Y-10514885D01*
X38883499Y-10235116D01*
X38867838Y-10116150D01*
X38860410Y-10098219D01*
X38852819Y-10027634D01*
X38860408Y-10001786D01*
X38867838Y-9983850D01*
X38883500Y-9864885D01*
X38883499Y-9585116D01*
X38867838Y-9466150D01*
X38860409Y-9448217D01*
X38852821Y-9377628D01*
X38860411Y-9351779D01*
X38867838Y-9333849D01*
X38872479Y-9298597D01*
X38883500Y-9214885D01*
X38883499Y-8935116D01*
X38867838Y-8816150D01*
X38860409Y-8798217D01*
X38852821Y-8727628D01*
X38860411Y-8701779D01*
X38867838Y-8683849D01*
X38867989Y-8682701D01*
X38883500Y-8564885D01*
X38883499Y-8285116D01*
X38883000Y-8281329D01*
X38867838Y-8166151D01*
X38867838Y-8166150D01*
X38860410Y-8148219D01*
X38852819Y-8077634D01*
X38860408Y-8051786D01*
X38867838Y-8033850D01*
X38883500Y-7914885D01*
X38883499Y-7635116D01*
X38867838Y-7516150D01*
X38860138Y-7497562D01*
X38852550Y-7426974D01*
X38860140Y-7401124D01*
X38867350Y-7383718D01*
X38875081Y-7325000D01*
X38835569Y-7325000D01*
X38767448Y-7304998D01*
X38735607Y-7275704D01*
X38708988Y-7241014D01*
X38654816Y-7199446D01*
X38591632Y-7150962D01*
X38549765Y-7093624D01*
X38545544Y-7022753D01*
X38580309Y-6960850D01*
X38643022Y-6927569D01*
X38668337Y-6925000D01*
X38875079Y-6925000D01*
X38867350Y-6866281D01*
X38867349Y-6866280D01*
X38806087Y-6718378D01*
X38806082Y-6718370D01*
X38708630Y-6591369D01*
X38581629Y-6493917D01*
X38581621Y-6493912D01*
X38433718Y-6432649D01*
X38314849Y-6417000D01*
X37837500Y-6417000D01*
X37837500Y-6940500D01*
X37817498Y-7008621D01*
X37763842Y-7055114D01*
X37711500Y-7066500D01*
X37563500Y-7066500D01*
X37495379Y-7046498D01*
X37448886Y-6992842D01*
X37437500Y-6940500D01*
X37437500Y-6417000D01*
X36960154Y-6417000D01*
X36960140Y-6417001D01*
X36933095Y-6420562D01*
X36862946Y-6409622D01*
X36809849Y-6362493D01*
X36790660Y-6294138D01*
X36811472Y-6226261D01*
X36827551Y-6206550D01*
X38150498Y-4883603D01*
X38212811Y-4849577D01*
X38239594Y-4846698D01*
X44177949Y-4846698D01*
X44193790Y-4848447D01*
X44193818Y-4848154D01*
X44201704Y-4848898D01*
X44201711Y-4848900D01*
X44271760Y-4846698D01*
X44301658Y-4846698D01*
X44308620Y-4845817D01*
X44314521Y-4845352D01*
X44361691Y-4843871D01*
X44381149Y-4838217D01*
X44400496Y-4834211D01*
X44420599Y-4831672D01*
X44464481Y-4814297D01*
X44470076Y-4812381D01*
X44498618Y-4804089D01*
X44515393Y-4799217D01*
X44515397Y-4799215D01*
X44532828Y-4788906D01*
X44550582Y-4780207D01*
X44569419Y-4772750D01*
X44607588Y-4745016D01*
X44612546Y-4741760D01*
X44653164Y-4717740D01*
X44667487Y-4703416D01*
X44682526Y-4690572D01*
X44698909Y-4678670D01*
X44728995Y-4642301D01*
X44732963Y-4637939D01*
X45638657Y-3732245D01*
X45651097Y-3722282D01*
X45650908Y-3722054D01*
X45657019Y-3716999D01*
X45704984Y-3665920D01*
X45726128Y-3644777D01*
X45726128Y-3644776D01*
X45726135Y-3644770D01*
X45730445Y-3639212D01*
X45734274Y-3634729D01*
X45766586Y-3600321D01*
X45776346Y-3582565D01*
X45787195Y-3566050D01*
X45799614Y-3550041D01*
X45818363Y-3506710D01*
X45820953Y-3501423D01*
X45843695Y-3460060D01*
X45848733Y-3440434D01*
X45855137Y-3421732D01*
X45863180Y-3403147D01*
X45863179Y-3403147D01*
X45863181Y-3403145D01*
X45870561Y-3356547D01*
X45871762Y-3350740D01*
X45883500Y-3305030D01*
X45883500Y-3284775D01*
X45885051Y-3265063D01*
X45886635Y-3255063D01*
X45888220Y-3245057D01*
X45883778Y-3198069D01*
X45883499Y-3192169D01*
X45883499Y-3076919D01*
X45903501Y-3008800D01*
X45949528Y-2966108D01*
X45995576Y-2941189D01*
X46173240Y-2802906D01*
X46325722Y-2637268D01*
X46448860Y-2448791D01*
X46539296Y-2242616D01*
X46594404Y-2025000D01*
X52867000Y-2025000D01*
X53425000Y-2025000D01*
X53425000Y-1067000D01*
X53326402Y-1067000D01*
X53265906Y-1073505D01*
X53129035Y-1124555D01*
X53129034Y-1124555D01*
X53012095Y-1212095D01*
X52924555Y-1329034D01*
X52924555Y-1329035D01*
X52873505Y-1465906D01*
X52867000Y-1526402D01*
X52867000Y-2025000D01*
X46594404Y-2025000D01*
X46594564Y-2024368D01*
X46613156Y-1800000D01*
X46594564Y-1575632D01*
X46566778Y-1465906D01*
X46539297Y-1357387D01*
X46539296Y-1357386D01*
X46539296Y-1357384D01*
X46448860Y-1151209D01*
X46431446Y-1124555D01*
X46325724Y-962734D01*
X46325720Y-962729D01*
X46173237Y-797091D01*
X46053367Y-703792D01*
X45995576Y-658811D01*
X45797574Y-551658D01*
X45797572Y-551657D01*
X45797571Y-551656D01*
X45584639Y-478557D01*
X45584630Y-478555D01*
X45540476Y-471187D01*
X45362569Y-441500D01*
X45137431Y-441500D01*
X44989210Y-466233D01*
X44915369Y-478555D01*
X44915360Y-478557D01*
X44702428Y-551656D01*
X44702426Y-551658D01*
X44504426Y-658810D01*
X44504424Y-658811D01*
X44326762Y-797091D01*
X44174279Y-962729D01*
X44085483Y-1098643D01*
X44031479Y-1144731D01*
X43961131Y-1154306D01*
X43896774Y-1124329D01*
X43874517Y-1098643D01*
X43785720Y-962729D01*
X43633237Y-797091D01*
X43513367Y-703792D01*
X43455576Y-658811D01*
X43257574Y-551658D01*
X43257572Y-551657D01*
X43257571Y-551656D01*
X43044639Y-478557D01*
X43044630Y-478555D01*
X43000476Y-471187D01*
X42822569Y-441500D01*
X42597431Y-441500D01*
X42449210Y-466233D01*
X42375369Y-478555D01*
X42375360Y-478557D01*
X42162428Y-551656D01*
X42162426Y-551658D01*
X41964426Y-658810D01*
X41964424Y-658811D01*
X41786762Y-797091D01*
X41634279Y-962729D01*
X41545483Y-1098643D01*
X41491479Y-1144731D01*
X41421131Y-1154306D01*
X41356774Y-1124329D01*
X41334517Y-1098643D01*
X41245720Y-962729D01*
X41093237Y-797091D01*
X40973367Y-703792D01*
X40915576Y-658811D01*
X40717574Y-551658D01*
X40717572Y-551657D01*
X40717571Y-551656D01*
X40504639Y-478557D01*
X40504630Y-478555D01*
X40460476Y-471187D01*
X40282569Y-441500D01*
X40057431Y-441500D01*
X39909211Y-466233D01*
X39835369Y-478555D01*
X39835360Y-478557D01*
X39622428Y-551656D01*
X39622426Y-551658D01*
X39424426Y-658810D01*
X39424424Y-658811D01*
X39246762Y-797091D01*
X39094279Y-962729D01*
X39005483Y-1098643D01*
X38951479Y-1144731D01*
X38881131Y-1154306D01*
X38816774Y-1124329D01*
X38794517Y-1098643D01*
X38705720Y-962729D01*
X38553237Y-797091D01*
X38433367Y-703792D01*
X38375576Y-658811D01*
X38177574Y-551658D01*
X38177572Y-551657D01*
X38177571Y-551656D01*
X37964639Y-478557D01*
X37964630Y-478555D01*
X37920476Y-471187D01*
X37742569Y-441500D01*
X37517431Y-441500D01*
X37369211Y-466233D01*
X37295369Y-478555D01*
X37295360Y-478557D01*
X37082428Y-551656D01*
X37082426Y-551658D01*
X36884426Y-658810D01*
X36884424Y-658811D01*
X36706762Y-797091D01*
X36554279Y-962729D01*
X36465483Y-1098643D01*
X36411479Y-1144731D01*
X36341131Y-1154306D01*
X36276774Y-1124329D01*
X36254517Y-1098643D01*
X36165720Y-962729D01*
X36013237Y-797091D01*
X35893367Y-703792D01*
X35835576Y-658811D01*
X35637574Y-551658D01*
X35637572Y-551657D01*
X35637571Y-551656D01*
X35424639Y-478557D01*
X35424630Y-478555D01*
X35380476Y-471187D01*
X35202569Y-441500D01*
X34977431Y-441500D01*
X34829210Y-466233D01*
X34755369Y-478555D01*
X34755360Y-478557D01*
X34542428Y-551656D01*
X34542426Y-551658D01*
X34344426Y-658810D01*
X34344424Y-658811D01*
X34166762Y-797091D01*
X34105754Y-863363D01*
X34044901Y-899933D01*
X33973936Y-897798D01*
X33915391Y-857636D01*
X33894999Y-822057D01*
X33850889Y-703797D01*
X33850887Y-703792D01*
X33763261Y-586738D01*
X33646207Y-499112D01*
X33646202Y-499110D01*
X33509204Y-448011D01*
X33509196Y-448009D01*
X33448649Y-441500D01*
X33448638Y-441500D01*
X31651362Y-441500D01*
X31651350Y-441500D01*
X31590803Y-448009D01*
X31590795Y-448011D01*
X31453797Y-499110D01*
X31453792Y-499112D01*
X31336738Y-586738D01*
X31249112Y-703792D01*
X31249110Y-703797D01*
X31198011Y-840795D01*
X31198009Y-840803D01*
X31191500Y-901350D01*
X31191500Y-2698649D01*
X31198009Y-2759196D01*
X31198011Y-2759204D01*
X31249110Y-2896202D01*
X31249112Y-2896207D01*
X31336738Y-3013261D01*
X31453792Y-3100887D01*
X31453794Y-3100888D01*
X31453796Y-3100889D01*
X31480878Y-3110990D01*
X31590795Y-3151988D01*
X31590803Y-3151990D01*
X31651350Y-3158499D01*
X31651355Y-3158499D01*
X31651362Y-3158500D01*
X32665500Y-3158500D01*
X32733621Y-3178502D01*
X32780114Y-3232158D01*
X32791500Y-3284500D01*
X32791500Y-8703582D01*
X32789751Y-8719424D01*
X32790044Y-8719452D01*
X32789297Y-8727344D01*
X32791500Y-8797407D01*
X32791500Y-8827286D01*
X32791501Y-8827307D01*
X32792377Y-8834247D01*
X32792843Y-8840160D01*
X32794325Y-8887323D01*
X32794326Y-8887328D01*
X32799979Y-8906786D01*
X32803987Y-8926138D01*
X32806526Y-8946236D01*
X32823892Y-8990096D01*
X32825815Y-8995712D01*
X32838981Y-9041026D01*
X32838982Y-9041030D01*
X32849294Y-9058467D01*
X32857988Y-9076215D01*
X32865444Y-9095045D01*
X32865450Y-9095056D01*
X32893177Y-9133219D01*
X32896437Y-9138182D01*
X32920460Y-9178801D01*
X32934779Y-9193120D01*
X32947617Y-9208150D01*
X32957156Y-9221279D01*
X32959528Y-9224543D01*
X32963071Y-9227474D01*
X32995886Y-9254621D01*
X33000267Y-9258607D01*
X35828555Y-12086895D01*
X35862580Y-12149205D01*
X35865459Y-12175988D01*
X35865459Y-12441146D01*
X35863710Y-12456988D01*
X35864003Y-12457016D01*
X35863257Y-12464907D01*
X35865459Y-12534957D01*
X35865459Y-12564851D01*
X35865460Y-12564872D01*
X35866337Y-12571820D01*
X35866803Y-12577732D01*
X35868285Y-12624888D01*
X35868286Y-12624893D01*
X35873936Y-12644339D01*
X35877945Y-12663697D01*
X35880484Y-12683793D01*
X35880484Y-12683794D01*
X35880484Y-12683796D01*
X35880485Y-12683797D01*
X35880968Y-12685018D01*
X35884571Y-12694116D01*
X35891050Y-12764816D01*
X35858278Y-12827796D01*
X35796658Y-12863060D01*
X35767419Y-12866500D01*
X32814595Y-12866500D01*
X32746474Y-12846498D01*
X32725499Y-12829595D01*
X32627280Y-12731376D01*
X32507242Y-12611337D01*
X32497279Y-12598902D01*
X32497053Y-12599090D01*
X32492000Y-12592982D01*
X32480677Y-12582349D01*
X32444711Y-12521136D01*
X32447550Y-12450196D01*
X32459690Y-12424351D01*
X32491656Y-12372526D01*
X32547393Y-12204321D01*
X32547394Y-12204318D01*
X32557999Y-12100516D01*
X32558000Y-12100516D01*
X32558000Y-11200000D01*
X29942000Y-11200000D01*
X29942000Y-12100516D01*
X29952605Y-12204318D01*
X29952606Y-12204321D01*
X30008344Y-12372531D01*
X30041200Y-12425799D01*
X30059937Y-12494279D01*
X30038677Y-12562017D01*
X30023054Y-12581040D01*
X28228595Y-14375499D01*
X28166283Y-14409525D01*
X28095468Y-14404460D01*
X28038632Y-14361913D01*
X28013821Y-14295393D01*
X28013500Y-14286404D01*
X28013500Y-13126005D01*
X28013499Y-13125990D01*
X28010800Y-13100887D01*
X28001766Y-13016851D01*
X27990380Y-12964509D01*
X27959059Y-12870404D01*
X27955711Y-12860345D01*
X27955710Y-12860343D01*
X27876692Y-12737388D01*
X27831307Y-12685011D01*
X27830396Y-12683900D01*
X27719741Y-12588019D01*
X27719738Y-12588017D01*
X27586789Y-12527301D01*
X27518677Y-12507302D01*
X27518670Y-12507300D01*
X27470580Y-12500386D01*
X27374000Y-12486500D01*
X27373996Y-12486500D01*
X26628380Y-12486500D01*
X26560259Y-12466498D01*
X26513766Y-12412842D01*
X26503662Y-12342568D01*
X26508775Y-12320867D01*
X26547393Y-12204321D01*
X26547394Y-12204318D01*
X26557999Y-12100516D01*
X26558000Y-12100516D01*
X26558000Y-11200000D01*
X23942000Y-11200000D01*
X23942000Y-12100516D01*
X23952605Y-12204318D01*
X23952606Y-12204321D01*
X23991225Y-12320867D01*
X23993665Y-12391822D01*
X23957357Y-12452832D01*
X23893828Y-12484527D01*
X23871620Y-12486500D01*
X20478380Y-12486500D01*
X20410259Y-12466498D01*
X20363766Y-12412842D01*
X20353662Y-12342568D01*
X20358775Y-12320867D01*
X20397393Y-12204321D01*
X20397394Y-12204318D01*
X20407999Y-12100516D01*
X20408000Y-12100516D01*
X20408000Y-11200000D01*
X18826000Y-11200000D01*
X18757879Y-11179998D01*
X18711386Y-11126342D01*
X18700000Y-11074000D01*
X18700000Y-10526000D01*
X18720002Y-10457879D01*
X18773658Y-10411386D01*
X18826000Y-10400000D01*
X20408000Y-10400000D01*
X20408000Y-10289500D01*
X20428002Y-10221379D01*
X20481658Y-10174886D01*
X20534000Y-10163500D01*
X23816000Y-10163500D01*
X23884121Y-10183502D01*
X23930614Y-10237158D01*
X23942000Y-10289500D01*
X23942000Y-10400000D01*
X26558000Y-10400000D01*
X29942000Y-10400000D01*
X30850000Y-10400000D01*
X30850000Y-8792000D01*
X31650000Y-8792000D01*
X31650000Y-10400000D01*
X32558000Y-10400000D01*
X32558000Y-9499483D01*
X32547394Y-9395681D01*
X32547393Y-9395678D01*
X32491657Y-9227474D01*
X32398634Y-9076660D01*
X32398629Y-9076654D01*
X32273345Y-8951370D01*
X32273339Y-8951365D01*
X32122525Y-8858342D01*
X31954321Y-8802606D01*
X31954318Y-8802605D01*
X31850516Y-8792000D01*
X31650000Y-8792000D01*
X30850000Y-8792000D01*
X30649483Y-8792000D01*
X30545681Y-8802605D01*
X30545678Y-8802606D01*
X30377474Y-8858342D01*
X30226660Y-8951365D01*
X30226654Y-8951370D01*
X30101370Y-9076654D01*
X30101365Y-9076660D01*
X30008342Y-9227474D01*
X29952606Y-9395678D01*
X29952605Y-9395681D01*
X29942000Y-9499483D01*
X29942000Y-10400000D01*
X26558000Y-10400000D01*
X26558000Y-10289500D01*
X26578002Y-10221379D01*
X26631658Y-10174886D01*
X26684000Y-10163500D01*
X28823994Y-10163500D01*
X28824000Y-10163500D01*
X28933149Y-10151766D01*
X28933158Y-10151764D01*
X28933159Y-10151764D01*
X28949303Y-10148251D01*
X28985491Y-10140380D01*
X29089657Y-10105710D01*
X29212612Y-10026692D01*
X29265011Y-9981288D01*
X29266101Y-9980393D01*
X29266270Y-9980198D01*
X29361982Y-9869739D01*
X29422698Y-9736790D01*
X29442700Y-9668669D01*
X29463500Y-9524000D01*
X29463500Y-7702619D01*
X29472612Y-7655576D01*
X29494882Y-7600243D01*
X29544136Y-7381548D01*
X29548394Y-7362643D01*
X29548394Y-7362642D01*
X29548395Y-7362638D01*
X29563102Y-7119525D01*
X29538618Y-6877201D01*
X29475581Y-6641942D01*
X29474599Y-6639760D01*
X29474290Y-6638322D01*
X29473879Y-6637168D01*
X29474031Y-6637113D01*
X29463500Y-6588052D01*
X29463500Y-5876005D01*
X29463499Y-5875990D01*
X29457721Y-5822248D01*
X29451766Y-5766851D01*
X29440380Y-5714509D01*
X29417373Y-5645385D01*
X29405711Y-5610345D01*
X29404130Y-5607885D01*
X29326692Y-5487388D01*
X29281307Y-5435011D01*
X29280396Y-5433900D01*
X29169741Y-5338019D01*
X29169738Y-5338017D01*
X29036789Y-5277301D01*
X28968677Y-5257302D01*
X28968670Y-5257300D01*
X28939735Y-5253140D01*
X28824000Y-5236500D01*
X28823996Y-5236500D01*
X23161624Y-5236500D01*
X23093503Y-5216498D01*
X23086124Y-5211375D01*
X23046204Y-5181491D01*
X23046203Y-5181490D01*
X22905407Y-5128975D01*
X22848571Y-5086428D01*
X22823761Y-5019908D01*
X22838853Y-4950534D01*
X22860345Y-4921824D01*
X23005816Y-4776353D01*
X23005819Y-4776349D01*
X23137085Y-4588881D01*
X23137088Y-4588876D01*
X23163434Y-4532380D01*
X20836566Y-4532380D01*
X20862911Y-4588876D01*
X20862914Y-4588881D01*
X20994180Y-4776349D01*
X20994189Y-4776360D01*
X21139654Y-4921825D01*
X21173680Y-4984137D01*
X21168615Y-5054952D01*
X21126068Y-5111788D01*
X21094593Y-5128975D01*
X20953795Y-5181491D01*
X20931257Y-5198363D01*
X20913884Y-5211368D01*
X20847366Y-5236179D01*
X20838376Y-5236500D01*
X15433635Y-5236500D01*
X15365514Y-5216498D01*
X15319021Y-5162842D01*
X15309331Y-5103796D01*
X15307837Y-5103720D01*
X15308000Y-5100516D01*
X15308000Y-4200000D01*
X12692000Y-4200000D01*
X12692000Y-5100516D01*
X12692163Y-5103720D01*
X12690539Y-5103802D01*
X12678810Y-5167352D01*
X12630223Y-5219119D01*
X12566365Y-5236500D01*
X11538428Y-5236500D01*
X11523643Y-5237293D01*
X11510965Y-5237973D01*
X11470516Y-5242321D01*
X11470517Y-5242321D01*
X11416256Y-5251114D01*
X11279310Y-5302192D01*
X11217000Y-5336216D01*
X11099991Y-5423809D01*
X11099988Y-5423812D01*
X8774207Y-7749595D01*
X8711895Y-7783620D01*
X8685112Y-7786500D01*
X6125990Y-7786500D01*
X6037267Y-7796039D01*
X6016851Y-7798234D01*
X6016848Y-7798234D01*
X6016844Y-7798235D01*
X6016840Y-7798235D01*
X5964519Y-7809617D01*
X5964498Y-7809623D01*
X5860345Y-7844288D01*
X5737385Y-7923310D01*
X5685019Y-7968685D01*
X5683904Y-7969599D01*
X5588019Y-8080258D01*
X5588017Y-8080261D01*
X5527301Y-8213210D01*
X5507302Y-8281322D01*
X5507300Y-8281329D01*
X5504267Y-8302428D01*
X5486994Y-8422568D01*
X5486500Y-8426003D01*
X5486500Y-12174009D01*
X25500Y-12174009D01*
X25500Y-4000004D01*
X1969767Y-4000004D01*
X1988675Y-4276436D01*
X1988676Y-4276442D01*
X1988677Y-4276450D01*
X2009128Y-4374866D01*
X2045052Y-4547743D01*
X2045056Y-4547756D01*
X2137846Y-4808847D01*
X2265333Y-5054882D01*
X2416444Y-5268958D01*
X2425125Y-5281256D01*
X2614255Y-5483764D01*
X2614254Y-5483764D01*
X2614258Y-5483767D01*
X2829205Y-5658639D01*
X3065961Y-5802614D01*
X3320116Y-5913009D01*
X3386636Y-5931647D01*
X3586929Y-5987767D01*
X3586937Y-5987769D01*
X3861438Y-6025499D01*
X3861452Y-6025500D01*
X4138548Y-6025500D01*
X4138561Y-6025499D01*
X4379537Y-5992377D01*
X4413063Y-5987769D01*
X4679884Y-5913009D01*
X4934039Y-5802614D01*
X5170795Y-5658639D01*
X5385742Y-5483767D01*
X5574875Y-5281256D01*
X5725763Y-5067495D01*
X5734666Y-5054882D01*
X5734666Y-5054880D01*
X5734670Y-5054876D01*
X5862153Y-4808847D01*
X5954946Y-4547750D01*
X6011323Y-4276450D01*
X6016517Y-4200516D01*
X6030233Y-4000004D01*
X6030233Y-3999995D01*
X6025608Y-3932380D01*
X21595014Y-3932380D01*
X21614835Y-4057528D01*
X21672359Y-4170425D01*
X21761955Y-4260021D01*
X21874852Y-4317545D01*
X21968519Y-4332380D01*
X22031481Y-4332380D01*
X22125148Y-4317545D01*
X22238045Y-4260021D01*
X22327641Y-4170425D01*
X22385165Y-4057528D01*
X22404986Y-3932380D01*
X22385165Y-3807232D01*
X22327641Y-3694335D01*
X22238045Y-3604739D01*
X22130614Y-3550000D01*
X26642000Y-3550000D01*
X26642000Y-4200516D01*
X26652605Y-4304318D01*
X26652606Y-4304321D01*
X26708342Y-4472525D01*
X26801365Y-4623339D01*
X26801370Y-4623345D01*
X26926654Y-4748629D01*
X26926660Y-4748634D01*
X27077474Y-4841657D01*
X27245678Y-4897393D01*
X27245681Y-4897394D01*
X27349483Y-4907999D01*
X27349483Y-4908000D01*
X27650000Y-4908000D01*
X27650000Y-3550000D01*
X28450000Y-3550000D01*
X28450000Y-4908000D01*
X28750517Y-4908000D01*
X28750516Y-4907999D01*
X28854318Y-4897394D01*
X28854321Y-4897393D01*
X29022525Y-4841657D01*
X29173339Y-4748634D01*
X29173345Y-4748629D01*
X29298629Y-4623345D01*
X29298634Y-4623339D01*
X29391657Y-4472525D01*
X29447393Y-4304321D01*
X29447394Y-4304318D01*
X29457999Y-4200516D01*
X29458000Y-4200516D01*
X29458000Y-3550000D01*
X28450000Y-3550000D01*
X27650000Y-3550000D01*
X26642000Y-3550000D01*
X22130614Y-3550000D01*
X22125148Y-3547215D01*
X22031481Y-3532380D01*
X21968519Y-3532380D01*
X21874852Y-3547215D01*
X21761955Y-3604739D01*
X21672359Y-3694335D01*
X21614835Y-3807232D01*
X21595014Y-3932380D01*
X6025608Y-3932380D01*
X6011324Y-3723563D01*
X6011323Y-3723557D01*
X6011323Y-3723550D01*
X5954946Y-3452250D01*
X5936377Y-3400000D01*
X12692000Y-3400000D01*
X13600000Y-3400000D01*
X13600000Y-1792000D01*
X14400000Y-1792000D01*
X14400000Y-3400000D01*
X15308000Y-3400000D01*
X15308000Y-3332380D01*
X20836565Y-3332380D01*
X21400000Y-3332380D01*
X21400000Y-2768946D01*
X22600000Y-2768946D01*
X22600000Y-3332380D01*
X23163434Y-3332380D01*
X23137088Y-3275883D01*
X23137085Y-3275878D01*
X23005819Y-3088410D01*
X23005810Y-3088399D01*
X22843980Y-2926569D01*
X22843969Y-2926560D01*
X22656501Y-2795294D01*
X22656496Y-2795291D01*
X22600000Y-2768946D01*
X21400000Y-2768946D01*
X21343503Y-2795291D01*
X21343498Y-2795294D01*
X21156030Y-2926560D01*
X21156019Y-2926569D01*
X20994189Y-3088399D01*
X20994180Y-3088410D01*
X20862914Y-3275878D01*
X20862911Y-3275883D01*
X20836565Y-3332380D01*
X15308000Y-3332380D01*
X15308000Y-2750000D01*
X26642000Y-2750000D01*
X27650000Y-2750000D01*
X27650000Y-1392000D01*
X28450000Y-1392000D01*
X28450000Y-2750000D01*
X29458000Y-2750000D01*
X29458000Y-2099483D01*
X29447394Y-1995681D01*
X29447393Y-1995678D01*
X29391657Y-1827474D01*
X29298634Y-1676660D01*
X29298629Y-1676654D01*
X29173345Y-1551370D01*
X29173339Y-1551365D01*
X29022525Y-1458342D01*
X28854321Y-1402606D01*
X28854318Y-1402605D01*
X28750516Y-1392000D01*
X28450000Y-1392000D01*
X27650000Y-1392000D01*
X27349483Y-1392000D01*
X27245681Y-1402605D01*
X27245678Y-1402606D01*
X27077474Y-1458342D01*
X26926660Y-1551365D01*
X26926654Y-1551370D01*
X26801370Y-1676654D01*
X26801365Y-1676660D01*
X26708342Y-1827474D01*
X26652606Y-1995678D01*
X26652605Y-1995681D01*
X26642000Y-2099483D01*
X26642000Y-2750000D01*
X15308000Y-2750000D01*
X15308000Y-2499483D01*
X15297394Y-2395681D01*
X15297393Y-2395678D01*
X15241657Y-2227474D01*
X15148634Y-2076660D01*
X15148629Y-2076654D01*
X15023345Y-1951370D01*
X15023339Y-1951365D01*
X14872525Y-1858342D01*
X14704321Y-1802606D01*
X14704318Y-1802605D01*
X14600516Y-1792000D01*
X14400000Y-1792000D01*
X13600000Y-1792000D01*
X13399483Y-1792000D01*
X13295681Y-1802605D01*
X13295678Y-1802606D01*
X13127474Y-1858342D01*
X12976660Y-1951365D01*
X12976654Y-1951370D01*
X12851370Y-2076654D01*
X12851365Y-2076660D01*
X12758342Y-2227474D01*
X12702606Y-2395678D01*
X12702605Y-2395681D01*
X12692000Y-2499483D01*
X12692000Y-3400000D01*
X5936377Y-3400000D01*
X5888347Y-3264856D01*
X5862153Y-3191152D01*
X5769976Y-3013261D01*
X5734670Y-2945124D01*
X5734668Y-2945122D01*
X5734666Y-2945117D01*
X5574877Y-2718747D01*
X5574875Y-2718744D01*
X5385744Y-2516235D01*
X5385745Y-2516235D01*
X5237560Y-2395678D01*
X5170795Y-2341361D01*
X4975151Y-2222387D01*
X4934036Y-2197384D01*
X4679885Y-2086991D01*
X4679875Y-2086988D01*
X4413070Y-2012232D01*
X4413062Y-2012230D01*
X4138561Y-1974500D01*
X4138548Y-1974500D01*
X3861452Y-1974500D01*
X3861438Y-1974500D01*
X3586937Y-2012230D01*
X3586929Y-2012232D01*
X3320124Y-2086988D01*
X3320114Y-2086991D01*
X3065963Y-2197384D01*
X2829202Y-2341363D01*
X2614255Y-2516235D01*
X2425122Y-2718747D01*
X2265333Y-2945117D01*
X2137846Y-3191152D01*
X2045056Y-3452243D01*
X2045052Y-3452256D01*
X2014284Y-3600321D01*
X1988910Y-3722433D01*
X1988676Y-3723557D01*
X1988675Y-3723563D01*
X1969767Y-3999995D01*
X1969767Y-4000004D01*
X25500Y-4000004D01*
X25500Y-151500D01*
X45502Y-83379D01*
X99158Y-36886D01*
X151500Y-25500D01*
X65848500Y-25500D01*
X65916621Y-45502D01*
G37*
%TD.AperFunction*%
%TA.AperFunction,Conductor*%
G36*
X40313849Y-33321018D02*
G01*
X40354573Y-33348269D01*
X43232709Y-36226405D01*
X43266735Y-36288717D01*
X43261670Y-36359532D01*
X43219123Y-36416368D01*
X43152603Y-36441179D01*
X43143614Y-36441500D01*
X42214595Y-36441500D01*
X42146474Y-36421498D01*
X42125500Y-36404595D01*
X40189292Y-34468387D01*
X40155266Y-34406075D01*
X40153040Y-34366486D01*
X40158500Y-34313045D01*
X40158499Y-33586956D01*
X40147887Y-33483074D01*
X40145874Y-33476998D01*
X40143433Y-33406043D01*
X40179740Y-33345033D01*
X40243269Y-33313337D01*
X40313849Y-33321018D01*
G37*
%TD.AperFunction*%
%TA.AperFunction,Conductor*%
G36*
X37765715Y-29732122D02*
G01*
X37802884Y-29770693D01*
X37819000Y-29796820D01*
X37850970Y-29848652D01*
X37850975Y-29848658D01*
X37976341Y-29974024D01*
X37976347Y-29974029D01*
X37976348Y-29974030D01*
X38127262Y-30067115D01*
X38295574Y-30122887D01*
X38399455Y-30133500D01*
X38890500Y-30133499D01*
X38958621Y-30153501D01*
X39005114Y-30207156D01*
X39016500Y-30259499D01*
X39016500Y-31663938D01*
X39014751Y-31679780D01*
X39015044Y-31679808D01*
X39014298Y-31687699D01*
X39016500Y-31757749D01*
X39016500Y-31787643D01*
X39016501Y-31787664D01*
X39017378Y-31794612D01*
X39017844Y-31800524D01*
X39019326Y-31847680D01*
X39019327Y-31847685D01*
X39024977Y-31867131D01*
X39028986Y-31886489D01*
X39031525Y-31906585D01*
X39031526Y-31906591D01*
X39048893Y-31950454D01*
X39050816Y-31956071D01*
X39063982Y-32001385D01*
X39074294Y-32018823D01*
X39082988Y-32036571D01*
X39090444Y-32055401D01*
X39090450Y-32055412D01*
X39118177Y-32093575D01*
X39121437Y-32098538D01*
X39145460Y-32139157D01*
X39159779Y-32153476D01*
X39172617Y-32168506D01*
X39182156Y-32181635D01*
X39184528Y-32184899D01*
X39202648Y-32199889D01*
X39220886Y-32214977D01*
X39225267Y-32218963D01*
X39460899Y-32454595D01*
X39689231Y-32682927D01*
X39723257Y-32745239D01*
X39718192Y-32816054D01*
X39675645Y-32872890D01*
X39609125Y-32897701D01*
X39560508Y-32891628D01*
X39554431Y-32889614D01*
X39554426Y-32889613D01*
X39554424Y-32889612D01*
X39554420Y-32889612D01*
X39450553Y-32879000D01*
X39450545Y-32879000D01*
X38652094Y-32879000D01*
X38583973Y-32858998D01*
X38562999Y-32842095D01*
X37332905Y-31612000D01*
X37298879Y-31549688D01*
X37296000Y-31522905D01*
X37296000Y-29961036D01*
X37316002Y-29892915D01*
X37369658Y-29846422D01*
X37382343Y-29841440D01*
X37524601Y-29794302D01*
X37629496Y-29729601D01*
X37697976Y-29710863D01*
X37765715Y-29732122D01*
G37*
%TD.AperFunction*%
%TA.AperFunction,Conductor*%
G36*
X46742121Y-15870002D02*
G01*
X46788614Y-15923658D01*
X46800000Y-15976000D01*
X46800000Y-17508000D01*
X46863375Y-17508000D01*
X46931496Y-17528002D01*
X46977989Y-17581658D01*
X46988685Y-17620830D01*
X47006457Y-17789927D01*
X47023243Y-17841586D01*
X47065473Y-17971556D01*
X47065476Y-17971561D01*
X47160958Y-18136941D01*
X47160965Y-18136951D01*
X47288744Y-18278864D01*
X47288747Y-18278866D01*
X47443248Y-18391118D01*
X47464624Y-18400635D01*
X47518720Y-18446613D01*
X47539371Y-18514540D01*
X47533211Y-18554674D01*
X47531458Y-18560068D01*
X47531457Y-18560070D01*
X47511496Y-18750000D01*
X47531457Y-18939927D01*
X47555871Y-19015064D01*
X47590473Y-19121556D01*
X47590476Y-19121561D01*
X47685958Y-19286941D01*
X47685965Y-19286951D01*
X47813744Y-19428864D01*
X47813747Y-19428866D01*
X47968248Y-19541118D01*
X48142712Y-19618794D01*
X48329513Y-19658500D01*
X48520487Y-19658500D01*
X48707288Y-19618794D01*
X48881752Y-19541118D01*
X49036253Y-19428866D01*
X49036255Y-19428864D01*
X49164034Y-19286951D01*
X49164035Y-19286949D01*
X49164040Y-19286944D01*
X49259527Y-19121556D01*
X49318542Y-18939928D01*
X49335907Y-18774704D01*
X49362920Y-18709049D01*
X49372112Y-18698790D01*
X50075499Y-17995404D01*
X50137812Y-17961379D01*
X50164595Y-17958500D01*
X54591147Y-17958500D01*
X54606988Y-17960249D01*
X54607016Y-17959956D01*
X54614902Y-17960700D01*
X54614909Y-17960702D01*
X54684958Y-17958500D01*
X54714856Y-17958500D01*
X54721818Y-17957619D01*
X54727719Y-17957154D01*
X54774889Y-17955673D01*
X54794347Y-17950019D01*
X54813694Y-17946013D01*
X54833797Y-17943474D01*
X54877679Y-17926099D01*
X54883274Y-17924183D01*
X54911816Y-17915891D01*
X54928591Y-17911019D01*
X54928595Y-17911017D01*
X54946026Y-17900708D01*
X54963780Y-17892009D01*
X54982617Y-17884552D01*
X55020786Y-17856818D01*
X55025744Y-17853562D01*
X55066362Y-17829542D01*
X55080685Y-17815218D01*
X55095724Y-17802374D01*
X55112107Y-17790472D01*
X55142188Y-17754108D01*
X55146167Y-17749735D01*
X55350499Y-17545404D01*
X55412812Y-17511379D01*
X55439595Y-17508500D01*
X55898632Y-17508500D01*
X55898638Y-17508500D01*
X55898645Y-17508499D01*
X55898649Y-17508499D01*
X55959196Y-17501990D01*
X55959197Y-17501989D01*
X55959201Y-17501989D01*
X56096204Y-17450889D01*
X56096205Y-17450887D01*
X56104648Y-17447739D01*
X56105850Y-17450963D01*
X56158932Y-17439391D01*
X56194563Y-17449853D01*
X56195352Y-17447739D01*
X56203794Y-17450887D01*
X56203796Y-17450889D01*
X56340799Y-17501989D01*
X56340800Y-17501989D01*
X56340803Y-17501990D01*
X56401350Y-17508499D01*
X56401355Y-17508499D01*
X56401362Y-17508500D01*
X56860404Y-17508500D01*
X56928525Y-17528502D01*
X56949499Y-17545404D01*
X57117754Y-17713658D01*
X57127722Y-17726101D01*
X57127950Y-17725913D01*
X57133001Y-17732019D01*
X57184078Y-17779983D01*
X57205223Y-17801129D01*
X57205227Y-17801132D01*
X57205230Y-17801135D01*
X57210782Y-17805442D01*
X57215269Y-17809273D01*
X57236852Y-17829541D01*
X57249677Y-17841585D01*
X57249679Y-17841586D01*
X57267428Y-17851343D01*
X57283953Y-17862198D01*
X57299959Y-17874614D01*
X57340149Y-17892005D01*
X57343262Y-17893352D01*
X57348583Y-17895958D01*
X57389940Y-17918695D01*
X57389948Y-17918697D01*
X57409558Y-17923732D01*
X57428267Y-17930137D01*
X57446855Y-17938181D01*
X57493477Y-17945564D01*
X57499262Y-17946763D01*
X57544970Y-17958500D01*
X57565224Y-17958500D01*
X57584934Y-17960051D01*
X57587141Y-17960400D01*
X57604943Y-17963220D01*
X57639472Y-17959956D01*
X57651917Y-17958780D01*
X57657850Y-17958500D01*
X59091147Y-17958500D01*
X59106988Y-17960249D01*
X59107016Y-17959956D01*
X59114902Y-17960700D01*
X59114909Y-17960702D01*
X59184958Y-17958500D01*
X59214856Y-17958500D01*
X59221818Y-17957619D01*
X59227719Y-17957154D01*
X59274889Y-17955673D01*
X59288841Y-17951619D01*
X59359836Y-17951818D01*
X59419454Y-17990369D01*
X59448766Y-18055032D01*
X59449999Y-18072614D01*
X59449999Y-32574415D01*
X59429997Y-32642536D01*
X59376341Y-32689029D01*
X59306067Y-32699133D01*
X59241487Y-32669639D01*
X59223130Y-32649922D01*
X59213261Y-32636739D01*
X59096207Y-32549112D01*
X59096202Y-32549110D01*
X58959204Y-32498011D01*
X58959196Y-32498009D01*
X58898649Y-32491500D01*
X58898638Y-32491500D01*
X57901362Y-32491500D01*
X57901350Y-32491500D01*
X57840803Y-32498009D01*
X57840795Y-32498011D01*
X57695353Y-32552260D01*
X57694156Y-32549051D01*
X57640954Y-32560600D01*
X57605427Y-32550168D01*
X57604647Y-32552260D01*
X57459204Y-32498011D01*
X57459196Y-32498009D01*
X57398649Y-32491500D01*
X57398638Y-32491500D01*
X56401362Y-32491500D01*
X56401350Y-32491500D01*
X56340803Y-32498009D01*
X56340795Y-32498011D01*
X56195353Y-32552260D01*
X56194156Y-32549051D01*
X56140954Y-32560600D01*
X56105427Y-32550168D01*
X56104647Y-32552260D01*
X55959204Y-32498011D01*
X55959196Y-32498009D01*
X55898649Y-32491500D01*
X55898638Y-32491500D01*
X54901362Y-32491500D01*
X54901350Y-32491500D01*
X54840803Y-32498009D01*
X54840795Y-32498011D01*
X54695353Y-32552260D01*
X54694156Y-32549051D01*
X54640954Y-32560600D01*
X54605427Y-32550168D01*
X54604647Y-32552260D01*
X54459204Y-32498011D01*
X54459196Y-32498009D01*
X54398649Y-32491500D01*
X54398638Y-32491500D01*
X53401362Y-32491500D01*
X53401350Y-32491500D01*
X53340803Y-32498009D01*
X53340795Y-32498011D01*
X53195353Y-32552260D01*
X53194156Y-32549051D01*
X53140954Y-32560600D01*
X53105427Y-32550168D01*
X53104647Y-32552260D01*
X52959204Y-32498011D01*
X52959196Y-32498009D01*
X52898649Y-32491500D01*
X52898638Y-32491500D01*
X51901362Y-32491500D01*
X51901350Y-32491500D01*
X51840803Y-32498009D01*
X51840795Y-32498011D01*
X51695353Y-32552260D01*
X51694156Y-32549051D01*
X51640954Y-32560600D01*
X51605427Y-32550168D01*
X51604647Y-32552260D01*
X51459204Y-32498011D01*
X51459196Y-32498009D01*
X51398649Y-32491500D01*
X51398638Y-32491500D01*
X50401362Y-32491500D01*
X50401350Y-32491500D01*
X50340803Y-32498009D01*
X50340795Y-32498011D01*
X50195353Y-32552260D01*
X50194156Y-32549051D01*
X50140954Y-32560600D01*
X50105427Y-32550168D01*
X50104647Y-32552260D01*
X49959204Y-32498011D01*
X49959196Y-32498009D01*
X49898649Y-32491500D01*
X49898638Y-32491500D01*
X49389595Y-32491500D01*
X49321474Y-32471498D01*
X49300500Y-32454595D01*
X47457244Y-30611339D01*
X47447279Y-30598901D01*
X47447052Y-30599090D01*
X47442001Y-30592984D01*
X47442000Y-30592982D01*
X47390921Y-30545016D01*
X47369777Y-30523871D01*
X47369772Y-30523866D01*
X47364225Y-30519563D01*
X47359717Y-30515712D01*
X47325325Y-30483417D01*
X47325319Y-30483413D01*
X47307563Y-30473651D01*
X47291047Y-30462802D01*
X47275041Y-30450386D01*
X47244289Y-30437078D01*
X47231740Y-30431648D01*
X47226408Y-30429036D01*
X47185061Y-30406305D01*
X47165436Y-30401266D01*
X47146736Y-30394864D01*
X47128145Y-30386819D01*
X47128143Y-30386818D01*
X47128142Y-30386818D01*
X47081542Y-30379437D01*
X47075729Y-30378233D01*
X47030030Y-30366500D01*
X47009776Y-30366500D01*
X46990066Y-30364949D01*
X46970057Y-30361780D01*
X46970056Y-30361780D01*
X46923083Y-30366220D01*
X46917150Y-30366500D01*
X46718200Y-30366500D01*
X46650079Y-30346498D01*
X46624563Y-30324810D01*
X46621252Y-30321133D01*
X46466752Y-30208882D01*
X46292288Y-30131206D01*
X46105487Y-30091500D01*
X45914513Y-30091500D01*
X45727709Y-30131206D01*
X45560748Y-30205542D01*
X45490381Y-30214976D01*
X45426084Y-30184869D01*
X45388271Y-30124780D01*
X45383500Y-30090435D01*
X45383500Y-17462210D01*
X45403502Y-17394089D01*
X45457158Y-17347596D01*
X45527432Y-17337492D01*
X45585009Y-17361342D01*
X45704034Y-17450444D01*
X45840906Y-17501494D01*
X45901402Y-17507999D01*
X45901415Y-17508000D01*
X46000000Y-17508000D01*
X46000000Y-15976000D01*
X46020002Y-15907879D01*
X46073658Y-15861386D01*
X46126000Y-15850000D01*
X46674000Y-15850000D01*
X46742121Y-15870002D01*
G37*
%TD.AperFunction*%
%TA.AperFunction,Conductor*%
G36*
X49648443Y-10577259D02*
G01*
X49652262Y-10579615D01*
X49820574Y-10635387D01*
X49924455Y-10646000D01*
X51275544Y-10645999D01*
X51379426Y-10635387D01*
X51516714Y-10589895D01*
X51556347Y-10583500D01*
X52778000Y-10583500D01*
X52846121Y-10603502D01*
X52892614Y-10657158D01*
X52904000Y-10709500D01*
X52904000Y-11950544D01*
X52914612Y-12054425D01*
X52970385Y-12222738D01*
X53063473Y-12373657D01*
X53067180Y-12378345D01*
X53093740Y-12444186D01*
X53080486Y-12513935D01*
X53057441Y-12545583D01*
X53051372Y-12551652D01*
X53051365Y-12551660D01*
X52958342Y-12702474D01*
X52902606Y-12870678D01*
X52902605Y-12870681D01*
X52892000Y-12974483D01*
X52892000Y-13275000D01*
X55058000Y-13275000D01*
X55058000Y-12974483D01*
X55047394Y-12870681D01*
X55047393Y-12870678D01*
X54991657Y-12702474D01*
X54898633Y-12551659D01*
X54898630Y-12551655D01*
X54892562Y-12545587D01*
X54858536Y-12483275D01*
X54863601Y-12412460D01*
X54882823Y-12378339D01*
X54886522Y-12373659D01*
X54886530Y-12373652D01*
X54979615Y-12222738D01*
X55035387Y-12054426D01*
X55046000Y-11950545D01*
X55045999Y-10709499D01*
X55066001Y-10641379D01*
X55119657Y-10594886D01*
X55171999Y-10583500D01*
X55703000Y-10583500D01*
X55771121Y-10603502D01*
X55817614Y-10657158D01*
X55829000Y-10709500D01*
X55829000Y-11950544D01*
X55839612Y-12054422D01*
X55839612Y-12054424D01*
X55839613Y-12054426D01*
X55885105Y-12191713D01*
X55891500Y-12231345D01*
X55891500Y-12731376D01*
X55885105Y-12771007D01*
X55852112Y-12870575D01*
X55841500Y-12974446D01*
X55841500Y-14375544D01*
X55852112Y-14479425D01*
X55905499Y-14640537D01*
X55907885Y-14647738D01*
X56000970Y-14798652D01*
X56000971Y-14798653D01*
X56001403Y-14799353D01*
X56020140Y-14867832D01*
X55998881Y-14935571D01*
X55944374Y-14981063D01*
X55894162Y-14991500D01*
X55005250Y-14991500D01*
X54937129Y-14971498D01*
X54890636Y-14917842D01*
X54880532Y-14847568D01*
X54898009Y-14799353D01*
X54991657Y-14647525D01*
X55047393Y-14479321D01*
X55047394Y-14479318D01*
X55057999Y-14375516D01*
X55058000Y-14375516D01*
X55058000Y-14075000D01*
X52892000Y-14075000D01*
X52892000Y-14365500D01*
X52871998Y-14433621D01*
X52818342Y-14480114D01*
X52766000Y-14491500D01*
X52475990Y-14491500D01*
X52407869Y-14471498D01*
X52386895Y-14454595D01*
X51490800Y-13558500D01*
X50593640Y-12661339D01*
X50583675Y-12648901D01*
X50583448Y-12649090D01*
X50578397Y-12642984D01*
X50578396Y-12642982D01*
X50560518Y-12626194D01*
X50527316Y-12595015D01*
X50506173Y-12573871D01*
X50506168Y-12573866D01*
X50500621Y-12569563D01*
X50496113Y-12565712D01*
X50461721Y-12533417D01*
X50461715Y-12533413D01*
X50443959Y-12523651D01*
X50427443Y-12512802D01*
X50411437Y-12500386D01*
X50379348Y-12486500D01*
X50368136Y-12481648D01*
X50362804Y-12479036D01*
X50321457Y-12456305D01*
X50301832Y-12451266D01*
X50283132Y-12444864D01*
X50271092Y-12439654D01*
X50264541Y-12436819D01*
X50264539Y-12436818D01*
X50264538Y-12436818D01*
X50217938Y-12429437D01*
X50212125Y-12428233D01*
X50166426Y-12416500D01*
X50146172Y-12416500D01*
X50126462Y-12414949D01*
X50106453Y-12411780D01*
X50106452Y-12411780D01*
X50059479Y-12416220D01*
X50053546Y-12416500D01*
X48476611Y-12416500D01*
X48408490Y-12396498D01*
X48361997Y-12342842D01*
X48351893Y-12272568D01*
X48381387Y-12207988D01*
X48431094Y-12173008D01*
X48596218Y-12109040D01*
X48770882Y-12000892D01*
X48922701Y-11862491D01*
X49046503Y-11698550D01*
X49046504Y-11698546D01*
X49046506Y-11698545D01*
X49138070Y-11514660D01*
X49138069Y-11514660D01*
X49138074Y-11514652D01*
X49194294Y-11317059D01*
X49213249Y-11112500D01*
X49194294Y-10907941D01*
X49140530Y-10718980D01*
X49141126Y-10647988D01*
X49180010Y-10588586D01*
X49244836Y-10559636D01*
X49261720Y-10558500D01*
X49582295Y-10558500D01*
X49648443Y-10577259D01*
G37*
%TD.AperFunction*%
%TA.AperFunction,Conductor*%
G36*
X49381531Y-7457816D02*
G01*
X49426593Y-7486775D01*
X49501348Y-7561530D01*
X49652262Y-7654615D01*
X49660875Y-7657469D01*
X49719248Y-7697879D01*
X49746507Y-7763434D01*
X49741081Y-7816011D01*
X49706457Y-7922571D01*
X49686496Y-8112500D01*
X49706457Y-8302428D01*
X49730546Y-8376564D01*
X49732574Y-8447531D01*
X49695911Y-8508329D01*
X49632199Y-8539655D01*
X49610713Y-8541500D01*
X49056346Y-8541500D01*
X49016715Y-8535105D01*
X48879426Y-8489613D01*
X48879424Y-8489612D01*
X48879422Y-8489612D01*
X48775553Y-8479000D01*
X47424455Y-8479000D01*
X47320574Y-8489612D01*
X47152261Y-8545385D01*
X47001347Y-8638470D01*
X47001341Y-8638475D01*
X46957491Y-8682326D01*
X46895179Y-8716352D01*
X46824364Y-8711287D01*
X46779301Y-8682326D01*
X46748345Y-8651370D01*
X46748339Y-8651365D01*
X46597525Y-8558342D01*
X46429321Y-8502606D01*
X46429318Y-8502605D01*
X46325516Y-8492000D01*
X46025000Y-8492000D01*
X46025000Y-10658000D01*
X46325517Y-10658000D01*
X46325516Y-10657999D01*
X46429318Y-10647394D01*
X46429321Y-10647393D01*
X46597525Y-10591657D01*
X46748339Y-10498634D01*
X46804300Y-10442673D01*
X46866612Y-10408648D01*
X46937428Y-10413712D01*
X46982490Y-10442672D01*
X46997298Y-10457480D01*
X47001347Y-10461529D01*
X47001350Y-10461531D01*
X47031646Y-10480218D01*
X47079125Y-10533004D01*
X47091500Y-10587459D01*
X47091500Y-10621320D01*
X47078291Y-10677482D01*
X47061928Y-10710343D01*
X47061923Y-10710356D01*
X47005706Y-10907937D01*
X46986751Y-11112501D01*
X46999724Y-11252517D01*
X46986091Y-11322192D01*
X46963357Y-11353236D01*
X46662000Y-11654595D01*
X46599688Y-11688620D01*
X46572904Y-11691500D01*
X44734499Y-11691500D01*
X44666378Y-11671498D01*
X44619885Y-11617842D01*
X44608499Y-11565500D01*
X44608499Y-11535116D01*
X44608498Y-11535107D01*
X44604375Y-11503792D01*
X44592838Y-11416150D01*
X44585409Y-11398217D01*
X44577821Y-11327628D01*
X44585411Y-11301779D01*
X44592838Y-11283849D01*
X44597556Y-11248011D01*
X44608500Y-11164885D01*
X44608499Y-10885116D01*
X44592838Y-10766150D01*
X44592836Y-10766146D01*
X44592331Y-10762307D01*
X44603270Y-10692158D01*
X44650398Y-10639059D01*
X44718752Y-10619869D01*
X44756886Y-10626256D01*
X44820669Y-10647392D01*
X44820681Y-10647394D01*
X44924483Y-10657999D01*
X44924483Y-10658000D01*
X45225000Y-10658000D01*
X45225000Y-8492000D01*
X44924483Y-8492000D01*
X44820681Y-8502605D01*
X44820671Y-8502607D01*
X44774130Y-8518029D01*
X44703175Y-8520468D01*
X44642166Y-8484159D01*
X44610471Y-8420630D01*
X44608499Y-8398424D01*
X44608499Y-8285116D01*
X44608498Y-8285107D01*
X44592838Y-8166151D01*
X44592838Y-8166150D01*
X44585410Y-8148219D01*
X44577819Y-8077634D01*
X44585408Y-8051786D01*
X44592838Y-8033850D01*
X44608500Y-7914885D01*
X44608499Y-7802100D01*
X44628500Y-7733982D01*
X44682156Y-7687489D01*
X44752430Y-7677384D01*
X44774122Y-7682494D01*
X44820574Y-7697887D01*
X44924455Y-7708500D01*
X46325544Y-7708499D01*
X46429426Y-7697887D01*
X46597738Y-7642115D01*
X46748652Y-7549030D01*
X46792156Y-7505525D01*
X46854466Y-7471502D01*
X46925281Y-7476566D01*
X46970344Y-7505526D01*
X47001348Y-7536530D01*
X47152262Y-7629615D01*
X47320574Y-7685387D01*
X47424455Y-7696000D01*
X48775544Y-7695999D01*
X48879426Y-7685387D01*
X49047738Y-7629615D01*
X49198652Y-7536530D01*
X49248406Y-7486775D01*
X49310716Y-7452752D01*
X49381531Y-7457816D01*
G37*
%TD.AperFunction*%
%TD*%
M02*
