M48
; DRILL file {KiCad 7.0.6} date Sun Aug 20 15:56:09 2023
; FORMAT={-:-/ absolute / inch / decimal}
; #@! TF.CreationDate,2023-08-20T15:56:09-04:00
; #@! TF.GenerationSoftware,Kicad,Pcbnew,7.0.6
; #@! TF.FileFunction,Plated,1,2,PTH
FMAT,2
INCH
; #@! TA.AperFunction,Plated,PTH,ViaDrill
T1C0.0157
; #@! TA.AperFunction,Plated,PTH,ViaDrill
T2C0.0236
; #@! TA.AperFunction,Plated,PTH,ComponentDrill
T3C0.0236
; #@! TA.AperFunction,Plated,PTH,ComponentDrill
T4C0.0300
; #@! TA.AperFunction,Plated,PTH,ComponentDrill
T5C0.0335
; #@! TA.AperFunction,Plated,PTH,ComponentDrill
T6C0.0394
%
G90
G05
T1
X1.1206Y-1.8701
X1.2106Y-1.8091
X1.25Y-1.7697
X1.2815Y-2.0177
X1.3484Y-2.0201
X1.4902Y-1.5846
X1.4902Y-1.6634
X1.4902Y-1.7421
X1.4902Y-1.8209
X1.6476Y-1.5846
X1.6476Y-1.6634
X1.6476Y-1.7421
X1.6476Y-1.8209
X2.0669Y-1.9488
X2.1654Y-1.2795
X2.1654Y-1.3632
X2.1781Y-1.5256
X2.2736Y-1.9734
X2.3711Y-1.5256
X2.3829Y-2.1358
X2.4311Y-1.4616
X2.4764Y-1.9685
X2.5217Y-2.0945
X2.561Y-2.1339
X2.5827Y-1.1073
X2.5984Y-2.0571
X2.5988Y-2.0079
X2.6142Y-1.4813
X2.6732Y-1.4803
X2.6939Y-1.5256
X2.7323Y-1.374
X2.7795Y-1.1068
X2.9685Y-1.3268
X2.9724Y-1.0974
X3.2913Y-1.2008
T2
X1.2156Y-1.2126
X1.2402Y-0.937
X1.3287Y-1.811
X1.4567Y-1.3858
X1.5157Y-1.0984
X1.6614Y-1.2126
X1.8169Y-1.8701
X1.8996Y-1.2126
X1.9193Y-1.437
X2.0177Y-1.1122
X2.3524Y-1.1171
X2.6083Y-1.5846
X2.6083Y-1.939
X2.6811Y-1.2249
X2.9734Y-0.8829
X3.0906Y-1.5207
X3.0906Y-2.0276
T4
X1.0925Y-1.2106
X1.0925Y-1.3602
T5
X0.9513Y-1.6969
X0.9513Y-1.8937
T6
X1.1791Y-2.3514
X1.2791Y-2.3514
X1.3791Y-2.3514
X1.4791Y-2.3514
X1.8159Y-2.3514
X1.9159Y-2.3514
X2.0159Y-2.3514
X2.0669Y-0.8583
X2.1159Y-2.3514
X2.1669Y-0.8583
X2.2159Y-2.3514
X2.2669Y-0.8583
X2.3159Y-2.3514
X2.3669Y-0.8583
X2.4669Y-0.8583
X2.5669Y-0.8583
X2.6669Y-0.8583
X2.7669Y-0.8583
T3
G00X0.8312Y-1.6575
M15
G01X0.8588Y-1.6575
M16
G05
G00X0.8588Y-1.9331
M15
G01X0.8312Y-1.9331
M16
G05
T0
M30
