M48
; DRILL file {KiCad 7.0.6} date Sat Jan 13 18:11:13 2024
; FORMAT={-:-/ absolute / inch / decimal}
; #@! TF.CreationDate,2024-01-13T18:11:13-05:00
; #@! TF.GenerationSoftware,Kicad,Pcbnew,7.0.6
; #@! TF.FileFunction,Plated,1,2,PTH
FMAT,2
INCH
; #@! TA.AperFunction,Plated,PTH,ViaDrill
T1C0.0157
; #@! TA.AperFunction,Plated,PTH,ViaDrill
T2C0.0236
; #@! TA.AperFunction,Plated,PTH,ComponentDrill
T3C0.0236
; #@! TA.AperFunction,Plated,PTH,ComponentDrill
T4C0.0315
; #@! TA.AperFunction,Plated,PTH,ComponentDrill
T5C0.0335
; #@! TA.AperFunction,Plated,PTH,ComponentDrill
T6C0.0394
; #@! TA.AperFunction,Plated,PTH,ComponentDrill
T7C0.0551
; #@! TA.AperFunction,Plated,PTH,ComponentDrill
T8C0.1693
%
G90
G05
T1
X0.2303Y-1.0138
X0.2756Y-1.0138
X0.4331Y-1.1909
X0.4921Y-1.0433
X0.5217Y-1.2402
X0.5512Y-0.748
X0.5512Y-1.4272
X0.6299Y-1.2106
X0.6693Y-0.5906
X0.6693Y-1.3386
X0.6791Y-1.2106
X0.7185Y-0.4134
X0.7185Y-0.4626
X0.7677Y-0.9547
X0.8169Y-1.3287
X0.8268Y-1.1516
X0.8858Y-0.3346
X0.8858Y-0.6102
X1.0531Y-1.3287
X1.0906Y-0.6614
X1.187Y-0.2953
X1.187Y-0.374
X1.187Y-0.4528
X1.187Y-0.5315
X1.2795Y-1.1614
X1.3445Y-0.2953
X1.3445Y-0.374
X1.3445Y-0.4528
X1.3445Y-0.5315
X1.3907Y-0.7382
X1.4567Y-0.1772
X1.4862Y-1.186
X1.5256Y-0.4921
X1.5551Y-0.5217
X1.5837Y-0.7382
X1.5846Y-0.5512
X1.5955Y-1.3484
X1.6142Y-0.2756
X1.6142Y-0.5807
X1.6339Y-1.5059
X1.6437Y-0.6742
X1.689Y-1.1811
X1.7126Y-0.6929
X1.7343Y-1.3071
X1.7421Y-0.4921
X1.7421Y-0.5512
X1.7618Y-0.2854
X1.7618Y-0.3839
X1.7717Y-0.5217
X1.7717Y-0.5807
X1.7717Y-0.6398
X1.7736Y-1.3465
X1.811Y-0.1575
X1.811Y-1.2697
X1.8114Y-1.2205
X1.8858Y-0.6929
X1.9065Y-0.7382
X1.9705Y-1.0217
X1.998Y-0.2362
X1.998Y-0.4331
X2.0551Y-0.937
X2.0551Y-1.1063
X2.1398Y-1.0197
X2.1811Y-0.5394
X2.185Y-0.31
X2.185Y-0.4429
X2.4331Y-0.4134
T2
X1.0177Y-0.0709
X1.0177Y-0.2461
X1.4173Y-0.3346
X1.5551Y-0.3346
X1.8209Y-0.7972
X1.8209Y-1.1516
X1.998Y-0.3346
X2.126Y-0.374
X2.186Y-0.1594
X2.3031Y-0.7333
X2.3031Y-1.2402
T4
X0.6102Y-0.1056
X0.6102Y-0.204
T5
X0.1639Y-0.9094
X0.1639Y-1.1063
T6
X0.3917Y-1.564
X0.4917Y-1.564
X0.5917Y-1.564
X0.6917Y-1.564
X1.0285Y-1.564
X1.1285Y-1.564
X1.2285Y-1.564
X1.2844Y-0.0581
X1.3285Y-1.564
X1.3844Y-0.0581
X1.4285Y-1.564
X1.4844Y-0.0581
X1.5285Y-1.564
X1.5844Y-0.0581
X1.6844Y-0.0581
X1.7844Y-0.0581
X1.8844Y-0.0581
X1.9844Y-0.0581
T7
X0.4046Y-0.4774
X0.4046Y-0.6742
T8
X0.1575Y-0.1575
X0.1575Y-1.5354
X2.4409Y-0.1575
X2.4409Y-1.5354
T3
G00X0.0438Y-0.8701
M15
G01X0.0714Y-0.8701
M16
G05
G00X0.0714Y-1.1457
M15
G01X0.0438Y-1.1457
M16
G05
T0
M30
