M48
; DRILL file {KiCad 7.0.6} date Sun Dec 17 21:01:02 2023
; FORMAT={-:-/ absolute / inch / decimal}
; #@! TF.CreationDate,2023-12-17T21:01:02-05:00
; #@! TF.GenerationSoftware,Kicad,Pcbnew,7.0.6
; #@! TF.FileFunction,Plated,1,2,PTH
FMAT,2
INCH
; #@! TA.AperFunction,Plated,PTH,ViaDrill
T1C0.0157
; #@! TA.AperFunction,Plated,PTH,ViaDrill
T2C0.0236
; #@! TA.AperFunction,Plated,PTH,ComponentDrill
T3C0.0236
; #@! TA.AperFunction,Plated,PTH,ComponentDrill
T4C0.0315
; #@! TA.AperFunction,Plated,PTH,ComponentDrill
T5C0.0335
; #@! TA.AperFunction,Plated,PTH,ComponentDrill
T6C0.0394
; #@! TA.AperFunction,Plated,PTH,ComponentDrill
T7C0.0591
%
G90
G05
T1
X0.315Y-0.7874
X0.3346Y-1.0827
X0.3937Y-1.4567
X0.4429Y-1.0079
X0.4429Y-1.0531
X0.5118Y-0.7874
X0.5512Y-1.4272
X0.6299Y-1.2106
X0.6594Y-0.4331
X0.6791Y-1.2106
X0.7028Y-0.7677
X0.7028Y-0.8465
X0.7028Y-0.9252
X0.7028Y-1.0039
X0.8602Y-0.7677
X0.8602Y-0.8465
X0.8602Y-0.9252
X0.8602Y-1.0039
X1.2795Y-1.1614
X1.3907Y-0.7382
X1.4862Y-1.186
X1.5837Y-0.7382
X1.5955Y-1.3484
X1.6437Y-0.6742
X1.689Y-1.1811
X1.7343Y-1.3071
X1.7736Y-1.3465
X1.7953Y-0.3199
X1.811Y-1.2697
X1.8114Y-1.2205
X1.8268Y-0.6939
X1.8858Y-0.6929
X1.9065Y-0.7382
X1.9449Y-0.5866
X1.9705Y-1.0217
X1.9921Y-0.3194
X2.0551Y-0.937
X2.0551Y-1.1063
X2.1398Y-1.0197
X2.1811Y-0.5394
X2.185Y-0.31
X2.4331Y-0.4134
T2
X0.3346Y-1.1417
X0.4075Y-0.1496
X0.6102Y-1.1417
X0.6693Y-0.5984
X0.874Y-0.4252
X0.876Y-1.1516
X1.0295Y-1.0531
X1.1122Y-0.4252
X1.2303Y-0.3248
X1.2303Y-0.689
X1.5551Y-0.2805
X1.8209Y-0.7972
X1.8209Y-1.1516
X1.8937Y-0.4375
X2.186Y-0.1594
X2.3031Y-0.7333
X2.3031Y-1.2402
T4
X0.8661Y-0.1548
X0.8661Y-0.2532
T5
X0.1639Y-0.9094
X0.1639Y-1.1063
T6
X0.3917Y-1.564
X0.4917Y-1.564
X0.5917Y-1.564
X0.6917Y-1.564
X1.0285Y-1.564
X1.1285Y-1.564
X1.2285Y-1.564
X1.2815Y-0.0709
X1.3285Y-1.564
X1.3815Y-0.0709
X1.4285Y-1.564
X1.4815Y-0.0709
X1.5285Y-1.564
X1.5815Y-0.0709
X1.6815Y-0.0709
X1.7815Y-0.0709
T7
X0.3047Y-0.4244
X0.3047Y-0.574
T3
G00X0.0438Y-0.8701
M15
G01X0.0714Y-0.8701
M16
G05
G00X0.0714Y-1.1457
M15
G01X0.0438Y-1.1457
M16
G05
T0
M30
