%TF.GenerationSoftware,KiCad,Pcbnew,7.0.6*%
%TF.CreationDate,2023-08-20T15:56:06-04:00*%
%TF.ProjectId,Crystal,43727973-7461-46c2-9e6b-696361645f70,rev?*%
%TF.SameCoordinates,Original*%
%TF.FileFunction,Copper,L2,Bot*%
%TF.FilePolarity,Positive*%
%FSLAX46Y46*%
G04 Gerber Fmt 4.6, Leading zero omitted, Abs format (unit mm)*
G04 Created by KiCad (PCBNEW 7.0.6) date 2023-08-20 15:56:06*
%MOMM*%
%LPD*%
G01*
G04 APERTURE LIST*
%TA.AperFunction,ComponentPad*%
%ADD10R,1.700000X1.700000*%
%TD*%
%TA.AperFunction,ComponentPad*%
%ADD11O,1.700000X1.700000*%
%TD*%
%TA.AperFunction,ComponentPad*%
%ADD12C,1.524000*%
%TD*%
%TA.AperFunction,ComponentPad*%
%ADD13O,1.900000X1.200000*%
%TD*%
%TA.AperFunction,ComponentPad*%
%ADD14C,1.450000*%
%TD*%
%TA.AperFunction,ViaPad*%
%ADD15C,0.800000*%
%TD*%
%TA.AperFunction,ViaPad*%
%ADD16C,1.200000*%
%TD*%
%TA.AperFunction,Conductor*%
%ADD17C,1.000000*%
%TD*%
%TA.AperFunction,Conductor*%
%ADD18C,0.250000*%
%TD*%
%TA.AperFunction,Conductor*%
%ADD19C,2.000000*%
%TD*%
G04 APERTURE END LIST*
D10*
%TO.P,TTY1,1,Pin_1*%
%TO.N,+5V*%
X29950000Y-59725000D03*
D11*
%TO.P,TTY1,2,Pin_2*%
%TO.N,Net-(TTY1-Pin_2)*%
X32490000Y-59725000D03*
%TO.P,TTY1,3,Pin_3*%
%TO.N,Net-(TTY1-Pin_3)*%
X35030000Y-59725000D03*
%TO.P,TTY1,4,Pin_4*%
%TO.N,GND*%
X37570000Y-59725000D03*
%TD*%
D10*
%TO.P,AIN1,1,Pin_1*%
%TO.N,Net-(AIN1-Pin_1)*%
X58825000Y-59725000D03*
D11*
%TO.P,AIN1,2,Pin_2*%
%TO.N,Net-(AIN1-Pin_2)*%
X56285000Y-59725000D03*
%TO.P,AIN1,3,Pin_3*%
%TO.N,Net-(AIN1-Pin_3)*%
X53745000Y-59725000D03*
%TO.P,AIN1,4,Pin_4*%
%TO.N,Net-(AIN1-Pin_4)*%
X51205000Y-59725000D03*
%TO.P,AIN1,5,Pin_5*%
%TO.N,Net-(AIN1-Pin_5)*%
X48665000Y-59725000D03*
%TO.P,AIN1,6,Pin_6*%
%TO.N,GND*%
X46125000Y-59725000D03*
%TD*%
D12*
%TO.P,V1,1,Pin_1*%
%TO.N,+12V*%
X27750000Y-30750000D03*
%TO.P,V1,2,Pin_2*%
%TO.N,GND*%
X27750000Y-34550000D03*
%TD*%
D13*
%TO.P,J1,6,Shield*%
%TO.N,GND*%
X21462500Y-42100000D03*
D14*
X24162500Y-43100000D03*
X24162500Y-48100000D03*
D13*
X21462500Y-49100000D03*
%TD*%
D10*
%TO.P,GPIO1,1,Pin_1*%
%TO.N,Net-(GPIO1-Pin_1)*%
X52500000Y-21800000D03*
D11*
%TO.P,GPIO1,2,Pin_2*%
%TO.N,Net-(GPIO1-Pin_2)*%
X55040000Y-21800000D03*
%TO.P,GPIO1,3,Pin_3*%
%TO.N,Net-(GPIO1-Pin_3)*%
X57580000Y-21800000D03*
%TO.P,GPIO1,4,Pin_4*%
%TO.N,Net-(GPIO1-Pin_4)*%
X60120000Y-21800000D03*
%TO.P,GPIO1,5,Pin_5*%
%TO.N,Net-(GPIO1-Pin_5)*%
X62660000Y-21800000D03*
%TO.P,GPIO1,6,Pin_6*%
%TO.N,Net-(GPIO1-Pin_6)*%
X65200000Y-21800000D03*
%TO.P,GPIO1,7,Pin_7*%
%TO.N,Net-(GPIO1-Pin_7)*%
X67740000Y-21800000D03*
%TO.P,GPIO1,8,Pin_8*%
%TO.N,Net-(GPIO1-Pin_8)*%
X70280000Y-21800000D03*
%TD*%
D15*
%TO.N,GND*%
X55000000Y-34625000D03*
X55000000Y-32500000D03*
D16*
%TO.N,+5V*%
X33750000Y-46000000D03*
X37000000Y-35200000D03*
%TO.N,GND*%
X78500000Y-38625000D03*
D15*
X62900000Y-50000000D03*
D16*
X46150000Y-47500000D03*
D15*
X55325000Y-38750000D03*
X52500000Y-49500000D03*
X28462500Y-47500000D03*
D16*
X75525000Y-22425000D03*
X30875000Y-30800000D03*
D15*
X61750000Y-37125000D03*
D16*
X66250000Y-40250000D03*
X31500000Y-23800000D03*
D15*
X65600000Y-28125000D03*
X66400000Y-37625000D03*
X57750000Y-50125000D03*
D16*
X42200000Y-30800000D03*
D15*
X75400000Y-33700000D03*
X60525000Y-54250000D03*
X83600000Y-30500000D03*
D16*
X78500000Y-51500000D03*
X51250000Y-28250000D03*
X48250000Y-30800000D03*
X66250000Y-49250000D03*
X59750000Y-28375000D03*
D15*
%TO.N,/GPIO9*%
X67900000Y-37600000D03*
X75500000Y-27875000D03*
D16*
%TO.N,+12V*%
X38500000Y-27900000D03*
D15*
%TO.N,/AIN5*%
X60225000Y-38750000D03*
X68425000Y-38750000D03*
%TO.N,/GPIO19*%
X64050000Y-53200000D03*
X31750000Y-44950000D03*
%TO.N,/GPIO18*%
X65050000Y-54200000D03*
X30750000Y-45950000D03*
%TO.N,/GPIO8*%
X70600000Y-28112500D03*
X69400000Y-34900000D03*
%TO.N,/TXD*%
X32550000Y-51250000D03*
X66010000Y-51000000D03*
%TO.N,/RXD*%
X34250000Y-51310000D03*
X66000000Y-52250000D03*
D16*
%TO.N,+3.3V*%
X48750000Y-36500000D03*
D15*
X37850000Y-44250000D03*
X41850000Y-40250000D03*
X37850000Y-46250000D03*
X41850000Y-46250000D03*
X37850000Y-42250000D03*
D16*
X68100000Y-31112500D03*
D15*
X41850000Y-44250000D03*
X37850000Y-40250000D03*
X41850000Y-42250000D03*
%TD*%
D17*
%TO.N,+3.3V*%
X48750000Y-34450000D02*
X52100000Y-31100000D01*
X52100000Y-31100000D02*
X57625000Y-31100000D01*
X57625000Y-31100000D02*
X57637500Y-31112500D01*
X48750000Y-36500000D02*
X48750000Y-34450000D01*
%TO.N,+5V*%
X35550000Y-35200000D02*
X37000000Y-35200000D01*
X33750000Y-37000000D02*
X35550000Y-35200000D01*
X33750000Y-46000000D02*
X33750000Y-37000000D01*
D18*
%TO.N,/GPIO9*%
X73875000Y-27875000D02*
X75500000Y-27875000D01*
X70125000Y-31625000D02*
X73875000Y-27875000D01*
X67900000Y-37600000D02*
X70125000Y-35375000D01*
X70125000Y-35375000D02*
X70125000Y-31625000D01*
D19*
%TO.N,+12V*%
X38500000Y-27900000D02*
X30600000Y-27900000D01*
X30600000Y-27900000D02*
X27750000Y-30750000D01*
D18*
%TO.N,/AIN5*%
X60225000Y-38750000D02*
X68425000Y-38750000D01*
%TO.N,/GPIO19*%
X31750000Y-51475305D02*
X31750000Y-44950000D01*
X34690000Y-52210000D02*
X32484695Y-52210000D01*
X32484695Y-52210000D02*
X31750000Y-51475305D01*
X62750000Y-51900000D02*
X35000000Y-51900000D01*
X64050000Y-53200000D02*
X62750000Y-51900000D01*
X35000000Y-51900000D02*
X34690000Y-52210000D01*
%TO.N,/GPIO18*%
X31300000Y-51661701D02*
X31300000Y-46500000D01*
X34876396Y-52660000D02*
X32298299Y-52660000D01*
X31300000Y-46500000D02*
X30750000Y-45950000D01*
X62174695Y-52350000D02*
X35186396Y-52350000D01*
X64024695Y-54200000D02*
X62174695Y-52350000D01*
X35186396Y-52350000D02*
X34876396Y-52660000D01*
X32298299Y-52660000D02*
X31300000Y-51661701D01*
X65050000Y-54200000D02*
X64024695Y-54200000D01*
%TO.N,/GPIO8*%
X69400000Y-34900000D02*
X69400000Y-29312500D01*
X69400000Y-29312500D02*
X70600000Y-28112500D01*
%TO.N,/TXD*%
X66010000Y-51000000D02*
X35000000Y-51000000D01*
X34585000Y-50585000D02*
X33215000Y-50585000D01*
X33215000Y-50585000D02*
X32550000Y-51250000D01*
X35000000Y-51000000D02*
X34585000Y-50585000D01*
%TO.N,/RXD*%
X34250000Y-51310000D02*
X34390000Y-51450000D01*
X34390000Y-51450000D02*
X65200000Y-51450000D01*
X65200000Y-51450000D02*
X66000000Y-52250000D01*
D17*
%TO.N,+3.3V*%
X68100000Y-31112500D02*
X57637500Y-31112500D01*
%TD*%
%TA.AperFunction,Conductor*%
%TO.N,+3.3V*%
G36*
X44992121Y-38270002D02*
G01*
X45038614Y-38323658D01*
X45050000Y-38376000D01*
X45050000Y-42100000D01*
X47274000Y-42100000D01*
X47342121Y-42120002D01*
X47388614Y-42173658D01*
X47400000Y-42226000D01*
X47400000Y-44274000D01*
X47379998Y-44342121D01*
X47326342Y-44388614D01*
X47274000Y-44400000D01*
X45050000Y-44400000D01*
X45050000Y-47354099D01*
X45049731Y-47359915D01*
X45036751Y-47499999D01*
X45049731Y-47640083D01*
X45050000Y-47645899D01*
X45050000Y-48124000D01*
X45029998Y-48192121D01*
X44976342Y-48238614D01*
X44924000Y-48250000D01*
X35176000Y-48250000D01*
X35107879Y-48229998D01*
X35061386Y-48176342D01*
X35050000Y-48124000D01*
X35050000Y-38376000D01*
X35070002Y-38307879D01*
X35123658Y-38261386D01*
X35176000Y-38250000D01*
X44924000Y-38250000D01*
X44992121Y-38270002D01*
G37*
%TD.AperFunction*%
%TD*%
%TA.AperFunction,Conductor*%
%TO.N,GND*%
G36*
X85916621Y-20045502D02*
G01*
X85963114Y-20099158D01*
X85974500Y-20151500D01*
X85974500Y-35074000D01*
X85954498Y-35142121D01*
X85900842Y-35188614D01*
X85848500Y-35200000D01*
X79450000Y-35200000D01*
X79450000Y-54800000D01*
X85848500Y-54800000D01*
X85916621Y-54820002D01*
X85963114Y-54873658D01*
X85974500Y-54926000D01*
X85974500Y-62848500D01*
X85954498Y-62916621D01*
X85900842Y-62963114D01*
X85848500Y-62974500D01*
X20151500Y-62974500D01*
X20083379Y-62954498D01*
X20036886Y-62900842D01*
X20025500Y-62848500D01*
X20025500Y-59000004D01*
X21969767Y-59000004D01*
X21988675Y-59276436D01*
X21988676Y-59276442D01*
X21988677Y-59276450D01*
X21989943Y-59282541D01*
X22045052Y-59547743D01*
X22045056Y-59547756D01*
X22137846Y-59808847D01*
X22265333Y-60054882D01*
X22425122Y-60281252D01*
X22425125Y-60281256D01*
X22614255Y-60483764D01*
X22614254Y-60483764D01*
X22614258Y-60483767D01*
X22829205Y-60658639D01*
X23055197Y-60796068D01*
X23065963Y-60802615D01*
X23108766Y-60821207D01*
X23320116Y-60913009D01*
X23453526Y-60950389D01*
X23586929Y-60987767D01*
X23586937Y-60987769D01*
X23861438Y-61025499D01*
X23861452Y-61025500D01*
X24138548Y-61025500D01*
X24138561Y-61025499D01*
X24372240Y-60993379D01*
X24413063Y-60987769D01*
X24679884Y-60913009D01*
X24934039Y-60802614D01*
X25170795Y-60658639D01*
X25213804Y-60623649D01*
X28591500Y-60623649D01*
X28598009Y-60684196D01*
X28598011Y-60684204D01*
X28649110Y-60821202D01*
X28649112Y-60821207D01*
X28736738Y-60938261D01*
X28853792Y-61025887D01*
X28853794Y-61025888D01*
X28853796Y-61025889D01*
X28908900Y-61046442D01*
X28990795Y-61076988D01*
X28990803Y-61076990D01*
X29051350Y-61083499D01*
X29051355Y-61083499D01*
X29051362Y-61083500D01*
X29051368Y-61083500D01*
X30848632Y-61083500D01*
X30848638Y-61083500D01*
X30848645Y-61083499D01*
X30848649Y-61083499D01*
X30909196Y-61076990D01*
X30909199Y-61076989D01*
X30909201Y-61076989D01*
X31046204Y-61025889D01*
X31049432Y-61023473D01*
X31163261Y-60938261D01*
X31250886Y-60821208D01*
X31250885Y-60821208D01*
X31250889Y-60821204D01*
X31294999Y-60702939D01*
X31337545Y-60646107D01*
X31404066Y-60621296D01*
X31473440Y-60636388D01*
X31505753Y-60661635D01*
X31526529Y-60684204D01*
X31566762Y-60727908D01*
X31621331Y-60770381D01*
X31744424Y-60866189D01*
X31942426Y-60973342D01*
X31942427Y-60973342D01*
X31942428Y-60973343D01*
X31984450Y-60987769D01*
X32155365Y-61046444D01*
X32377431Y-61083500D01*
X32377435Y-61083500D01*
X32602565Y-61083500D01*
X32602569Y-61083500D01*
X32824635Y-61046444D01*
X33037574Y-60973342D01*
X33235576Y-60866189D01*
X33413240Y-60727906D01*
X33565722Y-60562268D01*
X33565927Y-60561955D01*
X33617011Y-60483764D01*
X33654518Y-60426354D01*
X33708520Y-60380268D01*
X33778868Y-60370692D01*
X33843225Y-60400669D01*
X33865480Y-60426353D01*
X33898607Y-60477058D01*
X33954275Y-60562265D01*
X33954279Y-60562270D01*
X34106762Y-60727908D01*
X34161331Y-60770381D01*
X34284424Y-60866189D01*
X34482426Y-60973342D01*
X34482427Y-60973342D01*
X34482428Y-60973343D01*
X34524450Y-60987769D01*
X34695365Y-61046444D01*
X34917431Y-61083500D01*
X34917435Y-61083500D01*
X35142565Y-61083500D01*
X35142569Y-61083500D01*
X35364635Y-61046444D01*
X35577574Y-60973342D01*
X35775576Y-60866189D01*
X35953240Y-60727906D01*
X36105722Y-60562268D01*
X36105927Y-60561955D01*
X36194517Y-60426357D01*
X36194816Y-60425898D01*
X36248819Y-60379810D01*
X36319167Y-60370235D01*
X36383524Y-60400212D01*
X36405782Y-60425898D01*
X36494674Y-60561958D01*
X36647097Y-60727534D01*
X36824698Y-60865767D01*
X36824699Y-60865768D01*
X37022628Y-60972882D01*
X37022634Y-60972884D01*
X37169999Y-61023474D01*
X37170000Y-61023473D01*
X37170000Y-60027417D01*
X37188239Y-60055798D01*
X37296900Y-60149952D01*
X37427685Y-60209680D01*
X37534237Y-60225000D01*
X37605763Y-60225000D01*
X37712315Y-60209680D01*
X37843100Y-60149952D01*
X37871897Y-60125000D01*
X37970000Y-60125000D01*
X37970000Y-61023474D01*
X38117365Y-60972884D01*
X38117371Y-60972882D01*
X38315300Y-60865768D01*
X38315301Y-60865767D01*
X38492902Y-60727534D01*
X38645325Y-60561958D01*
X38768419Y-60373548D01*
X38858819Y-60167458D01*
X38869571Y-60125000D01*
X44825429Y-60125000D01*
X44836180Y-60167458D01*
X44926580Y-60373548D01*
X45049674Y-60561958D01*
X45202097Y-60727534D01*
X45379698Y-60865767D01*
X45379699Y-60865768D01*
X45577628Y-60972882D01*
X45577634Y-60972884D01*
X45724999Y-61023474D01*
X45725000Y-61023473D01*
X45725000Y-60125000D01*
X44825429Y-60125000D01*
X38869571Y-60125000D01*
X37970000Y-60125000D01*
X37871897Y-60125000D01*
X37951761Y-60055798D01*
X38029493Y-59934844D01*
X38070000Y-59796889D01*
X45625000Y-59796889D01*
X45665507Y-59934844D01*
X45743239Y-60055798D01*
X45851900Y-60149952D01*
X45982685Y-60209680D01*
X46089237Y-60225000D01*
X46160763Y-60225000D01*
X46267315Y-60209680D01*
X46398100Y-60149952D01*
X46506761Y-60055798D01*
X46525000Y-60027417D01*
X46525000Y-61023474D01*
X46672365Y-60972884D01*
X46672371Y-60972882D01*
X46870300Y-60865768D01*
X46870301Y-60865767D01*
X47047902Y-60727534D01*
X47200327Y-60561955D01*
X47289217Y-60425899D01*
X47343220Y-60379810D01*
X47413568Y-60370235D01*
X47477925Y-60400212D01*
X47500183Y-60425898D01*
X47589279Y-60562270D01*
X47741762Y-60727908D01*
X47796331Y-60770381D01*
X47919424Y-60866189D01*
X48117426Y-60973342D01*
X48117427Y-60973342D01*
X48117428Y-60973343D01*
X48159450Y-60987769D01*
X48330365Y-61046444D01*
X48552431Y-61083500D01*
X48552435Y-61083500D01*
X48777565Y-61083500D01*
X48777569Y-61083500D01*
X48999635Y-61046444D01*
X49212574Y-60973342D01*
X49410576Y-60866189D01*
X49588240Y-60727906D01*
X49740722Y-60562268D01*
X49740927Y-60561955D01*
X49792011Y-60483764D01*
X49829518Y-60426354D01*
X49883520Y-60380268D01*
X49953868Y-60370692D01*
X50018225Y-60400669D01*
X50040480Y-60426353D01*
X50073607Y-60477058D01*
X50129275Y-60562265D01*
X50129279Y-60562270D01*
X50281762Y-60727908D01*
X50336331Y-60770381D01*
X50459424Y-60866189D01*
X50657426Y-60973342D01*
X50657427Y-60973342D01*
X50657428Y-60973343D01*
X50699450Y-60987769D01*
X50870365Y-61046444D01*
X51092431Y-61083500D01*
X51092435Y-61083500D01*
X51317565Y-61083500D01*
X51317569Y-61083500D01*
X51539635Y-61046444D01*
X51752574Y-60973342D01*
X51950576Y-60866189D01*
X52128240Y-60727906D01*
X52280722Y-60562268D01*
X52369519Y-60426353D01*
X52423518Y-60380268D01*
X52493866Y-60370692D01*
X52558224Y-60400668D01*
X52580482Y-60426356D01*
X52669275Y-60562265D01*
X52669279Y-60562270D01*
X52821762Y-60727908D01*
X52876331Y-60770381D01*
X52999424Y-60866189D01*
X53197426Y-60973342D01*
X53197427Y-60973342D01*
X53197428Y-60973343D01*
X53239450Y-60987769D01*
X53410365Y-61046444D01*
X53632431Y-61083500D01*
X53632435Y-61083500D01*
X53857565Y-61083500D01*
X53857569Y-61083500D01*
X54079635Y-61046444D01*
X54292574Y-60973342D01*
X54490576Y-60866189D01*
X54668240Y-60727906D01*
X54820722Y-60562268D01*
X54820927Y-60561955D01*
X54872011Y-60483764D01*
X54909518Y-60426354D01*
X54963520Y-60380268D01*
X55033868Y-60370692D01*
X55098225Y-60400669D01*
X55120480Y-60426353D01*
X55153607Y-60477058D01*
X55209275Y-60562265D01*
X55209279Y-60562270D01*
X55361762Y-60727908D01*
X55416331Y-60770381D01*
X55539424Y-60866189D01*
X55737426Y-60973342D01*
X55737427Y-60973342D01*
X55737428Y-60973343D01*
X55779450Y-60987769D01*
X55950365Y-61046444D01*
X56172431Y-61083500D01*
X56172435Y-61083500D01*
X56397565Y-61083500D01*
X56397569Y-61083500D01*
X56619635Y-61046444D01*
X56832574Y-60973342D01*
X57030576Y-60866189D01*
X57208240Y-60727906D01*
X57269245Y-60661637D01*
X57330096Y-60625067D01*
X57401061Y-60627200D01*
X57459606Y-60667362D01*
X57480000Y-60702941D01*
X57524111Y-60821204D01*
X57524112Y-60821207D01*
X57611738Y-60938261D01*
X57728792Y-61025887D01*
X57728794Y-61025888D01*
X57728796Y-61025889D01*
X57783900Y-61046442D01*
X57865795Y-61076988D01*
X57865803Y-61076990D01*
X57926350Y-61083499D01*
X57926355Y-61083499D01*
X57926362Y-61083500D01*
X57926368Y-61083500D01*
X59723632Y-61083500D01*
X59723638Y-61083500D01*
X59723645Y-61083499D01*
X59723649Y-61083499D01*
X59784196Y-61076990D01*
X59784199Y-61076989D01*
X59784201Y-61076989D01*
X59921204Y-61025889D01*
X59924432Y-61023473D01*
X60038261Y-60938261D01*
X60125887Y-60821207D01*
X60125887Y-60821206D01*
X60125889Y-60821204D01*
X60176989Y-60684201D01*
X60178800Y-60667362D01*
X60183499Y-60623649D01*
X60183500Y-60623632D01*
X60183500Y-59000004D01*
X79969767Y-59000004D01*
X79988675Y-59276436D01*
X79988676Y-59276442D01*
X79988677Y-59276450D01*
X79989943Y-59282541D01*
X80045052Y-59547743D01*
X80045056Y-59547756D01*
X80137846Y-59808847D01*
X80265333Y-60054882D01*
X80425122Y-60281252D01*
X80425125Y-60281256D01*
X80614255Y-60483764D01*
X80614254Y-60483764D01*
X80614258Y-60483767D01*
X80829205Y-60658639D01*
X81055197Y-60796068D01*
X81065963Y-60802615D01*
X81108766Y-60821207D01*
X81320116Y-60913009D01*
X81453526Y-60950389D01*
X81586929Y-60987767D01*
X81586937Y-60987769D01*
X81861438Y-61025499D01*
X81861452Y-61025500D01*
X82138548Y-61025500D01*
X82138561Y-61025499D01*
X82372240Y-60993379D01*
X82413063Y-60987769D01*
X82679884Y-60913009D01*
X82934039Y-60802614D01*
X83170795Y-60658639D01*
X83385742Y-60483767D01*
X83574875Y-60281256D01*
X83734670Y-60054876D01*
X83862153Y-59808847D01*
X83954946Y-59547750D01*
X84011323Y-59276450D01*
X84025463Y-59069731D01*
X84030233Y-59000004D01*
X84030233Y-58999995D01*
X84011324Y-58723563D01*
X84011323Y-58723557D01*
X84011323Y-58723550D01*
X83954946Y-58452250D01*
X83862153Y-58191153D01*
X83862153Y-58191152D01*
X83734666Y-57945117D01*
X83574877Y-57718747D01*
X83574875Y-57718744D01*
X83385744Y-57516235D01*
X83385745Y-57516235D01*
X83170797Y-57341363D01*
X83170795Y-57341361D01*
X82977382Y-57223744D01*
X82934036Y-57197384D01*
X82679885Y-57086991D01*
X82679875Y-57086988D01*
X82413070Y-57012232D01*
X82413062Y-57012230D01*
X82138561Y-56974500D01*
X82138548Y-56974500D01*
X81861452Y-56974500D01*
X81861438Y-56974500D01*
X81586937Y-57012230D01*
X81586929Y-57012232D01*
X81320124Y-57086988D01*
X81320114Y-57086991D01*
X81065963Y-57197384D01*
X80829202Y-57341363D01*
X80614255Y-57516235D01*
X80425122Y-57718747D01*
X80265333Y-57945117D01*
X80137846Y-58191152D01*
X80045056Y-58452243D01*
X80045052Y-58452256D01*
X80032692Y-58511738D01*
X79988903Y-58722465D01*
X79988676Y-58723557D01*
X79988675Y-58723563D01*
X79969767Y-58999995D01*
X79969767Y-59000004D01*
X60183500Y-59000004D01*
X60183500Y-58826367D01*
X60183499Y-58826350D01*
X60176990Y-58765803D01*
X60176988Y-58765795D01*
X60125889Y-58628797D01*
X60125887Y-58628792D01*
X60038261Y-58511738D01*
X59921207Y-58424112D01*
X59921202Y-58424110D01*
X59784204Y-58373011D01*
X59784196Y-58373009D01*
X59723649Y-58366500D01*
X59723638Y-58366500D01*
X57926362Y-58366500D01*
X57926350Y-58366500D01*
X57865803Y-58373009D01*
X57865795Y-58373011D01*
X57728797Y-58424110D01*
X57728792Y-58424112D01*
X57611738Y-58511738D01*
X57524112Y-58628792D01*
X57524111Y-58628795D01*
X57480000Y-58747058D01*
X57437453Y-58803893D01*
X57370932Y-58828703D01*
X57301558Y-58813611D01*
X57269246Y-58788363D01*
X57208240Y-58722094D01*
X57208239Y-58722093D01*
X57208237Y-58722091D01*
X57088372Y-58628796D01*
X57030576Y-58583811D01*
X56832574Y-58476658D01*
X56832572Y-58476657D01*
X56832571Y-58476656D01*
X56619639Y-58403557D01*
X56619630Y-58403555D01*
X56575476Y-58396187D01*
X56397569Y-58366500D01*
X56172431Y-58366500D01*
X56024210Y-58391233D01*
X55950369Y-58403555D01*
X55950360Y-58403557D01*
X55737428Y-58476656D01*
X55737426Y-58476658D01*
X55539426Y-58583810D01*
X55539424Y-58583811D01*
X55361762Y-58722091D01*
X55209279Y-58887729D01*
X55120483Y-59023643D01*
X55066479Y-59069731D01*
X54996131Y-59079306D01*
X54931774Y-59049329D01*
X54909517Y-59023643D01*
X54820720Y-58887729D01*
X54669580Y-58723550D01*
X54668240Y-58722094D01*
X54668239Y-58722093D01*
X54668237Y-58722091D01*
X54548372Y-58628796D01*
X54490576Y-58583811D01*
X54292574Y-58476658D01*
X54292572Y-58476657D01*
X54292571Y-58476656D01*
X54079639Y-58403557D01*
X54079630Y-58403555D01*
X54035476Y-58396187D01*
X53857569Y-58366500D01*
X53632431Y-58366500D01*
X53484210Y-58391233D01*
X53410369Y-58403555D01*
X53410360Y-58403557D01*
X53197428Y-58476656D01*
X53197426Y-58476658D01*
X52999426Y-58583810D01*
X52999424Y-58583811D01*
X52821762Y-58722091D01*
X52669279Y-58887729D01*
X52580483Y-59023643D01*
X52526479Y-59069731D01*
X52456131Y-59079306D01*
X52391774Y-59049329D01*
X52369517Y-59023643D01*
X52280720Y-58887729D01*
X52129580Y-58723550D01*
X52128240Y-58722094D01*
X52128239Y-58722093D01*
X52128237Y-58722091D01*
X52008372Y-58628796D01*
X51950576Y-58583811D01*
X51752574Y-58476658D01*
X51752572Y-58476657D01*
X51752571Y-58476656D01*
X51539639Y-58403557D01*
X51539630Y-58403555D01*
X51495476Y-58396187D01*
X51317569Y-58366500D01*
X51092431Y-58366500D01*
X50944210Y-58391233D01*
X50870369Y-58403555D01*
X50870360Y-58403557D01*
X50657428Y-58476656D01*
X50657426Y-58476658D01*
X50459426Y-58583810D01*
X50459424Y-58583811D01*
X50281762Y-58722091D01*
X50129279Y-58887729D01*
X50040483Y-59023643D01*
X49986479Y-59069731D01*
X49916131Y-59079306D01*
X49851774Y-59049329D01*
X49829517Y-59023643D01*
X49740720Y-58887729D01*
X49589580Y-58723550D01*
X49588240Y-58722094D01*
X49588239Y-58722093D01*
X49588237Y-58722091D01*
X49468372Y-58628796D01*
X49410576Y-58583811D01*
X49212574Y-58476658D01*
X49212572Y-58476657D01*
X49212571Y-58476656D01*
X48999639Y-58403557D01*
X48999630Y-58403555D01*
X48955476Y-58396187D01*
X48777569Y-58366500D01*
X48552431Y-58366500D01*
X48404211Y-58391233D01*
X48330369Y-58403555D01*
X48330360Y-58403557D01*
X48117428Y-58476656D01*
X48117426Y-58476658D01*
X47919426Y-58583810D01*
X47919424Y-58583811D01*
X47741762Y-58722091D01*
X47589279Y-58887729D01*
X47500183Y-59024101D01*
X47446179Y-59070189D01*
X47375831Y-59079764D01*
X47311474Y-59049786D01*
X47289217Y-59024100D01*
X47200327Y-58888044D01*
X47047902Y-58722465D01*
X46870301Y-58584232D01*
X46870300Y-58584231D01*
X46672371Y-58477117D01*
X46672369Y-58477116D01*
X46525000Y-58426525D01*
X46525000Y-59422582D01*
X46506761Y-59394202D01*
X46398100Y-59300048D01*
X46267315Y-59240320D01*
X46160763Y-59225000D01*
X46089237Y-59225000D01*
X45982685Y-59240320D01*
X45851900Y-59300048D01*
X45743239Y-59394202D01*
X45665507Y-59515156D01*
X45625000Y-59653111D01*
X45625000Y-59796889D01*
X38070000Y-59796889D01*
X38070000Y-59653111D01*
X38029493Y-59515156D01*
X37951761Y-59394202D01*
X37843100Y-59300048D01*
X37712315Y-59240320D01*
X37605763Y-59225000D01*
X37534237Y-59225000D01*
X37427685Y-59240320D01*
X37296900Y-59300048D01*
X37188239Y-59394202D01*
X37170000Y-59422582D01*
X37170000Y-58426525D01*
X37970000Y-58426525D01*
X37970000Y-59325000D01*
X38869571Y-59325000D01*
X44825429Y-59325000D01*
X45725000Y-59325000D01*
X45725000Y-58426525D01*
X45577630Y-58477116D01*
X45577628Y-58477117D01*
X45379699Y-58584231D01*
X45379698Y-58584232D01*
X45202097Y-58722465D01*
X45049674Y-58888041D01*
X44926580Y-59076451D01*
X44836180Y-59282541D01*
X44825429Y-59325000D01*
X38869571Y-59325000D01*
X38858819Y-59282541D01*
X38768419Y-59076451D01*
X38645325Y-58888041D01*
X38492902Y-58722465D01*
X38315301Y-58584232D01*
X38315300Y-58584231D01*
X38117371Y-58477117D01*
X38117369Y-58477116D01*
X37970000Y-58426525D01*
X37170000Y-58426525D01*
X37022630Y-58477116D01*
X37022628Y-58477117D01*
X36824699Y-58584231D01*
X36824698Y-58584232D01*
X36647097Y-58722465D01*
X36494670Y-58888045D01*
X36405780Y-59024101D01*
X36351776Y-59070189D01*
X36281428Y-59079764D01*
X36217071Y-59049786D01*
X36194816Y-59024101D01*
X36155884Y-58964511D01*
X36105724Y-58887734D01*
X36105720Y-58887729D01*
X35954580Y-58723550D01*
X35953240Y-58722094D01*
X35953239Y-58722093D01*
X35953237Y-58722091D01*
X35833372Y-58628796D01*
X35775576Y-58583811D01*
X35577574Y-58476658D01*
X35577572Y-58476657D01*
X35577571Y-58476656D01*
X35364639Y-58403557D01*
X35364630Y-58403555D01*
X35320476Y-58396187D01*
X35142569Y-58366500D01*
X34917431Y-58366500D01*
X34769211Y-58391233D01*
X34695369Y-58403555D01*
X34695360Y-58403557D01*
X34482428Y-58476656D01*
X34482426Y-58476658D01*
X34284426Y-58583810D01*
X34284424Y-58583811D01*
X34106762Y-58722091D01*
X33954279Y-58887729D01*
X33865483Y-59023643D01*
X33811479Y-59069731D01*
X33741131Y-59079306D01*
X33676774Y-59049329D01*
X33654517Y-59023643D01*
X33565720Y-58887729D01*
X33414580Y-58723550D01*
X33413240Y-58722094D01*
X33413239Y-58722093D01*
X33413237Y-58722091D01*
X33293372Y-58628796D01*
X33235576Y-58583811D01*
X33037574Y-58476658D01*
X33037572Y-58476657D01*
X33037571Y-58476656D01*
X32824639Y-58403557D01*
X32824630Y-58403555D01*
X32780476Y-58396187D01*
X32602569Y-58366500D01*
X32377431Y-58366500D01*
X32229211Y-58391233D01*
X32155369Y-58403555D01*
X32155360Y-58403557D01*
X31942428Y-58476656D01*
X31942426Y-58476658D01*
X31744426Y-58583810D01*
X31744424Y-58583811D01*
X31566762Y-58722091D01*
X31505754Y-58788363D01*
X31444901Y-58824933D01*
X31373936Y-58822798D01*
X31315391Y-58782636D01*
X31294999Y-58747057D01*
X31250889Y-58628797D01*
X31250887Y-58628792D01*
X31163261Y-58511738D01*
X31046207Y-58424112D01*
X31046202Y-58424110D01*
X30909204Y-58373011D01*
X30909196Y-58373009D01*
X30848649Y-58366500D01*
X30848638Y-58366500D01*
X29051362Y-58366500D01*
X29051350Y-58366500D01*
X28990803Y-58373009D01*
X28990795Y-58373011D01*
X28853797Y-58424110D01*
X28853792Y-58424112D01*
X28736738Y-58511738D01*
X28649112Y-58628792D01*
X28649110Y-58628797D01*
X28598011Y-58765795D01*
X28598009Y-58765803D01*
X28591500Y-58826350D01*
X28591500Y-60623649D01*
X25213804Y-60623649D01*
X25385742Y-60483767D01*
X25574875Y-60281256D01*
X25734670Y-60054876D01*
X25862153Y-59808847D01*
X25954946Y-59547750D01*
X26011323Y-59276450D01*
X26025463Y-59069731D01*
X26030233Y-59000004D01*
X26030233Y-58999995D01*
X26011324Y-58723563D01*
X26011323Y-58723557D01*
X26011323Y-58723550D01*
X25954946Y-58452250D01*
X25862153Y-58191153D01*
X25862153Y-58191152D01*
X25734666Y-57945117D01*
X25574877Y-57718747D01*
X25574875Y-57718744D01*
X25385744Y-57516235D01*
X25385745Y-57516235D01*
X25170797Y-57341363D01*
X25170795Y-57341361D01*
X24977382Y-57223744D01*
X24934036Y-57197384D01*
X24679885Y-57086991D01*
X24679875Y-57086988D01*
X24413070Y-57012232D01*
X24413062Y-57012230D01*
X24138561Y-56974500D01*
X24138548Y-56974500D01*
X23861452Y-56974500D01*
X23861438Y-56974500D01*
X23586937Y-57012230D01*
X23586929Y-57012232D01*
X23320124Y-57086988D01*
X23320114Y-57086991D01*
X23065963Y-57197384D01*
X22829202Y-57341363D01*
X22614255Y-57516235D01*
X22425122Y-57718747D01*
X22265333Y-57945117D01*
X22137846Y-58191152D01*
X22045056Y-58452243D01*
X22045052Y-58452256D01*
X22032692Y-58511738D01*
X21988903Y-58722465D01*
X21988676Y-58723557D01*
X21988675Y-58723563D01*
X21969767Y-58999995D01*
X21969767Y-59000004D01*
X20025500Y-59000004D01*
X20025500Y-49877842D01*
X20045502Y-49809721D01*
X20099158Y-49763228D01*
X20169432Y-49753124D01*
X20234012Y-49782618D01*
X20254137Y-49804755D01*
X20271321Y-49828887D01*
X20271322Y-49828888D01*
X20424464Y-49974909D01*
X20424465Y-49974910D01*
X20602475Y-50089308D01*
X20602480Y-50089311D01*
X20798914Y-50167952D01*
X20798920Y-50167953D01*
X21006694Y-50207999D01*
X21006703Y-50208000D01*
X21062500Y-50208000D01*
X21062500Y-49500000D01*
X21862500Y-49500000D01*
X21862500Y-50208000D01*
X21865279Y-50208000D01*
X21865300Y-50207998D01*
X22023133Y-50192927D01*
X22023148Y-50192924D01*
X22226177Y-50133310D01*
X22414254Y-50036349D01*
X22580585Y-49905544D01*
X22580591Y-49905539D01*
X22719156Y-49745625D01*
X22719157Y-49745624D01*
X22824956Y-49562374D01*
X22824957Y-49562372D01*
X22846545Y-49500000D01*
X21862500Y-49500000D01*
X21062500Y-49500000D01*
X21062500Y-49400000D01*
X21840302Y-49400000D01*
X21922750Y-49384588D01*
X22018110Y-49325543D01*
X22085701Y-49236038D01*
X22093760Y-49207712D01*
X23620471Y-49207712D01*
X23620472Y-49207713D01*
X23739170Y-49263063D01*
X23739180Y-49263067D01*
X23947570Y-49318905D01*
X24162500Y-49337709D01*
X24377429Y-49318905D01*
X24585826Y-49263065D01*
X24585827Y-49263065D01*
X24704526Y-49207713D01*
X24162500Y-48665685D01*
X24162499Y-48665685D01*
X23620471Y-49207712D01*
X22093760Y-49207712D01*
X22116395Y-49128160D01*
X22106046Y-49016479D01*
X22056052Y-48916078D01*
X21973166Y-48840516D01*
X21868580Y-48800000D01*
X21084698Y-48800000D01*
X21062500Y-48804149D01*
X21062500Y-48700000D01*
X21862500Y-48700000D01*
X22847902Y-48700000D01*
X22859873Y-48681372D01*
X22913528Y-48634879D01*
X22983802Y-48624774D01*
X23000696Y-48632489D01*
X23054786Y-48642027D01*
X23596813Y-48100000D01*
X23732202Y-48100000D01*
X23753262Y-48232969D01*
X23814382Y-48352923D01*
X23909577Y-48448118D01*
X24029531Y-48509238D01*
X24129049Y-48525000D01*
X24195951Y-48525000D01*
X24295469Y-48509238D01*
X24415423Y-48448118D01*
X24510618Y-48352923D01*
X24571738Y-48232969D01*
X24592798Y-48100000D01*
X24592798Y-48099999D01*
X24728185Y-48099999D01*
X25270213Y-48642026D01*
X25325565Y-48523327D01*
X25325565Y-48523326D01*
X25381405Y-48314929D01*
X25400209Y-48100000D01*
X25381405Y-47885070D01*
X25325567Y-47676680D01*
X25325563Y-47676670D01*
X25270213Y-47557972D01*
X25270212Y-47557971D01*
X24728185Y-48099998D01*
X24728185Y-48099999D01*
X24592798Y-48099999D01*
X24571738Y-47967031D01*
X24510618Y-47847077D01*
X24415423Y-47751882D01*
X24295469Y-47690762D01*
X24195951Y-47675000D01*
X24129049Y-47675000D01*
X24029531Y-47690762D01*
X23909577Y-47751882D01*
X23814382Y-47847077D01*
X23753262Y-47967031D01*
X23732202Y-48100000D01*
X23596813Y-48100000D01*
X23596814Y-48099999D01*
X23054786Y-47557971D01*
X22999434Y-47676674D01*
X22999432Y-47676680D01*
X22943594Y-47885070D01*
X22924790Y-48099999D01*
X22943594Y-48314929D01*
X22961882Y-48383179D01*
X22960192Y-48454156D01*
X22920398Y-48512951D01*
X22855133Y-48540899D01*
X22785120Y-48529125D01*
X22737538Y-48488877D01*
X22653678Y-48371112D01*
X22653677Y-48371111D01*
X22500535Y-48225090D01*
X22500534Y-48225089D01*
X22322524Y-48110691D01*
X22322519Y-48110688D01*
X22126085Y-48032047D01*
X22126079Y-48032046D01*
X21918305Y-47992000D01*
X21862500Y-47992000D01*
X21862500Y-48700000D01*
X21062500Y-48700000D01*
X21062500Y-47992000D01*
X21059721Y-47992000D01*
X21059699Y-47992001D01*
X20901866Y-48007072D01*
X20901851Y-48007075D01*
X20698822Y-48066689D01*
X20510745Y-48163650D01*
X20344414Y-48294455D01*
X20344408Y-48294460D01*
X20246725Y-48407194D01*
X20186998Y-48445578D01*
X20116002Y-48445578D01*
X20056276Y-48407195D01*
X20026783Y-48342614D01*
X20025500Y-48324682D01*
X20025500Y-46992286D01*
X23620471Y-46992286D01*
X24162499Y-47534314D01*
X24162500Y-47534314D01*
X24704527Y-46992286D01*
X24704526Y-46992285D01*
X24585825Y-46936934D01*
X24585819Y-46936932D01*
X24377429Y-46881094D01*
X24162500Y-46862290D01*
X23947570Y-46881094D01*
X23739180Y-46936932D01*
X23739174Y-46936934D01*
X23620471Y-46992286D01*
X20025500Y-46992286D01*
X20025500Y-45949999D01*
X29836496Y-45949999D01*
X29856457Y-46139927D01*
X29877458Y-46204559D01*
X29915473Y-46321556D01*
X29915476Y-46321561D01*
X30010958Y-46486941D01*
X30010965Y-46486951D01*
X30138744Y-46628864D01*
X30138747Y-46628866D01*
X30293248Y-46741118D01*
X30467712Y-46818794D01*
X30547962Y-46835851D01*
X30566696Y-46839834D01*
X30629170Y-46873563D01*
X30663491Y-46935712D01*
X30666499Y-46963081D01*
X30666499Y-51577854D01*
X30664751Y-51593694D01*
X30665043Y-51593722D01*
X30664297Y-51601607D01*
X30666500Y-51671658D01*
X30666500Y-51701552D01*
X30666501Y-51701573D01*
X30667378Y-51708521D01*
X30667844Y-51714433D01*
X30669326Y-51761589D01*
X30669327Y-51761594D01*
X30674977Y-51781040D01*
X30678986Y-51800398D01*
X30681525Y-51820494D01*
X30681526Y-51820500D01*
X30698893Y-51864363D01*
X30700816Y-51869980D01*
X30713982Y-51915294D01*
X30724294Y-51932732D01*
X30732988Y-51950480D01*
X30740444Y-51969310D01*
X30740450Y-51969321D01*
X30768177Y-52007484D01*
X30771437Y-52012447D01*
X30795460Y-52053066D01*
X30809779Y-52067385D01*
X30822617Y-52082415D01*
X30832156Y-52095544D01*
X30834528Y-52098808D01*
X30860634Y-52120405D01*
X30870886Y-52128886D01*
X30875267Y-52132872D01*
X31363949Y-52621554D01*
X31791051Y-53048656D01*
X31801021Y-53061100D01*
X31801249Y-53060913D01*
X31806300Y-53067019D01*
X31857377Y-53114983D01*
X31878522Y-53136129D01*
X31878526Y-53136132D01*
X31878529Y-53136135D01*
X31884081Y-53140442D01*
X31888568Y-53144273D01*
X31903718Y-53158500D01*
X31922976Y-53176585D01*
X31922978Y-53176586D01*
X31940727Y-53186343D01*
X31957252Y-53197198D01*
X31973258Y-53209614D01*
X32013448Y-53227005D01*
X32016561Y-53228352D01*
X32021882Y-53230958D01*
X32063239Y-53253695D01*
X32063247Y-53253697D01*
X32082857Y-53258732D01*
X32101566Y-53265137D01*
X32120154Y-53273181D01*
X32166776Y-53280564D01*
X32172561Y-53281763D01*
X32218269Y-53293500D01*
X32238523Y-53293500D01*
X32258233Y-53295051D01*
X32260440Y-53295400D01*
X32278242Y-53298220D01*
X32312771Y-53294956D01*
X32325216Y-53293780D01*
X32331149Y-53293500D01*
X34792543Y-53293500D01*
X34808384Y-53295249D01*
X34808412Y-53294956D01*
X34816298Y-53295700D01*
X34816305Y-53295702D01*
X34886354Y-53293500D01*
X34916252Y-53293500D01*
X34923214Y-53292619D01*
X34929115Y-53292154D01*
X34976285Y-53290673D01*
X34995743Y-53285019D01*
X35015090Y-53281013D01*
X35035193Y-53278474D01*
X35079075Y-53261099D01*
X35084670Y-53259183D01*
X35113212Y-53250891D01*
X35129987Y-53246019D01*
X35129991Y-53246017D01*
X35147422Y-53235708D01*
X35165176Y-53227009D01*
X35184013Y-53219552D01*
X35222182Y-53191818D01*
X35227140Y-53188562D01*
X35267758Y-53164542D01*
X35282081Y-53150218D01*
X35297120Y-53137374D01*
X35313503Y-53125472D01*
X35343584Y-53089108D01*
X35347563Y-53084735D01*
X35411896Y-53020403D01*
X35474210Y-52986379D01*
X35500991Y-52983500D01*
X61860101Y-52983500D01*
X61928222Y-53003502D01*
X61949196Y-53020405D01*
X63517450Y-54588660D01*
X63527415Y-54601097D01*
X63527642Y-54600910D01*
X63532694Y-54607017D01*
X63583774Y-54654984D01*
X63604918Y-54676129D01*
X63604922Y-54676132D01*
X63604925Y-54676135D01*
X63610477Y-54680442D01*
X63614964Y-54684273D01*
X63637654Y-54705581D01*
X63649372Y-54716585D01*
X63649374Y-54716586D01*
X63667123Y-54726343D01*
X63683648Y-54737198D01*
X63699654Y-54749614D01*
X63741381Y-54767670D01*
X63742957Y-54768352D01*
X63748278Y-54770958D01*
X63789635Y-54793695D01*
X63789643Y-54793697D01*
X63809253Y-54798732D01*
X63827962Y-54805137D01*
X63846550Y-54813181D01*
X63893172Y-54820564D01*
X63898957Y-54821763D01*
X63944665Y-54833500D01*
X63964919Y-54833500D01*
X63984629Y-54835051D01*
X63986836Y-54835400D01*
X64004638Y-54838220D01*
X64038565Y-54835012D01*
X64051612Y-54833780D01*
X64057545Y-54833500D01*
X64341800Y-54833500D01*
X64409921Y-54853502D01*
X64435437Y-54875190D01*
X64438747Y-54878866D01*
X64593248Y-54991118D01*
X64767712Y-55068794D01*
X64954513Y-55108500D01*
X65145487Y-55108500D01*
X65332288Y-55068794D01*
X65506752Y-54991118D01*
X65661253Y-54878866D01*
X65664563Y-54875190D01*
X65789034Y-54736951D01*
X65789035Y-54736949D01*
X65789040Y-54736944D01*
X65884527Y-54571556D01*
X65943542Y-54389928D01*
X65963504Y-54200000D01*
X65943542Y-54010072D01*
X65884527Y-53828444D01*
X65789040Y-53663056D01*
X65789038Y-53663054D01*
X65789034Y-53663048D01*
X65661255Y-53521135D01*
X65506752Y-53408882D01*
X65332288Y-53331206D01*
X65145487Y-53291500D01*
X65086572Y-53291500D01*
X65018451Y-53271498D01*
X64971958Y-53217842D01*
X64961262Y-53178670D01*
X64956791Y-53136135D01*
X64943542Y-53010072D01*
X64884527Y-52828444D01*
X64789040Y-52663056D01*
X64789038Y-52663054D01*
X64789034Y-52663048D01*
X64661255Y-52521135D01*
X64506752Y-52408882D01*
X64332288Y-52331206D01*
X64332287Y-52331205D01*
X64332283Y-52331204D01*
X64326525Y-52329333D01*
X64267919Y-52289260D01*
X64240282Y-52223863D01*
X64252389Y-52153906D01*
X64300395Y-52101600D01*
X64365461Y-52083500D01*
X64885405Y-52083500D01*
X64953526Y-52103502D01*
X64974501Y-52120405D01*
X65052878Y-52198783D01*
X65086903Y-52261096D01*
X65089092Y-52274707D01*
X65106457Y-52439927D01*
X65132844Y-52521134D01*
X65165473Y-52621556D01*
X65165476Y-52621561D01*
X65260958Y-52786941D01*
X65260965Y-52786951D01*
X65388744Y-52928864D01*
X65388747Y-52928866D01*
X65543248Y-53041118D01*
X65717712Y-53118794D01*
X65904513Y-53158500D01*
X66095487Y-53158500D01*
X66282288Y-53118794D01*
X66456752Y-53041118D01*
X66611253Y-52928866D01*
X66611255Y-52928864D01*
X66739034Y-52786951D01*
X66739035Y-52786949D01*
X66739040Y-52786944D01*
X66834527Y-52621556D01*
X66893542Y-52439928D01*
X66913504Y-52250000D01*
X66893542Y-52060072D01*
X66834527Y-51878444D01*
X66739040Y-51713056D01*
X66739037Y-51713053D01*
X66735157Y-51707712D01*
X66736700Y-51706590D01*
X66709952Y-51650872D01*
X66718707Y-51580418D01*
X66740668Y-51546241D01*
X66749040Y-51536944D01*
X66844527Y-51371556D01*
X66903542Y-51189928D01*
X66923504Y-51000000D01*
X66903542Y-50810072D01*
X66844527Y-50628444D01*
X66749040Y-50463056D01*
X66749038Y-50463054D01*
X66749034Y-50463048D01*
X66621255Y-50321135D01*
X66466752Y-50208882D01*
X66292288Y-50131206D01*
X66105487Y-50091500D01*
X65914513Y-50091500D01*
X65727711Y-50131206D01*
X65553247Y-50208882D01*
X65398747Y-50321133D01*
X65395437Y-50324810D01*
X65334991Y-50362050D01*
X65301800Y-50366500D01*
X35314595Y-50366500D01*
X35246474Y-50346498D01*
X35225499Y-50329595D01*
X35163746Y-50267842D01*
X35092242Y-50196337D01*
X35082279Y-50183902D01*
X35082053Y-50184090D01*
X35077000Y-50177982D01*
X35025920Y-50130015D01*
X35004777Y-50108871D01*
X35004772Y-50108866D01*
X34999225Y-50104563D01*
X34994717Y-50100712D01*
X34960325Y-50068417D01*
X34960319Y-50068413D01*
X34942563Y-50058651D01*
X34926047Y-50047802D01*
X34910041Y-50035386D01*
X34879289Y-50022078D01*
X34866740Y-50016648D01*
X34861408Y-50014036D01*
X34820061Y-49991305D01*
X34800436Y-49986266D01*
X34781736Y-49979864D01*
X34763145Y-49971819D01*
X34763143Y-49971818D01*
X34763142Y-49971818D01*
X34716542Y-49964437D01*
X34710729Y-49963233D01*
X34665030Y-49951500D01*
X34644776Y-49951500D01*
X34625066Y-49949949D01*
X34605057Y-49946780D01*
X34605056Y-49946780D01*
X34558083Y-49951220D01*
X34552150Y-49951500D01*
X33298853Y-49951500D01*
X33283011Y-49949750D01*
X33282984Y-49950044D01*
X33275092Y-49949298D01*
X33275091Y-49949298D01*
X33205042Y-49951500D01*
X33175144Y-49951500D01*
X33175140Y-49951500D01*
X33175130Y-49951501D01*
X33168179Y-49952379D01*
X33162267Y-49952844D01*
X33115113Y-49954326D01*
X33115111Y-49954327D01*
X33095656Y-49959978D01*
X33076303Y-49963986D01*
X33056211Y-49966524D01*
X33056204Y-49966525D01*
X33056203Y-49966526D01*
X33056201Y-49966526D01*
X33056200Y-49966527D01*
X33012339Y-49983892D01*
X33006724Y-49985815D01*
X32961407Y-49998982D01*
X32943964Y-50009297D01*
X32926218Y-50017990D01*
X32907382Y-50025448D01*
X32869209Y-50053181D01*
X32864248Y-50056440D01*
X32823638Y-50080458D01*
X32809311Y-50094784D01*
X32794285Y-50107617D01*
X32777895Y-50119525D01*
X32777893Y-50119527D01*
X32747813Y-50155886D01*
X32743818Y-50160276D01*
X32599501Y-50304595D01*
X32537189Y-50338620D01*
X32510405Y-50341500D01*
X32509500Y-50341500D01*
X32441379Y-50321498D01*
X32394886Y-50267842D01*
X32383500Y-50215500D01*
X32383500Y-45652524D01*
X32403502Y-45584403D01*
X32415858Y-45568220D01*
X32489040Y-45486944D01*
X32489047Y-45486931D01*
X32489735Y-45485985D01*
X32490285Y-45485559D01*
X32493459Y-45482036D01*
X32494102Y-45482615D01*
X32545950Y-45442620D01*
X32616685Y-45436532D01*
X32679483Y-45469652D01*
X32714405Y-45531466D01*
X32712875Y-45594508D01*
X32655706Y-45795437D01*
X32636751Y-46000000D01*
X32655706Y-46204562D01*
X32711923Y-46402144D01*
X32711929Y-46402160D01*
X32803493Y-46586045D01*
X32803497Y-46586050D01*
X32927297Y-46749990D01*
X33079116Y-46888391D01*
X33079118Y-46888392D01*
X33253782Y-46996540D01*
X33445345Y-47070751D01*
X33647282Y-47108500D01*
X33647285Y-47108500D01*
X33852715Y-47108500D01*
X33852718Y-47108500D01*
X34054655Y-47070751D01*
X34246218Y-46996540D01*
X34344168Y-46935891D01*
X34412616Y-46917036D01*
X34480391Y-46938179D01*
X34525977Y-46992608D01*
X34536500Y-47043018D01*
X34536500Y-48124009D01*
X34548235Y-48233155D01*
X34548235Y-48233159D01*
X34559617Y-48285480D01*
X34559623Y-48285501D01*
X34594288Y-48389654D01*
X34594290Y-48389657D01*
X34673308Y-48512612D01*
X34673311Y-48512615D01*
X34673315Y-48512621D01*
X34718685Y-48564981D01*
X34719601Y-48566097D01*
X34830258Y-48661980D01*
X34830261Y-48661982D01*
X34963210Y-48722698D01*
X35031331Y-48742700D01*
X35176000Y-48763500D01*
X35176004Y-48763500D01*
X44923994Y-48763500D01*
X44924000Y-48763500D01*
X45033149Y-48751766D01*
X45033158Y-48751764D01*
X45033159Y-48751764D01*
X45049303Y-48748251D01*
X45085491Y-48740380D01*
X45189657Y-48705710D01*
X45312612Y-48626692D01*
X45365011Y-48581288D01*
X45366101Y-48580393D01*
X45366270Y-48580198D01*
X45461982Y-48469739D01*
X45522698Y-48336790D01*
X45542700Y-48268669D01*
X45563500Y-48124000D01*
X45563500Y-47639965D01*
X45563226Y-47628101D01*
X45562409Y-47610436D01*
X45561588Y-47598609D01*
X45553527Y-47511620D01*
X45553527Y-47488375D01*
X45561588Y-47401389D01*
X45562409Y-47389562D01*
X45563226Y-47371897D01*
X45563500Y-47360033D01*
X45563500Y-45039499D01*
X45583502Y-44971379D01*
X45637158Y-44924886D01*
X45689500Y-44913500D01*
X47273994Y-44913500D01*
X47274000Y-44913500D01*
X47383149Y-44901766D01*
X47383158Y-44901764D01*
X47383159Y-44901764D01*
X47399303Y-44898251D01*
X47435491Y-44890380D01*
X47539657Y-44855710D01*
X47662612Y-44776692D01*
X47715011Y-44731288D01*
X47716101Y-44730393D01*
X47811980Y-44619741D01*
X47811982Y-44619739D01*
X47872698Y-44486790D01*
X47892700Y-44418669D01*
X47913500Y-44274000D01*
X47913500Y-42226000D01*
X47901766Y-42116851D01*
X47890380Y-42064509D01*
X47866342Y-41992286D01*
X47855711Y-41960345D01*
X47840666Y-41936934D01*
X47776692Y-41837388D01*
X47731307Y-41785011D01*
X47730396Y-41783900D01*
X47619741Y-41688019D01*
X47619738Y-41688017D01*
X47486789Y-41627301D01*
X47418677Y-41607302D01*
X47418670Y-41607300D01*
X47389735Y-41603140D01*
X47274000Y-41586500D01*
X47273996Y-41586500D01*
X45689500Y-41586500D01*
X45621379Y-41566498D01*
X45574886Y-41512842D01*
X45563500Y-41460500D01*
X45563500Y-38376005D01*
X45563499Y-38375990D01*
X45562833Y-38369796D01*
X45551766Y-38266851D01*
X45540380Y-38214509D01*
X45522927Y-38162073D01*
X45505711Y-38110345D01*
X45482874Y-38074810D01*
X45426692Y-37987388D01*
X45381307Y-37935011D01*
X45380396Y-37933900D01*
X45269741Y-37838019D01*
X45269738Y-37838017D01*
X45136789Y-37777301D01*
X45068677Y-37757302D01*
X45068670Y-37757300D01*
X45039735Y-37753140D01*
X44924000Y-37736500D01*
X35176000Y-37736500D01*
X35175990Y-37736500D01*
X35087267Y-37746039D01*
X35066851Y-37748234D01*
X35066848Y-37748234D01*
X35066844Y-37748235D01*
X35066840Y-37748235D01*
X35014519Y-37759617D01*
X35014498Y-37759623D01*
X34924291Y-37789647D01*
X34853339Y-37792181D01*
X34792281Y-37755954D01*
X34760502Y-37692467D01*
X34758500Y-37670095D01*
X34758500Y-37469923D01*
X34778502Y-37401802D01*
X34795405Y-37380828D01*
X35676234Y-36500000D01*
X47636751Y-36500000D01*
X47655706Y-36704562D01*
X47711923Y-36902144D01*
X47711929Y-36902160D01*
X47803493Y-37086045D01*
X47803497Y-37086050D01*
X47927297Y-37249990D01*
X48079116Y-37388391D01*
X48114132Y-37410072D01*
X48253782Y-37496540D01*
X48445345Y-37570751D01*
X48647282Y-37608500D01*
X48647285Y-37608500D01*
X48852715Y-37608500D01*
X48852718Y-37608500D01*
X49054655Y-37570751D01*
X49246218Y-37496540D01*
X49420882Y-37388392D01*
X49572701Y-37249991D01*
X49588973Y-37228444D01*
X49597051Y-37217745D01*
X49696503Y-37086050D01*
X49696504Y-37086046D01*
X49696506Y-37086045D01*
X49788070Y-36902160D01*
X49788069Y-36902160D01*
X49788074Y-36902152D01*
X49844294Y-36704559D01*
X49863249Y-36500000D01*
X49844294Y-36295441D01*
X49788074Y-36097848D01*
X49771709Y-36064982D01*
X49758500Y-36008820D01*
X49758500Y-35500730D01*
X49758500Y-34919920D01*
X49778501Y-34851803D01*
X49795399Y-34830834D01*
X52480828Y-32145405D01*
X52543141Y-32111379D01*
X52569924Y-32108500D01*
X57457937Y-32108500D01*
X57464116Y-32108804D01*
X57637497Y-32125880D01*
X57637500Y-32125880D01*
X57637503Y-32125880D01*
X57683965Y-32121304D01*
X57690144Y-32121000D01*
X67611101Y-32121000D01*
X67656616Y-32129507D01*
X67795345Y-32183251D01*
X67997282Y-32221000D01*
X67997285Y-32221000D01*
X68202715Y-32221000D01*
X68202718Y-32221000D01*
X68404655Y-32183251D01*
X68594987Y-32109516D01*
X68665730Y-32103561D01*
X68728466Y-32136798D01*
X68763273Y-32198677D01*
X68766500Y-32227009D01*
X68766500Y-34197474D01*
X68746498Y-34265595D01*
X68734137Y-34281784D01*
X68660957Y-34363059D01*
X68565476Y-34528438D01*
X68565473Y-34528445D01*
X68506457Y-34710072D01*
X68486496Y-34899999D01*
X68506457Y-35089927D01*
X68536526Y-35182470D01*
X68565473Y-35271556D01*
X68565476Y-35271561D01*
X68660958Y-35436941D01*
X68660965Y-35436951D01*
X68788744Y-35578864D01*
X68806363Y-35591665D01*
X68849717Y-35647887D01*
X68855792Y-35718624D01*
X68822661Y-35781415D01*
X68821398Y-35782696D01*
X67949498Y-36654596D01*
X67887188Y-36688620D01*
X67860405Y-36691500D01*
X67804513Y-36691500D01*
X67617711Y-36731206D01*
X67443247Y-36808882D01*
X67288744Y-36921135D01*
X67160965Y-37063048D01*
X67160958Y-37063058D01*
X67065476Y-37228438D01*
X67065473Y-37228445D01*
X67006457Y-37410072D01*
X66986496Y-37600000D01*
X67006457Y-37789927D01*
X67033550Y-37873308D01*
X67053182Y-37933730D01*
X67058977Y-37951563D01*
X67061005Y-38022531D01*
X67024342Y-38083329D01*
X66960630Y-38114654D01*
X66939144Y-38116500D01*
X60933200Y-38116500D01*
X60865079Y-38096498D01*
X60839563Y-38074810D01*
X60836252Y-38071133D01*
X60681752Y-37958882D01*
X60507288Y-37881206D01*
X60320487Y-37841500D01*
X60129513Y-37841500D01*
X59942711Y-37881206D01*
X59768247Y-37958882D01*
X59613744Y-38071135D01*
X59485965Y-38213048D01*
X59485958Y-38213058D01*
X59390476Y-38378438D01*
X59390473Y-38378445D01*
X59331457Y-38560072D01*
X59311496Y-38750000D01*
X59331457Y-38939927D01*
X59361526Y-39032470D01*
X59390473Y-39121556D01*
X59390476Y-39121561D01*
X59485958Y-39286941D01*
X59485965Y-39286951D01*
X59613744Y-39428864D01*
X59613747Y-39428866D01*
X59768248Y-39541118D01*
X59942712Y-39618794D01*
X60129513Y-39658500D01*
X60320487Y-39658500D01*
X60507288Y-39618794D01*
X60681752Y-39541118D01*
X60836253Y-39428866D01*
X60839562Y-39425190D01*
X60900009Y-39387950D01*
X60933200Y-39383500D01*
X67716800Y-39383500D01*
X67784921Y-39403502D01*
X67810437Y-39425190D01*
X67813747Y-39428866D01*
X67968248Y-39541118D01*
X68142712Y-39618794D01*
X68329513Y-39658500D01*
X68520487Y-39658500D01*
X68707288Y-39618794D01*
X68881752Y-39541118D01*
X69036253Y-39428866D01*
X69164040Y-39286944D01*
X69259527Y-39121556D01*
X69318542Y-38939928D01*
X69338504Y-38750000D01*
X69318542Y-38560072D01*
X69259527Y-38378444D01*
X69164040Y-38213056D01*
X69164038Y-38213054D01*
X69164034Y-38213048D01*
X69036255Y-38071135D01*
X68969357Y-38022531D01*
X68881752Y-37958882D01*
X68881750Y-37958881D01*
X68881749Y-37958880D01*
X68860373Y-37949363D01*
X68806278Y-37903383D01*
X68785629Y-37835455D01*
X68791791Y-37795319D01*
X68793542Y-37789930D01*
X68810907Y-37624705D01*
X68837920Y-37559048D01*
X68847113Y-37548789D01*
X70513657Y-35882245D01*
X70526092Y-35872284D01*
X70525905Y-35872057D01*
X70532009Y-35867005D01*
X70532018Y-35867000D01*
X70579999Y-35815904D01*
X70601134Y-35794770D01*
X70605429Y-35789232D01*
X70609271Y-35784731D01*
X70641586Y-35750321D01*
X70651345Y-35732567D01*
X70662197Y-35716046D01*
X70674613Y-35700041D01*
X70693347Y-35656748D01*
X70695961Y-35651412D01*
X70718694Y-35610061D01*
X70718695Y-35610060D01*
X70723733Y-35590435D01*
X70730138Y-35571730D01*
X70738181Y-35553145D01*
X70745561Y-35506547D01*
X70746762Y-35500740D01*
X70758500Y-35455030D01*
X70758500Y-35434775D01*
X70760051Y-35415063D01*
X70763220Y-35395057D01*
X70760629Y-35367651D01*
X70758780Y-35348080D01*
X70758500Y-35342148D01*
X70758500Y-31939594D01*
X70778502Y-31871473D01*
X70795405Y-31850499D01*
X74100500Y-28545405D01*
X74162812Y-28511379D01*
X74189595Y-28508500D01*
X74791800Y-28508500D01*
X74859921Y-28528502D01*
X74885437Y-28550190D01*
X74888747Y-28553866D01*
X75043248Y-28666118D01*
X75217712Y-28743794D01*
X75404513Y-28783500D01*
X75595487Y-28783500D01*
X75782288Y-28743794D01*
X75956752Y-28666118D01*
X76111253Y-28553866D01*
X76115820Y-28548794D01*
X76239034Y-28411951D01*
X76239035Y-28411949D01*
X76239040Y-28411944D01*
X76334527Y-28246556D01*
X76393542Y-28064928D01*
X76413504Y-27875000D01*
X76393542Y-27685072D01*
X76334527Y-27503444D01*
X76239040Y-27338056D01*
X76239038Y-27338054D01*
X76239034Y-27338048D01*
X76111255Y-27196135D01*
X75956752Y-27083882D01*
X75782288Y-27006206D01*
X75595487Y-26966500D01*
X75404513Y-26966500D01*
X75217711Y-27006206D01*
X75043247Y-27083882D01*
X74888747Y-27196133D01*
X74885437Y-27199810D01*
X74824991Y-27237050D01*
X74791800Y-27241500D01*
X73958853Y-27241500D01*
X73943011Y-27239750D01*
X73942984Y-27240044D01*
X73935091Y-27239297D01*
X73865028Y-27241500D01*
X73835144Y-27241500D01*
X73835140Y-27241500D01*
X73835129Y-27241501D01*
X73828190Y-27242377D01*
X73822277Y-27242843D01*
X73775114Y-27244325D01*
X73775107Y-27244327D01*
X73755649Y-27249979D01*
X73736304Y-27253985D01*
X73716206Y-27256525D01*
X73716197Y-27256527D01*
X73672331Y-27273894D01*
X73666716Y-27275817D01*
X73621408Y-27288981D01*
X73603964Y-27299297D01*
X73586218Y-27307990D01*
X73567382Y-27315448D01*
X73529209Y-27343181D01*
X73524248Y-27346440D01*
X73483638Y-27370458D01*
X73469311Y-27384784D01*
X73454285Y-27397617D01*
X73437895Y-27409525D01*
X73437893Y-27409527D01*
X73407808Y-27445892D01*
X73403812Y-27450283D01*
X70248595Y-30605500D01*
X70186283Y-30639526D01*
X70115468Y-30634461D01*
X70058632Y-30591914D01*
X70033821Y-30525394D01*
X70033500Y-30516405D01*
X70033500Y-29627094D01*
X70053502Y-29558973D01*
X70070405Y-29537998D01*
X70550500Y-29057904D01*
X70612812Y-29023879D01*
X70639595Y-29021000D01*
X70695487Y-29021000D01*
X70882288Y-28981294D01*
X71056752Y-28903618D01*
X71211253Y-28791366D01*
X71339040Y-28649444D01*
X71434527Y-28484056D01*
X71493542Y-28302428D01*
X71513504Y-28112500D01*
X71493542Y-27922572D01*
X71434527Y-27740944D01*
X71339040Y-27575556D01*
X71339038Y-27575554D01*
X71339034Y-27575548D01*
X71211255Y-27433635D01*
X71056752Y-27321382D01*
X70882288Y-27243706D01*
X70695487Y-27204000D01*
X70504513Y-27204000D01*
X70317711Y-27243706D01*
X70143247Y-27321382D01*
X69988744Y-27433635D01*
X69860965Y-27575548D01*
X69860958Y-27575558D01*
X69765476Y-27740938D01*
X69765473Y-27740945D01*
X69706457Y-27922572D01*
X69689092Y-28087792D01*
X69662079Y-28153449D01*
X69652877Y-28163716D01*
X69011336Y-28805257D01*
X68998901Y-28815221D01*
X68999089Y-28815448D01*
X68992980Y-28820501D01*
X68945016Y-28871578D01*
X68923866Y-28892727D01*
X68919560Y-28898277D01*
X68915714Y-28902779D01*
X68883417Y-28937174D01*
X68883411Y-28937183D01*
X68873651Y-28954935D01*
X68862803Y-28971450D01*
X68850386Y-28987458D01*
X68831645Y-29030764D01*
X68829034Y-29036094D01*
X68806305Y-29077439D01*
X68806303Y-29077444D01*
X68801267Y-29097059D01*
X68794864Y-29115762D01*
X68786819Y-29134352D01*
X68779437Y-29180956D01*
X68778233Y-29186768D01*
X68766500Y-29232468D01*
X68766500Y-29252723D01*
X68764949Y-29272433D01*
X68761780Y-29292442D01*
X68761780Y-29292443D01*
X68766220Y-29339417D01*
X68766500Y-29345350D01*
X68766500Y-29997990D01*
X68746498Y-30066111D01*
X68692842Y-30112604D01*
X68622568Y-30122708D01*
X68594984Y-30115482D01*
X68404656Y-30041749D01*
X68354170Y-30032311D01*
X68202718Y-30004000D01*
X67997282Y-30004000D01*
X67876119Y-30026649D01*
X67795343Y-30041749D01*
X67656617Y-30095492D01*
X67611101Y-30104000D01*
X57804564Y-30104000D01*
X57798385Y-30103696D01*
X57625003Y-30086620D01*
X57624997Y-30086620D01*
X57578535Y-30091196D01*
X57572356Y-30091500D01*
X52152641Y-30091500D01*
X52146461Y-30091196D01*
X52100002Y-30086620D01*
X52099998Y-30086620D01*
X52050453Y-30091500D01*
X51902305Y-30106090D01*
X51712195Y-30163759D01*
X51536995Y-30257405D01*
X51383430Y-30383433D01*
X51353803Y-30419532D01*
X51349650Y-30424115D01*
X48074115Y-33699650D01*
X48069532Y-33703803D01*
X48033433Y-33733430D01*
X47907405Y-33886995D01*
X47806546Y-34075686D01*
X47805544Y-34089274D01*
X47756091Y-34252295D01*
X47756089Y-34252307D01*
X47736620Y-34449995D01*
X47736620Y-34450002D01*
X47741196Y-34496464D01*
X47741500Y-34502643D01*
X47741500Y-36008820D01*
X47728291Y-36064982D01*
X47711928Y-36097843D01*
X47711923Y-36097856D01*
X47655706Y-36295437D01*
X47636751Y-36500000D01*
X35676234Y-36500000D01*
X35930829Y-36245405D01*
X35993141Y-36211379D01*
X36019924Y-36208500D01*
X36511101Y-36208500D01*
X36556616Y-36217007D01*
X36695345Y-36270751D01*
X36897282Y-36308500D01*
X36897285Y-36308500D01*
X37102715Y-36308500D01*
X37102718Y-36308500D01*
X37304655Y-36270751D01*
X37496218Y-36196540D01*
X37670882Y-36088392D01*
X37822701Y-35949991D01*
X37946503Y-35786050D01*
X37946504Y-35786046D01*
X37946506Y-35786045D01*
X38038070Y-35602160D01*
X38038069Y-35602160D01*
X38038074Y-35602152D01*
X38094294Y-35404559D01*
X38113249Y-35200000D01*
X38094294Y-34995441D01*
X38067138Y-34899999D01*
X38038076Y-34797855D01*
X38038075Y-34797854D01*
X38038074Y-34797848D01*
X38038070Y-34797839D01*
X37946506Y-34613954D01*
X37946502Y-34613949D01*
X37822702Y-34450009D01*
X37670883Y-34311608D01*
X37496223Y-34203463D01*
X37496222Y-34203462D01*
X37496218Y-34203460D01*
X37378867Y-34157998D01*
X37304656Y-34129249D01*
X37254170Y-34119811D01*
X37102718Y-34091500D01*
X36897282Y-34091500D01*
X36777096Y-34113967D01*
X36695343Y-34129249D01*
X36556617Y-34182992D01*
X36511101Y-34191500D01*
X35602641Y-34191500D01*
X35596461Y-34191196D01*
X35550002Y-34186620D01*
X35549998Y-34186620D01*
X35500453Y-34191500D01*
X35352305Y-34206090D01*
X35162195Y-34263759D01*
X34986995Y-34357405D01*
X34833430Y-34483433D01*
X34803803Y-34519532D01*
X34799650Y-34524115D01*
X33074115Y-36249650D01*
X33069532Y-36253803D01*
X33033433Y-36283430D01*
X32907405Y-36436995D01*
X32813676Y-36612350D01*
X32813305Y-36613692D01*
X32756091Y-36802295D01*
X32756089Y-36802307D01*
X32736620Y-36999995D01*
X32736620Y-37000002D01*
X32741196Y-37046464D01*
X32741500Y-37052643D01*
X32741500Y-44380091D01*
X32721498Y-44448212D01*
X32667842Y-44494705D01*
X32597568Y-44504809D01*
X32532988Y-44475315D01*
X32506381Y-44443092D01*
X32489040Y-44413056D01*
X32489036Y-44413051D01*
X32489034Y-44413048D01*
X32361255Y-44271135D01*
X32206752Y-44158882D01*
X32032288Y-44081206D01*
X31845487Y-44041500D01*
X31654513Y-44041500D01*
X31467711Y-44081206D01*
X31293247Y-44158882D01*
X31138744Y-44271135D01*
X31010965Y-44413048D01*
X31010958Y-44413058D01*
X30915476Y-44578438D01*
X30915473Y-44578445D01*
X30856457Y-44760072D01*
X30838738Y-44928670D01*
X30811725Y-44994327D01*
X30753504Y-45034957D01*
X30713428Y-45041500D01*
X30654513Y-45041500D01*
X30467711Y-45081206D01*
X30293247Y-45158882D01*
X30138744Y-45271135D01*
X30010965Y-45413048D01*
X30010958Y-45413058D01*
X29915476Y-45578438D01*
X29915473Y-45578444D01*
X29909168Y-45597848D01*
X29856457Y-45760072D01*
X29836496Y-45949999D01*
X20025500Y-45949999D01*
X20025500Y-44207712D01*
X23620471Y-44207712D01*
X23620472Y-44207713D01*
X23739170Y-44263063D01*
X23739180Y-44263067D01*
X23947570Y-44318905D01*
X24162499Y-44337709D01*
X24377429Y-44318905D01*
X24585826Y-44263065D01*
X24585827Y-44263065D01*
X24704526Y-44207713D01*
X24162500Y-43665685D01*
X24162499Y-43665685D01*
X23620471Y-44207712D01*
X20025500Y-44207712D01*
X20025500Y-42877842D01*
X20045502Y-42809721D01*
X20099158Y-42763228D01*
X20169432Y-42753124D01*
X20234012Y-42782618D01*
X20254137Y-42804755D01*
X20271321Y-42828887D01*
X20271322Y-42828888D01*
X20424464Y-42974909D01*
X20424465Y-42974910D01*
X20602475Y-43089308D01*
X20602480Y-43089311D01*
X20798914Y-43167952D01*
X20798920Y-43167953D01*
X21006694Y-43207999D01*
X21006703Y-43208000D01*
X21062500Y-43208000D01*
X21062500Y-42500000D01*
X21862500Y-42500000D01*
X21862500Y-43208000D01*
X21865279Y-43208000D01*
X21865300Y-43207998D01*
X22023133Y-43192927D01*
X22023148Y-43192924D01*
X22226177Y-43133310D01*
X22414254Y-43036349D01*
X22580585Y-42905544D01*
X22580591Y-42905539D01*
X22719156Y-42745625D01*
X22719157Y-42745624D01*
X22729152Y-42728313D01*
X22780534Y-42679319D01*
X22850247Y-42665881D01*
X22916159Y-42692267D01*
X22957341Y-42750099D01*
X22960721Y-42821015D01*
X22959979Y-42823921D01*
X22943595Y-42885068D01*
X22924790Y-43100000D01*
X22943594Y-43314929D01*
X22999432Y-43523319D01*
X22999434Y-43523325D01*
X23054785Y-43642026D01*
X23054786Y-43642027D01*
X23596813Y-43100000D01*
X23732202Y-43100000D01*
X23753262Y-43232969D01*
X23814382Y-43352923D01*
X23909577Y-43448118D01*
X24029531Y-43509238D01*
X24129049Y-43525000D01*
X24195951Y-43525000D01*
X24295469Y-43509238D01*
X24415423Y-43448118D01*
X24510618Y-43352923D01*
X24571738Y-43232969D01*
X24592798Y-43100000D01*
X24592798Y-43099999D01*
X24728185Y-43099999D01*
X25270213Y-43642026D01*
X25325565Y-43523327D01*
X25325565Y-43523326D01*
X25381405Y-43314929D01*
X25400209Y-43099999D01*
X25381405Y-42885070D01*
X25325567Y-42676680D01*
X25325563Y-42676670D01*
X25270213Y-42557972D01*
X25270212Y-42557971D01*
X24728185Y-43099999D01*
X24592798Y-43099999D01*
X24571738Y-42967031D01*
X24510618Y-42847077D01*
X24415423Y-42751882D01*
X24295469Y-42690762D01*
X24195951Y-42675000D01*
X24129049Y-42675000D01*
X24029531Y-42690762D01*
X23909577Y-42751882D01*
X23814382Y-42847077D01*
X23753262Y-42967031D01*
X23732202Y-43100000D01*
X23596813Y-43100000D01*
X23596814Y-43099999D01*
X23054786Y-42557971D01*
X22990191Y-42569362D01*
X22990164Y-42569209D01*
X22964894Y-42576408D01*
X22896938Y-42555855D01*
X22863278Y-42523499D01*
X22846545Y-42500000D01*
X21862500Y-42500000D01*
X21062500Y-42500000D01*
X21062500Y-42400000D01*
X21840302Y-42400000D01*
X21922750Y-42384588D01*
X22018110Y-42325543D01*
X22085701Y-42236038D01*
X22116395Y-42128160D01*
X22106046Y-42016479D01*
X22093999Y-41992286D01*
X23620471Y-41992286D01*
X24162499Y-42534314D01*
X24162500Y-42534314D01*
X24704527Y-41992286D01*
X24704526Y-41992285D01*
X24585825Y-41936934D01*
X24585819Y-41936932D01*
X24377429Y-41881094D01*
X24162500Y-41862290D01*
X23947570Y-41881094D01*
X23739180Y-41936932D01*
X23739174Y-41936934D01*
X23620471Y-41992286D01*
X22093999Y-41992286D01*
X22056052Y-41916078D01*
X21973166Y-41840516D01*
X21868580Y-41800000D01*
X21084698Y-41800000D01*
X21062500Y-41804149D01*
X21062500Y-40992000D01*
X21862500Y-40992000D01*
X21862500Y-41700000D01*
X22847902Y-41700000D01*
X22847902Y-41699999D01*
X22776422Y-41543484D01*
X22776420Y-41543480D01*
X22653678Y-41371112D01*
X22653677Y-41371111D01*
X22500535Y-41225090D01*
X22500534Y-41225089D01*
X22322524Y-41110691D01*
X22322519Y-41110688D01*
X22126085Y-41032047D01*
X22126079Y-41032046D01*
X21918305Y-40992000D01*
X21862500Y-40992000D01*
X21062500Y-40992000D01*
X21059721Y-40992000D01*
X21059699Y-40992001D01*
X20901866Y-41007072D01*
X20901851Y-41007075D01*
X20698822Y-41066689D01*
X20510745Y-41163650D01*
X20344414Y-41294455D01*
X20344408Y-41294460D01*
X20246725Y-41407194D01*
X20186998Y-41445578D01*
X20116002Y-41445578D01*
X20056276Y-41407195D01*
X20026783Y-41342614D01*
X20025500Y-41324682D01*
X20025500Y-35685554D01*
X27180129Y-35685554D01*
X27180130Y-35685555D01*
X27313971Y-35747966D01*
X27313976Y-35747968D01*
X27528625Y-35805482D01*
X27749999Y-35824850D01*
X27971374Y-35805482D01*
X28186023Y-35747968D01*
X28186032Y-35747964D01*
X28319868Y-35685555D01*
X28319868Y-35685554D01*
X27750000Y-35115685D01*
X27749999Y-35115685D01*
X27180129Y-35685554D01*
X20025500Y-35685554D01*
X20025500Y-34550000D01*
X26475149Y-34550000D01*
X26494517Y-34771374D01*
X26552031Y-34986023D01*
X26552033Y-34986028D01*
X26614444Y-35119869D01*
X27152415Y-34581898D01*
X27365051Y-34581898D01*
X27396266Y-34705162D01*
X27465813Y-34811612D01*
X27566157Y-34889713D01*
X27686422Y-34931000D01*
X27781569Y-34931000D01*
X27875421Y-34915339D01*
X27987251Y-34854820D01*
X28073371Y-34761269D01*
X28124448Y-34644823D01*
X28132306Y-34549999D01*
X28315685Y-34549999D01*
X28885554Y-35119868D01*
X28885555Y-35119868D01*
X28947964Y-34986032D01*
X28947968Y-34986023D01*
X29005482Y-34771374D01*
X29024850Y-34550000D01*
X29005482Y-34328625D01*
X28947968Y-34113976D01*
X28947966Y-34113971D01*
X28885555Y-33980130D01*
X28885554Y-33980129D01*
X28315685Y-34549999D01*
X28132306Y-34549999D01*
X28134949Y-34518102D01*
X28103734Y-34394838D01*
X28034187Y-34288388D01*
X27933843Y-34210287D01*
X27813578Y-34169000D01*
X27718431Y-34169000D01*
X27624579Y-34184661D01*
X27512749Y-34245180D01*
X27426629Y-34338731D01*
X27375552Y-34455177D01*
X27365051Y-34581898D01*
X27152415Y-34581898D01*
X27184314Y-34549999D01*
X26614444Y-33980129D01*
X26614443Y-33980130D01*
X26552035Y-34113967D01*
X26552031Y-34113976D01*
X26494517Y-34328625D01*
X26475149Y-34550000D01*
X20025500Y-34550000D01*
X20025500Y-33414444D01*
X27180129Y-33414444D01*
X27749999Y-33984314D01*
X27750000Y-33984314D01*
X28319869Y-33414444D01*
X28186028Y-33352033D01*
X28186023Y-33352031D01*
X27971374Y-33294517D01*
X27749999Y-33275149D01*
X27528625Y-33294517D01*
X27313976Y-33352031D01*
X27313967Y-33352035D01*
X27180130Y-33414443D01*
X27180129Y-33414444D01*
X20025500Y-33414444D01*
X20025500Y-30780471D01*
X26236897Y-30780471D01*
X26261382Y-31022802D01*
X26324417Y-31258052D01*
X26324420Y-31258062D01*
X26424376Y-31480154D01*
X26424383Y-31480166D01*
X26558668Y-31683346D01*
X26723818Y-31862365D01*
X26723819Y-31862366D01*
X26822394Y-31939594D01*
X26915541Y-32012570D01*
X27128878Y-32130077D01*
X27358301Y-32211840D01*
X27597870Y-32255742D01*
X27679038Y-32257377D01*
X27841375Y-32260647D01*
X27841375Y-32260646D01*
X27841377Y-32260647D01*
X27960556Y-32243733D01*
X28082513Y-32226427D01*
X28082514Y-32226426D01*
X28082518Y-32226426D01*
X28315048Y-32153967D01*
X28532943Y-32045146D01*
X28730560Y-31902781D01*
X31187936Y-29445405D01*
X31250248Y-29411380D01*
X31277031Y-29408500D01*
X38560801Y-29408500D01*
X38641672Y-29401971D01*
X38742768Y-29393810D01*
X38979248Y-29335523D01*
X38979249Y-29335522D01*
X38979251Y-29335522D01*
X39034396Y-29312026D01*
X39203316Y-29240056D01*
X39409168Y-29109883D01*
X39409175Y-29109877D01*
X39409176Y-29109877D01*
X39554317Y-28981293D01*
X39591474Y-28948375D01*
X39745510Y-28759714D01*
X39867289Y-28548787D01*
X39953656Y-28321057D01*
X40002374Y-28082421D01*
X40012181Y-27839061D01*
X39982823Y-27597280D01*
X39940245Y-27450283D01*
X39915063Y-27363344D01*
X39915059Y-27363333D01*
X39810651Y-27143298D01*
X39672293Y-26942852D01*
X39672285Y-26942844D01*
X39620881Y-26889327D01*
X39503575Y-26767198D01*
X39308865Y-26620883D01*
X39093205Y-26507696D01*
X39093201Y-26507694D01*
X39093200Y-26507694D01*
X38862179Y-26430568D01*
X38621788Y-26391501D01*
X38621782Y-26391500D01*
X38621779Y-26391500D01*
X38621775Y-26391500D01*
X30615210Y-26391500D01*
X30508624Y-26389352D01*
X30508622Y-26389352D01*
X30435067Y-26399791D01*
X30431284Y-26400211D01*
X30357240Y-26406188D01*
X30357235Y-26406189D01*
X30315871Y-26416383D01*
X30309646Y-26417589D01*
X30267485Y-26423573D01*
X30267482Y-26423574D01*
X30196570Y-26445669D01*
X30192907Y-26446691D01*
X30135412Y-26460863D01*
X30120752Y-26464477D01*
X30120750Y-26464477D01*
X30120749Y-26464478D01*
X30081561Y-26481173D01*
X30075609Y-26483362D01*
X30034949Y-26496034D01*
X29968490Y-26529224D01*
X29965037Y-26530820D01*
X29896685Y-26559943D01*
X29896679Y-26559946D01*
X29860688Y-26582706D01*
X29855164Y-26585821D01*
X29817060Y-26604852D01*
X29817058Y-26604853D01*
X29756765Y-26648286D01*
X29753612Y-26650416D01*
X29690835Y-26690114D01*
X29658950Y-26718360D01*
X29653999Y-26722320D01*
X29619437Y-26747220D01*
X29566909Y-26799748D01*
X29564139Y-26802356D01*
X29508525Y-26851624D01*
X29481584Y-26884621D01*
X29477330Y-26889327D01*
X26640339Y-29726319D01*
X26640338Y-29726320D01*
X26522054Y-29865379D01*
X26396051Y-30073812D01*
X26305118Y-30299756D01*
X26251605Y-30537358D01*
X26236897Y-30780471D01*
X20025500Y-30780471D01*
X20025500Y-24000004D01*
X21969767Y-24000004D01*
X21988675Y-24276436D01*
X21988676Y-24276442D01*
X21988677Y-24276450D01*
X21989623Y-24281001D01*
X22045052Y-24547743D01*
X22045056Y-24547756D01*
X22137846Y-24808847D01*
X22265333Y-25054882D01*
X22425122Y-25281252D01*
X22425125Y-25281256D01*
X22614255Y-25483764D01*
X22614254Y-25483764D01*
X22614258Y-25483767D01*
X22829205Y-25658639D01*
X23065961Y-25802614D01*
X23320116Y-25913009D01*
X23453526Y-25950388D01*
X23586929Y-25987767D01*
X23586937Y-25987769D01*
X23861438Y-26025499D01*
X23861452Y-26025500D01*
X24138548Y-26025500D01*
X24138561Y-26025499D01*
X24372240Y-25993379D01*
X24413063Y-25987769D01*
X24679884Y-25913009D01*
X24934039Y-25802614D01*
X25170795Y-25658639D01*
X25385742Y-25483767D01*
X25574875Y-25281256D01*
X25734670Y-25054876D01*
X25862153Y-24808847D01*
X25954946Y-24547750D01*
X26011323Y-24276450D01*
X26030233Y-24000004D01*
X79969767Y-24000004D01*
X79988675Y-24276436D01*
X79988676Y-24276442D01*
X79988677Y-24276450D01*
X79989623Y-24281001D01*
X80045052Y-24547743D01*
X80045056Y-24547756D01*
X80137846Y-24808847D01*
X80265333Y-25054882D01*
X80425122Y-25281252D01*
X80425125Y-25281256D01*
X80614255Y-25483764D01*
X80614254Y-25483764D01*
X80614258Y-25483767D01*
X80829205Y-25658639D01*
X81065961Y-25802614D01*
X81320116Y-25913009D01*
X81453526Y-25950388D01*
X81586929Y-25987767D01*
X81586937Y-25987769D01*
X81861438Y-26025499D01*
X81861452Y-26025500D01*
X82138548Y-26025500D01*
X82138561Y-26025499D01*
X82372240Y-25993379D01*
X82413063Y-25987769D01*
X82679884Y-25913009D01*
X82934039Y-25802614D01*
X83170795Y-25658639D01*
X83385742Y-25483767D01*
X83574875Y-25281256D01*
X83734670Y-25054876D01*
X83862153Y-24808847D01*
X83954946Y-24547750D01*
X84011323Y-24276450D01*
X84030233Y-24000000D01*
X84011323Y-23723550D01*
X83954946Y-23452250D01*
X83862153Y-23191153D01*
X83862153Y-23191152D01*
X83734666Y-22945117D01*
X83574877Y-22718747D01*
X83574875Y-22718744D01*
X83385744Y-22516235D01*
X83385745Y-22516235D01*
X83170797Y-22341363D01*
X83170795Y-22341361D01*
X82977382Y-22223744D01*
X82934036Y-22197384D01*
X82679885Y-22086991D01*
X82679875Y-22086988D01*
X82413070Y-22012232D01*
X82413062Y-22012230D01*
X82138561Y-21974500D01*
X82138548Y-21974500D01*
X81861452Y-21974500D01*
X81861438Y-21974500D01*
X81586937Y-22012230D01*
X81586929Y-22012232D01*
X81320124Y-22086988D01*
X81320114Y-22086991D01*
X81065963Y-22197384D01*
X80829202Y-22341363D01*
X80614255Y-22516235D01*
X80425122Y-22718747D01*
X80265333Y-22945117D01*
X80137846Y-23191152D01*
X80045056Y-23452243D01*
X80045052Y-23452256D01*
X79988676Y-23723557D01*
X79988675Y-23723563D01*
X79969767Y-23999995D01*
X79969767Y-24000004D01*
X26030233Y-24000004D01*
X26030233Y-24000000D01*
X26011323Y-23723550D01*
X25954946Y-23452250D01*
X25862153Y-23191153D01*
X25862153Y-23191152D01*
X25734666Y-22945117D01*
X25574877Y-22718747D01*
X25574875Y-22718744D01*
X25556108Y-22698649D01*
X51141500Y-22698649D01*
X51148009Y-22759196D01*
X51148011Y-22759204D01*
X51199110Y-22896202D01*
X51199112Y-22896207D01*
X51286738Y-23013261D01*
X51403792Y-23100887D01*
X51403794Y-23100888D01*
X51403796Y-23100889D01*
X51458900Y-23121442D01*
X51540795Y-23151988D01*
X51540803Y-23151990D01*
X51601350Y-23158499D01*
X51601355Y-23158499D01*
X51601362Y-23158500D01*
X51601368Y-23158500D01*
X53398632Y-23158500D01*
X53398638Y-23158500D01*
X53398645Y-23158499D01*
X53398649Y-23158499D01*
X53459196Y-23151990D01*
X53459199Y-23151989D01*
X53459201Y-23151989D01*
X53596204Y-23100889D01*
X53666399Y-23048342D01*
X53713261Y-23013261D01*
X53800886Y-22896208D01*
X53800885Y-22896208D01*
X53800889Y-22896204D01*
X53844999Y-22777939D01*
X53887545Y-22721107D01*
X53954066Y-22696296D01*
X54023440Y-22711388D01*
X54055753Y-22736635D01*
X54076529Y-22759204D01*
X54116762Y-22802908D01*
X54171331Y-22845381D01*
X54294424Y-22941189D01*
X54492426Y-23048342D01*
X54492427Y-23048342D01*
X54492428Y-23048343D01*
X54604227Y-23086723D01*
X54705365Y-23121444D01*
X54927431Y-23158500D01*
X54927435Y-23158500D01*
X55152565Y-23158500D01*
X55152569Y-23158500D01*
X55374635Y-23121444D01*
X55587574Y-23048342D01*
X55785576Y-22941189D01*
X55963240Y-22802906D01*
X56115722Y-22637268D01*
X56204518Y-22501354D01*
X56258520Y-22455268D01*
X56328868Y-22445692D01*
X56393225Y-22475669D01*
X56415480Y-22501353D01*
X56448607Y-22552058D01*
X56504275Y-22637265D01*
X56504279Y-22637270D01*
X56656762Y-22802908D01*
X56711331Y-22845381D01*
X56834424Y-22941189D01*
X57032426Y-23048342D01*
X57032427Y-23048342D01*
X57032428Y-23048343D01*
X57144227Y-23086723D01*
X57245365Y-23121444D01*
X57467431Y-23158500D01*
X57467435Y-23158500D01*
X57692565Y-23158500D01*
X57692569Y-23158500D01*
X57914635Y-23121444D01*
X58127574Y-23048342D01*
X58325576Y-22941189D01*
X58503240Y-22802906D01*
X58655722Y-22637268D01*
X58744519Y-22501353D01*
X58798518Y-22455268D01*
X58868866Y-22445692D01*
X58933224Y-22475668D01*
X58955482Y-22501356D01*
X59044275Y-22637265D01*
X59044279Y-22637270D01*
X59196762Y-22802908D01*
X59251331Y-22845381D01*
X59374424Y-22941189D01*
X59572426Y-23048342D01*
X59572427Y-23048342D01*
X59572428Y-23048343D01*
X59684227Y-23086723D01*
X59785365Y-23121444D01*
X60007431Y-23158500D01*
X60007435Y-23158500D01*
X60232565Y-23158500D01*
X60232569Y-23158500D01*
X60454635Y-23121444D01*
X60667574Y-23048342D01*
X60865576Y-22941189D01*
X61043240Y-22802906D01*
X61195722Y-22637268D01*
X61284519Y-22501353D01*
X61338518Y-22455268D01*
X61408866Y-22445692D01*
X61473224Y-22475668D01*
X61495482Y-22501356D01*
X61584275Y-22637265D01*
X61584279Y-22637270D01*
X61736762Y-22802908D01*
X61791331Y-22845381D01*
X61914424Y-22941189D01*
X62112426Y-23048342D01*
X62112427Y-23048342D01*
X62112428Y-23048343D01*
X62224227Y-23086723D01*
X62325365Y-23121444D01*
X62547431Y-23158500D01*
X62547435Y-23158500D01*
X62772565Y-23158500D01*
X62772569Y-23158500D01*
X62994635Y-23121444D01*
X63207574Y-23048342D01*
X63405576Y-22941189D01*
X63583240Y-22802906D01*
X63735722Y-22637268D01*
X63824518Y-22501354D01*
X63878520Y-22455268D01*
X63948868Y-22445692D01*
X64013225Y-22475669D01*
X64035480Y-22501353D01*
X64068607Y-22552058D01*
X64124275Y-22637265D01*
X64124279Y-22637270D01*
X64276762Y-22802908D01*
X64331331Y-22845381D01*
X64454424Y-22941189D01*
X64652426Y-23048342D01*
X64652427Y-23048342D01*
X64652428Y-23048343D01*
X64764227Y-23086723D01*
X64865365Y-23121444D01*
X65087431Y-23158500D01*
X65087435Y-23158500D01*
X65312565Y-23158500D01*
X65312569Y-23158500D01*
X65534635Y-23121444D01*
X65747574Y-23048342D01*
X65945576Y-22941189D01*
X66123240Y-22802906D01*
X66275722Y-22637268D01*
X66364518Y-22501354D01*
X66418520Y-22455268D01*
X66488868Y-22445692D01*
X66553225Y-22475669D01*
X66575480Y-22501353D01*
X66608607Y-22552058D01*
X66664275Y-22637265D01*
X66664279Y-22637270D01*
X66816762Y-22802908D01*
X66871331Y-22845381D01*
X66994424Y-22941189D01*
X67192426Y-23048342D01*
X67192427Y-23048342D01*
X67192428Y-23048343D01*
X67304227Y-23086723D01*
X67405365Y-23121444D01*
X67627431Y-23158500D01*
X67627435Y-23158500D01*
X67852565Y-23158500D01*
X67852569Y-23158500D01*
X68074635Y-23121444D01*
X68287574Y-23048342D01*
X68485576Y-22941189D01*
X68663240Y-22802906D01*
X68815722Y-22637268D01*
X68904518Y-22501354D01*
X68958520Y-22455268D01*
X69028868Y-22445692D01*
X69093225Y-22475669D01*
X69115480Y-22501353D01*
X69148607Y-22552058D01*
X69204275Y-22637265D01*
X69204279Y-22637270D01*
X69356762Y-22802908D01*
X69411331Y-22845381D01*
X69534424Y-22941189D01*
X69732426Y-23048342D01*
X69732427Y-23048342D01*
X69732428Y-23048343D01*
X69844227Y-23086723D01*
X69945365Y-23121444D01*
X70167431Y-23158500D01*
X70167435Y-23158500D01*
X70392565Y-23158500D01*
X70392569Y-23158500D01*
X70614635Y-23121444D01*
X70827574Y-23048342D01*
X71025576Y-22941189D01*
X71203240Y-22802906D01*
X71355722Y-22637268D01*
X71478860Y-22448791D01*
X71569296Y-22242616D01*
X71624564Y-22024368D01*
X71643156Y-21800000D01*
X71624564Y-21575632D01*
X71569296Y-21357384D01*
X71478860Y-21151209D01*
X71461500Y-21124637D01*
X71355724Y-20962734D01*
X71355720Y-20962729D01*
X71203237Y-20797091D01*
X71083367Y-20703792D01*
X71025576Y-20658811D01*
X70827574Y-20551658D01*
X70827572Y-20551657D01*
X70827571Y-20551656D01*
X70614639Y-20478557D01*
X70614630Y-20478555D01*
X70570476Y-20471187D01*
X70392569Y-20441500D01*
X70167431Y-20441500D01*
X70019211Y-20466233D01*
X69945369Y-20478555D01*
X69945360Y-20478557D01*
X69732428Y-20551656D01*
X69732426Y-20551658D01*
X69534426Y-20658810D01*
X69534424Y-20658811D01*
X69356762Y-20797091D01*
X69204279Y-20962729D01*
X69115483Y-21098643D01*
X69061479Y-21144731D01*
X68991131Y-21154306D01*
X68926774Y-21124329D01*
X68904517Y-21098643D01*
X68815720Y-20962729D01*
X68663237Y-20797091D01*
X68543367Y-20703792D01*
X68485576Y-20658811D01*
X68287574Y-20551658D01*
X68287572Y-20551657D01*
X68287571Y-20551656D01*
X68074639Y-20478557D01*
X68074630Y-20478555D01*
X68030476Y-20471187D01*
X67852569Y-20441500D01*
X67627431Y-20441500D01*
X67479210Y-20466233D01*
X67405369Y-20478555D01*
X67405360Y-20478557D01*
X67192428Y-20551656D01*
X67192426Y-20551658D01*
X66994426Y-20658810D01*
X66994424Y-20658811D01*
X66816762Y-20797091D01*
X66664279Y-20962729D01*
X66575483Y-21098643D01*
X66521479Y-21144731D01*
X66451131Y-21154306D01*
X66386774Y-21124329D01*
X66364517Y-21098643D01*
X66275720Y-20962729D01*
X66123237Y-20797091D01*
X66003367Y-20703792D01*
X65945576Y-20658811D01*
X65747574Y-20551658D01*
X65747572Y-20551657D01*
X65747571Y-20551656D01*
X65534639Y-20478557D01*
X65534630Y-20478555D01*
X65490476Y-20471187D01*
X65312569Y-20441500D01*
X65087431Y-20441500D01*
X64939210Y-20466233D01*
X64865369Y-20478555D01*
X64865360Y-20478557D01*
X64652428Y-20551656D01*
X64652426Y-20551658D01*
X64454426Y-20658810D01*
X64454424Y-20658811D01*
X64276762Y-20797091D01*
X64124279Y-20962729D01*
X64035483Y-21098643D01*
X63981479Y-21144731D01*
X63911131Y-21154306D01*
X63846774Y-21124329D01*
X63824517Y-21098643D01*
X63735720Y-20962729D01*
X63583237Y-20797091D01*
X63463367Y-20703792D01*
X63405576Y-20658811D01*
X63207574Y-20551658D01*
X63207572Y-20551657D01*
X63207571Y-20551656D01*
X62994639Y-20478557D01*
X62994630Y-20478555D01*
X62950476Y-20471187D01*
X62772569Y-20441500D01*
X62547431Y-20441500D01*
X62399211Y-20466233D01*
X62325369Y-20478555D01*
X62325360Y-20478557D01*
X62112428Y-20551656D01*
X62112426Y-20551658D01*
X61914426Y-20658810D01*
X61914424Y-20658811D01*
X61736762Y-20797091D01*
X61584279Y-20962729D01*
X61495483Y-21098643D01*
X61441479Y-21144731D01*
X61371131Y-21154306D01*
X61306774Y-21124329D01*
X61284517Y-21098643D01*
X61195720Y-20962729D01*
X61043237Y-20797091D01*
X60923367Y-20703792D01*
X60865576Y-20658811D01*
X60667574Y-20551658D01*
X60667572Y-20551657D01*
X60667571Y-20551656D01*
X60454639Y-20478557D01*
X60454630Y-20478555D01*
X60410476Y-20471187D01*
X60232569Y-20441500D01*
X60007431Y-20441500D01*
X59859211Y-20466233D01*
X59785369Y-20478555D01*
X59785360Y-20478557D01*
X59572428Y-20551656D01*
X59572426Y-20551658D01*
X59374426Y-20658810D01*
X59374424Y-20658811D01*
X59196762Y-20797091D01*
X59044279Y-20962729D01*
X58955483Y-21098643D01*
X58901479Y-21144731D01*
X58831131Y-21154306D01*
X58766774Y-21124329D01*
X58744517Y-21098643D01*
X58655720Y-20962729D01*
X58503237Y-20797091D01*
X58383367Y-20703792D01*
X58325576Y-20658811D01*
X58127574Y-20551658D01*
X58127572Y-20551657D01*
X58127571Y-20551656D01*
X57914639Y-20478557D01*
X57914630Y-20478555D01*
X57870476Y-20471187D01*
X57692569Y-20441500D01*
X57467431Y-20441500D01*
X57319210Y-20466233D01*
X57245369Y-20478555D01*
X57245360Y-20478557D01*
X57032428Y-20551656D01*
X57032426Y-20551658D01*
X56834426Y-20658810D01*
X56834424Y-20658811D01*
X56656762Y-20797091D01*
X56504279Y-20962729D01*
X56415483Y-21098643D01*
X56361479Y-21144731D01*
X56291131Y-21154306D01*
X56226774Y-21124329D01*
X56204517Y-21098643D01*
X56115720Y-20962729D01*
X55963237Y-20797091D01*
X55843367Y-20703792D01*
X55785576Y-20658811D01*
X55587574Y-20551658D01*
X55587572Y-20551657D01*
X55587571Y-20551656D01*
X55374639Y-20478557D01*
X55374630Y-20478555D01*
X55330476Y-20471187D01*
X55152569Y-20441500D01*
X54927431Y-20441500D01*
X54779210Y-20466233D01*
X54705369Y-20478555D01*
X54705360Y-20478557D01*
X54492428Y-20551656D01*
X54492426Y-20551658D01*
X54294426Y-20658810D01*
X54294424Y-20658811D01*
X54116762Y-20797091D01*
X54055754Y-20863363D01*
X53994901Y-20899933D01*
X53923936Y-20897798D01*
X53865391Y-20857636D01*
X53844999Y-20822057D01*
X53800889Y-20703797D01*
X53800887Y-20703792D01*
X53713261Y-20586738D01*
X53596207Y-20499112D01*
X53596202Y-20499110D01*
X53459204Y-20448011D01*
X53459196Y-20448009D01*
X53398649Y-20441500D01*
X53398638Y-20441500D01*
X51601362Y-20441500D01*
X51601350Y-20441500D01*
X51540803Y-20448009D01*
X51540795Y-20448011D01*
X51403797Y-20499110D01*
X51403792Y-20499112D01*
X51286738Y-20586738D01*
X51199112Y-20703792D01*
X51199110Y-20703797D01*
X51148011Y-20840795D01*
X51148009Y-20840803D01*
X51141500Y-20901350D01*
X51141500Y-22698649D01*
X25556108Y-22698649D01*
X25385744Y-22516235D01*
X25385745Y-22516235D01*
X25170797Y-22341363D01*
X25170795Y-22341361D01*
X24977382Y-22223744D01*
X24934036Y-22197384D01*
X24679885Y-22086991D01*
X24679875Y-22086988D01*
X24413070Y-22012232D01*
X24413062Y-22012230D01*
X24138561Y-21974500D01*
X24138548Y-21974500D01*
X23861452Y-21974500D01*
X23861438Y-21974500D01*
X23586937Y-22012230D01*
X23586929Y-22012232D01*
X23320124Y-22086988D01*
X23320114Y-22086991D01*
X23065963Y-22197384D01*
X22829202Y-22341363D01*
X22614255Y-22516235D01*
X22425122Y-22718747D01*
X22265333Y-22945117D01*
X22137846Y-23191152D01*
X22045056Y-23452243D01*
X22045052Y-23452256D01*
X21988676Y-23723557D01*
X21988675Y-23723563D01*
X21969767Y-23999995D01*
X21969767Y-24000004D01*
X20025500Y-24000004D01*
X20025500Y-20151500D01*
X20045502Y-20083379D01*
X20099158Y-20036886D01*
X20151500Y-20025500D01*
X85848500Y-20025500D01*
X85916621Y-20045502D01*
G37*
%TD.AperFunction*%
%TD*%
M02*
