%TF.GenerationSoftware,KiCad,Pcbnew,7.0.6*%
%TF.CreationDate,2023-08-20T15:56:06-04:00*%
%TF.ProjectId,Crystal,43727973-7461-46c2-9e6b-696361645f70,rev?*%
%TF.SameCoordinates,Original*%
%TF.FileFunction,Copper,L1,Top*%
%TF.FilePolarity,Positive*%
%FSLAX46Y46*%
G04 Gerber Fmt 4.6, Leading zero omitted, Abs format (unit mm)*
G04 Created by KiCad (PCBNEW 7.0.6) date 2023-08-20 15:56:06*
%MOMM*%
%LPD*%
G01*
G04 APERTURE LIST*
G04 Aperture macros list*
%AMRoundRect*
0 Rectangle with rounded corners*
0 $1 Rounding radius*
0 $2 $3 $4 $5 $6 $7 $8 $9 X,Y pos of 4 corners*
0 Add a 4 corners polygon primitive as box body*
4,1,4,$2,$3,$4,$5,$6,$7,$8,$9,$2,$3,0*
0 Add four circle primitives for the rounded corners*
1,1,$1+$1,$2,$3*
1,1,$1+$1,$4,$5*
1,1,$1+$1,$6,$7*
1,1,$1+$1,$8,$9*
0 Add four rect primitives between the rounded corners*
20,1,$1+$1,$2,$3,$4,$5,0*
20,1,$1+$1,$4,$5,$6,$7,0*
20,1,$1+$1,$6,$7,$8,$9,0*
20,1,$1+$1,$8,$9,$2,$3,0*%
G04 Aperture macros list end*
%TA.AperFunction,SMDPad,CuDef*%
%ADD10R,1.200000X3.300000*%
%TD*%
%TA.AperFunction,SMDPad,CuDef*%
%ADD11RoundRect,0.250000X0.312500X0.625000X-0.312500X0.625000X-0.312500X-0.625000X0.312500X-0.625000X0*%
%TD*%
%TA.AperFunction,SMDPad,CuDef*%
%ADD12RoundRect,0.250000X0.550000X-1.500000X0.550000X1.500000X-0.550000X1.500000X-0.550000X-1.500000X0*%
%TD*%
%TA.AperFunction,SMDPad,CuDef*%
%ADD13RoundRect,0.250000X-0.625000X0.312500X-0.625000X-0.312500X0.625000X-0.312500X0.625000X0.312500X0*%
%TD*%
%TA.AperFunction,SMDPad,CuDef*%
%ADD14RoundRect,0.250000X-0.312500X-0.625000X0.312500X-0.625000X0.312500X0.625000X-0.312500X0.625000X0*%
%TD*%
%TA.AperFunction,SMDPad,CuDef*%
%ADD15RoundRect,0.250000X-0.375000X-0.625000X0.375000X-0.625000X0.375000X0.625000X-0.375000X0.625000X0*%
%TD*%
%TA.AperFunction,SMDPad,CuDef*%
%ADD16R,2.000000X1.500000*%
%TD*%
%TA.AperFunction,SMDPad,CuDef*%
%ADD17R,2.000000X3.800000*%
%TD*%
%TA.AperFunction,SMDPad,CuDef*%
%ADD18R,0.900000X1.700000*%
%TD*%
%TA.AperFunction,SMDPad,CuDef*%
%ADD19RoundRect,0.250000X-0.325000X-0.650000X0.325000X-0.650000X0.325000X0.650000X-0.325000X0.650000X0*%
%TD*%
%TA.AperFunction,SMDPad,CuDef*%
%ADD20RoundRect,0.225000X0.225000X0.375000X-0.225000X0.375000X-0.225000X-0.375000X0.225000X-0.375000X0*%
%TD*%
%TA.AperFunction,ComponentPad*%
%ADD21R,1.700000X1.700000*%
%TD*%
%TA.AperFunction,ComponentPad*%
%ADD22O,1.700000X1.700000*%
%TD*%
%TA.AperFunction,SMDPad,CuDef*%
%ADD23RoundRect,0.250000X0.550000X-1.250000X0.550000X1.250000X-0.550000X1.250000X-0.550000X-1.250000X0*%
%TD*%
%TA.AperFunction,ComponentPad*%
%ADD24C,1.524000*%
%TD*%
%TA.AperFunction,SMDPad,CuDef*%
%ADD25RoundRect,0.250000X0.325000X0.650000X-0.325000X0.650000X-0.325000X-0.650000X0.325000X-0.650000X0*%
%TD*%
%TA.AperFunction,SMDPad,CuDef*%
%ADD26R,1.600000X0.300000*%
%TD*%
%TA.AperFunction,SMDPad,CuDef*%
%ADD27RoundRect,0.225000X0.375000X-0.225000X0.375000X0.225000X-0.375000X0.225000X-0.375000X-0.225000X0*%
%TD*%
%TA.AperFunction,SMDPad,CuDef*%
%ADD28R,1.350000X0.400000*%
%TD*%
%TA.AperFunction,ComponentPad*%
%ADD29O,1.900000X1.200000*%
%TD*%
%TA.AperFunction,SMDPad,CuDef*%
%ADD30R,1.900000X1.200000*%
%TD*%
%TA.AperFunction,ComponentPad*%
%ADD31C,1.450000*%
%TD*%
%TA.AperFunction,SMDPad,CuDef*%
%ADD32R,1.900000X1.500000*%
%TD*%
%TA.AperFunction,SMDPad,CuDef*%
%ADD33R,0.900000X1.500000*%
%TD*%
%TA.AperFunction,SMDPad,CuDef*%
%ADD34R,0.700000X0.700000*%
%TD*%
%TA.AperFunction,SMDPad,CuDef*%
%ADD35RoundRect,0.100000X0.637500X0.100000X-0.637500X0.100000X-0.637500X-0.100000X0.637500X-0.100000X0*%
%TD*%
%TA.AperFunction,SMDPad,CuDef*%
%ADD36RoundRect,0.250000X0.650000X-1.000000X0.650000X1.000000X-0.650000X1.000000X-0.650000X-1.000000X0*%
%TD*%
%TA.AperFunction,SMDPad,CuDef*%
%ADD37R,1.700000X0.900000*%
%TD*%
%TA.AperFunction,SMDPad,CuDef*%
%ADD38RoundRect,0.250000X0.625000X-0.312500X0.625000X0.312500X-0.625000X0.312500X-0.625000X-0.312500X0*%
%TD*%
%TA.AperFunction,SMDPad,CuDef*%
%ADD39RoundRect,0.150000X0.512500X0.150000X-0.512500X0.150000X-0.512500X-0.150000X0.512500X-0.150000X0*%
%TD*%
%TA.AperFunction,SMDPad,CuDef*%
%ADD40RoundRect,0.250000X-0.650000X0.325000X-0.650000X-0.325000X0.650000X-0.325000X0.650000X0.325000X0*%
%TD*%
%TA.AperFunction,ViaPad*%
%ADD41C,0.800000*%
%TD*%
%TA.AperFunction,ViaPad*%
%ADD42C,1.200000*%
%TD*%
%TA.AperFunction,Conductor*%
%ADD43C,0.600000*%
%TD*%
%TA.AperFunction,Conductor*%
%ADD44C,0.250000*%
%TD*%
%TA.AperFunction,Conductor*%
%ADD45C,1.000000*%
%TD*%
%TA.AperFunction,Conductor*%
%ADD46C,0.800000*%
%TD*%
%TA.AperFunction,Conductor*%
%ADD47C,2.000000*%
%TD*%
G04 APERTURE END LIST*
D10*
%TO.P,L1,1,1*%
%TO.N,Net-(U1-SW)*%
X32025000Y-35875000D03*
%TO.P,L1,2,2*%
%TO.N,+5V*%
X35125000Y-35875000D03*
%TD*%
D11*
%TO.P,R12,1*%
%TO.N,GND*%
X61687500Y-43750000D03*
%TO.P,R12,2*%
%TO.N,/AIN3*%
X58762500Y-43750000D03*
%TD*%
D12*
%TO.P,CB1,1*%
%TO.N,+12V*%
X42500000Y-27900000D03*
%TO.P,CB1,2*%
%TO.N,GND*%
X42500000Y-22500000D03*
%TD*%
D13*
%TO.P,R9,1*%
%TO.N,/AIN2*%
X56275000Y-53950000D03*
%TO.P,R9,2*%
%TO.N,Net-(AIN1-Pin_2)*%
X56275000Y-56875000D03*
%TD*%
D14*
%TO.P,R3,1*%
%TO.N,+3.3V*%
X73975000Y-27875000D03*
%TO.P,R3,2*%
%TO.N,/GPIO9*%
X76900000Y-27875000D03*
%TD*%
D15*
%TO.P,D2,1,K*%
%TO.N,Net-(D2-K)*%
X25762500Y-51600000D03*
%TO.P,D2,2,A*%
%TO.N,+5V*%
X28562500Y-51600000D03*
%TD*%
D16*
%TO.P,U2,1,GND*%
%TO.N,GND*%
X46150000Y-45550000D03*
%TO.P,U2,2,VO*%
%TO.N,+3.3V*%
X46150000Y-43250000D03*
D17*
X39850000Y-43250000D03*
D16*
%TO.P,U2,3,VI*%
%TO.N,+5V*%
X46150000Y-40950000D03*
%TD*%
D13*
%TO.P,R15,1*%
%TO.N,/AIN5*%
X48775000Y-53950000D03*
%TO.P,R15,2*%
%TO.N,Net-(AIN1-Pin_5)*%
X48775000Y-56875000D03*
%TD*%
D18*
%TO.P,BOOT1,1,1*%
%TO.N,GND*%
X73825000Y-22425000D03*
%TO.P,BOOT1,2,2*%
%TO.N,/GPIO9*%
X77225000Y-22425000D03*
%TD*%
D19*
%TO.P,C2,1*%
%TO.N,GND*%
X73937500Y-25375000D03*
%TO.P,C2,2*%
%TO.N,/GPIO9*%
X76887500Y-25375000D03*
%TD*%
D20*
%TO.P,D4,1,K*%
%TO.N,/AIN2*%
X56987500Y-46250000D03*
%TO.P,D4,2,A*%
%TO.N,GND*%
X53687500Y-46250000D03*
%TD*%
D13*
%TO.P,R13,1*%
%TO.N,/AIN4*%
X51275000Y-53950000D03*
%TO.P,R13,2*%
%TO.N,Net-(AIN1-Pin_4)*%
X51275000Y-56875000D03*
%TD*%
D11*
%TO.P,R10,1*%
%TO.N,GND*%
X61687500Y-46250000D03*
%TO.P,R10,2*%
%TO.N,/AIN2*%
X58762500Y-46250000D03*
%TD*%
%TO.P,R16,1*%
%TO.N,GND*%
X61687500Y-38750000D03*
%TO.P,R16,2*%
%TO.N,/AIN5*%
X58762500Y-38750000D03*
%TD*%
D21*
%TO.P,TTY1,1,Pin_1*%
%TO.N,+5V*%
X29950000Y-59725000D03*
D22*
%TO.P,TTY1,2,Pin_2*%
%TO.N,Net-(TTY1-Pin_2)*%
X32490000Y-59725000D03*
%TO.P,TTY1,3,Pin_3*%
%TO.N,Net-(TTY1-Pin_3)*%
X35030000Y-59725000D03*
%TO.P,TTY1,4,Pin_4*%
%TO.N,GND*%
X37570000Y-59725000D03*
%TD*%
D13*
%TO.P,R7,1*%
%TO.N,/AIN1*%
X58775000Y-53950000D03*
%TO.P,R7,2*%
%TO.N,Net-(AIN1-Pin_1)*%
X58775000Y-56875000D03*
%TD*%
D20*
%TO.P,D5,1,K*%
%TO.N,/AIN3*%
X56987500Y-43750000D03*
%TO.P,D5,2,A*%
%TO.N,GND*%
X53687500Y-43750000D03*
%TD*%
D13*
%TO.P,R6,1*%
%TO.N,Net-(U5-OE)*%
X68100000Y-26625000D03*
%TO.P,R6,2*%
%TO.N,+3.3V*%
X68100000Y-29550000D03*
%TD*%
D23*
%TO.P,C6,1*%
%TO.N,+5V*%
X39100000Y-35200000D03*
%TO.P,C6,2*%
%TO.N,GND*%
X39100000Y-30800000D03*
%TD*%
D21*
%TO.P,AIN1,1,Pin_1*%
%TO.N,Net-(AIN1-Pin_1)*%
X58825000Y-59725000D03*
D22*
%TO.P,AIN1,2,Pin_2*%
%TO.N,Net-(AIN1-Pin_2)*%
X56285000Y-59725000D03*
%TO.P,AIN1,3,Pin_3*%
%TO.N,Net-(AIN1-Pin_3)*%
X53745000Y-59725000D03*
%TO.P,AIN1,4,Pin_4*%
%TO.N,Net-(AIN1-Pin_4)*%
X51205000Y-59725000D03*
%TO.P,AIN1,5,Pin_5*%
%TO.N,Net-(AIN1-Pin_5)*%
X48665000Y-59725000D03*
%TO.P,AIN1,6,Pin_6*%
%TO.N,GND*%
X46125000Y-59725000D03*
%TD*%
D24*
%TO.P,V1,1,Pin_1*%
%TO.N,+12V*%
X27750000Y-30750000D03*
%TO.P,V1,2,Pin_2*%
%TO.N,GND*%
X27750000Y-34550000D03*
%TD*%
D11*
%TO.P,R8,1*%
%TO.N,GND*%
X61687500Y-48750000D03*
%TO.P,R8,2*%
%TO.N,/AIN1*%
X58762500Y-48750000D03*
%TD*%
D25*
%TO.P,C3,1*%
%TO.N,Net-(U1-BST)*%
X33650000Y-39500000D03*
%TO.P,C3,2*%
%TO.N,Net-(U1-SW)*%
X30700000Y-39500000D03*
%TD*%
D26*
%TO.P,U4,1,B2*%
%TO.N,Net-(TTY1-Pin_3)*%
X35450000Y-57035000D03*
%TO.P,U4,2,GND*%
%TO.N,GND*%
X35450000Y-56385000D03*
%TO.P,U4,3,VCCA*%
%TO.N,+3.3V*%
X35450000Y-55735000D03*
%TO.P,U4,4,A2*%
%TO.N,/RXD*%
X35450000Y-55085000D03*
%TO.P,U4,5,A1*%
%TO.N,/TXD*%
X32050000Y-55085000D03*
%TO.P,U4,6,OE*%
%TO.N,Net-(U4-OE)*%
X32050000Y-55735000D03*
%TO.P,U4,7,VCCB*%
%TO.N,+5V*%
X32050000Y-56385000D03*
%TO.P,U4,8,B1*%
%TO.N,Net-(TTY1-Pin_2)*%
X32050000Y-57035000D03*
%TD*%
D27*
%TO.P,D6,1,K*%
%TO.N,+5V*%
X26462500Y-47100000D03*
%TO.P,D6,2,A*%
%TO.N,Net-(D6-A)*%
X26462500Y-43800000D03*
%TD*%
D28*
%TO.P,J1,1,VBUS*%
%TO.N,Net-(D6-A)*%
X24162500Y-44300000D03*
%TO.P,J1,2,D-*%
%TO.N,/GPIO19*%
X24162500Y-44950000D03*
%TO.P,J1,3,D+*%
%TO.N,/GPIO18*%
X24162500Y-45600000D03*
%TO.P,J1,4,ID*%
%TO.N,unconnected-(J1-ID-Pad4)*%
X24162500Y-46250000D03*
%TO.P,J1,5,GND*%
%TO.N,GND*%
X24162500Y-46900000D03*
D29*
%TO.P,J1,6,Shield*%
X21462500Y-42100000D03*
D30*
X21462500Y-42700000D03*
D31*
X24162500Y-43100000D03*
D32*
X21462500Y-44600000D03*
X21462500Y-46600000D03*
D31*
X24162500Y-48100000D03*
D30*
X21462500Y-48500000D03*
D29*
X21462500Y-49100000D03*
%TD*%
D20*
%TO.P,D3,1,K*%
%TO.N,/AIN1*%
X56987500Y-48750000D03*
%TO.P,D3,2,A*%
%TO.N,GND*%
X53687500Y-48750000D03*
%TD*%
D23*
%TO.P,C7,1*%
%TO.N,+3.3V*%
X51250000Y-35200000D03*
%TO.P,C7,2*%
%TO.N,GND*%
X51250000Y-30800000D03*
%TD*%
D33*
%TO.P,U3,1,3V3*%
%TO.N,+3.3V*%
X78400000Y-36250000D03*
%TO.P,U3,2,EN/CHIP_PU*%
%TO.N,Net-(U3-EN{slash}CHIP_PU)*%
X76900000Y-36250000D03*
%TO.P,U3,3,GPIO4/ADC1_CH4*%
%TO.N,/AIN5*%
X75400000Y-36250000D03*
%TO.P,U3,4,GPIO5/ADC2_CH0*%
%TO.N,/GPIO5*%
X73900000Y-36250000D03*
%TO.P,U3,5,GPIO6*%
%TO.N,/GPIO6*%
X72400000Y-36250000D03*
%TO.P,U3,6,GPIO7*%
%TO.N,/GPIO7*%
X70900000Y-36250000D03*
%TO.P,U3,7,GPIO8*%
%TO.N,/GPIO8*%
X69400000Y-36250000D03*
%TO.P,U3,8,GPIO9*%
%TO.N,/GPIO9*%
X67900000Y-36250000D03*
%TO.P,U3,9,GND*%
%TO.N,GND*%
X66400000Y-36250000D03*
%TO.P,U3,10,GPIO10*%
%TO.N,/GPIO10*%
X66400000Y-53750000D03*
%TO.P,U3,11,GPIO20/U0RXD*%
%TO.N,/RXD*%
X67900000Y-53750000D03*
%TO.P,U3,12,GPIO21/U0TXD*%
%TO.N,/TXD*%
X69400000Y-53750000D03*
%TO.P,U3,13,GPIO18/USB_D-*%
%TO.N,/GPIO18*%
X70900000Y-53750000D03*
%TO.P,U3,14,GPIO19/USB_D+*%
%TO.N,/GPIO19*%
X72400000Y-53750000D03*
%TO.P,U3,15,GPIO3/ADC1_CH3*%
%TO.N,/AIN4*%
X73900000Y-53750000D03*
%TO.P,U3,16,GPIO2/ADC1_CH2*%
%TO.N,/AIN3*%
X75400000Y-53750000D03*
%TO.P,U3,17,GPIO1/ADC1_CH1/XTAL_32K_N*%
%TO.N,/AIN2*%
X76900000Y-53750000D03*
%TO.P,U3,18,GPIO0/ADC1_CH0/XTAL_32K_P*%
%TO.N,/AIN1*%
X78400000Y-53750000D03*
D34*
%TO.P,U3,19,GND*%
%TO.N,GND*%
X73300000Y-44860000D03*
X72200000Y-44860000D03*
X71100000Y-44860000D03*
X73300000Y-45910000D03*
X72200000Y-45910000D03*
X71100000Y-45910000D03*
X73300000Y-47060000D03*
X72200000Y-47060000D03*
X71100000Y-47060000D03*
%TD*%
D35*
%TO.P,U5,1,A1*%
%TO.N,/GPIO5*%
X63362500Y-32975000D03*
%TO.P,U5,2,VCCA*%
%TO.N,+3.3V*%
X63362500Y-32325000D03*
%TO.P,U5,3,A2*%
%TO.N,/GPIO6*%
X63362500Y-31675000D03*
%TO.P,U5,4,A3*%
%TO.N,/GPIO7*%
X63362500Y-31025000D03*
%TO.P,U5,5,A4*%
%TO.N,/GPIO8*%
X63362500Y-30375000D03*
%TO.P,U5,6,A5*%
%TO.N,/GPIO9*%
X63362500Y-29725000D03*
%TO.P,U5,7,A6*%
%TO.N,/GPIO10*%
X63362500Y-29075000D03*
%TO.P,U5,8,A7*%
%TO.N,/GPIO18*%
X63362500Y-28425000D03*
%TO.P,U5,9,A8*%
%TO.N,/GPIO19*%
X63362500Y-27775000D03*
%TO.P,U5,10,OE*%
%TO.N,Net-(U5-OE)*%
X63362500Y-27125000D03*
%TO.P,U5,11,GND*%
%TO.N,GND*%
X57637500Y-27125000D03*
%TO.P,U5,12,B8*%
%TO.N,Net-(GPIO1-Pin_8)*%
X57637500Y-27775000D03*
%TO.P,U5,13,B7*%
%TO.N,Net-(GPIO1-Pin_7)*%
X57637500Y-28425000D03*
%TO.P,U5,14,B6*%
%TO.N,Net-(GPIO1-Pin_6)*%
X57637500Y-29075000D03*
%TO.P,U5,15,B5*%
%TO.N,Net-(GPIO1-Pin_5)*%
X57637500Y-29725000D03*
%TO.P,U5,16,B4*%
%TO.N,Net-(GPIO1-Pin_4)*%
X57637500Y-30375000D03*
%TO.P,U5,17,B3*%
%TO.N,Net-(GPIO1-Pin_3)*%
X57637500Y-31025000D03*
%TO.P,U5,18,B2*%
%TO.N,Net-(GPIO1-Pin_2)*%
X57637500Y-31675000D03*
%TO.P,U5,19,VCCB*%
%TO.N,+5V*%
X57637500Y-32325000D03*
%TO.P,U5,20,B1*%
%TO.N,Net-(GPIO1-Pin_1)*%
X57637500Y-32975000D03*
%TD*%
D20*
%TO.P,D8,1,K*%
%TO.N,/AIN5*%
X56987500Y-38750000D03*
%TO.P,D8,2,A*%
%TO.N,GND*%
X53687500Y-38750000D03*
%TD*%
D36*
%TO.P,D1,1,A1*%
%TO.N,+12V*%
X48050000Y-27150000D03*
%TO.P,D1,2,A2*%
%TO.N,GND*%
X48050000Y-23150000D03*
%TD*%
D11*
%TO.P,R14,1*%
%TO.N,GND*%
X61687500Y-41250000D03*
%TO.P,R14,2*%
%TO.N,/AIN4*%
X58762500Y-41250000D03*
%TD*%
D37*
%TO.P,RESET1,1,1*%
%TO.N,GND*%
X83600000Y-28800000D03*
%TO.P,RESET1,2,2*%
%TO.N,Net-(U3-EN{slash}CHIP_PU)*%
X83600000Y-32200000D03*
%TD*%
D23*
%TO.P,C5,1*%
%TO.N,+5V*%
X45250000Y-35200000D03*
%TO.P,C5,2*%
%TO.N,GND*%
X45250000Y-30800000D03*
%TD*%
D38*
%TO.P,R1,1*%
%TO.N,+3.3V*%
X70600000Y-29575000D03*
%TO.P,R1,2*%
%TO.N,/GPIO8*%
X70600000Y-26650000D03*
%TD*%
D21*
%TO.P,GPIO1,1,Pin_1*%
%TO.N,Net-(GPIO1-Pin_1)*%
X52500000Y-21800000D03*
D22*
%TO.P,GPIO1,2,Pin_2*%
%TO.N,Net-(GPIO1-Pin_2)*%
X55040000Y-21800000D03*
%TO.P,GPIO1,3,Pin_3*%
%TO.N,Net-(GPIO1-Pin_3)*%
X57580000Y-21800000D03*
%TO.P,GPIO1,4,Pin_4*%
%TO.N,Net-(GPIO1-Pin_4)*%
X60120000Y-21800000D03*
%TO.P,GPIO1,5,Pin_5*%
%TO.N,Net-(GPIO1-Pin_5)*%
X62660000Y-21800000D03*
%TO.P,GPIO1,6,Pin_6*%
%TO.N,Net-(GPIO1-Pin_6)*%
X65200000Y-21800000D03*
%TO.P,GPIO1,7,Pin_7*%
%TO.N,Net-(GPIO1-Pin_7)*%
X67740000Y-21800000D03*
%TO.P,GPIO1,8,Pin_8*%
%TO.N,Net-(GPIO1-Pin_8)*%
X70280000Y-21800000D03*
%TD*%
D14*
%TO.P,R2,1*%
%TO.N,+3.3V*%
X73975000Y-31275000D03*
%TO.P,R2,2*%
%TO.N,Net-(U3-EN{slash}CHIP_PU)*%
X76900000Y-31275000D03*
%TD*%
D39*
%TO.P,U1,6,BST*%
%TO.N,Net-(U1-BST)*%
X32862500Y-32750000D03*
%TO.P,U1,5,SW*%
%TO.N,Net-(U1-SW)*%
X32862500Y-31800000D03*
%TO.P,U1,4,GND*%
%TO.N,GND*%
X32862500Y-30850000D03*
%TO.P,U1,3,IN*%
%TO.N,+12V*%
X35137500Y-30850000D03*
%TO.P,U1,2,EN*%
X35137500Y-31800000D03*
%TO.P,U1,1,FB*%
%TO.N,+5V*%
X35137500Y-32750000D03*
%TD*%
D23*
%TO.P,C4,1*%
%TO.N,+12V*%
X35150000Y-28200000D03*
%TO.P,C4,2*%
%TO.N,GND*%
X35150000Y-23800000D03*
%TD*%
D40*
%TO.P,C8,1*%
%TO.N,Net-(U5-OE)*%
X65625000Y-26625000D03*
%TO.P,C8,2*%
%TO.N,GND*%
X65625000Y-29575000D03*
%TD*%
D13*
%TO.P,R11,1*%
%TO.N,/AIN3*%
X53775000Y-53950000D03*
%TO.P,R11,2*%
%TO.N,Net-(AIN1-Pin_3)*%
X53775000Y-56875000D03*
%TD*%
D14*
%TO.P,R4,1*%
%TO.N,GND*%
X20950000Y-51600000D03*
%TO.P,R4,2*%
%TO.N,Net-(D2-K)*%
X23875000Y-51600000D03*
%TD*%
D20*
%TO.P,D7,1,K*%
%TO.N,/AIN4*%
X56987500Y-41250000D03*
%TO.P,D7,2,A*%
%TO.N,GND*%
X53687500Y-41250000D03*
%TD*%
D14*
%TO.P,R5,1*%
%TO.N,Net-(U4-OE)*%
X32287500Y-53150000D03*
%TO.P,R5,2*%
%TO.N,+3.3V*%
X35212500Y-53150000D03*
%TD*%
D19*
%TO.P,C1,1*%
%TO.N,GND*%
X73975000Y-33675000D03*
%TO.P,C1,2*%
%TO.N,Net-(U3-EN{slash}CHIP_PU)*%
X76925000Y-33675000D03*
%TD*%
D41*
%TO.N,GND*%
X55000000Y-34625000D03*
X55000000Y-32500000D03*
D42*
%TO.N,+5V*%
X33750000Y-46000000D03*
X37000000Y-35200000D03*
%TO.N,GND*%
X78500000Y-38625000D03*
D41*
X62900000Y-50000000D03*
D42*
X46150000Y-47500000D03*
D41*
X55325000Y-38750000D03*
X52500000Y-49500000D03*
X28462500Y-47500000D03*
D42*
X75525000Y-22425000D03*
X30875000Y-30800000D03*
D41*
X61750000Y-37125000D03*
D42*
X66250000Y-40250000D03*
X31500000Y-23800000D03*
D41*
X65600000Y-28125000D03*
X66400000Y-37625000D03*
X57750000Y-50125000D03*
D42*
X42200000Y-30800000D03*
D41*
X75400000Y-33700000D03*
X60525000Y-54250000D03*
X83600000Y-30500000D03*
D42*
X78500000Y-51500000D03*
X51250000Y-28250000D03*
X48250000Y-30800000D03*
X66250000Y-49250000D03*
X59750000Y-28375000D03*
D41*
%TO.N,/GPIO9*%
X67900000Y-37600000D03*
X75500000Y-27875000D03*
D42*
%TO.N,+12V*%
X38500000Y-27900000D03*
D41*
%TO.N,/AIN5*%
X60225000Y-38750000D03*
X68425000Y-38750000D03*
%TO.N,/GPIO19*%
X64050000Y-53200000D03*
X31750000Y-44950000D03*
%TO.N,/GPIO18*%
X65050000Y-54200000D03*
X30750000Y-45950000D03*
%TO.N,/GPIO8*%
X70600000Y-28112500D03*
X69400000Y-34900000D03*
%TO.N,/TXD*%
X32550000Y-51250000D03*
X66010000Y-51000000D03*
%TO.N,/RXD*%
X34250000Y-51310000D03*
X66000000Y-52250000D03*
D42*
%TO.N,+3.3V*%
X48750000Y-36500000D03*
D41*
X37850000Y-44250000D03*
X41850000Y-40250000D03*
X37850000Y-46250000D03*
X41850000Y-46250000D03*
X37850000Y-42250000D03*
D42*
X68100000Y-31112500D03*
D41*
X41850000Y-44250000D03*
X37850000Y-40250000D03*
X41850000Y-42250000D03*
%TD*%
D43*
%TO.N,+5V*%
X46150000Y-36100000D02*
X45250000Y-35200000D01*
X46150000Y-40950000D02*
X46150000Y-36100000D01*
D44*
X45250000Y-35200000D02*
X48300000Y-35200000D01*
X50500000Y-33000000D02*
X52000000Y-33000000D01*
X48300000Y-35200000D02*
X50500000Y-33000000D01*
X52000000Y-33000000D02*
X52500000Y-33500000D01*
D43*
%TO.N,GND*%
X30925000Y-30850000D02*
X30875000Y-30800000D01*
X32862500Y-30850000D02*
X30925000Y-30850000D01*
D45*
%TO.N,+3.3V*%
X50050000Y-35200000D02*
X48750000Y-36500000D01*
X51250000Y-35200000D02*
X50050000Y-35200000D01*
X47725000Y-43250000D02*
X46150000Y-43250000D01*
X48750000Y-42225000D02*
X47725000Y-43250000D01*
X48750000Y-36500000D02*
X48750000Y-42225000D01*
%TO.N,GND*%
X42200000Y-30800000D02*
X45250000Y-30800000D01*
X42200000Y-30800000D02*
X39100000Y-30800000D01*
X29500000Y-32175000D02*
X30875000Y-30800000D01*
X29475000Y-32175000D02*
X29500000Y-32175000D01*
X29475000Y-32825000D02*
X29475000Y-32175000D01*
X27750000Y-34550000D02*
X29475000Y-32825000D01*
D46*
%TO.N,Net-(U1-SW)*%
X31600000Y-35450000D02*
X32025000Y-35875000D01*
X31600000Y-32289340D02*
X31600000Y-35450000D01*
X32089340Y-31800000D02*
X31600000Y-32289340D01*
X32862500Y-31800000D02*
X32089340Y-31800000D01*
X32862500Y-31800000D02*
X33800000Y-31800000D01*
D43*
%TO.N,Net-(U1-BST)*%
X33550000Y-39400000D02*
X33650000Y-39500000D01*
X33550000Y-33437500D02*
X33550000Y-39400000D01*
X32862500Y-32750000D02*
X33550000Y-33437500D01*
D45*
%TO.N,+3.3V*%
X36750000Y-47350000D02*
X37850000Y-46250000D01*
X36750000Y-53150000D02*
X36750000Y-47350000D01*
%TO.N,+5V*%
X29925000Y-49825000D02*
X33750000Y-46000000D01*
X29925000Y-51600000D02*
X29925000Y-49825000D01*
D44*
X26462500Y-49500000D02*
X28562500Y-51600000D01*
D45*
X29925000Y-59700000D02*
X29925000Y-56360000D01*
X39100000Y-35200000D02*
X45250000Y-35200000D01*
D44*
X29950000Y-56385000D02*
X29925000Y-56360000D01*
D45*
X29950000Y-59725000D02*
X29925000Y-59700000D01*
D44*
X58700000Y-32698959D02*
X58326041Y-32325000D01*
D45*
X29925000Y-54560000D02*
X29925000Y-51600000D01*
X29925000Y-56360000D02*
X29925000Y-54560000D01*
D44*
X26462500Y-47100000D02*
X26462500Y-49500000D01*
D45*
X28562500Y-51600000D02*
X29925000Y-51600000D01*
D44*
X32050000Y-56385000D02*
X29950000Y-56385000D01*
X58451041Y-33500000D02*
X52750000Y-33500000D01*
X52500000Y-33500000D02*
X52750000Y-33500000D01*
X58326041Y-32325000D02*
X57637500Y-32325000D01*
X58451041Y-33500000D02*
X58700000Y-33251041D01*
X58700000Y-33251041D02*
X58700000Y-32698959D01*
D45*
%TO.N,GND*%
X48250000Y-30800000D02*
X45250000Y-30800000D01*
X23162500Y-49100000D02*
X24162500Y-48100000D01*
D44*
X35450000Y-56385000D02*
X36500000Y-56385000D01*
D45*
X40500000Y-22500000D02*
X42500000Y-22500000D01*
X51250000Y-30800000D02*
X48250000Y-30800000D01*
D44*
X24162500Y-46900000D02*
X24162500Y-48100000D01*
D45*
X21462500Y-42100000D02*
X21462500Y-42700000D01*
X44700000Y-22500000D02*
X45350000Y-23150000D01*
X35150000Y-23800000D02*
X39200000Y-23800000D01*
D44*
X37570000Y-57455000D02*
X37570000Y-59725000D01*
D45*
X21462500Y-48500000D02*
X21462500Y-49100000D01*
X35150000Y-23800000D02*
X31500000Y-23800000D01*
X21462500Y-42700000D02*
X21462500Y-44600000D01*
X23162500Y-42100000D02*
X24162500Y-43100000D01*
X42500000Y-22500000D02*
X44700000Y-22500000D01*
X21462500Y-46600000D02*
X21462500Y-48500000D01*
X21462500Y-42100000D02*
X23162500Y-42100000D01*
X66400000Y-36250000D02*
X66400000Y-37625000D01*
D44*
X57637500Y-27125000D02*
X58500000Y-27125000D01*
X58500000Y-27125000D02*
X59750000Y-28375000D01*
X36500000Y-56385000D02*
X37570000Y-57455000D01*
D45*
X21462500Y-49100000D02*
X23162500Y-49100000D01*
X39200000Y-23800000D02*
X40500000Y-22500000D01*
X21462500Y-44600000D02*
X21462500Y-46600000D01*
X45350000Y-23150000D02*
X48050000Y-23150000D01*
D44*
%TO.N,/GPIO9*%
X67900000Y-36250000D02*
X67900000Y-35500000D01*
X67250000Y-34850000D02*
X61989771Y-34850000D01*
X76900000Y-27875000D02*
X76900000Y-25387500D01*
X76900000Y-25387500D02*
X76887500Y-25375000D01*
X77225000Y-23425000D02*
X76887500Y-23762500D01*
X62673959Y-29725000D02*
X63362500Y-29725000D01*
X67900000Y-35500000D02*
X67250000Y-34850000D01*
X76887500Y-25375000D02*
X76887500Y-23762500D01*
X61989771Y-34850000D02*
X60950000Y-33810229D01*
X60950000Y-33810229D02*
X60950000Y-31448959D01*
X67900000Y-36250000D02*
X67900000Y-37600000D01*
X60950000Y-31448959D02*
X62673959Y-29725000D01*
X76900000Y-27875000D02*
X75500000Y-27875000D01*
X77225000Y-22425000D02*
X77225000Y-23425000D01*
D45*
%TO.N,Net-(U3-EN{slash}CHIP_PU)*%
X76900000Y-31275000D02*
X76900000Y-33650000D01*
D44*
X76900000Y-36600000D02*
X76900000Y-36250000D01*
X76900000Y-36250000D02*
X76900000Y-33675000D01*
X79225000Y-33425000D02*
X79225000Y-37275000D01*
X79225000Y-37275000D02*
X79175000Y-37325000D01*
X80450000Y-32200000D02*
X79225000Y-33425000D01*
X83600000Y-32200000D02*
X80450000Y-32200000D01*
X79175000Y-37325000D02*
X77625000Y-37325000D01*
D45*
X76900000Y-33650000D02*
X76925000Y-33675000D01*
D44*
X77625000Y-37325000D02*
X76900000Y-36600000D01*
D47*
%TO.N,+12V*%
X38500000Y-27900000D02*
X42500000Y-27900000D01*
X47300000Y-27900000D02*
X48050000Y-27150000D01*
X30600000Y-27900000D02*
X34850000Y-27900000D01*
X42500000Y-27900000D02*
X47300000Y-27900000D01*
X34850000Y-27900000D02*
X35150000Y-28200000D01*
X27750000Y-30750000D02*
X30600000Y-27900000D01*
X35450000Y-27900000D02*
X38500000Y-27900000D01*
D44*
%TO.N,Net-(U5-OE)*%
X68100000Y-26625000D02*
X63862500Y-26625000D01*
X63862500Y-26625000D02*
X63362500Y-27125000D01*
%TO.N,Net-(D2-K)*%
X25762500Y-51600000D02*
X23875000Y-51600000D01*
%TO.N,/AIN1*%
X78187906Y-53962094D02*
X78400000Y-53750000D01*
X75425000Y-57075000D02*
X78400000Y-54100000D01*
X61900000Y-57075000D02*
X75425000Y-57075000D01*
X56662500Y-49075000D02*
X56662500Y-51837500D01*
X78400000Y-54100000D02*
X78400000Y-53750000D01*
X56662500Y-51837500D02*
X58775000Y-53950000D01*
X56987500Y-48750000D02*
X56662500Y-49075000D01*
X58775000Y-53950000D02*
X61900000Y-57075000D01*
X56737500Y-48750000D02*
X58762500Y-48750000D01*
%TO.N,/AIN2*%
X56212500Y-47025000D02*
X56987500Y-46250000D01*
X56737500Y-46250000D02*
X58762500Y-46250000D01*
X56212500Y-53887500D02*
X56212500Y-47025000D01*
X65400000Y-56625000D02*
X64525000Y-56625000D01*
X58762500Y-46250000D02*
X59650000Y-47137500D01*
X76900000Y-53750000D02*
X76900000Y-54050000D01*
X64527208Y-56625000D02*
X65400000Y-56625000D01*
X56275000Y-53950000D02*
X56212500Y-53887500D01*
X74325000Y-56625000D02*
X65400000Y-56625000D01*
X76900000Y-54162094D02*
X76900000Y-53750000D01*
X76900000Y-54050000D02*
X74325000Y-56625000D01*
X59650000Y-47137500D02*
X59650000Y-51747792D01*
X59650000Y-51747792D02*
X64527208Y-56625000D01*
%TO.N,/AIN3*%
X54524327Y-53950000D02*
X55762500Y-52711827D01*
X55762500Y-44975000D02*
X56987500Y-43750000D01*
X60100000Y-51561396D02*
X64713604Y-56175000D01*
X75400000Y-54150000D02*
X75400000Y-53750000D01*
X64713604Y-56175000D02*
X65625000Y-56175000D01*
X56737500Y-43750000D02*
X58762500Y-43750000D01*
X73275000Y-56175000D02*
X65625000Y-56175000D01*
X60100000Y-45087500D02*
X60100000Y-51561396D01*
X58762500Y-43750000D02*
X60100000Y-45087500D01*
X55762500Y-52711827D02*
X55762500Y-44975000D01*
X75400000Y-54050000D02*
X73275000Y-56175000D01*
X75400000Y-53750000D02*
X75400000Y-54050000D01*
X53775000Y-53950000D02*
X54524327Y-53950000D01*
%TO.N,Net-(D6-A)*%
X24162500Y-44300000D02*
X25962500Y-44300000D01*
X25962500Y-44300000D02*
X26462500Y-43800000D01*
%TO.N,/AIN4*%
X73900000Y-53750000D02*
X73900000Y-54050000D01*
X73900000Y-54050000D02*
X72225000Y-55725000D01*
X72225000Y-55725000D02*
X65525000Y-55725000D01*
X60550000Y-43037500D02*
X60550000Y-51375000D01*
X73900000Y-54100000D02*
X73900000Y-53750000D01*
X55312500Y-52262500D02*
X54512500Y-53062500D01*
X52162500Y-53062500D02*
X51275000Y-53950000D01*
X56987500Y-41250000D02*
X55312500Y-42925000D01*
X54512500Y-53062500D02*
X52162500Y-53062500D01*
X56737500Y-41250000D02*
X58762500Y-41250000D01*
X64900000Y-55725000D02*
X65525000Y-55725000D01*
X58762500Y-41250000D02*
X60550000Y-43037500D01*
X55312500Y-42925000D02*
X55312500Y-52262500D01*
X60550000Y-51375000D02*
X64900000Y-55725000D01*
%TO.N,/AIN5*%
X54862500Y-52062500D02*
X54312500Y-52612500D01*
X75400000Y-36250000D02*
X75400000Y-36600000D01*
X50112500Y-52612500D02*
X48775000Y-53950000D01*
X68425000Y-38750000D02*
X69850000Y-37325000D01*
X56737500Y-38750000D02*
X58762500Y-38750000D01*
X54862500Y-40875000D02*
X54862500Y-52062500D01*
X74675000Y-37325000D02*
X69850000Y-37325000D01*
X54312500Y-52612500D02*
X50112500Y-52612500D01*
X75400000Y-36600000D02*
X74675000Y-37325000D01*
X56987500Y-38750000D02*
X54862500Y-40875000D01*
X60225000Y-38750000D02*
X58762500Y-38750000D01*
%TO.N,Net-(GPIO1-Pin_8)*%
X56948959Y-27775000D02*
X56575000Y-27401041D01*
X59352386Y-25113198D02*
X59805584Y-24660000D01*
X57637500Y-27775000D02*
X56948959Y-27775000D01*
X58310761Y-25113198D02*
X59352386Y-25113198D01*
X59805584Y-24660000D02*
X61730000Y-24660000D01*
X61730000Y-24660000D02*
X62165000Y-24225000D01*
X56575000Y-27401041D02*
X56575000Y-26848959D01*
X67855000Y-24225000D02*
X70280000Y-21800000D01*
X56575000Y-26848959D02*
X58310761Y-25113198D01*
X62165000Y-24225000D02*
X67855000Y-24225000D01*
%TO.N,Net-(GPIO1-Pin_7)*%
X57637500Y-28425000D02*
X56948959Y-28425000D01*
X58124365Y-24663198D02*
X59165990Y-24663198D01*
X59619188Y-24210000D02*
X61522792Y-24210000D01*
X56125000Y-27601041D02*
X56125000Y-26662563D01*
X56948959Y-28425000D02*
X56125000Y-27601041D01*
X56125000Y-26662563D02*
X58124365Y-24663198D01*
X59165990Y-24663198D02*
X59619188Y-24210000D01*
X61957792Y-23775000D02*
X65765000Y-23775000D01*
X61522792Y-24210000D02*
X61957792Y-23775000D01*
X65765000Y-23775000D02*
X67740000Y-21800000D01*
%TO.N,Net-(GPIO1-Pin_6)*%
X55675000Y-27801041D02*
X55675000Y-26463198D01*
X57637500Y-29075000D02*
X56948959Y-29075000D01*
X61336396Y-23760000D02*
X61771396Y-23325000D01*
X58979594Y-24213198D02*
X59432792Y-23760000D01*
X57925000Y-24213198D02*
X58979594Y-24213198D01*
X63675000Y-23325000D02*
X65200000Y-21800000D01*
X59432792Y-23760000D02*
X61336396Y-23760000D01*
X61771396Y-23325000D02*
X63675000Y-23325000D01*
X56948959Y-29075000D02*
X55675000Y-27801041D01*
X55675000Y-26463198D02*
X57925000Y-24213198D01*
%TO.N,Net-(GPIO1-Pin_5)*%
X55225000Y-28038604D02*
X55225000Y-26213198D01*
X55225000Y-26213198D02*
X57675000Y-23763198D01*
X59250000Y-23310000D02*
X61150000Y-23310000D01*
X57675000Y-23763198D02*
X58793198Y-23763198D01*
X61150000Y-23310000D02*
X62660000Y-21800000D01*
X56911396Y-29725000D02*
X55225000Y-28038604D01*
X58793198Y-23763198D02*
X59248198Y-23308198D01*
X57637500Y-29725000D02*
X56911396Y-29725000D01*
X59248198Y-23308198D02*
X59250000Y-23310000D01*
%TO.N,Net-(GPIO1-Pin_4)*%
X57475000Y-23313198D02*
X58606802Y-23313198D01*
X56921751Y-30375000D02*
X55910875Y-29364124D01*
X55910875Y-29364124D02*
X55910875Y-29360875D01*
X54775000Y-26013198D02*
X57475000Y-23313198D01*
X58606802Y-23313198D02*
X60120000Y-21800000D01*
X54775000Y-28225000D02*
X54775000Y-26013198D01*
X55910875Y-29360875D02*
X54775000Y-28225000D01*
X57637500Y-30375000D02*
X56921751Y-30375000D01*
%TO.N,Net-(GPIO1-Pin_3)*%
X57637500Y-31025000D02*
X56935355Y-31025000D01*
X54325000Y-25826802D02*
X57580000Y-22571802D01*
X54325000Y-28414644D02*
X54325000Y-25826802D01*
X57580000Y-22571802D02*
X57580000Y-21800000D01*
X56935355Y-31025000D02*
X54325000Y-28414644D01*
%TO.N,Net-(GPIO1-Pin_2)*%
X56948959Y-31675000D02*
X53875000Y-28601040D01*
X57637500Y-31675000D02*
X56948959Y-31675000D01*
X53875000Y-28601040D02*
X53875000Y-25640406D01*
X53875000Y-25640406D02*
X56100000Y-23415406D01*
X56100000Y-23415406D02*
X56100000Y-22860000D01*
X56100000Y-22860000D02*
X55040000Y-21800000D01*
%TO.N,Net-(GPIO1-Pin_1)*%
X53425000Y-22725000D02*
X52500000Y-21800000D01*
X53425000Y-28787436D02*
X53425000Y-22725000D01*
X56498959Y-31861396D02*
X53425000Y-28787436D01*
X56948959Y-32975000D02*
X56498959Y-32525000D01*
X56498959Y-32525000D02*
X56498959Y-31861396D01*
X57637500Y-32975000D02*
X56948959Y-32975000D01*
%TO.N,/GPIO19*%
X63850000Y-36645584D02*
X63404416Y-36200000D01*
X59600000Y-30848959D02*
X59600000Y-34369417D01*
X64325000Y-53475000D02*
X64050000Y-53200000D01*
X65099695Y-55275000D02*
X64325000Y-54500305D01*
X64325000Y-54500305D02*
X64325000Y-53475000D01*
X72400000Y-53750000D02*
X72400000Y-54100000D01*
X63850000Y-36645584D02*
X63850000Y-53000000D01*
X63362500Y-27775000D02*
X62673959Y-27775000D01*
X71225000Y-55275000D02*
X65099695Y-55275000D01*
X24162500Y-44950000D02*
X31750000Y-44950000D01*
X72400000Y-54100000D02*
X71225000Y-55275000D01*
X63404416Y-36200000D02*
X61430583Y-36200000D01*
X62673959Y-27775000D02*
X59600000Y-30848959D01*
X59600000Y-34369417D02*
X61430583Y-36200000D01*
X63850000Y-53000000D02*
X64050000Y-53200000D01*
%TO.N,/GPIO18*%
X65050000Y-54250000D02*
X65625000Y-54825000D01*
X65050000Y-54200000D02*
X65050000Y-53050000D01*
X64300000Y-36459188D02*
X63590812Y-35750000D01*
X65050000Y-54200000D02*
X65050000Y-54250000D01*
X60050000Y-34183021D02*
X60050000Y-31048959D01*
X63590812Y-35750000D02*
X61616979Y-35750000D01*
X65625000Y-54825000D02*
X70125000Y-54825000D01*
X61616979Y-35750000D02*
X60050000Y-34183021D01*
X65050000Y-53050000D02*
X64300000Y-52300000D01*
X70125000Y-54825000D02*
X70900000Y-54050000D01*
X64300000Y-52300000D02*
X64300000Y-36459188D01*
X60050000Y-31048959D02*
X62673959Y-28425000D01*
X70900000Y-54050000D02*
X70900000Y-53750000D01*
X62673959Y-28425000D02*
X63362500Y-28425000D01*
X24162500Y-45600000D02*
X30400000Y-45600000D01*
X30400000Y-45600000D02*
X30750000Y-45950000D01*
%TO.N,/GPIO8*%
X61400000Y-33623833D02*
X62038083Y-34261917D01*
X62673959Y-30375000D02*
X61400000Y-31648959D01*
X69400000Y-36250000D02*
X69400000Y-34900000D01*
X61400000Y-31648959D02*
X61400000Y-33623833D01*
X69400000Y-34900000D02*
X68900000Y-34400000D01*
X62176167Y-34400000D02*
X62038083Y-34261917D01*
X63362500Y-30375000D02*
X62673959Y-30375000D01*
X68900000Y-34400000D02*
X62176167Y-34400000D01*
X70600000Y-28112500D02*
X70600000Y-26650000D01*
%TO.N,Net-(U4-OE)*%
X30750000Y-55485000D02*
X30750000Y-54687500D01*
X32050000Y-55735000D02*
X31000000Y-55735000D01*
X30750000Y-54687500D02*
X32287500Y-53150000D01*
X31000000Y-55735000D02*
X30750000Y-55485000D01*
%TO.N,Net-(TTY1-Pin_3)*%
X34250000Y-58945000D02*
X35030000Y-59725000D01*
X34250000Y-57500000D02*
X34250000Y-58945000D01*
X34715000Y-57035000D02*
X34250000Y-57500000D01*
X35450000Y-57035000D02*
X34715000Y-57035000D01*
%TO.N,Net-(TTY1-Pin_2)*%
X32785000Y-57035000D02*
X33250000Y-57500000D01*
X33250000Y-57500000D02*
X33250000Y-58965000D01*
X33250000Y-58965000D02*
X32490000Y-59725000D01*
X32050000Y-57035000D02*
X32785000Y-57035000D01*
%TO.N,/TXD*%
X33250000Y-54535000D02*
X33250000Y-51950000D01*
X69400000Y-53450000D02*
X69400000Y-53750000D01*
X32700000Y-55085000D02*
X33250000Y-54535000D01*
X66950000Y-51000000D02*
X69400000Y-53450000D01*
X33250000Y-51950000D02*
X32550000Y-51250000D01*
X66010000Y-51000000D02*
X66950000Y-51000000D01*
X32050000Y-55085000D02*
X32700000Y-55085000D01*
%TO.N,/RXD*%
X35450000Y-55085000D02*
X34800000Y-55085000D01*
X67900000Y-53750000D02*
X67900000Y-52850000D01*
X67900000Y-52850000D02*
X67300000Y-52250000D01*
X34800000Y-55085000D02*
X34250000Y-54535000D01*
X34250000Y-54535000D02*
X34250000Y-51310000D01*
X67300000Y-52250000D02*
X66000000Y-52250000D01*
%TO.N,/GPIO10*%
X60500000Y-31248959D02*
X60500000Y-33996625D01*
X62673959Y-29075000D02*
X60500000Y-31248959D01*
X64750000Y-52100000D02*
X66400000Y-53750000D01*
X63777208Y-35300000D02*
X61803375Y-35300000D01*
X60500000Y-33996625D02*
X61803375Y-35300000D01*
X64750000Y-36272792D02*
X64750000Y-52100000D01*
X63362500Y-29075000D02*
X62673959Y-29075000D01*
X64750000Y-36272792D02*
X63777208Y-35300000D01*
%TO.N,/GPIO7*%
X61850000Y-31848959D02*
X61850000Y-33437437D01*
X69600000Y-33950000D02*
X70900000Y-35250000D01*
X62673959Y-31025000D02*
X61850000Y-31848959D01*
X63362500Y-31025000D02*
X62673959Y-31025000D01*
X62362563Y-33950000D02*
X69600000Y-33950000D01*
X61850000Y-33437437D02*
X62362563Y-33950000D01*
X70900000Y-35250000D02*
X70900000Y-36250000D01*
%TO.N,/GPIO6*%
X72400000Y-36000000D02*
X69900000Y-33500000D01*
X62673959Y-31675000D02*
X63362500Y-31675000D01*
X62548959Y-33500000D02*
X62300000Y-33251041D01*
X62300000Y-33251041D02*
X62300000Y-32048959D01*
X69900000Y-33500000D02*
X62548959Y-33500000D01*
X72400000Y-36250000D02*
X72400000Y-36000000D01*
X62300000Y-32048959D02*
X62673959Y-31675000D01*
%TO.N,/GPIO5*%
X73075000Y-35125000D02*
X73900000Y-35950000D01*
X73900000Y-35950000D02*
X73900000Y-36250000D01*
X70086396Y-33050000D02*
X72161396Y-35125000D01*
X72161396Y-35125000D02*
X73075000Y-35125000D01*
X64475000Y-32975000D02*
X64550000Y-33050000D01*
X63362500Y-32975000D02*
X64475000Y-32975000D01*
X64550000Y-33050000D02*
X70086396Y-33050000D01*
D45*
%TO.N,+3.3V*%
X70575000Y-29550000D02*
X70600000Y-29575000D01*
X73975000Y-29575000D02*
X73975000Y-31275000D01*
X73975000Y-27875000D02*
X73975000Y-29575000D01*
D44*
X63362500Y-32325000D02*
X66887500Y-32325000D01*
D45*
X35212500Y-53150000D02*
X36750000Y-53150000D01*
X73975000Y-29575000D02*
X70600000Y-29575000D01*
D44*
X35450000Y-55735000D02*
X36500000Y-55735000D01*
X36500000Y-55735000D02*
X36750000Y-55485000D01*
X36750000Y-55485000D02*
X36750000Y-53150000D01*
X66887500Y-32325000D02*
X68100000Y-31112500D01*
D45*
X78400000Y-30493997D02*
X77481003Y-29575000D01*
X78400000Y-36250000D02*
X78400000Y-30493997D01*
X68100000Y-29550000D02*
X70575000Y-29550000D01*
X68100000Y-29550000D02*
X68100000Y-31112500D01*
X77481003Y-29575000D02*
X73975000Y-29575000D01*
D44*
%TO.N,Net-(AIN1-Pin_1)*%
X58825000Y-56925000D02*
X58825000Y-59725000D01*
X58775000Y-56875000D02*
X58825000Y-56925000D01*
%TO.N,Net-(AIN1-Pin_2)*%
X56285000Y-56885000D02*
X56285000Y-59725000D01*
X56275000Y-56875000D02*
X56285000Y-56885000D01*
%TO.N,Net-(AIN1-Pin_3)*%
X53745000Y-56905000D02*
X53775000Y-56875000D01*
X53745000Y-59725000D02*
X53745000Y-56905000D01*
%TO.N,Net-(AIN1-Pin_4)*%
X51205000Y-59725000D02*
X51205000Y-56945000D01*
X51205000Y-56945000D02*
X51275000Y-56875000D01*
%TO.N,Net-(AIN1-Pin_5)*%
X48665000Y-56985000D02*
X48775000Y-56875000D01*
X48665000Y-59725000D02*
X48665000Y-56985000D01*
%TD*%
%TA.AperFunction,Conductor*%
%TO.N,+5V*%
G36*
X34411143Y-32573596D02*
G01*
X34521169Y-32605562D01*
X34528634Y-32606149D01*
X34558494Y-32608500D01*
X34558498Y-32608500D01*
X35716506Y-32608500D01*
X35730076Y-32607431D01*
X35753831Y-32605562D01*
X35857614Y-32575410D01*
X35928261Y-32575510D01*
X35986802Y-32592700D01*
X36131471Y-32613500D01*
X36131475Y-32613500D01*
X37461570Y-32613500D01*
X37489024Y-32612028D01*
X37489024Y-32612027D01*
X37489032Y-32612027D01*
X37529492Y-32607677D01*
X37583746Y-32598885D01*
X37609943Y-32589113D01*
X37680758Y-32584047D01*
X37743068Y-32618068D01*
X38625000Y-33500000D01*
X47374376Y-33500000D01*
X47442497Y-33520002D01*
X47488990Y-33573658D01*
X47500375Y-33625624D01*
X47524108Y-41576466D01*
X47504310Y-41644646D01*
X47450793Y-41691299D01*
X47380550Y-41701612D01*
X47375740Y-41700841D01*
X47360823Y-41698150D01*
X47351706Y-41696505D01*
X47205642Y-41691288D01*
X47205641Y-41691288D01*
X47205638Y-41691288D01*
X47205636Y-41691288D01*
X47185039Y-41693502D01*
X47174468Y-41694639D01*
X47167736Y-41695000D01*
X45751000Y-41695000D01*
X45682879Y-41674998D01*
X45636386Y-41621342D01*
X45625000Y-41569000D01*
X45625000Y-37750000D01*
X45026910Y-37750000D01*
X45008979Y-37748718D01*
X44924000Y-37736500D01*
X35176000Y-37736500D01*
X35175990Y-37736500D01*
X35093938Y-37745322D01*
X35066851Y-37748234D01*
X35066847Y-37748234D01*
X35066845Y-37748235D01*
X35065950Y-37748380D01*
X35064150Y-37748524D01*
X35063497Y-37748595D01*
X35063495Y-37748577D01*
X35045810Y-37750000D01*
X34484500Y-37750000D01*
X34416379Y-37729998D01*
X34369886Y-37676342D01*
X34358500Y-37624000D01*
X34358500Y-33346406D01*
X34349119Y-33305307D01*
X34347935Y-33298334D01*
X34343217Y-33256457D01*
X34343217Y-33256453D01*
X34329293Y-33216662D01*
X34327338Y-33209874D01*
X34317959Y-33168782D01*
X34317959Y-33168780D01*
X34299661Y-33130784D01*
X34296968Y-33124282D01*
X34283043Y-33084485D01*
X34283041Y-33084482D01*
X34283041Y-33084481D01*
X34269313Y-33062633D01*
X34250000Y-32995597D01*
X34250000Y-32694596D01*
X34270002Y-32626475D01*
X34323658Y-32579982D01*
X34393932Y-32569878D01*
X34411143Y-32573596D01*
G37*
%TD.AperFunction*%
%TD*%
%TA.AperFunction,Conductor*%
%TO.N,+12V*%
G36*
X48892121Y-26420002D02*
G01*
X48938614Y-26473658D01*
X48950000Y-26526000D01*
X48950000Y-29524000D01*
X48929998Y-29592121D01*
X48876342Y-29638614D01*
X48824000Y-29650000D01*
X46684499Y-29650000D01*
X46616378Y-29629998D01*
X46569885Y-29576342D01*
X46558499Y-29524000D01*
X46558499Y-29499455D01*
X46547887Y-29395574D01*
X46547886Y-29395572D01*
X46492115Y-29227262D01*
X46399030Y-29076348D01*
X46399029Y-29076347D01*
X46399024Y-29076341D01*
X46273658Y-28950975D01*
X46273652Y-28950970D01*
X46122738Y-28857885D01*
X46038581Y-28829998D01*
X45954427Y-28802113D01*
X45954420Y-28802112D01*
X45850553Y-28791500D01*
X44649455Y-28791500D01*
X44545574Y-28802112D01*
X44377261Y-28857885D01*
X44226347Y-28950970D01*
X44226341Y-28950975D01*
X44100975Y-29076341D01*
X44100970Y-29076347D01*
X44007885Y-29227262D01*
X43952113Y-29395572D01*
X43952112Y-29395579D01*
X43941500Y-29499446D01*
X43941500Y-29524000D01*
X43921498Y-29592121D01*
X43867842Y-29638614D01*
X43815500Y-29650000D01*
X40534499Y-29650000D01*
X40466378Y-29629998D01*
X40419885Y-29576342D01*
X40408499Y-29524000D01*
X40408499Y-29499455D01*
X40397887Y-29395574D01*
X40397886Y-29395572D01*
X40342115Y-29227262D01*
X40249030Y-29076348D01*
X40249029Y-29076347D01*
X40249024Y-29076341D01*
X40123658Y-28950975D01*
X40123652Y-28950970D01*
X40123651Y-28950969D01*
X39972738Y-28857885D01*
X39888581Y-28829998D01*
X39804427Y-28802113D01*
X39804420Y-28802112D01*
X39700553Y-28791500D01*
X38499455Y-28791500D01*
X38395574Y-28802112D01*
X38227261Y-28857885D01*
X38076347Y-28950970D01*
X38076341Y-28950975D01*
X37950975Y-29076341D01*
X37950970Y-29076347D01*
X37857885Y-29227262D01*
X37802113Y-29395572D01*
X37802112Y-29395579D01*
X37791500Y-29499446D01*
X37791500Y-31756308D01*
X37771498Y-31824429D01*
X37754596Y-31845403D01*
X37536905Y-32063095D01*
X37474593Y-32097120D01*
X37447809Y-32100000D01*
X36131471Y-32100000D01*
X36063350Y-32079998D01*
X36058318Y-32076440D01*
X35913605Y-31990856D01*
X35753829Y-31944437D01*
X35716506Y-31941500D01*
X35716502Y-31941500D01*
X34834500Y-31941500D01*
X34766379Y-31921498D01*
X34719886Y-31867842D01*
X34708500Y-31815500D01*
X34708500Y-31704512D01*
X34702753Y-31677474D01*
X34700000Y-31651278D01*
X34700000Y-26526000D01*
X34720002Y-26457879D01*
X34773658Y-26411386D01*
X34826000Y-26400000D01*
X48824000Y-26400000D01*
X48892121Y-26420002D01*
G37*
%TD.AperFunction*%
%TD*%
%TA.AperFunction,Conductor*%
%TO.N,+3.3V*%
G36*
X44992121Y-38270002D02*
G01*
X45038614Y-38323658D01*
X45050000Y-38376000D01*
X45050000Y-39607096D01*
X45029998Y-39675217D01*
X44976342Y-39721710D01*
X44968034Y-39725151D01*
X44903795Y-39749111D01*
X44903792Y-39749112D01*
X44786738Y-39836738D01*
X44699112Y-39953792D01*
X44699110Y-39953797D01*
X44648011Y-40090795D01*
X44648009Y-40090803D01*
X44641500Y-40151350D01*
X44641500Y-41748649D01*
X44648009Y-41809196D01*
X44648011Y-41809204D01*
X44699110Y-41946202D01*
X44699112Y-41946207D01*
X44786738Y-42063261D01*
X44903792Y-42150887D01*
X44903794Y-42150888D01*
X44903796Y-42150889D01*
X44962875Y-42172924D01*
X45040795Y-42201988D01*
X45040803Y-42201990D01*
X45101350Y-42208499D01*
X45101355Y-42208499D01*
X45101362Y-42208500D01*
X45101368Y-42208500D01*
X47198632Y-42208500D01*
X47198638Y-42208500D01*
X47259201Y-42201989D01*
X47259201Y-42201988D01*
X47260531Y-42201846D01*
X47330400Y-42214452D01*
X47382362Y-42262830D01*
X47400000Y-42327124D01*
X47400000Y-44172875D01*
X47379998Y-44240996D01*
X47326342Y-44287489D01*
X47260533Y-44298153D01*
X47198652Y-44291501D01*
X47198643Y-44291500D01*
X47198638Y-44291500D01*
X45101362Y-44291500D01*
X45101350Y-44291500D01*
X45040803Y-44298009D01*
X45040795Y-44298011D01*
X44903797Y-44349110D01*
X44903792Y-44349112D01*
X44786738Y-44436738D01*
X44699112Y-44553792D01*
X44699110Y-44553797D01*
X44648011Y-44690795D01*
X44648009Y-44690803D01*
X44641500Y-44751350D01*
X44641500Y-46348649D01*
X44648009Y-46409196D01*
X44648011Y-46409204D01*
X44699110Y-46546202D01*
X44699112Y-46546207D01*
X44786738Y-46663261D01*
X44903792Y-46750887D01*
X44903794Y-46750887D01*
X44903796Y-46750889D01*
X44968034Y-46774849D01*
X45024868Y-46817394D01*
X45049679Y-46883914D01*
X45050000Y-46892903D01*
X45050000Y-47354099D01*
X45049731Y-47359915D01*
X45036751Y-47499999D01*
X45049731Y-47640083D01*
X45050000Y-47645899D01*
X45050000Y-48124000D01*
X45029998Y-48192121D01*
X44976342Y-48238614D01*
X44924000Y-48250000D01*
X35176000Y-48250000D01*
X35107879Y-48229998D01*
X35061386Y-48176342D01*
X35050000Y-48124000D01*
X35050000Y-38376000D01*
X35070002Y-38307879D01*
X35123658Y-38261386D01*
X35176000Y-38250000D01*
X44924000Y-38250000D01*
X44992121Y-38270002D01*
G37*
%TD.AperFunction*%
%TD*%
%TA.AperFunction,Conductor*%
%TO.N,GND*%
G36*
X41768340Y-20045502D02*
G01*
X41814833Y-20099158D01*
X41824937Y-20169432D01*
X41795443Y-20234012D01*
X41739852Y-20271105D01*
X41627474Y-20308342D01*
X41476660Y-20401365D01*
X41476654Y-20401370D01*
X41351370Y-20526654D01*
X41351365Y-20526660D01*
X41258342Y-20677474D01*
X41202606Y-20845678D01*
X41202605Y-20845681D01*
X41192000Y-20949483D01*
X41192000Y-22100000D01*
X43808000Y-22100000D01*
X43808000Y-20949483D01*
X43797394Y-20845681D01*
X43797393Y-20845678D01*
X43741657Y-20677474D01*
X43648634Y-20526660D01*
X43648629Y-20526654D01*
X43523345Y-20401370D01*
X43523339Y-20401365D01*
X43372525Y-20308342D01*
X43260148Y-20271105D01*
X43201777Y-20230691D01*
X43174521Y-20165134D01*
X43187034Y-20095249D01*
X43235344Y-20043223D01*
X43299781Y-20025500D01*
X85848500Y-20025500D01*
X85916621Y-20045502D01*
X85963114Y-20099158D01*
X85974500Y-20151500D01*
X85974500Y-35074000D01*
X85954498Y-35142121D01*
X85900842Y-35188614D01*
X85848500Y-35200000D01*
X79984500Y-35200000D01*
X79916379Y-35179998D01*
X79869886Y-35126342D01*
X79858500Y-35074000D01*
X79858500Y-33739594D01*
X79878502Y-33671473D01*
X79895405Y-33650498D01*
X80675500Y-32870404D01*
X80737812Y-32836379D01*
X80764595Y-32833500D01*
X82190113Y-32833500D01*
X82258234Y-32853502D01*
X82292275Y-32890064D01*
X82293711Y-32888990D01*
X82299110Y-32896202D01*
X82299111Y-32896204D01*
X82311566Y-32912842D01*
X82386738Y-33013261D01*
X82503792Y-33100887D01*
X82503794Y-33100888D01*
X82503796Y-33100889D01*
X82562875Y-33122924D01*
X82640795Y-33151988D01*
X82640803Y-33151990D01*
X82701350Y-33158499D01*
X82701355Y-33158499D01*
X82701362Y-33158500D01*
X82701368Y-33158500D01*
X84498632Y-33158500D01*
X84498638Y-33158500D01*
X84498645Y-33158499D01*
X84498649Y-33158499D01*
X84559196Y-33151990D01*
X84559199Y-33151989D01*
X84559201Y-33151989D01*
X84696204Y-33100889D01*
X84713397Y-33088019D01*
X84813261Y-33013261D01*
X84900887Y-32896207D01*
X84900887Y-32896206D01*
X84900889Y-32896204D01*
X84951989Y-32759201D01*
X84952795Y-32751709D01*
X84958499Y-32698649D01*
X84958500Y-32698632D01*
X84958500Y-31701367D01*
X84958499Y-31701350D01*
X84951990Y-31640803D01*
X84951988Y-31640795D01*
X84912571Y-31535116D01*
X84900889Y-31503796D01*
X84900888Y-31503794D01*
X84900887Y-31503792D01*
X84813261Y-31386738D01*
X84696207Y-31299112D01*
X84696202Y-31299110D01*
X84559204Y-31248011D01*
X84559196Y-31248009D01*
X84498649Y-31241500D01*
X84498638Y-31241500D01*
X82701362Y-31241500D01*
X82701350Y-31241500D01*
X82640803Y-31248009D01*
X82640795Y-31248011D01*
X82503797Y-31299110D01*
X82503792Y-31299112D01*
X82386738Y-31386738D01*
X82293711Y-31511010D01*
X82291918Y-31509668D01*
X82250493Y-31551091D01*
X82190113Y-31566500D01*
X80533854Y-31566500D01*
X80518012Y-31564750D01*
X80517985Y-31565044D01*
X80510092Y-31564297D01*
X80440029Y-31566500D01*
X80410144Y-31566500D01*
X80410140Y-31566500D01*
X80410129Y-31566501D01*
X80403190Y-31567377D01*
X80397277Y-31567843D01*
X80350111Y-31569325D01*
X80330650Y-31574979D01*
X80311304Y-31578985D01*
X80291204Y-31581525D01*
X80291203Y-31581525D01*
X80247335Y-31598893D01*
X80241720Y-31600815D01*
X80196413Y-31613978D01*
X80196404Y-31613982D01*
X80178962Y-31624297D01*
X80161215Y-31632991D01*
X80142383Y-31640447D01*
X80142381Y-31640448D01*
X80104214Y-31668178D01*
X80099254Y-31671436D01*
X80058636Y-31695459D01*
X80058633Y-31695461D01*
X80044312Y-31709783D01*
X80029283Y-31722619D01*
X80012893Y-31734527D01*
X79982813Y-31770886D01*
X79978817Y-31775277D01*
X79623594Y-32130499D01*
X79561282Y-32164525D01*
X79490467Y-32159460D01*
X79433631Y-32116913D01*
X79408820Y-32050393D01*
X79408499Y-32041404D01*
X79408499Y-31478971D01*
X79408499Y-30546618D01*
X79408801Y-30540479D01*
X79413380Y-30493997D01*
X79410182Y-30461530D01*
X79393910Y-30296304D01*
X79393908Y-30296292D01*
X79336242Y-30106197D01*
X79336241Y-30106193D01*
X79324972Y-30085111D01*
X79242595Y-29930993D01*
X79116568Y-29777429D01*
X79080463Y-29747798D01*
X79075893Y-29743656D01*
X78532237Y-29200000D01*
X82242000Y-29200000D01*
X82242000Y-29298597D01*
X82248505Y-29359093D01*
X82299555Y-29495964D01*
X82299555Y-29495965D01*
X82387095Y-29612904D01*
X82504034Y-29700444D01*
X82640906Y-29751494D01*
X82701402Y-29757999D01*
X82701415Y-29758000D01*
X83200000Y-29758000D01*
X83200000Y-29200000D01*
X84000000Y-29200000D01*
X84000000Y-29758000D01*
X84498585Y-29758000D01*
X84498597Y-29757999D01*
X84559093Y-29751494D01*
X84695964Y-29700444D01*
X84695965Y-29700444D01*
X84812904Y-29612904D01*
X84900444Y-29495965D01*
X84900444Y-29495964D01*
X84951494Y-29359093D01*
X84957999Y-29298597D01*
X84958000Y-29298585D01*
X84958000Y-29200000D01*
X84000000Y-29200000D01*
X83200000Y-29200000D01*
X82242000Y-29200000D01*
X78532237Y-29200000D01*
X78231337Y-28899100D01*
X78227192Y-28894526D01*
X78221282Y-28887325D01*
X78197571Y-28858432D01*
X78197461Y-28858342D01*
X78044007Y-28732405D01*
X78031704Y-28725829D01*
X77981056Y-28676077D01*
X77965346Y-28606840D01*
X77965750Y-28601924D01*
X77971000Y-28550545D01*
X77971000Y-28400000D01*
X82242000Y-28400000D01*
X83200000Y-28400000D01*
X83200000Y-27842000D01*
X84000000Y-27842000D01*
X84000000Y-28400000D01*
X84958000Y-28400000D01*
X84958000Y-28301414D01*
X84957999Y-28301402D01*
X84951494Y-28240906D01*
X84900444Y-28104035D01*
X84900444Y-28104034D01*
X84812904Y-27987095D01*
X84695965Y-27899555D01*
X84559093Y-27848505D01*
X84498597Y-27842000D01*
X84000000Y-27842000D01*
X83200000Y-27842000D01*
X82701402Y-27842000D01*
X82640906Y-27848505D01*
X82504035Y-27899555D01*
X82504034Y-27899555D01*
X82387095Y-27987095D01*
X82299555Y-28104034D01*
X82299555Y-28104035D01*
X82248505Y-28240906D01*
X82242000Y-28301402D01*
X82242000Y-28400000D01*
X77971000Y-28400000D01*
X77970999Y-27199456D01*
X77960387Y-27095574D01*
X77904615Y-26927262D01*
X77811530Y-26776348D01*
X77811529Y-26776347D01*
X77811524Y-26776341D01*
X77761778Y-26726595D01*
X77727752Y-26664283D01*
X77732817Y-26593468D01*
X77761778Y-26548405D01*
X77811524Y-26498658D01*
X77811530Y-26498652D01*
X77904615Y-26347738D01*
X77960387Y-26179426D01*
X77971000Y-26075545D01*
X77970999Y-24674456D01*
X77960387Y-24570574D01*
X77904615Y-24402262D01*
X77811530Y-24251348D01*
X77811529Y-24251347D01*
X77811524Y-24251341D01*
X77686158Y-24125975D01*
X77686152Y-24125970D01*
X77686152Y-24125969D01*
X77658943Y-24109187D01*
X77611467Y-24056403D01*
X77602289Y-24000004D01*
X79969767Y-24000004D01*
X79988675Y-24276436D01*
X79988676Y-24276442D01*
X79988677Y-24276450D01*
X80009128Y-24374866D01*
X80045052Y-24547743D01*
X80045056Y-24547756D01*
X80137846Y-24808847D01*
X80265333Y-25054882D01*
X80423161Y-25278474D01*
X80425125Y-25281256D01*
X80614255Y-25483764D01*
X80614254Y-25483764D01*
X80614258Y-25483767D01*
X80829205Y-25658639D01*
X81065961Y-25802614D01*
X81065963Y-25802615D01*
X81122704Y-25827261D01*
X81320116Y-25913009D01*
X81386636Y-25931647D01*
X81586929Y-25987767D01*
X81586937Y-25987769D01*
X81861438Y-26025499D01*
X81861452Y-26025500D01*
X82138548Y-26025500D01*
X82138561Y-26025499D01*
X82379537Y-25992377D01*
X82413063Y-25987769D01*
X82679884Y-25913009D01*
X82934039Y-25802614D01*
X83170795Y-25658639D01*
X83385742Y-25483767D01*
X83574875Y-25281256D01*
X83734670Y-25054876D01*
X83862153Y-24808847D01*
X83954946Y-24547750D01*
X84011323Y-24276450D01*
X84016517Y-24200516D01*
X84030233Y-24000004D01*
X84030233Y-23999995D01*
X84011324Y-23723563D01*
X84011323Y-23723557D01*
X84011323Y-23723550D01*
X83954946Y-23452250D01*
X83862153Y-23191153D01*
X83862153Y-23191152D01*
X83788014Y-23048073D01*
X83734670Y-22945124D01*
X83734668Y-22945122D01*
X83734666Y-22945117D01*
X83574877Y-22718747D01*
X83574875Y-22718744D01*
X83385744Y-22516235D01*
X83385745Y-22516235D01*
X83170797Y-22341363D01*
X83170795Y-22341361D01*
X82977382Y-22223744D01*
X82934036Y-22197384D01*
X82679885Y-22086991D01*
X82679875Y-22086988D01*
X82413070Y-22012232D01*
X82413062Y-22012230D01*
X82138561Y-21974500D01*
X82138548Y-21974500D01*
X81861452Y-21974500D01*
X81861438Y-21974500D01*
X81586937Y-22012230D01*
X81586929Y-22012232D01*
X81320124Y-22086988D01*
X81320114Y-22086991D01*
X81065963Y-22197384D01*
X80829202Y-22341363D01*
X80614255Y-22516235D01*
X80425122Y-22718747D01*
X80265333Y-22945117D01*
X80137846Y-23191152D01*
X80045056Y-23452243D01*
X80045052Y-23452256D01*
X80030460Y-23522479D01*
X79988910Y-23722433D01*
X79988676Y-23723557D01*
X79988675Y-23723563D01*
X79969767Y-23999995D01*
X79969767Y-24000004D01*
X77602289Y-24000004D01*
X77600064Y-23986328D01*
X77628356Y-23921213D01*
X77633218Y-23915721D01*
X77679984Y-23865920D01*
X77701135Y-23844770D01*
X77705440Y-23839219D01*
X77709271Y-23834732D01*
X77732150Y-23810368D01*
X77779966Y-23778567D01*
X77784195Y-23776989D01*
X77784201Y-23776989D01*
X77921204Y-23725889D01*
X77921799Y-23725444D01*
X78038261Y-23638261D01*
X78125887Y-23521207D01*
X78125887Y-23521206D01*
X78125889Y-23521204D01*
X78176989Y-23384201D01*
X78177120Y-23382988D01*
X78183499Y-23323649D01*
X78183500Y-23323632D01*
X78183500Y-21526367D01*
X78183499Y-21526350D01*
X78176990Y-21465803D01*
X78176988Y-21465795D01*
X78136553Y-21357387D01*
X78125889Y-21328796D01*
X78125888Y-21328794D01*
X78125887Y-21328792D01*
X78038261Y-21211738D01*
X77921207Y-21124112D01*
X77921202Y-21124110D01*
X77784204Y-21073011D01*
X77784196Y-21073009D01*
X77723649Y-21066500D01*
X77723638Y-21066500D01*
X76726362Y-21066500D01*
X76726350Y-21066500D01*
X76665803Y-21073009D01*
X76665795Y-21073011D01*
X76528797Y-21124110D01*
X76528792Y-21124112D01*
X76411738Y-21211738D01*
X76324112Y-21328792D01*
X76324110Y-21328797D01*
X76273011Y-21465795D01*
X76273009Y-21465803D01*
X76266500Y-21526350D01*
X76266500Y-23323649D01*
X76273009Y-23384195D01*
X76273011Y-23384202D01*
X76293681Y-23439621D01*
X76298745Y-23510436D01*
X76295078Y-23522479D01*
X76288767Y-23547060D01*
X76282365Y-23565760D01*
X76274319Y-23584354D01*
X76266937Y-23630956D01*
X76265733Y-23636768D01*
X76254000Y-23682468D01*
X76254000Y-23702723D01*
X76252449Y-23722433D01*
X76249280Y-23742442D01*
X76249280Y-23742443D01*
X76253720Y-23789417D01*
X76254000Y-23795350D01*
X76254000Y-23953780D01*
X76233998Y-24021901D01*
X76194147Y-24061021D01*
X76088847Y-24125970D01*
X76088841Y-24125975D01*
X75963475Y-24251341D01*
X75963470Y-24251347D01*
X75870385Y-24402262D01*
X75814613Y-24570572D01*
X75814612Y-24570579D01*
X75804000Y-24674446D01*
X75804000Y-26075544D01*
X75814612Y-26179425D01*
X75870385Y-26347738D01*
X75963470Y-26498652D01*
X75963475Y-26498658D01*
X76025722Y-26560905D01*
X76059748Y-26623217D01*
X76054683Y-26694032D01*
X76025722Y-26739095D01*
X75988475Y-26776341D01*
X75988470Y-26776347D01*
X75895385Y-26927261D01*
X75894049Y-26930128D01*
X75892609Y-26931762D01*
X75891533Y-26933508D01*
X75891234Y-26933323D01*
X75847129Y-26983411D01*
X75778851Y-27002869D01*
X75753659Y-27000120D01*
X75595488Y-26966500D01*
X75595487Y-26966500D01*
X75404513Y-26966500D01*
X75217707Y-27006206D01*
X75160113Y-27031849D01*
X75089746Y-27041283D01*
X75025450Y-27011176D01*
X74989262Y-26956377D01*
X74979615Y-26927262D01*
X74886530Y-26776348D01*
X74886529Y-26776347D01*
X74886524Y-26776341D01*
X74823924Y-26713741D01*
X74789898Y-26651429D01*
X74794963Y-26580614D01*
X74823924Y-26535551D01*
X74861129Y-26498345D01*
X74861134Y-26498339D01*
X74954157Y-26347525D01*
X75009893Y-26179321D01*
X75009894Y-26179318D01*
X75020499Y-26075516D01*
X75020500Y-26075516D01*
X75020500Y-25775000D01*
X72854500Y-25775000D01*
X72854500Y-26075516D01*
X72865105Y-26179318D01*
X72865106Y-26179321D01*
X72920842Y-26347525D01*
X73013865Y-26498339D01*
X73013870Y-26498345D01*
X73088575Y-26573050D01*
X73122601Y-26635362D01*
X73117536Y-26706177D01*
X73088578Y-26751238D01*
X73063472Y-26776344D01*
X73063470Y-26776347D01*
X72970385Y-26927262D01*
X72914613Y-27095572D01*
X72914612Y-27095579D01*
X72904000Y-27199446D01*
X72904000Y-27199454D01*
X72904000Y-27199455D01*
X72904000Y-27848505D01*
X72904001Y-28440500D01*
X72883999Y-28508621D01*
X72830343Y-28555114D01*
X72778001Y-28566500D01*
X71581164Y-28566500D01*
X71513043Y-28546498D01*
X71466550Y-28492842D01*
X71456446Y-28422568D01*
X71461331Y-28401564D01*
X71493542Y-28302428D01*
X71493650Y-28301402D01*
X71513504Y-28112500D01*
X71493542Y-27922572D01*
X71458917Y-27816010D01*
X71456890Y-27745046D01*
X71493552Y-27684247D01*
X71539120Y-27657471D01*
X71547735Y-27654616D01*
X71547735Y-27654615D01*
X71547738Y-27654615D01*
X71698652Y-27561530D01*
X71824030Y-27436152D01*
X71917115Y-27285238D01*
X71972887Y-27116926D01*
X71983500Y-27013045D01*
X71983499Y-26286956D01*
X71972887Y-26183074D01*
X71917115Y-26014762D01*
X71824030Y-25863848D01*
X71824029Y-25863847D01*
X71824024Y-25863841D01*
X71698658Y-25738475D01*
X71698652Y-25738470D01*
X71687629Y-25731671D01*
X71547738Y-25645385D01*
X71463582Y-25617499D01*
X71379427Y-25589613D01*
X71379420Y-25589612D01*
X71275553Y-25579000D01*
X69924455Y-25579000D01*
X69820574Y-25589612D01*
X69652261Y-25645385D01*
X69501347Y-25738470D01*
X69501341Y-25738475D01*
X69451595Y-25788222D01*
X69389283Y-25822248D01*
X69318468Y-25817183D01*
X69273405Y-25788222D01*
X69198658Y-25713475D01*
X69198652Y-25713470D01*
X69175541Y-25699215D01*
X69047738Y-25620385D01*
X68957767Y-25590572D01*
X68879427Y-25564613D01*
X68879420Y-25564612D01*
X68775553Y-25554000D01*
X67424455Y-25554000D01*
X67320574Y-25564612D01*
X67152261Y-25620385D01*
X67001347Y-25713470D01*
X67001345Y-25713472D01*
X66970342Y-25744474D01*
X66908029Y-25778497D01*
X66837213Y-25773430D01*
X66792154Y-25744471D01*
X66748658Y-25700975D01*
X66748652Y-25700970D01*
X66729093Y-25688906D01*
X66597738Y-25607885D01*
X66509565Y-25578668D01*
X66429427Y-25552113D01*
X66429420Y-25552112D01*
X66325553Y-25541500D01*
X64924455Y-25541500D01*
X64820574Y-25552112D01*
X64652261Y-25607885D01*
X64501347Y-25700970D01*
X64501341Y-25700975D01*
X64375975Y-25826341D01*
X64375970Y-25826347D01*
X64351205Y-25866498D01*
X64322518Y-25913008D01*
X64311021Y-25931647D01*
X64258235Y-25979125D01*
X64203780Y-25991500D01*
X63946354Y-25991500D01*
X63930512Y-25989750D01*
X63930485Y-25990044D01*
X63922592Y-25989297D01*
X63852529Y-25991500D01*
X63822644Y-25991500D01*
X63822640Y-25991500D01*
X63822629Y-25991501D01*
X63815690Y-25992377D01*
X63809777Y-25992843D01*
X63762614Y-25994325D01*
X63762607Y-25994327D01*
X63743149Y-25999979D01*
X63723804Y-26003985D01*
X63703706Y-26006525D01*
X63703697Y-26006527D01*
X63659831Y-26023894D01*
X63654216Y-26025817D01*
X63608908Y-26038981D01*
X63591464Y-26049297D01*
X63573718Y-26057990D01*
X63554882Y-26065448D01*
X63516709Y-26093181D01*
X63511748Y-26096440D01*
X63471138Y-26120458D01*
X63456811Y-26134784D01*
X63441785Y-26147617D01*
X63425395Y-26159525D01*
X63425393Y-26159527D01*
X63395313Y-26195886D01*
X63391317Y-26200277D01*
X63211998Y-26379595D01*
X63149686Y-26413621D01*
X63122903Y-26416500D01*
X62685116Y-26416500D01*
X62685107Y-26416501D01*
X62578046Y-26430595D01*
X62566150Y-26432162D01*
X62418121Y-26493477D01*
X62291013Y-26591013D01*
X62193477Y-26718121D01*
X62132161Y-26866151D01*
X62116500Y-26985113D01*
X62116500Y-27264883D01*
X62116501Y-27264892D01*
X62128361Y-27354978D01*
X62117421Y-27425127D01*
X62092534Y-27460519D01*
X59211336Y-30341716D01*
X59198901Y-30351680D01*
X59199089Y-30351907D01*
X59192980Y-30356960D01*
X59145016Y-30408037D01*
X59123866Y-30429186D01*
X59119560Y-30434736D01*
X59115715Y-30439237D01*
X59101354Y-30454531D01*
X59040144Y-30490501D01*
X58969204Y-30487667D01*
X58911057Y-30446930D01*
X58884165Y-30381224D01*
X58883499Y-30368284D01*
X58883499Y-30235116D01*
X58883498Y-30235107D01*
X58867838Y-30116151D01*
X58867838Y-30116150D01*
X58860410Y-30098219D01*
X58852819Y-30027634D01*
X58860408Y-30001786D01*
X58867838Y-29983850D01*
X58883500Y-29864885D01*
X58883499Y-29585116D01*
X58867838Y-29466150D01*
X58860409Y-29448217D01*
X58852821Y-29377628D01*
X58860411Y-29351779D01*
X58867838Y-29333849D01*
X58872479Y-29298597D01*
X58883500Y-29214885D01*
X58883499Y-28935116D01*
X58867838Y-28816150D01*
X58860409Y-28798217D01*
X58852821Y-28727628D01*
X58860411Y-28701779D01*
X58867838Y-28683849D01*
X58867989Y-28682701D01*
X58883500Y-28564885D01*
X58883499Y-28285116D01*
X58867838Y-28166150D01*
X58860410Y-28148219D01*
X58852819Y-28077634D01*
X58860408Y-28051786D01*
X58867838Y-28033850D01*
X58883500Y-27914885D01*
X58883499Y-27635116D01*
X58867838Y-27516150D01*
X58860138Y-27497562D01*
X58852550Y-27426974D01*
X58860140Y-27401124D01*
X58867350Y-27383718D01*
X58875081Y-27325000D01*
X58835569Y-27325000D01*
X58767448Y-27304998D01*
X58735607Y-27275704D01*
X58708988Y-27241014D01*
X58654816Y-27199446D01*
X58591632Y-27150962D01*
X58549765Y-27093624D01*
X58545544Y-27022753D01*
X58580309Y-26960850D01*
X58643022Y-26927569D01*
X58668337Y-26925000D01*
X58875079Y-26925000D01*
X58867350Y-26866281D01*
X58867349Y-26866280D01*
X58806087Y-26718378D01*
X58806082Y-26718370D01*
X58708630Y-26591369D01*
X58581629Y-26493917D01*
X58581621Y-26493912D01*
X58433718Y-26432649D01*
X58314849Y-26417000D01*
X58207054Y-26417000D01*
X58138933Y-26396998D01*
X58092440Y-26343342D01*
X58082336Y-26273068D01*
X58111830Y-26208488D01*
X58117959Y-26201904D01*
X58244311Y-26075553D01*
X58536261Y-25783602D01*
X58598574Y-25749577D01*
X58625357Y-25746698D01*
X59268533Y-25746698D01*
X59284374Y-25748447D01*
X59284402Y-25748154D01*
X59292288Y-25748898D01*
X59292295Y-25748900D01*
X59362344Y-25746698D01*
X59392242Y-25746698D01*
X59399204Y-25745817D01*
X59405105Y-25745352D01*
X59452275Y-25743871D01*
X59471733Y-25738217D01*
X59491080Y-25734211D01*
X59511183Y-25731672D01*
X59555065Y-25714297D01*
X59560660Y-25712381D01*
X59589202Y-25704089D01*
X59605977Y-25699217D01*
X59605981Y-25699215D01*
X59623412Y-25688906D01*
X59641166Y-25680207D01*
X59660003Y-25672750D01*
X59698172Y-25645016D01*
X59703130Y-25641760D01*
X59743748Y-25617740D01*
X59758071Y-25603416D01*
X59773110Y-25590572D01*
X59774430Y-25589613D01*
X59789493Y-25578670D01*
X59819574Y-25542306D01*
X59823553Y-25537933D01*
X60031084Y-25330404D01*
X60093398Y-25296379D01*
X60120180Y-25293500D01*
X61646147Y-25293500D01*
X61661988Y-25295249D01*
X61662016Y-25294956D01*
X61669902Y-25295700D01*
X61669909Y-25295702D01*
X61739958Y-25293500D01*
X61769856Y-25293500D01*
X61776818Y-25292619D01*
X61782719Y-25292154D01*
X61829889Y-25290673D01*
X61849347Y-25285019D01*
X61868694Y-25281013D01*
X61888797Y-25278474D01*
X61932679Y-25261099D01*
X61938274Y-25259183D01*
X61966816Y-25250891D01*
X61983591Y-25246019D01*
X61983595Y-25246017D01*
X62001026Y-25235708D01*
X62018780Y-25227009D01*
X62037617Y-25219552D01*
X62075786Y-25191818D01*
X62080744Y-25188562D01*
X62121362Y-25164542D01*
X62135685Y-25150218D01*
X62150724Y-25137374D01*
X62167107Y-25125472D01*
X62197188Y-25089108D01*
X62201167Y-25084735D01*
X62310903Y-24975000D01*
X72854500Y-24975000D01*
X75020500Y-24975000D01*
X75020500Y-24674483D01*
X75009894Y-24570681D01*
X75009893Y-24570678D01*
X74954157Y-24402474D01*
X74861134Y-24251660D01*
X74861129Y-24251654D01*
X74735845Y-24126370D01*
X74735839Y-24126365D01*
X74585025Y-24033342D01*
X74453711Y-23989830D01*
X74395340Y-23949416D01*
X74368084Y-23883859D01*
X74380597Y-23813974D01*
X74428907Y-23761948D01*
X74449312Y-23752169D01*
X74520965Y-23725444D01*
X74637904Y-23637904D01*
X74725444Y-23520965D01*
X74725444Y-23520964D01*
X74776494Y-23384093D01*
X74782999Y-23323597D01*
X74783000Y-23323585D01*
X74783000Y-22825000D01*
X72867000Y-22825000D01*
X72867000Y-23323597D01*
X72873505Y-23384093D01*
X72924555Y-23520964D01*
X72924555Y-23520965D01*
X73012095Y-23637904D01*
X73129034Y-23725444D01*
X73265906Y-23776494D01*
X73291584Y-23779255D01*
X73357177Y-23806423D01*
X73397669Y-23864741D01*
X73400204Y-23935692D01*
X73363977Y-23996751D01*
X73317753Y-24024136D01*
X73289978Y-24033340D01*
X73139160Y-24126365D01*
X73139154Y-24126370D01*
X73013870Y-24251654D01*
X73013865Y-24251660D01*
X72920842Y-24402474D01*
X72865106Y-24570678D01*
X72865105Y-24570681D01*
X72854500Y-24674483D01*
X72854500Y-24975000D01*
X62310903Y-24975000D01*
X62390500Y-24895404D01*
X62452814Y-24861379D01*
X62479596Y-24858500D01*
X67771147Y-24858500D01*
X67786988Y-24860249D01*
X67787016Y-24859956D01*
X67794902Y-24860700D01*
X67794909Y-24860702D01*
X67864958Y-24858500D01*
X67894856Y-24858500D01*
X67901818Y-24857619D01*
X67907719Y-24857154D01*
X67954889Y-24855673D01*
X67974347Y-24850019D01*
X67993694Y-24846013D01*
X68013797Y-24843474D01*
X68057679Y-24826099D01*
X68063274Y-24824183D01*
X68091816Y-24815891D01*
X68108591Y-24811019D01*
X68108595Y-24811017D01*
X68126026Y-24800708D01*
X68143780Y-24792009D01*
X68162617Y-24784552D01*
X68200786Y-24756818D01*
X68205744Y-24753562D01*
X68246362Y-24729542D01*
X68260685Y-24715218D01*
X68275724Y-24702374D01*
X68292107Y-24690472D01*
X68322193Y-24654103D01*
X68326161Y-24649741D01*
X69822206Y-23153697D01*
X69884516Y-23119673D01*
X69940218Y-23120617D01*
X69940224Y-23120586D01*
X69940436Y-23120621D01*
X69942241Y-23120652D01*
X69945350Y-23121439D01*
X69945365Y-23121444D01*
X70167431Y-23158500D01*
X70167435Y-23158500D01*
X70392565Y-23158500D01*
X70392569Y-23158500D01*
X70614635Y-23121444D01*
X70827574Y-23048342D01*
X71025576Y-22941189D01*
X71203240Y-22802906D01*
X71355722Y-22637268D01*
X71478860Y-22448791D01*
X71569296Y-22242616D01*
X71624404Y-22025000D01*
X72867000Y-22025000D01*
X73425000Y-22025000D01*
X73425000Y-21067000D01*
X74225000Y-21067000D01*
X74225000Y-22025000D01*
X74783000Y-22025000D01*
X74783000Y-21526414D01*
X74782999Y-21526402D01*
X74776494Y-21465906D01*
X74725444Y-21329035D01*
X74725444Y-21329034D01*
X74637904Y-21212095D01*
X74520965Y-21124555D01*
X74384093Y-21073505D01*
X74323597Y-21067000D01*
X74225000Y-21067000D01*
X73425000Y-21067000D01*
X73326402Y-21067000D01*
X73265906Y-21073505D01*
X73129035Y-21124555D01*
X73129034Y-21124555D01*
X73012095Y-21212095D01*
X72924555Y-21329034D01*
X72924555Y-21329035D01*
X72873505Y-21465906D01*
X72867000Y-21526402D01*
X72867000Y-22025000D01*
X71624404Y-22025000D01*
X71624564Y-22024368D01*
X71643156Y-21800000D01*
X71624564Y-21575632D01*
X71596778Y-21465906D01*
X71569297Y-21357387D01*
X71569296Y-21357386D01*
X71569296Y-21357384D01*
X71478860Y-21151209D01*
X71461446Y-21124555D01*
X71355724Y-20962734D01*
X71355720Y-20962729D01*
X71203237Y-20797091D01*
X71083367Y-20703792D01*
X71025576Y-20658811D01*
X70827574Y-20551658D01*
X70827572Y-20551657D01*
X70827571Y-20551656D01*
X70614639Y-20478557D01*
X70614630Y-20478555D01*
X70570476Y-20471187D01*
X70392569Y-20441500D01*
X70167431Y-20441500D01*
X70019211Y-20466233D01*
X69945369Y-20478555D01*
X69945360Y-20478557D01*
X69732428Y-20551656D01*
X69732426Y-20551658D01*
X69534426Y-20658810D01*
X69534424Y-20658811D01*
X69356762Y-20797091D01*
X69204279Y-20962729D01*
X69115483Y-21098643D01*
X69061479Y-21144731D01*
X68991131Y-21154306D01*
X68926774Y-21124329D01*
X68904517Y-21098643D01*
X68815720Y-20962729D01*
X68663237Y-20797091D01*
X68543367Y-20703792D01*
X68485576Y-20658811D01*
X68287574Y-20551658D01*
X68287572Y-20551657D01*
X68287571Y-20551656D01*
X68074639Y-20478557D01*
X68074630Y-20478555D01*
X68030476Y-20471187D01*
X67852569Y-20441500D01*
X67627431Y-20441500D01*
X67479210Y-20466233D01*
X67405369Y-20478555D01*
X67405360Y-20478557D01*
X67192428Y-20551656D01*
X67192426Y-20551658D01*
X66994426Y-20658810D01*
X66994424Y-20658811D01*
X66816762Y-20797091D01*
X66664279Y-20962729D01*
X66575483Y-21098643D01*
X66521479Y-21144731D01*
X66451131Y-21154306D01*
X66386774Y-21124329D01*
X66364517Y-21098643D01*
X66275720Y-20962729D01*
X66123237Y-20797091D01*
X66003367Y-20703792D01*
X65945576Y-20658811D01*
X65747574Y-20551658D01*
X65747572Y-20551657D01*
X65747571Y-20551656D01*
X65534639Y-20478557D01*
X65534630Y-20478555D01*
X65490476Y-20471187D01*
X65312569Y-20441500D01*
X65087431Y-20441500D01*
X64939210Y-20466233D01*
X64865369Y-20478555D01*
X64865360Y-20478557D01*
X64652428Y-20551656D01*
X64652426Y-20551658D01*
X64454426Y-20658810D01*
X64454424Y-20658811D01*
X64276762Y-20797091D01*
X64124279Y-20962729D01*
X64035483Y-21098643D01*
X63981479Y-21144731D01*
X63911131Y-21154306D01*
X63846774Y-21124329D01*
X63824517Y-21098643D01*
X63735720Y-20962729D01*
X63583237Y-20797091D01*
X63463367Y-20703792D01*
X63405576Y-20658811D01*
X63207574Y-20551658D01*
X63207572Y-20551657D01*
X63207571Y-20551656D01*
X62994639Y-20478557D01*
X62994630Y-20478555D01*
X62950476Y-20471187D01*
X62772569Y-20441500D01*
X62547431Y-20441500D01*
X62399211Y-20466233D01*
X62325369Y-20478555D01*
X62325360Y-20478557D01*
X62112428Y-20551656D01*
X62112426Y-20551658D01*
X61914426Y-20658810D01*
X61914424Y-20658811D01*
X61736762Y-20797091D01*
X61584279Y-20962729D01*
X61495483Y-21098643D01*
X61441479Y-21144731D01*
X61371131Y-21154306D01*
X61306774Y-21124329D01*
X61284517Y-21098643D01*
X61195720Y-20962729D01*
X61043237Y-20797091D01*
X60923367Y-20703792D01*
X60865576Y-20658811D01*
X60667574Y-20551658D01*
X60667572Y-20551657D01*
X60667571Y-20551656D01*
X60454639Y-20478557D01*
X60454630Y-20478555D01*
X60410476Y-20471187D01*
X60232569Y-20441500D01*
X60007431Y-20441500D01*
X59859211Y-20466233D01*
X59785369Y-20478555D01*
X59785360Y-20478557D01*
X59572428Y-20551656D01*
X59572426Y-20551658D01*
X59374426Y-20658810D01*
X59374424Y-20658811D01*
X59196762Y-20797091D01*
X59044279Y-20962729D01*
X58955483Y-21098643D01*
X58901479Y-21144731D01*
X58831131Y-21154306D01*
X58766774Y-21124329D01*
X58744517Y-21098643D01*
X58655720Y-20962729D01*
X58503237Y-20797091D01*
X58383367Y-20703792D01*
X58325576Y-20658811D01*
X58127574Y-20551658D01*
X58127572Y-20551657D01*
X58127571Y-20551656D01*
X57914639Y-20478557D01*
X57914630Y-20478555D01*
X57870476Y-20471187D01*
X57692569Y-20441500D01*
X57467431Y-20441500D01*
X57319210Y-20466233D01*
X57245369Y-20478555D01*
X57245360Y-20478557D01*
X57032428Y-20551656D01*
X57032426Y-20551658D01*
X56834426Y-20658810D01*
X56834424Y-20658811D01*
X56656762Y-20797091D01*
X56504279Y-20962729D01*
X56415483Y-21098643D01*
X56361479Y-21144731D01*
X56291131Y-21154306D01*
X56226774Y-21124329D01*
X56204517Y-21098643D01*
X56115720Y-20962729D01*
X55963237Y-20797091D01*
X55843367Y-20703792D01*
X55785576Y-20658811D01*
X55587574Y-20551658D01*
X55587572Y-20551657D01*
X55587571Y-20551656D01*
X55374639Y-20478557D01*
X55374630Y-20478555D01*
X55330476Y-20471187D01*
X55152569Y-20441500D01*
X54927431Y-20441500D01*
X54779210Y-20466233D01*
X54705369Y-20478555D01*
X54705360Y-20478557D01*
X54492428Y-20551656D01*
X54492426Y-20551658D01*
X54294426Y-20658810D01*
X54294424Y-20658811D01*
X54116762Y-20797091D01*
X54055754Y-20863363D01*
X53994901Y-20899933D01*
X53923936Y-20897798D01*
X53865391Y-20857636D01*
X53844999Y-20822057D01*
X53800889Y-20703797D01*
X53800887Y-20703792D01*
X53713261Y-20586738D01*
X53596207Y-20499112D01*
X53596202Y-20499110D01*
X53459204Y-20448011D01*
X53459196Y-20448009D01*
X53398649Y-20441500D01*
X53398638Y-20441500D01*
X51601362Y-20441500D01*
X51601350Y-20441500D01*
X51540803Y-20448009D01*
X51540795Y-20448011D01*
X51403797Y-20499110D01*
X51403792Y-20499112D01*
X51286738Y-20586738D01*
X51199112Y-20703792D01*
X51199110Y-20703797D01*
X51148011Y-20840795D01*
X51148009Y-20840803D01*
X51141500Y-20901350D01*
X51141500Y-22698649D01*
X51148009Y-22759196D01*
X51148011Y-22759204D01*
X51199110Y-22896202D01*
X51199112Y-22896207D01*
X51286738Y-23013261D01*
X51403792Y-23100887D01*
X51403794Y-23100888D01*
X51403796Y-23100889D01*
X51454157Y-23119673D01*
X51540795Y-23151988D01*
X51540803Y-23151990D01*
X51601350Y-23158499D01*
X51601355Y-23158499D01*
X51601362Y-23158500D01*
X52665500Y-23158500D01*
X52733621Y-23178502D01*
X52780114Y-23232158D01*
X52791500Y-23284500D01*
X52791500Y-28703582D01*
X52789751Y-28719424D01*
X52790044Y-28719452D01*
X52789297Y-28727344D01*
X52791500Y-28797407D01*
X52791500Y-28827286D01*
X52791501Y-28827307D01*
X52792377Y-28834247D01*
X52792843Y-28840160D01*
X52794325Y-28887323D01*
X52794326Y-28887328D01*
X52799979Y-28906786D01*
X52803987Y-28926138D01*
X52806526Y-28946236D01*
X52823892Y-28990096D01*
X52825815Y-28995712D01*
X52838981Y-29041026D01*
X52838982Y-29041030D01*
X52849294Y-29058467D01*
X52857988Y-29076215D01*
X52865444Y-29095045D01*
X52865450Y-29095056D01*
X52893177Y-29133219D01*
X52896437Y-29138182D01*
X52920460Y-29178801D01*
X52934779Y-29193120D01*
X52947617Y-29208150D01*
X52957156Y-29221279D01*
X52959528Y-29224543D01*
X52963071Y-29227474D01*
X52995886Y-29254621D01*
X53000267Y-29258607D01*
X55828555Y-32086895D01*
X55862580Y-32149205D01*
X55865459Y-32175988D01*
X55865459Y-32441146D01*
X55863710Y-32456988D01*
X55864003Y-32457016D01*
X55863257Y-32464907D01*
X55865459Y-32534957D01*
X55865459Y-32564851D01*
X55865460Y-32564872D01*
X55866337Y-32571820D01*
X55866803Y-32577732D01*
X55868285Y-32624888D01*
X55868286Y-32624893D01*
X55873936Y-32644339D01*
X55877945Y-32663697D01*
X55880484Y-32683793D01*
X55880484Y-32683794D01*
X55884571Y-32694116D01*
X55891050Y-32764816D01*
X55858278Y-32827796D01*
X55796658Y-32863060D01*
X55767419Y-32866500D01*
X52814595Y-32866500D01*
X52746474Y-32846498D01*
X52725499Y-32829595D01*
X52627280Y-32731376D01*
X52507242Y-32611337D01*
X52497279Y-32598902D01*
X52497053Y-32599090D01*
X52492000Y-32592982D01*
X52480677Y-32582349D01*
X52444711Y-32521136D01*
X52447550Y-32450196D01*
X52459690Y-32424351D01*
X52491656Y-32372526D01*
X52547393Y-32204321D01*
X52547394Y-32204318D01*
X52557999Y-32100516D01*
X52558000Y-32100516D01*
X52558000Y-31200000D01*
X49942000Y-31200000D01*
X49942000Y-32100516D01*
X49952605Y-32204318D01*
X49952606Y-32204321D01*
X50008344Y-32372531D01*
X50041200Y-32425799D01*
X50059937Y-32494279D01*
X50038677Y-32562017D01*
X50023054Y-32581040D01*
X48230938Y-34373156D01*
X48168626Y-34407182D01*
X48097811Y-34402117D01*
X48040975Y-34359570D01*
X48016164Y-34293050D01*
X48015844Y-34284437D01*
X48015499Y-34169000D01*
X48013873Y-33624091D01*
X48001978Y-33515730D01*
X47990593Y-33463764D01*
X47956086Y-33360343D01*
X47877068Y-33237388D01*
X47831683Y-33185011D01*
X47830772Y-33183900D01*
X47720117Y-33088019D01*
X47720114Y-33088017D01*
X47587165Y-33027301D01*
X47519053Y-33007302D01*
X47519046Y-33007300D01*
X47490111Y-33003140D01*
X47374376Y-32986500D01*
X47374372Y-32986500D01*
X46164458Y-32986500D01*
X46096337Y-32966498D01*
X46049844Y-32912842D01*
X46039740Y-32842568D01*
X46069234Y-32777988D01*
X46116623Y-32746368D01*
X46115873Y-32744760D01*
X46122521Y-32741659D01*
X46273339Y-32648634D01*
X46273345Y-32648629D01*
X46398629Y-32523345D01*
X46398634Y-32523339D01*
X46491657Y-32372525D01*
X46547393Y-32204321D01*
X46547394Y-32204318D01*
X46557999Y-32100516D01*
X46558000Y-32100516D01*
X46558000Y-31200000D01*
X43942000Y-31200000D01*
X43942000Y-32100516D01*
X43952605Y-32204318D01*
X43952606Y-32204321D01*
X44008342Y-32372525D01*
X44101365Y-32523339D01*
X44101370Y-32523345D01*
X44226654Y-32648629D01*
X44226660Y-32648634D01*
X44377478Y-32741659D01*
X44384127Y-32744760D01*
X44383304Y-32746524D01*
X44433544Y-32781307D01*
X44460802Y-32846862D01*
X44448290Y-32916748D01*
X44399982Y-32968775D01*
X44335542Y-32986500D01*
X40014458Y-32986500D01*
X39946337Y-32966498D01*
X39899844Y-32912842D01*
X39889740Y-32842568D01*
X39919234Y-32777988D01*
X39966623Y-32746368D01*
X39965873Y-32744760D01*
X39972521Y-32741659D01*
X40123339Y-32648634D01*
X40123345Y-32648629D01*
X40248629Y-32523345D01*
X40248634Y-32523339D01*
X40341657Y-32372525D01*
X40397393Y-32204321D01*
X40397394Y-32204318D01*
X40407999Y-32100516D01*
X40408000Y-32100516D01*
X40408000Y-31200000D01*
X38826000Y-31200000D01*
X38757879Y-31179998D01*
X38711386Y-31126342D01*
X38700000Y-31074000D01*
X38700000Y-30526000D01*
X38720002Y-30457879D01*
X38773658Y-30411386D01*
X38826000Y-30400000D01*
X40408000Y-30400000D01*
X40408000Y-30289500D01*
X40428002Y-30221379D01*
X40481658Y-30174886D01*
X40534000Y-30163500D01*
X43816000Y-30163500D01*
X43884121Y-30183502D01*
X43930614Y-30237158D01*
X43942000Y-30289500D01*
X43942000Y-30400000D01*
X46558000Y-30400000D01*
X49942000Y-30400000D01*
X50850000Y-30400000D01*
X50850000Y-28792000D01*
X51650000Y-28792000D01*
X51650000Y-30400000D01*
X52558000Y-30400000D01*
X52558000Y-29499483D01*
X52547394Y-29395681D01*
X52547393Y-29395678D01*
X52491657Y-29227474D01*
X52398634Y-29076660D01*
X52398629Y-29076654D01*
X52273345Y-28951370D01*
X52273339Y-28951365D01*
X52122525Y-28858342D01*
X51954321Y-28802606D01*
X51954318Y-28802605D01*
X51850516Y-28792000D01*
X51650000Y-28792000D01*
X50850000Y-28792000D01*
X50649483Y-28792000D01*
X50545681Y-28802605D01*
X50545678Y-28802606D01*
X50377474Y-28858342D01*
X50226660Y-28951365D01*
X50226654Y-28951370D01*
X50101370Y-29076654D01*
X50101365Y-29076660D01*
X50008342Y-29227474D01*
X49952606Y-29395678D01*
X49952605Y-29395681D01*
X49942000Y-29499483D01*
X49942000Y-30400000D01*
X46558000Y-30400000D01*
X46558000Y-30289500D01*
X46578002Y-30221379D01*
X46631658Y-30174886D01*
X46684000Y-30163500D01*
X48823994Y-30163500D01*
X48824000Y-30163500D01*
X48933149Y-30151766D01*
X48933158Y-30151764D01*
X48933159Y-30151764D01*
X48949303Y-30148251D01*
X48985491Y-30140380D01*
X49089657Y-30105710D01*
X49212612Y-30026692D01*
X49265011Y-29981288D01*
X49266101Y-29980393D01*
X49266270Y-29980198D01*
X49361982Y-29869739D01*
X49422698Y-29736790D01*
X49442700Y-29668669D01*
X49463500Y-29524000D01*
X49463500Y-27702619D01*
X49472612Y-27655576D01*
X49494882Y-27600243D01*
X49544136Y-27381548D01*
X49548394Y-27362643D01*
X49548394Y-27362642D01*
X49548395Y-27362638D01*
X49563102Y-27119525D01*
X49538618Y-26877201D01*
X49475581Y-26641942D01*
X49474599Y-26639760D01*
X49474290Y-26638322D01*
X49473879Y-26637168D01*
X49474031Y-26637113D01*
X49463500Y-26588052D01*
X49463500Y-26526005D01*
X49463499Y-26525991D01*
X49460932Y-26502113D01*
X49458859Y-26482836D01*
X49458499Y-26476103D01*
X49458499Y-26099455D01*
X49447887Y-25995574D01*
X49415632Y-25898234D01*
X49392115Y-25827262D01*
X49299030Y-25676348D01*
X49299029Y-25676347D01*
X49299024Y-25676341D01*
X49173658Y-25550975D01*
X49173652Y-25550970D01*
X49128855Y-25523339D01*
X49022738Y-25457885D01*
X48938581Y-25429998D01*
X48854427Y-25402113D01*
X48854420Y-25402112D01*
X48750553Y-25391500D01*
X47349455Y-25391500D01*
X47245574Y-25402112D01*
X47077261Y-25457885D01*
X46926347Y-25550970D01*
X46926341Y-25550975D01*
X46800975Y-25676341D01*
X46800970Y-25676347D01*
X46760687Y-25741657D01*
X46708263Y-25826648D01*
X46655479Y-25874125D01*
X46601024Y-25886500D01*
X43661372Y-25886500D01*
X43593251Y-25866498D01*
X43572281Y-25849599D01*
X43523652Y-25800970D01*
X43372738Y-25707885D01*
X43224121Y-25658639D01*
X43204427Y-25652113D01*
X43204420Y-25652112D01*
X43100553Y-25641500D01*
X41899455Y-25641500D01*
X41795574Y-25652112D01*
X41627261Y-25707885D01*
X41476347Y-25800970D01*
X41476346Y-25800971D01*
X41460135Y-25817183D01*
X41427721Y-25849596D01*
X41365412Y-25883620D01*
X41338628Y-25886500D01*
X36231989Y-25886500D01*
X36163868Y-25866498D01*
X36117375Y-25812842D01*
X36107271Y-25742568D01*
X36136765Y-25677988D01*
X36165841Y-25653260D01*
X36173336Y-25648636D01*
X36173345Y-25648629D01*
X36298629Y-25523345D01*
X36298634Y-25523339D01*
X36391657Y-25372525D01*
X36447393Y-25204321D01*
X36447394Y-25204318D01*
X36457999Y-25100516D01*
X36458000Y-25100516D01*
X36458000Y-24200000D01*
X33842000Y-24200000D01*
X33842000Y-25100516D01*
X33852605Y-25204318D01*
X33852606Y-25204321D01*
X33908342Y-25372525D01*
X34001365Y-25523339D01*
X34001370Y-25523345D01*
X34126654Y-25648629D01*
X34126660Y-25648634D01*
X34277475Y-25741657D01*
X34421730Y-25789458D01*
X34480102Y-25829872D01*
X34507358Y-25895428D01*
X34494845Y-25965313D01*
X34450226Y-26015056D01*
X34437392Y-26023304D01*
X34437386Y-26023309D01*
X34385019Y-26068685D01*
X34383907Y-26069597D01*
X34288018Y-26180260D01*
X34288016Y-26180263D01*
X34258780Y-26244281D01*
X34212287Y-26297936D01*
X34210314Y-26299178D01*
X34126353Y-26350966D01*
X34126341Y-26350975D01*
X34122722Y-26354595D01*
X34060410Y-26388621D01*
X34033627Y-26391500D01*
X30615210Y-26391500D01*
X30508624Y-26389352D01*
X30508622Y-26389352D01*
X30435067Y-26399791D01*
X30431284Y-26400211D01*
X30357240Y-26406188D01*
X30357235Y-26406189D01*
X30315871Y-26416383D01*
X30309646Y-26417589D01*
X30267485Y-26423573D01*
X30267482Y-26423574D01*
X30196570Y-26445669D01*
X30192907Y-26446691D01*
X30135412Y-26460863D01*
X30120752Y-26464477D01*
X30120750Y-26464477D01*
X30120749Y-26464478D01*
X30081561Y-26481173D01*
X30075609Y-26483362D01*
X30034949Y-26496034D01*
X29968490Y-26529224D01*
X29965037Y-26530820D01*
X29896685Y-26559943D01*
X29896679Y-26559946D01*
X29860688Y-26582706D01*
X29855164Y-26585821D01*
X29817060Y-26604852D01*
X29817058Y-26604853D01*
X29756765Y-26648286D01*
X29753612Y-26650416D01*
X29690835Y-26690114D01*
X29658950Y-26718360D01*
X29653999Y-26722320D01*
X29619437Y-26747220D01*
X29566909Y-26799748D01*
X29564139Y-26802356D01*
X29508525Y-26851624D01*
X29481584Y-26884621D01*
X29477330Y-26889327D01*
X26640339Y-29726319D01*
X26640338Y-29726320D01*
X26522054Y-29865379D01*
X26396051Y-30073812D01*
X26305118Y-30299756D01*
X26251605Y-30537358D01*
X26236897Y-30780471D01*
X26261382Y-31022802D01*
X26324417Y-31258052D01*
X26324420Y-31258062D01*
X26424376Y-31480154D01*
X26424383Y-31480166D01*
X26558668Y-31683346D01*
X26723818Y-31862365D01*
X26723819Y-31862366D01*
X26836372Y-31950545D01*
X26915541Y-32012570D01*
X27128878Y-32130077D01*
X27358301Y-32211840D01*
X27597870Y-32255742D01*
X27679038Y-32257377D01*
X27841375Y-32260647D01*
X27841375Y-32260646D01*
X27841377Y-32260647D01*
X27960556Y-32243733D01*
X28082513Y-32226427D01*
X28082514Y-32226426D01*
X28082518Y-32226426D01*
X28315048Y-32153967D01*
X28532943Y-32045146D01*
X28730560Y-31902781D01*
X30083341Y-30550000D01*
X31708372Y-30550000D01*
X32562500Y-30550000D01*
X32562499Y-30042000D01*
X32283542Y-30042001D01*
X32283543Y-30042001D01*
X32246249Y-30044934D01*
X32086599Y-30091318D01*
X31943498Y-30175948D01*
X31943496Y-30175949D01*
X31825949Y-30293496D01*
X31825948Y-30293498D01*
X31741318Y-30436598D01*
X31708372Y-30550000D01*
X30083341Y-30550000D01*
X31187936Y-29445405D01*
X31250248Y-29411380D01*
X31277031Y-29408500D01*
X33718314Y-29408500D01*
X33786435Y-29428502D01*
X33832928Y-29482158D01*
X33843662Y-29521696D01*
X33852112Y-29604424D01*
X33907885Y-29772738D01*
X34000970Y-29923652D01*
X34000975Y-29923658D01*
X34126341Y-30049024D01*
X34126345Y-30049027D01*
X34126348Y-30049030D01*
X34126350Y-30049031D01*
X34132103Y-30053580D01*
X34131205Y-30054714D01*
X34173252Y-30101457D01*
X34184659Y-30171532D01*
X34156369Y-30236649D01*
X34148726Y-30245013D01*
X34100538Y-30293201D01*
X34099229Y-30294889D01*
X34097869Y-30295870D01*
X34094942Y-30298798D01*
X34094469Y-30298325D01*
X34041667Y-30336448D01*
X33970775Y-30340290D01*
X33909059Y-30305194D01*
X33900116Y-30294871D01*
X33899048Y-30293494D01*
X33781503Y-30175949D01*
X33781501Y-30175948D01*
X33638401Y-30091318D01*
X33478748Y-30044934D01*
X33478750Y-30044934D01*
X33441461Y-30042000D01*
X33162500Y-30042000D01*
X33162500Y-30765500D01*
X33142498Y-30833621D01*
X33088842Y-30880114D01*
X33036500Y-30891500D01*
X32170756Y-30891500D01*
X32151045Y-30889949D01*
X32137144Y-30887747D01*
X32092986Y-30890062D01*
X32067185Y-30891414D01*
X32063915Y-30891500D01*
X32041730Y-30891500D01*
X32041724Y-30891500D01*
X32041715Y-30891501D01*
X32022956Y-30893472D01*
X32019665Y-30893818D01*
X32016384Y-30894076D01*
X31946439Y-30897742D01*
X31932843Y-30901385D01*
X31913410Y-30904986D01*
X31899411Y-30906457D01*
X31848560Y-30922980D01*
X31832774Y-30928109D01*
X31829633Y-30929039D01*
X31822060Y-30931069D01*
X31761975Y-30947168D01*
X31761966Y-30947172D01*
X31749430Y-30953559D01*
X31731180Y-30961119D01*
X31717786Y-30965471D01*
X31657128Y-31000492D01*
X31654230Y-31002066D01*
X31591809Y-31033871D01*
X31591805Y-31033873D01*
X31580862Y-31042734D01*
X31564589Y-31053918D01*
X31552400Y-31060956D01*
X31552391Y-31060963D01*
X31500339Y-31107829D01*
X31497837Y-31109966D01*
X31480600Y-31123926D01*
X31480595Y-31123931D01*
X31464902Y-31139623D01*
X31462512Y-31141891D01*
X31429779Y-31171364D01*
X31384007Y-31197689D01*
X31381004Y-31198653D01*
X31380992Y-31198658D01*
X31313486Y-31231563D01*
X31306274Y-31232785D01*
X31291581Y-31241883D01*
X31291147Y-31242122D01*
X31290793Y-31242370D01*
X31144720Y-31332816D01*
X31140283Y-31335321D01*
X31045483Y-31383897D01*
X31002600Y-31411839D01*
X30919827Y-31478973D01*
X30730623Y-31668178D01*
X30163487Y-32235314D01*
X30163480Y-32235322D01*
X30163479Y-32235323D01*
X30145108Y-32255774D01*
X30145108Y-32255775D01*
X30145101Y-32255783D01*
X30119840Y-32287132D01*
X30105668Y-32306786D01*
X30087704Y-32331698D01*
X30087701Y-32331704D01*
X30026988Y-32464644D01*
X30026984Y-32464654D01*
X30007302Y-32531683D01*
X30007300Y-32531687D01*
X29986499Y-32676362D01*
X29986499Y-37290194D01*
X29966497Y-37358315D01*
X29962011Y-37364835D01*
X29829241Y-37545404D01*
X29480607Y-38019547D01*
X29471611Y-38032626D01*
X29471610Y-38032628D01*
X29462703Y-38046020D01*
X29462702Y-38046021D01*
X29401986Y-38178966D01*
X29382302Y-38246000D01*
X29382300Y-38246007D01*
X29382301Y-38246007D01*
X29382300Y-38246011D01*
X29363260Y-38378444D01*
X29361500Y-38390684D01*
X29361500Y-40526007D01*
X29373237Y-40635164D01*
X29384441Y-40686667D01*
X29419109Y-40790825D01*
X29419110Y-40790827D01*
X29435212Y-40815882D01*
X29498130Y-40913784D01*
X29498131Y-40913786D01*
X29543880Y-40966582D01*
X29543882Y-40966583D01*
X29543884Y-40966586D01*
X29654339Y-41062297D01*
X29787287Y-41123014D01*
X29854326Y-41142699D01*
X29854330Y-41142700D01*
X29999000Y-41163500D01*
X29999004Y-41163500D01*
X31262396Y-41163500D01*
X31282010Y-41162448D01*
X31289858Y-41162028D01*
X31329891Y-41157723D01*
X31384149Y-41148931D01*
X31521091Y-41097854D01*
X31582414Y-41064369D01*
X31699418Y-40976780D01*
X32381560Y-40294636D01*
X32443871Y-40260613D01*
X32514686Y-40265677D01*
X32571522Y-40308224D01*
X32590258Y-40344100D01*
X32632883Y-40472734D01*
X32632884Y-40472736D01*
X32632885Y-40472738D01*
X32665742Y-40526007D01*
X32725970Y-40623652D01*
X32725975Y-40623658D01*
X32851341Y-40749024D01*
X32851347Y-40749029D01*
X32851348Y-40749030D01*
X33002262Y-40842115D01*
X33170574Y-40897887D01*
X33274455Y-40908500D01*
X34025544Y-40908499D01*
X34129426Y-40897887D01*
X34297738Y-40842115D01*
X34344355Y-40813361D01*
X34412831Y-40794624D01*
X34480570Y-40815882D01*
X34526062Y-40870389D01*
X34536500Y-40920602D01*
X34536500Y-44956981D01*
X34516498Y-45025102D01*
X34462842Y-45071595D01*
X34392568Y-45081699D01*
X34344170Y-45064109D01*
X34246221Y-45003462D01*
X34246222Y-45003462D01*
X34246218Y-45003460D01*
X34064307Y-44932988D01*
X34054656Y-44929249D01*
X34004170Y-44919811D01*
X33852718Y-44891500D01*
X33647282Y-44891500D01*
X33543476Y-44910905D01*
X33445343Y-44929249D01*
X33296921Y-44986748D01*
X33253782Y-45003460D01*
X33253781Y-45003460D01*
X33253780Y-45003461D01*
X33253776Y-45003463D01*
X33079116Y-45111608D01*
X32927297Y-45250009D01*
X32818794Y-45393692D01*
X32761780Y-45436000D01*
X32690944Y-45440767D01*
X32628775Y-45406481D01*
X32595012Y-45344026D01*
X32598410Y-45278826D01*
X32643542Y-45139928D01*
X32663504Y-44950000D01*
X32643542Y-44760072D01*
X32584527Y-44578444D01*
X32489040Y-44413056D01*
X32489038Y-44413054D01*
X32489034Y-44413048D01*
X32361255Y-44271135D01*
X32206752Y-44158882D01*
X32032288Y-44081206D01*
X31845487Y-44041500D01*
X31654513Y-44041500D01*
X31467711Y-44081206D01*
X31293247Y-44158882D01*
X31138747Y-44271133D01*
X31135437Y-44274810D01*
X31074991Y-44312050D01*
X31041800Y-44316500D01*
X27685740Y-44316500D01*
X27617619Y-44296498D01*
X27571126Y-44242842D01*
X27560393Y-44177693D01*
X27571000Y-44073880D01*
X27571000Y-43526119D01*
X27560736Y-43425666D01*
X27560736Y-43425664D01*
X27506802Y-43262899D01*
X27416785Y-43116960D01*
X27416784Y-43116959D01*
X27416779Y-43116953D01*
X27295546Y-42995720D01*
X27295540Y-42995715D01*
X27258965Y-42973155D01*
X27149601Y-42905698D01*
X26986836Y-42851764D01*
X26986833Y-42851763D01*
X26886380Y-42841500D01*
X26886372Y-42841500D01*
X26038628Y-42841500D01*
X26038620Y-42841500D01*
X25938166Y-42851763D01*
X25775399Y-42905698D01*
X25629459Y-42995715D01*
X25601327Y-43023847D01*
X25539014Y-43057871D01*
X25468199Y-43052805D01*
X25411364Y-43010257D01*
X25386712Y-42945731D01*
X25381405Y-42885070D01*
X25325567Y-42676680D01*
X25325563Y-42676670D01*
X25270213Y-42557972D01*
X25270212Y-42557971D01*
X24547348Y-43280836D01*
X24571738Y-43232969D01*
X24592798Y-43100000D01*
X24571738Y-42967031D01*
X24510618Y-42847077D01*
X24415423Y-42751882D01*
X24295469Y-42690762D01*
X24195951Y-42675000D01*
X24129049Y-42675000D01*
X24029531Y-42690762D01*
X23909577Y-42751882D01*
X23814382Y-42847077D01*
X23753262Y-42967031D01*
X23732202Y-43100000D01*
X23753262Y-43232969D01*
X23777652Y-43280837D01*
X23054786Y-42557971D01*
X23054505Y-42558021D01*
X22983946Y-42550151D01*
X22943531Y-42523030D01*
X22920501Y-42500000D01*
X21862500Y-42500000D01*
X21862500Y-48700000D01*
X22920499Y-48700000D01*
X22943531Y-48676968D01*
X23005843Y-48642943D01*
X23054508Y-48641978D01*
X23054786Y-48642027D01*
X23777652Y-47919161D01*
X23753262Y-47967031D01*
X23732202Y-48100000D01*
X23753262Y-48232969D01*
X23814382Y-48352923D01*
X23909577Y-48448118D01*
X24029531Y-48509238D01*
X24129049Y-48525000D01*
X24195951Y-48525000D01*
X24295469Y-48509238D01*
X24415423Y-48448118D01*
X24510618Y-48352923D01*
X24571738Y-48232969D01*
X24592798Y-48100000D01*
X24571738Y-47967031D01*
X24547347Y-47919162D01*
X25270212Y-48642026D01*
X25270213Y-48642026D01*
X25325565Y-48523327D01*
X25325565Y-48523326D01*
X25381405Y-48314929D01*
X25400209Y-48099994D01*
X25389637Y-47979156D01*
X25403625Y-47909551D01*
X25453024Y-47858558D01*
X25522150Y-47842367D01*
X25589055Y-47866119D01*
X25604252Y-47879078D01*
X25629453Y-47904279D01*
X25629459Y-47904284D01*
X25629460Y-47904285D01*
X25769148Y-47990446D01*
X25816625Y-48043231D01*
X25829000Y-48097686D01*
X25829000Y-49416146D01*
X25827251Y-49431988D01*
X25827544Y-49432016D01*
X25826798Y-49439907D01*
X25829000Y-49509957D01*
X25829000Y-49539851D01*
X25829001Y-49539872D01*
X25829878Y-49546820D01*
X25830344Y-49552732D01*
X25831826Y-49599888D01*
X25831827Y-49599893D01*
X25837477Y-49619339D01*
X25841486Y-49638697D01*
X25844025Y-49658793D01*
X25844026Y-49658799D01*
X25861393Y-49702662D01*
X25863316Y-49708279D01*
X25876482Y-49753593D01*
X25886794Y-49771031D01*
X25895488Y-49788779D01*
X25902944Y-49807609D01*
X25902950Y-49807620D01*
X25930677Y-49845783D01*
X25933937Y-49850746D01*
X25957960Y-49891365D01*
X25972279Y-49905684D01*
X25985117Y-49920714D01*
X25994656Y-49933843D01*
X25997028Y-49937107D01*
X26006082Y-49944597D01*
X26033386Y-49967185D01*
X26037767Y-49971171D01*
X26068000Y-50001404D01*
X26068001Y-50001405D01*
X26102027Y-50063717D01*
X26096962Y-50134532D01*
X26054415Y-50191368D01*
X25987895Y-50216179D01*
X25978906Y-50216500D01*
X25336955Y-50216500D01*
X25233074Y-50227112D01*
X25064761Y-50282885D01*
X24913847Y-50375970D01*
X24913841Y-50375975D01*
X24876595Y-50413222D01*
X24814283Y-50447248D01*
X24743468Y-50442183D01*
X24698405Y-50413222D01*
X24661158Y-50375975D01*
X24661152Y-50375970D01*
X24636280Y-50360629D01*
X24510238Y-50282885D01*
X24373128Y-50237452D01*
X24341927Y-50227113D01*
X24341920Y-50227112D01*
X24238053Y-50216500D01*
X23511955Y-50216500D01*
X23408074Y-50227112D01*
X23239761Y-50282885D01*
X23088847Y-50375970D01*
X23088841Y-50375975D01*
X22963475Y-50501341D01*
X22963470Y-50501347D01*
X22870385Y-50652262D01*
X22814613Y-50820572D01*
X22814612Y-50820579D01*
X22804000Y-50924446D01*
X22804000Y-52275544D01*
X22814612Y-52379425D01*
X22870385Y-52547738D01*
X22963470Y-52698652D01*
X22963475Y-52698658D01*
X23088841Y-52824024D01*
X23088846Y-52824028D01*
X23088848Y-52824030D01*
X23239762Y-52917115D01*
X23408074Y-52972887D01*
X23511955Y-52983500D01*
X24238044Y-52983499D01*
X24341926Y-52972887D01*
X24510238Y-52917115D01*
X24661152Y-52824030D01*
X24698404Y-52786777D01*
X24760714Y-52752753D01*
X24831530Y-52757817D01*
X24876593Y-52786776D01*
X24913845Y-52824028D01*
X24913847Y-52824029D01*
X24913848Y-52824030D01*
X25064762Y-52917115D01*
X25233074Y-52972887D01*
X25336955Y-52983500D01*
X26188044Y-52983499D01*
X26291926Y-52972887D01*
X26460238Y-52917115D01*
X26611152Y-52824030D01*
X26736530Y-52698652D01*
X26829615Y-52547738D01*
X26885387Y-52379426D01*
X26896000Y-52275545D01*
X26895999Y-51133592D01*
X26916001Y-51065472D01*
X26969657Y-51018979D01*
X27039931Y-51008875D01*
X27104511Y-51038368D01*
X27111094Y-51044498D01*
X27392095Y-51325499D01*
X27426121Y-51387811D01*
X27429000Y-51414594D01*
X27429000Y-52275544D01*
X27439612Y-52379425D01*
X27495385Y-52547738D01*
X27588470Y-52698652D01*
X27588475Y-52698658D01*
X27713841Y-52824024D01*
X27713846Y-52824028D01*
X27713848Y-52824030D01*
X27864762Y-52917115D01*
X28033074Y-52972887D01*
X28136955Y-52983500D01*
X28790500Y-52983499D01*
X28858621Y-53003501D01*
X28905114Y-53057157D01*
X28916500Y-53109499D01*
X28916500Y-58315113D01*
X28896498Y-58383234D01*
X28859935Y-58417275D01*
X28861010Y-58418711D01*
X28853796Y-58424110D01*
X28853796Y-58424111D01*
X28840443Y-58434106D01*
X28736738Y-58511738D01*
X28649112Y-58628792D01*
X28649110Y-58628797D01*
X28598011Y-58765795D01*
X28598009Y-58765803D01*
X28591500Y-58826350D01*
X28591500Y-60623649D01*
X28598009Y-60684196D01*
X28598011Y-60684204D01*
X28649110Y-60821202D01*
X28649112Y-60821207D01*
X28736738Y-60938261D01*
X28853792Y-61025887D01*
X28853794Y-61025888D01*
X28853796Y-61025889D01*
X28908900Y-61046442D01*
X28990795Y-61076988D01*
X28990803Y-61076990D01*
X29051350Y-61083499D01*
X29051355Y-61083499D01*
X29051362Y-61083500D01*
X29051368Y-61083500D01*
X30848632Y-61083500D01*
X30848638Y-61083500D01*
X30848645Y-61083499D01*
X30848649Y-61083499D01*
X30909196Y-61076990D01*
X30909199Y-61076989D01*
X30909201Y-61076989D01*
X31046204Y-61025889D01*
X31049432Y-61023473D01*
X31163261Y-60938261D01*
X31250886Y-60821208D01*
X31250885Y-60821208D01*
X31250889Y-60821204D01*
X31294999Y-60702939D01*
X31337545Y-60646107D01*
X31404066Y-60621296D01*
X31473440Y-60636388D01*
X31505753Y-60661635D01*
X31526529Y-60684204D01*
X31566762Y-60727908D01*
X31621331Y-60770381D01*
X31744424Y-60866189D01*
X31942426Y-60973342D01*
X31942427Y-60973342D01*
X31942428Y-60973343D01*
X31984450Y-60987769D01*
X32155365Y-61046444D01*
X32377431Y-61083500D01*
X32377435Y-61083500D01*
X32602565Y-61083500D01*
X32602569Y-61083500D01*
X32824635Y-61046444D01*
X33037574Y-60973342D01*
X33235576Y-60866189D01*
X33413240Y-60727906D01*
X33565722Y-60562268D01*
X33565927Y-60561955D01*
X33617011Y-60483764D01*
X33654518Y-60426354D01*
X33708520Y-60380268D01*
X33778868Y-60370692D01*
X33843225Y-60400669D01*
X33865480Y-60426353D01*
X33898607Y-60477058D01*
X33954275Y-60562265D01*
X33954279Y-60562270D01*
X34106762Y-60727908D01*
X34161331Y-60770381D01*
X34284424Y-60866189D01*
X34482426Y-60973342D01*
X34482427Y-60973342D01*
X34482428Y-60973343D01*
X34524450Y-60987769D01*
X34695365Y-61046444D01*
X34917431Y-61083500D01*
X34917435Y-61083500D01*
X35142565Y-61083500D01*
X35142569Y-61083500D01*
X35364635Y-61046444D01*
X35577574Y-60973342D01*
X35775576Y-60866189D01*
X35953240Y-60727906D01*
X36105722Y-60562268D01*
X36105927Y-60561955D01*
X36194517Y-60426357D01*
X36194816Y-60425898D01*
X36248819Y-60379810D01*
X36319167Y-60370235D01*
X36383524Y-60400212D01*
X36405782Y-60425898D01*
X36494674Y-60561958D01*
X36647097Y-60727534D01*
X36824698Y-60865767D01*
X36824699Y-60865768D01*
X37022628Y-60972882D01*
X37022634Y-60972884D01*
X37169999Y-61023474D01*
X37170000Y-61023473D01*
X37170000Y-60027417D01*
X37188239Y-60055798D01*
X37296900Y-60149952D01*
X37427685Y-60209680D01*
X37534237Y-60225000D01*
X37605763Y-60225000D01*
X37712315Y-60209680D01*
X37843100Y-60149952D01*
X37871897Y-60125000D01*
X37970000Y-60125000D01*
X37970000Y-61023474D01*
X38117365Y-60972884D01*
X38117371Y-60972882D01*
X38315300Y-60865768D01*
X38315301Y-60865767D01*
X38492902Y-60727534D01*
X38645325Y-60561958D01*
X38768419Y-60373548D01*
X38858819Y-60167458D01*
X38869571Y-60125000D01*
X44825429Y-60125000D01*
X44836180Y-60167458D01*
X44926580Y-60373548D01*
X45049674Y-60561958D01*
X45202097Y-60727534D01*
X45379698Y-60865767D01*
X45379699Y-60865768D01*
X45577628Y-60972882D01*
X45577634Y-60972884D01*
X45724999Y-61023474D01*
X45725000Y-61023473D01*
X45725000Y-60125000D01*
X44825429Y-60125000D01*
X38869571Y-60125000D01*
X37970000Y-60125000D01*
X37871897Y-60125000D01*
X37951761Y-60055798D01*
X38029493Y-59934844D01*
X38070000Y-59796889D01*
X38070000Y-59653111D01*
X38029493Y-59515156D01*
X37951761Y-59394202D01*
X37843100Y-59300048D01*
X37712315Y-59240320D01*
X37605763Y-59225000D01*
X37534237Y-59225000D01*
X37427685Y-59240320D01*
X37296900Y-59300048D01*
X37188239Y-59394202D01*
X37170000Y-59422582D01*
X37170000Y-58426525D01*
X37970000Y-58426525D01*
X37970000Y-59325000D01*
X38869571Y-59325000D01*
X44825429Y-59325000D01*
X45725000Y-59325000D01*
X45725000Y-58426525D01*
X45577630Y-58477116D01*
X45577628Y-58477117D01*
X45379699Y-58584231D01*
X45379698Y-58584232D01*
X45202097Y-58722465D01*
X45049674Y-58888041D01*
X44926580Y-59076451D01*
X44836180Y-59282541D01*
X44825429Y-59325000D01*
X38869571Y-59325000D01*
X38858819Y-59282541D01*
X38768419Y-59076451D01*
X38645325Y-58888041D01*
X38492902Y-58722465D01*
X38315301Y-58584232D01*
X38315300Y-58584231D01*
X38117371Y-58477117D01*
X38117369Y-58477116D01*
X37970000Y-58426525D01*
X37170000Y-58426525D01*
X37022630Y-58477116D01*
X37022628Y-58477117D01*
X36824699Y-58584231D01*
X36824698Y-58584232D01*
X36647097Y-58722465D01*
X36494670Y-58888045D01*
X36405780Y-59024101D01*
X36351776Y-59070189D01*
X36281428Y-59079764D01*
X36217071Y-59049786D01*
X36194816Y-59024101D01*
X36155884Y-58964511D01*
X36105724Y-58887734D01*
X36105720Y-58887729D01*
X35954580Y-58723550D01*
X35953240Y-58722094D01*
X35953239Y-58722093D01*
X35953237Y-58722091D01*
X35833372Y-58628796D01*
X35775576Y-58583811D01*
X35577574Y-58476658D01*
X35577572Y-58476657D01*
X35577571Y-58476656D01*
X35364639Y-58403557D01*
X35364630Y-58403555D01*
X35320476Y-58396187D01*
X35142569Y-58366500D01*
X35009500Y-58366500D01*
X34941379Y-58346498D01*
X34894886Y-58292842D01*
X34883500Y-58240500D01*
X34883500Y-57819500D01*
X34903502Y-57751379D01*
X34957158Y-57704886D01*
X35009500Y-57693500D01*
X36298632Y-57693500D01*
X36298638Y-57693500D01*
X36298645Y-57693499D01*
X36298649Y-57693499D01*
X36359196Y-57686990D01*
X36359199Y-57686989D01*
X36359201Y-57686989D01*
X36496204Y-57635889D01*
X36497992Y-57634551D01*
X36613261Y-57548261D01*
X36700887Y-57431207D01*
X36700887Y-57431206D01*
X36700889Y-57431204D01*
X36751989Y-57294201D01*
X36758026Y-57238053D01*
X36758499Y-57233649D01*
X36758500Y-57233632D01*
X36758500Y-56836367D01*
X36758499Y-56836350D01*
X36751990Y-56775804D01*
X36751988Y-56775797D01*
X36743603Y-56753314D01*
X36738539Y-56682498D01*
X36743604Y-56665248D01*
X36751494Y-56644095D01*
X36751494Y-56644093D01*
X36757999Y-56583597D01*
X36758000Y-56583585D01*
X36758000Y-56534999D01*
X36736762Y-56513761D01*
X36702736Y-56451449D01*
X36707801Y-56380634D01*
X36750348Y-56323798D01*
X36761719Y-56316212D01*
X36771031Y-56310705D01*
X36788780Y-56302009D01*
X36807617Y-56294552D01*
X36845786Y-56266818D01*
X36850744Y-56263562D01*
X36891362Y-56239542D01*
X36905685Y-56225218D01*
X36920724Y-56212374D01*
X36937107Y-56200472D01*
X36967193Y-56164103D01*
X36971161Y-56159741D01*
X37138657Y-55992245D01*
X37151092Y-55982284D01*
X37150905Y-55982057D01*
X37157009Y-55977005D01*
X37157018Y-55977000D01*
X37204999Y-55925904D01*
X37226134Y-55904770D01*
X37230429Y-55899232D01*
X37234271Y-55894731D01*
X37266586Y-55860321D01*
X37276345Y-55842567D01*
X37287197Y-55826046D01*
X37299613Y-55810041D01*
X37318347Y-55766748D01*
X37320961Y-55761412D01*
X37331374Y-55742470D01*
X37343695Y-55720060D01*
X37348733Y-55700435D01*
X37355138Y-55681730D01*
X37363181Y-55663145D01*
X37370563Y-55616525D01*
X37371761Y-55610744D01*
X37383500Y-55565030D01*
X37383500Y-55544769D01*
X37385051Y-55525058D01*
X37388219Y-55505056D01*
X37383780Y-55458089D01*
X37383500Y-55452157D01*
X37383500Y-53994333D01*
X37403502Y-53926212D01*
X37429568Y-53896933D01*
X37466566Y-53866570D01*
X37466568Y-53866568D01*
X37592595Y-53713004D01*
X37686241Y-53537804D01*
X37743908Y-53347701D01*
X37758500Y-53199547D01*
X37763380Y-53150000D01*
X37758804Y-53103536D01*
X37758500Y-53097357D01*
X37758500Y-49150000D01*
X52729500Y-49150000D01*
X52729500Y-49173852D01*
X52739755Y-49274229D01*
X52739757Y-49274241D01*
X52793652Y-49436884D01*
X52883609Y-49582728D01*
X52883614Y-49582734D01*
X53004765Y-49703885D01*
X53004771Y-49703890D01*
X53150615Y-49793847D01*
X53287499Y-49839206D01*
X53287500Y-49839206D01*
X53287500Y-49150000D01*
X52729500Y-49150000D01*
X37758500Y-49150000D01*
X37758500Y-48889500D01*
X37778502Y-48821379D01*
X37832158Y-48774886D01*
X37884500Y-48763500D01*
X44923994Y-48763500D01*
X44924000Y-48763500D01*
X45033149Y-48751766D01*
X45033158Y-48751764D01*
X45033159Y-48751764D01*
X45049303Y-48748251D01*
X45085491Y-48740380D01*
X45189657Y-48705710D01*
X45312612Y-48626692D01*
X45365011Y-48581288D01*
X45366101Y-48580393D01*
X45366270Y-48580198D01*
X45461982Y-48469739D01*
X45516665Y-48350000D01*
X52729500Y-48350000D01*
X53287500Y-48350000D01*
X53287500Y-47660793D01*
X53287499Y-47660793D01*
X53150614Y-47706153D01*
X53004771Y-47796109D01*
X53004765Y-47796114D01*
X52883614Y-47917265D01*
X52883609Y-47917271D01*
X52793652Y-48063115D01*
X52739757Y-48225758D01*
X52739755Y-48225770D01*
X52729500Y-48326147D01*
X52729500Y-48350000D01*
X45516665Y-48350000D01*
X45522698Y-48336790D01*
X45542700Y-48268669D01*
X45563500Y-48124000D01*
X45563500Y-47639965D01*
X45563226Y-47628101D01*
X45562409Y-47610436D01*
X45561588Y-47598609D01*
X45553527Y-47511620D01*
X45553527Y-47488375D01*
X45561588Y-47401389D01*
X45562409Y-47389562D01*
X45563226Y-47371897D01*
X45563500Y-47360033D01*
X45563500Y-46934000D01*
X45583502Y-46865879D01*
X45637158Y-46819386D01*
X45689500Y-46808000D01*
X45750000Y-46808000D01*
X45750000Y-45950000D01*
X46550000Y-45950000D01*
X46550000Y-46808000D01*
X47198585Y-46808000D01*
X47198597Y-46807999D01*
X47259093Y-46801494D01*
X47395964Y-46750444D01*
X47395965Y-46750444D01*
X47512904Y-46662904D01*
X47522564Y-46650000D01*
X52729500Y-46650000D01*
X52729500Y-46673852D01*
X52739755Y-46774229D01*
X52739757Y-46774241D01*
X52793652Y-46936884D01*
X52883609Y-47082728D01*
X52883614Y-47082734D01*
X53004765Y-47203885D01*
X53004771Y-47203890D01*
X53150615Y-47293847D01*
X53287499Y-47339206D01*
X53287500Y-47339206D01*
X53287500Y-46650000D01*
X52729500Y-46650000D01*
X47522564Y-46650000D01*
X47600444Y-46545965D01*
X47600444Y-46545964D01*
X47651494Y-46409093D01*
X47657999Y-46348597D01*
X47658000Y-46348585D01*
X47658000Y-45950000D01*
X46550000Y-45950000D01*
X45750000Y-45950000D01*
X45750000Y-45850000D01*
X52729500Y-45850000D01*
X53287500Y-45850000D01*
X53287500Y-45160793D01*
X53287499Y-45160793D01*
X53150614Y-45206153D01*
X53004771Y-45296109D01*
X53004765Y-45296114D01*
X52883614Y-45417265D01*
X52883609Y-45417271D01*
X52793652Y-45563115D01*
X52739757Y-45725758D01*
X52739755Y-45725770D01*
X52729500Y-45826147D01*
X52729500Y-45850000D01*
X45750000Y-45850000D01*
X45750000Y-45276000D01*
X45770002Y-45207879D01*
X45823658Y-45161386D01*
X45876000Y-45150000D01*
X47658000Y-45150000D01*
X47658000Y-44751417D01*
X47657981Y-44751241D01*
X47657988Y-44751199D01*
X47657819Y-44748036D01*
X47658565Y-44747995D01*
X47670574Y-44681370D01*
X47700741Y-44642527D01*
X47715007Y-44630166D01*
X47716102Y-44629267D01*
X47811980Y-44518616D01*
X47811982Y-44518614D01*
X47872698Y-44385665D01*
X47892700Y-44317544D01*
X47892699Y-44317544D01*
X47893968Y-44313226D01*
X47895836Y-44313774D01*
X47925959Y-44258513D01*
X47978544Y-44226969D01*
X47997195Y-44221310D01*
X48112804Y-44186241D01*
X48163989Y-44158882D01*
X48180606Y-44150000D01*
X52729500Y-44150000D01*
X52729500Y-44173852D01*
X52739755Y-44274229D01*
X52739757Y-44274241D01*
X52793652Y-44436884D01*
X52883609Y-44582728D01*
X52883614Y-44582734D01*
X53004765Y-44703885D01*
X53004771Y-44703890D01*
X53150615Y-44793847D01*
X53287499Y-44839206D01*
X53287500Y-44839206D01*
X53287500Y-44150000D01*
X52729500Y-44150000D01*
X48180606Y-44150000D01*
X48288004Y-44092595D01*
X48441568Y-43966568D01*
X48471211Y-43930445D01*
X48475325Y-43925907D01*
X49051232Y-43350000D01*
X52729500Y-43350000D01*
X53287500Y-43350000D01*
X53287500Y-42660793D01*
X53287499Y-42660793D01*
X53150614Y-42706153D01*
X53004771Y-42796109D01*
X53004765Y-42796114D01*
X52883614Y-42917265D01*
X52883609Y-42917271D01*
X52793652Y-43063115D01*
X52739757Y-43225758D01*
X52739755Y-43225770D01*
X52729500Y-43326147D01*
X52729500Y-43350000D01*
X49051232Y-43350000D01*
X49425907Y-42975325D01*
X49430445Y-42971211D01*
X49466568Y-42941568D01*
X49592595Y-42788004D01*
X49686241Y-42612804D01*
X49705390Y-42549679D01*
X49743909Y-42422701D01*
X49748009Y-42381068D01*
X49763380Y-42225004D01*
X49763380Y-42224996D01*
X49758804Y-42178534D01*
X49758500Y-42172355D01*
X49758500Y-41650000D01*
X52729500Y-41650000D01*
X52729500Y-41673852D01*
X52739755Y-41774229D01*
X52739757Y-41774241D01*
X52793652Y-41936884D01*
X52883609Y-42082728D01*
X52883614Y-42082734D01*
X53004765Y-42203885D01*
X53004771Y-42203890D01*
X53150615Y-42293847D01*
X53287499Y-42339206D01*
X53287500Y-42339206D01*
X53287500Y-41650000D01*
X52729500Y-41650000D01*
X49758500Y-41650000D01*
X49758500Y-40850000D01*
X52729500Y-40850000D01*
X53287500Y-40850000D01*
X53287500Y-40160793D01*
X53287499Y-40160793D01*
X53150614Y-40206153D01*
X53004771Y-40296109D01*
X53004765Y-40296114D01*
X52883614Y-40417265D01*
X52883609Y-40417271D01*
X52793652Y-40563115D01*
X52739757Y-40725758D01*
X52739755Y-40725770D01*
X52729500Y-40826147D01*
X52729500Y-40850000D01*
X49758500Y-40850000D01*
X49758500Y-39150000D01*
X52729500Y-39150000D01*
X52729500Y-39173852D01*
X52739755Y-39274229D01*
X52739757Y-39274241D01*
X52793652Y-39436884D01*
X52883609Y-39582728D01*
X52883614Y-39582734D01*
X53004765Y-39703885D01*
X53004771Y-39703890D01*
X53150615Y-39793847D01*
X53287499Y-39839206D01*
X53287500Y-39839206D01*
X53287500Y-39150000D01*
X54087500Y-39150000D01*
X54087500Y-39839206D01*
X54224384Y-39793847D01*
X54370228Y-39703890D01*
X54370234Y-39703885D01*
X54491385Y-39582734D01*
X54491390Y-39582728D01*
X54581347Y-39436884D01*
X54635242Y-39274241D01*
X54635244Y-39274229D01*
X54645499Y-39173852D01*
X54645500Y-39173852D01*
X54645500Y-39150000D01*
X54087500Y-39150000D01*
X53287500Y-39150000D01*
X52729500Y-39150000D01*
X49758500Y-39150000D01*
X49758500Y-38350000D01*
X52729500Y-38350000D01*
X53287500Y-38350000D01*
X53287500Y-37660793D01*
X54087500Y-37660793D01*
X54087500Y-38350000D01*
X54645500Y-38350000D01*
X54645500Y-38326147D01*
X54635244Y-38225770D01*
X54635242Y-38225758D01*
X54581347Y-38063115D01*
X54491390Y-37917271D01*
X54491385Y-37917265D01*
X54370234Y-37796114D01*
X54370228Y-37796109D01*
X54224385Y-37706153D01*
X54087500Y-37660793D01*
X53287500Y-37660793D01*
X53287499Y-37660793D01*
X53150614Y-37706153D01*
X53004771Y-37796109D01*
X53004765Y-37796114D01*
X52883614Y-37917265D01*
X52883609Y-37917271D01*
X52793652Y-38063115D01*
X52739757Y-38225758D01*
X52739755Y-38225770D01*
X52729500Y-38326147D01*
X52729500Y-38350000D01*
X49758500Y-38350000D01*
X49758500Y-36991178D01*
X49771709Y-36935015D01*
X49788074Y-36902152D01*
X49788074Y-36902150D01*
X49790671Y-36896936D01*
X49791668Y-36897432D01*
X49815715Y-36860517D01*
X49855383Y-36820849D01*
X49917693Y-36786825D01*
X49988508Y-36791890D01*
X50045344Y-36834437D01*
X50051713Y-36843794D01*
X50075646Y-36882595D01*
X50100968Y-36923649D01*
X50100975Y-36923658D01*
X50226341Y-37049024D01*
X50226347Y-37049029D01*
X50226348Y-37049030D01*
X50377262Y-37142115D01*
X50545574Y-37197887D01*
X50649455Y-37208500D01*
X51850544Y-37208499D01*
X51954426Y-37197887D01*
X52122738Y-37142115D01*
X52273652Y-37049030D01*
X52399030Y-36923652D01*
X52492115Y-36772738D01*
X52547887Y-36604426D01*
X52558500Y-36500545D01*
X52558499Y-34259499D01*
X52578501Y-34191379D01*
X52632157Y-34144886D01*
X52684499Y-34133500D01*
X58367188Y-34133500D01*
X58383029Y-34135249D01*
X58383057Y-34134956D01*
X58390943Y-34135700D01*
X58390950Y-34135702D01*
X58460999Y-34133500D01*
X58490897Y-34133500D01*
X58497859Y-34132619D01*
X58503760Y-34132154D01*
X58550930Y-34130673D01*
X58570388Y-34125019D01*
X58589735Y-34121013D01*
X58609838Y-34118474D01*
X58653720Y-34101099D01*
X58659315Y-34099183D01*
X58687857Y-34090891D01*
X58704632Y-34086019D01*
X58704636Y-34086017D01*
X58722067Y-34075708D01*
X58739821Y-34067009D01*
X58758658Y-34059552D01*
X58766434Y-34053901D01*
X58833300Y-34030040D01*
X58902452Y-34046117D01*
X58951935Y-34097028D01*
X58966500Y-34155834D01*
X58966500Y-34285563D01*
X58964751Y-34301405D01*
X58965044Y-34301433D01*
X58964298Y-34309324D01*
X58966500Y-34379374D01*
X58966500Y-34409268D01*
X58966501Y-34409289D01*
X58967378Y-34416237D01*
X58967844Y-34422149D01*
X58969326Y-34469305D01*
X58969327Y-34469310D01*
X58974977Y-34488756D01*
X58978986Y-34508114D01*
X58981525Y-34528210D01*
X58981526Y-34528216D01*
X58998893Y-34572079D01*
X59000816Y-34577696D01*
X59013982Y-34623010D01*
X59024294Y-34640448D01*
X59032988Y-34658196D01*
X59040444Y-34677026D01*
X59040450Y-34677037D01*
X59068177Y-34715200D01*
X59071437Y-34720163D01*
X59095460Y-34760782D01*
X59109779Y-34775101D01*
X59122617Y-34790131D01*
X59129318Y-34799353D01*
X59134528Y-34806524D01*
X59162794Y-34829908D01*
X59170886Y-34836602D01*
X59175267Y-34840588D01*
X60082643Y-35747964D01*
X60923336Y-36588657D01*
X60933303Y-36601097D01*
X60933530Y-36600910D01*
X60938582Y-36607017D01*
X60989678Y-36654999D01*
X61010808Y-36676130D01*
X61016351Y-36680430D01*
X61020864Y-36684285D01*
X61055262Y-36716586D01*
X61055263Y-36716586D01*
X61055265Y-36716588D01*
X61073012Y-36726344D01*
X61089542Y-36737202D01*
X61105542Y-36749613D01*
X61136719Y-36763104D01*
X61148834Y-36768347D01*
X61154168Y-36770959D01*
X61195523Y-36793695D01*
X61215145Y-36798733D01*
X61233846Y-36805135D01*
X61246397Y-36810567D01*
X61252435Y-36813180D01*
X61252436Y-36813180D01*
X61252438Y-36813181D01*
X61299060Y-36820564D01*
X61304845Y-36821763D01*
X61350553Y-36833500D01*
X61370807Y-36833500D01*
X61390517Y-36835051D01*
X61392724Y-36835400D01*
X61410526Y-36838220D01*
X61444453Y-36835012D01*
X61457500Y-36833780D01*
X61463433Y-36833500D01*
X63089822Y-36833500D01*
X63157943Y-36853502D01*
X63178917Y-36870405D01*
X63179594Y-36871082D01*
X63213620Y-36933394D01*
X63216499Y-36960177D01*
X63216499Y-52805329D01*
X63210332Y-52844265D01*
X63201485Y-52871493D01*
X63161411Y-52930099D01*
X63096015Y-52957736D01*
X63026058Y-52945629D01*
X62992557Y-52921652D01*
X61220404Y-51149499D01*
X61186378Y-51087187D01*
X61183499Y-51060413D01*
X61183499Y-50258118D01*
X61203501Y-50190001D01*
X61257157Y-50143508D01*
X61274917Y-50140582D01*
X61287500Y-50129219D01*
X61287500Y-49150000D01*
X62087500Y-49150000D01*
X62087500Y-50129219D01*
X62154318Y-50122394D01*
X62322525Y-50066657D01*
X62473339Y-49973634D01*
X62473345Y-49973629D01*
X62598629Y-49848345D01*
X62598634Y-49848339D01*
X62691657Y-49697525D01*
X62747393Y-49529321D01*
X62747394Y-49529318D01*
X62757999Y-49425516D01*
X62758000Y-49425516D01*
X62758000Y-49150000D01*
X62087500Y-49150000D01*
X61287500Y-49150000D01*
X61287500Y-46650000D01*
X62087500Y-46650000D01*
X62087500Y-48350000D01*
X62758000Y-48350000D01*
X62758000Y-48074483D01*
X62747394Y-47970681D01*
X62747393Y-47970678D01*
X62691657Y-47802474D01*
X62598634Y-47651660D01*
X62598633Y-47651659D01*
X62536069Y-47589096D01*
X62502044Y-47526784D01*
X62507108Y-47455968D01*
X62536069Y-47410904D01*
X62598634Y-47348339D01*
X62691657Y-47197525D01*
X62747393Y-47029321D01*
X62747394Y-47029318D01*
X62757999Y-46925516D01*
X62758000Y-46925516D01*
X62758000Y-46650000D01*
X62087500Y-46650000D01*
X61287500Y-46650000D01*
X61287500Y-44150000D01*
X62087500Y-44150000D01*
X62087500Y-45850000D01*
X62758000Y-45850000D01*
X62758000Y-45574483D01*
X62747394Y-45470681D01*
X62747393Y-45470678D01*
X62691657Y-45302474D01*
X62598634Y-45151660D01*
X62598629Y-45151654D01*
X62536070Y-45089095D01*
X62502044Y-45026783D01*
X62507109Y-44955968D01*
X62536070Y-44910905D01*
X62598629Y-44848345D01*
X62598634Y-44848339D01*
X62691657Y-44697525D01*
X62747393Y-44529321D01*
X62747394Y-44529318D01*
X62757999Y-44425516D01*
X62758000Y-44425516D01*
X62758000Y-44150000D01*
X62087500Y-44150000D01*
X61287500Y-44150000D01*
X61287500Y-41650000D01*
X62087500Y-41650000D01*
X62087500Y-43350000D01*
X62758000Y-43350000D01*
X62758000Y-43074483D01*
X62747394Y-42970681D01*
X62747393Y-42970678D01*
X62691657Y-42802474D01*
X62598634Y-42651660D01*
X62598633Y-42651659D01*
X62536069Y-42589096D01*
X62502044Y-42526784D01*
X62507108Y-42455968D01*
X62536069Y-42410904D01*
X62598634Y-42348339D01*
X62691657Y-42197525D01*
X62747393Y-42029321D01*
X62747394Y-42029318D01*
X62757999Y-41925516D01*
X62758000Y-41925516D01*
X62758000Y-41650000D01*
X62087500Y-41650000D01*
X61287500Y-41650000D01*
X60617000Y-41650000D01*
X60617000Y-41904405D01*
X60596998Y-41972526D01*
X60543342Y-42019019D01*
X60473068Y-42029123D01*
X60408488Y-41999629D01*
X60401905Y-41993500D01*
X59870404Y-41461999D01*
X59836378Y-41399687D01*
X59833499Y-41372904D01*
X59833499Y-40574455D01*
X59822887Y-40470574D01*
X59793868Y-40383000D01*
X59767115Y-40302262D01*
X59674030Y-40151348D01*
X59674029Y-40151347D01*
X59674024Y-40151341D01*
X59611778Y-40089095D01*
X59577752Y-40026783D01*
X59582817Y-39955968D01*
X59611778Y-39910905D01*
X59674024Y-39848658D01*
X59674030Y-39848652D01*
X59767115Y-39697738D01*
X59768725Y-39692878D01*
X59809132Y-39634508D01*
X59874686Y-39607247D01*
X59936384Y-39616899D01*
X59936432Y-39616754D01*
X59937338Y-39617048D01*
X59939578Y-39617398D01*
X59942712Y-39618794D01*
X60129513Y-39658500D01*
X60320487Y-39658500D01*
X60507288Y-39618794D01*
X60510875Y-39617196D01*
X60513136Y-39616893D01*
X60513563Y-39616755D01*
X60513588Y-39616832D01*
X60581240Y-39607759D01*
X60645539Y-39637862D01*
X60681732Y-39692666D01*
X60683341Y-39697523D01*
X60776365Y-39848339D01*
X60776370Y-39848345D01*
X60838930Y-39910905D01*
X60872956Y-39973217D01*
X60867891Y-40044032D01*
X60838930Y-40089095D01*
X60776370Y-40151654D01*
X60776365Y-40151660D01*
X60683342Y-40302474D01*
X60627606Y-40470678D01*
X60627605Y-40470681D01*
X60617000Y-40574483D01*
X60617000Y-40850000D01*
X61287500Y-40850000D01*
X61287500Y-39150000D01*
X62087500Y-39150000D01*
X62087500Y-40850000D01*
X62758000Y-40850000D01*
X62758000Y-40574483D01*
X62747394Y-40470681D01*
X62747393Y-40470678D01*
X62691657Y-40302474D01*
X62598634Y-40151660D01*
X62598629Y-40151654D01*
X62536070Y-40089095D01*
X62502044Y-40026783D01*
X62507109Y-39955968D01*
X62536070Y-39910905D01*
X62598629Y-39848345D01*
X62598634Y-39848339D01*
X62691657Y-39697525D01*
X62747393Y-39529321D01*
X62747394Y-39529318D01*
X62757999Y-39425516D01*
X62758000Y-39425516D01*
X62758000Y-39150000D01*
X62087500Y-39150000D01*
X61287500Y-39150000D01*
X61287500Y-38350000D01*
X62087500Y-38350000D01*
X62758000Y-38350000D01*
X62758000Y-38074483D01*
X62747394Y-37970681D01*
X62747393Y-37970678D01*
X62691657Y-37802474D01*
X62598634Y-37651660D01*
X62598629Y-37651654D01*
X62473345Y-37526370D01*
X62473339Y-37526365D01*
X62322525Y-37433342D01*
X62154321Y-37377606D01*
X62154317Y-37377605D01*
X62087501Y-37370778D01*
X62087500Y-37370779D01*
X62087500Y-38350000D01*
X61287500Y-38350000D01*
X61287500Y-37370779D01*
X61287498Y-37370778D01*
X61220682Y-37377605D01*
X61220678Y-37377606D01*
X61052474Y-37433342D01*
X60901660Y-37526365D01*
X60901654Y-37526370D01*
X60776370Y-37651654D01*
X60776365Y-37651660D01*
X60683341Y-37802476D01*
X60681731Y-37807336D01*
X60641314Y-37865706D01*
X60575757Y-37892959D01*
X60513574Y-37883226D01*
X60513568Y-37883246D01*
X60513443Y-37883205D01*
X60510878Y-37882804D01*
X60507290Y-37881206D01*
X60320487Y-37841500D01*
X60129513Y-37841500D01*
X59942707Y-37881207D01*
X59939574Y-37882602D01*
X59937599Y-37882866D01*
X59936432Y-37883246D01*
X59936362Y-37883032D01*
X59869207Y-37892033D01*
X59804911Y-37861924D01*
X59768726Y-37807125D01*
X59767115Y-37802262D01*
X59674030Y-37651348D01*
X59674029Y-37651347D01*
X59674024Y-37651341D01*
X59548658Y-37525975D01*
X59548652Y-37525970D01*
X59519518Y-37508000D01*
X59397738Y-37432885D01*
X59309390Y-37403610D01*
X59229427Y-37377113D01*
X59229420Y-37377112D01*
X59125553Y-37366500D01*
X58399455Y-37366500D01*
X58295574Y-37377112D01*
X58127261Y-37432885D01*
X57976347Y-37525970D01*
X57976341Y-37525975D01*
X57850975Y-37651341D01*
X57850968Y-37651350D01*
X57802884Y-37729306D01*
X57750098Y-37776784D01*
X57680023Y-37788186D01*
X57629497Y-37770399D01*
X57599387Y-37751827D01*
X57524601Y-37705698D01*
X57361836Y-37651764D01*
X57361833Y-37651763D01*
X57261380Y-37641500D01*
X57261372Y-37641500D01*
X56713628Y-37641500D01*
X56713620Y-37641500D01*
X56613166Y-37651763D01*
X56450399Y-37705698D01*
X56304459Y-37795715D01*
X56304453Y-37795720D01*
X56183220Y-37916953D01*
X56183215Y-37916959D01*
X56093198Y-38062899D01*
X56039263Y-38225666D01*
X56029000Y-38326119D01*
X56029000Y-38760404D01*
X56008998Y-38828525D01*
X55992095Y-38849499D01*
X54546952Y-40294642D01*
X54484640Y-40328668D01*
X54413825Y-40323603D01*
X54376708Y-40299748D01*
X54375986Y-40300662D01*
X54370228Y-40296109D01*
X54224385Y-40206153D01*
X54087500Y-40160793D01*
X54087500Y-42339206D01*
X54096973Y-42346046D01*
X54134317Y-42344762D01*
X54195328Y-42381068D01*
X54227025Y-42444596D01*
X54228998Y-42466807D01*
X54228998Y-42533191D01*
X54208996Y-42601312D01*
X54155340Y-42647805D01*
X54093092Y-42656754D01*
X54087500Y-42660793D01*
X54087500Y-44839205D01*
X54096973Y-44846046D01*
X54134317Y-44844762D01*
X54195328Y-44881068D01*
X54227025Y-44944596D01*
X54228998Y-44966807D01*
X54228998Y-45033191D01*
X54208996Y-45101312D01*
X54155340Y-45147805D01*
X54093092Y-45156754D01*
X54087500Y-45160793D01*
X54087500Y-47339206D01*
X54096973Y-47346046D01*
X54134317Y-47344762D01*
X54195328Y-47381068D01*
X54227025Y-47444596D01*
X54228998Y-47466807D01*
X54228998Y-47533191D01*
X54208996Y-47601312D01*
X54155340Y-47647805D01*
X54093092Y-47656754D01*
X54087500Y-47660793D01*
X54087500Y-49839206D01*
X54096973Y-49846046D01*
X54134319Y-49844762D01*
X54195330Y-49881069D01*
X54227026Y-49944597D01*
X54228999Y-49966807D01*
X54228999Y-51747903D01*
X54208997Y-51816024D01*
X54192095Y-51836998D01*
X54087000Y-51942095D01*
X54024688Y-51976120D01*
X53997904Y-51979000D01*
X50196354Y-51979000D01*
X50180512Y-51977250D01*
X50180485Y-51977544D01*
X50172592Y-51976797D01*
X50102529Y-51979000D01*
X50072644Y-51979000D01*
X50072640Y-51979000D01*
X50072629Y-51979001D01*
X50065690Y-51979877D01*
X50059777Y-51980343D01*
X50012611Y-51981825D01*
X49993150Y-51987479D01*
X49973804Y-51991485D01*
X49953704Y-51994025D01*
X49953703Y-51994025D01*
X49909835Y-52011393D01*
X49904220Y-52013315D01*
X49858913Y-52026478D01*
X49858904Y-52026482D01*
X49841462Y-52036797D01*
X49823715Y-52045491D01*
X49804883Y-52052947D01*
X49804881Y-52052948D01*
X49766714Y-52080678D01*
X49761754Y-52083936D01*
X49721136Y-52107959D01*
X49721133Y-52107961D01*
X49706812Y-52122283D01*
X49691783Y-52135119D01*
X49675393Y-52147027D01*
X49645308Y-52183392D01*
X49641312Y-52187783D01*
X48986999Y-52842095D01*
X48924687Y-52876121D01*
X48897904Y-52879000D01*
X48099455Y-52879000D01*
X47995574Y-52889612D01*
X47827261Y-52945385D01*
X47676347Y-53038470D01*
X47676341Y-53038475D01*
X47550975Y-53163841D01*
X47550970Y-53163847D01*
X47457885Y-53314762D01*
X47402113Y-53483072D01*
X47402112Y-53483079D01*
X47391500Y-53586946D01*
X47391500Y-54313044D01*
X47402112Y-54416925D01*
X47457885Y-54585238D01*
X47550970Y-54736152D01*
X47550975Y-54736158D01*
X47676341Y-54861524D01*
X47676346Y-54861528D01*
X47676348Y-54861530D01*
X47827262Y-54954615D01*
X47995574Y-55010387D01*
X48099455Y-55021000D01*
X49450544Y-55020999D01*
X49554426Y-55010387D01*
X49722738Y-54954615D01*
X49873652Y-54861530D01*
X49935905Y-54799276D01*
X49998215Y-54765253D01*
X50069031Y-54770317D01*
X50114094Y-54799277D01*
X50176342Y-54861524D01*
X50176348Y-54861530D01*
X50327262Y-54954615D01*
X50495574Y-55010387D01*
X50599455Y-55021000D01*
X51950544Y-55020999D01*
X52054426Y-55010387D01*
X52222738Y-54954615D01*
X52373652Y-54861530D01*
X52435905Y-54799276D01*
X52498215Y-54765253D01*
X52569031Y-54770317D01*
X52614094Y-54799277D01*
X52676342Y-54861524D01*
X52676348Y-54861530D01*
X52827262Y-54954615D01*
X52995574Y-55010387D01*
X53099455Y-55021000D01*
X54450544Y-55020999D01*
X54554426Y-55010387D01*
X54722738Y-54954615D01*
X54873652Y-54861530D01*
X54873658Y-54861524D01*
X54935905Y-54799278D01*
X54998217Y-54765252D01*
X55069032Y-54770317D01*
X55114095Y-54799278D01*
X55176341Y-54861524D01*
X55176346Y-54861528D01*
X55176348Y-54861530D01*
X55327262Y-54954615D01*
X55495574Y-55010387D01*
X55599455Y-55021000D01*
X56950544Y-55020999D01*
X57054426Y-55010387D01*
X57222738Y-54954615D01*
X57373652Y-54861530D01*
X57435905Y-54799276D01*
X57498215Y-54765253D01*
X57569031Y-54770317D01*
X57614094Y-54799277D01*
X57676342Y-54861524D01*
X57676348Y-54861530D01*
X57827262Y-54954615D01*
X57995574Y-55010387D01*
X58099455Y-55021000D01*
X58897905Y-55020999D01*
X58966026Y-55041001D01*
X58987000Y-55057904D01*
X59518001Y-55588905D01*
X59552027Y-55651217D01*
X59546962Y-55722032D01*
X59504415Y-55778868D01*
X59437895Y-55803679D01*
X59428906Y-55804000D01*
X58099455Y-55804000D01*
X57995574Y-55814612D01*
X57827261Y-55870385D01*
X57676347Y-55963470D01*
X57614094Y-56025723D01*
X57551781Y-56059748D01*
X57480966Y-56054682D01*
X57435905Y-56025723D01*
X57373652Y-55963470D01*
X57222738Y-55870385D01*
X57112565Y-55833878D01*
X57054427Y-55814613D01*
X57054420Y-55814612D01*
X56950553Y-55804000D01*
X55599455Y-55804000D01*
X55495574Y-55814612D01*
X55327261Y-55870385D01*
X55176347Y-55963470D01*
X55176341Y-55963475D01*
X55114095Y-56025722D01*
X55051783Y-56059748D01*
X54980968Y-56054683D01*
X54935905Y-56025722D01*
X54873658Y-55963475D01*
X54873652Y-55963470D01*
X54873651Y-55963470D01*
X54722738Y-55870385D01*
X54612565Y-55833878D01*
X54554427Y-55814613D01*
X54554420Y-55814612D01*
X54450553Y-55804000D01*
X53099455Y-55804000D01*
X52995574Y-55814612D01*
X52827261Y-55870385D01*
X52676347Y-55963470D01*
X52614094Y-56025723D01*
X52551781Y-56059748D01*
X52480966Y-56054682D01*
X52435905Y-56025723D01*
X52373652Y-55963470D01*
X52222738Y-55870385D01*
X52112565Y-55833878D01*
X52054427Y-55814613D01*
X52054420Y-55814612D01*
X51950553Y-55804000D01*
X50599455Y-55804000D01*
X50495574Y-55814612D01*
X50327261Y-55870385D01*
X50176347Y-55963470D01*
X50176341Y-55963475D01*
X50114095Y-56025722D01*
X50051783Y-56059748D01*
X49980968Y-56054683D01*
X49935905Y-56025722D01*
X49873658Y-55963475D01*
X49873652Y-55963470D01*
X49873651Y-55963470D01*
X49722738Y-55870385D01*
X49612565Y-55833878D01*
X49554427Y-55814613D01*
X49554420Y-55814612D01*
X49450553Y-55804000D01*
X48099455Y-55804000D01*
X47995574Y-55814612D01*
X47827261Y-55870385D01*
X47676347Y-55963470D01*
X47676341Y-55963475D01*
X47550975Y-56088841D01*
X47550970Y-56088847D01*
X47457885Y-56239762D01*
X47402113Y-56408072D01*
X47402112Y-56408079D01*
X47391500Y-56511946D01*
X47391500Y-57238044D01*
X47402112Y-57341925D01*
X47457885Y-57510238D01*
X47550970Y-57661152D01*
X47550975Y-57661158D01*
X47676341Y-57786524D01*
X47676346Y-57786528D01*
X47676348Y-57786530D01*
X47827262Y-57879615D01*
X47945133Y-57918672D01*
X48003504Y-57959086D01*
X48030760Y-58024642D01*
X48031500Y-58038277D01*
X48031500Y-58448078D01*
X48011498Y-58516199D01*
X47965471Y-58558891D01*
X47919426Y-58583810D01*
X47919424Y-58583811D01*
X47741762Y-58722091D01*
X47589279Y-58887729D01*
X47500183Y-59024101D01*
X47446179Y-59070189D01*
X47375831Y-59079764D01*
X47311474Y-59049786D01*
X47289217Y-59024100D01*
X47200327Y-58888044D01*
X47047902Y-58722465D01*
X46870301Y-58584232D01*
X46870300Y-58584231D01*
X46672371Y-58477117D01*
X46672369Y-58477116D01*
X46525000Y-58426525D01*
X46525000Y-59422582D01*
X46506761Y-59394202D01*
X46398100Y-59300048D01*
X46267315Y-59240320D01*
X46160763Y-59225000D01*
X46089237Y-59225000D01*
X45982685Y-59240320D01*
X45851900Y-59300048D01*
X45743239Y-59394202D01*
X45665507Y-59515156D01*
X45625000Y-59653111D01*
X45625000Y-59796889D01*
X45665507Y-59934844D01*
X45743239Y-60055798D01*
X45851900Y-60149952D01*
X45982685Y-60209680D01*
X46089237Y-60225000D01*
X46160763Y-60225000D01*
X46267315Y-60209680D01*
X46398100Y-60149952D01*
X46506761Y-60055798D01*
X46525000Y-60027417D01*
X46525000Y-61023474D01*
X46672365Y-60972884D01*
X46672371Y-60972882D01*
X46870300Y-60865768D01*
X46870301Y-60865767D01*
X47047902Y-60727534D01*
X47200327Y-60561955D01*
X47289217Y-60425899D01*
X47343220Y-60379810D01*
X47413568Y-60370235D01*
X47477925Y-60400212D01*
X47500183Y-60425898D01*
X47589279Y-60562270D01*
X47741762Y-60727908D01*
X47796331Y-60770381D01*
X47919424Y-60866189D01*
X48117426Y-60973342D01*
X48117427Y-60973342D01*
X48117428Y-60973343D01*
X48159450Y-60987769D01*
X48330365Y-61046444D01*
X48552431Y-61083500D01*
X48552435Y-61083500D01*
X48777565Y-61083500D01*
X48777569Y-61083500D01*
X48999635Y-61046444D01*
X49212574Y-60973342D01*
X49410576Y-60866189D01*
X49588240Y-60727906D01*
X49740722Y-60562268D01*
X49740927Y-60561955D01*
X49792011Y-60483764D01*
X49829518Y-60426354D01*
X49883520Y-60380268D01*
X49953868Y-60370692D01*
X50018225Y-60400669D01*
X50040480Y-60426353D01*
X50073607Y-60477058D01*
X50129275Y-60562265D01*
X50129279Y-60562270D01*
X50281762Y-60727908D01*
X50336331Y-60770381D01*
X50459424Y-60866189D01*
X50657426Y-60973342D01*
X50657427Y-60973342D01*
X50657428Y-60973343D01*
X50699450Y-60987769D01*
X50870365Y-61046444D01*
X51092431Y-61083500D01*
X51092435Y-61083500D01*
X51317565Y-61083500D01*
X51317569Y-61083500D01*
X51539635Y-61046444D01*
X51752574Y-60973342D01*
X51950576Y-60866189D01*
X52128240Y-60727906D01*
X52280722Y-60562268D01*
X52369519Y-60426353D01*
X52423518Y-60380268D01*
X52493866Y-60370692D01*
X52558224Y-60400668D01*
X52580482Y-60426356D01*
X52669275Y-60562265D01*
X52669279Y-60562270D01*
X52821762Y-60727908D01*
X52876331Y-60770381D01*
X52999424Y-60866189D01*
X53197426Y-60973342D01*
X53197427Y-60973342D01*
X53197428Y-60973343D01*
X53239450Y-60987769D01*
X53410365Y-61046444D01*
X53632431Y-61083500D01*
X53632435Y-61083500D01*
X53857565Y-61083500D01*
X53857569Y-61083500D01*
X54079635Y-61046444D01*
X54292574Y-60973342D01*
X54490576Y-60866189D01*
X54668240Y-60727906D01*
X54820722Y-60562268D01*
X54820927Y-60561955D01*
X54872011Y-60483764D01*
X54909518Y-60426354D01*
X54963520Y-60380268D01*
X55033868Y-60370692D01*
X55098225Y-60400669D01*
X55120480Y-60426353D01*
X55153607Y-60477058D01*
X55209275Y-60562265D01*
X55209279Y-60562270D01*
X55361762Y-60727908D01*
X55416331Y-60770381D01*
X55539424Y-60866189D01*
X55737426Y-60973342D01*
X55737427Y-60973342D01*
X55737428Y-60973343D01*
X55779450Y-60987769D01*
X55950365Y-61046444D01*
X56172431Y-61083500D01*
X56172435Y-61083500D01*
X56397565Y-61083500D01*
X56397569Y-61083500D01*
X56619635Y-61046444D01*
X56832574Y-60973342D01*
X57030576Y-60866189D01*
X57208240Y-60727906D01*
X57269245Y-60661637D01*
X57330096Y-60625067D01*
X57401061Y-60627200D01*
X57459606Y-60667362D01*
X57480000Y-60702941D01*
X57524111Y-60821204D01*
X57524112Y-60821207D01*
X57611738Y-60938261D01*
X57728792Y-61025887D01*
X57728794Y-61025888D01*
X57728796Y-61025889D01*
X57783900Y-61046442D01*
X57865795Y-61076988D01*
X57865803Y-61076990D01*
X57926350Y-61083499D01*
X57926355Y-61083499D01*
X57926362Y-61083500D01*
X57926368Y-61083500D01*
X59723632Y-61083500D01*
X59723638Y-61083500D01*
X59723645Y-61083499D01*
X59723649Y-61083499D01*
X59784196Y-61076990D01*
X59784199Y-61076989D01*
X59784201Y-61076989D01*
X59921204Y-61025889D01*
X59924432Y-61023473D01*
X60038261Y-60938261D01*
X60125887Y-60821207D01*
X60125887Y-60821206D01*
X60125889Y-60821204D01*
X60176989Y-60684201D01*
X60178800Y-60667362D01*
X60183499Y-60623649D01*
X60183500Y-60623632D01*
X60183500Y-59000004D01*
X79969767Y-59000004D01*
X79988675Y-59276436D01*
X79988676Y-59276442D01*
X79988677Y-59276450D01*
X79989943Y-59282541D01*
X80045052Y-59547743D01*
X80045056Y-59547756D01*
X80137846Y-59808847D01*
X80265333Y-60054882D01*
X80425122Y-60281252D01*
X80425125Y-60281256D01*
X80614255Y-60483764D01*
X80614254Y-60483764D01*
X80614258Y-60483767D01*
X80829205Y-60658639D01*
X81055197Y-60796068D01*
X81065963Y-60802615D01*
X81108766Y-60821207D01*
X81320116Y-60913009D01*
X81453526Y-60950389D01*
X81586929Y-60987767D01*
X81586937Y-60987769D01*
X81861438Y-61025499D01*
X81861452Y-61025500D01*
X82138548Y-61025500D01*
X82138561Y-61025499D01*
X82372240Y-60993379D01*
X82413063Y-60987769D01*
X82679884Y-60913009D01*
X82934039Y-60802614D01*
X83170795Y-60658639D01*
X83385742Y-60483767D01*
X83574875Y-60281256D01*
X83734670Y-60054876D01*
X83862153Y-59808847D01*
X83954946Y-59547750D01*
X84011323Y-59276450D01*
X84025463Y-59069731D01*
X84030233Y-59000004D01*
X84030233Y-58999995D01*
X84011324Y-58723563D01*
X84011323Y-58723557D01*
X84011323Y-58723550D01*
X83954946Y-58452250D01*
X83862153Y-58191153D01*
X83862153Y-58191152D01*
X83743666Y-57962486D01*
X83734670Y-57945124D01*
X83734668Y-57945122D01*
X83734666Y-57945117D01*
X83578781Y-57724278D01*
X83574875Y-57718744D01*
X83385744Y-57516235D01*
X83385745Y-57516235D01*
X83269315Y-57421513D01*
X83170795Y-57341361D01*
X82977382Y-57223744D01*
X82934036Y-57197384D01*
X82679885Y-57086991D01*
X82679875Y-57086988D01*
X82413070Y-57012232D01*
X82413062Y-57012230D01*
X82138561Y-56974500D01*
X82138548Y-56974500D01*
X81861452Y-56974500D01*
X81861438Y-56974500D01*
X81586937Y-57012230D01*
X81586929Y-57012232D01*
X81320124Y-57086988D01*
X81320114Y-57086991D01*
X81065963Y-57197384D01*
X80829202Y-57341363D01*
X80614255Y-57516235D01*
X80425122Y-57718747D01*
X80265333Y-57945117D01*
X80137846Y-58191152D01*
X80045056Y-58452243D01*
X80045052Y-58452256D01*
X80017715Y-58583810D01*
X79988903Y-58722465D01*
X79988676Y-58723557D01*
X79988675Y-58723563D01*
X79969767Y-58999995D01*
X79969767Y-59000004D01*
X60183500Y-59000004D01*
X60183500Y-58826367D01*
X60183499Y-58826350D01*
X60176990Y-58765803D01*
X60176988Y-58765795D01*
X60125889Y-58628797D01*
X60125887Y-58628792D01*
X60038261Y-58511738D01*
X59921207Y-58424112D01*
X59921202Y-58424110D01*
X59784204Y-58373011D01*
X59784196Y-58373009D01*
X59723649Y-58366500D01*
X59723638Y-58366500D01*
X59584500Y-58366500D01*
X59516379Y-58346498D01*
X59469886Y-58292842D01*
X59458500Y-58240500D01*
X59458500Y-58057804D01*
X59478502Y-57989683D01*
X59532158Y-57943190D01*
X59548023Y-57937939D01*
X59547895Y-57937551D01*
X59563123Y-57932505D01*
X59722738Y-57879615D01*
X59873652Y-57786530D01*
X59999030Y-57661152D01*
X60092115Y-57510238D01*
X60147887Y-57341926D01*
X60158500Y-57238045D01*
X60158499Y-56533592D01*
X60178501Y-56465472D01*
X60232157Y-56418979D01*
X60302430Y-56408875D01*
X60367011Y-56438368D01*
X60373594Y-56444498D01*
X61392753Y-57463657D01*
X61402720Y-57476097D01*
X61402947Y-57475910D01*
X61407999Y-57482017D01*
X61408000Y-57482018D01*
X61444436Y-57516233D01*
X61459095Y-57529999D01*
X61480225Y-57551130D01*
X61485768Y-57555430D01*
X61490281Y-57559285D01*
X61524679Y-57591586D01*
X61524680Y-57591586D01*
X61524682Y-57591588D01*
X61542429Y-57601344D01*
X61558959Y-57612202D01*
X61574959Y-57624613D01*
X61597925Y-57634551D01*
X61618251Y-57643347D01*
X61623585Y-57645959D01*
X61664940Y-57668695D01*
X61684562Y-57673733D01*
X61703263Y-57680135D01*
X61721855Y-57688181D01*
X61768470Y-57695563D01*
X61774242Y-57696758D01*
X61819970Y-57708500D01*
X61840231Y-57708500D01*
X61859939Y-57710050D01*
X61879943Y-57713219D01*
X61914464Y-57709956D01*
X61926910Y-57708780D01*
X61932842Y-57708500D01*
X75341147Y-57708500D01*
X75356988Y-57710249D01*
X75357016Y-57709956D01*
X75364902Y-57710700D01*
X75364909Y-57710702D01*
X75434958Y-57708500D01*
X75464856Y-57708500D01*
X75471818Y-57707619D01*
X75477719Y-57707154D01*
X75524889Y-57705673D01*
X75544347Y-57700019D01*
X75563694Y-57696013D01*
X75583797Y-57693474D01*
X75627679Y-57676099D01*
X75633274Y-57674183D01*
X75661816Y-57665891D01*
X75678591Y-57661019D01*
X75678595Y-57661017D01*
X75696026Y-57650708D01*
X75713780Y-57642009D01*
X75732617Y-57634552D01*
X75770786Y-57606818D01*
X75775744Y-57603562D01*
X75816362Y-57579542D01*
X75830685Y-57565218D01*
X75845724Y-57552374D01*
X75847431Y-57551134D01*
X75862107Y-57540472D01*
X75892193Y-57504103D01*
X75896161Y-57499741D01*
X78350498Y-55045405D01*
X78412811Y-55011379D01*
X78439594Y-55008500D01*
X78898632Y-55008500D01*
X78898638Y-55008500D01*
X78898645Y-55008499D01*
X78898649Y-55008499D01*
X78959196Y-55001990D01*
X78959199Y-55001989D01*
X78959201Y-55001989D01*
X79096204Y-54950889D01*
X79101552Y-54946886D01*
X79129452Y-54926000D01*
X79213261Y-54863261D01*
X79254552Y-54808101D01*
X79311386Y-54765556D01*
X79382202Y-54760490D01*
X79444515Y-54794515D01*
X79444515Y-54794516D01*
X79449999Y-54800000D01*
X79450000Y-54800000D01*
X85848500Y-54800000D01*
X85916621Y-54820002D01*
X85963114Y-54873658D01*
X85974500Y-54926000D01*
X85974500Y-62848500D01*
X85954498Y-62916621D01*
X85900842Y-62963114D01*
X85848500Y-62974500D01*
X20151500Y-62974500D01*
X20083379Y-62954498D01*
X20036886Y-62900842D01*
X20025500Y-62848500D01*
X20025500Y-59000004D01*
X21969767Y-59000004D01*
X21988675Y-59276436D01*
X21988676Y-59276442D01*
X21988677Y-59276450D01*
X21989943Y-59282541D01*
X22045052Y-59547743D01*
X22045056Y-59547756D01*
X22137846Y-59808847D01*
X22265333Y-60054882D01*
X22425122Y-60281252D01*
X22425125Y-60281256D01*
X22614255Y-60483764D01*
X22614254Y-60483764D01*
X22614258Y-60483767D01*
X22829205Y-60658639D01*
X23055197Y-60796068D01*
X23065963Y-60802615D01*
X23108766Y-60821207D01*
X23320116Y-60913009D01*
X23453526Y-60950389D01*
X23586929Y-60987767D01*
X23586937Y-60987769D01*
X23861438Y-61025499D01*
X23861452Y-61025500D01*
X24138548Y-61025500D01*
X24138561Y-61025499D01*
X24372240Y-60993379D01*
X24413063Y-60987769D01*
X24679884Y-60913009D01*
X24934039Y-60802614D01*
X25170795Y-60658639D01*
X25385742Y-60483767D01*
X25574875Y-60281256D01*
X25734670Y-60054876D01*
X25862153Y-59808847D01*
X25954946Y-59547750D01*
X26011323Y-59276450D01*
X26025463Y-59069731D01*
X26030233Y-59000004D01*
X26030233Y-58999995D01*
X26011324Y-58723563D01*
X26011323Y-58723557D01*
X26011323Y-58723550D01*
X25954946Y-58452250D01*
X25862153Y-58191153D01*
X25862153Y-58191152D01*
X25743666Y-57962486D01*
X25734670Y-57945124D01*
X25734668Y-57945122D01*
X25734666Y-57945117D01*
X25578781Y-57724278D01*
X25574875Y-57718744D01*
X25385744Y-57516235D01*
X25385745Y-57516235D01*
X25269315Y-57421513D01*
X25170795Y-57341361D01*
X24977382Y-57223744D01*
X24934036Y-57197384D01*
X24679885Y-57086991D01*
X24679875Y-57086988D01*
X24413070Y-57012232D01*
X24413062Y-57012230D01*
X24138561Y-56974500D01*
X24138548Y-56974500D01*
X23861452Y-56974500D01*
X23861438Y-56974500D01*
X23586937Y-57012230D01*
X23586929Y-57012232D01*
X23320124Y-57086988D01*
X23320114Y-57086991D01*
X23065963Y-57197384D01*
X22829202Y-57341363D01*
X22614255Y-57516235D01*
X22425122Y-57718747D01*
X22265333Y-57945117D01*
X22137846Y-58191152D01*
X22045056Y-58452243D01*
X22045052Y-58452256D01*
X22017715Y-58583810D01*
X21988903Y-58722465D01*
X21988676Y-58723557D01*
X21988675Y-58723563D01*
X21969767Y-58999995D01*
X21969767Y-59000004D01*
X20025500Y-59000004D01*
X20025500Y-52963866D01*
X20045502Y-52895745D01*
X20099158Y-52849252D01*
X20169432Y-52839148D01*
X20217647Y-52856625D01*
X20314974Y-52916657D01*
X20483181Y-52972394D01*
X20549999Y-52979219D01*
X20550000Y-52979219D01*
X20550000Y-52000000D01*
X21350000Y-52000000D01*
X21350000Y-52979219D01*
X21416818Y-52972394D01*
X21585025Y-52916657D01*
X21735839Y-52823634D01*
X21735845Y-52823629D01*
X21861129Y-52698345D01*
X21861134Y-52698339D01*
X21954157Y-52547525D01*
X22009893Y-52379321D01*
X22009894Y-52379318D01*
X22020499Y-52275516D01*
X22020500Y-52275516D01*
X22020500Y-52000000D01*
X21350000Y-52000000D01*
X20550000Y-52000000D01*
X20550000Y-51326000D01*
X20570002Y-51257879D01*
X20623658Y-51211386D01*
X20676000Y-51200000D01*
X22020500Y-51200000D01*
X22020500Y-50924483D01*
X22009894Y-50820681D01*
X22009893Y-50820678D01*
X21954157Y-50652474D01*
X21861134Y-50501660D01*
X21861129Y-50501654D01*
X21782416Y-50422941D01*
X21748390Y-50360629D01*
X21753455Y-50289814D01*
X21796002Y-50232978D01*
X21862522Y-50208167D01*
X21865213Y-50208007D01*
X22023133Y-50192927D01*
X22023148Y-50192924D01*
X22226177Y-50133310D01*
X22414254Y-50036349D01*
X22580585Y-49905544D01*
X22580591Y-49905539D01*
X22719156Y-49745625D01*
X22719157Y-49745624D01*
X22824956Y-49562374D01*
X22824957Y-49562372D01*
X22846545Y-49500000D01*
X21188500Y-49500000D01*
X21120379Y-49479998D01*
X21073886Y-49426342D01*
X21068156Y-49400000D01*
X21840302Y-49400000D01*
X21922750Y-49384588D01*
X22018110Y-49325543D01*
X22085701Y-49236038D01*
X22093760Y-49207712D01*
X23620471Y-49207712D01*
X23620472Y-49207713D01*
X23739170Y-49263063D01*
X23739180Y-49263067D01*
X23947570Y-49318905D01*
X24162500Y-49337709D01*
X24377429Y-49318905D01*
X24585826Y-49263065D01*
X24585827Y-49263065D01*
X24704526Y-49207713D01*
X24162500Y-48665685D01*
X24162499Y-48665685D01*
X23620471Y-49207712D01*
X22093760Y-49207712D01*
X22116395Y-49128160D01*
X22106046Y-49016479D01*
X22056052Y-48916078D01*
X21973166Y-48840516D01*
X21868580Y-48800000D01*
X21084698Y-48800000D01*
X21062500Y-48804149D01*
X21062500Y-42400000D01*
X21840302Y-42400000D01*
X21922750Y-42384588D01*
X22018110Y-42325543D01*
X22085701Y-42236038D01*
X22116395Y-42128160D01*
X22106046Y-42016479D01*
X22093999Y-41992286D01*
X23620471Y-41992286D01*
X24162499Y-42534314D01*
X24162500Y-42534314D01*
X24704527Y-41992286D01*
X24704526Y-41992285D01*
X24585825Y-41936934D01*
X24585819Y-41936932D01*
X24377429Y-41881094D01*
X24162500Y-41862290D01*
X23947570Y-41881094D01*
X23739180Y-41936932D01*
X23739174Y-41936934D01*
X23620471Y-41992286D01*
X22093999Y-41992286D01*
X22056052Y-41916078D01*
X21973166Y-41840516D01*
X21868580Y-41800000D01*
X21084698Y-41800000D01*
X21062500Y-41804149D01*
X21062500Y-40992000D01*
X21862500Y-40992000D01*
X21862500Y-41700000D01*
X22847902Y-41700000D01*
X22847902Y-41699999D01*
X22776422Y-41543484D01*
X22776420Y-41543480D01*
X22653678Y-41371112D01*
X22653677Y-41371111D01*
X22500535Y-41225090D01*
X22500534Y-41225089D01*
X22322524Y-41110691D01*
X22322519Y-41110688D01*
X22126085Y-41032047D01*
X22126079Y-41032046D01*
X21918305Y-40992000D01*
X21862500Y-40992000D01*
X21062500Y-40992000D01*
X21059721Y-40992000D01*
X21059699Y-40992001D01*
X20901866Y-41007072D01*
X20901851Y-41007075D01*
X20698822Y-41066689D01*
X20510745Y-41163650D01*
X20344414Y-41294455D01*
X20344408Y-41294460D01*
X20246725Y-41407194D01*
X20186998Y-41445578D01*
X20116002Y-41445578D01*
X20056276Y-41407195D01*
X20026783Y-41342614D01*
X20025500Y-41324682D01*
X20025500Y-35685554D01*
X27180129Y-35685554D01*
X27180130Y-35685555D01*
X27313971Y-35747966D01*
X27313976Y-35747968D01*
X27528625Y-35805482D01*
X27749999Y-35824850D01*
X27971374Y-35805482D01*
X28186023Y-35747968D01*
X28186032Y-35747964D01*
X28319868Y-35685555D01*
X28319868Y-35685554D01*
X27750000Y-35115685D01*
X27749999Y-35115685D01*
X27180129Y-35685554D01*
X20025500Y-35685554D01*
X20025500Y-34550000D01*
X26475149Y-34550000D01*
X26494517Y-34771374D01*
X26552031Y-34986023D01*
X26552033Y-34986028D01*
X26614444Y-35119869D01*
X27152415Y-34581898D01*
X27365051Y-34581898D01*
X27396266Y-34705162D01*
X27465813Y-34811612D01*
X27566157Y-34889713D01*
X27686422Y-34931000D01*
X27781569Y-34931000D01*
X27875421Y-34915339D01*
X27987251Y-34854820D01*
X28073371Y-34761269D01*
X28124448Y-34644823D01*
X28132306Y-34549999D01*
X28315685Y-34549999D01*
X28885554Y-35119868D01*
X28885555Y-35119868D01*
X28947964Y-34986032D01*
X28947968Y-34986023D01*
X29005482Y-34771374D01*
X29024850Y-34550000D01*
X29005482Y-34328625D01*
X28947968Y-34113976D01*
X28947966Y-34113971D01*
X28885555Y-33980130D01*
X28885554Y-33980129D01*
X28315685Y-34549999D01*
X28132306Y-34549999D01*
X28134949Y-34518102D01*
X28103734Y-34394838D01*
X28034187Y-34288388D01*
X27933843Y-34210287D01*
X27813578Y-34169000D01*
X27718431Y-34169000D01*
X27624579Y-34184661D01*
X27512749Y-34245180D01*
X27426629Y-34338731D01*
X27375552Y-34455177D01*
X27365051Y-34581898D01*
X27152415Y-34581898D01*
X27184314Y-34549999D01*
X26614444Y-33980129D01*
X26614443Y-33980130D01*
X26552035Y-34113967D01*
X26552031Y-34113976D01*
X26494517Y-34328625D01*
X26475149Y-34550000D01*
X20025500Y-34550000D01*
X20025500Y-33414444D01*
X27180129Y-33414444D01*
X27749999Y-33984314D01*
X27750000Y-33984314D01*
X28319869Y-33414444D01*
X28186028Y-33352033D01*
X28186023Y-33352031D01*
X27971374Y-33294517D01*
X27749999Y-33275149D01*
X27528625Y-33294517D01*
X27313976Y-33352031D01*
X27313967Y-33352035D01*
X27180130Y-33414443D01*
X27180129Y-33414444D01*
X20025500Y-33414444D01*
X20025500Y-24000004D01*
X21969767Y-24000004D01*
X21988675Y-24276436D01*
X21988676Y-24276442D01*
X21988677Y-24276450D01*
X22009128Y-24374866D01*
X22045052Y-24547743D01*
X22045056Y-24547756D01*
X22137846Y-24808847D01*
X22265333Y-25054882D01*
X22423161Y-25278474D01*
X22425125Y-25281256D01*
X22614255Y-25483764D01*
X22614254Y-25483764D01*
X22614258Y-25483767D01*
X22829205Y-25658639D01*
X23065961Y-25802614D01*
X23065963Y-25802615D01*
X23122704Y-25827261D01*
X23320116Y-25913009D01*
X23386636Y-25931647D01*
X23586929Y-25987767D01*
X23586937Y-25987769D01*
X23861438Y-26025499D01*
X23861452Y-26025500D01*
X24138548Y-26025500D01*
X24138561Y-26025499D01*
X24379537Y-25992377D01*
X24413063Y-25987769D01*
X24679884Y-25913009D01*
X24934039Y-25802614D01*
X25170795Y-25658639D01*
X25385742Y-25483767D01*
X25574875Y-25281256D01*
X25734670Y-25054876D01*
X25862153Y-24808847D01*
X25954946Y-24547750D01*
X26011323Y-24276450D01*
X26016517Y-24200516D01*
X26030233Y-24000004D01*
X26030233Y-23999995D01*
X26011324Y-23723563D01*
X26011323Y-23723557D01*
X26011323Y-23723550D01*
X25954946Y-23452250D01*
X25936377Y-23400000D01*
X33842000Y-23400000D01*
X34750000Y-23400000D01*
X34750000Y-21792000D01*
X35550000Y-21792000D01*
X35550000Y-23400000D01*
X36458000Y-23400000D01*
X36458000Y-22900000D01*
X41192000Y-22900000D01*
X41192000Y-24050516D01*
X41202605Y-24154318D01*
X41202606Y-24154321D01*
X41258342Y-24322525D01*
X41351365Y-24473339D01*
X41351370Y-24473345D01*
X41476654Y-24598629D01*
X41476660Y-24598634D01*
X41627474Y-24691657D01*
X41795678Y-24747393D01*
X41795681Y-24747394D01*
X41899483Y-24757999D01*
X41899483Y-24758000D01*
X42100000Y-24758000D01*
X42100000Y-22900000D01*
X42900000Y-22900000D01*
X42900000Y-24758000D01*
X43100517Y-24758000D01*
X43100516Y-24757999D01*
X43204318Y-24747394D01*
X43204321Y-24747393D01*
X43372525Y-24691657D01*
X43523339Y-24598634D01*
X43523345Y-24598629D01*
X43648629Y-24473345D01*
X43648634Y-24473339D01*
X43741657Y-24322525D01*
X43797393Y-24154321D01*
X43797394Y-24154318D01*
X43807999Y-24050516D01*
X43808000Y-24050516D01*
X43808000Y-23550000D01*
X46642000Y-23550000D01*
X46642000Y-24200516D01*
X46652605Y-24304318D01*
X46652606Y-24304321D01*
X46708342Y-24472525D01*
X46801365Y-24623339D01*
X46801370Y-24623345D01*
X46926654Y-24748629D01*
X46926660Y-24748634D01*
X47077474Y-24841657D01*
X47245678Y-24897393D01*
X47245681Y-24897394D01*
X47349483Y-24907999D01*
X47349483Y-24908000D01*
X47650000Y-24908000D01*
X47650000Y-23550000D01*
X48450000Y-23550000D01*
X48450000Y-24908000D01*
X48750517Y-24908000D01*
X48750516Y-24907999D01*
X48854318Y-24897394D01*
X48854321Y-24897393D01*
X49022525Y-24841657D01*
X49173339Y-24748634D01*
X49173345Y-24748629D01*
X49298629Y-24623345D01*
X49298634Y-24623339D01*
X49391657Y-24472525D01*
X49447393Y-24304321D01*
X49447394Y-24304318D01*
X49457999Y-24200516D01*
X49458000Y-24200516D01*
X49458000Y-23550000D01*
X48450000Y-23550000D01*
X47650000Y-23550000D01*
X46642000Y-23550000D01*
X43808000Y-23550000D01*
X43808000Y-22900000D01*
X42900000Y-22900000D01*
X42100000Y-22900000D01*
X41192000Y-22900000D01*
X36458000Y-22900000D01*
X36458000Y-22750000D01*
X46642000Y-22750000D01*
X47650000Y-22750000D01*
X47650000Y-21392000D01*
X48450000Y-21392000D01*
X48450000Y-22750000D01*
X49458000Y-22750000D01*
X49458000Y-22099483D01*
X49447394Y-21995681D01*
X49447393Y-21995678D01*
X49391657Y-21827474D01*
X49298634Y-21676660D01*
X49298629Y-21676654D01*
X49173345Y-21551370D01*
X49173339Y-21551365D01*
X49022525Y-21458342D01*
X48854321Y-21402606D01*
X48854318Y-21402605D01*
X48750516Y-21392000D01*
X48450000Y-21392000D01*
X47650000Y-21392000D01*
X47349483Y-21392000D01*
X47245681Y-21402605D01*
X47245678Y-21402606D01*
X47077474Y-21458342D01*
X46926660Y-21551365D01*
X46926654Y-21551370D01*
X46801370Y-21676654D01*
X46801365Y-21676660D01*
X46708342Y-21827474D01*
X46652606Y-21995678D01*
X46652605Y-21995681D01*
X46642000Y-22099483D01*
X46642000Y-22750000D01*
X36458000Y-22750000D01*
X36458000Y-22499483D01*
X36447394Y-22395681D01*
X36447393Y-22395678D01*
X36391657Y-22227474D01*
X36298634Y-22076660D01*
X36298629Y-22076654D01*
X36173345Y-21951370D01*
X36173339Y-21951365D01*
X36022525Y-21858342D01*
X35854321Y-21802606D01*
X35854318Y-21802605D01*
X35750516Y-21792000D01*
X35550000Y-21792000D01*
X34750000Y-21792000D01*
X34549483Y-21792000D01*
X34445681Y-21802605D01*
X34445678Y-21802606D01*
X34277474Y-21858342D01*
X34126660Y-21951365D01*
X34126654Y-21951370D01*
X34001370Y-22076654D01*
X34001365Y-22076660D01*
X33908342Y-22227474D01*
X33852606Y-22395678D01*
X33852605Y-22395681D01*
X33842000Y-22499483D01*
X33842000Y-23400000D01*
X25936377Y-23400000D01*
X25862153Y-23191153D01*
X25862153Y-23191152D01*
X25788014Y-23048073D01*
X25734670Y-22945124D01*
X25734668Y-22945122D01*
X25734666Y-22945117D01*
X25574877Y-22718747D01*
X25574875Y-22718744D01*
X25385744Y-22516235D01*
X25385745Y-22516235D01*
X25170797Y-22341363D01*
X25170795Y-22341361D01*
X24977382Y-22223744D01*
X24934036Y-22197384D01*
X24679885Y-22086991D01*
X24679875Y-22086988D01*
X24413070Y-22012232D01*
X24413062Y-22012230D01*
X24138561Y-21974500D01*
X24138548Y-21974500D01*
X23861452Y-21974500D01*
X23861438Y-21974500D01*
X23586937Y-22012230D01*
X23586929Y-22012232D01*
X23320124Y-22086988D01*
X23320114Y-22086991D01*
X23065963Y-22197384D01*
X22829202Y-22341363D01*
X22614255Y-22516235D01*
X22425122Y-22718747D01*
X22265333Y-22945117D01*
X22137846Y-23191152D01*
X22045056Y-23452243D01*
X22045052Y-23452256D01*
X22030460Y-23522479D01*
X21988910Y-23722433D01*
X21988676Y-23723557D01*
X21988675Y-23723563D01*
X21969767Y-23999995D01*
X21969767Y-24000004D01*
X20025500Y-24000004D01*
X20025500Y-20151500D01*
X20045502Y-20083379D01*
X20099158Y-20036886D01*
X20151500Y-20025500D01*
X41700219Y-20025500D01*
X41768340Y-20045502D01*
G37*
%TD.AperFunction*%
%TA.AperFunction,Conductor*%
G36*
X60313849Y-53321018D02*
G01*
X60354573Y-53348269D01*
X63232709Y-56226405D01*
X63266735Y-56288717D01*
X63261670Y-56359532D01*
X63219123Y-56416368D01*
X63152603Y-56441179D01*
X63143614Y-56441500D01*
X62214595Y-56441500D01*
X62146474Y-56421498D01*
X62125500Y-56404595D01*
X60189292Y-54468387D01*
X60155266Y-54406075D01*
X60153040Y-54366486D01*
X60158500Y-54313045D01*
X60158499Y-53586956D01*
X60147887Y-53483074D01*
X60145874Y-53476998D01*
X60143433Y-53406043D01*
X60179740Y-53345033D01*
X60243269Y-53313337D01*
X60313849Y-53321018D01*
G37*
%TD.AperFunction*%
%TA.AperFunction,Conductor*%
G36*
X57765715Y-49732122D02*
G01*
X57802884Y-49770693D01*
X57823894Y-49804755D01*
X57850970Y-49848652D01*
X57850975Y-49848658D01*
X57976341Y-49974024D01*
X57976347Y-49974029D01*
X57976348Y-49974030D01*
X58127262Y-50067115D01*
X58295574Y-50122887D01*
X58399455Y-50133500D01*
X58890500Y-50133499D01*
X58958621Y-50153501D01*
X59005114Y-50207156D01*
X59016500Y-50259499D01*
X59016500Y-51663938D01*
X59014751Y-51679780D01*
X59015044Y-51679808D01*
X59014298Y-51687699D01*
X59014298Y-51687701D01*
X59016146Y-51746498D01*
X59016500Y-51757749D01*
X59016500Y-51787643D01*
X59016501Y-51787664D01*
X59017378Y-51794612D01*
X59017844Y-51800524D01*
X59019326Y-51847680D01*
X59019327Y-51847685D01*
X59024977Y-51867131D01*
X59028986Y-51886489D01*
X59031525Y-51906585D01*
X59031526Y-51906591D01*
X59048893Y-51950454D01*
X59050816Y-51956071D01*
X59063982Y-52001385D01*
X59074294Y-52018823D01*
X59082988Y-52036571D01*
X59090444Y-52055401D01*
X59090450Y-52055412D01*
X59118177Y-52093575D01*
X59121437Y-52098538D01*
X59145460Y-52139157D01*
X59159779Y-52153476D01*
X59172617Y-52168506D01*
X59182156Y-52181635D01*
X59184528Y-52184899D01*
X59205516Y-52202262D01*
X59220886Y-52214977D01*
X59225267Y-52218963D01*
X59460899Y-52454595D01*
X59689231Y-52682927D01*
X59723257Y-52745239D01*
X59718192Y-52816054D01*
X59675645Y-52872890D01*
X59609125Y-52897701D01*
X59560508Y-52891628D01*
X59554431Y-52889614D01*
X59554426Y-52889613D01*
X59554424Y-52889612D01*
X59554420Y-52889612D01*
X59450553Y-52879000D01*
X59450545Y-52879000D01*
X58652094Y-52879000D01*
X58583973Y-52858998D01*
X58562999Y-52842095D01*
X57332905Y-51612000D01*
X57298879Y-51549688D01*
X57296000Y-51522905D01*
X57296000Y-49961036D01*
X57316002Y-49892915D01*
X57369658Y-49846422D01*
X57382343Y-49841440D01*
X57524601Y-49794302D01*
X57629496Y-49729601D01*
X57697976Y-49710863D01*
X57765715Y-49732122D01*
G37*
%TD.AperFunction*%
%TA.AperFunction,Conductor*%
G36*
X66742121Y-35870002D02*
G01*
X66788614Y-35923658D01*
X66800000Y-35976000D01*
X66800000Y-37508000D01*
X66863375Y-37508000D01*
X66931496Y-37528002D01*
X66977989Y-37581658D01*
X66988685Y-37620830D01*
X67006457Y-37789927D01*
X67023243Y-37841586D01*
X67065473Y-37971556D01*
X67065476Y-37971561D01*
X67160958Y-38136941D01*
X67160965Y-38136951D01*
X67288744Y-38278864D01*
X67288747Y-38278866D01*
X67443248Y-38391118D01*
X67464624Y-38400635D01*
X67518720Y-38446613D01*
X67539371Y-38514540D01*
X67533211Y-38554674D01*
X67531458Y-38560068D01*
X67531457Y-38560070D01*
X67511496Y-38750000D01*
X67531457Y-38939927D01*
X67561526Y-39032470D01*
X67590473Y-39121556D01*
X67590476Y-39121561D01*
X67685958Y-39286941D01*
X67685965Y-39286951D01*
X67813744Y-39428864D01*
X67813747Y-39428866D01*
X67968248Y-39541118D01*
X68142712Y-39618794D01*
X68329513Y-39658500D01*
X68520487Y-39658500D01*
X68707288Y-39618794D01*
X68881752Y-39541118D01*
X69036253Y-39428866D01*
X69036255Y-39428864D01*
X69164034Y-39286951D01*
X69164035Y-39286949D01*
X69164040Y-39286944D01*
X69259527Y-39121556D01*
X69318542Y-38939928D01*
X69335907Y-38774704D01*
X69362920Y-38709049D01*
X69372112Y-38698790D01*
X70075499Y-37995404D01*
X70137812Y-37961379D01*
X70164595Y-37958500D01*
X74591147Y-37958500D01*
X74606988Y-37960249D01*
X74607016Y-37959956D01*
X74614902Y-37960700D01*
X74614909Y-37960702D01*
X74684958Y-37958500D01*
X74714856Y-37958500D01*
X74721818Y-37957619D01*
X74727719Y-37957154D01*
X74774889Y-37955673D01*
X74794347Y-37950019D01*
X74813694Y-37946013D01*
X74833797Y-37943474D01*
X74877679Y-37926099D01*
X74883274Y-37924183D01*
X74911816Y-37915891D01*
X74928591Y-37911019D01*
X74928595Y-37911017D01*
X74946026Y-37900708D01*
X74963780Y-37892009D01*
X74982617Y-37884552D01*
X75020786Y-37856818D01*
X75025744Y-37853562D01*
X75066362Y-37829542D01*
X75080685Y-37815218D01*
X75095724Y-37802374D01*
X75112107Y-37790472D01*
X75142188Y-37754108D01*
X75146167Y-37749735D01*
X75350499Y-37545404D01*
X75412812Y-37511379D01*
X75439595Y-37508500D01*
X75898632Y-37508500D01*
X75898638Y-37508500D01*
X75898645Y-37508499D01*
X75898649Y-37508499D01*
X75959196Y-37501990D01*
X75959197Y-37501989D01*
X75959201Y-37501989D01*
X76096204Y-37450889D01*
X76096205Y-37450887D01*
X76104648Y-37447739D01*
X76105850Y-37450963D01*
X76158932Y-37439391D01*
X76194563Y-37449853D01*
X76195352Y-37447739D01*
X76203794Y-37450887D01*
X76203796Y-37450889D01*
X76340799Y-37501989D01*
X76340800Y-37501989D01*
X76340803Y-37501990D01*
X76401350Y-37508499D01*
X76401355Y-37508499D01*
X76401362Y-37508500D01*
X76860404Y-37508500D01*
X76928525Y-37528502D01*
X76949499Y-37545404D01*
X77117754Y-37713658D01*
X77127722Y-37726101D01*
X77127950Y-37725913D01*
X77133001Y-37732019D01*
X77184078Y-37779983D01*
X77205223Y-37801129D01*
X77205227Y-37801132D01*
X77205230Y-37801135D01*
X77210782Y-37805442D01*
X77215269Y-37809273D01*
X77236852Y-37829541D01*
X77249677Y-37841585D01*
X77249679Y-37841586D01*
X77267428Y-37851343D01*
X77283953Y-37862198D01*
X77299959Y-37874614D01*
X77340149Y-37892005D01*
X77343262Y-37893352D01*
X77348583Y-37895958D01*
X77389940Y-37918695D01*
X77389948Y-37918697D01*
X77409558Y-37923732D01*
X77428267Y-37930137D01*
X77446855Y-37938181D01*
X77493477Y-37945564D01*
X77499262Y-37946763D01*
X77544970Y-37958500D01*
X77565224Y-37958500D01*
X77584934Y-37960051D01*
X77587141Y-37960400D01*
X77604943Y-37963220D01*
X77639472Y-37959956D01*
X77651917Y-37958780D01*
X77657850Y-37958500D01*
X79091147Y-37958500D01*
X79106988Y-37960249D01*
X79107016Y-37959956D01*
X79114902Y-37960700D01*
X79114909Y-37960702D01*
X79184958Y-37958500D01*
X79214856Y-37958500D01*
X79221818Y-37957619D01*
X79227719Y-37957154D01*
X79274889Y-37955673D01*
X79288841Y-37951619D01*
X79359836Y-37951818D01*
X79419454Y-37990369D01*
X79448766Y-38055032D01*
X79449999Y-38072614D01*
X79449999Y-52574415D01*
X79429997Y-52642536D01*
X79376341Y-52689029D01*
X79306067Y-52699133D01*
X79241487Y-52669639D01*
X79223130Y-52649922D01*
X79213261Y-52636739D01*
X79096207Y-52549112D01*
X79096202Y-52549110D01*
X78959204Y-52498011D01*
X78959196Y-52498009D01*
X78898649Y-52491500D01*
X78898638Y-52491500D01*
X77901362Y-52491500D01*
X77901350Y-52491500D01*
X77840803Y-52498009D01*
X77840795Y-52498011D01*
X77695353Y-52552260D01*
X77694156Y-52549051D01*
X77640954Y-52560600D01*
X77605427Y-52550168D01*
X77604647Y-52552260D01*
X77459204Y-52498011D01*
X77459196Y-52498009D01*
X77398649Y-52491500D01*
X77398638Y-52491500D01*
X76401362Y-52491500D01*
X76401350Y-52491500D01*
X76340803Y-52498009D01*
X76340795Y-52498011D01*
X76195353Y-52552260D01*
X76194156Y-52549051D01*
X76140954Y-52560600D01*
X76105427Y-52550168D01*
X76104647Y-52552260D01*
X75959204Y-52498011D01*
X75959196Y-52498009D01*
X75898649Y-52491500D01*
X75898638Y-52491500D01*
X74901362Y-52491500D01*
X74901350Y-52491500D01*
X74840803Y-52498009D01*
X74840795Y-52498011D01*
X74695353Y-52552260D01*
X74694156Y-52549051D01*
X74640954Y-52560600D01*
X74605427Y-52550168D01*
X74604647Y-52552260D01*
X74459204Y-52498011D01*
X74459196Y-52498009D01*
X74398649Y-52491500D01*
X74398638Y-52491500D01*
X73401362Y-52491500D01*
X73401350Y-52491500D01*
X73340803Y-52498009D01*
X73340795Y-52498011D01*
X73195353Y-52552260D01*
X73194156Y-52549051D01*
X73140954Y-52560600D01*
X73105427Y-52550168D01*
X73104647Y-52552260D01*
X72959204Y-52498011D01*
X72959196Y-52498009D01*
X72898649Y-52491500D01*
X72898638Y-52491500D01*
X71901362Y-52491500D01*
X71901350Y-52491500D01*
X71840803Y-52498009D01*
X71840795Y-52498011D01*
X71695353Y-52552260D01*
X71694156Y-52549051D01*
X71640954Y-52560600D01*
X71605427Y-52550168D01*
X71604647Y-52552260D01*
X71459204Y-52498011D01*
X71459196Y-52498009D01*
X71398649Y-52491500D01*
X71398638Y-52491500D01*
X70401362Y-52491500D01*
X70401350Y-52491500D01*
X70340803Y-52498009D01*
X70340795Y-52498011D01*
X70195353Y-52552260D01*
X70194156Y-52549051D01*
X70140954Y-52560600D01*
X70105427Y-52550168D01*
X70104647Y-52552260D01*
X69959204Y-52498011D01*
X69959196Y-52498009D01*
X69898649Y-52491500D01*
X69898638Y-52491500D01*
X69389595Y-52491500D01*
X69321474Y-52471498D01*
X69300500Y-52454595D01*
X67457244Y-50611339D01*
X67447279Y-50598901D01*
X67447052Y-50599090D01*
X67442001Y-50592984D01*
X67442000Y-50592982D01*
X67390921Y-50545016D01*
X67369777Y-50523871D01*
X67369772Y-50523866D01*
X67364225Y-50519563D01*
X67359717Y-50515712D01*
X67325325Y-50483417D01*
X67325319Y-50483413D01*
X67307563Y-50473651D01*
X67291047Y-50462802D01*
X67275041Y-50450386D01*
X67244289Y-50437078D01*
X67231740Y-50431648D01*
X67226408Y-50429036D01*
X67185061Y-50406305D01*
X67165436Y-50401266D01*
X67146736Y-50394864D01*
X67128145Y-50386819D01*
X67128143Y-50386818D01*
X67128142Y-50386818D01*
X67081542Y-50379437D01*
X67075729Y-50378233D01*
X67030030Y-50366500D01*
X67009776Y-50366500D01*
X66990066Y-50364949D01*
X66970057Y-50361780D01*
X66970056Y-50361780D01*
X66923083Y-50366220D01*
X66917150Y-50366500D01*
X66718200Y-50366500D01*
X66650079Y-50346498D01*
X66624563Y-50324810D01*
X66621252Y-50321133D01*
X66466752Y-50208882D01*
X66292288Y-50131206D01*
X66105487Y-50091500D01*
X65914513Y-50091500D01*
X65727709Y-50131206D01*
X65560748Y-50205542D01*
X65490381Y-50214976D01*
X65426084Y-50184869D01*
X65388271Y-50124780D01*
X65383500Y-50090435D01*
X65383500Y-47410000D01*
X70242000Y-47410000D01*
X70242000Y-47458597D01*
X70248505Y-47519093D01*
X70299555Y-47655964D01*
X70299555Y-47655965D01*
X70387095Y-47772904D01*
X70504034Y-47860444D01*
X70640906Y-47911494D01*
X70701402Y-47917999D01*
X70701415Y-47918000D01*
X70750000Y-47918000D01*
X70750000Y-47410000D01*
X71450000Y-47410000D01*
X71450000Y-47918000D01*
X71498585Y-47918000D01*
X71498597Y-47917999D01*
X71559093Y-47911494D01*
X71559095Y-47911494D01*
X71605964Y-47894012D01*
X71676780Y-47888946D01*
X71694032Y-47894012D01*
X71740898Y-47911492D01*
X71740906Y-47911494D01*
X71801402Y-47917999D01*
X71801415Y-47918000D01*
X71850000Y-47918000D01*
X71850000Y-47410000D01*
X72550000Y-47410000D01*
X72550000Y-47918000D01*
X72598585Y-47918000D01*
X72598597Y-47917999D01*
X72659093Y-47911494D01*
X72659095Y-47911494D01*
X72705964Y-47894012D01*
X72776780Y-47888946D01*
X72794032Y-47894012D01*
X72840898Y-47911492D01*
X72840906Y-47911494D01*
X72901402Y-47917999D01*
X72901415Y-47918000D01*
X72950000Y-47918000D01*
X72950000Y-47410000D01*
X73650000Y-47410000D01*
X73650000Y-47918000D01*
X73698585Y-47918000D01*
X73698597Y-47917999D01*
X73759093Y-47911494D01*
X73895964Y-47860444D01*
X73895965Y-47860444D01*
X74012904Y-47772904D01*
X74100444Y-47655965D01*
X74100444Y-47655964D01*
X74151494Y-47519093D01*
X74157999Y-47458597D01*
X74158000Y-47458585D01*
X74158000Y-47410000D01*
X73650000Y-47410000D01*
X72950000Y-47410000D01*
X72550000Y-47410000D01*
X71850000Y-47410000D01*
X71450000Y-47410000D01*
X70750000Y-47410000D01*
X70242000Y-47410000D01*
X65383500Y-47410000D01*
X65383500Y-46260000D01*
X70242000Y-46260000D01*
X70242000Y-46308597D01*
X70248505Y-46369094D01*
X70275312Y-46440967D01*
X70280376Y-46511783D01*
X70275312Y-46529030D01*
X70248505Y-46600904D01*
X70242000Y-46661402D01*
X70242000Y-46710000D01*
X70750000Y-46710000D01*
X70750000Y-46260000D01*
X71450000Y-46260000D01*
X71450000Y-46710000D01*
X71850000Y-46710000D01*
X71850000Y-46260000D01*
X72550000Y-46260000D01*
X72550000Y-46710000D01*
X72950000Y-46710000D01*
X72950000Y-46260000D01*
X73650000Y-46260000D01*
X73650000Y-46710000D01*
X74158000Y-46710000D01*
X74158000Y-46661414D01*
X74157999Y-46661402D01*
X74151494Y-46600907D01*
X74124686Y-46529031D01*
X74119621Y-46458215D01*
X74124687Y-46440963D01*
X74151494Y-46369095D01*
X74151494Y-46369093D01*
X74157999Y-46308597D01*
X74158000Y-46308585D01*
X74158000Y-46260000D01*
X73650000Y-46260000D01*
X72950000Y-46260000D01*
X72550000Y-46260000D01*
X71850000Y-46260000D01*
X71450000Y-46260000D01*
X70750000Y-46260000D01*
X70242000Y-46260000D01*
X65383500Y-46260000D01*
X65383500Y-45210000D01*
X70242000Y-45210000D01*
X70242000Y-45258597D01*
X70248505Y-45319093D01*
X70256664Y-45340969D01*
X70261727Y-45411785D01*
X70256664Y-45429029D01*
X70248504Y-45450907D01*
X70242000Y-45511399D01*
X70242000Y-45560000D01*
X70750000Y-45560000D01*
X70750000Y-45210000D01*
X71450000Y-45210000D01*
X71450000Y-45560000D01*
X71850000Y-45560000D01*
X71850000Y-45210000D01*
X72550000Y-45210000D01*
X72550000Y-45560000D01*
X72950000Y-45560000D01*
X72950000Y-45210000D01*
X73650000Y-45210000D01*
X73650000Y-45560000D01*
X74158000Y-45560000D01*
X74158000Y-45511414D01*
X74157999Y-45511402D01*
X74151494Y-45450906D01*
X74151493Y-45450902D01*
X74143336Y-45429031D01*
X74138272Y-45358216D01*
X74143337Y-45340964D01*
X74151494Y-45319095D01*
X74151494Y-45319093D01*
X74157999Y-45258597D01*
X74158000Y-45258585D01*
X74158000Y-45210000D01*
X73650000Y-45210000D01*
X72950000Y-45210000D01*
X72550000Y-45210000D01*
X71850000Y-45210000D01*
X71450000Y-45210000D01*
X70750000Y-45210000D01*
X70242000Y-45210000D01*
X65383500Y-45210000D01*
X65383500Y-44510000D01*
X70242000Y-44510000D01*
X70750000Y-44510000D01*
X70750000Y-44002000D01*
X71450000Y-44002000D01*
X71450000Y-44510000D01*
X71850000Y-44510000D01*
X71850000Y-44002000D01*
X72550000Y-44002000D01*
X72550000Y-44510000D01*
X72950000Y-44510000D01*
X72950000Y-44002000D01*
X73650000Y-44002000D01*
X73650000Y-44510000D01*
X74158000Y-44510000D01*
X74158000Y-44461414D01*
X74157999Y-44461402D01*
X74151494Y-44400906D01*
X74100444Y-44264035D01*
X74100444Y-44264034D01*
X74012904Y-44147095D01*
X73895965Y-44059555D01*
X73759093Y-44008505D01*
X73698597Y-44002000D01*
X73650000Y-44002000D01*
X72950000Y-44002000D01*
X72901402Y-44002000D01*
X72840904Y-44008505D01*
X72794030Y-44025988D01*
X72723214Y-44031052D01*
X72705966Y-44025988D01*
X72659093Y-44008505D01*
X72598597Y-44002000D01*
X72550000Y-44002000D01*
X71850000Y-44002000D01*
X71801402Y-44002000D01*
X71740904Y-44008505D01*
X71694030Y-44025988D01*
X71623214Y-44031052D01*
X71605967Y-44025988D01*
X71559094Y-44008505D01*
X71498597Y-44002000D01*
X71450000Y-44002000D01*
X70750000Y-44002000D01*
X70701402Y-44002000D01*
X70640906Y-44008505D01*
X70504035Y-44059555D01*
X70504034Y-44059555D01*
X70387095Y-44147095D01*
X70299555Y-44264034D01*
X70299555Y-44264035D01*
X70248505Y-44400906D01*
X70242000Y-44461402D01*
X70242000Y-44510000D01*
X65383500Y-44510000D01*
X65383500Y-37462210D01*
X65403502Y-37394089D01*
X65457158Y-37347596D01*
X65527432Y-37337492D01*
X65585009Y-37361342D01*
X65704034Y-37450444D01*
X65840906Y-37501494D01*
X65901402Y-37507999D01*
X65901415Y-37508000D01*
X66000000Y-37508000D01*
X66000000Y-35976000D01*
X66020002Y-35907879D01*
X66073658Y-35861386D01*
X66126000Y-35850000D01*
X66674000Y-35850000D01*
X66742121Y-35870002D01*
G37*
%TD.AperFunction*%
%TA.AperFunction,Conductor*%
G36*
X29863438Y-46253502D02*
G01*
X29909931Y-46307158D01*
X29915149Y-46320561D01*
X29915470Y-46321549D01*
X29915473Y-46321557D01*
X30010958Y-46486941D01*
X30010965Y-46486951D01*
X30138744Y-46628864D01*
X30138747Y-46628866D01*
X30293248Y-46741118D01*
X30467712Y-46818794D01*
X30654513Y-46858500D01*
X30845487Y-46858500D01*
X31032288Y-46818794D01*
X31206752Y-46741118D01*
X31286139Y-46683439D01*
X31353003Y-46659583D01*
X31422155Y-46675663D01*
X31471635Y-46726576D01*
X31485735Y-46796159D01*
X31459977Y-46862318D01*
X31449292Y-46874472D01*
X29249115Y-49074650D01*
X29244532Y-49078803D01*
X29208433Y-49108430D01*
X29082405Y-49261995D01*
X29070802Y-49283704D01*
X28988759Y-49437194D01*
X28988758Y-49437196D01*
X28931091Y-49627295D01*
X28931089Y-49627307D01*
X28911620Y-49824995D01*
X28911620Y-49825004D01*
X28916196Y-49871466D01*
X28916499Y-49877643D01*
X28916499Y-50090500D01*
X28896497Y-50158621D01*
X28842841Y-50205114D01*
X28790499Y-50216500D01*
X28136944Y-50216500D01*
X28133818Y-50216660D01*
X28064769Y-50200144D01*
X28038327Y-50179922D01*
X27132902Y-49274498D01*
X27098879Y-49212188D01*
X27095999Y-49185405D01*
X27095999Y-48626689D01*
X27095999Y-48097682D01*
X27116001Y-48029565D01*
X27155848Y-47990448D01*
X27295540Y-47904285D01*
X27416785Y-47783040D01*
X27506802Y-47637101D01*
X27560736Y-47474336D01*
X27563774Y-47444596D01*
X27571000Y-47373880D01*
X27571000Y-46826119D01*
X27560736Y-46725666D01*
X27560736Y-46725664D01*
X27506802Y-46562899D01*
X27422142Y-46425646D01*
X27403406Y-46357168D01*
X27424665Y-46289429D01*
X27479172Y-46243937D01*
X27529384Y-46233500D01*
X29795317Y-46233500D01*
X29863438Y-46253502D01*
G37*
%TD.AperFunction*%
%TA.AperFunction,Conductor*%
G36*
X24206533Y-47594449D02*
G01*
X24251595Y-47623410D01*
X24343337Y-47715152D01*
X24295469Y-47690762D01*
X24195951Y-47675000D01*
X24129049Y-47675000D01*
X24029531Y-47690762D01*
X23981662Y-47715152D01*
X24073405Y-47623410D01*
X24135717Y-47589384D01*
X24206533Y-47594449D01*
G37*
%TD.AperFunction*%
%TA.AperFunction,Conductor*%
G36*
X24273590Y-43554595D02*
G01*
X24211278Y-43588620D01*
X24184495Y-43591500D01*
X24140505Y-43591500D01*
X24072384Y-43571498D01*
X24051410Y-43554595D01*
X23981662Y-43484847D01*
X24029531Y-43509238D01*
X24129049Y-43525000D01*
X24195951Y-43525000D01*
X24295469Y-43509238D01*
X24343336Y-43484847D01*
X24273590Y-43554595D01*
G37*
%TD.AperFunction*%
%TA.AperFunction,Conductor*%
G36*
X69648443Y-30577259D02*
G01*
X69652262Y-30579615D01*
X69820574Y-30635387D01*
X69924455Y-30646000D01*
X71275544Y-30645999D01*
X71379426Y-30635387D01*
X71516714Y-30589895D01*
X71556347Y-30583500D01*
X72778000Y-30583500D01*
X72846121Y-30603502D01*
X72892614Y-30657158D01*
X72904000Y-30709500D01*
X72904000Y-31950544D01*
X72914612Y-32054425D01*
X72970385Y-32222738D01*
X73063473Y-32373657D01*
X73067180Y-32378345D01*
X73093740Y-32444186D01*
X73080486Y-32513935D01*
X73057441Y-32545583D01*
X73051372Y-32551652D01*
X73051365Y-32551660D01*
X72958342Y-32702474D01*
X72902606Y-32870678D01*
X72902605Y-32870681D01*
X72892000Y-32974483D01*
X72892000Y-33275000D01*
X75058000Y-33275000D01*
X75058000Y-32974483D01*
X75047394Y-32870681D01*
X75047393Y-32870678D01*
X74991657Y-32702474D01*
X74898633Y-32551659D01*
X74898630Y-32551655D01*
X74892562Y-32545587D01*
X74858536Y-32483275D01*
X74863601Y-32412460D01*
X74882823Y-32378339D01*
X74886522Y-32373659D01*
X74886530Y-32373652D01*
X74979615Y-32222738D01*
X75035387Y-32054426D01*
X75046000Y-31950545D01*
X75045999Y-30709499D01*
X75066001Y-30641379D01*
X75119657Y-30594886D01*
X75171999Y-30583500D01*
X75703000Y-30583500D01*
X75771121Y-30603502D01*
X75817614Y-30657158D01*
X75829000Y-30709500D01*
X75829000Y-31950544D01*
X75839612Y-32054422D01*
X75839612Y-32054424D01*
X75839613Y-32054426D01*
X75876096Y-32164525D01*
X75885105Y-32191713D01*
X75891500Y-32231345D01*
X75891500Y-32731376D01*
X75885105Y-32771007D01*
X75852112Y-32870575D01*
X75841500Y-32974446D01*
X75841500Y-34375544D01*
X75852112Y-34479425D01*
X75899691Y-34623010D01*
X75907885Y-34647738D01*
X76000970Y-34798652D01*
X76000971Y-34798653D01*
X76001403Y-34799353D01*
X76020140Y-34867832D01*
X75998881Y-34935571D01*
X75944374Y-34981063D01*
X75894162Y-34991500D01*
X75005250Y-34991500D01*
X74937129Y-34971498D01*
X74890636Y-34917842D01*
X74880532Y-34847568D01*
X74898009Y-34799353D01*
X74991657Y-34647525D01*
X75047393Y-34479321D01*
X75047394Y-34479318D01*
X75057999Y-34375516D01*
X75058000Y-34375516D01*
X75058000Y-34075000D01*
X72892000Y-34075000D01*
X72892000Y-34365500D01*
X72871998Y-34433621D01*
X72818342Y-34480114D01*
X72766000Y-34491500D01*
X72475990Y-34491500D01*
X72407869Y-34471498D01*
X72386895Y-34454595D01*
X70593640Y-32661339D01*
X70583675Y-32648901D01*
X70583448Y-32649090D01*
X70578397Y-32642984D01*
X70578396Y-32642982D01*
X70527316Y-32595015D01*
X70524416Y-32592115D01*
X70506173Y-32573871D01*
X70506168Y-32573866D01*
X70500621Y-32569563D01*
X70496113Y-32565712D01*
X70461721Y-32533417D01*
X70461715Y-32533413D01*
X70443959Y-32523651D01*
X70427443Y-32512802D01*
X70411437Y-32500386D01*
X70380685Y-32487078D01*
X70368136Y-32481648D01*
X70362804Y-32479036D01*
X70321457Y-32456305D01*
X70301832Y-32451266D01*
X70283132Y-32444864D01*
X70272927Y-32440448D01*
X70264541Y-32436819D01*
X70264539Y-32436818D01*
X70264538Y-32436818D01*
X70217938Y-32429437D01*
X70212125Y-32428233D01*
X70166426Y-32416500D01*
X70146172Y-32416500D01*
X70126462Y-32414949D01*
X70106453Y-32411780D01*
X70106452Y-32411780D01*
X70059479Y-32416220D01*
X70053546Y-32416500D01*
X68476611Y-32416500D01*
X68408490Y-32396498D01*
X68361997Y-32342842D01*
X68351893Y-32272568D01*
X68381387Y-32207988D01*
X68431094Y-32173008D01*
X68596218Y-32109040D01*
X68770882Y-32000892D01*
X68922701Y-31862491D01*
X68922796Y-31862366D01*
X68958651Y-31814885D01*
X69046503Y-31698550D01*
X69046504Y-31698546D01*
X69046506Y-31698545D01*
X69138070Y-31514660D01*
X69138069Y-31514660D01*
X69138074Y-31514652D01*
X69194294Y-31317059D01*
X69213249Y-31112500D01*
X69194294Y-30907941D01*
X69140530Y-30718980D01*
X69141126Y-30647988D01*
X69180010Y-30588586D01*
X69244836Y-30559636D01*
X69261720Y-30558500D01*
X69582295Y-30558500D01*
X69648443Y-30577259D01*
G37*
%TD.AperFunction*%
%TA.AperFunction,Conductor*%
G36*
X69381531Y-27457816D02*
G01*
X69426593Y-27486775D01*
X69501348Y-27561530D01*
X69652262Y-27654615D01*
X69660875Y-27657469D01*
X69719248Y-27697879D01*
X69746507Y-27763434D01*
X69741081Y-27816011D01*
X69706457Y-27922571D01*
X69686496Y-28112500D01*
X69706457Y-28302428D01*
X69730546Y-28376564D01*
X69732574Y-28447531D01*
X69695911Y-28508329D01*
X69632199Y-28539655D01*
X69610713Y-28541500D01*
X69056346Y-28541500D01*
X69016715Y-28535105D01*
X68879426Y-28489613D01*
X68879424Y-28489612D01*
X68879422Y-28489612D01*
X68775553Y-28479000D01*
X67424455Y-28479000D01*
X67320574Y-28489612D01*
X67152261Y-28545385D01*
X67001347Y-28638470D01*
X67001341Y-28638475D01*
X66957491Y-28682326D01*
X66895179Y-28716352D01*
X66824364Y-28711287D01*
X66779301Y-28682326D01*
X66748345Y-28651370D01*
X66748339Y-28651365D01*
X66597525Y-28558342D01*
X66429321Y-28502606D01*
X66429318Y-28502605D01*
X66325516Y-28492000D01*
X66025000Y-28492000D01*
X66025000Y-30658000D01*
X66325517Y-30658000D01*
X66325516Y-30657999D01*
X66429318Y-30647394D01*
X66429321Y-30647393D01*
X66597525Y-30591657D01*
X66748339Y-30498634D01*
X66804300Y-30442673D01*
X66866612Y-30408648D01*
X66937428Y-30413712D01*
X66982490Y-30442672D01*
X66994349Y-30454531D01*
X67001347Y-30461529D01*
X67001350Y-30461531D01*
X67031646Y-30480218D01*
X67079125Y-30533004D01*
X67091500Y-30587459D01*
X67091500Y-30621320D01*
X67078291Y-30677482D01*
X67061928Y-30710343D01*
X67061923Y-30710356D01*
X67005706Y-30907937D01*
X66986751Y-31112501D01*
X66999724Y-31252517D01*
X66986091Y-31322192D01*
X66963357Y-31353236D01*
X66662000Y-31654595D01*
X66599688Y-31688620D01*
X66572904Y-31691500D01*
X64734499Y-31691500D01*
X64666378Y-31671498D01*
X64619885Y-31617842D01*
X64608499Y-31565500D01*
X64608499Y-31535116D01*
X64608498Y-31535107D01*
X64601264Y-31480158D01*
X64592838Y-31416150D01*
X64585409Y-31398217D01*
X64577821Y-31327628D01*
X64585411Y-31301779D01*
X64592838Y-31283849D01*
X64596233Y-31258062D01*
X64608500Y-31164885D01*
X64608499Y-30885116D01*
X64592838Y-30766150D01*
X64592836Y-30766146D01*
X64592331Y-30762307D01*
X64603270Y-30692158D01*
X64650398Y-30639059D01*
X64718752Y-30619869D01*
X64756886Y-30626256D01*
X64820669Y-30647392D01*
X64820681Y-30647394D01*
X64924483Y-30657999D01*
X64924483Y-30658000D01*
X65225000Y-30658000D01*
X65225000Y-28492000D01*
X64924483Y-28492000D01*
X64820681Y-28502605D01*
X64820671Y-28502607D01*
X64774130Y-28518029D01*
X64703175Y-28520468D01*
X64642166Y-28484159D01*
X64610471Y-28420630D01*
X64608499Y-28398424D01*
X64608499Y-28285116D01*
X64608498Y-28285107D01*
X64592838Y-28166151D01*
X64592838Y-28166150D01*
X64585410Y-28148219D01*
X64577819Y-28077634D01*
X64585408Y-28051786D01*
X64592838Y-28033850D01*
X64608500Y-27914885D01*
X64608499Y-27802100D01*
X64628500Y-27733982D01*
X64682156Y-27687489D01*
X64752430Y-27677384D01*
X64774122Y-27682494D01*
X64820574Y-27697887D01*
X64924455Y-27708500D01*
X66325544Y-27708499D01*
X66429426Y-27697887D01*
X66597738Y-27642115D01*
X66748652Y-27549030D01*
X66792156Y-27505525D01*
X66854466Y-27471502D01*
X66925281Y-27476566D01*
X66970344Y-27505526D01*
X67001348Y-27536530D01*
X67152262Y-27629615D01*
X67320574Y-27685387D01*
X67424455Y-27696000D01*
X68775544Y-27695999D01*
X68879426Y-27685387D01*
X69047738Y-27629615D01*
X69198652Y-27536530D01*
X69248406Y-27486775D01*
X69310716Y-27452752D01*
X69381531Y-27457816D01*
G37*
%TD.AperFunction*%
%TD*%
%TA.AperFunction,Conductor*%
%TO.N,Net-(U1-SW)*%
G36*
X33468038Y-31678185D02*
G01*
X33513793Y-31730989D01*
X33524999Y-31782500D01*
X33524999Y-31817500D01*
X33505314Y-31884539D01*
X33452510Y-31930294D01*
X33400999Y-31941500D01*
X32283495Y-31941500D01*
X32246170Y-31944437D01*
X32246164Y-31944438D01*
X32086403Y-31990853D01*
X32086398Y-31990855D01*
X31943196Y-32075544D01*
X31943187Y-32075551D01*
X31825551Y-32193187D01*
X31825544Y-32193196D01*
X31740855Y-32336398D01*
X31740853Y-32336403D01*
X31694438Y-32496164D01*
X31694437Y-32496170D01*
X31691500Y-32533495D01*
X31691500Y-32966505D01*
X31694437Y-33003829D01*
X31694438Y-33003835D01*
X31740853Y-33163596D01*
X31740855Y-33163601D01*
X31825544Y-33306803D01*
X31825551Y-33306812D01*
X31943187Y-33424448D01*
X31943191Y-33424451D01*
X31943193Y-33424453D01*
X32086399Y-33509145D01*
X32128530Y-33521385D01*
X32246164Y-33555561D01*
X32246167Y-33555561D01*
X32246169Y-33555562D01*
X32255501Y-33556296D01*
X32283495Y-33558500D01*
X32283498Y-33558500D01*
X32476246Y-33558500D01*
X32543285Y-33578185D01*
X32563927Y-33594819D01*
X32705180Y-33736072D01*
X32738665Y-33797395D01*
X32741499Y-33823753D01*
X32741499Y-38316003D01*
X32723038Y-38381099D01*
X32632888Y-38527255D01*
X32632884Y-38527264D01*
X32577113Y-38695572D01*
X32566500Y-38799447D01*
X32566500Y-39332137D01*
X32546815Y-39399176D01*
X32530181Y-39419818D01*
X31336319Y-40613681D01*
X31274996Y-40647166D01*
X31248638Y-40650000D01*
X29999000Y-40650000D01*
X29931961Y-40630315D01*
X29886206Y-40577511D01*
X29875000Y-40526000D01*
X29875000Y-38390681D01*
X29894685Y-38323642D01*
X29899099Y-38317225D01*
X29899998Y-38316003D01*
X30500000Y-37500000D01*
X30500000Y-32676360D01*
X30519685Y-32609322D01*
X30536314Y-32588685D01*
X31282929Y-31842070D01*
X31325808Y-31814131D01*
X31371218Y-31796540D01*
X31545882Y-31688392D01*
X31545885Y-31688389D01*
X31550456Y-31684938D01*
X31551765Y-31686672D01*
X31605982Y-31660245D01*
X31626710Y-31658500D01*
X33400999Y-31658500D01*
X33468038Y-31678185D01*
G37*
%TD.AperFunction*%
%TD*%
M02*
