%TF.GenerationSoftware,KiCad,Pcbnew,7.0.6*%
%TF.CreationDate,2023-12-30T19:56:00-05:00*%
%TF.ProjectId,Crystal,43727973-7461-46c2-9e6b-696361645f70,rev?*%
%TF.SameCoordinates,PX1312d00PY1312d00*%
%TF.FileFunction,Legend,Top*%
%TF.FilePolarity,Positive*%
%FSLAX46Y46*%
G04 Gerber Fmt 4.6, Leading zero omitted, Abs format (unit mm)*
G04 Created by KiCad (PCBNEW 7.0.6) date 2023-12-30 19:56:00*
%MOMM*%
%LPD*%
G01*
G04 APERTURE LIST*
%ADD10C,0.120000*%
%ADD11C,0.150000*%
%ADD12C,0.300000*%
%ADD13C,0.200000*%
%ADD14C,0.100000*%
%ADD15C,0.125000*%
G04 APERTURE END LIST*
D10*
X8000000Y-7950000D02*
X100000Y-7950000D01*
X8000000Y-35000000D02*
X8000000Y-42900000D01*
X8000000Y-7950000D02*
X8000000Y-100000D01*
X58000000Y-35000000D02*
X65900000Y-35000000D01*
X58000000Y-42900000D02*
X58000000Y-35000000D01*
X58000000Y-8000000D02*
X58000000Y-100000D01*
X8000000Y-35000000D02*
X100000Y-35000000D01*
X65900000Y-8000000D02*
X58000000Y-8000000D01*
D11*
X250000Y-17395342D02*
X1050000Y-17395342D01*
X1050000Y-17395342D02*
X535714Y-18595342D01*
X1507143Y-18138200D02*
X2421429Y-18138200D01*
X2935714Y-17509628D02*
X2992857Y-17452485D01*
X2992857Y-17452485D02*
X3107143Y-17395342D01*
X3107143Y-17395342D02*
X3392857Y-17395342D01*
X3392857Y-17395342D02*
X3507143Y-17452485D01*
X3507143Y-17452485D02*
X3564285Y-17509628D01*
X3564285Y-17509628D02*
X3621428Y-17623914D01*
X3621428Y-17623914D02*
X3621428Y-17738200D01*
X3621428Y-17738200D02*
X3564285Y-17909628D01*
X3564285Y-17909628D02*
X2878571Y-18595342D01*
X2878571Y-18595342D02*
X3621428Y-18595342D01*
X4650000Y-17795342D02*
X4650000Y-18595342D01*
X4364285Y-17338200D02*
X4078571Y-18195342D01*
X4078571Y-18195342D02*
X4821428Y-18195342D01*
X5107142Y-17395342D02*
X5507142Y-18595342D01*
X5507142Y-18595342D02*
X5907142Y-17395342D01*
X6307142Y-18595342D02*
X6307142Y-17395342D01*
X6307142Y-17395342D02*
X6592856Y-17395342D01*
X6592856Y-17395342D02*
X6764285Y-17452485D01*
X6764285Y-17452485D02*
X6878570Y-17566771D01*
X6878570Y-17566771D02*
X6935713Y-17681057D01*
X6935713Y-17681057D02*
X6992856Y-17909628D01*
X6992856Y-17909628D02*
X6992856Y-18081057D01*
X6992856Y-18081057D02*
X6935713Y-18309628D01*
X6935713Y-18309628D02*
X6878570Y-18423914D01*
X6878570Y-18423914D02*
X6764285Y-18538200D01*
X6764285Y-18538200D02*
X6592856Y-18595342D01*
X6592856Y-18595342D02*
X6307142Y-18595342D01*
X8192856Y-18481057D02*
X8135713Y-18538200D01*
X8135713Y-18538200D02*
X7964285Y-18595342D01*
X7964285Y-18595342D02*
X7849999Y-18595342D01*
X7849999Y-18595342D02*
X7678570Y-18538200D01*
X7678570Y-18538200D02*
X7564285Y-18423914D01*
X7564285Y-18423914D02*
X7507142Y-18309628D01*
X7507142Y-18309628D02*
X7449999Y-18081057D01*
X7449999Y-18081057D02*
X7449999Y-17909628D01*
X7449999Y-17909628D02*
X7507142Y-17681057D01*
X7507142Y-17681057D02*
X7564285Y-17566771D01*
X7564285Y-17566771D02*
X7678570Y-17452485D01*
X7678570Y-17452485D02*
X7849999Y-17395342D01*
X7849999Y-17395342D02*
X7964285Y-17395342D01*
X7964285Y-17395342D02*
X8135713Y-17452485D01*
X8135713Y-17452485D02*
X8192856Y-17509628D01*
D12*
X60361653Y-14775828D02*
X59861653Y-14061542D01*
X59504510Y-14775828D02*
X59504510Y-13275828D01*
X59504510Y-13275828D02*
X60075939Y-13275828D01*
X60075939Y-13275828D02*
X60218796Y-13347257D01*
X60218796Y-13347257D02*
X60290225Y-13418685D01*
X60290225Y-13418685D02*
X60361653Y-13561542D01*
X60361653Y-13561542D02*
X60361653Y-13775828D01*
X60361653Y-13775828D02*
X60290225Y-13918685D01*
X60290225Y-13918685D02*
X60218796Y-13990114D01*
X60218796Y-13990114D02*
X60075939Y-14061542D01*
X60075939Y-14061542D02*
X59504510Y-14061542D01*
X61004510Y-13990114D02*
X61504510Y-13990114D01*
X61718796Y-14775828D02*
X61004510Y-14775828D01*
X61004510Y-14775828D02*
X61004510Y-13275828D01*
X61004510Y-13275828D02*
X61718796Y-13275828D01*
X62290225Y-14704400D02*
X62504511Y-14775828D01*
X62504511Y-14775828D02*
X62861653Y-14775828D01*
X62861653Y-14775828D02*
X63004511Y-14704400D01*
X63004511Y-14704400D02*
X63075939Y-14632971D01*
X63075939Y-14632971D02*
X63147368Y-14490114D01*
X63147368Y-14490114D02*
X63147368Y-14347257D01*
X63147368Y-14347257D02*
X63075939Y-14204400D01*
X63075939Y-14204400D02*
X63004511Y-14132971D01*
X63004511Y-14132971D02*
X62861653Y-14061542D01*
X62861653Y-14061542D02*
X62575939Y-13990114D01*
X62575939Y-13990114D02*
X62433082Y-13918685D01*
X62433082Y-13918685D02*
X62361653Y-13847257D01*
X62361653Y-13847257D02*
X62290225Y-13704400D01*
X62290225Y-13704400D02*
X62290225Y-13561542D01*
X62290225Y-13561542D02*
X62361653Y-13418685D01*
X62361653Y-13418685D02*
X62433082Y-13347257D01*
X62433082Y-13347257D02*
X62575939Y-13275828D01*
X62575939Y-13275828D02*
X62933082Y-13275828D01*
X62933082Y-13275828D02*
X63147368Y-13347257D01*
X63790224Y-13990114D02*
X64290224Y-13990114D01*
X64504510Y-14775828D02*
X63790224Y-14775828D01*
X63790224Y-14775828D02*
X63790224Y-13275828D01*
X63790224Y-13275828D02*
X64504510Y-13275828D01*
X64933082Y-13275828D02*
X65790225Y-13275828D01*
X65361653Y-14775828D02*
X65361653Y-13275828D01*
D13*
X52347647Y-3411279D02*
X52385742Y-3296993D01*
X52385742Y-3296993D02*
X52423838Y-3258898D01*
X52423838Y-3258898D02*
X52500028Y-3220802D01*
X52500028Y-3220802D02*
X52614314Y-3220802D01*
X52614314Y-3220802D02*
X52690504Y-3258898D01*
X52690504Y-3258898D02*
X52728600Y-3296993D01*
X52728600Y-3296993D02*
X52766695Y-3373183D01*
X52766695Y-3373183D02*
X52766695Y-3677945D01*
X52766695Y-3677945D02*
X51966695Y-3677945D01*
X51966695Y-3677945D02*
X51966695Y-3411279D01*
X51966695Y-3411279D02*
X52004790Y-3335088D01*
X52004790Y-3335088D02*
X52042885Y-3296993D01*
X52042885Y-3296993D02*
X52119076Y-3258898D01*
X52119076Y-3258898D02*
X52195266Y-3258898D01*
X52195266Y-3258898D02*
X52271457Y-3296993D01*
X52271457Y-3296993D02*
X52309552Y-3335088D01*
X52309552Y-3335088D02*
X52347647Y-3411279D01*
X52347647Y-3411279D02*
X52347647Y-3677945D01*
X51966695Y-2725564D02*
X51966695Y-2573183D01*
X51966695Y-2573183D02*
X52004790Y-2496993D01*
X52004790Y-2496993D02*
X52080980Y-2420802D01*
X52080980Y-2420802D02*
X52233361Y-2382707D01*
X52233361Y-2382707D02*
X52500028Y-2382707D01*
X52500028Y-2382707D02*
X52652409Y-2420802D01*
X52652409Y-2420802D02*
X52728600Y-2496993D01*
X52728600Y-2496993D02*
X52766695Y-2573183D01*
X52766695Y-2573183D02*
X52766695Y-2725564D01*
X52766695Y-2725564D02*
X52728600Y-2801755D01*
X52728600Y-2801755D02*
X52652409Y-2877945D01*
X52652409Y-2877945D02*
X52500028Y-2916041D01*
X52500028Y-2916041D02*
X52233361Y-2916041D01*
X52233361Y-2916041D02*
X52080980Y-2877945D01*
X52080980Y-2877945D02*
X52004790Y-2801755D01*
X52004790Y-2801755D02*
X51966695Y-2725564D01*
X51966695Y-1887469D02*
X51966695Y-1735088D01*
X51966695Y-1735088D02*
X52004790Y-1658898D01*
X52004790Y-1658898D02*
X52080980Y-1582707D01*
X52080980Y-1582707D02*
X52233361Y-1544612D01*
X52233361Y-1544612D02*
X52500028Y-1544612D01*
X52500028Y-1544612D02*
X52652409Y-1582707D01*
X52652409Y-1582707D02*
X52728600Y-1658898D01*
X52728600Y-1658898D02*
X52766695Y-1735088D01*
X52766695Y-1735088D02*
X52766695Y-1887469D01*
X52766695Y-1887469D02*
X52728600Y-1963660D01*
X52728600Y-1963660D02*
X52652409Y-2039850D01*
X52652409Y-2039850D02*
X52500028Y-2077946D01*
X52500028Y-2077946D02*
X52233361Y-2077946D01*
X52233361Y-2077946D02*
X52080980Y-2039850D01*
X52080980Y-2039850D02*
X52004790Y-1963660D01*
X52004790Y-1963660D02*
X51966695Y-1887469D01*
X51966695Y-1316041D02*
X51966695Y-858898D01*
X52766695Y-1087470D02*
X51966695Y-1087470D01*
D12*
X8654510Y-17979400D02*
X9797368Y-17979400D01*
D14*
X34406265Y-4646895D02*
X34406265Y-3846895D01*
X34406265Y-3846895D02*
X34596741Y-3846895D01*
X34596741Y-3846895D02*
X34711027Y-3884990D01*
X34711027Y-3884990D02*
X34787217Y-3961180D01*
X34787217Y-3961180D02*
X34825312Y-4037371D01*
X34825312Y-4037371D02*
X34863408Y-4189752D01*
X34863408Y-4189752D02*
X34863408Y-4304038D01*
X34863408Y-4304038D02*
X34825312Y-4456419D01*
X34825312Y-4456419D02*
X34787217Y-4532609D01*
X34787217Y-4532609D02*
X34711027Y-4608800D01*
X34711027Y-4608800D02*
X34596741Y-4646895D01*
X34596741Y-4646895D02*
X34406265Y-4646895D01*
X35549122Y-3846895D02*
X35396741Y-3846895D01*
X35396741Y-3846895D02*
X35320550Y-3884990D01*
X35320550Y-3884990D02*
X35282455Y-3923085D01*
X35282455Y-3923085D02*
X35206265Y-4037371D01*
X35206265Y-4037371D02*
X35168169Y-4189752D01*
X35168169Y-4189752D02*
X35168169Y-4494514D01*
X35168169Y-4494514D02*
X35206265Y-4570704D01*
X35206265Y-4570704D02*
X35244360Y-4608800D01*
X35244360Y-4608800D02*
X35320550Y-4646895D01*
X35320550Y-4646895D02*
X35472931Y-4646895D01*
X35472931Y-4646895D02*
X35549122Y-4608800D01*
X35549122Y-4608800D02*
X35587217Y-4570704D01*
X35587217Y-4570704D02*
X35625312Y-4494514D01*
X35625312Y-4494514D02*
X35625312Y-4304038D01*
X35625312Y-4304038D02*
X35587217Y-4227847D01*
X35587217Y-4227847D02*
X35549122Y-4189752D01*
X35549122Y-4189752D02*
X35472931Y-4151657D01*
X35472931Y-4151657D02*
X35320550Y-4151657D01*
X35320550Y-4151657D02*
X35244360Y-4189752D01*
X35244360Y-4189752D02*
X35206265Y-4227847D01*
X35206265Y-4227847D02*
X35168169Y-4304038D01*
X44206265Y-4646895D02*
X44206265Y-3846895D01*
X44206265Y-3846895D02*
X44396741Y-3846895D01*
X44396741Y-3846895D02*
X44511027Y-3884990D01*
X44511027Y-3884990D02*
X44587217Y-3961180D01*
X44587217Y-3961180D02*
X44625312Y-4037371D01*
X44625312Y-4037371D02*
X44663408Y-4189752D01*
X44663408Y-4189752D02*
X44663408Y-4304038D01*
X44663408Y-4304038D02*
X44625312Y-4456419D01*
X44625312Y-4456419D02*
X44587217Y-4532609D01*
X44587217Y-4532609D02*
X44511027Y-4608800D01*
X44511027Y-4608800D02*
X44396741Y-4646895D01*
X44396741Y-4646895D02*
X44206265Y-4646895D01*
X45425312Y-4646895D02*
X44968169Y-4646895D01*
X45196741Y-4646895D02*
X45196741Y-3846895D01*
X45196741Y-3846895D02*
X45120550Y-3961180D01*
X45120550Y-3961180D02*
X45044360Y-4037371D01*
X45044360Y-4037371D02*
X44968169Y-4075466D01*
X45920551Y-3846895D02*
X45996741Y-3846895D01*
X45996741Y-3846895D02*
X46072932Y-3884990D01*
X46072932Y-3884990D02*
X46111027Y-3923085D01*
X46111027Y-3923085D02*
X46149122Y-3999276D01*
X46149122Y-3999276D02*
X46187217Y-4151657D01*
X46187217Y-4151657D02*
X46187217Y-4342133D01*
X46187217Y-4342133D02*
X46149122Y-4494514D01*
X46149122Y-4494514D02*
X46111027Y-4570704D01*
X46111027Y-4570704D02*
X46072932Y-4608800D01*
X46072932Y-4608800D02*
X45996741Y-4646895D01*
X45996741Y-4646895D02*
X45920551Y-4646895D01*
X45920551Y-4646895D02*
X45844360Y-4608800D01*
X45844360Y-4608800D02*
X45806265Y-4570704D01*
X45806265Y-4570704D02*
X45768170Y-4494514D01*
X45768170Y-4494514D02*
X45730074Y-4342133D01*
X45730074Y-4342133D02*
X45730074Y-4151657D01*
X45730074Y-4151657D02*
X45768170Y-3999276D01*
X45768170Y-3999276D02*
X45806265Y-3923085D01*
X45806265Y-3923085D02*
X45844360Y-3884990D01*
X45844360Y-3884990D02*
X45920551Y-3846895D01*
X39481265Y-4646895D02*
X39481265Y-3846895D01*
X39481265Y-3846895D02*
X39671741Y-3846895D01*
X39671741Y-3846895D02*
X39786027Y-3884990D01*
X39786027Y-3884990D02*
X39862217Y-3961180D01*
X39862217Y-3961180D02*
X39900312Y-4037371D01*
X39900312Y-4037371D02*
X39938408Y-4189752D01*
X39938408Y-4189752D02*
X39938408Y-4304038D01*
X39938408Y-4304038D02*
X39900312Y-4456419D01*
X39900312Y-4456419D02*
X39862217Y-4532609D01*
X39862217Y-4532609D02*
X39786027Y-4608800D01*
X39786027Y-4608800D02*
X39671741Y-4646895D01*
X39671741Y-4646895D02*
X39481265Y-4646895D01*
X40395550Y-4189752D02*
X40319360Y-4151657D01*
X40319360Y-4151657D02*
X40281265Y-4113561D01*
X40281265Y-4113561D02*
X40243169Y-4037371D01*
X40243169Y-4037371D02*
X40243169Y-3999276D01*
X40243169Y-3999276D02*
X40281265Y-3923085D01*
X40281265Y-3923085D02*
X40319360Y-3884990D01*
X40319360Y-3884990D02*
X40395550Y-3846895D01*
X40395550Y-3846895D02*
X40547931Y-3846895D01*
X40547931Y-3846895D02*
X40624122Y-3884990D01*
X40624122Y-3884990D02*
X40662217Y-3923085D01*
X40662217Y-3923085D02*
X40700312Y-3999276D01*
X40700312Y-3999276D02*
X40700312Y-4037371D01*
X40700312Y-4037371D02*
X40662217Y-4113561D01*
X40662217Y-4113561D02*
X40624122Y-4151657D01*
X40624122Y-4151657D02*
X40547931Y-4189752D01*
X40547931Y-4189752D02*
X40395550Y-4189752D01*
X40395550Y-4189752D02*
X40319360Y-4227847D01*
X40319360Y-4227847D02*
X40281265Y-4265942D01*
X40281265Y-4265942D02*
X40243169Y-4342133D01*
X40243169Y-4342133D02*
X40243169Y-4494514D01*
X40243169Y-4494514D02*
X40281265Y-4570704D01*
X40281265Y-4570704D02*
X40319360Y-4608800D01*
X40319360Y-4608800D02*
X40395550Y-4646895D01*
X40395550Y-4646895D02*
X40547931Y-4646895D01*
X40547931Y-4646895D02*
X40624122Y-4608800D01*
X40624122Y-4608800D02*
X40662217Y-4570704D01*
X40662217Y-4570704D02*
X40700312Y-4494514D01*
X40700312Y-4494514D02*
X40700312Y-4342133D01*
X40700312Y-4342133D02*
X40662217Y-4265942D01*
X40662217Y-4265942D02*
X40624122Y-4227847D01*
X40624122Y-4227847D02*
X40547931Y-4189752D01*
D15*
X27797712Y-42360404D02*
X28273902Y-42360404D01*
X27702474Y-42646119D02*
X28035807Y-41646119D01*
X28035807Y-41646119D02*
X28369140Y-42646119D01*
X29178664Y-41646119D02*
X28702474Y-41646119D01*
X28702474Y-41646119D02*
X28654855Y-42122309D01*
X28654855Y-42122309D02*
X28702474Y-42074690D01*
X28702474Y-42074690D02*
X28797712Y-42027071D01*
X28797712Y-42027071D02*
X29035807Y-42027071D01*
X29035807Y-42027071D02*
X29131045Y-42074690D01*
X29131045Y-42074690D02*
X29178664Y-42122309D01*
X29178664Y-42122309D02*
X29226283Y-42217547D01*
X29226283Y-42217547D02*
X29226283Y-42455642D01*
X29226283Y-42455642D02*
X29178664Y-42550880D01*
X29178664Y-42550880D02*
X29131045Y-42598500D01*
X29131045Y-42598500D02*
X29035807Y-42646119D01*
X29035807Y-42646119D02*
X28797712Y-42646119D01*
X28797712Y-42646119D02*
X28702474Y-42598500D01*
X28702474Y-42598500D02*
X28654855Y-42550880D01*
X30369141Y-42360404D02*
X30845331Y-42360404D01*
X30273903Y-42646119D02*
X30607236Y-41646119D01*
X30607236Y-41646119D02*
X30940569Y-42646119D01*
X31702474Y-41979452D02*
X31702474Y-42646119D01*
X31464379Y-41598500D02*
X31226284Y-42312785D01*
X31226284Y-42312785D02*
X31845331Y-42312785D01*
X32940570Y-42360404D02*
X33416760Y-42360404D01*
X32845332Y-42646119D02*
X33178665Y-41646119D01*
X33178665Y-41646119D02*
X33511998Y-42646119D01*
X33750094Y-41646119D02*
X34369141Y-41646119D01*
X34369141Y-41646119D02*
X34035808Y-42027071D01*
X34035808Y-42027071D02*
X34178665Y-42027071D01*
X34178665Y-42027071D02*
X34273903Y-42074690D01*
X34273903Y-42074690D02*
X34321522Y-42122309D01*
X34321522Y-42122309D02*
X34369141Y-42217547D01*
X34369141Y-42217547D02*
X34369141Y-42455642D01*
X34369141Y-42455642D02*
X34321522Y-42550880D01*
X34321522Y-42550880D02*
X34273903Y-42598500D01*
X34273903Y-42598500D02*
X34178665Y-42646119D01*
X34178665Y-42646119D02*
X33892951Y-42646119D01*
X33892951Y-42646119D02*
X33797713Y-42598500D01*
X33797713Y-42598500D02*
X33750094Y-42550880D01*
X35511999Y-42360404D02*
X35988189Y-42360404D01*
X35416761Y-42646119D02*
X35750094Y-41646119D01*
X35750094Y-41646119D02*
X36083427Y-42646119D01*
X36369142Y-41741357D02*
X36416761Y-41693738D01*
X36416761Y-41693738D02*
X36511999Y-41646119D01*
X36511999Y-41646119D02*
X36750094Y-41646119D01*
X36750094Y-41646119D02*
X36845332Y-41693738D01*
X36845332Y-41693738D02*
X36892951Y-41741357D01*
X36892951Y-41741357D02*
X36940570Y-41836595D01*
X36940570Y-41836595D02*
X36940570Y-41931833D01*
X36940570Y-41931833D02*
X36892951Y-42074690D01*
X36892951Y-42074690D02*
X36321523Y-42646119D01*
X36321523Y-42646119D02*
X36940570Y-42646119D01*
X38083428Y-42360404D02*
X38559618Y-42360404D01*
X37988190Y-42646119D02*
X38321523Y-41646119D01*
X38321523Y-41646119D02*
X38654856Y-42646119D01*
X39511999Y-42646119D02*
X38940571Y-42646119D01*
X39226285Y-42646119D02*
X39226285Y-41646119D01*
X39226285Y-41646119D02*
X39131047Y-41788976D01*
X39131047Y-41788976D02*
X39035809Y-41884214D01*
X39035809Y-41884214D02*
X38940571Y-41931833D01*
D11*
X9712969Y-41694819D02*
X9236779Y-41694819D01*
X9236779Y-41694819D02*
X9189160Y-42171009D01*
X9189160Y-42171009D02*
X9236779Y-42123390D01*
X9236779Y-42123390D02*
X9332017Y-42075771D01*
X9332017Y-42075771D02*
X9570112Y-42075771D01*
X9570112Y-42075771D02*
X9665350Y-42123390D01*
X9665350Y-42123390D02*
X9712969Y-42171009D01*
X9712969Y-42171009D02*
X9760588Y-42266247D01*
X9760588Y-42266247D02*
X9760588Y-42504342D01*
X9760588Y-42504342D02*
X9712969Y-42599580D01*
X9712969Y-42599580D02*
X9665350Y-42647200D01*
X9665350Y-42647200D02*
X9570112Y-42694819D01*
X9570112Y-42694819D02*
X9332017Y-42694819D01*
X9332017Y-42694819D02*
X9236779Y-42647200D01*
X9236779Y-42647200D02*
X9189160Y-42599580D01*
X10046303Y-41694819D02*
X10379636Y-42694819D01*
X10379636Y-42694819D02*
X10712969Y-41694819D01*
X12379636Y-42694819D02*
X12046303Y-42218628D01*
X11808208Y-42694819D02*
X11808208Y-41694819D01*
X11808208Y-41694819D02*
X12189160Y-41694819D01*
X12189160Y-41694819D02*
X12284398Y-41742438D01*
X12284398Y-41742438D02*
X12332017Y-41790057D01*
X12332017Y-41790057D02*
X12379636Y-41885295D01*
X12379636Y-41885295D02*
X12379636Y-42028152D01*
X12379636Y-42028152D02*
X12332017Y-42123390D01*
X12332017Y-42123390D02*
X12284398Y-42171009D01*
X12284398Y-42171009D02*
X12189160Y-42218628D01*
X12189160Y-42218628D02*
X11808208Y-42218628D01*
X12712970Y-41694819D02*
X13379636Y-42694819D01*
X13379636Y-41694819D02*
X12712970Y-42694819D01*
X14379637Y-41694819D02*
X14951065Y-41694819D01*
X14665351Y-42694819D02*
X14665351Y-41694819D01*
X15189161Y-41694819D02*
X15855827Y-42694819D01*
X15855827Y-41694819D02*
X15189161Y-42694819D01*
X17522494Y-41742438D02*
X17427256Y-41694819D01*
X17427256Y-41694819D02*
X17284399Y-41694819D01*
X17284399Y-41694819D02*
X17141542Y-41742438D01*
X17141542Y-41742438D02*
X17046304Y-41837676D01*
X17046304Y-41837676D02*
X16998685Y-41932914D01*
X16998685Y-41932914D02*
X16951066Y-42123390D01*
X16951066Y-42123390D02*
X16951066Y-42266247D01*
X16951066Y-42266247D02*
X16998685Y-42456723D01*
X16998685Y-42456723D02*
X17046304Y-42551961D01*
X17046304Y-42551961D02*
X17141542Y-42647200D01*
X17141542Y-42647200D02*
X17284399Y-42694819D01*
X17284399Y-42694819D02*
X17379637Y-42694819D01*
X17379637Y-42694819D02*
X17522494Y-42647200D01*
X17522494Y-42647200D02*
X17570113Y-42599580D01*
X17570113Y-42599580D02*
X17570113Y-42266247D01*
X17570113Y-42266247D02*
X17379637Y-42266247D01*
X17998685Y-42694819D02*
X17998685Y-41694819D01*
X17998685Y-41694819D02*
X18570113Y-42694819D01*
X18570113Y-42694819D02*
X18570113Y-41694819D01*
X19046304Y-42694819D02*
X19046304Y-41694819D01*
X19046304Y-41694819D02*
X19284399Y-41694819D01*
X19284399Y-41694819D02*
X19427256Y-41742438D01*
X19427256Y-41742438D02*
X19522494Y-41837676D01*
X19522494Y-41837676D02*
X19570113Y-41932914D01*
X19570113Y-41932914D02*
X19617732Y-42123390D01*
X19617732Y-42123390D02*
X19617732Y-42266247D01*
X19617732Y-42266247D02*
X19570113Y-42456723D01*
X19570113Y-42456723D02*
X19522494Y-42551961D01*
X19522494Y-42551961D02*
X19427256Y-42647200D01*
X19427256Y-42647200D02*
X19284399Y-42694819D01*
X19284399Y-42694819D02*
X19046304Y-42694819D01*
D14*
X42031265Y-4646895D02*
X42031265Y-3846895D01*
X42031265Y-3846895D02*
X42221741Y-3846895D01*
X42221741Y-3846895D02*
X42336027Y-3884990D01*
X42336027Y-3884990D02*
X42412217Y-3961180D01*
X42412217Y-3961180D02*
X42450312Y-4037371D01*
X42450312Y-4037371D02*
X42488408Y-4189752D01*
X42488408Y-4189752D02*
X42488408Y-4304038D01*
X42488408Y-4304038D02*
X42450312Y-4456419D01*
X42450312Y-4456419D02*
X42412217Y-4532609D01*
X42412217Y-4532609D02*
X42336027Y-4608800D01*
X42336027Y-4608800D02*
X42221741Y-4646895D01*
X42221741Y-4646895D02*
X42031265Y-4646895D01*
X42869360Y-4646895D02*
X43021741Y-4646895D01*
X43021741Y-4646895D02*
X43097931Y-4608800D01*
X43097931Y-4608800D02*
X43136027Y-4570704D01*
X43136027Y-4570704D02*
X43212217Y-4456419D01*
X43212217Y-4456419D02*
X43250312Y-4304038D01*
X43250312Y-4304038D02*
X43250312Y-3999276D01*
X43250312Y-3999276D02*
X43212217Y-3923085D01*
X43212217Y-3923085D02*
X43174122Y-3884990D01*
X43174122Y-3884990D02*
X43097931Y-3846895D01*
X43097931Y-3846895D02*
X42945550Y-3846895D01*
X42945550Y-3846895D02*
X42869360Y-3884990D01*
X42869360Y-3884990D02*
X42831265Y-3923085D01*
X42831265Y-3923085D02*
X42793169Y-3999276D01*
X42793169Y-3999276D02*
X42793169Y-4189752D01*
X42793169Y-4189752D02*
X42831265Y-4265942D01*
X42831265Y-4265942D02*
X42869360Y-4304038D01*
X42869360Y-4304038D02*
X42945550Y-4342133D01*
X42945550Y-4342133D02*
X43097931Y-4342133D01*
X43097931Y-4342133D02*
X43174122Y-4304038D01*
X43174122Y-4304038D02*
X43212217Y-4265942D01*
X43212217Y-4265942D02*
X43250312Y-4189752D01*
X31856265Y-4646895D02*
X31856265Y-3846895D01*
X31856265Y-3846895D02*
X32046741Y-3846895D01*
X32046741Y-3846895D02*
X32161027Y-3884990D01*
X32161027Y-3884990D02*
X32237217Y-3961180D01*
X32237217Y-3961180D02*
X32275312Y-4037371D01*
X32275312Y-4037371D02*
X32313408Y-4189752D01*
X32313408Y-4189752D02*
X32313408Y-4304038D01*
X32313408Y-4304038D02*
X32275312Y-4456419D01*
X32275312Y-4456419D02*
X32237217Y-4532609D01*
X32237217Y-4532609D02*
X32161027Y-4608800D01*
X32161027Y-4608800D02*
X32046741Y-4646895D01*
X32046741Y-4646895D02*
X31856265Y-4646895D01*
X33037217Y-3846895D02*
X32656265Y-3846895D01*
X32656265Y-3846895D02*
X32618169Y-4227847D01*
X32618169Y-4227847D02*
X32656265Y-4189752D01*
X32656265Y-4189752D02*
X32732455Y-4151657D01*
X32732455Y-4151657D02*
X32922931Y-4151657D01*
X32922931Y-4151657D02*
X32999122Y-4189752D01*
X32999122Y-4189752D02*
X33037217Y-4227847D01*
X33037217Y-4227847D02*
X33075312Y-4304038D01*
X33075312Y-4304038D02*
X33075312Y-4494514D01*
X33075312Y-4494514D02*
X33037217Y-4570704D01*
X33037217Y-4570704D02*
X32999122Y-4608800D01*
X32999122Y-4608800D02*
X32922931Y-4646895D01*
X32922931Y-4646895D02*
X32732455Y-4646895D01*
X32732455Y-4646895D02*
X32656265Y-4608800D01*
X32656265Y-4608800D02*
X32618169Y-4570704D01*
D11*
X5461779Y-21519819D02*
X5461779Y-22329342D01*
X5461779Y-22329342D02*
X5509398Y-22424580D01*
X5509398Y-22424580D02*
X5557017Y-22472200D01*
X5557017Y-22472200D02*
X5652255Y-22519819D01*
X5652255Y-22519819D02*
X5842731Y-22519819D01*
X5842731Y-22519819D02*
X5937969Y-22472200D01*
X5937969Y-22472200D02*
X5985588Y-22424580D01*
X5985588Y-22424580D02*
X6033207Y-22329342D01*
X6033207Y-22329342D02*
X6033207Y-21519819D01*
X6461779Y-22472200D02*
X6604636Y-22519819D01*
X6604636Y-22519819D02*
X6842731Y-22519819D01*
X6842731Y-22519819D02*
X6937969Y-22472200D01*
X6937969Y-22472200D02*
X6985588Y-22424580D01*
X6985588Y-22424580D02*
X7033207Y-22329342D01*
X7033207Y-22329342D02*
X7033207Y-22234104D01*
X7033207Y-22234104D02*
X6985588Y-22138866D01*
X6985588Y-22138866D02*
X6937969Y-22091247D01*
X6937969Y-22091247D02*
X6842731Y-22043628D01*
X6842731Y-22043628D02*
X6652255Y-21996009D01*
X6652255Y-21996009D02*
X6557017Y-21948390D01*
X6557017Y-21948390D02*
X6509398Y-21900771D01*
X6509398Y-21900771D02*
X6461779Y-21805533D01*
X6461779Y-21805533D02*
X6461779Y-21710295D01*
X6461779Y-21710295D02*
X6509398Y-21615057D01*
X6509398Y-21615057D02*
X6557017Y-21567438D01*
X6557017Y-21567438D02*
X6652255Y-21519819D01*
X6652255Y-21519819D02*
X6890350Y-21519819D01*
X6890350Y-21519819D02*
X7033207Y-21567438D01*
X7795112Y-21996009D02*
X7937969Y-22043628D01*
X7937969Y-22043628D02*
X7985588Y-22091247D01*
X7985588Y-22091247D02*
X8033207Y-22186485D01*
X8033207Y-22186485D02*
X8033207Y-22329342D01*
X8033207Y-22329342D02*
X7985588Y-22424580D01*
X7985588Y-22424580D02*
X7937969Y-22472200D01*
X7937969Y-22472200D02*
X7842731Y-22519819D01*
X7842731Y-22519819D02*
X7461779Y-22519819D01*
X7461779Y-22519819D02*
X7461779Y-21519819D01*
X7461779Y-21519819D02*
X7795112Y-21519819D01*
X7795112Y-21519819D02*
X7890350Y-21567438D01*
X7890350Y-21567438D02*
X7937969Y-21615057D01*
X7937969Y-21615057D02*
X7985588Y-21710295D01*
X7985588Y-21710295D02*
X7985588Y-21805533D01*
X7985588Y-21805533D02*
X7937969Y-21900771D01*
X7937969Y-21900771D02*
X7890350Y-21948390D01*
X7890350Y-21948390D02*
X7795112Y-21996009D01*
X7795112Y-21996009D02*
X7461779Y-21996009D01*
D14*
X37006265Y-4646895D02*
X37006265Y-3846895D01*
X37006265Y-3846895D02*
X37196741Y-3846895D01*
X37196741Y-3846895D02*
X37311027Y-3884990D01*
X37311027Y-3884990D02*
X37387217Y-3961180D01*
X37387217Y-3961180D02*
X37425312Y-4037371D01*
X37425312Y-4037371D02*
X37463408Y-4189752D01*
X37463408Y-4189752D02*
X37463408Y-4304038D01*
X37463408Y-4304038D02*
X37425312Y-4456419D01*
X37425312Y-4456419D02*
X37387217Y-4532609D01*
X37387217Y-4532609D02*
X37311027Y-4608800D01*
X37311027Y-4608800D02*
X37196741Y-4646895D01*
X37196741Y-4646895D02*
X37006265Y-4646895D01*
X37730074Y-3846895D02*
X38263408Y-3846895D01*
X38263408Y-3846895D02*
X37920550Y-4646895D01*
D12*
X8654510Y-7129400D02*
X9797368Y-7129400D01*
X9225939Y-7700828D02*
X9225939Y-6557971D01*
D11*
X10683333Y-15454819D02*
X10207143Y-15454819D01*
X10207143Y-15454819D02*
X10207143Y-14454819D01*
X11540476Y-15454819D02*
X10969048Y-15454819D01*
X11254762Y-15454819D02*
X11254762Y-14454819D01*
X11254762Y-14454819D02*
X11159524Y-14597676D01*
X11159524Y-14597676D02*
X11064286Y-14692914D01*
X11064286Y-14692914D02*
X10969048Y-14740533D01*
X43369642Y-24204819D02*
X43036309Y-23728628D01*
X42798214Y-24204819D02*
X42798214Y-23204819D01*
X42798214Y-23204819D02*
X43179166Y-23204819D01*
X43179166Y-23204819D02*
X43274404Y-23252438D01*
X43274404Y-23252438D02*
X43322023Y-23300057D01*
X43322023Y-23300057D02*
X43369642Y-23395295D01*
X43369642Y-23395295D02*
X43369642Y-23538152D01*
X43369642Y-23538152D02*
X43322023Y-23633390D01*
X43322023Y-23633390D02*
X43274404Y-23681009D01*
X43274404Y-23681009D02*
X43179166Y-23728628D01*
X43179166Y-23728628D02*
X42798214Y-23728628D01*
X44322023Y-24204819D02*
X43750595Y-24204819D01*
X44036309Y-24204819D02*
X44036309Y-23204819D01*
X44036309Y-23204819D02*
X43941071Y-23347676D01*
X43941071Y-23347676D02*
X43845833Y-23442914D01*
X43845833Y-23442914D02*
X43750595Y-23490533D01*
X44702976Y-23300057D02*
X44750595Y-23252438D01*
X44750595Y-23252438D02*
X44845833Y-23204819D01*
X44845833Y-23204819D02*
X45083928Y-23204819D01*
X45083928Y-23204819D02*
X45179166Y-23252438D01*
X45179166Y-23252438D02*
X45226785Y-23300057D01*
X45226785Y-23300057D02*
X45274404Y-23395295D01*
X45274404Y-23395295D02*
X45274404Y-23490533D01*
X45274404Y-23490533D02*
X45226785Y-23633390D01*
X45226785Y-23633390D02*
X44655357Y-24204819D01*
X44655357Y-24204819D02*
X45274404Y-24204819D01*
X17933333Y-2159580D02*
X17885714Y-2207200D01*
X17885714Y-2207200D02*
X17742857Y-2254819D01*
X17742857Y-2254819D02*
X17647619Y-2254819D01*
X17647619Y-2254819D02*
X17504762Y-2207200D01*
X17504762Y-2207200D02*
X17409524Y-2111961D01*
X17409524Y-2111961D02*
X17361905Y-2016723D01*
X17361905Y-2016723D02*
X17314286Y-1826247D01*
X17314286Y-1826247D02*
X17314286Y-1683390D01*
X17314286Y-1683390D02*
X17361905Y-1492914D01*
X17361905Y-1492914D02*
X17409524Y-1397676D01*
X17409524Y-1397676D02*
X17504762Y-1302438D01*
X17504762Y-1302438D02*
X17647619Y-1254819D01*
X17647619Y-1254819D02*
X17742857Y-1254819D01*
X17742857Y-1254819D02*
X17885714Y-1302438D01*
X17885714Y-1302438D02*
X17933333Y-1350057D01*
X18695238Y-1731009D02*
X18838095Y-1778628D01*
X18838095Y-1778628D02*
X18885714Y-1826247D01*
X18885714Y-1826247D02*
X18933333Y-1921485D01*
X18933333Y-1921485D02*
X18933333Y-2064342D01*
X18933333Y-2064342D02*
X18885714Y-2159580D01*
X18885714Y-2159580D02*
X18838095Y-2207200D01*
X18838095Y-2207200D02*
X18742857Y-2254819D01*
X18742857Y-2254819D02*
X18361905Y-2254819D01*
X18361905Y-2254819D02*
X18361905Y-1254819D01*
X18361905Y-1254819D02*
X18695238Y-1254819D01*
X18695238Y-1254819D02*
X18790476Y-1302438D01*
X18790476Y-1302438D02*
X18838095Y-1350057D01*
X18838095Y-1350057D02*
X18885714Y-1445295D01*
X18885714Y-1445295D02*
X18885714Y-1540533D01*
X18885714Y-1540533D02*
X18838095Y-1635771D01*
X18838095Y-1635771D02*
X18790476Y-1683390D01*
X18790476Y-1683390D02*
X18695238Y-1731009D01*
X18695238Y-1731009D02*
X18361905Y-1731009D01*
X19885714Y-2254819D02*
X19314286Y-2254819D01*
X19600000Y-2254819D02*
X19600000Y-1254819D01*
X19600000Y-1254819D02*
X19504762Y-1397676D01*
X19504762Y-1397676D02*
X19409524Y-1492914D01*
X19409524Y-1492914D02*
X19314286Y-1540533D01*
X36729819Y-32366666D02*
X36253628Y-32699999D01*
X36729819Y-32938094D02*
X35729819Y-32938094D01*
X35729819Y-32938094D02*
X35729819Y-32557142D01*
X35729819Y-32557142D02*
X35777438Y-32461904D01*
X35777438Y-32461904D02*
X35825057Y-32414285D01*
X35825057Y-32414285D02*
X35920295Y-32366666D01*
X35920295Y-32366666D02*
X36063152Y-32366666D01*
X36063152Y-32366666D02*
X36158390Y-32414285D01*
X36158390Y-32414285D02*
X36206009Y-32461904D01*
X36206009Y-32461904D02*
X36253628Y-32557142D01*
X36253628Y-32557142D02*
X36253628Y-32938094D01*
X36729819Y-31890475D02*
X36729819Y-31699999D01*
X36729819Y-31699999D02*
X36682200Y-31604761D01*
X36682200Y-31604761D02*
X36634580Y-31557142D01*
X36634580Y-31557142D02*
X36491723Y-31461904D01*
X36491723Y-31461904D02*
X36301247Y-31414285D01*
X36301247Y-31414285D02*
X35920295Y-31414285D01*
X35920295Y-31414285D02*
X35825057Y-31461904D01*
X35825057Y-31461904D02*
X35777438Y-31509523D01*
X35777438Y-31509523D02*
X35729819Y-31604761D01*
X35729819Y-31604761D02*
X35729819Y-31795237D01*
X35729819Y-31795237D02*
X35777438Y-31890475D01*
X35777438Y-31890475D02*
X35825057Y-31938094D01*
X35825057Y-31938094D02*
X35920295Y-31985713D01*
X35920295Y-31985713D02*
X36158390Y-31985713D01*
X36158390Y-31985713D02*
X36253628Y-31938094D01*
X36253628Y-31938094D02*
X36301247Y-31890475D01*
X36301247Y-31890475D02*
X36348866Y-31795237D01*
X36348866Y-31795237D02*
X36348866Y-31604761D01*
X36348866Y-31604761D02*
X36301247Y-31509523D01*
X36301247Y-31509523D02*
X36253628Y-31461904D01*
X36253628Y-31461904D02*
X36158390Y-31414285D01*
X53004819Y-8041666D02*
X52528628Y-8374999D01*
X53004819Y-8613094D02*
X52004819Y-8613094D01*
X52004819Y-8613094D02*
X52004819Y-8232142D01*
X52004819Y-8232142D02*
X52052438Y-8136904D01*
X52052438Y-8136904D02*
X52100057Y-8089285D01*
X52100057Y-8089285D02*
X52195295Y-8041666D01*
X52195295Y-8041666D02*
X52338152Y-8041666D01*
X52338152Y-8041666D02*
X52433390Y-8089285D01*
X52433390Y-8089285D02*
X52481009Y-8136904D01*
X52481009Y-8136904D02*
X52528628Y-8232142D01*
X52528628Y-8232142D02*
X52528628Y-8613094D01*
X52004819Y-7708332D02*
X52004819Y-7089285D01*
X52004819Y-7089285D02*
X52385771Y-7422618D01*
X52385771Y-7422618D02*
X52385771Y-7279761D01*
X52385771Y-7279761D02*
X52433390Y-7184523D01*
X52433390Y-7184523D02*
X52481009Y-7136904D01*
X52481009Y-7136904D02*
X52576247Y-7089285D01*
X52576247Y-7089285D02*
X52814342Y-7089285D01*
X52814342Y-7089285D02*
X52909580Y-7136904D01*
X52909580Y-7136904D02*
X52957200Y-7184523D01*
X52957200Y-7184523D02*
X53004819Y-7279761D01*
X53004819Y-7279761D02*
X53004819Y-7565475D01*
X53004819Y-7565475D02*
X52957200Y-7660713D01*
X52957200Y-7660713D02*
X52909580Y-7708332D01*
X6411905Y-34004819D02*
X6411905Y-33004819D01*
X6411905Y-33004819D02*
X6650000Y-33004819D01*
X6650000Y-33004819D02*
X6792857Y-33052438D01*
X6792857Y-33052438D02*
X6888095Y-33147676D01*
X6888095Y-33147676D02*
X6935714Y-33242914D01*
X6935714Y-33242914D02*
X6983333Y-33433390D01*
X6983333Y-33433390D02*
X6983333Y-33576247D01*
X6983333Y-33576247D02*
X6935714Y-33766723D01*
X6935714Y-33766723D02*
X6888095Y-33861961D01*
X6888095Y-33861961D02*
X6792857Y-33957200D01*
X6792857Y-33957200D02*
X6650000Y-34004819D01*
X6650000Y-34004819D02*
X6411905Y-34004819D01*
X7364286Y-33100057D02*
X7411905Y-33052438D01*
X7411905Y-33052438D02*
X7507143Y-33004819D01*
X7507143Y-33004819D02*
X7745238Y-33004819D01*
X7745238Y-33004819D02*
X7840476Y-33052438D01*
X7840476Y-33052438D02*
X7888095Y-33100057D01*
X7888095Y-33100057D02*
X7935714Y-33195295D01*
X7935714Y-33195295D02*
X7935714Y-33290533D01*
X7935714Y-33290533D02*
X7888095Y-33433390D01*
X7888095Y-33433390D02*
X7316667Y-34004819D01*
X7316667Y-34004819D02*
X7935714Y-34004819D01*
X17204819Y-23261904D02*
X18014342Y-23261904D01*
X18014342Y-23261904D02*
X18109580Y-23214285D01*
X18109580Y-23214285D02*
X18157200Y-23166666D01*
X18157200Y-23166666D02*
X18204819Y-23071428D01*
X18204819Y-23071428D02*
X18204819Y-22880952D01*
X18204819Y-22880952D02*
X18157200Y-22785714D01*
X18157200Y-22785714D02*
X18109580Y-22738095D01*
X18109580Y-22738095D02*
X18014342Y-22690476D01*
X18014342Y-22690476D02*
X17204819Y-22690476D01*
X17300057Y-22261904D02*
X17252438Y-22214285D01*
X17252438Y-22214285D02*
X17204819Y-22119047D01*
X17204819Y-22119047D02*
X17204819Y-21880952D01*
X17204819Y-21880952D02*
X17252438Y-21785714D01*
X17252438Y-21785714D02*
X17300057Y-21738095D01*
X17300057Y-21738095D02*
X17395295Y-21690476D01*
X17395295Y-21690476D02*
X17490533Y-21690476D01*
X17490533Y-21690476D02*
X17633390Y-21738095D01*
X17633390Y-21738095D02*
X18204819Y-22309523D01*
X18204819Y-22309523D02*
X18204819Y-21690476D01*
X52884580Y-5541666D02*
X52932200Y-5589285D01*
X52932200Y-5589285D02*
X52979819Y-5732142D01*
X52979819Y-5732142D02*
X52979819Y-5827380D01*
X52979819Y-5827380D02*
X52932200Y-5970237D01*
X52932200Y-5970237D02*
X52836961Y-6065475D01*
X52836961Y-6065475D02*
X52741723Y-6113094D01*
X52741723Y-6113094D02*
X52551247Y-6160713D01*
X52551247Y-6160713D02*
X52408390Y-6160713D01*
X52408390Y-6160713D02*
X52217914Y-6113094D01*
X52217914Y-6113094D02*
X52122676Y-6065475D01*
X52122676Y-6065475D02*
X52027438Y-5970237D01*
X52027438Y-5970237D02*
X51979819Y-5827380D01*
X51979819Y-5827380D02*
X51979819Y-5732142D01*
X51979819Y-5732142D02*
X52027438Y-5589285D01*
X52027438Y-5589285D02*
X52075057Y-5541666D01*
X52075057Y-5160713D02*
X52027438Y-5113094D01*
X52027438Y-5113094D02*
X51979819Y-5017856D01*
X51979819Y-5017856D02*
X51979819Y-4779761D01*
X51979819Y-4779761D02*
X52027438Y-4684523D01*
X52027438Y-4684523D02*
X52075057Y-4636904D01*
X52075057Y-4636904D02*
X52170295Y-4589285D01*
X52170295Y-4589285D02*
X52265533Y-4589285D01*
X52265533Y-4589285D02*
X52408390Y-4636904D01*
X52408390Y-4636904D02*
X52979819Y-5208332D01*
X52979819Y-5208332D02*
X52979819Y-4589285D01*
X31286905Y-26704819D02*
X31286905Y-25704819D01*
X31286905Y-25704819D02*
X31525000Y-25704819D01*
X31525000Y-25704819D02*
X31667857Y-25752438D01*
X31667857Y-25752438D02*
X31763095Y-25847676D01*
X31763095Y-25847676D02*
X31810714Y-25942914D01*
X31810714Y-25942914D02*
X31858333Y-26133390D01*
X31858333Y-26133390D02*
X31858333Y-26276247D01*
X31858333Y-26276247D02*
X31810714Y-26466723D01*
X31810714Y-26466723D02*
X31763095Y-26561961D01*
X31763095Y-26561961D02*
X31667857Y-26657200D01*
X31667857Y-26657200D02*
X31525000Y-26704819D01*
X31525000Y-26704819D02*
X31286905Y-26704819D01*
X32715476Y-26038152D02*
X32715476Y-26704819D01*
X32477381Y-25657200D02*
X32239286Y-26371485D01*
X32239286Y-26371485D02*
X32858333Y-26371485D01*
X31667319Y-32342857D02*
X31191128Y-32676190D01*
X31667319Y-32914285D02*
X30667319Y-32914285D01*
X30667319Y-32914285D02*
X30667319Y-32533333D01*
X30667319Y-32533333D02*
X30714938Y-32438095D01*
X30714938Y-32438095D02*
X30762557Y-32390476D01*
X30762557Y-32390476D02*
X30857795Y-32342857D01*
X30857795Y-32342857D02*
X31000652Y-32342857D01*
X31000652Y-32342857D02*
X31095890Y-32390476D01*
X31095890Y-32390476D02*
X31143509Y-32438095D01*
X31143509Y-32438095D02*
X31191128Y-32533333D01*
X31191128Y-32533333D02*
X31191128Y-32914285D01*
X31667319Y-31390476D02*
X31667319Y-31961904D01*
X31667319Y-31676190D02*
X30667319Y-31676190D01*
X30667319Y-31676190D02*
X30810176Y-31771428D01*
X30810176Y-31771428D02*
X30905414Y-31866666D01*
X30905414Y-31866666D02*
X30953033Y-31961904D01*
X30667319Y-31057142D02*
X30667319Y-30438095D01*
X30667319Y-30438095D02*
X31048271Y-30771428D01*
X31048271Y-30771428D02*
X31048271Y-30628571D01*
X31048271Y-30628571D02*
X31095890Y-30533333D01*
X31095890Y-30533333D02*
X31143509Y-30485714D01*
X31143509Y-30485714D02*
X31238747Y-30438095D01*
X31238747Y-30438095D02*
X31476842Y-30438095D01*
X31476842Y-30438095D02*
X31572080Y-30485714D01*
X31572080Y-30485714D02*
X31619700Y-30533333D01*
X31619700Y-30533333D02*
X31667319Y-30628571D01*
X31667319Y-30628571D02*
X31667319Y-30914285D01*
X31667319Y-30914285D02*
X31619700Y-31009523D01*
X31619700Y-31009523D02*
X31572080Y-31057142D01*
X43369642Y-26604819D02*
X43036309Y-26128628D01*
X42798214Y-26604819D02*
X42798214Y-25604819D01*
X42798214Y-25604819D02*
X43179166Y-25604819D01*
X43179166Y-25604819D02*
X43274404Y-25652438D01*
X43274404Y-25652438D02*
X43322023Y-25700057D01*
X43322023Y-25700057D02*
X43369642Y-25795295D01*
X43369642Y-25795295D02*
X43369642Y-25938152D01*
X43369642Y-25938152D02*
X43322023Y-26033390D01*
X43322023Y-26033390D02*
X43274404Y-26081009D01*
X43274404Y-26081009D02*
X43179166Y-26128628D01*
X43179166Y-26128628D02*
X42798214Y-26128628D01*
X44322023Y-26604819D02*
X43750595Y-26604819D01*
X44036309Y-26604819D02*
X44036309Y-25604819D01*
X44036309Y-25604819D02*
X43941071Y-25747676D01*
X43941071Y-25747676D02*
X43845833Y-25842914D01*
X43845833Y-25842914D02*
X43750595Y-25890533D01*
X44941071Y-25604819D02*
X45036309Y-25604819D01*
X45036309Y-25604819D02*
X45131547Y-25652438D01*
X45131547Y-25652438D02*
X45179166Y-25700057D01*
X45179166Y-25700057D02*
X45226785Y-25795295D01*
X45226785Y-25795295D02*
X45274404Y-25985771D01*
X45274404Y-25985771D02*
X45274404Y-26223866D01*
X45274404Y-26223866D02*
X45226785Y-26414342D01*
X45226785Y-26414342D02*
X45179166Y-26509580D01*
X45179166Y-26509580D02*
X45131547Y-26557200D01*
X45131547Y-26557200D02*
X45036309Y-26604819D01*
X45036309Y-26604819D02*
X44941071Y-26604819D01*
X44941071Y-26604819D02*
X44845833Y-26557200D01*
X44845833Y-26557200D02*
X44798214Y-26509580D01*
X44798214Y-26509580D02*
X44750595Y-26414342D01*
X44750595Y-26414342D02*
X44702976Y-26223866D01*
X44702976Y-26223866D02*
X44702976Y-25985771D01*
X44702976Y-25985771D02*
X44750595Y-25795295D01*
X44750595Y-25795295D02*
X44798214Y-25700057D01*
X44798214Y-25700057D02*
X44845833Y-25652438D01*
X44845833Y-25652438D02*
X44941071Y-25604819D01*
X43369642Y-19204819D02*
X43036309Y-18728628D01*
X42798214Y-19204819D02*
X42798214Y-18204819D01*
X42798214Y-18204819D02*
X43179166Y-18204819D01*
X43179166Y-18204819D02*
X43274404Y-18252438D01*
X43274404Y-18252438D02*
X43322023Y-18300057D01*
X43322023Y-18300057D02*
X43369642Y-18395295D01*
X43369642Y-18395295D02*
X43369642Y-18538152D01*
X43369642Y-18538152D02*
X43322023Y-18633390D01*
X43322023Y-18633390D02*
X43274404Y-18681009D01*
X43274404Y-18681009D02*
X43179166Y-18728628D01*
X43179166Y-18728628D02*
X42798214Y-18728628D01*
X44322023Y-19204819D02*
X43750595Y-19204819D01*
X44036309Y-19204819D02*
X44036309Y-18204819D01*
X44036309Y-18204819D02*
X43941071Y-18347676D01*
X43941071Y-18347676D02*
X43845833Y-18442914D01*
X43845833Y-18442914D02*
X43750595Y-18490533D01*
X45179166Y-18204819D02*
X44988690Y-18204819D01*
X44988690Y-18204819D02*
X44893452Y-18252438D01*
X44893452Y-18252438D02*
X44845833Y-18300057D01*
X44845833Y-18300057D02*
X44750595Y-18442914D01*
X44750595Y-18442914D02*
X44702976Y-18633390D01*
X44702976Y-18633390D02*
X44702976Y-19014342D01*
X44702976Y-19014342D02*
X44750595Y-19109580D01*
X44750595Y-19109580D02*
X44798214Y-19157200D01*
X44798214Y-19157200D02*
X44893452Y-19204819D01*
X44893452Y-19204819D02*
X45083928Y-19204819D01*
X45083928Y-19204819D02*
X45179166Y-19157200D01*
X45179166Y-19157200D02*
X45226785Y-19109580D01*
X45226785Y-19109580D02*
X45274404Y-19014342D01*
X45274404Y-19014342D02*
X45274404Y-18776247D01*
X45274404Y-18776247D02*
X45226785Y-18681009D01*
X45226785Y-18681009D02*
X45179166Y-18633390D01*
X45179166Y-18633390D02*
X45083928Y-18585771D01*
X45083928Y-18585771D02*
X44893452Y-18585771D01*
X44893452Y-18585771D02*
X44798214Y-18633390D01*
X44798214Y-18633390D02*
X44750595Y-18681009D01*
X44750595Y-18681009D02*
X44702976Y-18776247D01*
X19754819Y-41271428D02*
X19754819Y-40700000D01*
X20754819Y-40985714D02*
X19754819Y-40985714D01*
X19754819Y-40509523D02*
X19754819Y-39938095D01*
X20754819Y-40223809D02*
X19754819Y-40223809D01*
X20278628Y-39414285D02*
X20754819Y-39414285D01*
X19754819Y-39747618D02*
X20278628Y-39414285D01*
X20278628Y-39414285D02*
X19754819Y-39080952D01*
X20754819Y-38223809D02*
X20754819Y-38795237D01*
X20754819Y-38509523D02*
X19754819Y-38509523D01*
X19754819Y-38509523D02*
X19897676Y-38604761D01*
X19897676Y-38604761D02*
X19992914Y-38699999D01*
X19992914Y-38699999D02*
X20040533Y-38795237D01*
X31286905Y-24179819D02*
X31286905Y-23179819D01*
X31286905Y-23179819D02*
X31525000Y-23179819D01*
X31525000Y-23179819D02*
X31667857Y-23227438D01*
X31667857Y-23227438D02*
X31763095Y-23322676D01*
X31763095Y-23322676D02*
X31810714Y-23417914D01*
X31810714Y-23417914D02*
X31858333Y-23608390D01*
X31858333Y-23608390D02*
X31858333Y-23751247D01*
X31858333Y-23751247D02*
X31810714Y-23941723D01*
X31810714Y-23941723D02*
X31763095Y-24036961D01*
X31763095Y-24036961D02*
X31667857Y-24132200D01*
X31667857Y-24132200D02*
X31525000Y-24179819D01*
X31525000Y-24179819D02*
X31286905Y-24179819D01*
X32763095Y-23179819D02*
X32286905Y-23179819D01*
X32286905Y-23179819D02*
X32239286Y-23656009D01*
X32239286Y-23656009D02*
X32286905Y-23608390D01*
X32286905Y-23608390D02*
X32382143Y-23560771D01*
X32382143Y-23560771D02*
X32620238Y-23560771D01*
X32620238Y-23560771D02*
X32715476Y-23608390D01*
X32715476Y-23608390D02*
X32763095Y-23656009D01*
X32763095Y-23656009D02*
X32810714Y-23751247D01*
X32810714Y-23751247D02*
X32810714Y-23989342D01*
X32810714Y-23989342D02*
X32763095Y-24084580D01*
X32763095Y-24084580D02*
X32715476Y-24132200D01*
X32715476Y-24132200D02*
X32620238Y-24179819D01*
X32620238Y-24179819D02*
X32382143Y-24179819D01*
X32382143Y-24179819D02*
X32286905Y-24132200D01*
X32286905Y-24132200D02*
X32239286Y-24084580D01*
X47933333Y-11592319D02*
X47600000Y-11116128D01*
X47361905Y-11592319D02*
X47361905Y-10592319D01*
X47361905Y-10592319D02*
X47742857Y-10592319D01*
X47742857Y-10592319D02*
X47838095Y-10639938D01*
X47838095Y-10639938D02*
X47885714Y-10687557D01*
X47885714Y-10687557D02*
X47933333Y-10782795D01*
X47933333Y-10782795D02*
X47933333Y-10925652D01*
X47933333Y-10925652D02*
X47885714Y-11020890D01*
X47885714Y-11020890D02*
X47838095Y-11068509D01*
X47838095Y-11068509D02*
X47742857Y-11116128D01*
X47742857Y-11116128D02*
X47361905Y-11116128D01*
X48790476Y-10592319D02*
X48600000Y-10592319D01*
X48600000Y-10592319D02*
X48504762Y-10639938D01*
X48504762Y-10639938D02*
X48457143Y-10687557D01*
X48457143Y-10687557D02*
X48361905Y-10830414D01*
X48361905Y-10830414D02*
X48314286Y-11020890D01*
X48314286Y-11020890D02*
X48314286Y-11401842D01*
X48314286Y-11401842D02*
X48361905Y-11497080D01*
X48361905Y-11497080D02*
X48409524Y-11544700D01*
X48409524Y-11544700D02*
X48504762Y-11592319D01*
X48504762Y-11592319D02*
X48695238Y-11592319D01*
X48695238Y-11592319D02*
X48790476Y-11544700D01*
X48790476Y-11544700D02*
X48838095Y-11497080D01*
X48838095Y-11497080D02*
X48885714Y-11401842D01*
X48885714Y-11401842D02*
X48885714Y-11163747D01*
X48885714Y-11163747D02*
X48838095Y-11068509D01*
X48838095Y-11068509D02*
X48790476Y-11020890D01*
X48790476Y-11020890D02*
X48695238Y-10973271D01*
X48695238Y-10973271D02*
X48504762Y-10973271D01*
X48504762Y-10973271D02*
X48409524Y-11020890D01*
X48409524Y-11020890D02*
X48361905Y-11068509D01*
X48361905Y-11068509D02*
X48314286Y-11163747D01*
X21883333Y-16459580D02*
X21835714Y-16507200D01*
X21835714Y-16507200D02*
X21692857Y-16554819D01*
X21692857Y-16554819D02*
X21597619Y-16554819D01*
X21597619Y-16554819D02*
X21454762Y-16507200D01*
X21454762Y-16507200D02*
X21359524Y-16411961D01*
X21359524Y-16411961D02*
X21311905Y-16316723D01*
X21311905Y-16316723D02*
X21264286Y-16126247D01*
X21264286Y-16126247D02*
X21264286Y-15983390D01*
X21264286Y-15983390D02*
X21311905Y-15792914D01*
X21311905Y-15792914D02*
X21359524Y-15697676D01*
X21359524Y-15697676D02*
X21454762Y-15602438D01*
X21454762Y-15602438D02*
X21597619Y-15554819D01*
X21597619Y-15554819D02*
X21692857Y-15554819D01*
X21692857Y-15554819D02*
X21835714Y-15602438D01*
X21835714Y-15602438D02*
X21883333Y-15650057D01*
X22740476Y-15554819D02*
X22550000Y-15554819D01*
X22550000Y-15554819D02*
X22454762Y-15602438D01*
X22454762Y-15602438D02*
X22407143Y-15650057D01*
X22407143Y-15650057D02*
X22311905Y-15792914D01*
X22311905Y-15792914D02*
X22264286Y-15983390D01*
X22264286Y-15983390D02*
X22264286Y-16364342D01*
X22264286Y-16364342D02*
X22311905Y-16459580D01*
X22311905Y-16459580D02*
X22359524Y-16507200D01*
X22359524Y-16507200D02*
X22454762Y-16554819D01*
X22454762Y-16554819D02*
X22645238Y-16554819D01*
X22645238Y-16554819D02*
X22740476Y-16507200D01*
X22740476Y-16507200D02*
X22788095Y-16459580D01*
X22788095Y-16459580D02*
X22835714Y-16364342D01*
X22835714Y-16364342D02*
X22835714Y-16126247D01*
X22835714Y-16126247D02*
X22788095Y-16031009D01*
X22788095Y-16031009D02*
X22740476Y-15983390D01*
X22740476Y-15983390D02*
X22645238Y-15935771D01*
X22645238Y-15935771D02*
X22454762Y-15935771D01*
X22454762Y-15935771D02*
X22359524Y-15983390D01*
X22359524Y-15983390D02*
X22311905Y-16031009D01*
X22311905Y-16031009D02*
X22264286Y-16126247D01*
X41934104Y-41201189D02*
X41934104Y-40724999D01*
X42219819Y-41296427D02*
X41219819Y-40963094D01*
X41219819Y-40963094D02*
X42219819Y-40629761D01*
X42219819Y-40296427D02*
X41219819Y-40296427D01*
X42219819Y-39820237D02*
X41219819Y-39820237D01*
X41219819Y-39820237D02*
X42219819Y-39248809D01*
X42219819Y-39248809D02*
X41219819Y-39248809D01*
X42219819Y-38248809D02*
X42219819Y-38820237D01*
X42219819Y-38534523D02*
X41219819Y-38534523D01*
X41219819Y-38534523D02*
X41362676Y-38629761D01*
X41362676Y-38629761D02*
X41457914Y-38724999D01*
X41457914Y-38724999D02*
X41505533Y-38820237D01*
X3930476Y-12134819D02*
X4263809Y-13134819D01*
X4263809Y-13134819D02*
X4597142Y-12134819D01*
X5454285Y-13134819D02*
X4882857Y-13134819D01*
X5168571Y-13134819D02*
X5168571Y-12134819D01*
X5168571Y-12134819D02*
X5073333Y-12277676D01*
X5073333Y-12277676D02*
X4978095Y-12372914D01*
X4978095Y-12372914D02*
X4882857Y-12420533D01*
X43345833Y-29204819D02*
X43012500Y-28728628D01*
X42774405Y-29204819D02*
X42774405Y-28204819D01*
X42774405Y-28204819D02*
X43155357Y-28204819D01*
X43155357Y-28204819D02*
X43250595Y-28252438D01*
X43250595Y-28252438D02*
X43298214Y-28300057D01*
X43298214Y-28300057D02*
X43345833Y-28395295D01*
X43345833Y-28395295D02*
X43345833Y-28538152D01*
X43345833Y-28538152D02*
X43298214Y-28633390D01*
X43298214Y-28633390D02*
X43250595Y-28681009D01*
X43250595Y-28681009D02*
X43155357Y-28728628D01*
X43155357Y-28728628D02*
X42774405Y-28728628D01*
X43917262Y-28633390D02*
X43822024Y-28585771D01*
X43822024Y-28585771D02*
X43774405Y-28538152D01*
X43774405Y-28538152D02*
X43726786Y-28442914D01*
X43726786Y-28442914D02*
X43726786Y-28395295D01*
X43726786Y-28395295D02*
X43774405Y-28300057D01*
X43774405Y-28300057D02*
X43822024Y-28252438D01*
X43822024Y-28252438D02*
X43917262Y-28204819D01*
X43917262Y-28204819D02*
X44107738Y-28204819D01*
X44107738Y-28204819D02*
X44202976Y-28252438D01*
X44202976Y-28252438D02*
X44250595Y-28300057D01*
X44250595Y-28300057D02*
X44298214Y-28395295D01*
X44298214Y-28395295D02*
X44298214Y-28442914D01*
X44298214Y-28442914D02*
X44250595Y-28538152D01*
X44250595Y-28538152D02*
X44202976Y-28585771D01*
X44202976Y-28585771D02*
X44107738Y-28633390D01*
X44107738Y-28633390D02*
X43917262Y-28633390D01*
X43917262Y-28633390D02*
X43822024Y-28681009D01*
X43822024Y-28681009D02*
X43774405Y-28728628D01*
X43774405Y-28728628D02*
X43726786Y-28823866D01*
X43726786Y-28823866D02*
X43726786Y-29014342D01*
X43726786Y-29014342D02*
X43774405Y-29109580D01*
X43774405Y-29109580D02*
X43822024Y-29157200D01*
X43822024Y-29157200D02*
X43917262Y-29204819D01*
X43917262Y-29204819D02*
X44107738Y-29204819D01*
X44107738Y-29204819D02*
X44202976Y-29157200D01*
X44202976Y-29157200D02*
X44250595Y-29109580D01*
X44250595Y-29109580D02*
X44298214Y-29014342D01*
X44298214Y-29014342D02*
X44298214Y-28823866D01*
X44298214Y-28823866D02*
X44250595Y-28728628D01*
X44250595Y-28728628D02*
X44202976Y-28681009D01*
X44202976Y-28681009D02*
X44107738Y-28633390D01*
X15759580Y-17966666D02*
X15807200Y-18014285D01*
X15807200Y-18014285D02*
X15854819Y-18157142D01*
X15854819Y-18157142D02*
X15854819Y-18252380D01*
X15854819Y-18252380D02*
X15807200Y-18395237D01*
X15807200Y-18395237D02*
X15711961Y-18490475D01*
X15711961Y-18490475D02*
X15616723Y-18538094D01*
X15616723Y-18538094D02*
X15426247Y-18585713D01*
X15426247Y-18585713D02*
X15283390Y-18585713D01*
X15283390Y-18585713D02*
X15092914Y-18538094D01*
X15092914Y-18538094D02*
X14997676Y-18490475D01*
X14997676Y-18490475D02*
X14902438Y-18395237D01*
X14902438Y-18395237D02*
X14854819Y-18252380D01*
X14854819Y-18252380D02*
X14854819Y-18157142D01*
X14854819Y-18157142D02*
X14902438Y-18014285D01*
X14902438Y-18014285D02*
X14950057Y-17966666D01*
X14854819Y-17633332D02*
X14854819Y-17014285D01*
X14854819Y-17014285D02*
X15235771Y-17347618D01*
X15235771Y-17347618D02*
X15235771Y-17204761D01*
X15235771Y-17204761D02*
X15283390Y-17109523D01*
X15283390Y-17109523D02*
X15331009Y-17061904D01*
X15331009Y-17061904D02*
X15426247Y-17014285D01*
X15426247Y-17014285D02*
X15664342Y-17014285D01*
X15664342Y-17014285D02*
X15759580Y-17061904D01*
X15759580Y-17061904D02*
X15807200Y-17109523D01*
X15807200Y-17109523D02*
X15854819Y-17204761D01*
X15854819Y-17204761D02*
X15854819Y-17490475D01*
X15854819Y-17490475D02*
X15807200Y-17585713D01*
X15807200Y-17585713D02*
X15759580Y-17633332D01*
X10104819Y-37101904D02*
X10914342Y-37101904D01*
X10914342Y-37101904D02*
X11009580Y-37054285D01*
X11009580Y-37054285D02*
X11057200Y-37006666D01*
X11057200Y-37006666D02*
X11104819Y-36911428D01*
X11104819Y-36911428D02*
X11104819Y-36720952D01*
X11104819Y-36720952D02*
X11057200Y-36625714D01*
X11057200Y-36625714D02*
X11009580Y-36578095D01*
X11009580Y-36578095D02*
X10914342Y-36530476D01*
X10914342Y-36530476D02*
X10104819Y-36530476D01*
X10438152Y-35625714D02*
X11104819Y-35625714D01*
X10057200Y-35863809D02*
X10771485Y-36101904D01*
X10771485Y-36101904D02*
X10771485Y-35482857D01*
X7811905Y-24229819D02*
X7811905Y-23229819D01*
X7811905Y-23229819D02*
X8050000Y-23229819D01*
X8050000Y-23229819D02*
X8192857Y-23277438D01*
X8192857Y-23277438D02*
X8288095Y-23372676D01*
X8288095Y-23372676D02*
X8335714Y-23467914D01*
X8335714Y-23467914D02*
X8383333Y-23658390D01*
X8383333Y-23658390D02*
X8383333Y-23801247D01*
X8383333Y-23801247D02*
X8335714Y-23991723D01*
X8335714Y-23991723D02*
X8288095Y-24086961D01*
X8288095Y-24086961D02*
X8192857Y-24182200D01*
X8192857Y-24182200D02*
X8050000Y-24229819D01*
X8050000Y-24229819D02*
X7811905Y-24229819D01*
X9240476Y-23229819D02*
X9050000Y-23229819D01*
X9050000Y-23229819D02*
X8954762Y-23277438D01*
X8954762Y-23277438D02*
X8907143Y-23325057D01*
X8907143Y-23325057D02*
X8811905Y-23467914D01*
X8811905Y-23467914D02*
X8764286Y-23658390D01*
X8764286Y-23658390D02*
X8764286Y-24039342D01*
X8764286Y-24039342D02*
X8811905Y-24134580D01*
X8811905Y-24134580D02*
X8859524Y-24182200D01*
X8859524Y-24182200D02*
X8954762Y-24229819D01*
X8954762Y-24229819D02*
X9145238Y-24229819D01*
X9145238Y-24229819D02*
X9240476Y-24182200D01*
X9240476Y-24182200D02*
X9288095Y-24134580D01*
X9288095Y-24134580D02*
X9335714Y-24039342D01*
X9335714Y-24039342D02*
X9335714Y-23801247D01*
X9335714Y-23801247D02*
X9288095Y-23706009D01*
X9288095Y-23706009D02*
X9240476Y-23658390D01*
X9240476Y-23658390D02*
X9145238Y-23610771D01*
X9145238Y-23610771D02*
X8954762Y-23610771D01*
X8954762Y-23610771D02*
X8859524Y-23658390D01*
X8859524Y-23658390D02*
X8811905Y-23706009D01*
X8811905Y-23706009D02*
X8764286Y-23801247D01*
X21454819Y-36368094D02*
X20454819Y-36368094D01*
X20454819Y-36368094D02*
X20454819Y-36129999D01*
X20454819Y-36129999D02*
X20502438Y-35987142D01*
X20502438Y-35987142D02*
X20597676Y-35891904D01*
X20597676Y-35891904D02*
X20692914Y-35844285D01*
X20692914Y-35844285D02*
X20883390Y-35796666D01*
X20883390Y-35796666D02*
X21026247Y-35796666D01*
X21026247Y-35796666D02*
X21216723Y-35844285D01*
X21216723Y-35844285D02*
X21311961Y-35891904D01*
X21311961Y-35891904D02*
X21407200Y-35987142D01*
X21407200Y-35987142D02*
X21454819Y-36129999D01*
X21454819Y-36129999D02*
X21454819Y-36368094D01*
X21454819Y-35320475D02*
X21454819Y-35129999D01*
X21454819Y-35129999D02*
X21407200Y-35034761D01*
X21407200Y-35034761D02*
X21359580Y-34987142D01*
X21359580Y-34987142D02*
X21216723Y-34891904D01*
X21216723Y-34891904D02*
X21026247Y-34844285D01*
X21026247Y-34844285D02*
X20645295Y-34844285D01*
X20645295Y-34844285D02*
X20550057Y-34891904D01*
X20550057Y-34891904D02*
X20502438Y-34939523D01*
X20502438Y-34939523D02*
X20454819Y-35034761D01*
X20454819Y-35034761D02*
X20454819Y-35225237D01*
X20454819Y-35225237D02*
X20502438Y-35320475D01*
X20502438Y-35320475D02*
X20550057Y-35368094D01*
X20550057Y-35368094D02*
X20645295Y-35415713D01*
X20645295Y-35415713D02*
X20883390Y-35415713D01*
X20883390Y-35415713D02*
X20978628Y-35368094D01*
X20978628Y-35368094D02*
X21026247Y-35320475D01*
X21026247Y-35320475D02*
X21073866Y-35225237D01*
X21073866Y-35225237D02*
X21073866Y-35034761D01*
X21073866Y-35034761D02*
X21026247Y-34939523D01*
X21026247Y-34939523D02*
X20978628Y-34891904D01*
X20978628Y-34891904D02*
X20883390Y-34844285D01*
X31286905Y-29204819D02*
X31286905Y-28204819D01*
X31286905Y-28204819D02*
X31525000Y-28204819D01*
X31525000Y-28204819D02*
X31667857Y-28252438D01*
X31667857Y-28252438D02*
X31763095Y-28347676D01*
X31763095Y-28347676D02*
X31810714Y-28442914D01*
X31810714Y-28442914D02*
X31858333Y-28633390D01*
X31858333Y-28633390D02*
X31858333Y-28776247D01*
X31858333Y-28776247D02*
X31810714Y-28966723D01*
X31810714Y-28966723D02*
X31763095Y-29061961D01*
X31763095Y-29061961D02*
X31667857Y-29157200D01*
X31667857Y-29157200D02*
X31525000Y-29204819D01*
X31525000Y-29204819D02*
X31286905Y-29204819D01*
X32191667Y-28204819D02*
X32810714Y-28204819D01*
X32810714Y-28204819D02*
X32477381Y-28585771D01*
X32477381Y-28585771D02*
X32620238Y-28585771D01*
X32620238Y-28585771D02*
X32715476Y-28633390D01*
X32715476Y-28633390D02*
X32763095Y-28681009D01*
X32763095Y-28681009D02*
X32810714Y-28776247D01*
X32810714Y-28776247D02*
X32810714Y-29014342D01*
X32810714Y-29014342D02*
X32763095Y-29109580D01*
X32763095Y-29109580D02*
X32715476Y-29157200D01*
X32715476Y-29157200D02*
X32620238Y-29204819D01*
X32620238Y-29204819D02*
X32334524Y-29204819D01*
X32334524Y-29204819D02*
X32239286Y-29157200D01*
X32239286Y-29157200D02*
X32191667Y-29109580D01*
X21354819Y-30617857D02*
X20878628Y-30951190D01*
X21354819Y-31189285D02*
X20354819Y-31189285D01*
X20354819Y-31189285D02*
X20354819Y-30808333D01*
X20354819Y-30808333D02*
X20402438Y-30713095D01*
X20402438Y-30713095D02*
X20450057Y-30665476D01*
X20450057Y-30665476D02*
X20545295Y-30617857D01*
X20545295Y-30617857D02*
X20688152Y-30617857D01*
X20688152Y-30617857D02*
X20783390Y-30665476D01*
X20783390Y-30665476D02*
X20831009Y-30713095D01*
X20831009Y-30713095D02*
X20878628Y-30808333D01*
X20878628Y-30808333D02*
X20878628Y-31189285D01*
X21354819Y-29665476D02*
X21354819Y-30236904D01*
X21354819Y-29951190D02*
X20354819Y-29951190D01*
X20354819Y-29951190D02*
X20497676Y-30046428D01*
X20497676Y-30046428D02*
X20592914Y-30141666D01*
X20592914Y-30141666D02*
X20640533Y-30236904D01*
X20354819Y-29332142D02*
X20354819Y-28665476D01*
X20354819Y-28665476D02*
X21354819Y-29094047D01*
X34083333Y-16459580D02*
X34035714Y-16507200D01*
X34035714Y-16507200D02*
X33892857Y-16554819D01*
X33892857Y-16554819D02*
X33797619Y-16554819D01*
X33797619Y-16554819D02*
X33654762Y-16507200D01*
X33654762Y-16507200D02*
X33559524Y-16411961D01*
X33559524Y-16411961D02*
X33511905Y-16316723D01*
X33511905Y-16316723D02*
X33464286Y-16126247D01*
X33464286Y-16126247D02*
X33464286Y-15983390D01*
X33464286Y-15983390D02*
X33511905Y-15792914D01*
X33511905Y-15792914D02*
X33559524Y-15697676D01*
X33559524Y-15697676D02*
X33654762Y-15602438D01*
X33654762Y-15602438D02*
X33797619Y-15554819D01*
X33797619Y-15554819D02*
X33892857Y-15554819D01*
X33892857Y-15554819D02*
X34035714Y-15602438D01*
X34035714Y-15602438D02*
X34083333Y-15650057D01*
X34416667Y-15554819D02*
X35083333Y-15554819D01*
X35083333Y-15554819D02*
X34654762Y-16554819D01*
X55988095Y-35204819D02*
X55988095Y-36014342D01*
X55988095Y-36014342D02*
X56035714Y-36109580D01*
X56035714Y-36109580D02*
X56083333Y-36157200D01*
X56083333Y-36157200D02*
X56178571Y-36204819D01*
X56178571Y-36204819D02*
X56369047Y-36204819D01*
X56369047Y-36204819D02*
X56464285Y-36157200D01*
X56464285Y-36157200D02*
X56511904Y-36109580D01*
X56511904Y-36109580D02*
X56559523Y-36014342D01*
X56559523Y-36014342D02*
X56559523Y-35204819D01*
X56940476Y-35204819D02*
X57559523Y-35204819D01*
X57559523Y-35204819D02*
X57226190Y-35585771D01*
X57226190Y-35585771D02*
X57369047Y-35585771D01*
X57369047Y-35585771D02*
X57464285Y-35633390D01*
X57464285Y-35633390D02*
X57511904Y-35681009D01*
X57511904Y-35681009D02*
X57559523Y-35776247D01*
X57559523Y-35776247D02*
X57559523Y-36014342D01*
X57559523Y-36014342D02*
X57511904Y-36109580D01*
X57511904Y-36109580D02*
X57464285Y-36157200D01*
X57464285Y-36157200D02*
X57369047Y-36204819D01*
X57369047Y-36204819D02*
X57083333Y-36204819D01*
X57083333Y-36204819D02*
X56988095Y-36157200D01*
X56988095Y-36157200D02*
X56940476Y-36109580D01*
X63069104Y-29761905D02*
X63069104Y-29285715D01*
X63354819Y-29857143D02*
X62354819Y-29523810D01*
X62354819Y-29523810D02*
X63354819Y-29190477D01*
X62688152Y-28857143D02*
X63354819Y-28857143D01*
X62783390Y-28857143D02*
X62735771Y-28809524D01*
X62735771Y-28809524D02*
X62688152Y-28714286D01*
X62688152Y-28714286D02*
X62688152Y-28571429D01*
X62688152Y-28571429D02*
X62735771Y-28476191D01*
X62735771Y-28476191D02*
X62831009Y-28428572D01*
X62831009Y-28428572D02*
X63354819Y-28428572D01*
X62688152Y-28095238D02*
X62688152Y-27714286D01*
X62354819Y-27952381D02*
X63211961Y-27952381D01*
X63211961Y-27952381D02*
X63307200Y-27904762D01*
X63307200Y-27904762D02*
X63354819Y-27809524D01*
X63354819Y-27809524D02*
X63354819Y-27714286D01*
X63307200Y-27000000D02*
X63354819Y-27095238D01*
X63354819Y-27095238D02*
X63354819Y-27285714D01*
X63354819Y-27285714D02*
X63307200Y-27380952D01*
X63307200Y-27380952D02*
X63211961Y-27428571D01*
X63211961Y-27428571D02*
X62831009Y-27428571D01*
X62831009Y-27428571D02*
X62735771Y-27380952D01*
X62735771Y-27380952D02*
X62688152Y-27285714D01*
X62688152Y-27285714D02*
X62688152Y-27095238D01*
X62688152Y-27095238D02*
X62735771Y-27000000D01*
X62735771Y-27000000D02*
X62831009Y-26952381D01*
X62831009Y-26952381D02*
X62926247Y-26952381D01*
X62926247Y-26952381D02*
X63021485Y-27428571D01*
X62688152Y-26523809D02*
X63354819Y-26523809D01*
X62783390Y-26523809D02*
X62735771Y-26476190D01*
X62735771Y-26476190D02*
X62688152Y-26380952D01*
X62688152Y-26380952D02*
X62688152Y-26238095D01*
X62688152Y-26238095D02*
X62735771Y-26142857D01*
X62735771Y-26142857D02*
X62831009Y-26095238D01*
X62831009Y-26095238D02*
X63354819Y-26095238D01*
X62688152Y-25619047D02*
X63354819Y-25619047D01*
X62783390Y-25619047D02*
X62735771Y-25571428D01*
X62735771Y-25571428D02*
X62688152Y-25476190D01*
X62688152Y-25476190D02*
X62688152Y-25333333D01*
X62688152Y-25333333D02*
X62735771Y-25238095D01*
X62735771Y-25238095D02*
X62831009Y-25190476D01*
X62831009Y-25190476D02*
X63354819Y-25190476D01*
X63354819Y-24285714D02*
X62831009Y-24285714D01*
X62831009Y-24285714D02*
X62735771Y-24333333D01*
X62735771Y-24333333D02*
X62688152Y-24428571D01*
X62688152Y-24428571D02*
X62688152Y-24619047D01*
X62688152Y-24619047D02*
X62735771Y-24714285D01*
X63307200Y-24285714D02*
X63354819Y-24380952D01*
X63354819Y-24380952D02*
X63354819Y-24619047D01*
X63354819Y-24619047D02*
X63307200Y-24714285D01*
X63307200Y-24714285D02*
X63211961Y-24761904D01*
X63211961Y-24761904D02*
X63116723Y-24761904D01*
X63116723Y-24761904D02*
X63021485Y-24714285D01*
X63021485Y-24714285D02*
X62973866Y-24619047D01*
X62973866Y-24619047D02*
X62973866Y-24380952D01*
X62973866Y-24380952D02*
X62926247Y-24285714D01*
X63069104Y-23095237D02*
X63069104Y-22619047D01*
X63354819Y-23190475D02*
X62354819Y-22857142D01*
X62354819Y-22857142D02*
X63354819Y-22523809D01*
X63354819Y-22190475D02*
X62688152Y-22190475D01*
X62878628Y-22190475D02*
X62783390Y-22142856D01*
X62783390Y-22142856D02*
X62735771Y-22095237D01*
X62735771Y-22095237D02*
X62688152Y-21999999D01*
X62688152Y-21999999D02*
X62688152Y-21904761D01*
X63307200Y-21190475D02*
X63354819Y-21285713D01*
X63354819Y-21285713D02*
X63354819Y-21476189D01*
X63354819Y-21476189D02*
X63307200Y-21571427D01*
X63307200Y-21571427D02*
X63211961Y-21619046D01*
X63211961Y-21619046D02*
X62831009Y-21619046D01*
X62831009Y-21619046D02*
X62735771Y-21571427D01*
X62735771Y-21571427D02*
X62688152Y-21476189D01*
X62688152Y-21476189D02*
X62688152Y-21285713D01*
X62688152Y-21285713D02*
X62735771Y-21190475D01*
X62735771Y-21190475D02*
X62831009Y-21142856D01*
X62831009Y-21142856D02*
X62926247Y-21142856D01*
X62926247Y-21142856D02*
X63021485Y-21619046D01*
X63354819Y-20285713D02*
X62831009Y-20285713D01*
X62831009Y-20285713D02*
X62735771Y-20333332D01*
X62735771Y-20333332D02*
X62688152Y-20428570D01*
X62688152Y-20428570D02*
X62688152Y-20619046D01*
X62688152Y-20619046D02*
X62735771Y-20714284D01*
X63307200Y-20285713D02*
X63354819Y-20380951D01*
X63354819Y-20380951D02*
X63354819Y-20619046D01*
X63354819Y-20619046D02*
X63307200Y-20714284D01*
X63307200Y-20714284D02*
X63211961Y-20761903D01*
X63211961Y-20761903D02*
X63116723Y-20761903D01*
X63116723Y-20761903D02*
X63021485Y-20714284D01*
X63021485Y-20714284D02*
X62973866Y-20619046D01*
X62973866Y-20619046D02*
X62973866Y-20380951D01*
X62973866Y-20380951D02*
X62926247Y-20285713D01*
X39738095Y-13704819D02*
X39738095Y-14514342D01*
X39738095Y-14514342D02*
X39785714Y-14609580D01*
X39785714Y-14609580D02*
X39833333Y-14657200D01*
X39833333Y-14657200D02*
X39928571Y-14704819D01*
X39928571Y-14704819D02*
X40119047Y-14704819D01*
X40119047Y-14704819D02*
X40214285Y-14657200D01*
X40214285Y-14657200D02*
X40261904Y-14609580D01*
X40261904Y-14609580D02*
X40309523Y-14514342D01*
X40309523Y-14514342D02*
X40309523Y-13704819D01*
X41261904Y-13704819D02*
X40785714Y-13704819D01*
X40785714Y-13704819D02*
X40738095Y-14181009D01*
X40738095Y-14181009D02*
X40785714Y-14133390D01*
X40785714Y-14133390D02*
X40880952Y-14085771D01*
X40880952Y-14085771D02*
X41119047Y-14085771D01*
X41119047Y-14085771D02*
X41214285Y-14133390D01*
X41214285Y-14133390D02*
X41261904Y-14181009D01*
X41261904Y-14181009D02*
X41309523Y-14276247D01*
X41309523Y-14276247D02*
X41309523Y-14514342D01*
X41309523Y-14514342D02*
X41261904Y-14609580D01*
X41261904Y-14609580D02*
X41214285Y-14657200D01*
X41214285Y-14657200D02*
X41119047Y-14704819D01*
X41119047Y-14704819D02*
X40880952Y-14704819D01*
X40880952Y-14704819D02*
X40785714Y-14657200D01*
X40785714Y-14657200D02*
X40738095Y-14609580D01*
X31286905Y-19229819D02*
X31286905Y-18229819D01*
X31286905Y-18229819D02*
X31525000Y-18229819D01*
X31525000Y-18229819D02*
X31667857Y-18277438D01*
X31667857Y-18277438D02*
X31763095Y-18372676D01*
X31763095Y-18372676D02*
X31810714Y-18467914D01*
X31810714Y-18467914D02*
X31858333Y-18658390D01*
X31858333Y-18658390D02*
X31858333Y-18801247D01*
X31858333Y-18801247D02*
X31810714Y-18991723D01*
X31810714Y-18991723D02*
X31763095Y-19086961D01*
X31763095Y-19086961D02*
X31667857Y-19182200D01*
X31667857Y-19182200D02*
X31525000Y-19229819D01*
X31525000Y-19229819D02*
X31286905Y-19229819D01*
X32429762Y-18658390D02*
X32334524Y-18610771D01*
X32334524Y-18610771D02*
X32286905Y-18563152D01*
X32286905Y-18563152D02*
X32239286Y-18467914D01*
X32239286Y-18467914D02*
X32239286Y-18420295D01*
X32239286Y-18420295D02*
X32286905Y-18325057D01*
X32286905Y-18325057D02*
X32334524Y-18277438D01*
X32334524Y-18277438D02*
X32429762Y-18229819D01*
X32429762Y-18229819D02*
X32620238Y-18229819D01*
X32620238Y-18229819D02*
X32715476Y-18277438D01*
X32715476Y-18277438D02*
X32763095Y-18325057D01*
X32763095Y-18325057D02*
X32810714Y-18420295D01*
X32810714Y-18420295D02*
X32810714Y-18467914D01*
X32810714Y-18467914D02*
X32763095Y-18563152D01*
X32763095Y-18563152D02*
X32715476Y-18610771D01*
X32715476Y-18610771D02*
X32620238Y-18658390D01*
X32620238Y-18658390D02*
X32429762Y-18658390D01*
X32429762Y-18658390D02*
X32334524Y-18706009D01*
X32334524Y-18706009D02*
X32286905Y-18753628D01*
X32286905Y-18753628D02*
X32239286Y-18848866D01*
X32239286Y-18848866D02*
X32239286Y-19039342D01*
X32239286Y-19039342D02*
X32286905Y-19134580D01*
X32286905Y-19134580D02*
X32334524Y-19182200D01*
X32334524Y-19182200D02*
X32429762Y-19229819D01*
X32429762Y-19229819D02*
X32620238Y-19229819D01*
X32620238Y-19229819D02*
X32715476Y-19182200D01*
X32715476Y-19182200D02*
X32763095Y-19134580D01*
X32763095Y-19134580D02*
X32810714Y-19039342D01*
X32810714Y-19039342D02*
X32810714Y-18848866D01*
X32810714Y-18848866D02*
X32763095Y-18753628D01*
X32763095Y-18753628D02*
X32715476Y-18706009D01*
X32715476Y-18706009D02*
X32620238Y-18658390D01*
X30904819Y-5488094D02*
X29904819Y-5488094D01*
X29904819Y-5488094D02*
X29904819Y-5249999D01*
X29904819Y-5249999D02*
X29952438Y-5107142D01*
X29952438Y-5107142D02*
X30047676Y-5011904D01*
X30047676Y-5011904D02*
X30142914Y-4964285D01*
X30142914Y-4964285D02*
X30333390Y-4916666D01*
X30333390Y-4916666D02*
X30476247Y-4916666D01*
X30476247Y-4916666D02*
X30666723Y-4964285D01*
X30666723Y-4964285D02*
X30761961Y-5011904D01*
X30761961Y-5011904D02*
X30857200Y-5107142D01*
X30857200Y-5107142D02*
X30904819Y-5249999D01*
X30904819Y-5249999D02*
X30904819Y-5488094D01*
X30904819Y-3964285D02*
X30904819Y-4535713D01*
X30904819Y-4249999D02*
X29904819Y-4249999D01*
X29904819Y-4249999D02*
X30047676Y-4345237D01*
X30047676Y-4345237D02*
X30142914Y-4440475D01*
X30142914Y-4440475D02*
X30190533Y-4535713D01*
X43369642Y-21704819D02*
X43036309Y-21228628D01*
X42798214Y-21704819D02*
X42798214Y-20704819D01*
X42798214Y-20704819D02*
X43179166Y-20704819D01*
X43179166Y-20704819D02*
X43274404Y-20752438D01*
X43274404Y-20752438D02*
X43322023Y-20800057D01*
X43322023Y-20800057D02*
X43369642Y-20895295D01*
X43369642Y-20895295D02*
X43369642Y-21038152D01*
X43369642Y-21038152D02*
X43322023Y-21133390D01*
X43322023Y-21133390D02*
X43274404Y-21181009D01*
X43274404Y-21181009D02*
X43179166Y-21228628D01*
X43179166Y-21228628D02*
X42798214Y-21228628D01*
X44322023Y-21704819D02*
X43750595Y-21704819D01*
X44036309Y-21704819D02*
X44036309Y-20704819D01*
X44036309Y-20704819D02*
X43941071Y-20847676D01*
X43941071Y-20847676D02*
X43845833Y-20942914D01*
X43845833Y-20942914D02*
X43750595Y-20990533D01*
X45179166Y-21038152D02*
X45179166Y-21704819D01*
X44941071Y-20657200D02*
X44702976Y-21371485D01*
X44702976Y-21371485D02*
X45322023Y-21371485D01*
X67154819Y-12428571D02*
X66678628Y-12761904D01*
X67154819Y-12999999D02*
X66154819Y-12999999D01*
X66154819Y-12999999D02*
X66154819Y-12619047D01*
X66154819Y-12619047D02*
X66202438Y-12523809D01*
X66202438Y-12523809D02*
X66250057Y-12476190D01*
X66250057Y-12476190D02*
X66345295Y-12428571D01*
X66345295Y-12428571D02*
X66488152Y-12428571D01*
X66488152Y-12428571D02*
X66583390Y-12476190D01*
X66583390Y-12476190D02*
X66631009Y-12523809D01*
X66631009Y-12523809D02*
X66678628Y-12619047D01*
X66678628Y-12619047D02*
X66678628Y-12999999D01*
X66631009Y-11999999D02*
X66631009Y-11666666D01*
X67154819Y-11523809D02*
X67154819Y-11999999D01*
X67154819Y-11999999D02*
X66154819Y-11999999D01*
X66154819Y-11999999D02*
X66154819Y-11523809D01*
X67107200Y-11142856D02*
X67154819Y-10999999D01*
X67154819Y-10999999D02*
X67154819Y-10761904D01*
X67154819Y-10761904D02*
X67107200Y-10666666D01*
X67107200Y-10666666D02*
X67059580Y-10619047D01*
X67059580Y-10619047D02*
X66964342Y-10571428D01*
X66964342Y-10571428D02*
X66869104Y-10571428D01*
X66869104Y-10571428D02*
X66773866Y-10619047D01*
X66773866Y-10619047D02*
X66726247Y-10666666D01*
X66726247Y-10666666D02*
X66678628Y-10761904D01*
X66678628Y-10761904D02*
X66631009Y-10952380D01*
X66631009Y-10952380D02*
X66583390Y-11047618D01*
X66583390Y-11047618D02*
X66535771Y-11095237D01*
X66535771Y-11095237D02*
X66440533Y-11142856D01*
X66440533Y-11142856D02*
X66345295Y-11142856D01*
X66345295Y-11142856D02*
X66250057Y-11095237D01*
X66250057Y-11095237D02*
X66202438Y-11047618D01*
X66202438Y-11047618D02*
X66154819Y-10952380D01*
X66154819Y-10952380D02*
X66154819Y-10714285D01*
X66154819Y-10714285D02*
X66202438Y-10571428D01*
X66631009Y-10142856D02*
X66631009Y-9809523D01*
X67154819Y-9666666D02*
X67154819Y-10142856D01*
X67154819Y-10142856D02*
X66154819Y-10142856D01*
X66154819Y-10142856D02*
X66154819Y-9666666D01*
X66154819Y-9380951D02*
X66154819Y-8809523D01*
X67154819Y-9095237D02*
X66154819Y-9095237D01*
X67154819Y-7952380D02*
X67154819Y-8523808D01*
X67154819Y-8238094D02*
X66154819Y-8238094D01*
X66154819Y-8238094D02*
X66297676Y-8333332D01*
X66297676Y-8333332D02*
X66392914Y-8428570D01*
X66392914Y-8428570D02*
X66440533Y-8523808D01*
X28159580Y-16716666D02*
X28207200Y-16764285D01*
X28207200Y-16764285D02*
X28254819Y-16907142D01*
X28254819Y-16907142D02*
X28254819Y-17002380D01*
X28254819Y-17002380D02*
X28207200Y-17145237D01*
X28207200Y-17145237D02*
X28111961Y-17240475D01*
X28111961Y-17240475D02*
X28016723Y-17288094D01*
X28016723Y-17288094D02*
X27826247Y-17335713D01*
X27826247Y-17335713D02*
X27683390Y-17335713D01*
X27683390Y-17335713D02*
X27492914Y-17288094D01*
X27492914Y-17288094D02*
X27397676Y-17240475D01*
X27397676Y-17240475D02*
X27302438Y-17145237D01*
X27302438Y-17145237D02*
X27254819Y-17002380D01*
X27254819Y-17002380D02*
X27254819Y-16907142D01*
X27254819Y-16907142D02*
X27302438Y-16764285D01*
X27302438Y-16764285D02*
X27350057Y-16716666D01*
X27254819Y-15811904D02*
X27254819Y-16288094D01*
X27254819Y-16288094D02*
X27731009Y-16335713D01*
X27731009Y-16335713D02*
X27683390Y-16288094D01*
X27683390Y-16288094D02*
X27635771Y-16192856D01*
X27635771Y-16192856D02*
X27635771Y-15954761D01*
X27635771Y-15954761D02*
X27683390Y-15859523D01*
X27683390Y-15859523D02*
X27731009Y-15811904D01*
X27731009Y-15811904D02*
X27826247Y-15764285D01*
X27826247Y-15764285D02*
X28064342Y-15764285D01*
X28064342Y-15764285D02*
X28159580Y-15811904D01*
X28159580Y-15811904D02*
X28207200Y-15859523D01*
X28207200Y-15859523D02*
X28254819Y-15954761D01*
X28254819Y-15954761D02*
X28254819Y-16192856D01*
X28254819Y-16192856D02*
X28207200Y-16288094D01*
X28207200Y-16288094D02*
X28159580Y-16335713D01*
X50458333Y-11542319D02*
X50125000Y-11066128D01*
X49886905Y-11542319D02*
X49886905Y-10542319D01*
X49886905Y-10542319D02*
X50267857Y-10542319D01*
X50267857Y-10542319D02*
X50363095Y-10589938D01*
X50363095Y-10589938D02*
X50410714Y-10637557D01*
X50410714Y-10637557D02*
X50458333Y-10732795D01*
X50458333Y-10732795D02*
X50458333Y-10875652D01*
X50458333Y-10875652D02*
X50410714Y-10970890D01*
X50410714Y-10970890D02*
X50363095Y-11018509D01*
X50363095Y-11018509D02*
X50267857Y-11066128D01*
X50267857Y-11066128D02*
X49886905Y-11066128D01*
X51410714Y-11542319D02*
X50839286Y-11542319D01*
X51125000Y-11542319D02*
X51125000Y-10542319D01*
X51125000Y-10542319D02*
X51029762Y-10685176D01*
X51029762Y-10685176D02*
X50934524Y-10780414D01*
X50934524Y-10780414D02*
X50839286Y-10828033D01*
X10704819Y-12561904D02*
X11514342Y-12561904D01*
X11514342Y-12561904D02*
X11609580Y-12514285D01*
X11609580Y-12514285D02*
X11657200Y-12466666D01*
X11657200Y-12466666D02*
X11704819Y-12371428D01*
X11704819Y-12371428D02*
X11704819Y-12180952D01*
X11704819Y-12180952D02*
X11657200Y-12085714D01*
X11657200Y-12085714D02*
X11609580Y-12038095D01*
X11609580Y-12038095D02*
X11514342Y-11990476D01*
X11514342Y-11990476D02*
X10704819Y-11990476D01*
X11704819Y-10990476D02*
X11704819Y-11561904D01*
X11704819Y-11276190D02*
X10704819Y-11276190D01*
X10704819Y-11276190D02*
X10847676Y-11371428D01*
X10847676Y-11371428D02*
X10942914Y-11466666D01*
X10942914Y-11466666D02*
X10990533Y-11561904D01*
X11833333Y-2759580D02*
X11785714Y-2807200D01*
X11785714Y-2807200D02*
X11642857Y-2854819D01*
X11642857Y-2854819D02*
X11547619Y-2854819D01*
X11547619Y-2854819D02*
X11404762Y-2807200D01*
X11404762Y-2807200D02*
X11309524Y-2711961D01*
X11309524Y-2711961D02*
X11261905Y-2616723D01*
X11261905Y-2616723D02*
X11214286Y-2426247D01*
X11214286Y-2426247D02*
X11214286Y-2283390D01*
X11214286Y-2283390D02*
X11261905Y-2092914D01*
X11261905Y-2092914D02*
X11309524Y-1997676D01*
X11309524Y-1997676D02*
X11404762Y-1902438D01*
X11404762Y-1902438D02*
X11547619Y-1854819D01*
X11547619Y-1854819D02*
X11642857Y-1854819D01*
X11642857Y-1854819D02*
X11785714Y-1902438D01*
X11785714Y-1902438D02*
X11833333Y-1950057D01*
X12690476Y-2188152D02*
X12690476Y-2854819D01*
X12452381Y-1807200D02*
X12214286Y-2521485D01*
X12214286Y-2521485D02*
X12833333Y-2521485D01*
X45483333Y-11534580D02*
X45435714Y-11582200D01*
X45435714Y-11582200D02*
X45292857Y-11629819D01*
X45292857Y-11629819D02*
X45197619Y-11629819D01*
X45197619Y-11629819D02*
X45054762Y-11582200D01*
X45054762Y-11582200D02*
X44959524Y-11486961D01*
X44959524Y-11486961D02*
X44911905Y-11391723D01*
X44911905Y-11391723D02*
X44864286Y-11201247D01*
X44864286Y-11201247D02*
X44864286Y-11058390D01*
X44864286Y-11058390D02*
X44911905Y-10867914D01*
X44911905Y-10867914D02*
X44959524Y-10772676D01*
X44959524Y-10772676D02*
X45054762Y-10677438D01*
X45054762Y-10677438D02*
X45197619Y-10629819D01*
X45197619Y-10629819D02*
X45292857Y-10629819D01*
X45292857Y-10629819D02*
X45435714Y-10677438D01*
X45435714Y-10677438D02*
X45483333Y-10725057D01*
X46054762Y-11058390D02*
X45959524Y-11010771D01*
X45959524Y-11010771D02*
X45911905Y-10963152D01*
X45911905Y-10963152D02*
X45864286Y-10867914D01*
X45864286Y-10867914D02*
X45864286Y-10820295D01*
X45864286Y-10820295D02*
X45911905Y-10725057D01*
X45911905Y-10725057D02*
X45959524Y-10677438D01*
X45959524Y-10677438D02*
X46054762Y-10629819D01*
X46054762Y-10629819D02*
X46245238Y-10629819D01*
X46245238Y-10629819D02*
X46340476Y-10677438D01*
X46340476Y-10677438D02*
X46388095Y-10725057D01*
X46388095Y-10725057D02*
X46435714Y-10820295D01*
X46435714Y-10820295D02*
X46435714Y-10867914D01*
X46435714Y-10867914D02*
X46388095Y-10963152D01*
X46388095Y-10963152D02*
X46340476Y-11010771D01*
X46340476Y-11010771D02*
X46245238Y-11058390D01*
X46245238Y-11058390D02*
X46054762Y-11058390D01*
X46054762Y-11058390D02*
X45959524Y-11106009D01*
X45959524Y-11106009D02*
X45911905Y-11153628D01*
X45911905Y-11153628D02*
X45864286Y-11248866D01*
X45864286Y-11248866D02*
X45864286Y-11439342D01*
X45864286Y-11439342D02*
X45911905Y-11534580D01*
X45911905Y-11534580D02*
X45959524Y-11582200D01*
X45959524Y-11582200D02*
X46054762Y-11629819D01*
X46054762Y-11629819D02*
X46245238Y-11629819D01*
X46245238Y-11629819D02*
X46340476Y-11582200D01*
X46340476Y-11582200D02*
X46388095Y-11534580D01*
X46388095Y-11534580D02*
X46435714Y-11439342D01*
X46435714Y-11439342D02*
X46435714Y-11248866D01*
X46435714Y-11248866D02*
X46388095Y-11153628D01*
X46388095Y-11153628D02*
X46340476Y-11106009D01*
X46340476Y-11106009D02*
X46245238Y-11058390D01*
X34229819Y-32342857D02*
X33753628Y-32676190D01*
X34229819Y-32914285D02*
X33229819Y-32914285D01*
X33229819Y-32914285D02*
X33229819Y-32533333D01*
X33229819Y-32533333D02*
X33277438Y-32438095D01*
X33277438Y-32438095D02*
X33325057Y-32390476D01*
X33325057Y-32390476D02*
X33420295Y-32342857D01*
X33420295Y-32342857D02*
X33563152Y-32342857D01*
X33563152Y-32342857D02*
X33658390Y-32390476D01*
X33658390Y-32390476D02*
X33706009Y-32438095D01*
X33706009Y-32438095D02*
X33753628Y-32533333D01*
X33753628Y-32533333D02*
X33753628Y-32914285D01*
X34229819Y-31390476D02*
X34229819Y-31961904D01*
X34229819Y-31676190D02*
X33229819Y-31676190D01*
X33229819Y-31676190D02*
X33372676Y-31771428D01*
X33372676Y-31771428D02*
X33467914Y-31866666D01*
X33467914Y-31866666D02*
X33515533Y-31961904D01*
X34229819Y-30438095D02*
X34229819Y-31009523D01*
X34229819Y-30723809D02*
X33229819Y-30723809D01*
X33229819Y-30723809D02*
X33372676Y-30819047D01*
X33372676Y-30819047D02*
X33467914Y-30914285D01*
X33467914Y-30914285D02*
X33515533Y-31009523D01*
X2233333Y-34004819D02*
X1900000Y-33528628D01*
X1661905Y-34004819D02*
X1661905Y-33004819D01*
X1661905Y-33004819D02*
X2042857Y-33004819D01*
X2042857Y-33004819D02*
X2138095Y-33052438D01*
X2138095Y-33052438D02*
X2185714Y-33100057D01*
X2185714Y-33100057D02*
X2233333Y-33195295D01*
X2233333Y-33195295D02*
X2233333Y-33338152D01*
X2233333Y-33338152D02*
X2185714Y-33433390D01*
X2185714Y-33433390D02*
X2138095Y-33481009D01*
X2138095Y-33481009D02*
X2042857Y-33528628D01*
X2042857Y-33528628D02*
X1661905Y-33528628D01*
X3090476Y-33338152D02*
X3090476Y-34004819D01*
X2852381Y-32957200D02*
X2614286Y-33671485D01*
X2614286Y-33671485D02*
X3233333Y-33671485D01*
X31236905Y-21679819D02*
X31236905Y-20679819D01*
X31236905Y-20679819D02*
X31475000Y-20679819D01*
X31475000Y-20679819D02*
X31617857Y-20727438D01*
X31617857Y-20727438D02*
X31713095Y-20822676D01*
X31713095Y-20822676D02*
X31760714Y-20917914D01*
X31760714Y-20917914D02*
X31808333Y-21108390D01*
X31808333Y-21108390D02*
X31808333Y-21251247D01*
X31808333Y-21251247D02*
X31760714Y-21441723D01*
X31760714Y-21441723D02*
X31713095Y-21536961D01*
X31713095Y-21536961D02*
X31617857Y-21632200D01*
X31617857Y-21632200D02*
X31475000Y-21679819D01*
X31475000Y-21679819D02*
X31236905Y-21679819D01*
X32141667Y-20679819D02*
X32808333Y-20679819D01*
X32808333Y-20679819D02*
X32379762Y-21679819D01*
X13833333Y-31884819D02*
X13500000Y-31408628D01*
X13261905Y-31884819D02*
X13261905Y-30884819D01*
X13261905Y-30884819D02*
X13642857Y-30884819D01*
X13642857Y-30884819D02*
X13738095Y-30932438D01*
X13738095Y-30932438D02*
X13785714Y-30980057D01*
X13785714Y-30980057D02*
X13833333Y-31075295D01*
X13833333Y-31075295D02*
X13833333Y-31218152D01*
X13833333Y-31218152D02*
X13785714Y-31313390D01*
X13785714Y-31313390D02*
X13738095Y-31361009D01*
X13738095Y-31361009D02*
X13642857Y-31408628D01*
X13642857Y-31408628D02*
X13261905Y-31408628D01*
X14738095Y-30884819D02*
X14261905Y-30884819D01*
X14261905Y-30884819D02*
X14214286Y-31361009D01*
X14214286Y-31361009D02*
X14261905Y-31313390D01*
X14261905Y-31313390D02*
X14357143Y-31265771D01*
X14357143Y-31265771D02*
X14595238Y-31265771D01*
X14595238Y-31265771D02*
X14690476Y-31313390D01*
X14690476Y-31313390D02*
X14738095Y-31361009D01*
X14738095Y-31361009D02*
X14785714Y-31456247D01*
X14785714Y-31456247D02*
X14785714Y-31694342D01*
X14785714Y-31694342D02*
X14738095Y-31789580D01*
X14738095Y-31789580D02*
X14690476Y-31837200D01*
X14690476Y-31837200D02*
X14595238Y-31884819D01*
X14595238Y-31884819D02*
X14357143Y-31884819D01*
X14357143Y-31884819D02*
X14261905Y-31837200D01*
X14261905Y-31837200D02*
X14214286Y-31789580D01*
D10*
%TO.C,L1*%
X13738748Y-14090000D02*
X14261252Y-14090000D01*
X13738748Y-16310000D02*
X14261252Y-16310000D01*
%TO.C,R12*%
X40952064Y-24660000D02*
X39497936Y-24660000D01*
X40952064Y-22840000D02*
X39497936Y-22840000D01*
%TO.C,GPIO1*%
X33820000Y-3130000D02*
X46580000Y-3130000D01*
X33820000Y-3130000D02*
X33820000Y-470000D01*
X46580000Y-3130000D02*
X46580000Y-470000D01*
X31220000Y-1800000D02*
X31220000Y-470000D01*
X31220000Y-470000D02*
X32550000Y-470000D01*
X33820000Y-470000D02*
X46580000Y-470000D01*
%TO.C,CB1*%
X20161000Y-8682621D02*
X20161000Y-8052621D01*
X19846000Y-8367621D02*
X20476000Y-8367621D01*
X18770000Y-5182380D02*
X25230000Y-5182380D01*
X18770000Y-5142380D02*
X25230000Y-5142380D01*
X18770000Y-5102380D02*
X25230000Y-5102380D01*
X18772000Y-5062380D02*
X25228000Y-5062380D01*
X18773000Y-5022380D02*
X25227000Y-5022380D01*
X18776000Y-4982380D02*
X25224000Y-4982380D01*
X18778000Y-4942380D02*
X20960000Y-4942380D01*
X23040000Y-4942380D02*
X25222000Y-4942380D01*
X18782000Y-4902380D02*
X20960000Y-4902380D01*
X23040000Y-4902380D02*
X25218000Y-4902380D01*
X18785000Y-4862380D02*
X20960000Y-4862380D01*
X23040000Y-4862380D02*
X25215000Y-4862380D01*
X18789000Y-4822380D02*
X20960000Y-4822380D01*
X23040000Y-4822380D02*
X25211000Y-4822380D01*
X18794000Y-4782380D02*
X20960000Y-4782380D01*
X23040000Y-4782380D02*
X25206000Y-4782380D01*
X18799000Y-4742380D02*
X20960000Y-4742380D01*
X23040000Y-4742380D02*
X25201000Y-4742380D01*
X18805000Y-4702380D02*
X20960000Y-4702380D01*
X23040000Y-4702380D02*
X25195000Y-4702380D01*
X18811000Y-4662380D02*
X20960000Y-4662380D01*
X23040000Y-4662380D02*
X25189000Y-4662380D01*
X18818000Y-4622380D02*
X20960000Y-4622380D01*
X23040000Y-4622380D02*
X25182000Y-4622380D01*
X18825000Y-4582380D02*
X20960000Y-4582380D01*
X23040000Y-4582380D02*
X25175000Y-4582380D01*
X18833000Y-4542380D02*
X20960000Y-4542380D01*
X23040000Y-4542380D02*
X25167000Y-4542380D01*
X18841000Y-4502380D02*
X20960000Y-4502380D01*
X23040000Y-4502380D02*
X25159000Y-4502380D01*
X18850000Y-4461380D02*
X20960000Y-4461380D01*
X23040000Y-4461380D02*
X25150000Y-4461380D01*
X18859000Y-4421380D02*
X20960000Y-4421380D01*
X23040000Y-4421380D02*
X25141000Y-4421380D01*
X18869000Y-4381380D02*
X20960000Y-4381380D01*
X23040000Y-4381380D02*
X25131000Y-4381380D01*
X18879000Y-4341380D02*
X20960000Y-4341380D01*
X23040000Y-4341380D02*
X25121000Y-4341380D01*
X18890000Y-4301380D02*
X20960000Y-4301380D01*
X23040000Y-4301380D02*
X25110000Y-4301380D01*
X18902000Y-4261380D02*
X20960000Y-4261380D01*
X23040000Y-4261380D02*
X25098000Y-4261380D01*
X18914000Y-4221380D02*
X20960000Y-4221380D01*
X23040000Y-4221380D02*
X25086000Y-4221380D01*
X18926000Y-4181380D02*
X20960000Y-4181380D01*
X23040000Y-4181380D02*
X25074000Y-4181380D01*
X18939000Y-4141380D02*
X20960000Y-4141380D01*
X23040000Y-4141380D02*
X25061000Y-4141380D01*
X18953000Y-4101380D02*
X20960000Y-4101380D01*
X23040000Y-4101380D02*
X25047000Y-4101380D01*
X18967000Y-4061380D02*
X20960000Y-4061380D01*
X23040000Y-4061380D02*
X25033000Y-4061380D01*
X18982000Y-4021380D02*
X20960000Y-4021380D01*
X23040000Y-4021380D02*
X25018000Y-4021380D01*
X18998000Y-3981380D02*
X20960000Y-3981380D01*
X23040000Y-3981380D02*
X25002000Y-3981380D01*
X19014000Y-3941380D02*
X20960000Y-3941380D01*
X23040000Y-3941380D02*
X24986000Y-3941380D01*
X19030000Y-3901380D02*
X20960000Y-3901380D01*
X23040000Y-3901380D02*
X24970000Y-3901380D01*
X19048000Y-3861380D02*
X20960000Y-3861380D01*
X23040000Y-3861380D02*
X24952000Y-3861380D01*
X19066000Y-3821380D02*
X20960000Y-3821380D01*
X23040000Y-3821380D02*
X24934000Y-3821380D01*
X19084000Y-3781380D02*
X20960000Y-3781380D01*
X23040000Y-3781380D02*
X24916000Y-3781380D01*
X19104000Y-3741380D02*
X20960000Y-3741380D01*
X23040000Y-3741380D02*
X24896000Y-3741380D01*
X19124000Y-3701380D02*
X20960000Y-3701380D01*
X23040000Y-3701380D02*
X24876000Y-3701380D01*
X19144000Y-3661380D02*
X20960000Y-3661380D01*
X23040000Y-3661380D02*
X24856000Y-3661380D01*
X19166000Y-3621380D02*
X20960000Y-3621380D01*
X23040000Y-3621380D02*
X24834000Y-3621380D01*
X19188000Y-3581380D02*
X20960000Y-3581380D01*
X23040000Y-3581380D02*
X24812000Y-3581380D01*
X19210000Y-3541380D02*
X20960000Y-3541380D01*
X23040000Y-3541380D02*
X24790000Y-3541380D01*
X19234000Y-3501380D02*
X20960000Y-3501380D01*
X23040000Y-3501380D02*
X24766000Y-3501380D01*
X19258000Y-3461380D02*
X20960000Y-3461380D01*
X23040000Y-3461380D02*
X24742000Y-3461380D01*
X19284000Y-3421380D02*
X20960000Y-3421380D01*
X23040000Y-3421380D02*
X24716000Y-3421380D01*
X19310000Y-3381380D02*
X20960000Y-3381380D01*
X23040000Y-3381380D02*
X24690000Y-3381380D01*
X19336000Y-3341380D02*
X20960000Y-3341380D01*
X23040000Y-3341380D02*
X24664000Y-3341380D01*
X19364000Y-3301380D02*
X20960000Y-3301380D01*
X23040000Y-3301380D02*
X24636000Y-3301380D01*
X19393000Y-3261380D02*
X20960000Y-3261380D01*
X23040000Y-3261380D02*
X24607000Y-3261380D01*
X19422000Y-3221380D02*
X20960000Y-3221380D01*
X23040000Y-3221380D02*
X24578000Y-3221380D01*
X19452000Y-3181380D02*
X20960000Y-3181380D01*
X23040000Y-3181380D02*
X24548000Y-3181380D01*
X19484000Y-3141380D02*
X20960000Y-3141380D01*
X23040000Y-3141380D02*
X24516000Y-3141380D01*
X19516000Y-3101380D02*
X20960000Y-3101380D01*
X23040000Y-3101380D02*
X24484000Y-3101380D01*
X19550000Y-3061380D02*
X20960000Y-3061380D01*
X23040000Y-3061380D02*
X24450000Y-3061380D01*
X19584000Y-3021380D02*
X20960000Y-3021380D01*
X23040000Y-3021380D02*
X24416000Y-3021380D01*
X19620000Y-2981380D02*
X20960000Y-2981380D01*
X23040000Y-2981380D02*
X24380000Y-2981380D01*
X19657000Y-2941380D02*
X20960000Y-2941380D01*
X23040000Y-2941380D02*
X24343000Y-2941380D01*
X19695000Y-2901380D02*
X20960000Y-2901380D01*
X23040000Y-2901380D02*
X24305000Y-2901380D01*
X19735000Y-2861380D02*
X24265000Y-2861380D01*
X19776000Y-2821380D02*
X24224000Y-2821380D01*
X19818000Y-2781380D02*
X24182000Y-2781380D01*
X19863000Y-2741380D02*
X24137000Y-2741380D01*
X19908000Y-2701380D02*
X24092000Y-2701380D01*
X19956000Y-2661380D02*
X24044000Y-2661380D01*
X20005000Y-2621380D02*
X23995000Y-2621380D01*
X20056000Y-2581380D02*
X23944000Y-2581380D01*
X20110000Y-2541380D02*
X23890000Y-2541380D01*
X20166000Y-2501380D02*
X23834000Y-2501380D01*
X20224000Y-2461380D02*
X23776000Y-2461380D01*
X20286000Y-2421380D02*
X23714000Y-2421380D01*
X20350000Y-2381380D02*
X23650000Y-2381380D01*
X20419000Y-2341380D02*
X23581000Y-2341380D01*
X20491000Y-2301380D02*
X23509000Y-2301380D01*
X20568000Y-2261380D02*
X23432000Y-2261380D01*
X20650000Y-2221380D02*
X23350000Y-2221380D01*
X20738000Y-2181380D02*
X23262000Y-2181380D01*
X20835000Y-2141380D02*
X23165000Y-2141380D01*
X20941000Y-2101380D02*
X23059000Y-2101380D01*
X21060000Y-2061380D02*
X22940000Y-2061380D01*
X21198000Y-2021380D02*
X22802000Y-2021380D01*
X21367000Y-1981380D02*
X22633000Y-1981380D01*
X21598000Y-1941380D02*
X22402000Y-1941380D01*
X25270000Y-5182380D02*
G75*
G03*
X25270000Y-5182380I-3270000J0D01*
G01*
%TO.C,R9*%
X37185000Y-34685436D02*
X37185000Y-36139564D01*
X35365000Y-34685436D02*
X35365000Y-36139564D01*
%TO.C,R3*%
X54710436Y-6965000D02*
X56164564Y-6965000D01*
X54710436Y-8785000D02*
X56164564Y-8785000D01*
%TO.C,D2*%
X4877500Y-30465000D02*
X4877500Y-32735000D01*
X4877500Y-32735000D02*
X8762500Y-32735000D01*
X8762500Y-30465000D02*
X4877500Y-30465000D01*
%TO.C,U2*%
X27100000Y-25910000D02*
X21090000Y-25910000D01*
X24850000Y-19090000D02*
X21090000Y-19090000D01*
X21090000Y-25910000D02*
X21090000Y-24650000D01*
X21090000Y-19090000D02*
X21090000Y-20350000D01*
%TO.C,R15*%
X29685000Y-34685436D02*
X29685000Y-36139564D01*
X27865000Y-34685436D02*
X27865000Y-36139564D01*
%TO.C,BOOT1*%
X53875000Y-1025000D02*
X57175000Y-1025000D01*
X53875000Y-1325000D02*
X53875000Y-1025000D01*
X53875000Y-3525000D02*
X53875000Y-3825000D01*
X53875000Y-3825000D02*
X57175000Y-3825000D01*
X54525000Y-705000D02*
X54525000Y-1025000D01*
X55025000Y-325000D02*
X54525000Y-705000D01*
X55025000Y-325000D02*
X56025000Y-325000D01*
X56025000Y-325000D02*
X56525000Y-705000D01*
X56525000Y-705000D02*
X56525000Y-1025000D01*
X57175000Y-1025000D02*
X57175000Y-1325000D01*
X57175000Y-3825000D02*
X57175000Y-3525000D01*
%TO.C,C2*%
X54701248Y-4465000D02*
X56123752Y-4465000D01*
X54701248Y-6285000D02*
X56123752Y-6285000D01*
%TO.C,D4*%
X37697500Y-27250000D02*
X37697500Y-25250000D01*
X37697500Y-27250000D02*
X33687500Y-27250000D01*
X37697500Y-25250000D02*
X33687500Y-25250000D01*
%TO.C,R13*%
X32185000Y-34685436D02*
X32185000Y-36139564D01*
X30365000Y-34685436D02*
X30365000Y-36139564D01*
%TO.C,R10*%
X40952064Y-27160000D02*
X39497936Y-27160000D01*
X40952064Y-25340000D02*
X39497936Y-25340000D01*
%TO.C,R16*%
X40952064Y-19660000D02*
X39497936Y-19660000D01*
X40952064Y-17840000D02*
X39497936Y-17840000D01*
%TO.C,TTY1*%
X11220000Y-41055000D02*
X18900000Y-41055000D01*
X11220000Y-41055000D02*
X11220000Y-38395000D01*
X18900000Y-41055000D02*
X18900000Y-38395000D01*
X8620000Y-39725000D02*
X8620000Y-38395000D01*
X8620000Y-38395000D02*
X9950000Y-38395000D01*
X11220000Y-38395000D02*
X18900000Y-38395000D01*
%TO.C,R7*%
X39685000Y-34685436D02*
X39685000Y-36139564D01*
X37865000Y-34685436D02*
X37865000Y-36139564D01*
%TO.C,D5*%
X37697500Y-24750000D02*
X37697500Y-22750000D01*
X37697500Y-24750000D02*
X33687500Y-24750000D01*
X37697500Y-22750000D02*
X33687500Y-22750000D01*
%TO.C,R6*%
X49010000Y-7360436D02*
X49010000Y-8814564D01*
X47190000Y-7360436D02*
X47190000Y-8814564D01*
%TO.C,C6*%
X17415000Y-16625000D02*
X17415000Y-16000000D01*
X17102500Y-16312500D02*
X17727500Y-16312500D01*
X17404437Y-15760000D02*
X18040000Y-15760000D01*
X17404437Y-15760000D02*
X16340000Y-14695563D01*
X20795563Y-15760000D02*
X20160000Y-15760000D01*
X20795563Y-15760000D02*
X21860000Y-14695563D01*
X16340000Y-14695563D02*
X16340000Y-10240000D01*
X21860000Y-14695563D02*
X21860000Y-10240000D01*
X16340000Y-10240000D02*
X18040000Y-10240000D01*
X21860000Y-10240000D02*
X20160000Y-10240000D01*
%TO.C,AIN1*%
X37555000Y-38395000D02*
X24795000Y-38395000D01*
X37555000Y-38395000D02*
X37555000Y-41055000D01*
X24795000Y-38395000D02*
X24795000Y-41055000D01*
X40155000Y-39725000D02*
X40155000Y-41055000D01*
X40155000Y-41055000D02*
X38825000Y-41055000D01*
X37555000Y-41055000D02*
X24795000Y-41055000D01*
%TO.C,V1*%
X9340000Y-8280000D02*
X9340000Y-17080000D01*
X140000Y-8280000D02*
X9340000Y-8280000D01*
X9340000Y-17080000D02*
X140000Y-17080000D01*
X140000Y-17080000D02*
X140000Y-8280000D01*
%TO.C,R8*%
X40952064Y-29660000D02*
X39497936Y-29660000D01*
X40952064Y-27840000D02*
X39497936Y-27840000D01*
%TO.C,C3*%
X13111252Y-18710000D02*
X11688748Y-18710000D01*
X13111252Y-16890000D02*
X11688748Y-16890000D01*
%TO.C,U4*%
X12500000Y-37750000D02*
X16500000Y-37750000D01*
X12500000Y-34750000D02*
X15500000Y-34750000D01*
%TO.C,D6*%
X5462500Y-27810000D02*
X7462500Y-27810000D01*
X5462500Y-27810000D02*
X5462500Y-23800000D01*
X7462500Y-27810000D02*
X7462500Y-23800000D01*
%TO.C,J1*%
X4462500Y-21700000D02*
X4462500Y-22150000D01*
X2612500Y-21700000D02*
X4462500Y-21700000D01*
X62500Y-21700000D02*
X312500Y-21700000D01*
X5012500Y-23900000D02*
X4562500Y-23900000D01*
X5012500Y-23900000D02*
X5012500Y-24350000D01*
X4462500Y-29500000D02*
X4462500Y-29050000D01*
X2612500Y-29500000D02*
X4462500Y-29500000D01*
X62500Y-29500000D02*
X312500Y-29500000D01*
%TO.C,D9*%
X20135000Y-33365000D02*
X17865000Y-33365000D01*
X17865000Y-33365000D02*
X17865000Y-37250000D01*
X20135000Y-37250000D02*
X20135000Y-33365000D01*
%TO.C,D3*%
X37697500Y-29750000D02*
X37697500Y-27750000D01*
X37697500Y-29750000D02*
X33687500Y-29750000D01*
X37697500Y-27750000D02*
X33687500Y-27750000D01*
%TO.C,R17*%
X18090000Y-31564564D02*
X18090000Y-30110436D01*
X19910000Y-31564564D02*
X19910000Y-30110436D01*
%TO.C,C7*%
X29565000Y-16625000D02*
X29565000Y-16000000D01*
X29252500Y-16312500D02*
X29877500Y-16312500D01*
X29554437Y-15760000D02*
X30190000Y-15760000D01*
X29554437Y-15760000D02*
X28490000Y-14695563D01*
X32945563Y-15760000D02*
X32310000Y-15760000D01*
X32945563Y-15760000D02*
X34010000Y-14695563D01*
X28490000Y-14695563D02*
X28490000Y-10240000D01*
X34010000Y-14695563D02*
X34010000Y-10240000D01*
X28490000Y-10240000D02*
X30190000Y-10240000D01*
X34010000Y-10240000D02*
X32310000Y-10240000D01*
%TO.C,U3*%
X65500000Y-16000000D02*
X59000000Y-16000000D01*
X65500000Y-16000000D02*
X65500000Y-34000000D01*
X45500000Y-16000000D02*
X45750000Y-16000000D01*
X65500000Y-34000000D02*
X59000000Y-34000000D01*
X59500000Y-34000000D02*
X59500000Y-16050000D01*
X45750000Y-34000000D02*
X45500000Y-34000000D01*
X45500000Y-34000000D02*
X45500000Y-16000000D01*
%TO.C,U5*%
X40500000Y-13435000D02*
X44100000Y-13435000D01*
X40500000Y-13435000D02*
X38300000Y-13435000D01*
X40500000Y-6665000D02*
X42700000Y-6665000D01*
X40500000Y-6665000D02*
X38300000Y-6665000D01*
%TO.C,D8*%
X37697500Y-19750000D02*
X37697500Y-17750000D01*
X37697500Y-19750000D02*
X33687500Y-19750000D01*
X37697500Y-17750000D02*
X33687500Y-17750000D01*
%TO.C,D1*%
X26400000Y-8660000D02*
X29700000Y-8660000D01*
X26400000Y-8660000D02*
X26400000Y-3150000D01*
X29700000Y-8660000D02*
X29700000Y-3150000D01*
%TO.C,R14*%
X40952064Y-22160000D02*
X39497936Y-22160000D01*
X40952064Y-20340000D02*
X39497936Y-20340000D01*
%TO.C,RESET1*%
X65000000Y-8850000D02*
X65000000Y-12150000D01*
X64700000Y-8850000D02*
X65000000Y-8850000D01*
X62500000Y-8850000D02*
X62200000Y-8850000D01*
X62200000Y-8850000D02*
X62200000Y-12150000D01*
X65320000Y-9500000D02*
X65000000Y-9500000D01*
X65700000Y-10000000D02*
X65320000Y-9500000D01*
X65700000Y-10000000D02*
X65700000Y-11000000D01*
X65700000Y-11000000D02*
X65320000Y-11500000D01*
X65320000Y-11500000D02*
X65000000Y-11500000D01*
X65000000Y-12150000D02*
X64700000Y-12150000D01*
X62200000Y-12150000D02*
X62500000Y-12150000D01*
%TO.C,C5*%
X23565000Y-16625000D02*
X23565000Y-16000000D01*
X23252500Y-16312500D02*
X23877500Y-16312500D01*
X23554437Y-15760000D02*
X24190000Y-15760000D01*
X23554437Y-15760000D02*
X22490000Y-14695563D01*
X26945563Y-15760000D02*
X26310000Y-15760000D01*
X26945563Y-15760000D02*
X28010000Y-14695563D01*
X22490000Y-14695563D02*
X22490000Y-10240000D01*
X28010000Y-14695563D02*
X28010000Y-10240000D01*
X22490000Y-10240000D02*
X24190000Y-10240000D01*
X28010000Y-10240000D02*
X26310000Y-10240000D01*
%TO.C,R1*%
X49690000Y-8839564D02*
X49690000Y-7385436D01*
X51510000Y-8839564D02*
X51510000Y-7385436D01*
%TO.C,R2*%
X54710436Y-10365000D02*
X56164564Y-10365000D01*
X54710436Y-12185000D02*
X56164564Y-12185000D01*
%TO.C,U1*%
X14000000Y-13360000D02*
X15800000Y-13360000D01*
X14000000Y-13360000D02*
X13200000Y-13360000D01*
X14000000Y-10240000D02*
X14800000Y-10240000D01*
X14000000Y-10240000D02*
X13200000Y-10240000D01*
%TO.C,C4*%
X12315000Y-9625000D02*
X12315000Y-9000000D01*
X12002500Y-9312500D02*
X12627500Y-9312500D01*
X12304437Y-8760000D02*
X12940000Y-8760000D01*
X12304437Y-8760000D02*
X11240000Y-7695563D01*
X15695563Y-8760000D02*
X15060000Y-8760000D01*
X15695563Y-8760000D02*
X16760000Y-7695563D01*
X11240000Y-7695563D02*
X11240000Y-3240000D01*
X16760000Y-7695563D02*
X16760000Y-3240000D01*
X11240000Y-3240000D02*
X12940000Y-3240000D01*
X16760000Y-3240000D02*
X15060000Y-3240000D01*
%TO.C,C8*%
X46535000Y-7388748D02*
X46535000Y-8811252D01*
X44715000Y-7388748D02*
X44715000Y-8811252D01*
%TO.C,R11*%
X34685000Y-34685436D02*
X34685000Y-36139564D01*
X32865000Y-34685436D02*
X32865000Y-36139564D01*
%TO.C,R4*%
X1685436Y-30690000D02*
X3139564Y-30690000D01*
X1685436Y-32510000D02*
X3139564Y-32510000D01*
%TO.C,D7*%
X37697500Y-22250000D02*
X37697500Y-20250000D01*
X37697500Y-22250000D02*
X33687500Y-22250000D01*
X37697500Y-20250000D02*
X33687500Y-20250000D01*
%TO.C,R5*%
X13272936Y-32340000D02*
X14727064Y-32340000D01*
X13272936Y-34160000D02*
X14727064Y-34160000D01*
%TO.C,C1*%
X54738748Y-12765000D02*
X56161252Y-12765000D01*
X54738748Y-14585000D02*
X56161252Y-14585000D01*
%TD*%
M02*
