%TF.GenerationSoftware,KiCad,Pcbnew,7.0.6*%
%TF.CreationDate,2023-12-30T19:56:00-05:00*%
%TF.ProjectId,Crystal,43727973-7461-46c2-9e6b-696361645f70,rev?*%
%TF.SameCoordinates,PX1312d00PY1312d00*%
%TF.FileFunction,Paste,Top*%
%TF.FilePolarity,Positive*%
%FSLAX46Y46*%
G04 Gerber Fmt 4.6, Leading zero omitted, Abs format (unit mm)*
G04 Created by KiCad (PCBNEW 7.0.6) date 2023-12-30 19:56:00*
%MOMM*%
%LPD*%
G01*
G04 APERTURE LIST*
G04 Aperture macros list*
%AMRoundRect*
0 Rectangle with rounded corners*
0 $1 Rounding radius*
0 $2 $3 $4 $5 $6 $7 $8 $9 X,Y pos of 4 corners*
0 Add a 4 corners polygon primitive as box body*
4,1,4,$2,$3,$4,$5,$6,$7,$8,$9,$2,$3,0*
0 Add four circle primitives for the rounded corners*
1,1,$1+$1,$2,$3*
1,1,$1+$1,$4,$5*
1,1,$1+$1,$6,$7*
1,1,$1+$1,$8,$9*
0 Add four rect primitives between the rounded corners*
20,1,$1+$1,$2,$3,$4,$5,0*
20,1,$1+$1,$4,$5,$6,$7,0*
20,1,$1+$1,$6,$7,$8,$9,0*
20,1,$1+$1,$8,$9,$2,$3,0*%
G04 Aperture macros list end*
%ADD10RoundRect,0.250001X-0.462499X-0.849999X0.462499X-0.849999X0.462499X0.849999X-0.462499X0.849999X0*%
%ADD11RoundRect,0.250000X0.312500X0.625000X-0.312500X0.625000X-0.312500X-0.625000X0.312500X-0.625000X0*%
%ADD12RoundRect,0.250000X-0.625000X0.312500X-0.625000X-0.312500X0.625000X-0.312500X0.625000X0.312500X0*%
%ADD13RoundRect,0.250000X-0.312500X-0.625000X0.312500X-0.625000X0.312500X0.625000X-0.312500X0.625000X0*%
%ADD14RoundRect,0.250000X-0.375000X-0.625000X0.375000X-0.625000X0.375000X0.625000X-0.375000X0.625000X0*%
%ADD15R,2.000000X1.500000*%
%ADD16R,2.000000X3.800000*%
%ADD17R,0.900000X1.700000*%
%ADD18RoundRect,0.250000X-0.325000X-0.650000X0.325000X-0.650000X0.325000X0.650000X-0.325000X0.650000X0*%
%ADD19RoundRect,0.225000X0.225000X0.375000X-0.225000X0.375000X-0.225000X-0.375000X0.225000X-0.375000X0*%
%ADD20RoundRect,0.250000X0.550000X-1.250000X0.550000X1.250000X-0.550000X1.250000X-0.550000X-1.250000X0*%
%ADD21RoundRect,0.250000X0.325000X0.650000X-0.325000X0.650000X-0.325000X-0.650000X0.325000X-0.650000X0*%
%ADD22R,1.600000X0.300000*%
%ADD23RoundRect,0.225000X0.375000X-0.225000X0.375000X0.225000X-0.375000X0.225000X-0.375000X-0.225000X0*%
%ADD24R,1.350000X0.400000*%
%ADD25R,1.900000X1.500000*%
%ADD26RoundRect,0.250000X-0.625000X0.375000X-0.625000X-0.375000X0.625000X-0.375000X0.625000X0.375000X0*%
%ADD27RoundRect,0.250000X0.625000X-0.312500X0.625000X0.312500X-0.625000X0.312500X-0.625000X-0.312500X0*%
%ADD28R,0.900000X1.500000*%
%ADD29R,0.800000X0.800000*%
%ADD30RoundRect,0.100000X0.637500X0.100000X-0.637500X0.100000X-0.637500X-0.100000X0.637500X-0.100000X0*%
%ADD31RoundRect,0.250000X0.650000X-1.000000X0.650000X1.000000X-0.650000X1.000000X-0.650000X-1.000000X0*%
%ADD32R,1.700000X0.900000*%
%ADD33RoundRect,0.150000X0.512500X0.150000X-0.512500X0.150000X-0.512500X-0.150000X0.512500X-0.150000X0*%
%ADD34RoundRect,0.250000X-0.650000X0.325000X-0.650000X-0.325000X0.650000X-0.325000X0.650000X0.325000X0*%
G04 APERTURE END LIST*
D10*
%TO.C,L1*%
X12837500Y-15200000D03*
X15162500Y-15200000D03*
%TD*%
D11*
%TO.C,R12*%
X41687500Y-23750000D03*
X38762500Y-23750000D03*
%TD*%
D12*
%TO.C,R9*%
X36275000Y-33950000D03*
X36275000Y-36875000D03*
%TD*%
D13*
%TO.C,R3*%
X53975000Y-7875000D03*
X56900000Y-7875000D03*
%TD*%
D14*
%TO.C,D2*%
X5762500Y-31600000D03*
X8562500Y-31600000D03*
%TD*%
D15*
%TO.C,U2*%
X26150000Y-24800000D03*
X26150000Y-22500000D03*
D16*
X19850000Y-22500000D03*
D15*
X26150000Y-20200000D03*
%TD*%
D12*
%TO.C,R15*%
X28775000Y-33950000D03*
X28775000Y-36875000D03*
%TD*%
D17*
%TO.C,BOOT1*%
X53825000Y-2425000D03*
X57225000Y-2425000D03*
%TD*%
D18*
%TO.C,C2*%
X53937500Y-5375000D03*
X56887500Y-5375000D03*
%TD*%
D19*
%TO.C,D4*%
X36987500Y-26250000D03*
X33687500Y-26250000D03*
%TD*%
D12*
%TO.C,R13*%
X31275000Y-33950000D03*
X31275000Y-36875000D03*
%TD*%
D11*
%TO.C,R10*%
X41687500Y-26250000D03*
X38762500Y-26250000D03*
%TD*%
%TO.C,R16*%
X41687500Y-18750000D03*
X38762500Y-18750000D03*
%TD*%
D12*
%TO.C,R7*%
X38775000Y-33950000D03*
X38775000Y-36875000D03*
%TD*%
D19*
%TO.C,D5*%
X36987500Y-23750000D03*
X33687500Y-23750000D03*
%TD*%
D12*
%TO.C,R6*%
X48100000Y-6625000D03*
X48100000Y-9550000D03*
%TD*%
D20*
%TO.C,C6*%
X19100000Y-15200000D03*
X19100000Y-10800000D03*
%TD*%
D11*
%TO.C,R8*%
X41687500Y-28750000D03*
X38762500Y-28750000D03*
%TD*%
D21*
%TO.C,C3*%
X13875000Y-17800000D03*
X10925000Y-17800000D03*
%TD*%
D22*
%TO.C,U4*%
X15700000Y-37225000D03*
X15700000Y-36575000D03*
X15700000Y-35925000D03*
X15700000Y-35275000D03*
X12300000Y-35275000D03*
X12300000Y-35925000D03*
X12300000Y-36575000D03*
X12300000Y-37225000D03*
%TD*%
D23*
%TO.C,D6*%
X6462500Y-27100000D03*
X6462500Y-23800000D03*
%TD*%
D24*
%TO.C,J1*%
X4162500Y-24300000D03*
X4162500Y-24950000D03*
X4162500Y-25600000D03*
X4162500Y-26250000D03*
X4162500Y-26900000D03*
D25*
X1462500Y-24600000D03*
X1462500Y-26600000D03*
%TD*%
D26*
%TO.C,D9*%
X19000000Y-34250000D03*
X19000000Y-37050000D03*
%TD*%
D19*
%TO.C,D3*%
X36987500Y-28750000D03*
X33687500Y-28750000D03*
%TD*%
D27*
%TO.C,R17*%
X19000000Y-32300000D03*
X19000000Y-29375000D03*
%TD*%
D20*
%TO.C,C7*%
X31250000Y-15200000D03*
X31250000Y-10800000D03*
%TD*%
D28*
%TO.C,U3*%
X58400000Y-16250000D03*
X56900000Y-16250000D03*
X55400000Y-16250000D03*
X53900000Y-16250000D03*
X52400000Y-16250000D03*
X50900000Y-16250000D03*
X49400000Y-16250000D03*
X47900000Y-16250000D03*
X46400000Y-16250000D03*
X46400000Y-33750000D03*
X47900000Y-33750000D03*
X49400000Y-33750000D03*
X50900000Y-33750000D03*
X52400000Y-33750000D03*
X53900000Y-33750000D03*
X55400000Y-33750000D03*
X56900000Y-33750000D03*
X58400000Y-33750000D03*
D29*
X53300000Y-24860000D03*
X52200000Y-24860000D03*
X51100000Y-24860000D03*
X53300000Y-25910000D03*
X52200000Y-25910000D03*
X51100000Y-25910000D03*
X53300000Y-27060000D03*
X52200000Y-27060000D03*
X51100000Y-27060000D03*
%TD*%
D30*
%TO.C,U5*%
X43362500Y-12975000D03*
X43362500Y-12325000D03*
X43362500Y-11675000D03*
X43362500Y-11025000D03*
X43362500Y-10375000D03*
X43362500Y-9725000D03*
X43362500Y-9075000D03*
X43362500Y-8425000D03*
X43362500Y-7775000D03*
X43362500Y-7125000D03*
X37637500Y-7125000D03*
X37637500Y-7775000D03*
X37637500Y-8425000D03*
X37637500Y-9075000D03*
X37637500Y-9725000D03*
X37637500Y-10375000D03*
X37637500Y-11025000D03*
X37637500Y-11675000D03*
X37637500Y-12325000D03*
X37637500Y-12975000D03*
%TD*%
D19*
%TO.C,D8*%
X36987500Y-18750000D03*
X33687500Y-18750000D03*
%TD*%
D31*
%TO.C,D1*%
X28050000Y-7150000D03*
X28050000Y-3150000D03*
%TD*%
D11*
%TO.C,R14*%
X41687500Y-21250000D03*
X38762500Y-21250000D03*
%TD*%
D32*
%TO.C,RESET1*%
X63600000Y-8800000D03*
X63600000Y-12200000D03*
%TD*%
D20*
%TO.C,C5*%
X25250000Y-15200000D03*
X25250000Y-10800000D03*
%TD*%
D27*
%TO.C,R1*%
X50600000Y-9575000D03*
X50600000Y-6650000D03*
%TD*%
D13*
%TO.C,R2*%
X53975000Y-11275000D03*
X56900000Y-11275000D03*
%TD*%
D33*
%TO.C,U1*%
X15137500Y-12750000D03*
X15137500Y-11800000D03*
X15137500Y-10850000D03*
X12862500Y-10850000D03*
X12862500Y-11800000D03*
X12862500Y-12750000D03*
%TD*%
D20*
%TO.C,C4*%
X14000000Y-8200000D03*
X14000000Y-3800000D03*
%TD*%
D34*
%TO.C,C8*%
X45625000Y-6625000D03*
X45625000Y-9575000D03*
%TD*%
D12*
%TO.C,R11*%
X33775000Y-33950000D03*
X33775000Y-36875000D03*
%TD*%
D13*
%TO.C,R4*%
X950000Y-31600000D03*
X3875000Y-31600000D03*
%TD*%
D19*
%TO.C,D7*%
X36987500Y-21250000D03*
X33687500Y-21250000D03*
%TD*%
D13*
%TO.C,R5*%
X12537500Y-33250000D03*
X15462500Y-33250000D03*
%TD*%
D18*
%TO.C,C1*%
X53975000Y-13675000D03*
X56925000Y-13675000D03*
%TD*%
M02*
