%TF.GenerationSoftware,KiCad,Pcbnew,7.0.6*%
%TF.CreationDate,2023-12-17T20:33:12-05:00*%
%TF.ProjectId,Crystal,43727973-7461-46c2-9e6b-696361645f70,rev?*%
%TF.SameCoordinates,PX1312d00PY1312d00*%
%TF.FileFunction,Drillmap*%
%TF.FilePolarity,Positive*%
%FSLAX45Y45*%
G04 Gerber Fmt 4.5, Leading zero omitted, Abs format (unit mm)*
G04 Created by KiCad (PCBNEW 7.0.6) date 2023-12-17 20:33:12*
%MOMM*%
%LPD*%
G01*
G04 APERTURE LIST*
%ADD10C,0.050000*%
%ADD11C,0.200000*%
%ADD12C,0.040000*%
%ADD13C,0.060000*%
%ADD14C,0.080000*%
%ADD15C,0.085000*%
%ADD16C,0.100000*%
%ADD17C,0.150000*%
G04 APERTURE END LIST*
D10*
X6400000Y-400000D02*
G75*
G03*
X6400000Y-400000I-200000J0D01*
G01*
X6400000Y-3900000D02*
G75*
G03*
X6400000Y-3900000I-200000J0D01*
G01*
X6600000Y0D02*
X0Y0D01*
X0Y-4300000D02*
X6600000Y-4300000D01*
X6600000Y-4300000D02*
X6600000Y0D01*
X600000Y-3900000D02*
G75*
G03*
X600000Y-3900000I-200000J0D01*
G01*
X600000Y-400000D02*
G75*
G03*
X600000Y-400000I-200000J0D01*
G01*
X0Y-4300000D02*
X0Y0D01*
D11*
D12*
X780000Y-1980000D02*
X820000Y-2020000D01*
X820000Y-1980000D02*
X780000Y-2020000D01*
X830000Y-2730000D02*
X870000Y-2770000D01*
X870000Y-2730000D02*
X830000Y-2770000D01*
X980000Y-3680000D02*
X1020000Y-3720000D01*
X1020000Y-3680000D02*
X980000Y-3720000D01*
X1105000Y-2540000D02*
X1145000Y-2580000D01*
X1145000Y-2540000D02*
X1105000Y-2580000D01*
X1105000Y-2655000D02*
X1145000Y-2695000D01*
X1145000Y-2655000D02*
X1105000Y-2695000D01*
X1280000Y-1980000D02*
X1320000Y-2020000D01*
X1320000Y-1980000D02*
X1280000Y-2020000D01*
X1380000Y-3605000D02*
X1420000Y-3645000D01*
X1420000Y-3605000D02*
X1380000Y-3645000D01*
X1580000Y-3055000D02*
X1620000Y-3095000D01*
X1620000Y-3055000D02*
X1580000Y-3095000D01*
X1655000Y-1080000D02*
X1695000Y-1120000D01*
X1695000Y-1080000D02*
X1655000Y-1120000D01*
X1705000Y-3055000D02*
X1745000Y-3095000D01*
X1745000Y-3055000D02*
X1705000Y-3095000D01*
X1765000Y-1930000D02*
X1805000Y-1970000D01*
X1805000Y-1930000D02*
X1765000Y-1970000D01*
X1765000Y-2130000D02*
X1805000Y-2170000D01*
X1805000Y-2130000D02*
X1765000Y-2170000D01*
X1765000Y-2330000D02*
X1805000Y-2370000D01*
X1805000Y-2330000D02*
X1765000Y-2370000D01*
X1765000Y-2530000D02*
X1805000Y-2570000D01*
X1805000Y-2530000D02*
X1765000Y-2570000D01*
X2165000Y-1930000D02*
X2205000Y-1970000D01*
X2205000Y-1930000D02*
X2165000Y-1970000D01*
X2165000Y-2130000D02*
X2205000Y-2170000D01*
X2205000Y-2130000D02*
X2165000Y-2170000D01*
X2165000Y-2330000D02*
X2205000Y-2370000D01*
X2205000Y-2330000D02*
X2165000Y-2370000D01*
X2165000Y-2530000D02*
X2205000Y-2570000D01*
X2205000Y-2530000D02*
X2165000Y-2570000D01*
X3230000Y-2930000D02*
X3270000Y-2970000D01*
X3270000Y-2930000D02*
X3230000Y-2970000D01*
X3512500Y-1855000D02*
X3552500Y-1895000D01*
X3552500Y-1855000D02*
X3512500Y-1895000D01*
X3755000Y-2992500D02*
X3795000Y-3032500D01*
X3795000Y-2992500D02*
X3755000Y-3032500D01*
X4002500Y-1855000D02*
X4042500Y-1895000D01*
X4042500Y-1855000D02*
X4002500Y-1895000D01*
X4032500Y-3405000D02*
X4072500Y-3445000D01*
X4072500Y-3405000D02*
X4032500Y-3445000D01*
X4155000Y-1692500D02*
X4195000Y-1732500D01*
X4195000Y-1692500D02*
X4155000Y-1732500D01*
X4270000Y-2980000D02*
X4310000Y-3020000D01*
X4310000Y-2980000D02*
X4270000Y-3020000D01*
X4385000Y-3300000D02*
X4425000Y-3340000D01*
X4425000Y-3300000D02*
X4385000Y-3340000D01*
X4485000Y-3400000D02*
X4525000Y-3440000D01*
X4525000Y-3400000D02*
X4485000Y-3440000D01*
X4540000Y-792500D02*
X4580000Y-832500D01*
X4580000Y-792500D02*
X4540000Y-832500D01*
X4580000Y-3205000D02*
X4620000Y-3245000D01*
X4620000Y-3205000D02*
X4580000Y-3245000D01*
X4581000Y-3080000D02*
X4621000Y-3120000D01*
X4621000Y-3080000D02*
X4581000Y-3120000D01*
X4620000Y-1742500D02*
X4660000Y-1782500D01*
X4660000Y-1742500D02*
X4620000Y-1782500D01*
X4770000Y-1740000D02*
X4810000Y-1780000D01*
X4810000Y-1740000D02*
X4770000Y-1780000D01*
X4822500Y-1855000D02*
X4862500Y-1895000D01*
X4862500Y-1855000D02*
X4822500Y-1895000D01*
X4920000Y-1470000D02*
X4960000Y-1510000D01*
X4960000Y-1470000D02*
X4920000Y-1510000D01*
X4985000Y-2575000D02*
X5025000Y-2615000D01*
X5025000Y-2575000D02*
X4985000Y-2615000D01*
X5040000Y-791250D02*
X5080000Y-831250D01*
X5080000Y-791250D02*
X5040000Y-831250D01*
X5200000Y-2360000D02*
X5240000Y-2400000D01*
X5240000Y-2360000D02*
X5200000Y-2400000D01*
X5200000Y-2790000D02*
X5240000Y-2830000D01*
X5240000Y-2790000D02*
X5200000Y-2830000D01*
X5415000Y-2570000D02*
X5455000Y-2610000D01*
X5455000Y-2570000D02*
X5415000Y-2610000D01*
X5520000Y-1350000D02*
X5560000Y-1390000D01*
X5560000Y-1350000D02*
X5520000Y-1390000D01*
X5530000Y-767500D02*
X5570000Y-807500D01*
X5570000Y-767500D02*
X5530000Y-807500D01*
X6340000Y-1030000D02*
X6380000Y-1070000D01*
X6380000Y-1030000D02*
X6340000Y-1070000D01*
D13*
X880000Y-2900000D02*
G75*
G03*
X880000Y-2900000I-30000J0D01*
G01*
X1065000Y-380000D02*
G75*
G03*
X1065000Y-380000I-30000J0D01*
G01*
X1580000Y-2900000D02*
G75*
G03*
X1580000Y-2900000I-30000J0D01*
G01*
X1730000Y-1520000D02*
G75*
G03*
X1730000Y-1520000I-30000J0D01*
G01*
X2250000Y-1080000D02*
G75*
G03*
X2250000Y-1080000I-30000J0D01*
G01*
X2255000Y-2925000D02*
G75*
G03*
X2255000Y-2925000I-30000J0D01*
G01*
X2645000Y-2675000D02*
G75*
G03*
X2645000Y-2675000I-30000J0D01*
G01*
X2855000Y-1080000D02*
G75*
G03*
X2855000Y-1080000I-30000J0D01*
G01*
X3155000Y-825000D02*
G75*
G03*
X3155000Y-825000I-30000J0D01*
G01*
X3155000Y-1750000D02*
G75*
G03*
X3155000Y-1750000I-30000J0D01*
G01*
X4005000Y-837500D02*
G75*
G03*
X4005000Y-837500I-30000J0D01*
G01*
X4655000Y-2025000D02*
G75*
G03*
X4655000Y-2025000I-30000J0D01*
G01*
X4655000Y-2925000D02*
G75*
G03*
X4655000Y-2925000I-30000J0D01*
G01*
X4840000Y-1111250D02*
G75*
G03*
X4840000Y-1111250I-30000J0D01*
G01*
X5582500Y-242500D02*
G75*
G03*
X5582500Y-242500I-30000J0D01*
G01*
X5880000Y-1862500D02*
G75*
G03*
X5880000Y-1862500I-30000J0D01*
G01*
X5880000Y-3150000D02*
G75*
G03*
X5880000Y-3150000I-30000J0D01*
G01*
X146250Y-2180000D02*
X146250Y-2240000D01*
X116250Y-2210000D02*
X176250Y-2210000D01*
D11*
X111250Y-2240000D02*
X181250Y-2240000D01*
X181250Y-2240000D02*
G75*
G03*
X181250Y-2180000I0J30000D01*
G01*
X181250Y-2180000D02*
X111250Y-2180000D01*
X111250Y-2180000D02*
G75*
G03*
X111250Y-2240000I0J-30000D01*
G01*
D13*
X146250Y-2880000D02*
X146250Y-2940000D01*
X116250Y-2910000D02*
X176250Y-2910000D01*
D11*
X181250Y-2880000D02*
X111250Y-2880000D01*
X111250Y-2880000D02*
G75*
G03*
X111250Y-2940000I0J-30000D01*
G01*
X111250Y-2940000D02*
X181250Y-2940000D01*
X181250Y-2940000D02*
G75*
G03*
X181250Y-2880000I0J30000D01*
G01*
D14*
X2228285Y-421522D02*
X2228285Y-364953D01*
X2171716Y-364953D01*
X2171716Y-421522D01*
X2228285Y-421522D01*
X2228285Y-671523D02*
X2228285Y-614954D01*
X2171716Y-614954D01*
X2171716Y-671523D01*
X2228285Y-671523D01*
D15*
X416250Y-2352500D02*
X458750Y-2310000D01*
X416250Y-2267500D01*
X373750Y-2310000D01*
X416250Y-2352500D01*
X416250Y-2852500D02*
X458750Y-2810000D01*
X416250Y-2767500D01*
X373750Y-2810000D01*
X416250Y-2852500D01*
D16*
X945000Y-3922500D02*
X1045000Y-4022500D01*
X1045000Y-3922500D02*
X945000Y-4022500D01*
X1045000Y-3972500D02*
G75*
G03*
X1045000Y-3972500I-50000J0D01*
G01*
X1199000Y-3922500D02*
X1299000Y-4022500D01*
X1299000Y-3922500D02*
X1199000Y-4022500D01*
X1299000Y-3972500D02*
G75*
G03*
X1299000Y-3972500I-50000J0D01*
G01*
X1453000Y-3922500D02*
X1553000Y-4022500D01*
X1553000Y-3922500D02*
X1453000Y-4022500D01*
X1553000Y-3972500D02*
G75*
G03*
X1553000Y-3972500I-50000J0D01*
G01*
X1707000Y-3922500D02*
X1807000Y-4022500D01*
X1807000Y-3922500D02*
X1707000Y-4022500D01*
X1807000Y-3972500D02*
G75*
G03*
X1807000Y-3972500I-50000J0D01*
G01*
X2562500Y-3922500D02*
X2662500Y-4022500D01*
X2662500Y-3922500D02*
X2562500Y-4022500D01*
X2662500Y-3972500D02*
G75*
G03*
X2662500Y-3972500I-50000J0D01*
G01*
X2816500Y-3922500D02*
X2916500Y-4022500D01*
X2916500Y-3922500D02*
X2816500Y-4022500D01*
X2916500Y-3972500D02*
G75*
G03*
X2916500Y-3972500I-50000J0D01*
G01*
X3070500Y-3922500D02*
X3170500Y-4022500D01*
X3170500Y-3922500D02*
X3070500Y-4022500D01*
X3170500Y-3972500D02*
G75*
G03*
X3170500Y-3972500I-50000J0D01*
G01*
X3200000Y-130000D02*
X3300000Y-230000D01*
X3300000Y-130000D02*
X3200000Y-230000D01*
X3300000Y-180000D02*
G75*
G03*
X3300000Y-180000I-50000J0D01*
G01*
X3324500Y-3922500D02*
X3424500Y-4022500D01*
X3424500Y-3922500D02*
X3324500Y-4022500D01*
X3424500Y-3972500D02*
G75*
G03*
X3424500Y-3972500I-50000J0D01*
G01*
X3454000Y-130000D02*
X3554000Y-230000D01*
X3554000Y-130000D02*
X3454000Y-230000D01*
X3554000Y-180000D02*
G75*
G03*
X3554000Y-180000I-50000J0D01*
G01*
X3578500Y-3922500D02*
X3678500Y-4022500D01*
X3678500Y-3922500D02*
X3578500Y-4022500D01*
X3678500Y-3972500D02*
G75*
G03*
X3678500Y-3972500I-50000J0D01*
G01*
X3708000Y-130000D02*
X3808000Y-230000D01*
X3808000Y-130000D02*
X3708000Y-230000D01*
X3808000Y-180000D02*
G75*
G03*
X3808000Y-180000I-50000J0D01*
G01*
X3832500Y-3922500D02*
X3932500Y-4022500D01*
X3932500Y-3922500D02*
X3832500Y-4022500D01*
X3932500Y-3972500D02*
G75*
G03*
X3932500Y-3972500I-50000J0D01*
G01*
X3962000Y-130000D02*
X4062000Y-230000D01*
X4062000Y-130000D02*
X3962000Y-230000D01*
X4062000Y-180000D02*
G75*
G03*
X4062000Y-180000I-50000J0D01*
G01*
X4216000Y-130000D02*
X4316000Y-230000D01*
X4316000Y-130000D02*
X4216000Y-230000D01*
X4316000Y-180000D02*
G75*
G03*
X4316000Y-180000I-50000J0D01*
G01*
X4470000Y-130000D02*
X4570000Y-230000D01*
X4570000Y-130000D02*
X4470000Y-230000D01*
X4570000Y-180000D02*
G75*
G03*
X4570000Y-180000I-50000J0D01*
G01*
X4724000Y-130000D02*
X4824000Y-230000D01*
X4824000Y-130000D02*
X4724000Y-230000D01*
X4824000Y-180000D02*
G75*
G03*
X4824000Y-180000I-50000J0D01*
G01*
X4978000Y-130000D02*
X5078000Y-230000D01*
X5078000Y-130000D02*
X4978000Y-230000D01*
X5078000Y-180000D02*
G75*
G03*
X5078000Y-180000I-50000J0D01*
G01*
D17*
X699000Y-1003000D02*
X849000Y-1153000D01*
X849000Y-1003000D02*
X699000Y-1153000D01*
X774000Y-1003000D02*
X774000Y-1153000D01*
X699000Y-1078000D02*
X849000Y-1078000D01*
X699000Y-1383000D02*
X849000Y-1533000D01*
X849000Y-1383000D02*
X699000Y-1533000D01*
X774000Y-1383000D02*
X774000Y-1533000D01*
X699000Y-1458000D02*
X849000Y-1458000D01*
D11*
X258277Y-4613984D02*
X258277Y-4413984D01*
X258277Y-4413984D02*
X305896Y-4413984D01*
X305896Y-4413984D02*
X334467Y-4423508D01*
X334467Y-4423508D02*
X353515Y-4442555D01*
X353515Y-4442555D02*
X363039Y-4461603D01*
X363039Y-4461603D02*
X372562Y-4499698D01*
X372562Y-4499698D02*
X372562Y-4528270D01*
X372562Y-4528270D02*
X363039Y-4566365D01*
X363039Y-4566365D02*
X353515Y-4585412D01*
X353515Y-4585412D02*
X334467Y-4604460D01*
X334467Y-4604460D02*
X305896Y-4613984D01*
X305896Y-4613984D02*
X258277Y-4613984D01*
X458277Y-4613984D02*
X458277Y-4480650D01*
X458277Y-4518746D02*
X467801Y-4499698D01*
X467801Y-4499698D02*
X477324Y-4490174D01*
X477324Y-4490174D02*
X496372Y-4480650D01*
X496372Y-4480650D02*
X515420Y-4480650D01*
X582086Y-4613984D02*
X582086Y-4480650D01*
X582086Y-4413984D02*
X572563Y-4423508D01*
X572563Y-4423508D02*
X582086Y-4433031D01*
X582086Y-4433031D02*
X591610Y-4423508D01*
X591610Y-4423508D02*
X582086Y-4413984D01*
X582086Y-4413984D02*
X582086Y-4433031D01*
X705896Y-4613984D02*
X686848Y-4604460D01*
X686848Y-4604460D02*
X677324Y-4585412D01*
X677324Y-4585412D02*
X677324Y-4413984D01*
X810658Y-4613984D02*
X791610Y-4604460D01*
X791610Y-4604460D02*
X782086Y-4585412D01*
X782086Y-4585412D02*
X782086Y-4413984D01*
X1039229Y-4613984D02*
X1039229Y-4413984D01*
X1039229Y-4413984D02*
X1105896Y-4556841D01*
X1105896Y-4556841D02*
X1172563Y-4413984D01*
X1172563Y-4413984D02*
X1172563Y-4613984D01*
X1353515Y-4613984D02*
X1353515Y-4509222D01*
X1353515Y-4509222D02*
X1343991Y-4490174D01*
X1343991Y-4490174D02*
X1324944Y-4480650D01*
X1324944Y-4480650D02*
X1286848Y-4480650D01*
X1286848Y-4480650D02*
X1267801Y-4490174D01*
X1353515Y-4604460D02*
X1334467Y-4613984D01*
X1334467Y-4613984D02*
X1286848Y-4613984D01*
X1286848Y-4613984D02*
X1267801Y-4604460D01*
X1267801Y-4604460D02*
X1258277Y-4585412D01*
X1258277Y-4585412D02*
X1258277Y-4566365D01*
X1258277Y-4566365D02*
X1267801Y-4547317D01*
X1267801Y-4547317D02*
X1286848Y-4537793D01*
X1286848Y-4537793D02*
X1334467Y-4537793D01*
X1334467Y-4537793D02*
X1353515Y-4528270D01*
X1448753Y-4480650D02*
X1448753Y-4680650D01*
X1448753Y-4490174D02*
X1467801Y-4480650D01*
X1467801Y-4480650D02*
X1505896Y-4480650D01*
X1505896Y-4480650D02*
X1524943Y-4490174D01*
X1524943Y-4490174D02*
X1534467Y-4499698D01*
X1534467Y-4499698D02*
X1543991Y-4518746D01*
X1543991Y-4518746D02*
X1543991Y-4575889D01*
X1543991Y-4575889D02*
X1534467Y-4594936D01*
X1534467Y-4594936D02*
X1524943Y-4604460D01*
X1524943Y-4604460D02*
X1505896Y-4613984D01*
X1505896Y-4613984D02*
X1467801Y-4613984D01*
X1467801Y-4613984D02*
X1448753Y-4604460D01*
X1629705Y-4594936D02*
X1639229Y-4604460D01*
X1639229Y-4604460D02*
X1629705Y-4613984D01*
X1629705Y-4613984D02*
X1620182Y-4604460D01*
X1620182Y-4604460D02*
X1629705Y-4594936D01*
X1629705Y-4594936D02*
X1629705Y-4613984D01*
X1629705Y-4490174D02*
X1639229Y-4499698D01*
X1639229Y-4499698D02*
X1629705Y-4509222D01*
X1629705Y-4509222D02*
X1620182Y-4499698D01*
X1620182Y-4499698D02*
X1629705Y-4490174D01*
X1629705Y-4490174D02*
X1629705Y-4509222D01*
D12*
X-42500Y-4922500D02*
X-2500Y-4962500D01*
X-2500Y-4922500D02*
X-42500Y-4962500D01*
D11*
X296372Y-4833984D02*
X315420Y-4833984D01*
X315420Y-4833984D02*
X334467Y-4843508D01*
X334467Y-4843508D02*
X343991Y-4853031D01*
X343991Y-4853031D02*
X353515Y-4872079D01*
X353515Y-4872079D02*
X363039Y-4910174D01*
X363039Y-4910174D02*
X363039Y-4957793D01*
X363039Y-4957793D02*
X353515Y-4995889D01*
X353515Y-4995889D02*
X343991Y-5014936D01*
X343991Y-5014936D02*
X334467Y-5024460D01*
X334467Y-5024460D02*
X315420Y-5033984D01*
X315420Y-5033984D02*
X296372Y-5033984D01*
X296372Y-5033984D02*
X277324Y-5024460D01*
X277324Y-5024460D02*
X267801Y-5014936D01*
X267801Y-5014936D02*
X258277Y-4995889D01*
X258277Y-4995889D02*
X248753Y-4957793D01*
X248753Y-4957793D02*
X248753Y-4910174D01*
X248753Y-4910174D02*
X258277Y-4872079D01*
X258277Y-4872079D02*
X267801Y-4853031D01*
X267801Y-4853031D02*
X277324Y-4843508D01*
X277324Y-4843508D02*
X296372Y-4833984D01*
X448753Y-5014936D02*
X458277Y-5024460D01*
X458277Y-5024460D02*
X448753Y-5033984D01*
X448753Y-5033984D02*
X439229Y-5024460D01*
X439229Y-5024460D02*
X448753Y-5014936D01*
X448753Y-5014936D02*
X448753Y-5033984D01*
X629705Y-4900650D02*
X629705Y-5033984D01*
X582086Y-4824460D02*
X534467Y-4967317D01*
X534467Y-4967317D02*
X658277Y-4967317D01*
X772562Y-4833984D02*
X791610Y-4833984D01*
X791610Y-4833984D02*
X810658Y-4843508D01*
X810658Y-4843508D02*
X820182Y-4853031D01*
X820182Y-4853031D02*
X829705Y-4872079D01*
X829705Y-4872079D02*
X839229Y-4910174D01*
X839229Y-4910174D02*
X839229Y-4957793D01*
X839229Y-4957793D02*
X829705Y-4995889D01*
X829705Y-4995889D02*
X820182Y-5014936D01*
X820182Y-5014936D02*
X810658Y-5024460D01*
X810658Y-5024460D02*
X791610Y-5033984D01*
X791610Y-5033984D02*
X772562Y-5033984D01*
X772562Y-5033984D02*
X753515Y-5024460D01*
X753515Y-5024460D02*
X743991Y-5014936D01*
X743991Y-5014936D02*
X734467Y-4995889D01*
X734467Y-4995889D02*
X724943Y-4957793D01*
X724943Y-4957793D02*
X724943Y-4910174D01*
X724943Y-4910174D02*
X734467Y-4872079D01*
X734467Y-4872079D02*
X743991Y-4853031D01*
X743991Y-4853031D02*
X753515Y-4843508D01*
X753515Y-4843508D02*
X772562Y-4833984D01*
X963039Y-4833984D02*
X982086Y-4833984D01*
X982086Y-4833984D02*
X1001134Y-4843508D01*
X1001134Y-4843508D02*
X1010658Y-4853031D01*
X1010658Y-4853031D02*
X1020182Y-4872079D01*
X1020182Y-4872079D02*
X1029705Y-4910174D01*
X1029705Y-4910174D02*
X1029705Y-4957793D01*
X1029705Y-4957793D02*
X1020182Y-4995889D01*
X1020182Y-4995889D02*
X1010658Y-5014936D01*
X1010658Y-5014936D02*
X1001134Y-5024460D01*
X1001134Y-5024460D02*
X982086Y-5033984D01*
X982086Y-5033984D02*
X963039Y-5033984D01*
X963039Y-5033984D02*
X943991Y-5024460D01*
X943991Y-5024460D02*
X934467Y-5014936D01*
X934467Y-5014936D02*
X924943Y-4995889D01*
X924943Y-4995889D02*
X915420Y-4957793D01*
X915420Y-4957793D02*
X915420Y-4910174D01*
X915420Y-4910174D02*
X924943Y-4872079D01*
X924943Y-4872079D02*
X934467Y-4853031D01*
X934467Y-4853031D02*
X943991Y-4843508D01*
X943991Y-4843508D02*
X963039Y-4833984D01*
X1115420Y-5033984D02*
X1115420Y-4900650D01*
X1115420Y-4919698D02*
X1124944Y-4910174D01*
X1124944Y-4910174D02*
X1143991Y-4900650D01*
X1143991Y-4900650D02*
X1172563Y-4900650D01*
X1172563Y-4900650D02*
X1191610Y-4910174D01*
X1191610Y-4910174D02*
X1201134Y-4929222D01*
X1201134Y-4929222D02*
X1201134Y-5033984D01*
X1201134Y-4929222D02*
X1210658Y-4910174D01*
X1210658Y-4910174D02*
X1229705Y-4900650D01*
X1229705Y-4900650D02*
X1258277Y-4900650D01*
X1258277Y-4900650D02*
X1277325Y-4910174D01*
X1277325Y-4910174D02*
X1286848Y-4929222D01*
X1286848Y-4929222D02*
X1286848Y-5033984D01*
X1382086Y-5033984D02*
X1382086Y-4900650D01*
X1382086Y-4919698D02*
X1391610Y-4910174D01*
X1391610Y-4910174D02*
X1410658Y-4900650D01*
X1410658Y-4900650D02*
X1439229Y-4900650D01*
X1439229Y-4900650D02*
X1458277Y-4910174D01*
X1458277Y-4910174D02*
X1467801Y-4929222D01*
X1467801Y-4929222D02*
X1467801Y-5033984D01*
X1467801Y-4929222D02*
X1477324Y-4910174D01*
X1477324Y-4910174D02*
X1496372Y-4900650D01*
X1496372Y-4900650D02*
X1524943Y-4900650D01*
X1524943Y-4900650D02*
X1543991Y-4910174D01*
X1543991Y-4910174D02*
X1553515Y-4929222D01*
X1553515Y-4929222D02*
X1553515Y-5033984D01*
X1943991Y-4824460D02*
X1772563Y-5081603D01*
X2201134Y-4833984D02*
X2220182Y-4833984D01*
X2220182Y-4833984D02*
X2239229Y-4843508D01*
X2239229Y-4843508D02*
X2248753Y-4853031D01*
X2248753Y-4853031D02*
X2258277Y-4872079D01*
X2258277Y-4872079D02*
X2267801Y-4910174D01*
X2267801Y-4910174D02*
X2267801Y-4957793D01*
X2267801Y-4957793D02*
X2258277Y-4995889D01*
X2258277Y-4995889D02*
X2248753Y-5014936D01*
X2248753Y-5014936D02*
X2239229Y-5024460D01*
X2239229Y-5024460D02*
X2220182Y-5033984D01*
X2220182Y-5033984D02*
X2201134Y-5033984D01*
X2201134Y-5033984D02*
X2182087Y-5024460D01*
X2182087Y-5024460D02*
X2172563Y-5014936D01*
X2172563Y-5014936D02*
X2163039Y-4995889D01*
X2163039Y-4995889D02*
X2153515Y-4957793D01*
X2153515Y-4957793D02*
X2153515Y-4910174D01*
X2153515Y-4910174D02*
X2163039Y-4872079D01*
X2163039Y-4872079D02*
X2172563Y-4853031D01*
X2172563Y-4853031D02*
X2182087Y-4843508D01*
X2182087Y-4843508D02*
X2201134Y-4833984D01*
X2353515Y-5014936D02*
X2363039Y-5024460D01*
X2363039Y-5024460D02*
X2353515Y-5033984D01*
X2353515Y-5033984D02*
X2343991Y-5024460D01*
X2343991Y-5024460D02*
X2353515Y-5014936D01*
X2353515Y-5014936D02*
X2353515Y-5033984D01*
X2486848Y-4833984D02*
X2505896Y-4833984D01*
X2505896Y-4833984D02*
X2524944Y-4843508D01*
X2524944Y-4843508D02*
X2534468Y-4853031D01*
X2534468Y-4853031D02*
X2543991Y-4872079D01*
X2543991Y-4872079D02*
X2553515Y-4910174D01*
X2553515Y-4910174D02*
X2553515Y-4957793D01*
X2553515Y-4957793D02*
X2543991Y-4995889D01*
X2543991Y-4995889D02*
X2534468Y-5014936D01*
X2534468Y-5014936D02*
X2524944Y-5024460D01*
X2524944Y-5024460D02*
X2505896Y-5033984D01*
X2505896Y-5033984D02*
X2486848Y-5033984D01*
X2486848Y-5033984D02*
X2467801Y-5024460D01*
X2467801Y-5024460D02*
X2458277Y-5014936D01*
X2458277Y-5014936D02*
X2448753Y-4995889D01*
X2448753Y-4995889D02*
X2439229Y-4957793D01*
X2439229Y-4957793D02*
X2439229Y-4910174D01*
X2439229Y-4910174D02*
X2448753Y-4872079D01*
X2448753Y-4872079D02*
X2458277Y-4853031D01*
X2458277Y-4853031D02*
X2467801Y-4843508D01*
X2467801Y-4843508D02*
X2486848Y-4833984D01*
X2743991Y-5033984D02*
X2629706Y-5033984D01*
X2686848Y-5033984D02*
X2686848Y-4833984D01*
X2686848Y-4833984D02*
X2667801Y-4862555D01*
X2667801Y-4862555D02*
X2648753Y-4881603D01*
X2648753Y-4881603D02*
X2629706Y-4891127D01*
X2924944Y-4833984D02*
X2829706Y-4833984D01*
X2829706Y-4833984D02*
X2820182Y-4929222D01*
X2820182Y-4929222D02*
X2829706Y-4919698D01*
X2829706Y-4919698D02*
X2848753Y-4910174D01*
X2848753Y-4910174D02*
X2896372Y-4910174D01*
X2896372Y-4910174D02*
X2915420Y-4919698D01*
X2915420Y-4919698D02*
X2924944Y-4929222D01*
X2924944Y-4929222D02*
X2934467Y-4948270D01*
X2934467Y-4948270D02*
X2934467Y-4995889D01*
X2934467Y-4995889D02*
X2924944Y-5014936D01*
X2924944Y-5014936D02*
X2915420Y-5024460D01*
X2915420Y-5024460D02*
X2896372Y-5033984D01*
X2896372Y-5033984D02*
X2848753Y-5033984D01*
X2848753Y-5033984D02*
X2829706Y-5024460D01*
X2829706Y-5024460D02*
X2820182Y-5014936D01*
X3001134Y-4833984D02*
X3134467Y-4833984D01*
X3134467Y-4833984D02*
X3048753Y-5033984D01*
X3201134Y-4833984D02*
X3201134Y-4872079D01*
X3277325Y-4833984D02*
X3277325Y-4872079D01*
X3572563Y-5110174D02*
X3563039Y-5100650D01*
X3563039Y-5100650D02*
X3543991Y-5072079D01*
X3543991Y-5072079D02*
X3534468Y-5053031D01*
X3534468Y-5053031D02*
X3524944Y-5024460D01*
X3524944Y-5024460D02*
X3515420Y-4976841D01*
X3515420Y-4976841D02*
X3515420Y-4938746D01*
X3515420Y-4938746D02*
X3524944Y-4891127D01*
X3524944Y-4891127D02*
X3534468Y-4862555D01*
X3534468Y-4862555D02*
X3543991Y-4843508D01*
X3543991Y-4843508D02*
X3563039Y-4814936D01*
X3563039Y-4814936D02*
X3572563Y-4805412D01*
X3734468Y-4900650D02*
X3734468Y-5033984D01*
X3686848Y-4824460D02*
X3639229Y-4967317D01*
X3639229Y-4967317D02*
X3763039Y-4967317D01*
X3829706Y-4853031D02*
X3839229Y-4843508D01*
X3839229Y-4843508D02*
X3858277Y-4833984D01*
X3858277Y-4833984D02*
X3905896Y-4833984D01*
X3905896Y-4833984D02*
X3924944Y-4843508D01*
X3924944Y-4843508D02*
X3934468Y-4853031D01*
X3934468Y-4853031D02*
X3943991Y-4872079D01*
X3943991Y-4872079D02*
X3943991Y-4891127D01*
X3943991Y-4891127D02*
X3934468Y-4919698D01*
X3934468Y-4919698D02*
X3820182Y-5033984D01*
X3820182Y-5033984D02*
X3943991Y-5033984D01*
X4182087Y-5033984D02*
X4182087Y-4833984D01*
X4267801Y-5033984D02*
X4267801Y-4929222D01*
X4267801Y-4929222D02*
X4258277Y-4910174D01*
X4258277Y-4910174D02*
X4239230Y-4900650D01*
X4239230Y-4900650D02*
X4210658Y-4900650D01*
X4210658Y-4900650D02*
X4191610Y-4910174D01*
X4191610Y-4910174D02*
X4182087Y-4919698D01*
X4391611Y-5033984D02*
X4372563Y-5024460D01*
X4372563Y-5024460D02*
X4363039Y-5014936D01*
X4363039Y-5014936D02*
X4353515Y-4995889D01*
X4353515Y-4995889D02*
X4353515Y-4938746D01*
X4353515Y-4938746D02*
X4363039Y-4919698D01*
X4363039Y-4919698D02*
X4372563Y-4910174D01*
X4372563Y-4910174D02*
X4391611Y-4900650D01*
X4391611Y-4900650D02*
X4420182Y-4900650D01*
X4420182Y-4900650D02*
X4439230Y-4910174D01*
X4439230Y-4910174D02*
X4448753Y-4919698D01*
X4448753Y-4919698D02*
X4458277Y-4938746D01*
X4458277Y-4938746D02*
X4458277Y-4995889D01*
X4458277Y-4995889D02*
X4448753Y-5014936D01*
X4448753Y-5014936D02*
X4439230Y-5024460D01*
X4439230Y-5024460D02*
X4420182Y-5033984D01*
X4420182Y-5033984D02*
X4391611Y-5033984D01*
X4572563Y-5033984D02*
X4553515Y-5024460D01*
X4553515Y-5024460D02*
X4543992Y-5005412D01*
X4543992Y-5005412D02*
X4543992Y-4833984D01*
X4724944Y-5024460D02*
X4705896Y-5033984D01*
X4705896Y-5033984D02*
X4667801Y-5033984D01*
X4667801Y-5033984D02*
X4648753Y-5024460D01*
X4648753Y-5024460D02*
X4639230Y-5005412D01*
X4639230Y-5005412D02*
X4639230Y-4929222D01*
X4639230Y-4929222D02*
X4648753Y-4910174D01*
X4648753Y-4910174D02*
X4667801Y-4900650D01*
X4667801Y-4900650D02*
X4705896Y-4900650D01*
X4705896Y-4900650D02*
X4724944Y-4910174D01*
X4724944Y-4910174D02*
X4734468Y-4929222D01*
X4734468Y-4929222D02*
X4734468Y-4948270D01*
X4734468Y-4948270D02*
X4639230Y-4967317D01*
X4810658Y-5024460D02*
X4829706Y-5033984D01*
X4829706Y-5033984D02*
X4867801Y-5033984D01*
X4867801Y-5033984D02*
X4886849Y-5024460D01*
X4886849Y-5024460D02*
X4896373Y-5005412D01*
X4896373Y-5005412D02*
X4896373Y-4995889D01*
X4896373Y-4995889D02*
X4886849Y-4976841D01*
X4886849Y-4976841D02*
X4867801Y-4967317D01*
X4867801Y-4967317D02*
X4839230Y-4967317D01*
X4839230Y-4967317D02*
X4820182Y-4957793D01*
X4820182Y-4957793D02*
X4810658Y-4938746D01*
X4810658Y-4938746D02*
X4810658Y-4929222D01*
X4810658Y-4929222D02*
X4820182Y-4910174D01*
X4820182Y-4910174D02*
X4839230Y-4900650D01*
X4839230Y-4900650D02*
X4867801Y-4900650D01*
X4867801Y-4900650D02*
X4886849Y-4910174D01*
X4963039Y-5110174D02*
X4972563Y-5100650D01*
X4972563Y-5100650D02*
X4991611Y-5072079D01*
X4991611Y-5072079D02*
X5001134Y-5053031D01*
X5001134Y-5053031D02*
X5010658Y-5024460D01*
X5010658Y-5024460D02*
X5020182Y-4976841D01*
X5020182Y-4976841D02*
X5020182Y-4938746D01*
X5020182Y-4938746D02*
X5010658Y-4891127D01*
X5010658Y-4891127D02*
X5001134Y-4862555D01*
X5001134Y-4862555D02*
X4991611Y-4843508D01*
X4991611Y-4843508D02*
X4972563Y-4814936D01*
X4972563Y-4814936D02*
X4963039Y-4805412D01*
D13*
X-2500Y-5206500D02*
G75*
G03*
X-2500Y-5206500I-30000J0D01*
G01*
D11*
X296372Y-5097984D02*
X315420Y-5097984D01*
X315420Y-5097984D02*
X334467Y-5107508D01*
X334467Y-5107508D02*
X343991Y-5117031D01*
X343991Y-5117031D02*
X353515Y-5136079D01*
X353515Y-5136079D02*
X363039Y-5174174D01*
X363039Y-5174174D02*
X363039Y-5221793D01*
X363039Y-5221793D02*
X353515Y-5259889D01*
X353515Y-5259889D02*
X343991Y-5278936D01*
X343991Y-5278936D02*
X334467Y-5288460D01*
X334467Y-5288460D02*
X315420Y-5297984D01*
X315420Y-5297984D02*
X296372Y-5297984D01*
X296372Y-5297984D02*
X277324Y-5288460D01*
X277324Y-5288460D02*
X267801Y-5278936D01*
X267801Y-5278936D02*
X258277Y-5259889D01*
X258277Y-5259889D02*
X248753Y-5221793D01*
X248753Y-5221793D02*
X248753Y-5174174D01*
X248753Y-5174174D02*
X258277Y-5136079D01*
X258277Y-5136079D02*
X267801Y-5117031D01*
X267801Y-5117031D02*
X277324Y-5107508D01*
X277324Y-5107508D02*
X296372Y-5097984D01*
X448753Y-5278936D02*
X458277Y-5288460D01*
X458277Y-5288460D02*
X448753Y-5297984D01*
X448753Y-5297984D02*
X439229Y-5288460D01*
X439229Y-5288460D02*
X448753Y-5278936D01*
X448753Y-5278936D02*
X448753Y-5297984D01*
X629705Y-5097984D02*
X591610Y-5097984D01*
X591610Y-5097984D02*
X572563Y-5107508D01*
X572563Y-5107508D02*
X563039Y-5117031D01*
X563039Y-5117031D02*
X543991Y-5145603D01*
X543991Y-5145603D02*
X534467Y-5183698D01*
X534467Y-5183698D02*
X534467Y-5259889D01*
X534467Y-5259889D02*
X543991Y-5278936D01*
X543991Y-5278936D02*
X553515Y-5288460D01*
X553515Y-5288460D02*
X572563Y-5297984D01*
X572563Y-5297984D02*
X610658Y-5297984D01*
X610658Y-5297984D02*
X629705Y-5288460D01*
X629705Y-5288460D02*
X639229Y-5278936D01*
X639229Y-5278936D02*
X648753Y-5259889D01*
X648753Y-5259889D02*
X648753Y-5212270D01*
X648753Y-5212270D02*
X639229Y-5193222D01*
X639229Y-5193222D02*
X629705Y-5183698D01*
X629705Y-5183698D02*
X610658Y-5174174D01*
X610658Y-5174174D02*
X572563Y-5174174D01*
X572563Y-5174174D02*
X553515Y-5183698D01*
X553515Y-5183698D02*
X543991Y-5193222D01*
X543991Y-5193222D02*
X534467Y-5212270D01*
X772562Y-5097984D02*
X791610Y-5097984D01*
X791610Y-5097984D02*
X810658Y-5107508D01*
X810658Y-5107508D02*
X820182Y-5117031D01*
X820182Y-5117031D02*
X829705Y-5136079D01*
X829705Y-5136079D02*
X839229Y-5174174D01*
X839229Y-5174174D02*
X839229Y-5221793D01*
X839229Y-5221793D02*
X829705Y-5259889D01*
X829705Y-5259889D02*
X820182Y-5278936D01*
X820182Y-5278936D02*
X810658Y-5288460D01*
X810658Y-5288460D02*
X791610Y-5297984D01*
X791610Y-5297984D02*
X772562Y-5297984D01*
X772562Y-5297984D02*
X753515Y-5288460D01*
X753515Y-5288460D02*
X743991Y-5278936D01*
X743991Y-5278936D02*
X734467Y-5259889D01*
X734467Y-5259889D02*
X724943Y-5221793D01*
X724943Y-5221793D02*
X724943Y-5174174D01*
X724943Y-5174174D02*
X734467Y-5136079D01*
X734467Y-5136079D02*
X743991Y-5117031D01*
X743991Y-5117031D02*
X753515Y-5107508D01*
X753515Y-5107508D02*
X772562Y-5097984D01*
X963039Y-5097984D02*
X982086Y-5097984D01*
X982086Y-5097984D02*
X1001134Y-5107508D01*
X1001134Y-5107508D02*
X1010658Y-5117031D01*
X1010658Y-5117031D02*
X1020182Y-5136079D01*
X1020182Y-5136079D02*
X1029705Y-5174174D01*
X1029705Y-5174174D02*
X1029705Y-5221793D01*
X1029705Y-5221793D02*
X1020182Y-5259889D01*
X1020182Y-5259889D02*
X1010658Y-5278936D01*
X1010658Y-5278936D02*
X1001134Y-5288460D01*
X1001134Y-5288460D02*
X982086Y-5297984D01*
X982086Y-5297984D02*
X963039Y-5297984D01*
X963039Y-5297984D02*
X943991Y-5288460D01*
X943991Y-5288460D02*
X934467Y-5278936D01*
X934467Y-5278936D02*
X924943Y-5259889D01*
X924943Y-5259889D02*
X915420Y-5221793D01*
X915420Y-5221793D02*
X915420Y-5174174D01*
X915420Y-5174174D02*
X924943Y-5136079D01*
X924943Y-5136079D02*
X934467Y-5117031D01*
X934467Y-5117031D02*
X943991Y-5107508D01*
X943991Y-5107508D02*
X963039Y-5097984D01*
X1115420Y-5297984D02*
X1115420Y-5164650D01*
X1115420Y-5183698D02*
X1124944Y-5174174D01*
X1124944Y-5174174D02*
X1143991Y-5164650D01*
X1143991Y-5164650D02*
X1172563Y-5164650D01*
X1172563Y-5164650D02*
X1191610Y-5174174D01*
X1191610Y-5174174D02*
X1201134Y-5193222D01*
X1201134Y-5193222D02*
X1201134Y-5297984D01*
X1201134Y-5193222D02*
X1210658Y-5174174D01*
X1210658Y-5174174D02*
X1229705Y-5164650D01*
X1229705Y-5164650D02*
X1258277Y-5164650D01*
X1258277Y-5164650D02*
X1277325Y-5174174D01*
X1277325Y-5174174D02*
X1286848Y-5193222D01*
X1286848Y-5193222D02*
X1286848Y-5297984D01*
X1382086Y-5297984D02*
X1382086Y-5164650D01*
X1382086Y-5183698D02*
X1391610Y-5174174D01*
X1391610Y-5174174D02*
X1410658Y-5164650D01*
X1410658Y-5164650D02*
X1439229Y-5164650D01*
X1439229Y-5164650D02*
X1458277Y-5174174D01*
X1458277Y-5174174D02*
X1467801Y-5193222D01*
X1467801Y-5193222D02*
X1467801Y-5297984D01*
X1467801Y-5193222D02*
X1477324Y-5174174D01*
X1477324Y-5174174D02*
X1496372Y-5164650D01*
X1496372Y-5164650D02*
X1524943Y-5164650D01*
X1524943Y-5164650D02*
X1543991Y-5174174D01*
X1543991Y-5174174D02*
X1553515Y-5193222D01*
X1553515Y-5193222D02*
X1553515Y-5297984D01*
X1943991Y-5088460D02*
X1772563Y-5345603D01*
X2201134Y-5097984D02*
X2220182Y-5097984D01*
X2220182Y-5097984D02*
X2239229Y-5107508D01*
X2239229Y-5107508D02*
X2248753Y-5117031D01*
X2248753Y-5117031D02*
X2258277Y-5136079D01*
X2258277Y-5136079D02*
X2267801Y-5174174D01*
X2267801Y-5174174D02*
X2267801Y-5221793D01*
X2267801Y-5221793D02*
X2258277Y-5259889D01*
X2258277Y-5259889D02*
X2248753Y-5278936D01*
X2248753Y-5278936D02*
X2239229Y-5288460D01*
X2239229Y-5288460D02*
X2220182Y-5297984D01*
X2220182Y-5297984D02*
X2201134Y-5297984D01*
X2201134Y-5297984D02*
X2182087Y-5288460D01*
X2182087Y-5288460D02*
X2172563Y-5278936D01*
X2172563Y-5278936D02*
X2163039Y-5259889D01*
X2163039Y-5259889D02*
X2153515Y-5221793D01*
X2153515Y-5221793D02*
X2153515Y-5174174D01*
X2153515Y-5174174D02*
X2163039Y-5136079D01*
X2163039Y-5136079D02*
X2172563Y-5117031D01*
X2172563Y-5117031D02*
X2182087Y-5107508D01*
X2182087Y-5107508D02*
X2201134Y-5097984D01*
X2353515Y-5278936D02*
X2363039Y-5288460D01*
X2363039Y-5288460D02*
X2353515Y-5297984D01*
X2353515Y-5297984D02*
X2343991Y-5288460D01*
X2343991Y-5288460D02*
X2353515Y-5278936D01*
X2353515Y-5278936D02*
X2353515Y-5297984D01*
X2486848Y-5097984D02*
X2505896Y-5097984D01*
X2505896Y-5097984D02*
X2524944Y-5107508D01*
X2524944Y-5107508D02*
X2534468Y-5117031D01*
X2534468Y-5117031D02*
X2543991Y-5136079D01*
X2543991Y-5136079D02*
X2553515Y-5174174D01*
X2553515Y-5174174D02*
X2553515Y-5221793D01*
X2553515Y-5221793D02*
X2543991Y-5259889D01*
X2543991Y-5259889D02*
X2534468Y-5278936D01*
X2534468Y-5278936D02*
X2524944Y-5288460D01*
X2524944Y-5288460D02*
X2505896Y-5297984D01*
X2505896Y-5297984D02*
X2486848Y-5297984D01*
X2486848Y-5297984D02*
X2467801Y-5288460D01*
X2467801Y-5288460D02*
X2458277Y-5278936D01*
X2458277Y-5278936D02*
X2448753Y-5259889D01*
X2448753Y-5259889D02*
X2439229Y-5221793D01*
X2439229Y-5221793D02*
X2439229Y-5174174D01*
X2439229Y-5174174D02*
X2448753Y-5136079D01*
X2448753Y-5136079D02*
X2458277Y-5117031D01*
X2458277Y-5117031D02*
X2467801Y-5107508D01*
X2467801Y-5107508D02*
X2486848Y-5097984D01*
X2629706Y-5117031D02*
X2639229Y-5107508D01*
X2639229Y-5107508D02*
X2658277Y-5097984D01*
X2658277Y-5097984D02*
X2705896Y-5097984D01*
X2705896Y-5097984D02*
X2724944Y-5107508D01*
X2724944Y-5107508D02*
X2734468Y-5117031D01*
X2734468Y-5117031D02*
X2743991Y-5136079D01*
X2743991Y-5136079D02*
X2743991Y-5155127D01*
X2743991Y-5155127D02*
X2734468Y-5183698D01*
X2734468Y-5183698D02*
X2620182Y-5297984D01*
X2620182Y-5297984D02*
X2743991Y-5297984D01*
X2810658Y-5097984D02*
X2934467Y-5097984D01*
X2934467Y-5097984D02*
X2867801Y-5174174D01*
X2867801Y-5174174D02*
X2896372Y-5174174D01*
X2896372Y-5174174D02*
X2915420Y-5183698D01*
X2915420Y-5183698D02*
X2924944Y-5193222D01*
X2924944Y-5193222D02*
X2934467Y-5212270D01*
X2934467Y-5212270D02*
X2934467Y-5259889D01*
X2934467Y-5259889D02*
X2924944Y-5278936D01*
X2924944Y-5278936D02*
X2915420Y-5288460D01*
X2915420Y-5288460D02*
X2896372Y-5297984D01*
X2896372Y-5297984D02*
X2839229Y-5297984D01*
X2839229Y-5297984D02*
X2820182Y-5288460D01*
X2820182Y-5288460D02*
X2810658Y-5278936D01*
X3105896Y-5097984D02*
X3067801Y-5097984D01*
X3067801Y-5097984D02*
X3048753Y-5107508D01*
X3048753Y-5107508D02*
X3039229Y-5117031D01*
X3039229Y-5117031D02*
X3020182Y-5145603D01*
X3020182Y-5145603D02*
X3010658Y-5183698D01*
X3010658Y-5183698D02*
X3010658Y-5259889D01*
X3010658Y-5259889D02*
X3020182Y-5278936D01*
X3020182Y-5278936D02*
X3029706Y-5288460D01*
X3029706Y-5288460D02*
X3048753Y-5297984D01*
X3048753Y-5297984D02*
X3086848Y-5297984D01*
X3086848Y-5297984D02*
X3105896Y-5288460D01*
X3105896Y-5288460D02*
X3115420Y-5278936D01*
X3115420Y-5278936D02*
X3124944Y-5259889D01*
X3124944Y-5259889D02*
X3124944Y-5212270D01*
X3124944Y-5212270D02*
X3115420Y-5193222D01*
X3115420Y-5193222D02*
X3105896Y-5183698D01*
X3105896Y-5183698D02*
X3086848Y-5174174D01*
X3086848Y-5174174D02*
X3048753Y-5174174D01*
X3048753Y-5174174D02*
X3029706Y-5183698D01*
X3029706Y-5183698D02*
X3020182Y-5193222D01*
X3020182Y-5193222D02*
X3010658Y-5212270D01*
X3201134Y-5097984D02*
X3201134Y-5136079D01*
X3277325Y-5097984D02*
X3277325Y-5136079D01*
X3572563Y-5374174D02*
X3563039Y-5364650D01*
X3563039Y-5364650D02*
X3543991Y-5336079D01*
X3543991Y-5336079D02*
X3534468Y-5317031D01*
X3534468Y-5317031D02*
X3524944Y-5288460D01*
X3524944Y-5288460D02*
X3515420Y-5240841D01*
X3515420Y-5240841D02*
X3515420Y-5202746D01*
X3515420Y-5202746D02*
X3524944Y-5155127D01*
X3524944Y-5155127D02*
X3534468Y-5126555D01*
X3534468Y-5126555D02*
X3543991Y-5107508D01*
X3543991Y-5107508D02*
X3563039Y-5078936D01*
X3563039Y-5078936D02*
X3572563Y-5069412D01*
X3753515Y-5297984D02*
X3639229Y-5297984D01*
X3696372Y-5297984D02*
X3696372Y-5097984D01*
X3696372Y-5097984D02*
X3677325Y-5126555D01*
X3677325Y-5126555D02*
X3658277Y-5145603D01*
X3658277Y-5145603D02*
X3639229Y-5155127D01*
X3820182Y-5097984D02*
X3953515Y-5097984D01*
X3953515Y-5097984D02*
X3867801Y-5297984D01*
X4182087Y-5297984D02*
X4182087Y-5097984D01*
X4267801Y-5297984D02*
X4267801Y-5193222D01*
X4267801Y-5193222D02*
X4258277Y-5174174D01*
X4258277Y-5174174D02*
X4239230Y-5164650D01*
X4239230Y-5164650D02*
X4210658Y-5164650D01*
X4210658Y-5164650D02*
X4191610Y-5174174D01*
X4191610Y-5174174D02*
X4182087Y-5183698D01*
X4391611Y-5297984D02*
X4372563Y-5288460D01*
X4372563Y-5288460D02*
X4363039Y-5278936D01*
X4363039Y-5278936D02*
X4353515Y-5259889D01*
X4353515Y-5259889D02*
X4353515Y-5202746D01*
X4353515Y-5202746D02*
X4363039Y-5183698D01*
X4363039Y-5183698D02*
X4372563Y-5174174D01*
X4372563Y-5174174D02*
X4391611Y-5164650D01*
X4391611Y-5164650D02*
X4420182Y-5164650D01*
X4420182Y-5164650D02*
X4439230Y-5174174D01*
X4439230Y-5174174D02*
X4448753Y-5183698D01*
X4448753Y-5183698D02*
X4458277Y-5202746D01*
X4458277Y-5202746D02*
X4458277Y-5259889D01*
X4458277Y-5259889D02*
X4448753Y-5278936D01*
X4448753Y-5278936D02*
X4439230Y-5288460D01*
X4439230Y-5288460D02*
X4420182Y-5297984D01*
X4420182Y-5297984D02*
X4391611Y-5297984D01*
X4572563Y-5297984D02*
X4553515Y-5288460D01*
X4553515Y-5288460D02*
X4543992Y-5269412D01*
X4543992Y-5269412D02*
X4543992Y-5097984D01*
X4724944Y-5288460D02*
X4705896Y-5297984D01*
X4705896Y-5297984D02*
X4667801Y-5297984D01*
X4667801Y-5297984D02*
X4648753Y-5288460D01*
X4648753Y-5288460D02*
X4639230Y-5269412D01*
X4639230Y-5269412D02*
X4639230Y-5193222D01*
X4639230Y-5193222D02*
X4648753Y-5174174D01*
X4648753Y-5174174D02*
X4667801Y-5164650D01*
X4667801Y-5164650D02*
X4705896Y-5164650D01*
X4705896Y-5164650D02*
X4724944Y-5174174D01*
X4724944Y-5174174D02*
X4734468Y-5193222D01*
X4734468Y-5193222D02*
X4734468Y-5212270D01*
X4734468Y-5212270D02*
X4639230Y-5231317D01*
X4810658Y-5288460D02*
X4829706Y-5297984D01*
X4829706Y-5297984D02*
X4867801Y-5297984D01*
X4867801Y-5297984D02*
X4886849Y-5288460D01*
X4886849Y-5288460D02*
X4896373Y-5269412D01*
X4896373Y-5269412D02*
X4896373Y-5259889D01*
X4896373Y-5259889D02*
X4886849Y-5240841D01*
X4886849Y-5240841D02*
X4867801Y-5231317D01*
X4867801Y-5231317D02*
X4839230Y-5231317D01*
X4839230Y-5231317D02*
X4820182Y-5221793D01*
X4820182Y-5221793D02*
X4810658Y-5202746D01*
X4810658Y-5202746D02*
X4810658Y-5193222D01*
X4810658Y-5193222D02*
X4820182Y-5174174D01*
X4820182Y-5174174D02*
X4839230Y-5164650D01*
X4839230Y-5164650D02*
X4867801Y-5164650D01*
X4867801Y-5164650D02*
X4886849Y-5174174D01*
X4963039Y-5374174D02*
X4972563Y-5364650D01*
X4972563Y-5364650D02*
X4991611Y-5336079D01*
X4991611Y-5336079D02*
X5001134Y-5317031D01*
X5001134Y-5317031D02*
X5010658Y-5288460D01*
X5010658Y-5288460D02*
X5020182Y-5240841D01*
X5020182Y-5240841D02*
X5020182Y-5202746D01*
X5020182Y-5202746D02*
X5010658Y-5155127D01*
X5010658Y-5155127D02*
X5001134Y-5126555D01*
X5001134Y-5126555D02*
X4991611Y-5107508D01*
X4991611Y-5107508D02*
X4972563Y-5078936D01*
X4972563Y-5078936D02*
X4963039Y-5069412D01*
D13*
X-32500Y-5440500D02*
X-32500Y-5500500D01*
X-62500Y-5470500D02*
X-2500Y-5470500D01*
D11*
X296372Y-5361984D02*
X315420Y-5361984D01*
X315420Y-5361984D02*
X334467Y-5371508D01*
X334467Y-5371508D02*
X343991Y-5381031D01*
X343991Y-5381031D02*
X353515Y-5400079D01*
X353515Y-5400079D02*
X363039Y-5438174D01*
X363039Y-5438174D02*
X363039Y-5485793D01*
X363039Y-5485793D02*
X353515Y-5523889D01*
X353515Y-5523889D02*
X343991Y-5542936D01*
X343991Y-5542936D02*
X334467Y-5552460D01*
X334467Y-5552460D02*
X315420Y-5561984D01*
X315420Y-5561984D02*
X296372Y-5561984D01*
X296372Y-5561984D02*
X277324Y-5552460D01*
X277324Y-5552460D02*
X267801Y-5542936D01*
X267801Y-5542936D02*
X258277Y-5523889D01*
X258277Y-5523889D02*
X248753Y-5485793D01*
X248753Y-5485793D02*
X248753Y-5438174D01*
X248753Y-5438174D02*
X258277Y-5400079D01*
X258277Y-5400079D02*
X267801Y-5381031D01*
X267801Y-5381031D02*
X277324Y-5371508D01*
X277324Y-5371508D02*
X296372Y-5361984D01*
X448753Y-5542936D02*
X458277Y-5552460D01*
X458277Y-5552460D02*
X448753Y-5561984D01*
X448753Y-5561984D02*
X439229Y-5552460D01*
X439229Y-5552460D02*
X448753Y-5542936D01*
X448753Y-5542936D02*
X448753Y-5561984D01*
X629705Y-5361984D02*
X591610Y-5361984D01*
X591610Y-5361984D02*
X572563Y-5371508D01*
X572563Y-5371508D02*
X563039Y-5381031D01*
X563039Y-5381031D02*
X543991Y-5409603D01*
X543991Y-5409603D02*
X534467Y-5447698D01*
X534467Y-5447698D02*
X534467Y-5523889D01*
X534467Y-5523889D02*
X543991Y-5542936D01*
X543991Y-5542936D02*
X553515Y-5552460D01*
X553515Y-5552460D02*
X572563Y-5561984D01*
X572563Y-5561984D02*
X610658Y-5561984D01*
X610658Y-5561984D02*
X629705Y-5552460D01*
X629705Y-5552460D02*
X639229Y-5542936D01*
X639229Y-5542936D02*
X648753Y-5523889D01*
X648753Y-5523889D02*
X648753Y-5476270D01*
X648753Y-5476270D02*
X639229Y-5457222D01*
X639229Y-5457222D02*
X629705Y-5447698D01*
X629705Y-5447698D02*
X610658Y-5438174D01*
X610658Y-5438174D02*
X572563Y-5438174D01*
X572563Y-5438174D02*
X553515Y-5447698D01*
X553515Y-5447698D02*
X543991Y-5457222D01*
X543991Y-5457222D02*
X534467Y-5476270D01*
X772562Y-5361984D02*
X791610Y-5361984D01*
X791610Y-5361984D02*
X810658Y-5371508D01*
X810658Y-5371508D02*
X820182Y-5381031D01*
X820182Y-5381031D02*
X829705Y-5400079D01*
X829705Y-5400079D02*
X839229Y-5438174D01*
X839229Y-5438174D02*
X839229Y-5485793D01*
X839229Y-5485793D02*
X829705Y-5523889D01*
X829705Y-5523889D02*
X820182Y-5542936D01*
X820182Y-5542936D02*
X810658Y-5552460D01*
X810658Y-5552460D02*
X791610Y-5561984D01*
X791610Y-5561984D02*
X772562Y-5561984D01*
X772562Y-5561984D02*
X753515Y-5552460D01*
X753515Y-5552460D02*
X743991Y-5542936D01*
X743991Y-5542936D02*
X734467Y-5523889D01*
X734467Y-5523889D02*
X724943Y-5485793D01*
X724943Y-5485793D02*
X724943Y-5438174D01*
X724943Y-5438174D02*
X734467Y-5400079D01*
X734467Y-5400079D02*
X743991Y-5381031D01*
X743991Y-5381031D02*
X753515Y-5371508D01*
X753515Y-5371508D02*
X772562Y-5361984D01*
X963039Y-5361984D02*
X982086Y-5361984D01*
X982086Y-5361984D02*
X1001134Y-5371508D01*
X1001134Y-5371508D02*
X1010658Y-5381031D01*
X1010658Y-5381031D02*
X1020182Y-5400079D01*
X1020182Y-5400079D02*
X1029705Y-5438174D01*
X1029705Y-5438174D02*
X1029705Y-5485793D01*
X1029705Y-5485793D02*
X1020182Y-5523889D01*
X1020182Y-5523889D02*
X1010658Y-5542936D01*
X1010658Y-5542936D02*
X1001134Y-5552460D01*
X1001134Y-5552460D02*
X982086Y-5561984D01*
X982086Y-5561984D02*
X963039Y-5561984D01*
X963039Y-5561984D02*
X943991Y-5552460D01*
X943991Y-5552460D02*
X934467Y-5542936D01*
X934467Y-5542936D02*
X924943Y-5523889D01*
X924943Y-5523889D02*
X915420Y-5485793D01*
X915420Y-5485793D02*
X915420Y-5438174D01*
X915420Y-5438174D02*
X924943Y-5400079D01*
X924943Y-5400079D02*
X934467Y-5381031D01*
X934467Y-5381031D02*
X943991Y-5371508D01*
X943991Y-5371508D02*
X963039Y-5361984D01*
X1115420Y-5561984D02*
X1115420Y-5428650D01*
X1115420Y-5447698D02*
X1124944Y-5438174D01*
X1124944Y-5438174D02*
X1143991Y-5428650D01*
X1143991Y-5428650D02*
X1172563Y-5428650D01*
X1172563Y-5428650D02*
X1191610Y-5438174D01*
X1191610Y-5438174D02*
X1201134Y-5457222D01*
X1201134Y-5457222D02*
X1201134Y-5561984D01*
X1201134Y-5457222D02*
X1210658Y-5438174D01*
X1210658Y-5438174D02*
X1229705Y-5428650D01*
X1229705Y-5428650D02*
X1258277Y-5428650D01*
X1258277Y-5428650D02*
X1277325Y-5438174D01*
X1277325Y-5438174D02*
X1286848Y-5457222D01*
X1286848Y-5457222D02*
X1286848Y-5561984D01*
X1382086Y-5561984D02*
X1382086Y-5428650D01*
X1382086Y-5447698D02*
X1391610Y-5438174D01*
X1391610Y-5438174D02*
X1410658Y-5428650D01*
X1410658Y-5428650D02*
X1439229Y-5428650D01*
X1439229Y-5428650D02*
X1458277Y-5438174D01*
X1458277Y-5438174D02*
X1467801Y-5457222D01*
X1467801Y-5457222D02*
X1467801Y-5561984D01*
X1467801Y-5457222D02*
X1477324Y-5438174D01*
X1477324Y-5438174D02*
X1496372Y-5428650D01*
X1496372Y-5428650D02*
X1524943Y-5428650D01*
X1524943Y-5428650D02*
X1543991Y-5438174D01*
X1543991Y-5438174D02*
X1553515Y-5457222D01*
X1553515Y-5457222D02*
X1553515Y-5561984D01*
X1943991Y-5352460D02*
X1772563Y-5609603D01*
X2201134Y-5361984D02*
X2220182Y-5361984D01*
X2220182Y-5361984D02*
X2239229Y-5371508D01*
X2239229Y-5371508D02*
X2248753Y-5381031D01*
X2248753Y-5381031D02*
X2258277Y-5400079D01*
X2258277Y-5400079D02*
X2267801Y-5438174D01*
X2267801Y-5438174D02*
X2267801Y-5485793D01*
X2267801Y-5485793D02*
X2258277Y-5523889D01*
X2258277Y-5523889D02*
X2248753Y-5542936D01*
X2248753Y-5542936D02*
X2239229Y-5552460D01*
X2239229Y-5552460D02*
X2220182Y-5561984D01*
X2220182Y-5561984D02*
X2201134Y-5561984D01*
X2201134Y-5561984D02*
X2182087Y-5552460D01*
X2182087Y-5552460D02*
X2172563Y-5542936D01*
X2172563Y-5542936D02*
X2163039Y-5523889D01*
X2163039Y-5523889D02*
X2153515Y-5485793D01*
X2153515Y-5485793D02*
X2153515Y-5438174D01*
X2153515Y-5438174D02*
X2163039Y-5400079D01*
X2163039Y-5400079D02*
X2172563Y-5381031D01*
X2172563Y-5381031D02*
X2182087Y-5371508D01*
X2182087Y-5371508D02*
X2201134Y-5361984D01*
X2353515Y-5542936D02*
X2363039Y-5552460D01*
X2363039Y-5552460D02*
X2353515Y-5561984D01*
X2353515Y-5561984D02*
X2343991Y-5552460D01*
X2343991Y-5552460D02*
X2353515Y-5542936D01*
X2353515Y-5542936D02*
X2353515Y-5561984D01*
X2486848Y-5361984D02*
X2505896Y-5361984D01*
X2505896Y-5361984D02*
X2524944Y-5371508D01*
X2524944Y-5371508D02*
X2534468Y-5381031D01*
X2534468Y-5381031D02*
X2543991Y-5400079D01*
X2543991Y-5400079D02*
X2553515Y-5438174D01*
X2553515Y-5438174D02*
X2553515Y-5485793D01*
X2553515Y-5485793D02*
X2543991Y-5523889D01*
X2543991Y-5523889D02*
X2534468Y-5542936D01*
X2534468Y-5542936D02*
X2524944Y-5552460D01*
X2524944Y-5552460D02*
X2505896Y-5561984D01*
X2505896Y-5561984D02*
X2486848Y-5561984D01*
X2486848Y-5561984D02*
X2467801Y-5552460D01*
X2467801Y-5552460D02*
X2458277Y-5542936D01*
X2458277Y-5542936D02*
X2448753Y-5523889D01*
X2448753Y-5523889D02*
X2439229Y-5485793D01*
X2439229Y-5485793D02*
X2439229Y-5438174D01*
X2439229Y-5438174D02*
X2448753Y-5400079D01*
X2448753Y-5400079D02*
X2458277Y-5381031D01*
X2458277Y-5381031D02*
X2467801Y-5371508D01*
X2467801Y-5371508D02*
X2486848Y-5361984D01*
X2629706Y-5381031D02*
X2639229Y-5371508D01*
X2639229Y-5371508D02*
X2658277Y-5361984D01*
X2658277Y-5361984D02*
X2705896Y-5361984D01*
X2705896Y-5361984D02*
X2724944Y-5371508D01*
X2724944Y-5371508D02*
X2734468Y-5381031D01*
X2734468Y-5381031D02*
X2743991Y-5400079D01*
X2743991Y-5400079D02*
X2743991Y-5419127D01*
X2743991Y-5419127D02*
X2734468Y-5447698D01*
X2734468Y-5447698D02*
X2620182Y-5561984D01*
X2620182Y-5561984D02*
X2743991Y-5561984D01*
X2810658Y-5361984D02*
X2934467Y-5361984D01*
X2934467Y-5361984D02*
X2867801Y-5438174D01*
X2867801Y-5438174D02*
X2896372Y-5438174D01*
X2896372Y-5438174D02*
X2915420Y-5447698D01*
X2915420Y-5447698D02*
X2924944Y-5457222D01*
X2924944Y-5457222D02*
X2934467Y-5476270D01*
X2934467Y-5476270D02*
X2934467Y-5523889D01*
X2934467Y-5523889D02*
X2924944Y-5542936D01*
X2924944Y-5542936D02*
X2915420Y-5552460D01*
X2915420Y-5552460D02*
X2896372Y-5561984D01*
X2896372Y-5561984D02*
X2839229Y-5561984D01*
X2839229Y-5561984D02*
X2820182Y-5552460D01*
X2820182Y-5552460D02*
X2810658Y-5542936D01*
X3105896Y-5361984D02*
X3067801Y-5361984D01*
X3067801Y-5361984D02*
X3048753Y-5371508D01*
X3048753Y-5371508D02*
X3039229Y-5381031D01*
X3039229Y-5381031D02*
X3020182Y-5409603D01*
X3020182Y-5409603D02*
X3010658Y-5447698D01*
X3010658Y-5447698D02*
X3010658Y-5523889D01*
X3010658Y-5523889D02*
X3020182Y-5542936D01*
X3020182Y-5542936D02*
X3029706Y-5552460D01*
X3029706Y-5552460D02*
X3048753Y-5561984D01*
X3048753Y-5561984D02*
X3086848Y-5561984D01*
X3086848Y-5561984D02*
X3105896Y-5552460D01*
X3105896Y-5552460D02*
X3115420Y-5542936D01*
X3115420Y-5542936D02*
X3124944Y-5523889D01*
X3124944Y-5523889D02*
X3124944Y-5476270D01*
X3124944Y-5476270D02*
X3115420Y-5457222D01*
X3115420Y-5457222D02*
X3105896Y-5447698D01*
X3105896Y-5447698D02*
X3086848Y-5438174D01*
X3086848Y-5438174D02*
X3048753Y-5438174D01*
X3048753Y-5438174D02*
X3029706Y-5447698D01*
X3029706Y-5447698D02*
X3020182Y-5457222D01*
X3020182Y-5457222D02*
X3010658Y-5476270D01*
X3201134Y-5361984D02*
X3201134Y-5400079D01*
X3277325Y-5361984D02*
X3277325Y-5400079D01*
X3572563Y-5638174D02*
X3563039Y-5628650D01*
X3563039Y-5628650D02*
X3543991Y-5600079D01*
X3543991Y-5600079D02*
X3534468Y-5581031D01*
X3534468Y-5581031D02*
X3524944Y-5552460D01*
X3524944Y-5552460D02*
X3515420Y-5504841D01*
X3515420Y-5504841D02*
X3515420Y-5466746D01*
X3515420Y-5466746D02*
X3524944Y-5419127D01*
X3524944Y-5419127D02*
X3534468Y-5390555D01*
X3534468Y-5390555D02*
X3543991Y-5371508D01*
X3543991Y-5371508D02*
X3563039Y-5342936D01*
X3563039Y-5342936D02*
X3572563Y-5333412D01*
X3686848Y-5361984D02*
X3705896Y-5361984D01*
X3705896Y-5361984D02*
X3724944Y-5371508D01*
X3724944Y-5371508D02*
X3734468Y-5381031D01*
X3734468Y-5381031D02*
X3743991Y-5400079D01*
X3743991Y-5400079D02*
X3753515Y-5438174D01*
X3753515Y-5438174D02*
X3753515Y-5485793D01*
X3753515Y-5485793D02*
X3743991Y-5523889D01*
X3743991Y-5523889D02*
X3734468Y-5542936D01*
X3734468Y-5542936D02*
X3724944Y-5552460D01*
X3724944Y-5552460D02*
X3705896Y-5561984D01*
X3705896Y-5561984D02*
X3686848Y-5561984D01*
X3686848Y-5561984D02*
X3667801Y-5552460D01*
X3667801Y-5552460D02*
X3658277Y-5542936D01*
X3658277Y-5542936D02*
X3648753Y-5523889D01*
X3648753Y-5523889D02*
X3639229Y-5485793D01*
X3639229Y-5485793D02*
X3639229Y-5438174D01*
X3639229Y-5438174D02*
X3648753Y-5400079D01*
X3648753Y-5400079D02*
X3658277Y-5381031D01*
X3658277Y-5381031D02*
X3667801Y-5371508D01*
X3667801Y-5371508D02*
X3686848Y-5361984D01*
X3991610Y-5561984D02*
X3991610Y-5361984D01*
X4077325Y-5561984D02*
X4077325Y-5457222D01*
X4077325Y-5457222D02*
X4067801Y-5438174D01*
X4067801Y-5438174D02*
X4048753Y-5428650D01*
X4048753Y-5428650D02*
X4020182Y-5428650D01*
X4020182Y-5428650D02*
X4001134Y-5438174D01*
X4001134Y-5438174D02*
X3991610Y-5447698D01*
X4201134Y-5561984D02*
X4182087Y-5552460D01*
X4182087Y-5552460D02*
X4172563Y-5542936D01*
X4172563Y-5542936D02*
X4163039Y-5523889D01*
X4163039Y-5523889D02*
X4163039Y-5466746D01*
X4163039Y-5466746D02*
X4172563Y-5447698D01*
X4172563Y-5447698D02*
X4182087Y-5438174D01*
X4182087Y-5438174D02*
X4201134Y-5428650D01*
X4201134Y-5428650D02*
X4229706Y-5428650D01*
X4229706Y-5428650D02*
X4248753Y-5438174D01*
X4248753Y-5438174D02*
X4258277Y-5447698D01*
X4258277Y-5447698D02*
X4267801Y-5466746D01*
X4267801Y-5466746D02*
X4267801Y-5523889D01*
X4267801Y-5523889D02*
X4258277Y-5542936D01*
X4258277Y-5542936D02*
X4248753Y-5552460D01*
X4248753Y-5552460D02*
X4229706Y-5561984D01*
X4229706Y-5561984D02*
X4201134Y-5561984D01*
X4382087Y-5561984D02*
X4363039Y-5552460D01*
X4363039Y-5552460D02*
X4353515Y-5533412D01*
X4353515Y-5533412D02*
X4353515Y-5361984D01*
X4534468Y-5552460D02*
X4515420Y-5561984D01*
X4515420Y-5561984D02*
X4477325Y-5561984D01*
X4477325Y-5561984D02*
X4458277Y-5552460D01*
X4458277Y-5552460D02*
X4448753Y-5533412D01*
X4448753Y-5533412D02*
X4448753Y-5457222D01*
X4448753Y-5457222D02*
X4458277Y-5438174D01*
X4458277Y-5438174D02*
X4477325Y-5428650D01*
X4477325Y-5428650D02*
X4515420Y-5428650D01*
X4515420Y-5428650D02*
X4534468Y-5438174D01*
X4534468Y-5438174D02*
X4543992Y-5457222D01*
X4543992Y-5457222D02*
X4543992Y-5476270D01*
X4543992Y-5476270D02*
X4448753Y-5495317D01*
X4620182Y-5552460D02*
X4639230Y-5561984D01*
X4639230Y-5561984D02*
X4677325Y-5561984D01*
X4677325Y-5561984D02*
X4696373Y-5552460D01*
X4696373Y-5552460D02*
X4705896Y-5533412D01*
X4705896Y-5533412D02*
X4705896Y-5523889D01*
X4705896Y-5523889D02*
X4696373Y-5504841D01*
X4696373Y-5504841D02*
X4677325Y-5495317D01*
X4677325Y-5495317D02*
X4648753Y-5495317D01*
X4648753Y-5495317D02*
X4629706Y-5485793D01*
X4629706Y-5485793D02*
X4620182Y-5466746D01*
X4620182Y-5466746D02*
X4620182Y-5457222D01*
X4620182Y-5457222D02*
X4629706Y-5438174D01*
X4629706Y-5438174D02*
X4648753Y-5428650D01*
X4648753Y-5428650D02*
X4677325Y-5428650D01*
X4677325Y-5428650D02*
X4696373Y-5438174D01*
X4943992Y-5485793D02*
X5096373Y-5485793D01*
X5020182Y-5561984D02*
X5020182Y-5409603D01*
X5334468Y-5381031D02*
X5343992Y-5371508D01*
X5343992Y-5371508D02*
X5363039Y-5361984D01*
X5363039Y-5361984D02*
X5410658Y-5361984D01*
X5410658Y-5361984D02*
X5429706Y-5371508D01*
X5429706Y-5371508D02*
X5439230Y-5381031D01*
X5439230Y-5381031D02*
X5448754Y-5400079D01*
X5448754Y-5400079D02*
X5448754Y-5419127D01*
X5448754Y-5419127D02*
X5439230Y-5447698D01*
X5439230Y-5447698D02*
X5324944Y-5561984D01*
X5324944Y-5561984D02*
X5448754Y-5561984D01*
X5677325Y-5552460D02*
X5696373Y-5561984D01*
X5696373Y-5561984D02*
X5734468Y-5561984D01*
X5734468Y-5561984D02*
X5753515Y-5552460D01*
X5753515Y-5552460D02*
X5763039Y-5533412D01*
X5763039Y-5533412D02*
X5763039Y-5523889D01*
X5763039Y-5523889D02*
X5753515Y-5504841D01*
X5753515Y-5504841D02*
X5734468Y-5495317D01*
X5734468Y-5495317D02*
X5705896Y-5495317D01*
X5705896Y-5495317D02*
X5686849Y-5485793D01*
X5686849Y-5485793D02*
X5677325Y-5466746D01*
X5677325Y-5466746D02*
X5677325Y-5457222D01*
X5677325Y-5457222D02*
X5686849Y-5438174D01*
X5686849Y-5438174D02*
X5705896Y-5428650D01*
X5705896Y-5428650D02*
X5734468Y-5428650D01*
X5734468Y-5428650D02*
X5753515Y-5438174D01*
X5877325Y-5561984D02*
X5858277Y-5552460D01*
X5858277Y-5552460D02*
X5848754Y-5533412D01*
X5848754Y-5533412D02*
X5848754Y-5361984D01*
X5982087Y-5561984D02*
X5963039Y-5552460D01*
X5963039Y-5552460D02*
X5953515Y-5542936D01*
X5953515Y-5542936D02*
X5943992Y-5523889D01*
X5943992Y-5523889D02*
X5943992Y-5466746D01*
X5943992Y-5466746D02*
X5953515Y-5447698D01*
X5953515Y-5447698D02*
X5963039Y-5438174D01*
X5963039Y-5438174D02*
X5982087Y-5428650D01*
X5982087Y-5428650D02*
X6010658Y-5428650D01*
X6010658Y-5428650D02*
X6029706Y-5438174D01*
X6029706Y-5438174D02*
X6039230Y-5447698D01*
X6039230Y-5447698D02*
X6048754Y-5466746D01*
X6048754Y-5466746D02*
X6048754Y-5523889D01*
X6048754Y-5523889D02*
X6039230Y-5542936D01*
X6039230Y-5542936D02*
X6029706Y-5552460D01*
X6029706Y-5552460D02*
X6010658Y-5561984D01*
X6010658Y-5561984D02*
X5982087Y-5561984D01*
X6105896Y-5428650D02*
X6182087Y-5428650D01*
X6134468Y-5361984D02*
X6134468Y-5533412D01*
X6134468Y-5533412D02*
X6143992Y-5552460D01*
X6143992Y-5552460D02*
X6163039Y-5561984D01*
X6163039Y-5561984D02*
X6182087Y-5561984D01*
X6239230Y-5552460D02*
X6258277Y-5561984D01*
X6258277Y-5561984D02*
X6296373Y-5561984D01*
X6296373Y-5561984D02*
X6315420Y-5552460D01*
X6315420Y-5552460D02*
X6324944Y-5533412D01*
X6324944Y-5533412D02*
X6324944Y-5523889D01*
X6324944Y-5523889D02*
X6315420Y-5504841D01*
X6315420Y-5504841D02*
X6296373Y-5495317D01*
X6296373Y-5495317D02*
X6267801Y-5495317D01*
X6267801Y-5495317D02*
X6248754Y-5485793D01*
X6248754Y-5485793D02*
X6239230Y-5466746D01*
X6239230Y-5466746D02*
X6239230Y-5457222D01*
X6239230Y-5457222D02*
X6248754Y-5438174D01*
X6248754Y-5438174D02*
X6267801Y-5428650D01*
X6267801Y-5428650D02*
X6296373Y-5428650D01*
X6296373Y-5428650D02*
X6315420Y-5438174D01*
X6391611Y-5638174D02*
X6401135Y-5628650D01*
X6401135Y-5628650D02*
X6420182Y-5600079D01*
X6420182Y-5600079D02*
X6429706Y-5581031D01*
X6429706Y-5581031D02*
X6439230Y-5552460D01*
X6439230Y-5552460D02*
X6448754Y-5504841D01*
X6448754Y-5504841D02*
X6448754Y-5466746D01*
X6448754Y-5466746D02*
X6439230Y-5419127D01*
X6439230Y-5419127D02*
X6429706Y-5390555D01*
X6429706Y-5390555D02*
X6420182Y-5371508D01*
X6420182Y-5371508D02*
X6401135Y-5342936D01*
X6401135Y-5342936D02*
X6391611Y-5333412D01*
D14*
X-14215Y-5762784D02*
X-14215Y-5706215D01*
X-70785Y-5706215D01*
X-70785Y-5762784D01*
X-14215Y-5762784D01*
D11*
X296372Y-5625984D02*
X315420Y-5625984D01*
X315420Y-5625984D02*
X334467Y-5635508D01*
X334467Y-5635508D02*
X343991Y-5645031D01*
X343991Y-5645031D02*
X353515Y-5664079D01*
X353515Y-5664079D02*
X363039Y-5702174D01*
X363039Y-5702174D02*
X363039Y-5749793D01*
X363039Y-5749793D02*
X353515Y-5787888D01*
X353515Y-5787888D02*
X343991Y-5806936D01*
X343991Y-5806936D02*
X334467Y-5816460D01*
X334467Y-5816460D02*
X315420Y-5825984D01*
X315420Y-5825984D02*
X296372Y-5825984D01*
X296372Y-5825984D02*
X277324Y-5816460D01*
X277324Y-5816460D02*
X267801Y-5806936D01*
X267801Y-5806936D02*
X258277Y-5787888D01*
X258277Y-5787888D02*
X248753Y-5749793D01*
X248753Y-5749793D02*
X248753Y-5702174D01*
X248753Y-5702174D02*
X258277Y-5664079D01*
X258277Y-5664079D02*
X267801Y-5645031D01*
X267801Y-5645031D02*
X277324Y-5635508D01*
X277324Y-5635508D02*
X296372Y-5625984D01*
X448753Y-5806936D02*
X458277Y-5816460D01*
X458277Y-5816460D02*
X448753Y-5825984D01*
X448753Y-5825984D02*
X439229Y-5816460D01*
X439229Y-5816460D02*
X448753Y-5806936D01*
X448753Y-5806936D02*
X448753Y-5825984D01*
X572563Y-5711698D02*
X553515Y-5702174D01*
X553515Y-5702174D02*
X543991Y-5692650D01*
X543991Y-5692650D02*
X534467Y-5673603D01*
X534467Y-5673603D02*
X534467Y-5664079D01*
X534467Y-5664079D02*
X543991Y-5645031D01*
X543991Y-5645031D02*
X553515Y-5635508D01*
X553515Y-5635508D02*
X572563Y-5625984D01*
X572563Y-5625984D02*
X610658Y-5625984D01*
X610658Y-5625984D02*
X629705Y-5635508D01*
X629705Y-5635508D02*
X639229Y-5645031D01*
X639229Y-5645031D02*
X648753Y-5664079D01*
X648753Y-5664079D02*
X648753Y-5673603D01*
X648753Y-5673603D02*
X639229Y-5692650D01*
X639229Y-5692650D02*
X629705Y-5702174D01*
X629705Y-5702174D02*
X610658Y-5711698D01*
X610658Y-5711698D02*
X572563Y-5711698D01*
X572563Y-5711698D02*
X553515Y-5721222D01*
X553515Y-5721222D02*
X543991Y-5730746D01*
X543991Y-5730746D02*
X534467Y-5749793D01*
X534467Y-5749793D02*
X534467Y-5787888D01*
X534467Y-5787888D02*
X543991Y-5806936D01*
X543991Y-5806936D02*
X553515Y-5816460D01*
X553515Y-5816460D02*
X572563Y-5825984D01*
X572563Y-5825984D02*
X610658Y-5825984D01*
X610658Y-5825984D02*
X629705Y-5816460D01*
X629705Y-5816460D02*
X639229Y-5806936D01*
X639229Y-5806936D02*
X648753Y-5787888D01*
X648753Y-5787888D02*
X648753Y-5749793D01*
X648753Y-5749793D02*
X639229Y-5730746D01*
X639229Y-5730746D02*
X629705Y-5721222D01*
X629705Y-5721222D02*
X610658Y-5711698D01*
X772562Y-5625984D02*
X791610Y-5625984D01*
X791610Y-5625984D02*
X810658Y-5635508D01*
X810658Y-5635508D02*
X820182Y-5645031D01*
X820182Y-5645031D02*
X829705Y-5664079D01*
X829705Y-5664079D02*
X839229Y-5702174D01*
X839229Y-5702174D02*
X839229Y-5749793D01*
X839229Y-5749793D02*
X829705Y-5787888D01*
X829705Y-5787888D02*
X820182Y-5806936D01*
X820182Y-5806936D02*
X810658Y-5816460D01*
X810658Y-5816460D02*
X791610Y-5825984D01*
X791610Y-5825984D02*
X772562Y-5825984D01*
X772562Y-5825984D02*
X753515Y-5816460D01*
X753515Y-5816460D02*
X743991Y-5806936D01*
X743991Y-5806936D02*
X734467Y-5787888D01*
X734467Y-5787888D02*
X724943Y-5749793D01*
X724943Y-5749793D02*
X724943Y-5702174D01*
X724943Y-5702174D02*
X734467Y-5664079D01*
X734467Y-5664079D02*
X743991Y-5645031D01*
X743991Y-5645031D02*
X753515Y-5635508D01*
X753515Y-5635508D02*
X772562Y-5625984D01*
X963039Y-5625984D02*
X982086Y-5625984D01*
X982086Y-5625984D02*
X1001134Y-5635508D01*
X1001134Y-5635508D02*
X1010658Y-5645031D01*
X1010658Y-5645031D02*
X1020182Y-5664079D01*
X1020182Y-5664079D02*
X1029705Y-5702174D01*
X1029705Y-5702174D02*
X1029705Y-5749793D01*
X1029705Y-5749793D02*
X1020182Y-5787888D01*
X1020182Y-5787888D02*
X1010658Y-5806936D01*
X1010658Y-5806936D02*
X1001134Y-5816460D01*
X1001134Y-5816460D02*
X982086Y-5825984D01*
X982086Y-5825984D02*
X963039Y-5825984D01*
X963039Y-5825984D02*
X943991Y-5816460D01*
X943991Y-5816460D02*
X934467Y-5806936D01*
X934467Y-5806936D02*
X924943Y-5787888D01*
X924943Y-5787888D02*
X915420Y-5749793D01*
X915420Y-5749793D02*
X915420Y-5702174D01*
X915420Y-5702174D02*
X924943Y-5664079D01*
X924943Y-5664079D02*
X934467Y-5645031D01*
X934467Y-5645031D02*
X943991Y-5635508D01*
X943991Y-5635508D02*
X963039Y-5625984D01*
X1115420Y-5825984D02*
X1115420Y-5692650D01*
X1115420Y-5711698D02*
X1124944Y-5702174D01*
X1124944Y-5702174D02*
X1143991Y-5692650D01*
X1143991Y-5692650D02*
X1172563Y-5692650D01*
X1172563Y-5692650D02*
X1191610Y-5702174D01*
X1191610Y-5702174D02*
X1201134Y-5721222D01*
X1201134Y-5721222D02*
X1201134Y-5825984D01*
X1201134Y-5721222D02*
X1210658Y-5702174D01*
X1210658Y-5702174D02*
X1229705Y-5692650D01*
X1229705Y-5692650D02*
X1258277Y-5692650D01*
X1258277Y-5692650D02*
X1277325Y-5702174D01*
X1277325Y-5702174D02*
X1286848Y-5721222D01*
X1286848Y-5721222D02*
X1286848Y-5825984D01*
X1382086Y-5825984D02*
X1382086Y-5692650D01*
X1382086Y-5711698D02*
X1391610Y-5702174D01*
X1391610Y-5702174D02*
X1410658Y-5692650D01*
X1410658Y-5692650D02*
X1439229Y-5692650D01*
X1439229Y-5692650D02*
X1458277Y-5702174D01*
X1458277Y-5702174D02*
X1467801Y-5721222D01*
X1467801Y-5721222D02*
X1467801Y-5825984D01*
X1467801Y-5721222D02*
X1477324Y-5702174D01*
X1477324Y-5702174D02*
X1496372Y-5692650D01*
X1496372Y-5692650D02*
X1524943Y-5692650D01*
X1524943Y-5692650D02*
X1543991Y-5702174D01*
X1543991Y-5702174D02*
X1553515Y-5721222D01*
X1553515Y-5721222D02*
X1553515Y-5825984D01*
X1943991Y-5616460D02*
X1772563Y-5873603D01*
X2201134Y-5625984D02*
X2220182Y-5625984D01*
X2220182Y-5625984D02*
X2239229Y-5635508D01*
X2239229Y-5635508D02*
X2248753Y-5645031D01*
X2248753Y-5645031D02*
X2258277Y-5664079D01*
X2258277Y-5664079D02*
X2267801Y-5702174D01*
X2267801Y-5702174D02*
X2267801Y-5749793D01*
X2267801Y-5749793D02*
X2258277Y-5787888D01*
X2258277Y-5787888D02*
X2248753Y-5806936D01*
X2248753Y-5806936D02*
X2239229Y-5816460D01*
X2239229Y-5816460D02*
X2220182Y-5825984D01*
X2220182Y-5825984D02*
X2201134Y-5825984D01*
X2201134Y-5825984D02*
X2182087Y-5816460D01*
X2182087Y-5816460D02*
X2172563Y-5806936D01*
X2172563Y-5806936D02*
X2163039Y-5787888D01*
X2163039Y-5787888D02*
X2153515Y-5749793D01*
X2153515Y-5749793D02*
X2153515Y-5702174D01*
X2153515Y-5702174D02*
X2163039Y-5664079D01*
X2163039Y-5664079D02*
X2172563Y-5645031D01*
X2172563Y-5645031D02*
X2182087Y-5635508D01*
X2182087Y-5635508D02*
X2201134Y-5625984D01*
X2353515Y-5806936D02*
X2363039Y-5816460D01*
X2363039Y-5816460D02*
X2353515Y-5825984D01*
X2353515Y-5825984D02*
X2343991Y-5816460D01*
X2343991Y-5816460D02*
X2353515Y-5806936D01*
X2353515Y-5806936D02*
X2353515Y-5825984D01*
X2486848Y-5625984D02*
X2505896Y-5625984D01*
X2505896Y-5625984D02*
X2524944Y-5635508D01*
X2524944Y-5635508D02*
X2534468Y-5645031D01*
X2534468Y-5645031D02*
X2543991Y-5664079D01*
X2543991Y-5664079D02*
X2553515Y-5702174D01*
X2553515Y-5702174D02*
X2553515Y-5749793D01*
X2553515Y-5749793D02*
X2543991Y-5787888D01*
X2543991Y-5787888D02*
X2534468Y-5806936D01*
X2534468Y-5806936D02*
X2524944Y-5816460D01*
X2524944Y-5816460D02*
X2505896Y-5825984D01*
X2505896Y-5825984D02*
X2486848Y-5825984D01*
X2486848Y-5825984D02*
X2467801Y-5816460D01*
X2467801Y-5816460D02*
X2458277Y-5806936D01*
X2458277Y-5806936D02*
X2448753Y-5787888D01*
X2448753Y-5787888D02*
X2439229Y-5749793D01*
X2439229Y-5749793D02*
X2439229Y-5702174D01*
X2439229Y-5702174D02*
X2448753Y-5664079D01*
X2448753Y-5664079D02*
X2458277Y-5645031D01*
X2458277Y-5645031D02*
X2467801Y-5635508D01*
X2467801Y-5635508D02*
X2486848Y-5625984D01*
X2620182Y-5625984D02*
X2743991Y-5625984D01*
X2743991Y-5625984D02*
X2677325Y-5702174D01*
X2677325Y-5702174D02*
X2705896Y-5702174D01*
X2705896Y-5702174D02*
X2724944Y-5711698D01*
X2724944Y-5711698D02*
X2734468Y-5721222D01*
X2734468Y-5721222D02*
X2743991Y-5740269D01*
X2743991Y-5740269D02*
X2743991Y-5787888D01*
X2743991Y-5787888D02*
X2734468Y-5806936D01*
X2734468Y-5806936D02*
X2724944Y-5816460D01*
X2724944Y-5816460D02*
X2705896Y-5825984D01*
X2705896Y-5825984D02*
X2648753Y-5825984D01*
X2648753Y-5825984D02*
X2629706Y-5816460D01*
X2629706Y-5816460D02*
X2620182Y-5806936D01*
X2934467Y-5825984D02*
X2820182Y-5825984D01*
X2877325Y-5825984D02*
X2877325Y-5625984D01*
X2877325Y-5625984D02*
X2858277Y-5654555D01*
X2858277Y-5654555D02*
X2839229Y-5673603D01*
X2839229Y-5673603D02*
X2820182Y-5683127D01*
X3115420Y-5625984D02*
X3020182Y-5625984D01*
X3020182Y-5625984D02*
X3010658Y-5721222D01*
X3010658Y-5721222D02*
X3020182Y-5711698D01*
X3020182Y-5711698D02*
X3039229Y-5702174D01*
X3039229Y-5702174D02*
X3086848Y-5702174D01*
X3086848Y-5702174D02*
X3105896Y-5711698D01*
X3105896Y-5711698D02*
X3115420Y-5721222D01*
X3115420Y-5721222D02*
X3124944Y-5740269D01*
X3124944Y-5740269D02*
X3124944Y-5787888D01*
X3124944Y-5787888D02*
X3115420Y-5806936D01*
X3115420Y-5806936D02*
X3105896Y-5816460D01*
X3105896Y-5816460D02*
X3086848Y-5825984D01*
X3086848Y-5825984D02*
X3039229Y-5825984D01*
X3039229Y-5825984D02*
X3020182Y-5816460D01*
X3020182Y-5816460D02*
X3010658Y-5806936D01*
X3201134Y-5625984D02*
X3201134Y-5664079D01*
X3277325Y-5625984D02*
X3277325Y-5664079D01*
X3572563Y-5902174D02*
X3563039Y-5892650D01*
X3563039Y-5892650D02*
X3543991Y-5864079D01*
X3543991Y-5864079D02*
X3534468Y-5845031D01*
X3534468Y-5845031D02*
X3524944Y-5816460D01*
X3524944Y-5816460D02*
X3515420Y-5768841D01*
X3515420Y-5768841D02*
X3515420Y-5730746D01*
X3515420Y-5730746D02*
X3524944Y-5683127D01*
X3524944Y-5683127D02*
X3534468Y-5654555D01*
X3534468Y-5654555D02*
X3543991Y-5635508D01*
X3543991Y-5635508D02*
X3563039Y-5606936D01*
X3563039Y-5606936D02*
X3572563Y-5597412D01*
X3639229Y-5645031D02*
X3648753Y-5635508D01*
X3648753Y-5635508D02*
X3667801Y-5625984D01*
X3667801Y-5625984D02*
X3715420Y-5625984D01*
X3715420Y-5625984D02*
X3734468Y-5635508D01*
X3734468Y-5635508D02*
X3743991Y-5645031D01*
X3743991Y-5645031D02*
X3753515Y-5664079D01*
X3753515Y-5664079D02*
X3753515Y-5683127D01*
X3753515Y-5683127D02*
X3743991Y-5711698D01*
X3743991Y-5711698D02*
X3629706Y-5825984D01*
X3629706Y-5825984D02*
X3753515Y-5825984D01*
X3991610Y-5825984D02*
X3991610Y-5625984D01*
X4077325Y-5825984D02*
X4077325Y-5721222D01*
X4077325Y-5721222D02*
X4067801Y-5702174D01*
X4067801Y-5702174D02*
X4048753Y-5692650D01*
X4048753Y-5692650D02*
X4020182Y-5692650D01*
X4020182Y-5692650D02*
X4001134Y-5702174D01*
X4001134Y-5702174D02*
X3991610Y-5711698D01*
X4201134Y-5825984D02*
X4182087Y-5816460D01*
X4182087Y-5816460D02*
X4172563Y-5806936D01*
X4172563Y-5806936D02*
X4163039Y-5787888D01*
X4163039Y-5787888D02*
X4163039Y-5730746D01*
X4163039Y-5730746D02*
X4172563Y-5711698D01*
X4172563Y-5711698D02*
X4182087Y-5702174D01*
X4182087Y-5702174D02*
X4201134Y-5692650D01*
X4201134Y-5692650D02*
X4229706Y-5692650D01*
X4229706Y-5692650D02*
X4248753Y-5702174D01*
X4248753Y-5702174D02*
X4258277Y-5711698D01*
X4258277Y-5711698D02*
X4267801Y-5730746D01*
X4267801Y-5730746D02*
X4267801Y-5787888D01*
X4267801Y-5787888D02*
X4258277Y-5806936D01*
X4258277Y-5806936D02*
X4248753Y-5816460D01*
X4248753Y-5816460D02*
X4229706Y-5825984D01*
X4229706Y-5825984D02*
X4201134Y-5825984D01*
X4382087Y-5825984D02*
X4363039Y-5816460D01*
X4363039Y-5816460D02*
X4353515Y-5797412D01*
X4353515Y-5797412D02*
X4353515Y-5625984D01*
X4534468Y-5816460D02*
X4515420Y-5825984D01*
X4515420Y-5825984D02*
X4477325Y-5825984D01*
X4477325Y-5825984D02*
X4458277Y-5816460D01*
X4458277Y-5816460D02*
X4448753Y-5797412D01*
X4448753Y-5797412D02*
X4448753Y-5721222D01*
X4448753Y-5721222D02*
X4458277Y-5702174D01*
X4458277Y-5702174D02*
X4477325Y-5692650D01*
X4477325Y-5692650D02*
X4515420Y-5692650D01*
X4515420Y-5692650D02*
X4534468Y-5702174D01*
X4534468Y-5702174D02*
X4543992Y-5721222D01*
X4543992Y-5721222D02*
X4543992Y-5740269D01*
X4543992Y-5740269D02*
X4448753Y-5759317D01*
X4620182Y-5816460D02*
X4639230Y-5825984D01*
X4639230Y-5825984D02*
X4677325Y-5825984D01*
X4677325Y-5825984D02*
X4696373Y-5816460D01*
X4696373Y-5816460D02*
X4705896Y-5797412D01*
X4705896Y-5797412D02*
X4705896Y-5787888D01*
X4705896Y-5787888D02*
X4696373Y-5768841D01*
X4696373Y-5768841D02*
X4677325Y-5759317D01*
X4677325Y-5759317D02*
X4648753Y-5759317D01*
X4648753Y-5759317D02*
X4629706Y-5749793D01*
X4629706Y-5749793D02*
X4620182Y-5730746D01*
X4620182Y-5730746D02*
X4620182Y-5721222D01*
X4620182Y-5721222D02*
X4629706Y-5702174D01*
X4629706Y-5702174D02*
X4648753Y-5692650D01*
X4648753Y-5692650D02*
X4677325Y-5692650D01*
X4677325Y-5692650D02*
X4696373Y-5702174D01*
X4772563Y-5902174D02*
X4782087Y-5892650D01*
X4782087Y-5892650D02*
X4801134Y-5864079D01*
X4801134Y-5864079D02*
X4810658Y-5845031D01*
X4810658Y-5845031D02*
X4820182Y-5816460D01*
X4820182Y-5816460D02*
X4829706Y-5768841D01*
X4829706Y-5768841D02*
X4829706Y-5730746D01*
X4829706Y-5730746D02*
X4820182Y-5683127D01*
X4820182Y-5683127D02*
X4810658Y-5654555D01*
X4810658Y-5654555D02*
X4801134Y-5635508D01*
X4801134Y-5635508D02*
X4782087Y-5606936D01*
X4782087Y-5606936D02*
X4772563Y-5597412D01*
D15*
X-45000Y-6041000D02*
X-2500Y-5998500D01*
X-45000Y-5956000D01*
X-87500Y-5998500D01*
X-45000Y-6041000D01*
D11*
X296372Y-5889984D02*
X315420Y-5889984D01*
X315420Y-5889984D02*
X334467Y-5899508D01*
X334467Y-5899508D02*
X343991Y-5909031D01*
X343991Y-5909031D02*
X353515Y-5928079D01*
X353515Y-5928079D02*
X363039Y-5966174D01*
X363039Y-5966174D02*
X363039Y-6013793D01*
X363039Y-6013793D02*
X353515Y-6051888D01*
X353515Y-6051888D02*
X343991Y-6070936D01*
X343991Y-6070936D02*
X334467Y-6080460D01*
X334467Y-6080460D02*
X315420Y-6089984D01*
X315420Y-6089984D02*
X296372Y-6089984D01*
X296372Y-6089984D02*
X277324Y-6080460D01*
X277324Y-6080460D02*
X267801Y-6070936D01*
X267801Y-6070936D02*
X258277Y-6051888D01*
X258277Y-6051888D02*
X248753Y-6013793D01*
X248753Y-6013793D02*
X248753Y-5966174D01*
X248753Y-5966174D02*
X258277Y-5928079D01*
X258277Y-5928079D02*
X267801Y-5909031D01*
X267801Y-5909031D02*
X277324Y-5899508D01*
X277324Y-5899508D02*
X296372Y-5889984D01*
X448753Y-6070936D02*
X458277Y-6080460D01*
X458277Y-6080460D02*
X448753Y-6089984D01*
X448753Y-6089984D02*
X439229Y-6080460D01*
X439229Y-6080460D02*
X448753Y-6070936D01*
X448753Y-6070936D02*
X448753Y-6089984D01*
X572563Y-5975698D02*
X553515Y-5966174D01*
X553515Y-5966174D02*
X543991Y-5956650D01*
X543991Y-5956650D02*
X534467Y-5937603D01*
X534467Y-5937603D02*
X534467Y-5928079D01*
X534467Y-5928079D02*
X543991Y-5909031D01*
X543991Y-5909031D02*
X553515Y-5899508D01*
X553515Y-5899508D02*
X572563Y-5889984D01*
X572563Y-5889984D02*
X610658Y-5889984D01*
X610658Y-5889984D02*
X629705Y-5899508D01*
X629705Y-5899508D02*
X639229Y-5909031D01*
X639229Y-5909031D02*
X648753Y-5928079D01*
X648753Y-5928079D02*
X648753Y-5937603D01*
X648753Y-5937603D02*
X639229Y-5956650D01*
X639229Y-5956650D02*
X629705Y-5966174D01*
X629705Y-5966174D02*
X610658Y-5975698D01*
X610658Y-5975698D02*
X572563Y-5975698D01*
X572563Y-5975698D02*
X553515Y-5985222D01*
X553515Y-5985222D02*
X543991Y-5994746D01*
X543991Y-5994746D02*
X534467Y-6013793D01*
X534467Y-6013793D02*
X534467Y-6051888D01*
X534467Y-6051888D02*
X543991Y-6070936D01*
X543991Y-6070936D02*
X553515Y-6080460D01*
X553515Y-6080460D02*
X572563Y-6089984D01*
X572563Y-6089984D02*
X610658Y-6089984D01*
X610658Y-6089984D02*
X629705Y-6080460D01*
X629705Y-6080460D02*
X639229Y-6070936D01*
X639229Y-6070936D02*
X648753Y-6051888D01*
X648753Y-6051888D02*
X648753Y-6013793D01*
X648753Y-6013793D02*
X639229Y-5994746D01*
X639229Y-5994746D02*
X629705Y-5985222D01*
X629705Y-5985222D02*
X610658Y-5975698D01*
X829705Y-5889984D02*
X734467Y-5889984D01*
X734467Y-5889984D02*
X724943Y-5985222D01*
X724943Y-5985222D02*
X734467Y-5975698D01*
X734467Y-5975698D02*
X753515Y-5966174D01*
X753515Y-5966174D02*
X801134Y-5966174D01*
X801134Y-5966174D02*
X820182Y-5975698D01*
X820182Y-5975698D02*
X829705Y-5985222D01*
X829705Y-5985222D02*
X839229Y-6004269D01*
X839229Y-6004269D02*
X839229Y-6051888D01*
X839229Y-6051888D02*
X829705Y-6070936D01*
X829705Y-6070936D02*
X820182Y-6080460D01*
X820182Y-6080460D02*
X801134Y-6089984D01*
X801134Y-6089984D02*
X753515Y-6089984D01*
X753515Y-6089984D02*
X734467Y-6080460D01*
X734467Y-6080460D02*
X724943Y-6070936D01*
X963039Y-5889984D02*
X982086Y-5889984D01*
X982086Y-5889984D02*
X1001134Y-5899508D01*
X1001134Y-5899508D02*
X1010658Y-5909031D01*
X1010658Y-5909031D02*
X1020182Y-5928079D01*
X1020182Y-5928079D02*
X1029705Y-5966174D01*
X1029705Y-5966174D02*
X1029705Y-6013793D01*
X1029705Y-6013793D02*
X1020182Y-6051888D01*
X1020182Y-6051888D02*
X1010658Y-6070936D01*
X1010658Y-6070936D02*
X1001134Y-6080460D01*
X1001134Y-6080460D02*
X982086Y-6089984D01*
X982086Y-6089984D02*
X963039Y-6089984D01*
X963039Y-6089984D02*
X943991Y-6080460D01*
X943991Y-6080460D02*
X934467Y-6070936D01*
X934467Y-6070936D02*
X924943Y-6051888D01*
X924943Y-6051888D02*
X915420Y-6013793D01*
X915420Y-6013793D02*
X915420Y-5966174D01*
X915420Y-5966174D02*
X924943Y-5928079D01*
X924943Y-5928079D02*
X934467Y-5909031D01*
X934467Y-5909031D02*
X943991Y-5899508D01*
X943991Y-5899508D02*
X963039Y-5889984D01*
X1115420Y-6089984D02*
X1115420Y-5956650D01*
X1115420Y-5975698D02*
X1124944Y-5966174D01*
X1124944Y-5966174D02*
X1143991Y-5956650D01*
X1143991Y-5956650D02*
X1172563Y-5956650D01*
X1172563Y-5956650D02*
X1191610Y-5966174D01*
X1191610Y-5966174D02*
X1201134Y-5985222D01*
X1201134Y-5985222D02*
X1201134Y-6089984D01*
X1201134Y-5985222D02*
X1210658Y-5966174D01*
X1210658Y-5966174D02*
X1229705Y-5956650D01*
X1229705Y-5956650D02*
X1258277Y-5956650D01*
X1258277Y-5956650D02*
X1277325Y-5966174D01*
X1277325Y-5966174D02*
X1286848Y-5985222D01*
X1286848Y-5985222D02*
X1286848Y-6089984D01*
X1382086Y-6089984D02*
X1382086Y-5956650D01*
X1382086Y-5975698D02*
X1391610Y-5966174D01*
X1391610Y-5966174D02*
X1410658Y-5956650D01*
X1410658Y-5956650D02*
X1439229Y-5956650D01*
X1439229Y-5956650D02*
X1458277Y-5966174D01*
X1458277Y-5966174D02*
X1467801Y-5985222D01*
X1467801Y-5985222D02*
X1467801Y-6089984D01*
X1467801Y-5985222D02*
X1477324Y-5966174D01*
X1477324Y-5966174D02*
X1496372Y-5956650D01*
X1496372Y-5956650D02*
X1524943Y-5956650D01*
X1524943Y-5956650D02*
X1543991Y-5966174D01*
X1543991Y-5966174D02*
X1553515Y-5985222D01*
X1553515Y-5985222D02*
X1553515Y-6089984D01*
X1943991Y-5880460D02*
X1772563Y-6137603D01*
X2201134Y-5889984D02*
X2220182Y-5889984D01*
X2220182Y-5889984D02*
X2239229Y-5899508D01*
X2239229Y-5899508D02*
X2248753Y-5909031D01*
X2248753Y-5909031D02*
X2258277Y-5928079D01*
X2258277Y-5928079D02*
X2267801Y-5966174D01*
X2267801Y-5966174D02*
X2267801Y-6013793D01*
X2267801Y-6013793D02*
X2258277Y-6051888D01*
X2258277Y-6051888D02*
X2248753Y-6070936D01*
X2248753Y-6070936D02*
X2239229Y-6080460D01*
X2239229Y-6080460D02*
X2220182Y-6089984D01*
X2220182Y-6089984D02*
X2201134Y-6089984D01*
X2201134Y-6089984D02*
X2182087Y-6080460D01*
X2182087Y-6080460D02*
X2172563Y-6070936D01*
X2172563Y-6070936D02*
X2163039Y-6051888D01*
X2163039Y-6051888D02*
X2153515Y-6013793D01*
X2153515Y-6013793D02*
X2153515Y-5966174D01*
X2153515Y-5966174D02*
X2163039Y-5928079D01*
X2163039Y-5928079D02*
X2172563Y-5909031D01*
X2172563Y-5909031D02*
X2182087Y-5899508D01*
X2182087Y-5899508D02*
X2201134Y-5889984D01*
X2353515Y-6070936D02*
X2363039Y-6080460D01*
X2363039Y-6080460D02*
X2353515Y-6089984D01*
X2353515Y-6089984D02*
X2343991Y-6080460D01*
X2343991Y-6080460D02*
X2353515Y-6070936D01*
X2353515Y-6070936D02*
X2353515Y-6089984D01*
X2486848Y-5889984D02*
X2505896Y-5889984D01*
X2505896Y-5889984D02*
X2524944Y-5899508D01*
X2524944Y-5899508D02*
X2534468Y-5909031D01*
X2534468Y-5909031D02*
X2543991Y-5928079D01*
X2543991Y-5928079D02*
X2553515Y-5966174D01*
X2553515Y-5966174D02*
X2553515Y-6013793D01*
X2553515Y-6013793D02*
X2543991Y-6051888D01*
X2543991Y-6051888D02*
X2534468Y-6070936D01*
X2534468Y-6070936D02*
X2524944Y-6080460D01*
X2524944Y-6080460D02*
X2505896Y-6089984D01*
X2505896Y-6089984D02*
X2486848Y-6089984D01*
X2486848Y-6089984D02*
X2467801Y-6080460D01*
X2467801Y-6080460D02*
X2458277Y-6070936D01*
X2458277Y-6070936D02*
X2448753Y-6051888D01*
X2448753Y-6051888D02*
X2439229Y-6013793D01*
X2439229Y-6013793D02*
X2439229Y-5966174D01*
X2439229Y-5966174D02*
X2448753Y-5928079D01*
X2448753Y-5928079D02*
X2458277Y-5909031D01*
X2458277Y-5909031D02*
X2467801Y-5899508D01*
X2467801Y-5899508D02*
X2486848Y-5889984D01*
X2620182Y-5889984D02*
X2743991Y-5889984D01*
X2743991Y-5889984D02*
X2677325Y-5966174D01*
X2677325Y-5966174D02*
X2705896Y-5966174D01*
X2705896Y-5966174D02*
X2724944Y-5975698D01*
X2724944Y-5975698D02*
X2734468Y-5985222D01*
X2734468Y-5985222D02*
X2743991Y-6004269D01*
X2743991Y-6004269D02*
X2743991Y-6051888D01*
X2743991Y-6051888D02*
X2734468Y-6070936D01*
X2734468Y-6070936D02*
X2724944Y-6080460D01*
X2724944Y-6080460D02*
X2705896Y-6089984D01*
X2705896Y-6089984D02*
X2648753Y-6089984D01*
X2648753Y-6089984D02*
X2629706Y-6080460D01*
X2629706Y-6080460D02*
X2620182Y-6070936D01*
X2810658Y-5889984D02*
X2934467Y-5889984D01*
X2934467Y-5889984D02*
X2867801Y-5966174D01*
X2867801Y-5966174D02*
X2896372Y-5966174D01*
X2896372Y-5966174D02*
X2915420Y-5975698D01*
X2915420Y-5975698D02*
X2924944Y-5985222D01*
X2924944Y-5985222D02*
X2934467Y-6004269D01*
X2934467Y-6004269D02*
X2934467Y-6051888D01*
X2934467Y-6051888D02*
X2924944Y-6070936D01*
X2924944Y-6070936D02*
X2915420Y-6080460D01*
X2915420Y-6080460D02*
X2896372Y-6089984D01*
X2896372Y-6089984D02*
X2839229Y-6089984D01*
X2839229Y-6089984D02*
X2820182Y-6080460D01*
X2820182Y-6080460D02*
X2810658Y-6070936D01*
X3115420Y-5889984D02*
X3020182Y-5889984D01*
X3020182Y-5889984D02*
X3010658Y-5985222D01*
X3010658Y-5985222D02*
X3020182Y-5975698D01*
X3020182Y-5975698D02*
X3039229Y-5966174D01*
X3039229Y-5966174D02*
X3086848Y-5966174D01*
X3086848Y-5966174D02*
X3105896Y-5975698D01*
X3105896Y-5975698D02*
X3115420Y-5985222D01*
X3115420Y-5985222D02*
X3124944Y-6004269D01*
X3124944Y-6004269D02*
X3124944Y-6051888D01*
X3124944Y-6051888D02*
X3115420Y-6070936D01*
X3115420Y-6070936D02*
X3105896Y-6080460D01*
X3105896Y-6080460D02*
X3086848Y-6089984D01*
X3086848Y-6089984D02*
X3039229Y-6089984D01*
X3039229Y-6089984D02*
X3020182Y-6080460D01*
X3020182Y-6080460D02*
X3010658Y-6070936D01*
X3201134Y-5889984D02*
X3201134Y-5928079D01*
X3277325Y-5889984D02*
X3277325Y-5928079D01*
X3572563Y-6166174D02*
X3563039Y-6156650D01*
X3563039Y-6156650D02*
X3543991Y-6128079D01*
X3543991Y-6128079D02*
X3534468Y-6109031D01*
X3534468Y-6109031D02*
X3524944Y-6080460D01*
X3524944Y-6080460D02*
X3515420Y-6032841D01*
X3515420Y-6032841D02*
X3515420Y-5994746D01*
X3515420Y-5994746D02*
X3524944Y-5947127D01*
X3524944Y-5947127D02*
X3534468Y-5918555D01*
X3534468Y-5918555D02*
X3543991Y-5899508D01*
X3543991Y-5899508D02*
X3563039Y-5870936D01*
X3563039Y-5870936D02*
X3572563Y-5861412D01*
X3639229Y-5909031D02*
X3648753Y-5899508D01*
X3648753Y-5899508D02*
X3667801Y-5889984D01*
X3667801Y-5889984D02*
X3715420Y-5889984D01*
X3715420Y-5889984D02*
X3734468Y-5899508D01*
X3734468Y-5899508D02*
X3743991Y-5909031D01*
X3743991Y-5909031D02*
X3753515Y-5928079D01*
X3753515Y-5928079D02*
X3753515Y-5947127D01*
X3753515Y-5947127D02*
X3743991Y-5975698D01*
X3743991Y-5975698D02*
X3629706Y-6089984D01*
X3629706Y-6089984D02*
X3753515Y-6089984D01*
X3991610Y-6089984D02*
X3991610Y-5889984D01*
X4077325Y-6089984D02*
X4077325Y-5985222D01*
X4077325Y-5985222D02*
X4067801Y-5966174D01*
X4067801Y-5966174D02*
X4048753Y-5956650D01*
X4048753Y-5956650D02*
X4020182Y-5956650D01*
X4020182Y-5956650D02*
X4001134Y-5966174D01*
X4001134Y-5966174D02*
X3991610Y-5975698D01*
X4201134Y-6089984D02*
X4182087Y-6080460D01*
X4182087Y-6080460D02*
X4172563Y-6070936D01*
X4172563Y-6070936D02*
X4163039Y-6051888D01*
X4163039Y-6051888D02*
X4163039Y-5994746D01*
X4163039Y-5994746D02*
X4172563Y-5975698D01*
X4172563Y-5975698D02*
X4182087Y-5966174D01*
X4182087Y-5966174D02*
X4201134Y-5956650D01*
X4201134Y-5956650D02*
X4229706Y-5956650D01*
X4229706Y-5956650D02*
X4248753Y-5966174D01*
X4248753Y-5966174D02*
X4258277Y-5975698D01*
X4258277Y-5975698D02*
X4267801Y-5994746D01*
X4267801Y-5994746D02*
X4267801Y-6051888D01*
X4267801Y-6051888D02*
X4258277Y-6070936D01*
X4258277Y-6070936D02*
X4248753Y-6080460D01*
X4248753Y-6080460D02*
X4229706Y-6089984D01*
X4229706Y-6089984D02*
X4201134Y-6089984D01*
X4382087Y-6089984D02*
X4363039Y-6080460D01*
X4363039Y-6080460D02*
X4353515Y-6061412D01*
X4353515Y-6061412D02*
X4353515Y-5889984D01*
X4534468Y-6080460D02*
X4515420Y-6089984D01*
X4515420Y-6089984D02*
X4477325Y-6089984D01*
X4477325Y-6089984D02*
X4458277Y-6080460D01*
X4458277Y-6080460D02*
X4448753Y-6061412D01*
X4448753Y-6061412D02*
X4448753Y-5985222D01*
X4448753Y-5985222D02*
X4458277Y-5966174D01*
X4458277Y-5966174D02*
X4477325Y-5956650D01*
X4477325Y-5956650D02*
X4515420Y-5956650D01*
X4515420Y-5956650D02*
X4534468Y-5966174D01*
X4534468Y-5966174D02*
X4543992Y-5985222D01*
X4543992Y-5985222D02*
X4543992Y-6004269D01*
X4543992Y-6004269D02*
X4448753Y-6023317D01*
X4620182Y-6080460D02*
X4639230Y-6089984D01*
X4639230Y-6089984D02*
X4677325Y-6089984D01*
X4677325Y-6089984D02*
X4696373Y-6080460D01*
X4696373Y-6080460D02*
X4705896Y-6061412D01*
X4705896Y-6061412D02*
X4705896Y-6051888D01*
X4705896Y-6051888D02*
X4696373Y-6032841D01*
X4696373Y-6032841D02*
X4677325Y-6023317D01*
X4677325Y-6023317D02*
X4648753Y-6023317D01*
X4648753Y-6023317D02*
X4629706Y-6013793D01*
X4629706Y-6013793D02*
X4620182Y-5994746D01*
X4620182Y-5994746D02*
X4620182Y-5985222D01*
X4620182Y-5985222D02*
X4629706Y-5966174D01*
X4629706Y-5966174D02*
X4648753Y-5956650D01*
X4648753Y-5956650D02*
X4677325Y-5956650D01*
X4677325Y-5956650D02*
X4696373Y-5966174D01*
X4772563Y-6166174D02*
X4782087Y-6156650D01*
X4782087Y-6156650D02*
X4801134Y-6128079D01*
X4801134Y-6128079D02*
X4810658Y-6109031D01*
X4810658Y-6109031D02*
X4820182Y-6080460D01*
X4820182Y-6080460D02*
X4829706Y-6032841D01*
X4829706Y-6032841D02*
X4829706Y-5994746D01*
X4829706Y-5994746D02*
X4820182Y-5947127D01*
X4820182Y-5947127D02*
X4810658Y-5918555D01*
X4810658Y-5918555D02*
X4801134Y-5899508D01*
X4801134Y-5899508D02*
X4782087Y-5870936D01*
X4782087Y-5870936D02*
X4772563Y-5861412D01*
D16*
X-102500Y-6212500D02*
X-2500Y-6312500D01*
X-2500Y-6212500D02*
X-102500Y-6312500D01*
X-2500Y-6262500D02*
G75*
G03*
X-2500Y-6262500I-50000J0D01*
G01*
D11*
X363039Y-6353984D02*
X248753Y-6353984D01*
X305896Y-6353984D02*
X305896Y-6153984D01*
X305896Y-6153984D02*
X286848Y-6182555D01*
X286848Y-6182555D02*
X267801Y-6201603D01*
X267801Y-6201603D02*
X248753Y-6211127D01*
X448753Y-6334936D02*
X458277Y-6344460D01*
X458277Y-6344460D02*
X448753Y-6353984D01*
X448753Y-6353984D02*
X439229Y-6344460D01*
X439229Y-6344460D02*
X448753Y-6334936D01*
X448753Y-6334936D02*
X448753Y-6353984D01*
X582086Y-6153984D02*
X601134Y-6153984D01*
X601134Y-6153984D02*
X620182Y-6163508D01*
X620182Y-6163508D02*
X629705Y-6173031D01*
X629705Y-6173031D02*
X639229Y-6192079D01*
X639229Y-6192079D02*
X648753Y-6230174D01*
X648753Y-6230174D02*
X648753Y-6277793D01*
X648753Y-6277793D02*
X639229Y-6315888D01*
X639229Y-6315888D02*
X629705Y-6334936D01*
X629705Y-6334936D02*
X620182Y-6344460D01*
X620182Y-6344460D02*
X601134Y-6353984D01*
X601134Y-6353984D02*
X582086Y-6353984D01*
X582086Y-6353984D02*
X563039Y-6344460D01*
X563039Y-6344460D02*
X553515Y-6334936D01*
X553515Y-6334936D02*
X543991Y-6315888D01*
X543991Y-6315888D02*
X534467Y-6277793D01*
X534467Y-6277793D02*
X534467Y-6230174D01*
X534467Y-6230174D02*
X543991Y-6192079D01*
X543991Y-6192079D02*
X553515Y-6173031D01*
X553515Y-6173031D02*
X563039Y-6163508D01*
X563039Y-6163508D02*
X582086Y-6153984D01*
X772562Y-6153984D02*
X791610Y-6153984D01*
X791610Y-6153984D02*
X810658Y-6163508D01*
X810658Y-6163508D02*
X820182Y-6173031D01*
X820182Y-6173031D02*
X829705Y-6192079D01*
X829705Y-6192079D02*
X839229Y-6230174D01*
X839229Y-6230174D02*
X839229Y-6277793D01*
X839229Y-6277793D02*
X829705Y-6315888D01*
X829705Y-6315888D02*
X820182Y-6334936D01*
X820182Y-6334936D02*
X810658Y-6344460D01*
X810658Y-6344460D02*
X791610Y-6353984D01*
X791610Y-6353984D02*
X772562Y-6353984D01*
X772562Y-6353984D02*
X753515Y-6344460D01*
X753515Y-6344460D02*
X743991Y-6334936D01*
X743991Y-6334936D02*
X734467Y-6315888D01*
X734467Y-6315888D02*
X724943Y-6277793D01*
X724943Y-6277793D02*
X724943Y-6230174D01*
X724943Y-6230174D02*
X734467Y-6192079D01*
X734467Y-6192079D02*
X743991Y-6173031D01*
X743991Y-6173031D02*
X753515Y-6163508D01*
X753515Y-6163508D02*
X772562Y-6153984D01*
X963039Y-6153984D02*
X982086Y-6153984D01*
X982086Y-6153984D02*
X1001134Y-6163508D01*
X1001134Y-6163508D02*
X1010658Y-6173031D01*
X1010658Y-6173031D02*
X1020182Y-6192079D01*
X1020182Y-6192079D02*
X1029705Y-6230174D01*
X1029705Y-6230174D02*
X1029705Y-6277793D01*
X1029705Y-6277793D02*
X1020182Y-6315888D01*
X1020182Y-6315888D02*
X1010658Y-6334936D01*
X1010658Y-6334936D02*
X1001134Y-6344460D01*
X1001134Y-6344460D02*
X982086Y-6353984D01*
X982086Y-6353984D02*
X963039Y-6353984D01*
X963039Y-6353984D02*
X943991Y-6344460D01*
X943991Y-6344460D02*
X934467Y-6334936D01*
X934467Y-6334936D02*
X924943Y-6315888D01*
X924943Y-6315888D02*
X915420Y-6277793D01*
X915420Y-6277793D02*
X915420Y-6230174D01*
X915420Y-6230174D02*
X924943Y-6192079D01*
X924943Y-6192079D02*
X934467Y-6173031D01*
X934467Y-6173031D02*
X943991Y-6163508D01*
X943991Y-6163508D02*
X963039Y-6153984D01*
X1115420Y-6353984D02*
X1115420Y-6220650D01*
X1115420Y-6239698D02*
X1124944Y-6230174D01*
X1124944Y-6230174D02*
X1143991Y-6220650D01*
X1143991Y-6220650D02*
X1172563Y-6220650D01*
X1172563Y-6220650D02*
X1191610Y-6230174D01*
X1191610Y-6230174D02*
X1201134Y-6249222D01*
X1201134Y-6249222D02*
X1201134Y-6353984D01*
X1201134Y-6249222D02*
X1210658Y-6230174D01*
X1210658Y-6230174D02*
X1229705Y-6220650D01*
X1229705Y-6220650D02*
X1258277Y-6220650D01*
X1258277Y-6220650D02*
X1277325Y-6230174D01*
X1277325Y-6230174D02*
X1286848Y-6249222D01*
X1286848Y-6249222D02*
X1286848Y-6353984D01*
X1382086Y-6353984D02*
X1382086Y-6220650D01*
X1382086Y-6239698D02*
X1391610Y-6230174D01*
X1391610Y-6230174D02*
X1410658Y-6220650D01*
X1410658Y-6220650D02*
X1439229Y-6220650D01*
X1439229Y-6220650D02*
X1458277Y-6230174D01*
X1458277Y-6230174D02*
X1467801Y-6249222D01*
X1467801Y-6249222D02*
X1467801Y-6353984D01*
X1467801Y-6249222D02*
X1477324Y-6230174D01*
X1477324Y-6230174D02*
X1496372Y-6220650D01*
X1496372Y-6220650D02*
X1524943Y-6220650D01*
X1524943Y-6220650D02*
X1543991Y-6230174D01*
X1543991Y-6230174D02*
X1553515Y-6249222D01*
X1553515Y-6249222D02*
X1553515Y-6353984D01*
X1943991Y-6144460D02*
X1772563Y-6401603D01*
X2201134Y-6153984D02*
X2220182Y-6153984D01*
X2220182Y-6153984D02*
X2239229Y-6163508D01*
X2239229Y-6163508D02*
X2248753Y-6173031D01*
X2248753Y-6173031D02*
X2258277Y-6192079D01*
X2258277Y-6192079D02*
X2267801Y-6230174D01*
X2267801Y-6230174D02*
X2267801Y-6277793D01*
X2267801Y-6277793D02*
X2258277Y-6315888D01*
X2258277Y-6315888D02*
X2248753Y-6334936D01*
X2248753Y-6334936D02*
X2239229Y-6344460D01*
X2239229Y-6344460D02*
X2220182Y-6353984D01*
X2220182Y-6353984D02*
X2201134Y-6353984D01*
X2201134Y-6353984D02*
X2182087Y-6344460D01*
X2182087Y-6344460D02*
X2172563Y-6334936D01*
X2172563Y-6334936D02*
X2163039Y-6315888D01*
X2163039Y-6315888D02*
X2153515Y-6277793D01*
X2153515Y-6277793D02*
X2153515Y-6230174D01*
X2153515Y-6230174D02*
X2163039Y-6192079D01*
X2163039Y-6192079D02*
X2172563Y-6173031D01*
X2172563Y-6173031D02*
X2182087Y-6163508D01*
X2182087Y-6163508D02*
X2201134Y-6153984D01*
X2353515Y-6334936D02*
X2363039Y-6344460D01*
X2363039Y-6344460D02*
X2353515Y-6353984D01*
X2353515Y-6353984D02*
X2343991Y-6344460D01*
X2343991Y-6344460D02*
X2353515Y-6334936D01*
X2353515Y-6334936D02*
X2353515Y-6353984D01*
X2486848Y-6153984D02*
X2505896Y-6153984D01*
X2505896Y-6153984D02*
X2524944Y-6163508D01*
X2524944Y-6163508D02*
X2534468Y-6173031D01*
X2534468Y-6173031D02*
X2543991Y-6192079D01*
X2543991Y-6192079D02*
X2553515Y-6230174D01*
X2553515Y-6230174D02*
X2553515Y-6277793D01*
X2553515Y-6277793D02*
X2543991Y-6315888D01*
X2543991Y-6315888D02*
X2534468Y-6334936D01*
X2534468Y-6334936D02*
X2524944Y-6344460D01*
X2524944Y-6344460D02*
X2505896Y-6353984D01*
X2505896Y-6353984D02*
X2486848Y-6353984D01*
X2486848Y-6353984D02*
X2467801Y-6344460D01*
X2467801Y-6344460D02*
X2458277Y-6334936D01*
X2458277Y-6334936D02*
X2448753Y-6315888D01*
X2448753Y-6315888D02*
X2439229Y-6277793D01*
X2439229Y-6277793D02*
X2439229Y-6230174D01*
X2439229Y-6230174D02*
X2448753Y-6192079D01*
X2448753Y-6192079D02*
X2458277Y-6173031D01*
X2458277Y-6173031D02*
X2467801Y-6163508D01*
X2467801Y-6163508D02*
X2486848Y-6153984D01*
X2620182Y-6153984D02*
X2743991Y-6153984D01*
X2743991Y-6153984D02*
X2677325Y-6230174D01*
X2677325Y-6230174D02*
X2705896Y-6230174D01*
X2705896Y-6230174D02*
X2724944Y-6239698D01*
X2724944Y-6239698D02*
X2734468Y-6249222D01*
X2734468Y-6249222D02*
X2743991Y-6268269D01*
X2743991Y-6268269D02*
X2743991Y-6315888D01*
X2743991Y-6315888D02*
X2734468Y-6334936D01*
X2734468Y-6334936D02*
X2724944Y-6344460D01*
X2724944Y-6344460D02*
X2705896Y-6353984D01*
X2705896Y-6353984D02*
X2648753Y-6353984D01*
X2648753Y-6353984D02*
X2629706Y-6344460D01*
X2629706Y-6344460D02*
X2620182Y-6334936D01*
X2839229Y-6353984D02*
X2877325Y-6353984D01*
X2877325Y-6353984D02*
X2896372Y-6344460D01*
X2896372Y-6344460D02*
X2905896Y-6334936D01*
X2905896Y-6334936D02*
X2924944Y-6306365D01*
X2924944Y-6306365D02*
X2934467Y-6268269D01*
X2934467Y-6268269D02*
X2934467Y-6192079D01*
X2934467Y-6192079D02*
X2924944Y-6173031D01*
X2924944Y-6173031D02*
X2915420Y-6163508D01*
X2915420Y-6163508D02*
X2896372Y-6153984D01*
X2896372Y-6153984D02*
X2858277Y-6153984D01*
X2858277Y-6153984D02*
X2839229Y-6163508D01*
X2839229Y-6163508D02*
X2829706Y-6173031D01*
X2829706Y-6173031D02*
X2820182Y-6192079D01*
X2820182Y-6192079D02*
X2820182Y-6239698D01*
X2820182Y-6239698D02*
X2829706Y-6258746D01*
X2829706Y-6258746D02*
X2839229Y-6268269D01*
X2839229Y-6268269D02*
X2858277Y-6277793D01*
X2858277Y-6277793D02*
X2896372Y-6277793D01*
X2896372Y-6277793D02*
X2915420Y-6268269D01*
X2915420Y-6268269D02*
X2924944Y-6258746D01*
X2924944Y-6258746D02*
X2934467Y-6239698D01*
X3105896Y-6220650D02*
X3105896Y-6353984D01*
X3058277Y-6144460D02*
X3010658Y-6287317D01*
X3010658Y-6287317D02*
X3134467Y-6287317D01*
X3201134Y-6153984D02*
X3201134Y-6192079D01*
X3277325Y-6153984D02*
X3277325Y-6192079D01*
X3572563Y-6430174D02*
X3563039Y-6420650D01*
X3563039Y-6420650D02*
X3543991Y-6392079D01*
X3543991Y-6392079D02*
X3534468Y-6373031D01*
X3534468Y-6373031D02*
X3524944Y-6344460D01*
X3524944Y-6344460D02*
X3515420Y-6296841D01*
X3515420Y-6296841D02*
X3515420Y-6258746D01*
X3515420Y-6258746D02*
X3524944Y-6211127D01*
X3524944Y-6211127D02*
X3534468Y-6182555D01*
X3534468Y-6182555D02*
X3543991Y-6163508D01*
X3543991Y-6163508D02*
X3563039Y-6134936D01*
X3563039Y-6134936D02*
X3572563Y-6125412D01*
X3753515Y-6353984D02*
X3639229Y-6353984D01*
X3696372Y-6353984D02*
X3696372Y-6153984D01*
X3696372Y-6153984D02*
X3677325Y-6182555D01*
X3677325Y-6182555D02*
X3658277Y-6201603D01*
X3658277Y-6201603D02*
X3639229Y-6211127D01*
X3867801Y-6239698D02*
X3848753Y-6230174D01*
X3848753Y-6230174D02*
X3839229Y-6220650D01*
X3839229Y-6220650D02*
X3829706Y-6201603D01*
X3829706Y-6201603D02*
X3829706Y-6192079D01*
X3829706Y-6192079D02*
X3839229Y-6173031D01*
X3839229Y-6173031D02*
X3848753Y-6163508D01*
X3848753Y-6163508D02*
X3867801Y-6153984D01*
X3867801Y-6153984D02*
X3905896Y-6153984D01*
X3905896Y-6153984D02*
X3924944Y-6163508D01*
X3924944Y-6163508D02*
X3934468Y-6173031D01*
X3934468Y-6173031D02*
X3943991Y-6192079D01*
X3943991Y-6192079D02*
X3943991Y-6201603D01*
X3943991Y-6201603D02*
X3934468Y-6220650D01*
X3934468Y-6220650D02*
X3924944Y-6230174D01*
X3924944Y-6230174D02*
X3905896Y-6239698D01*
X3905896Y-6239698D02*
X3867801Y-6239698D01*
X3867801Y-6239698D02*
X3848753Y-6249222D01*
X3848753Y-6249222D02*
X3839229Y-6258746D01*
X3839229Y-6258746D02*
X3829706Y-6277793D01*
X3829706Y-6277793D02*
X3829706Y-6315888D01*
X3829706Y-6315888D02*
X3839229Y-6334936D01*
X3839229Y-6334936D02*
X3848753Y-6344460D01*
X3848753Y-6344460D02*
X3867801Y-6353984D01*
X3867801Y-6353984D02*
X3905896Y-6353984D01*
X3905896Y-6353984D02*
X3924944Y-6344460D01*
X3924944Y-6344460D02*
X3934468Y-6334936D01*
X3934468Y-6334936D02*
X3943991Y-6315888D01*
X3943991Y-6315888D02*
X3943991Y-6277793D01*
X3943991Y-6277793D02*
X3934468Y-6258746D01*
X3934468Y-6258746D02*
X3924944Y-6249222D01*
X3924944Y-6249222D02*
X3905896Y-6239698D01*
X4182087Y-6353984D02*
X4182087Y-6153984D01*
X4267801Y-6353984D02*
X4267801Y-6249222D01*
X4267801Y-6249222D02*
X4258277Y-6230174D01*
X4258277Y-6230174D02*
X4239230Y-6220650D01*
X4239230Y-6220650D02*
X4210658Y-6220650D01*
X4210658Y-6220650D02*
X4191610Y-6230174D01*
X4191610Y-6230174D02*
X4182087Y-6239698D01*
X4391611Y-6353984D02*
X4372563Y-6344460D01*
X4372563Y-6344460D02*
X4363039Y-6334936D01*
X4363039Y-6334936D02*
X4353515Y-6315888D01*
X4353515Y-6315888D02*
X4353515Y-6258746D01*
X4353515Y-6258746D02*
X4363039Y-6239698D01*
X4363039Y-6239698D02*
X4372563Y-6230174D01*
X4372563Y-6230174D02*
X4391611Y-6220650D01*
X4391611Y-6220650D02*
X4420182Y-6220650D01*
X4420182Y-6220650D02*
X4439230Y-6230174D01*
X4439230Y-6230174D02*
X4448753Y-6239698D01*
X4448753Y-6239698D02*
X4458277Y-6258746D01*
X4458277Y-6258746D02*
X4458277Y-6315888D01*
X4458277Y-6315888D02*
X4448753Y-6334936D01*
X4448753Y-6334936D02*
X4439230Y-6344460D01*
X4439230Y-6344460D02*
X4420182Y-6353984D01*
X4420182Y-6353984D02*
X4391611Y-6353984D01*
X4572563Y-6353984D02*
X4553515Y-6344460D01*
X4553515Y-6344460D02*
X4543992Y-6325412D01*
X4543992Y-6325412D02*
X4543992Y-6153984D01*
X4724944Y-6344460D02*
X4705896Y-6353984D01*
X4705896Y-6353984D02*
X4667801Y-6353984D01*
X4667801Y-6353984D02*
X4648753Y-6344460D01*
X4648753Y-6344460D02*
X4639230Y-6325412D01*
X4639230Y-6325412D02*
X4639230Y-6249222D01*
X4639230Y-6249222D02*
X4648753Y-6230174D01*
X4648753Y-6230174D02*
X4667801Y-6220650D01*
X4667801Y-6220650D02*
X4705896Y-6220650D01*
X4705896Y-6220650D02*
X4724944Y-6230174D01*
X4724944Y-6230174D02*
X4734468Y-6249222D01*
X4734468Y-6249222D02*
X4734468Y-6268269D01*
X4734468Y-6268269D02*
X4639230Y-6287317D01*
X4810658Y-6344460D02*
X4829706Y-6353984D01*
X4829706Y-6353984D02*
X4867801Y-6353984D01*
X4867801Y-6353984D02*
X4886849Y-6344460D01*
X4886849Y-6344460D02*
X4896373Y-6325412D01*
X4896373Y-6325412D02*
X4896373Y-6315888D01*
X4896373Y-6315888D02*
X4886849Y-6296841D01*
X4886849Y-6296841D02*
X4867801Y-6287317D01*
X4867801Y-6287317D02*
X4839230Y-6287317D01*
X4839230Y-6287317D02*
X4820182Y-6277793D01*
X4820182Y-6277793D02*
X4810658Y-6258746D01*
X4810658Y-6258746D02*
X4810658Y-6249222D01*
X4810658Y-6249222D02*
X4820182Y-6230174D01*
X4820182Y-6230174D02*
X4839230Y-6220650D01*
X4839230Y-6220650D02*
X4867801Y-6220650D01*
X4867801Y-6220650D02*
X4886849Y-6230174D01*
X4963039Y-6430174D02*
X4972563Y-6420650D01*
X4972563Y-6420650D02*
X4991611Y-6392079D01*
X4991611Y-6392079D02*
X5001134Y-6373031D01*
X5001134Y-6373031D02*
X5010658Y-6344460D01*
X5010658Y-6344460D02*
X5020182Y-6296841D01*
X5020182Y-6296841D02*
X5020182Y-6258746D01*
X5020182Y-6258746D02*
X5010658Y-6211127D01*
X5010658Y-6211127D02*
X5001134Y-6182555D01*
X5001134Y-6182555D02*
X4991611Y-6163508D01*
X4991611Y-6163508D02*
X4972563Y-6134936D01*
X4972563Y-6134936D02*
X4963039Y-6125412D01*
D17*
X-152500Y-6451500D02*
X-2500Y-6601500D01*
X-2500Y-6451500D02*
X-152500Y-6601500D01*
X-77500Y-6451500D02*
X-77500Y-6601500D01*
X-152500Y-6526500D02*
X-2500Y-6526500D01*
D11*
X363039Y-6617984D02*
X248753Y-6617984D01*
X305896Y-6617984D02*
X305896Y-6417984D01*
X305896Y-6417984D02*
X286848Y-6446555D01*
X286848Y-6446555D02*
X267801Y-6465603D01*
X267801Y-6465603D02*
X248753Y-6475127D01*
X448753Y-6598936D02*
X458277Y-6608460D01*
X458277Y-6608460D02*
X448753Y-6617984D01*
X448753Y-6617984D02*
X439229Y-6608460D01*
X439229Y-6608460D02*
X448753Y-6598936D01*
X448753Y-6598936D02*
X448753Y-6617984D01*
X639229Y-6417984D02*
X543991Y-6417984D01*
X543991Y-6417984D02*
X534467Y-6513222D01*
X534467Y-6513222D02*
X543991Y-6503698D01*
X543991Y-6503698D02*
X563039Y-6494174D01*
X563039Y-6494174D02*
X610658Y-6494174D01*
X610658Y-6494174D02*
X629705Y-6503698D01*
X629705Y-6503698D02*
X639229Y-6513222D01*
X639229Y-6513222D02*
X648753Y-6532269D01*
X648753Y-6532269D02*
X648753Y-6579888D01*
X648753Y-6579888D02*
X639229Y-6598936D01*
X639229Y-6598936D02*
X629705Y-6608460D01*
X629705Y-6608460D02*
X610658Y-6617984D01*
X610658Y-6617984D02*
X563039Y-6617984D01*
X563039Y-6617984D02*
X543991Y-6608460D01*
X543991Y-6608460D02*
X534467Y-6598936D01*
X772562Y-6417984D02*
X791610Y-6417984D01*
X791610Y-6417984D02*
X810658Y-6427508D01*
X810658Y-6427508D02*
X820182Y-6437031D01*
X820182Y-6437031D02*
X829705Y-6456079D01*
X829705Y-6456079D02*
X839229Y-6494174D01*
X839229Y-6494174D02*
X839229Y-6541793D01*
X839229Y-6541793D02*
X829705Y-6579888D01*
X829705Y-6579888D02*
X820182Y-6598936D01*
X820182Y-6598936D02*
X810658Y-6608460D01*
X810658Y-6608460D02*
X791610Y-6617984D01*
X791610Y-6617984D02*
X772562Y-6617984D01*
X772562Y-6617984D02*
X753515Y-6608460D01*
X753515Y-6608460D02*
X743991Y-6598936D01*
X743991Y-6598936D02*
X734467Y-6579888D01*
X734467Y-6579888D02*
X724943Y-6541793D01*
X724943Y-6541793D02*
X724943Y-6494174D01*
X724943Y-6494174D02*
X734467Y-6456079D01*
X734467Y-6456079D02*
X743991Y-6437031D01*
X743991Y-6437031D02*
X753515Y-6427508D01*
X753515Y-6427508D02*
X772562Y-6417984D01*
X963039Y-6417984D02*
X982086Y-6417984D01*
X982086Y-6417984D02*
X1001134Y-6427508D01*
X1001134Y-6427508D02*
X1010658Y-6437031D01*
X1010658Y-6437031D02*
X1020182Y-6456079D01*
X1020182Y-6456079D02*
X1029705Y-6494174D01*
X1029705Y-6494174D02*
X1029705Y-6541793D01*
X1029705Y-6541793D02*
X1020182Y-6579888D01*
X1020182Y-6579888D02*
X1010658Y-6598936D01*
X1010658Y-6598936D02*
X1001134Y-6608460D01*
X1001134Y-6608460D02*
X982086Y-6617984D01*
X982086Y-6617984D02*
X963039Y-6617984D01*
X963039Y-6617984D02*
X943991Y-6608460D01*
X943991Y-6608460D02*
X934467Y-6598936D01*
X934467Y-6598936D02*
X924943Y-6579888D01*
X924943Y-6579888D02*
X915420Y-6541793D01*
X915420Y-6541793D02*
X915420Y-6494174D01*
X915420Y-6494174D02*
X924943Y-6456079D01*
X924943Y-6456079D02*
X934467Y-6437031D01*
X934467Y-6437031D02*
X943991Y-6427508D01*
X943991Y-6427508D02*
X963039Y-6417984D01*
X1115420Y-6617984D02*
X1115420Y-6484650D01*
X1115420Y-6503698D02*
X1124944Y-6494174D01*
X1124944Y-6494174D02*
X1143991Y-6484650D01*
X1143991Y-6484650D02*
X1172563Y-6484650D01*
X1172563Y-6484650D02*
X1191610Y-6494174D01*
X1191610Y-6494174D02*
X1201134Y-6513222D01*
X1201134Y-6513222D02*
X1201134Y-6617984D01*
X1201134Y-6513222D02*
X1210658Y-6494174D01*
X1210658Y-6494174D02*
X1229705Y-6484650D01*
X1229705Y-6484650D02*
X1258277Y-6484650D01*
X1258277Y-6484650D02*
X1277325Y-6494174D01*
X1277325Y-6494174D02*
X1286848Y-6513222D01*
X1286848Y-6513222D02*
X1286848Y-6617984D01*
X1382086Y-6617984D02*
X1382086Y-6484650D01*
X1382086Y-6503698D02*
X1391610Y-6494174D01*
X1391610Y-6494174D02*
X1410658Y-6484650D01*
X1410658Y-6484650D02*
X1439229Y-6484650D01*
X1439229Y-6484650D02*
X1458277Y-6494174D01*
X1458277Y-6494174D02*
X1467801Y-6513222D01*
X1467801Y-6513222D02*
X1467801Y-6617984D01*
X1467801Y-6513222D02*
X1477324Y-6494174D01*
X1477324Y-6494174D02*
X1496372Y-6484650D01*
X1496372Y-6484650D02*
X1524943Y-6484650D01*
X1524943Y-6484650D02*
X1543991Y-6494174D01*
X1543991Y-6494174D02*
X1553515Y-6513222D01*
X1553515Y-6513222D02*
X1553515Y-6617984D01*
X1943991Y-6408460D02*
X1772563Y-6665603D01*
X2201134Y-6417984D02*
X2220182Y-6417984D01*
X2220182Y-6417984D02*
X2239229Y-6427508D01*
X2239229Y-6427508D02*
X2248753Y-6437031D01*
X2248753Y-6437031D02*
X2258277Y-6456079D01*
X2258277Y-6456079D02*
X2267801Y-6494174D01*
X2267801Y-6494174D02*
X2267801Y-6541793D01*
X2267801Y-6541793D02*
X2258277Y-6579888D01*
X2258277Y-6579888D02*
X2248753Y-6598936D01*
X2248753Y-6598936D02*
X2239229Y-6608460D01*
X2239229Y-6608460D02*
X2220182Y-6617984D01*
X2220182Y-6617984D02*
X2201134Y-6617984D01*
X2201134Y-6617984D02*
X2182087Y-6608460D01*
X2182087Y-6608460D02*
X2172563Y-6598936D01*
X2172563Y-6598936D02*
X2163039Y-6579888D01*
X2163039Y-6579888D02*
X2153515Y-6541793D01*
X2153515Y-6541793D02*
X2153515Y-6494174D01*
X2153515Y-6494174D02*
X2163039Y-6456079D01*
X2163039Y-6456079D02*
X2172563Y-6437031D01*
X2172563Y-6437031D02*
X2182087Y-6427508D01*
X2182087Y-6427508D02*
X2201134Y-6417984D01*
X2353515Y-6598936D02*
X2363039Y-6608460D01*
X2363039Y-6608460D02*
X2353515Y-6617984D01*
X2353515Y-6617984D02*
X2343991Y-6608460D01*
X2343991Y-6608460D02*
X2353515Y-6598936D01*
X2353515Y-6598936D02*
X2353515Y-6617984D01*
X2486848Y-6417984D02*
X2505896Y-6417984D01*
X2505896Y-6417984D02*
X2524944Y-6427508D01*
X2524944Y-6427508D02*
X2534468Y-6437031D01*
X2534468Y-6437031D02*
X2543991Y-6456079D01*
X2543991Y-6456079D02*
X2553515Y-6494174D01*
X2553515Y-6494174D02*
X2553515Y-6541793D01*
X2553515Y-6541793D02*
X2543991Y-6579888D01*
X2543991Y-6579888D02*
X2534468Y-6598936D01*
X2534468Y-6598936D02*
X2524944Y-6608460D01*
X2524944Y-6608460D02*
X2505896Y-6617984D01*
X2505896Y-6617984D02*
X2486848Y-6617984D01*
X2486848Y-6617984D02*
X2467801Y-6608460D01*
X2467801Y-6608460D02*
X2458277Y-6598936D01*
X2458277Y-6598936D02*
X2448753Y-6579888D01*
X2448753Y-6579888D02*
X2439229Y-6541793D01*
X2439229Y-6541793D02*
X2439229Y-6494174D01*
X2439229Y-6494174D02*
X2448753Y-6456079D01*
X2448753Y-6456079D02*
X2458277Y-6437031D01*
X2458277Y-6437031D02*
X2467801Y-6427508D01*
X2467801Y-6427508D02*
X2486848Y-6417984D01*
X2734468Y-6417984D02*
X2639229Y-6417984D01*
X2639229Y-6417984D02*
X2629706Y-6513222D01*
X2629706Y-6513222D02*
X2639229Y-6503698D01*
X2639229Y-6503698D02*
X2658277Y-6494174D01*
X2658277Y-6494174D02*
X2705896Y-6494174D01*
X2705896Y-6494174D02*
X2724944Y-6503698D01*
X2724944Y-6503698D02*
X2734468Y-6513222D01*
X2734468Y-6513222D02*
X2743991Y-6532269D01*
X2743991Y-6532269D02*
X2743991Y-6579888D01*
X2743991Y-6579888D02*
X2734468Y-6598936D01*
X2734468Y-6598936D02*
X2724944Y-6608460D01*
X2724944Y-6608460D02*
X2705896Y-6617984D01*
X2705896Y-6617984D02*
X2658277Y-6617984D01*
X2658277Y-6617984D02*
X2639229Y-6608460D01*
X2639229Y-6608460D02*
X2629706Y-6598936D01*
X2839229Y-6617984D02*
X2877325Y-6617984D01*
X2877325Y-6617984D02*
X2896372Y-6608460D01*
X2896372Y-6608460D02*
X2905896Y-6598936D01*
X2905896Y-6598936D02*
X2924944Y-6570365D01*
X2924944Y-6570365D02*
X2934467Y-6532269D01*
X2934467Y-6532269D02*
X2934467Y-6456079D01*
X2934467Y-6456079D02*
X2924944Y-6437031D01*
X2924944Y-6437031D02*
X2915420Y-6427508D01*
X2915420Y-6427508D02*
X2896372Y-6417984D01*
X2896372Y-6417984D02*
X2858277Y-6417984D01*
X2858277Y-6417984D02*
X2839229Y-6427508D01*
X2839229Y-6427508D02*
X2829706Y-6437031D01*
X2829706Y-6437031D02*
X2820182Y-6456079D01*
X2820182Y-6456079D02*
X2820182Y-6503698D01*
X2820182Y-6503698D02*
X2829706Y-6522746D01*
X2829706Y-6522746D02*
X2839229Y-6532269D01*
X2839229Y-6532269D02*
X2858277Y-6541793D01*
X2858277Y-6541793D02*
X2896372Y-6541793D01*
X2896372Y-6541793D02*
X2915420Y-6532269D01*
X2915420Y-6532269D02*
X2924944Y-6522746D01*
X2924944Y-6522746D02*
X2934467Y-6503698D01*
X3124944Y-6617984D02*
X3010658Y-6617984D01*
X3067801Y-6617984D02*
X3067801Y-6417984D01*
X3067801Y-6417984D02*
X3048753Y-6446555D01*
X3048753Y-6446555D02*
X3029706Y-6465603D01*
X3029706Y-6465603D02*
X3010658Y-6475127D01*
X3201134Y-6417984D02*
X3201134Y-6456079D01*
X3277325Y-6417984D02*
X3277325Y-6456079D01*
X3572563Y-6694174D02*
X3563039Y-6684650D01*
X3563039Y-6684650D02*
X3543991Y-6656079D01*
X3543991Y-6656079D02*
X3534468Y-6637031D01*
X3534468Y-6637031D02*
X3524944Y-6608460D01*
X3524944Y-6608460D02*
X3515420Y-6560841D01*
X3515420Y-6560841D02*
X3515420Y-6522746D01*
X3515420Y-6522746D02*
X3524944Y-6475127D01*
X3524944Y-6475127D02*
X3534468Y-6446555D01*
X3534468Y-6446555D02*
X3543991Y-6427508D01*
X3543991Y-6427508D02*
X3563039Y-6398936D01*
X3563039Y-6398936D02*
X3572563Y-6389412D01*
X3639229Y-6437031D02*
X3648753Y-6427508D01*
X3648753Y-6427508D02*
X3667801Y-6417984D01*
X3667801Y-6417984D02*
X3715420Y-6417984D01*
X3715420Y-6417984D02*
X3734468Y-6427508D01*
X3734468Y-6427508D02*
X3743991Y-6437031D01*
X3743991Y-6437031D02*
X3753515Y-6456079D01*
X3753515Y-6456079D02*
X3753515Y-6475127D01*
X3753515Y-6475127D02*
X3743991Y-6503698D01*
X3743991Y-6503698D02*
X3629706Y-6617984D01*
X3629706Y-6617984D02*
X3753515Y-6617984D01*
X3991610Y-6617984D02*
X3991610Y-6417984D01*
X4077325Y-6617984D02*
X4077325Y-6513222D01*
X4077325Y-6513222D02*
X4067801Y-6494174D01*
X4067801Y-6494174D02*
X4048753Y-6484650D01*
X4048753Y-6484650D02*
X4020182Y-6484650D01*
X4020182Y-6484650D02*
X4001134Y-6494174D01*
X4001134Y-6494174D02*
X3991610Y-6503698D01*
X4201134Y-6617984D02*
X4182087Y-6608460D01*
X4182087Y-6608460D02*
X4172563Y-6598936D01*
X4172563Y-6598936D02*
X4163039Y-6579888D01*
X4163039Y-6579888D02*
X4163039Y-6522746D01*
X4163039Y-6522746D02*
X4172563Y-6503698D01*
X4172563Y-6503698D02*
X4182087Y-6494174D01*
X4182087Y-6494174D02*
X4201134Y-6484650D01*
X4201134Y-6484650D02*
X4229706Y-6484650D01*
X4229706Y-6484650D02*
X4248753Y-6494174D01*
X4248753Y-6494174D02*
X4258277Y-6503698D01*
X4258277Y-6503698D02*
X4267801Y-6522746D01*
X4267801Y-6522746D02*
X4267801Y-6579888D01*
X4267801Y-6579888D02*
X4258277Y-6598936D01*
X4258277Y-6598936D02*
X4248753Y-6608460D01*
X4248753Y-6608460D02*
X4229706Y-6617984D01*
X4229706Y-6617984D02*
X4201134Y-6617984D01*
X4382087Y-6617984D02*
X4363039Y-6608460D01*
X4363039Y-6608460D02*
X4353515Y-6589412D01*
X4353515Y-6589412D02*
X4353515Y-6417984D01*
X4534468Y-6608460D02*
X4515420Y-6617984D01*
X4515420Y-6617984D02*
X4477325Y-6617984D01*
X4477325Y-6617984D02*
X4458277Y-6608460D01*
X4458277Y-6608460D02*
X4448753Y-6589412D01*
X4448753Y-6589412D02*
X4448753Y-6513222D01*
X4448753Y-6513222D02*
X4458277Y-6494174D01*
X4458277Y-6494174D02*
X4477325Y-6484650D01*
X4477325Y-6484650D02*
X4515420Y-6484650D01*
X4515420Y-6484650D02*
X4534468Y-6494174D01*
X4534468Y-6494174D02*
X4543992Y-6513222D01*
X4543992Y-6513222D02*
X4543992Y-6532269D01*
X4543992Y-6532269D02*
X4448753Y-6551317D01*
X4620182Y-6608460D02*
X4639230Y-6617984D01*
X4639230Y-6617984D02*
X4677325Y-6617984D01*
X4677325Y-6617984D02*
X4696373Y-6608460D01*
X4696373Y-6608460D02*
X4705896Y-6589412D01*
X4705896Y-6589412D02*
X4705896Y-6579888D01*
X4705896Y-6579888D02*
X4696373Y-6560841D01*
X4696373Y-6560841D02*
X4677325Y-6551317D01*
X4677325Y-6551317D02*
X4648753Y-6551317D01*
X4648753Y-6551317D02*
X4629706Y-6541793D01*
X4629706Y-6541793D02*
X4620182Y-6522746D01*
X4620182Y-6522746D02*
X4620182Y-6513222D01*
X4620182Y-6513222D02*
X4629706Y-6494174D01*
X4629706Y-6494174D02*
X4648753Y-6484650D01*
X4648753Y-6484650D02*
X4677325Y-6484650D01*
X4677325Y-6484650D02*
X4696373Y-6494174D01*
X4772563Y-6694174D02*
X4782087Y-6684650D01*
X4782087Y-6684650D02*
X4801134Y-6656079D01*
X4801134Y-6656079D02*
X4810658Y-6637031D01*
X4810658Y-6637031D02*
X4820182Y-6608460D01*
X4820182Y-6608460D02*
X4829706Y-6560841D01*
X4829706Y-6560841D02*
X4829706Y-6522746D01*
X4829706Y-6522746D02*
X4820182Y-6475127D01*
X4820182Y-6475127D02*
X4810658Y-6446555D01*
X4810658Y-6446555D02*
X4801134Y-6427508D01*
X4801134Y-6427508D02*
X4782087Y-6398936D01*
X4782087Y-6398936D02*
X4772563Y-6389412D01*
M02*
