M48
; DRILL file {KiCad 7.0.6} date Sat Jan 13 17:51:31 2024
; FORMAT={-:-/ absolute / inch / decimal}
; #@! TF.CreationDate,2024-01-13T17:51:31-05:00
; #@! TF.GenerationSoftware,Kicad,Pcbnew,7.0.6
; #@! TF.FileFunction,Plated,1,2,PTH
FMAT,2
INCH
; #@! TA.AperFunction,Plated,PTH,ViaDrill
T1C0.0157
; #@! TA.AperFunction,Plated,PTH,ViaDrill
T2C0.0236
; #@! TA.AperFunction,Plated,PTH,ComponentDrill
T3C0.0236
; #@! TA.AperFunction,Plated,PTH,ComponentDrill
T4C0.0315
; #@! TA.AperFunction,Plated,PTH,ComponentDrill
T5C0.0335
; #@! TA.AperFunction,Plated,PTH,ComponentDrill
T6C0.0394
; #@! TA.AperFunction,Plated,PTH,ComponentDrill
T7C0.0551
%
G90
G05
T1
X0.0984Y-0.4134
X0.2854Y-0.3346
X0.315Y-1.5354
X0.3248Y-0.6693
X0.3248Y-1.2205
X0.3937Y-0.5118
X0.4331Y-1.378
X0.4429Y-0.374
X0.4508Y-0.8642
X0.4508Y-0.9075
X0.4508Y-0.9508
X0.4902Y-0.8248
X0.4902Y-0.9902
X0.5118Y-0.0394
X0.5335Y-0.8248
X0.5335Y-0.9902
X0.5768Y-0.8248
X0.5768Y-0.9902
X0.5906Y-1.378
X0.6004Y-0.5217
X0.6161Y-0.8642
X0.6161Y-0.9075
X0.6161Y-0.9508
X0.6299Y-1.6043
X0.6299Y-1.9291
X0.6299Y-2.0866
X0.7087Y-0.0394
X0.7382Y-1.6043
X0.7776Y-0.6693
X0.7776Y-1.1122
X0.8169Y-1.7028
X0.8169Y-1.7421
X0.8268Y-0.6004
X0.8268Y-1.3189
X0.8268Y-1.378
X0.8858Y-0.6004
X0.935Y-1.7831
X0.9646Y-0.935
X0.9843Y-1.7831
X0.9941Y-2.0276
X1.0433Y-1.7831
X1.063Y-1.9488
X1.0925Y-1.1417
X1.1122Y-1.2697
X1.1319Y-1.7815
X1.1811Y-1.6732
X1.1811Y-1.7421
X1.2106Y-1.8224
X1.3484Y-1.6831
X1.3681Y-1.063
X1.4764Y-1.8701
X1.5453Y-1.063
X1.6339Y-1.5508
X1.6339Y-1.6295
X1.6339Y-1.7083
X1.6339Y-1.787
X1.7913Y-1.5508
X1.7913Y-1.6295
X1.7913Y-1.7083
X1.7913Y-1.787
X1.811Y-1.0335
X1.811Y-1.2992
X1.8406Y-0.4724
X1.8406Y-0.5906
X1.8406Y-1.0039
X1.9469Y-0.4051
X1.9587Y-1.6157
X1.9685Y-0.8268
X2.0079Y-1.1728
X2.0669Y-1.6157
X2.0768Y-0.4035
X2.126Y-1.378
X2.1555Y-0.8268
X2.1555Y-1.1024
X2.2047Y-1.4173
X2.3917Y-1.2598
X2.4409Y-0.6791
X2.5886Y-0.1772
X2.5984Y-1.9291
X2.6378Y-0.5906
X2.687Y-1.2598
T2
X0.2756Y-0.4921
X0.2756Y-1.3976
X0.876Y-1.9587
X1.3189Y-1.8815
X1.378Y-1.5354
X1.3878Y-1.7732
X1.4764Y-1.4665
X2.1161Y-1.1713
X2.126Y-0.748
T4
X0.5958Y-1.8028
X0.6942Y-1.8028
T5
X0.1673Y-0.0783
X0.1673Y-0.2752
T6
X0.75Y-0.1098
X0.85Y-0.1098
X0.95Y-0.1098
X1.05Y-0.1098
X1.1098Y-2.0098
X1.15Y-0.1098
X1.2098Y-2.0098
X1.25Y-0.1098
X1.3098Y-2.0098
X1.35Y-0.1098
X1.4098Y-2.0098
X1.45Y-0.1098
X1.5098Y-2.0098
X1.55Y-0.1098
X1.6098Y-2.0098
X1.65Y-0.1098
X1.7098Y-2.0098
X1.8098Y-0.1098
X1.8098Y-2.0098
X1.9098Y-0.1098
X2.0098Y-0.1098
X2.0098Y-2.0098
X2.1098Y-0.1098
X2.1098Y-2.0098
X2.1988Y-0.2567
X2.1988Y-0.3567
X2.1988Y-0.4567
X2.1988Y-0.5567
X2.2098Y-0.1098
X2.2098Y-2.0098
X2.2972Y-0.8591
X2.2972Y-0.9591
X2.2972Y-1.0591
X2.2972Y-1.1591
X2.2972Y-1.363
X2.2972Y-1.463
X2.2972Y-1.563
X2.2972Y-1.663
X2.3098Y-0.1098
X2.3098Y-2.0098
X2.4098Y-0.1098
X2.4098Y-2.0098
X2.5098Y-0.1098
X2.5098Y-2.0098
T7
X0.4046Y-1.6059
X0.4046Y-1.8028
T3
G00X0.0472Y-0.039
M15
G01X0.0748Y-0.039
M16
G05
G00X0.0748Y-0.3146
M15
G01X0.0472Y-0.3146
M16
G05
T0
M30
