%TF.GenerationSoftware,KiCad,Pcbnew,7.0.6*%
%TF.CreationDate,2024-01-14T11:56:26-05:00*%
%TF.ProjectId,Crystal Shield,43727973-7461-46c2-9053-6869656c642e,rev?*%
%TF.SameCoordinates,PX1312d00PY1312d00*%
%TF.FileFunction,Drillmap*%
%TF.FilePolarity,Positive*%
%FSLAX45Y45*%
G04 Gerber Fmt 4.5, Leading zero omitted, Abs format (unit mm)*
G04 Created by KiCad (PCBNEW 7.0.6) date 2024-01-14 11:56:26*
%MOMM*%
%LPD*%
G01*
G04 APERTURE LIST*
%ADD10C,0.050000*%
%ADD11C,0.200000*%
%ADD12C,0.080000*%
%ADD13C,0.320000*%
G04 APERTURE END LIST*
D10*
X6477000Y0D02*
X0Y0D01*
X6654000Y-5384000D02*
X6654000Y-5105000D01*
X6908000Y-1574000D02*
X6654000Y-1320000D01*
X6654000Y-177000D02*
X6477000Y0D01*
X0Y0D02*
X0Y-5384000D01*
X0Y-5384000D02*
X6654000Y-5384000D01*
X6654000Y-1320000D02*
X6654000Y-177000D01*
X6908000Y-4851000D02*
X6908000Y-1574000D01*
X6654000Y-5105000D02*
X6908000Y-4851000D01*
D11*
D12*
X3160000Y-2910000D02*
X3240000Y-2990000D01*
X3240000Y-2910000D02*
X3160000Y-2990000D01*
X3660000Y-2910000D02*
X3740000Y-2990000D01*
X3740000Y-2910000D02*
X3660000Y-2990000D01*
D13*
X1582000Y-5105000D02*
G75*
G03*
X1582000Y-5105000I-160000J0D01*
G01*
X1709000Y-279000D02*
G75*
G03*
X1709000Y-279000I-160000J0D01*
G01*
X6789000Y-1803000D02*
G75*
G03*
X6789000Y-1803000I-160000J0D01*
G01*
X6789000Y-4597000D02*
G75*
G03*
X6789000Y-4597000I-160000J0D01*
G01*
D11*
X258277Y-5697984D02*
X258277Y-5497984D01*
X258277Y-5497984D02*
X305896Y-5497984D01*
X305896Y-5497984D02*
X334467Y-5507508D01*
X334467Y-5507508D02*
X353515Y-5526555D01*
X353515Y-5526555D02*
X363039Y-5545603D01*
X363039Y-5545603D02*
X372562Y-5583698D01*
X372562Y-5583698D02*
X372562Y-5612269D01*
X372562Y-5612269D02*
X363039Y-5650365D01*
X363039Y-5650365D02*
X353515Y-5669412D01*
X353515Y-5669412D02*
X334467Y-5688460D01*
X334467Y-5688460D02*
X305896Y-5697984D01*
X305896Y-5697984D02*
X258277Y-5697984D01*
X458277Y-5697984D02*
X458277Y-5564650D01*
X458277Y-5602746D02*
X467801Y-5583698D01*
X467801Y-5583698D02*
X477324Y-5574174D01*
X477324Y-5574174D02*
X496372Y-5564650D01*
X496372Y-5564650D02*
X515420Y-5564650D01*
X582086Y-5697984D02*
X582086Y-5564650D01*
X582086Y-5497984D02*
X572563Y-5507508D01*
X572563Y-5507508D02*
X582086Y-5517031D01*
X582086Y-5517031D02*
X591610Y-5507508D01*
X591610Y-5507508D02*
X582086Y-5497984D01*
X582086Y-5497984D02*
X582086Y-5517031D01*
X705896Y-5697984D02*
X686848Y-5688460D01*
X686848Y-5688460D02*
X677324Y-5669412D01*
X677324Y-5669412D02*
X677324Y-5497984D01*
X810658Y-5697984D02*
X791610Y-5688460D01*
X791610Y-5688460D02*
X782086Y-5669412D01*
X782086Y-5669412D02*
X782086Y-5497984D01*
X1039229Y-5697984D02*
X1039229Y-5497984D01*
X1039229Y-5497984D02*
X1105896Y-5640841D01*
X1105896Y-5640841D02*
X1172563Y-5497984D01*
X1172563Y-5497984D02*
X1172563Y-5697984D01*
X1353515Y-5697984D02*
X1353515Y-5593222D01*
X1353515Y-5593222D02*
X1343991Y-5574174D01*
X1343991Y-5574174D02*
X1324944Y-5564650D01*
X1324944Y-5564650D02*
X1286848Y-5564650D01*
X1286848Y-5564650D02*
X1267801Y-5574174D01*
X1353515Y-5688460D02*
X1334467Y-5697984D01*
X1334467Y-5697984D02*
X1286848Y-5697984D01*
X1286848Y-5697984D02*
X1267801Y-5688460D01*
X1267801Y-5688460D02*
X1258277Y-5669412D01*
X1258277Y-5669412D02*
X1258277Y-5650365D01*
X1258277Y-5650365D02*
X1267801Y-5631317D01*
X1267801Y-5631317D02*
X1286848Y-5621793D01*
X1286848Y-5621793D02*
X1334467Y-5621793D01*
X1334467Y-5621793D02*
X1353515Y-5612269D01*
X1448753Y-5564650D02*
X1448753Y-5764650D01*
X1448753Y-5574174D02*
X1467801Y-5564650D01*
X1467801Y-5564650D02*
X1505896Y-5564650D01*
X1505896Y-5564650D02*
X1524943Y-5574174D01*
X1524943Y-5574174D02*
X1534467Y-5583698D01*
X1534467Y-5583698D02*
X1543991Y-5602746D01*
X1543991Y-5602746D02*
X1543991Y-5659888D01*
X1543991Y-5659888D02*
X1534467Y-5678936D01*
X1534467Y-5678936D02*
X1524943Y-5688460D01*
X1524943Y-5688460D02*
X1505896Y-5697984D01*
X1505896Y-5697984D02*
X1467801Y-5697984D01*
X1467801Y-5697984D02*
X1448753Y-5688460D01*
X1629705Y-5678936D02*
X1639229Y-5688460D01*
X1639229Y-5688460D02*
X1629705Y-5697984D01*
X1629705Y-5697984D02*
X1620182Y-5688460D01*
X1620182Y-5688460D02*
X1629705Y-5678936D01*
X1629705Y-5678936D02*
X1629705Y-5697984D01*
X1629705Y-5574174D02*
X1639229Y-5583698D01*
X1639229Y-5583698D02*
X1629705Y-5593222D01*
X1629705Y-5593222D02*
X1620182Y-5583698D01*
X1620182Y-5583698D02*
X1629705Y-5574174D01*
X1629705Y-5574174D02*
X1629705Y-5593222D01*
D12*
X-82500Y-5986500D02*
X-2500Y-6066500D01*
X-2500Y-5986500D02*
X-82500Y-6066500D01*
D11*
X296372Y-5917984D02*
X315420Y-5917984D01*
X315420Y-5917984D02*
X334467Y-5927508D01*
X334467Y-5927508D02*
X343991Y-5937031D01*
X343991Y-5937031D02*
X353515Y-5956079D01*
X353515Y-5956079D02*
X363039Y-5994174D01*
X363039Y-5994174D02*
X363039Y-6041793D01*
X363039Y-6041793D02*
X353515Y-6079888D01*
X353515Y-6079888D02*
X343991Y-6098936D01*
X343991Y-6098936D02*
X334467Y-6108460D01*
X334467Y-6108460D02*
X315420Y-6117984D01*
X315420Y-6117984D02*
X296372Y-6117984D01*
X296372Y-6117984D02*
X277324Y-6108460D01*
X277324Y-6108460D02*
X267801Y-6098936D01*
X267801Y-6098936D02*
X258277Y-6079888D01*
X258277Y-6079888D02*
X248753Y-6041793D01*
X248753Y-6041793D02*
X248753Y-5994174D01*
X248753Y-5994174D02*
X258277Y-5956079D01*
X258277Y-5956079D02*
X267801Y-5937031D01*
X267801Y-5937031D02*
X277324Y-5927508D01*
X277324Y-5927508D02*
X296372Y-5917984D01*
X448753Y-6098936D02*
X458277Y-6108460D01*
X458277Y-6108460D02*
X448753Y-6117984D01*
X448753Y-6117984D02*
X439229Y-6108460D01*
X439229Y-6108460D02*
X448753Y-6098936D01*
X448753Y-6098936D02*
X448753Y-6117984D01*
X572563Y-6003698D02*
X553515Y-5994174D01*
X553515Y-5994174D02*
X543991Y-5984650D01*
X543991Y-5984650D02*
X534467Y-5965603D01*
X534467Y-5965603D02*
X534467Y-5956079D01*
X534467Y-5956079D02*
X543991Y-5937031D01*
X543991Y-5937031D02*
X553515Y-5927508D01*
X553515Y-5927508D02*
X572563Y-5917984D01*
X572563Y-5917984D02*
X610658Y-5917984D01*
X610658Y-5917984D02*
X629705Y-5927508D01*
X629705Y-5927508D02*
X639229Y-5937031D01*
X639229Y-5937031D02*
X648753Y-5956079D01*
X648753Y-5956079D02*
X648753Y-5965603D01*
X648753Y-5965603D02*
X639229Y-5984650D01*
X639229Y-5984650D02*
X629705Y-5994174D01*
X629705Y-5994174D02*
X610658Y-6003698D01*
X610658Y-6003698D02*
X572563Y-6003698D01*
X572563Y-6003698D02*
X553515Y-6013222D01*
X553515Y-6013222D02*
X543991Y-6022746D01*
X543991Y-6022746D02*
X534467Y-6041793D01*
X534467Y-6041793D02*
X534467Y-6079888D01*
X534467Y-6079888D02*
X543991Y-6098936D01*
X543991Y-6098936D02*
X553515Y-6108460D01*
X553515Y-6108460D02*
X572563Y-6117984D01*
X572563Y-6117984D02*
X610658Y-6117984D01*
X610658Y-6117984D02*
X629705Y-6108460D01*
X629705Y-6108460D02*
X639229Y-6098936D01*
X639229Y-6098936D02*
X648753Y-6079888D01*
X648753Y-6079888D02*
X648753Y-6041793D01*
X648753Y-6041793D02*
X639229Y-6022746D01*
X639229Y-6022746D02*
X629705Y-6013222D01*
X629705Y-6013222D02*
X610658Y-6003698D01*
X772562Y-5917984D02*
X791610Y-5917984D01*
X791610Y-5917984D02*
X810658Y-5927508D01*
X810658Y-5927508D02*
X820182Y-5937031D01*
X820182Y-5937031D02*
X829705Y-5956079D01*
X829705Y-5956079D02*
X839229Y-5994174D01*
X839229Y-5994174D02*
X839229Y-6041793D01*
X839229Y-6041793D02*
X829705Y-6079888D01*
X829705Y-6079888D02*
X820182Y-6098936D01*
X820182Y-6098936D02*
X810658Y-6108460D01*
X810658Y-6108460D02*
X791610Y-6117984D01*
X791610Y-6117984D02*
X772562Y-6117984D01*
X772562Y-6117984D02*
X753515Y-6108460D01*
X753515Y-6108460D02*
X743991Y-6098936D01*
X743991Y-6098936D02*
X734467Y-6079888D01*
X734467Y-6079888D02*
X724943Y-6041793D01*
X724943Y-6041793D02*
X724943Y-5994174D01*
X724943Y-5994174D02*
X734467Y-5956079D01*
X734467Y-5956079D02*
X743991Y-5937031D01*
X743991Y-5937031D02*
X753515Y-5927508D01*
X753515Y-5927508D02*
X772562Y-5917984D01*
X963039Y-5917984D02*
X982086Y-5917984D01*
X982086Y-5917984D02*
X1001134Y-5927508D01*
X1001134Y-5927508D02*
X1010658Y-5937031D01*
X1010658Y-5937031D02*
X1020182Y-5956079D01*
X1020182Y-5956079D02*
X1029705Y-5994174D01*
X1029705Y-5994174D02*
X1029705Y-6041793D01*
X1029705Y-6041793D02*
X1020182Y-6079888D01*
X1020182Y-6079888D02*
X1010658Y-6098936D01*
X1010658Y-6098936D02*
X1001134Y-6108460D01*
X1001134Y-6108460D02*
X982086Y-6117984D01*
X982086Y-6117984D02*
X963039Y-6117984D01*
X963039Y-6117984D02*
X943991Y-6108460D01*
X943991Y-6108460D02*
X934467Y-6098936D01*
X934467Y-6098936D02*
X924943Y-6079888D01*
X924943Y-6079888D02*
X915420Y-6041793D01*
X915420Y-6041793D02*
X915420Y-5994174D01*
X915420Y-5994174D02*
X924943Y-5956079D01*
X924943Y-5956079D02*
X934467Y-5937031D01*
X934467Y-5937031D02*
X943991Y-5927508D01*
X943991Y-5927508D02*
X963039Y-5917984D01*
X1115420Y-6117984D02*
X1115420Y-5984650D01*
X1115420Y-6003698D02*
X1124944Y-5994174D01*
X1124944Y-5994174D02*
X1143991Y-5984650D01*
X1143991Y-5984650D02*
X1172563Y-5984650D01*
X1172563Y-5984650D02*
X1191610Y-5994174D01*
X1191610Y-5994174D02*
X1201134Y-6013222D01*
X1201134Y-6013222D02*
X1201134Y-6117984D01*
X1201134Y-6013222D02*
X1210658Y-5994174D01*
X1210658Y-5994174D02*
X1229705Y-5984650D01*
X1229705Y-5984650D02*
X1258277Y-5984650D01*
X1258277Y-5984650D02*
X1277325Y-5994174D01*
X1277325Y-5994174D02*
X1286848Y-6013222D01*
X1286848Y-6013222D02*
X1286848Y-6117984D01*
X1382086Y-6117984D02*
X1382086Y-5984650D01*
X1382086Y-6003698D02*
X1391610Y-5994174D01*
X1391610Y-5994174D02*
X1410658Y-5984650D01*
X1410658Y-5984650D02*
X1439229Y-5984650D01*
X1439229Y-5984650D02*
X1458277Y-5994174D01*
X1458277Y-5994174D02*
X1467801Y-6013222D01*
X1467801Y-6013222D02*
X1467801Y-6117984D01*
X1467801Y-6013222D02*
X1477324Y-5994174D01*
X1477324Y-5994174D02*
X1496372Y-5984650D01*
X1496372Y-5984650D02*
X1524943Y-5984650D01*
X1524943Y-5984650D02*
X1543991Y-5994174D01*
X1543991Y-5994174D02*
X1553515Y-6013222D01*
X1553515Y-6013222D02*
X1553515Y-6117984D01*
X1943991Y-5908460D02*
X1772563Y-6165603D01*
X2201134Y-5917984D02*
X2220182Y-5917984D01*
X2220182Y-5917984D02*
X2239229Y-5927508D01*
X2239229Y-5927508D02*
X2248753Y-5937031D01*
X2248753Y-5937031D02*
X2258277Y-5956079D01*
X2258277Y-5956079D02*
X2267801Y-5994174D01*
X2267801Y-5994174D02*
X2267801Y-6041793D01*
X2267801Y-6041793D02*
X2258277Y-6079888D01*
X2258277Y-6079888D02*
X2248753Y-6098936D01*
X2248753Y-6098936D02*
X2239229Y-6108460D01*
X2239229Y-6108460D02*
X2220182Y-6117984D01*
X2220182Y-6117984D02*
X2201134Y-6117984D01*
X2201134Y-6117984D02*
X2182087Y-6108460D01*
X2182087Y-6108460D02*
X2172563Y-6098936D01*
X2172563Y-6098936D02*
X2163039Y-6079888D01*
X2163039Y-6079888D02*
X2153515Y-6041793D01*
X2153515Y-6041793D02*
X2153515Y-5994174D01*
X2153515Y-5994174D02*
X2163039Y-5956079D01*
X2163039Y-5956079D02*
X2172563Y-5937031D01*
X2172563Y-5937031D02*
X2182087Y-5927508D01*
X2182087Y-5927508D02*
X2201134Y-5917984D01*
X2353515Y-6098936D02*
X2363039Y-6108460D01*
X2363039Y-6108460D02*
X2353515Y-6117984D01*
X2353515Y-6117984D02*
X2343991Y-6108460D01*
X2343991Y-6108460D02*
X2353515Y-6098936D01*
X2353515Y-6098936D02*
X2353515Y-6117984D01*
X2486848Y-5917984D02*
X2505896Y-5917984D01*
X2505896Y-5917984D02*
X2524944Y-5927508D01*
X2524944Y-5927508D02*
X2534468Y-5937031D01*
X2534468Y-5937031D02*
X2543991Y-5956079D01*
X2543991Y-5956079D02*
X2553515Y-5994174D01*
X2553515Y-5994174D02*
X2553515Y-6041793D01*
X2553515Y-6041793D02*
X2543991Y-6079888D01*
X2543991Y-6079888D02*
X2534468Y-6098936D01*
X2534468Y-6098936D02*
X2524944Y-6108460D01*
X2524944Y-6108460D02*
X2505896Y-6117984D01*
X2505896Y-6117984D02*
X2486848Y-6117984D01*
X2486848Y-6117984D02*
X2467801Y-6108460D01*
X2467801Y-6108460D02*
X2458277Y-6098936D01*
X2458277Y-6098936D02*
X2448753Y-6079888D01*
X2448753Y-6079888D02*
X2439229Y-6041793D01*
X2439229Y-6041793D02*
X2439229Y-5994174D01*
X2439229Y-5994174D02*
X2448753Y-5956079D01*
X2448753Y-5956079D02*
X2458277Y-5937031D01*
X2458277Y-5937031D02*
X2467801Y-5927508D01*
X2467801Y-5927508D02*
X2486848Y-5917984D01*
X2620182Y-5917984D02*
X2743991Y-5917984D01*
X2743991Y-5917984D02*
X2677325Y-5994174D01*
X2677325Y-5994174D02*
X2705896Y-5994174D01*
X2705896Y-5994174D02*
X2724944Y-6003698D01*
X2724944Y-6003698D02*
X2734468Y-6013222D01*
X2734468Y-6013222D02*
X2743991Y-6032269D01*
X2743991Y-6032269D02*
X2743991Y-6079888D01*
X2743991Y-6079888D02*
X2734468Y-6098936D01*
X2734468Y-6098936D02*
X2724944Y-6108460D01*
X2724944Y-6108460D02*
X2705896Y-6117984D01*
X2705896Y-6117984D02*
X2648753Y-6117984D01*
X2648753Y-6117984D02*
X2629706Y-6108460D01*
X2629706Y-6108460D02*
X2620182Y-6098936D01*
X2934467Y-6117984D02*
X2820182Y-6117984D01*
X2877325Y-6117984D02*
X2877325Y-5917984D01*
X2877325Y-5917984D02*
X2858277Y-5946555D01*
X2858277Y-5946555D02*
X2839229Y-5965603D01*
X2839229Y-5965603D02*
X2820182Y-5975127D01*
X3115420Y-5917984D02*
X3020182Y-5917984D01*
X3020182Y-5917984D02*
X3010658Y-6013222D01*
X3010658Y-6013222D02*
X3020182Y-6003698D01*
X3020182Y-6003698D02*
X3039229Y-5994174D01*
X3039229Y-5994174D02*
X3086848Y-5994174D01*
X3086848Y-5994174D02*
X3105896Y-6003698D01*
X3105896Y-6003698D02*
X3115420Y-6013222D01*
X3115420Y-6013222D02*
X3124944Y-6032269D01*
X3124944Y-6032269D02*
X3124944Y-6079888D01*
X3124944Y-6079888D02*
X3115420Y-6098936D01*
X3115420Y-6098936D02*
X3105896Y-6108460D01*
X3105896Y-6108460D02*
X3086848Y-6117984D01*
X3086848Y-6117984D02*
X3039229Y-6117984D01*
X3039229Y-6117984D02*
X3020182Y-6108460D01*
X3020182Y-6108460D02*
X3010658Y-6098936D01*
X3201134Y-5917984D02*
X3201134Y-5956079D01*
X3277325Y-5917984D02*
X3277325Y-5956079D01*
X3572563Y-6194174D02*
X3563039Y-6184650D01*
X3563039Y-6184650D02*
X3543991Y-6156079D01*
X3543991Y-6156079D02*
X3534468Y-6137031D01*
X3534468Y-6137031D02*
X3524944Y-6108460D01*
X3524944Y-6108460D02*
X3515420Y-6060841D01*
X3515420Y-6060841D02*
X3515420Y-6022746D01*
X3515420Y-6022746D02*
X3524944Y-5975127D01*
X3524944Y-5975127D02*
X3534468Y-5946555D01*
X3534468Y-5946555D02*
X3543991Y-5927508D01*
X3543991Y-5927508D02*
X3563039Y-5898936D01*
X3563039Y-5898936D02*
X3572563Y-5889412D01*
X3639229Y-5937031D02*
X3648753Y-5927508D01*
X3648753Y-5927508D02*
X3667801Y-5917984D01*
X3667801Y-5917984D02*
X3715420Y-5917984D01*
X3715420Y-5917984D02*
X3734468Y-5927508D01*
X3734468Y-5927508D02*
X3743991Y-5937031D01*
X3743991Y-5937031D02*
X3753515Y-5956079D01*
X3753515Y-5956079D02*
X3753515Y-5975127D01*
X3753515Y-5975127D02*
X3743991Y-6003698D01*
X3743991Y-6003698D02*
X3629706Y-6117984D01*
X3629706Y-6117984D02*
X3753515Y-6117984D01*
X3991610Y-6117984D02*
X3991610Y-5917984D01*
X4077325Y-6117984D02*
X4077325Y-6013222D01*
X4077325Y-6013222D02*
X4067801Y-5994174D01*
X4067801Y-5994174D02*
X4048753Y-5984650D01*
X4048753Y-5984650D02*
X4020182Y-5984650D01*
X4020182Y-5984650D02*
X4001134Y-5994174D01*
X4001134Y-5994174D02*
X3991610Y-6003698D01*
X4201134Y-6117984D02*
X4182087Y-6108460D01*
X4182087Y-6108460D02*
X4172563Y-6098936D01*
X4172563Y-6098936D02*
X4163039Y-6079888D01*
X4163039Y-6079888D02*
X4163039Y-6022746D01*
X4163039Y-6022746D02*
X4172563Y-6003698D01*
X4172563Y-6003698D02*
X4182087Y-5994174D01*
X4182087Y-5994174D02*
X4201134Y-5984650D01*
X4201134Y-5984650D02*
X4229706Y-5984650D01*
X4229706Y-5984650D02*
X4248753Y-5994174D01*
X4248753Y-5994174D02*
X4258277Y-6003698D01*
X4258277Y-6003698D02*
X4267801Y-6022746D01*
X4267801Y-6022746D02*
X4267801Y-6079888D01*
X4267801Y-6079888D02*
X4258277Y-6098936D01*
X4258277Y-6098936D02*
X4248753Y-6108460D01*
X4248753Y-6108460D02*
X4229706Y-6117984D01*
X4229706Y-6117984D02*
X4201134Y-6117984D01*
X4382087Y-6117984D02*
X4363039Y-6108460D01*
X4363039Y-6108460D02*
X4353515Y-6089412D01*
X4353515Y-6089412D02*
X4353515Y-5917984D01*
X4534468Y-6108460D02*
X4515420Y-6117984D01*
X4515420Y-6117984D02*
X4477325Y-6117984D01*
X4477325Y-6117984D02*
X4458277Y-6108460D01*
X4458277Y-6108460D02*
X4448753Y-6089412D01*
X4448753Y-6089412D02*
X4448753Y-6013222D01*
X4448753Y-6013222D02*
X4458277Y-5994174D01*
X4458277Y-5994174D02*
X4477325Y-5984650D01*
X4477325Y-5984650D02*
X4515420Y-5984650D01*
X4515420Y-5984650D02*
X4534468Y-5994174D01*
X4534468Y-5994174D02*
X4543992Y-6013222D01*
X4543992Y-6013222D02*
X4543992Y-6032269D01*
X4543992Y-6032269D02*
X4448753Y-6051317D01*
X4620182Y-6108460D02*
X4639230Y-6117984D01*
X4639230Y-6117984D02*
X4677325Y-6117984D01*
X4677325Y-6117984D02*
X4696373Y-6108460D01*
X4696373Y-6108460D02*
X4705896Y-6089412D01*
X4705896Y-6089412D02*
X4705896Y-6079888D01*
X4705896Y-6079888D02*
X4696373Y-6060841D01*
X4696373Y-6060841D02*
X4677325Y-6051317D01*
X4677325Y-6051317D02*
X4648753Y-6051317D01*
X4648753Y-6051317D02*
X4629706Y-6041793D01*
X4629706Y-6041793D02*
X4620182Y-6022746D01*
X4620182Y-6022746D02*
X4620182Y-6013222D01*
X4620182Y-6013222D02*
X4629706Y-5994174D01*
X4629706Y-5994174D02*
X4648753Y-5984650D01*
X4648753Y-5984650D02*
X4677325Y-5984650D01*
X4677325Y-5984650D02*
X4696373Y-5994174D01*
X4772563Y-6194174D02*
X4782087Y-6184650D01*
X4782087Y-6184650D02*
X4801134Y-6156079D01*
X4801134Y-6156079D02*
X4810658Y-6137031D01*
X4810658Y-6137031D02*
X4820182Y-6108460D01*
X4820182Y-6108460D02*
X4829706Y-6060841D01*
X4829706Y-6060841D02*
X4829706Y-6022746D01*
X4829706Y-6022746D02*
X4820182Y-5975127D01*
X4820182Y-5975127D02*
X4810658Y-5946555D01*
X4810658Y-5946555D02*
X4801134Y-5927508D01*
X4801134Y-5927508D02*
X4782087Y-5898936D01*
X4782087Y-5898936D02*
X4772563Y-5889412D01*
X5134468Y-6194174D02*
X5124944Y-6184650D01*
X5124944Y-6184650D02*
X5105896Y-6156079D01*
X5105896Y-6156079D02*
X5096373Y-6137031D01*
X5096373Y-6137031D02*
X5086849Y-6108460D01*
X5086849Y-6108460D02*
X5077325Y-6060841D01*
X5077325Y-6060841D02*
X5077325Y-6022746D01*
X5077325Y-6022746D02*
X5086849Y-5975127D01*
X5086849Y-5975127D02*
X5096373Y-5946555D01*
X5096373Y-5946555D02*
X5105896Y-5927508D01*
X5105896Y-5927508D02*
X5124944Y-5898936D01*
X5124944Y-5898936D02*
X5134468Y-5889412D01*
X5210658Y-5984650D02*
X5210658Y-6117984D01*
X5210658Y-6003698D02*
X5220182Y-5994174D01*
X5220182Y-5994174D02*
X5239230Y-5984650D01*
X5239230Y-5984650D02*
X5267801Y-5984650D01*
X5267801Y-5984650D02*
X5286849Y-5994174D01*
X5286849Y-5994174D02*
X5296373Y-6013222D01*
X5296373Y-6013222D02*
X5296373Y-6117984D01*
X5420182Y-6117984D02*
X5401134Y-6108460D01*
X5401134Y-6108460D02*
X5391611Y-6098936D01*
X5391611Y-6098936D02*
X5382087Y-6079888D01*
X5382087Y-6079888D02*
X5382087Y-6022746D01*
X5382087Y-6022746D02*
X5391611Y-6003698D01*
X5391611Y-6003698D02*
X5401134Y-5994174D01*
X5401134Y-5994174D02*
X5420182Y-5984650D01*
X5420182Y-5984650D02*
X5448754Y-5984650D01*
X5448754Y-5984650D02*
X5467801Y-5994174D01*
X5467801Y-5994174D02*
X5477325Y-6003698D01*
X5477325Y-6003698D02*
X5486849Y-6022746D01*
X5486849Y-6022746D02*
X5486849Y-6079888D01*
X5486849Y-6079888D02*
X5477325Y-6098936D01*
X5477325Y-6098936D02*
X5467801Y-6108460D01*
X5467801Y-6108460D02*
X5448754Y-6117984D01*
X5448754Y-6117984D02*
X5420182Y-6117984D01*
X5543992Y-5984650D02*
X5620182Y-5984650D01*
X5572563Y-5917984D02*
X5572563Y-6089412D01*
X5572563Y-6089412D02*
X5582087Y-6108460D01*
X5582087Y-6108460D02*
X5601134Y-6117984D01*
X5601134Y-6117984D02*
X5620182Y-6117984D01*
X5839230Y-5984650D02*
X5839230Y-6184650D01*
X5839230Y-5994174D02*
X5858277Y-5984650D01*
X5858277Y-5984650D02*
X5896373Y-5984650D01*
X5896373Y-5984650D02*
X5915420Y-5994174D01*
X5915420Y-5994174D02*
X5924944Y-6003698D01*
X5924944Y-6003698D02*
X5934468Y-6022746D01*
X5934468Y-6022746D02*
X5934468Y-6079888D01*
X5934468Y-6079888D02*
X5924944Y-6098936D01*
X5924944Y-6098936D02*
X5915420Y-6108460D01*
X5915420Y-6108460D02*
X5896373Y-6117984D01*
X5896373Y-6117984D02*
X5858277Y-6117984D01*
X5858277Y-6117984D02*
X5839230Y-6108460D01*
X6048753Y-6117984D02*
X6029706Y-6108460D01*
X6029706Y-6108460D02*
X6020182Y-6089412D01*
X6020182Y-6089412D02*
X6020182Y-5917984D01*
X6210658Y-6117984D02*
X6210658Y-6013222D01*
X6210658Y-6013222D02*
X6201134Y-5994174D01*
X6201134Y-5994174D02*
X6182087Y-5984650D01*
X6182087Y-5984650D02*
X6143992Y-5984650D01*
X6143992Y-5984650D02*
X6124944Y-5994174D01*
X6210658Y-6108460D02*
X6191611Y-6117984D01*
X6191611Y-6117984D02*
X6143992Y-6117984D01*
X6143992Y-6117984D02*
X6124944Y-6108460D01*
X6124944Y-6108460D02*
X6115420Y-6089412D01*
X6115420Y-6089412D02*
X6115420Y-6070365D01*
X6115420Y-6070365D02*
X6124944Y-6051317D01*
X6124944Y-6051317D02*
X6143992Y-6041793D01*
X6143992Y-6041793D02*
X6191611Y-6041793D01*
X6191611Y-6041793D02*
X6210658Y-6032269D01*
X6277325Y-5984650D02*
X6353515Y-5984650D01*
X6305896Y-5917984D02*
X6305896Y-6089412D01*
X6305896Y-6089412D02*
X6315420Y-6108460D01*
X6315420Y-6108460D02*
X6334468Y-6117984D01*
X6334468Y-6117984D02*
X6353515Y-6117984D01*
X6496373Y-6108460D02*
X6477325Y-6117984D01*
X6477325Y-6117984D02*
X6439230Y-6117984D01*
X6439230Y-6117984D02*
X6420182Y-6108460D01*
X6420182Y-6108460D02*
X6410658Y-6089412D01*
X6410658Y-6089412D02*
X6410658Y-6013222D01*
X6410658Y-6013222D02*
X6420182Y-5994174D01*
X6420182Y-5994174D02*
X6439230Y-5984650D01*
X6439230Y-5984650D02*
X6477325Y-5984650D01*
X6477325Y-5984650D02*
X6496373Y-5994174D01*
X6496373Y-5994174D02*
X6505896Y-6013222D01*
X6505896Y-6013222D02*
X6505896Y-6032269D01*
X6505896Y-6032269D02*
X6410658Y-6051317D01*
X6677325Y-6117984D02*
X6677325Y-5917984D01*
X6677325Y-6108460D02*
X6658277Y-6117984D01*
X6658277Y-6117984D02*
X6620182Y-6117984D01*
X6620182Y-6117984D02*
X6601134Y-6108460D01*
X6601134Y-6108460D02*
X6591611Y-6098936D01*
X6591611Y-6098936D02*
X6582087Y-6079888D01*
X6582087Y-6079888D02*
X6582087Y-6022746D01*
X6582087Y-6022746D02*
X6591611Y-6003698D01*
X6591611Y-6003698D02*
X6601134Y-5994174D01*
X6601134Y-5994174D02*
X6620182Y-5984650D01*
X6620182Y-5984650D02*
X6658277Y-5984650D01*
X6658277Y-5984650D02*
X6677325Y-5994174D01*
X6753515Y-6194174D02*
X6763039Y-6184650D01*
X6763039Y-6184650D02*
X6782087Y-6156079D01*
X6782087Y-6156079D02*
X6791611Y-6137031D01*
X6791611Y-6137031D02*
X6801134Y-6108460D01*
X6801134Y-6108460D02*
X6810658Y-6060841D01*
X6810658Y-6060841D02*
X6810658Y-6022746D01*
X6810658Y-6022746D02*
X6801134Y-5975127D01*
X6801134Y-5975127D02*
X6791611Y-5946555D01*
X6791611Y-5946555D02*
X6782087Y-5927508D01*
X6782087Y-5927508D02*
X6763039Y-5898936D01*
X6763039Y-5898936D02*
X6753515Y-5889412D01*
X-2500Y-6290500D02*
G75*
G03*
X-2500Y-6290500I-100000J0D01*
G01*
X239229Y-6181984D02*
X363039Y-6181984D01*
X363039Y-6181984D02*
X296372Y-6258174D01*
X296372Y-6258174D02*
X324944Y-6258174D01*
X324944Y-6258174D02*
X343991Y-6267698D01*
X343991Y-6267698D02*
X353515Y-6277222D01*
X353515Y-6277222D02*
X363039Y-6296269D01*
X363039Y-6296269D02*
X363039Y-6343888D01*
X363039Y-6343888D02*
X353515Y-6362936D01*
X353515Y-6362936D02*
X343991Y-6372460D01*
X343991Y-6372460D02*
X324944Y-6381984D01*
X324944Y-6381984D02*
X267801Y-6381984D01*
X267801Y-6381984D02*
X248753Y-6372460D01*
X248753Y-6372460D02*
X239229Y-6362936D01*
X448753Y-6362936D02*
X458277Y-6372460D01*
X458277Y-6372460D02*
X448753Y-6381984D01*
X448753Y-6381984D02*
X439229Y-6372460D01*
X439229Y-6372460D02*
X448753Y-6362936D01*
X448753Y-6362936D02*
X448753Y-6381984D01*
X534467Y-6201031D02*
X543991Y-6191508D01*
X543991Y-6191508D02*
X563039Y-6181984D01*
X563039Y-6181984D02*
X610658Y-6181984D01*
X610658Y-6181984D02*
X629705Y-6191508D01*
X629705Y-6191508D02*
X639229Y-6201031D01*
X639229Y-6201031D02*
X648753Y-6220079D01*
X648753Y-6220079D02*
X648753Y-6239127D01*
X648753Y-6239127D02*
X639229Y-6267698D01*
X639229Y-6267698D02*
X524944Y-6381984D01*
X524944Y-6381984D02*
X648753Y-6381984D01*
X772562Y-6181984D02*
X791610Y-6181984D01*
X791610Y-6181984D02*
X810658Y-6191508D01*
X810658Y-6191508D02*
X820182Y-6201031D01*
X820182Y-6201031D02*
X829705Y-6220079D01*
X829705Y-6220079D02*
X839229Y-6258174D01*
X839229Y-6258174D02*
X839229Y-6305793D01*
X839229Y-6305793D02*
X829705Y-6343888D01*
X829705Y-6343888D02*
X820182Y-6362936D01*
X820182Y-6362936D02*
X810658Y-6372460D01*
X810658Y-6372460D02*
X791610Y-6381984D01*
X791610Y-6381984D02*
X772562Y-6381984D01*
X772562Y-6381984D02*
X753515Y-6372460D01*
X753515Y-6372460D02*
X743991Y-6362936D01*
X743991Y-6362936D02*
X734467Y-6343888D01*
X734467Y-6343888D02*
X724943Y-6305793D01*
X724943Y-6305793D02*
X724943Y-6258174D01*
X724943Y-6258174D02*
X734467Y-6220079D01*
X734467Y-6220079D02*
X743991Y-6201031D01*
X743991Y-6201031D02*
X753515Y-6191508D01*
X753515Y-6191508D02*
X772562Y-6181984D01*
X963039Y-6181984D02*
X982086Y-6181984D01*
X982086Y-6181984D02*
X1001134Y-6191508D01*
X1001134Y-6191508D02*
X1010658Y-6201031D01*
X1010658Y-6201031D02*
X1020182Y-6220079D01*
X1020182Y-6220079D02*
X1029705Y-6258174D01*
X1029705Y-6258174D02*
X1029705Y-6305793D01*
X1029705Y-6305793D02*
X1020182Y-6343888D01*
X1020182Y-6343888D02*
X1010658Y-6362936D01*
X1010658Y-6362936D02*
X1001134Y-6372460D01*
X1001134Y-6372460D02*
X982086Y-6381984D01*
X982086Y-6381984D02*
X963039Y-6381984D01*
X963039Y-6381984D02*
X943991Y-6372460D01*
X943991Y-6372460D02*
X934467Y-6362936D01*
X934467Y-6362936D02*
X924943Y-6343888D01*
X924943Y-6343888D02*
X915420Y-6305793D01*
X915420Y-6305793D02*
X915420Y-6258174D01*
X915420Y-6258174D02*
X924943Y-6220079D01*
X924943Y-6220079D02*
X934467Y-6201031D01*
X934467Y-6201031D02*
X943991Y-6191508D01*
X943991Y-6191508D02*
X963039Y-6181984D01*
X1115420Y-6381984D02*
X1115420Y-6248650D01*
X1115420Y-6267698D02*
X1124944Y-6258174D01*
X1124944Y-6258174D02*
X1143991Y-6248650D01*
X1143991Y-6248650D02*
X1172563Y-6248650D01*
X1172563Y-6248650D02*
X1191610Y-6258174D01*
X1191610Y-6258174D02*
X1201134Y-6277222D01*
X1201134Y-6277222D02*
X1201134Y-6381984D01*
X1201134Y-6277222D02*
X1210658Y-6258174D01*
X1210658Y-6258174D02*
X1229705Y-6248650D01*
X1229705Y-6248650D02*
X1258277Y-6248650D01*
X1258277Y-6248650D02*
X1277325Y-6258174D01*
X1277325Y-6258174D02*
X1286848Y-6277222D01*
X1286848Y-6277222D02*
X1286848Y-6381984D01*
X1382086Y-6381984D02*
X1382086Y-6248650D01*
X1382086Y-6267698D02*
X1391610Y-6258174D01*
X1391610Y-6258174D02*
X1410658Y-6248650D01*
X1410658Y-6248650D02*
X1439229Y-6248650D01*
X1439229Y-6248650D02*
X1458277Y-6258174D01*
X1458277Y-6258174D02*
X1467801Y-6277222D01*
X1467801Y-6277222D02*
X1467801Y-6381984D01*
X1467801Y-6277222D02*
X1477324Y-6258174D01*
X1477324Y-6258174D02*
X1496372Y-6248650D01*
X1496372Y-6248650D02*
X1524943Y-6248650D01*
X1524943Y-6248650D02*
X1543991Y-6258174D01*
X1543991Y-6258174D02*
X1553515Y-6277222D01*
X1553515Y-6277222D02*
X1553515Y-6381984D01*
X1943991Y-6172460D02*
X1772563Y-6429603D01*
X2201134Y-6181984D02*
X2220182Y-6181984D01*
X2220182Y-6181984D02*
X2239229Y-6191508D01*
X2239229Y-6191508D02*
X2248753Y-6201031D01*
X2248753Y-6201031D02*
X2258277Y-6220079D01*
X2258277Y-6220079D02*
X2267801Y-6258174D01*
X2267801Y-6258174D02*
X2267801Y-6305793D01*
X2267801Y-6305793D02*
X2258277Y-6343888D01*
X2258277Y-6343888D02*
X2248753Y-6362936D01*
X2248753Y-6362936D02*
X2239229Y-6372460D01*
X2239229Y-6372460D02*
X2220182Y-6381984D01*
X2220182Y-6381984D02*
X2201134Y-6381984D01*
X2201134Y-6381984D02*
X2182087Y-6372460D01*
X2182087Y-6372460D02*
X2172563Y-6362936D01*
X2172563Y-6362936D02*
X2163039Y-6343888D01*
X2163039Y-6343888D02*
X2153515Y-6305793D01*
X2153515Y-6305793D02*
X2153515Y-6258174D01*
X2153515Y-6258174D02*
X2163039Y-6220079D01*
X2163039Y-6220079D02*
X2172563Y-6201031D01*
X2172563Y-6201031D02*
X2182087Y-6191508D01*
X2182087Y-6191508D02*
X2201134Y-6181984D01*
X2353515Y-6362936D02*
X2363039Y-6372460D01*
X2363039Y-6372460D02*
X2353515Y-6381984D01*
X2353515Y-6381984D02*
X2343991Y-6372460D01*
X2343991Y-6372460D02*
X2353515Y-6362936D01*
X2353515Y-6362936D02*
X2353515Y-6381984D01*
X2553515Y-6381984D02*
X2439229Y-6381984D01*
X2496372Y-6381984D02*
X2496372Y-6181984D01*
X2496372Y-6181984D02*
X2477325Y-6210555D01*
X2477325Y-6210555D02*
X2458277Y-6229603D01*
X2458277Y-6229603D02*
X2439229Y-6239127D01*
X2629706Y-6201031D02*
X2639229Y-6191508D01*
X2639229Y-6191508D02*
X2658277Y-6181984D01*
X2658277Y-6181984D02*
X2705896Y-6181984D01*
X2705896Y-6181984D02*
X2724944Y-6191508D01*
X2724944Y-6191508D02*
X2734468Y-6201031D01*
X2734468Y-6201031D02*
X2743991Y-6220079D01*
X2743991Y-6220079D02*
X2743991Y-6239127D01*
X2743991Y-6239127D02*
X2734468Y-6267698D01*
X2734468Y-6267698D02*
X2620182Y-6381984D01*
X2620182Y-6381984D02*
X2743991Y-6381984D01*
X2915420Y-6181984D02*
X2877325Y-6181984D01*
X2877325Y-6181984D02*
X2858277Y-6191508D01*
X2858277Y-6191508D02*
X2848753Y-6201031D01*
X2848753Y-6201031D02*
X2829706Y-6229603D01*
X2829706Y-6229603D02*
X2820182Y-6267698D01*
X2820182Y-6267698D02*
X2820182Y-6343888D01*
X2820182Y-6343888D02*
X2829706Y-6362936D01*
X2829706Y-6362936D02*
X2839229Y-6372460D01*
X2839229Y-6372460D02*
X2858277Y-6381984D01*
X2858277Y-6381984D02*
X2896372Y-6381984D01*
X2896372Y-6381984D02*
X2915420Y-6372460D01*
X2915420Y-6372460D02*
X2924944Y-6362936D01*
X2924944Y-6362936D02*
X2934467Y-6343888D01*
X2934467Y-6343888D02*
X2934467Y-6296269D01*
X2934467Y-6296269D02*
X2924944Y-6277222D01*
X2924944Y-6277222D02*
X2915420Y-6267698D01*
X2915420Y-6267698D02*
X2896372Y-6258174D01*
X2896372Y-6258174D02*
X2858277Y-6258174D01*
X2858277Y-6258174D02*
X2839229Y-6267698D01*
X2839229Y-6267698D02*
X2829706Y-6277222D01*
X2829706Y-6277222D02*
X2820182Y-6296269D01*
X3058277Y-6181984D02*
X3077325Y-6181984D01*
X3077325Y-6181984D02*
X3096372Y-6191508D01*
X3096372Y-6191508D02*
X3105896Y-6201031D01*
X3105896Y-6201031D02*
X3115420Y-6220079D01*
X3115420Y-6220079D02*
X3124944Y-6258174D01*
X3124944Y-6258174D02*
X3124944Y-6305793D01*
X3124944Y-6305793D02*
X3115420Y-6343888D01*
X3115420Y-6343888D02*
X3105896Y-6362936D01*
X3105896Y-6362936D02*
X3096372Y-6372460D01*
X3096372Y-6372460D02*
X3077325Y-6381984D01*
X3077325Y-6381984D02*
X3058277Y-6381984D01*
X3058277Y-6381984D02*
X3039229Y-6372460D01*
X3039229Y-6372460D02*
X3029706Y-6362936D01*
X3029706Y-6362936D02*
X3020182Y-6343888D01*
X3020182Y-6343888D02*
X3010658Y-6305793D01*
X3010658Y-6305793D02*
X3010658Y-6258174D01*
X3010658Y-6258174D02*
X3020182Y-6220079D01*
X3020182Y-6220079D02*
X3029706Y-6201031D01*
X3029706Y-6201031D02*
X3039229Y-6191508D01*
X3039229Y-6191508D02*
X3058277Y-6181984D01*
X3201134Y-6181984D02*
X3201134Y-6220079D01*
X3277325Y-6181984D02*
X3277325Y-6220079D01*
X3572563Y-6458174D02*
X3563039Y-6448650D01*
X3563039Y-6448650D02*
X3543991Y-6420079D01*
X3543991Y-6420079D02*
X3534468Y-6401031D01*
X3534468Y-6401031D02*
X3524944Y-6372460D01*
X3524944Y-6372460D02*
X3515420Y-6324841D01*
X3515420Y-6324841D02*
X3515420Y-6286746D01*
X3515420Y-6286746D02*
X3524944Y-6239127D01*
X3524944Y-6239127D02*
X3534468Y-6210555D01*
X3534468Y-6210555D02*
X3543991Y-6191508D01*
X3543991Y-6191508D02*
X3563039Y-6162936D01*
X3563039Y-6162936D02*
X3572563Y-6153412D01*
X3734468Y-6248650D02*
X3734468Y-6381984D01*
X3686848Y-6172460D02*
X3639229Y-6315317D01*
X3639229Y-6315317D02*
X3763039Y-6315317D01*
X3991610Y-6381984D02*
X3991610Y-6181984D01*
X4077325Y-6381984D02*
X4077325Y-6277222D01*
X4077325Y-6277222D02*
X4067801Y-6258174D01*
X4067801Y-6258174D02*
X4048753Y-6248650D01*
X4048753Y-6248650D02*
X4020182Y-6248650D01*
X4020182Y-6248650D02*
X4001134Y-6258174D01*
X4001134Y-6258174D02*
X3991610Y-6267698D01*
X4201134Y-6381984D02*
X4182087Y-6372460D01*
X4182087Y-6372460D02*
X4172563Y-6362936D01*
X4172563Y-6362936D02*
X4163039Y-6343888D01*
X4163039Y-6343888D02*
X4163039Y-6286746D01*
X4163039Y-6286746D02*
X4172563Y-6267698D01*
X4172563Y-6267698D02*
X4182087Y-6258174D01*
X4182087Y-6258174D02*
X4201134Y-6248650D01*
X4201134Y-6248650D02*
X4229706Y-6248650D01*
X4229706Y-6248650D02*
X4248753Y-6258174D01*
X4248753Y-6258174D02*
X4258277Y-6267698D01*
X4258277Y-6267698D02*
X4267801Y-6286746D01*
X4267801Y-6286746D02*
X4267801Y-6343888D01*
X4267801Y-6343888D02*
X4258277Y-6362936D01*
X4258277Y-6362936D02*
X4248753Y-6372460D01*
X4248753Y-6372460D02*
X4229706Y-6381984D01*
X4229706Y-6381984D02*
X4201134Y-6381984D01*
X4382087Y-6381984D02*
X4363039Y-6372460D01*
X4363039Y-6372460D02*
X4353515Y-6353412D01*
X4353515Y-6353412D02*
X4353515Y-6181984D01*
X4534468Y-6372460D02*
X4515420Y-6381984D01*
X4515420Y-6381984D02*
X4477325Y-6381984D01*
X4477325Y-6381984D02*
X4458277Y-6372460D01*
X4458277Y-6372460D02*
X4448753Y-6353412D01*
X4448753Y-6353412D02*
X4448753Y-6277222D01*
X4448753Y-6277222D02*
X4458277Y-6258174D01*
X4458277Y-6258174D02*
X4477325Y-6248650D01*
X4477325Y-6248650D02*
X4515420Y-6248650D01*
X4515420Y-6248650D02*
X4534468Y-6258174D01*
X4534468Y-6258174D02*
X4543992Y-6277222D01*
X4543992Y-6277222D02*
X4543992Y-6296269D01*
X4543992Y-6296269D02*
X4448753Y-6315317D01*
X4620182Y-6372460D02*
X4639230Y-6381984D01*
X4639230Y-6381984D02*
X4677325Y-6381984D01*
X4677325Y-6381984D02*
X4696373Y-6372460D01*
X4696373Y-6372460D02*
X4705896Y-6353412D01*
X4705896Y-6353412D02*
X4705896Y-6343888D01*
X4705896Y-6343888D02*
X4696373Y-6324841D01*
X4696373Y-6324841D02*
X4677325Y-6315317D01*
X4677325Y-6315317D02*
X4648753Y-6315317D01*
X4648753Y-6315317D02*
X4629706Y-6305793D01*
X4629706Y-6305793D02*
X4620182Y-6286746D01*
X4620182Y-6286746D02*
X4620182Y-6277222D01*
X4620182Y-6277222D02*
X4629706Y-6258174D01*
X4629706Y-6258174D02*
X4648753Y-6248650D01*
X4648753Y-6248650D02*
X4677325Y-6248650D01*
X4677325Y-6248650D02*
X4696373Y-6258174D01*
X4772563Y-6458174D02*
X4782087Y-6448650D01*
X4782087Y-6448650D02*
X4801134Y-6420079D01*
X4801134Y-6420079D02*
X4810658Y-6401031D01*
X4810658Y-6401031D02*
X4820182Y-6372460D01*
X4820182Y-6372460D02*
X4829706Y-6324841D01*
X4829706Y-6324841D02*
X4829706Y-6286746D01*
X4829706Y-6286746D02*
X4820182Y-6239127D01*
X4820182Y-6239127D02*
X4810658Y-6210555D01*
X4810658Y-6210555D02*
X4801134Y-6191508D01*
X4801134Y-6191508D02*
X4782087Y-6162936D01*
X4782087Y-6162936D02*
X4772563Y-6153412D01*
X5134468Y-6458174D02*
X5124944Y-6448650D01*
X5124944Y-6448650D02*
X5105896Y-6420079D01*
X5105896Y-6420079D02*
X5096373Y-6401031D01*
X5096373Y-6401031D02*
X5086849Y-6372460D01*
X5086849Y-6372460D02*
X5077325Y-6324841D01*
X5077325Y-6324841D02*
X5077325Y-6286746D01*
X5077325Y-6286746D02*
X5086849Y-6239127D01*
X5086849Y-6239127D02*
X5096373Y-6210555D01*
X5096373Y-6210555D02*
X5105896Y-6191508D01*
X5105896Y-6191508D02*
X5124944Y-6162936D01*
X5124944Y-6162936D02*
X5134468Y-6153412D01*
X5210658Y-6248650D02*
X5210658Y-6381984D01*
X5210658Y-6267698D02*
X5220182Y-6258174D01*
X5220182Y-6258174D02*
X5239230Y-6248650D01*
X5239230Y-6248650D02*
X5267801Y-6248650D01*
X5267801Y-6248650D02*
X5286849Y-6258174D01*
X5286849Y-6258174D02*
X5296373Y-6277222D01*
X5296373Y-6277222D02*
X5296373Y-6381984D01*
X5420182Y-6381984D02*
X5401134Y-6372460D01*
X5401134Y-6372460D02*
X5391611Y-6362936D01*
X5391611Y-6362936D02*
X5382087Y-6343888D01*
X5382087Y-6343888D02*
X5382087Y-6286746D01*
X5382087Y-6286746D02*
X5391611Y-6267698D01*
X5391611Y-6267698D02*
X5401134Y-6258174D01*
X5401134Y-6258174D02*
X5420182Y-6248650D01*
X5420182Y-6248650D02*
X5448754Y-6248650D01*
X5448754Y-6248650D02*
X5467801Y-6258174D01*
X5467801Y-6258174D02*
X5477325Y-6267698D01*
X5477325Y-6267698D02*
X5486849Y-6286746D01*
X5486849Y-6286746D02*
X5486849Y-6343888D01*
X5486849Y-6343888D02*
X5477325Y-6362936D01*
X5477325Y-6362936D02*
X5467801Y-6372460D01*
X5467801Y-6372460D02*
X5448754Y-6381984D01*
X5448754Y-6381984D02*
X5420182Y-6381984D01*
X5543992Y-6248650D02*
X5620182Y-6248650D01*
X5572563Y-6181984D02*
X5572563Y-6353412D01*
X5572563Y-6353412D02*
X5582087Y-6372460D01*
X5582087Y-6372460D02*
X5601134Y-6381984D01*
X5601134Y-6381984D02*
X5620182Y-6381984D01*
X5839230Y-6248650D02*
X5839230Y-6448650D01*
X5839230Y-6258174D02*
X5858277Y-6248650D01*
X5858277Y-6248650D02*
X5896373Y-6248650D01*
X5896373Y-6248650D02*
X5915420Y-6258174D01*
X5915420Y-6258174D02*
X5924944Y-6267698D01*
X5924944Y-6267698D02*
X5934468Y-6286746D01*
X5934468Y-6286746D02*
X5934468Y-6343888D01*
X5934468Y-6343888D02*
X5924944Y-6362936D01*
X5924944Y-6362936D02*
X5915420Y-6372460D01*
X5915420Y-6372460D02*
X5896373Y-6381984D01*
X5896373Y-6381984D02*
X5858277Y-6381984D01*
X5858277Y-6381984D02*
X5839230Y-6372460D01*
X6048753Y-6381984D02*
X6029706Y-6372460D01*
X6029706Y-6372460D02*
X6020182Y-6353412D01*
X6020182Y-6353412D02*
X6020182Y-6181984D01*
X6210658Y-6381984D02*
X6210658Y-6277222D01*
X6210658Y-6277222D02*
X6201134Y-6258174D01*
X6201134Y-6258174D02*
X6182087Y-6248650D01*
X6182087Y-6248650D02*
X6143992Y-6248650D01*
X6143992Y-6248650D02*
X6124944Y-6258174D01*
X6210658Y-6372460D02*
X6191611Y-6381984D01*
X6191611Y-6381984D02*
X6143992Y-6381984D01*
X6143992Y-6381984D02*
X6124944Y-6372460D01*
X6124944Y-6372460D02*
X6115420Y-6353412D01*
X6115420Y-6353412D02*
X6115420Y-6334365D01*
X6115420Y-6334365D02*
X6124944Y-6315317D01*
X6124944Y-6315317D02*
X6143992Y-6305793D01*
X6143992Y-6305793D02*
X6191611Y-6305793D01*
X6191611Y-6305793D02*
X6210658Y-6296269D01*
X6277325Y-6248650D02*
X6353515Y-6248650D01*
X6305896Y-6181984D02*
X6305896Y-6353412D01*
X6305896Y-6353412D02*
X6315420Y-6372460D01*
X6315420Y-6372460D02*
X6334468Y-6381984D01*
X6334468Y-6381984D02*
X6353515Y-6381984D01*
X6496373Y-6372460D02*
X6477325Y-6381984D01*
X6477325Y-6381984D02*
X6439230Y-6381984D01*
X6439230Y-6381984D02*
X6420182Y-6372460D01*
X6420182Y-6372460D02*
X6410658Y-6353412D01*
X6410658Y-6353412D02*
X6410658Y-6277222D01*
X6410658Y-6277222D02*
X6420182Y-6258174D01*
X6420182Y-6258174D02*
X6439230Y-6248650D01*
X6439230Y-6248650D02*
X6477325Y-6248650D01*
X6477325Y-6248650D02*
X6496373Y-6258174D01*
X6496373Y-6258174D02*
X6505896Y-6277222D01*
X6505896Y-6277222D02*
X6505896Y-6296269D01*
X6505896Y-6296269D02*
X6410658Y-6315317D01*
X6677325Y-6381984D02*
X6677325Y-6181984D01*
X6677325Y-6372460D02*
X6658277Y-6381984D01*
X6658277Y-6381984D02*
X6620182Y-6381984D01*
X6620182Y-6381984D02*
X6601134Y-6372460D01*
X6601134Y-6372460D02*
X6591611Y-6362936D01*
X6591611Y-6362936D02*
X6582087Y-6343888D01*
X6582087Y-6343888D02*
X6582087Y-6286746D01*
X6582087Y-6286746D02*
X6591611Y-6267698D01*
X6591611Y-6267698D02*
X6601134Y-6258174D01*
X6601134Y-6258174D02*
X6620182Y-6248650D01*
X6620182Y-6248650D02*
X6658277Y-6248650D01*
X6658277Y-6248650D02*
X6677325Y-6258174D01*
X6753515Y-6458174D02*
X6763039Y-6448650D01*
X6763039Y-6448650D02*
X6782087Y-6420079D01*
X6782087Y-6420079D02*
X6791611Y-6401031D01*
X6791611Y-6401031D02*
X6801134Y-6372460D01*
X6801134Y-6372460D02*
X6810658Y-6324841D01*
X6810658Y-6324841D02*
X6810658Y-6286746D01*
X6810658Y-6286746D02*
X6801134Y-6239127D01*
X6801134Y-6239127D02*
X6791611Y-6210555D01*
X6791611Y-6210555D02*
X6782087Y-6191508D01*
X6782087Y-6191508D02*
X6763039Y-6162936D01*
X6763039Y-6162936D02*
X6753515Y-6153412D01*
M02*
