%TF.GenerationSoftware,KiCad,Pcbnew,7.0.6*%
%TF.CreationDate,2024-01-14T11:56:24-05:00*%
%TF.ProjectId,Crystal Shield,43727973-7461-46c2-9053-6869656c642e,rev?*%
%TF.SameCoordinates,PX1312d00PY1312d00*%
%TF.FileFunction,Legend,Bot*%
%TF.FilePolarity,Positive*%
%FSLAX46Y46*%
G04 Gerber Fmt 4.6, Leading zero omitted, Abs format (unit mm)*
G04 Created by KiCad (PCBNEW 7.0.6) date 2024-01-14 11:56:24*
%MOMM*%
%LPD*%
G01*
G04 APERTURE LIST*
%ADD10C,0.150000*%
%ADD11C,0.600000*%
%ADD12C,0.120000*%
G04 APERTURE END LIST*
D10*
X67369819Y-27122493D02*
X68084104Y-27122493D01*
X68084104Y-27122493D02*
X68226961Y-27074874D01*
X68226961Y-27074874D02*
X68322200Y-26979636D01*
X68322200Y-26979636D02*
X68369819Y-26836779D01*
X68369819Y-26836779D02*
X68369819Y-26741541D01*
X68369819Y-28074874D02*
X68369819Y-27598684D01*
X68369819Y-27598684D02*
X67369819Y-27598684D01*
X68274580Y-28979636D02*
X68322200Y-28932017D01*
X68322200Y-28932017D02*
X68369819Y-28789160D01*
X68369819Y-28789160D02*
X68369819Y-28693922D01*
X68369819Y-28693922D02*
X68322200Y-28551065D01*
X68322200Y-28551065D02*
X68226961Y-28455827D01*
X68226961Y-28455827D02*
X68131723Y-28408208D01*
X68131723Y-28408208D02*
X67941247Y-28360589D01*
X67941247Y-28360589D02*
X67798390Y-28360589D01*
X67798390Y-28360589D02*
X67607914Y-28408208D01*
X67607914Y-28408208D02*
X67512676Y-28455827D01*
X67512676Y-28455827D02*
X67417438Y-28551065D01*
X67417438Y-28551065D02*
X67369819Y-28693922D01*
X67369819Y-28693922D02*
X67369819Y-28789160D01*
X67369819Y-28789160D02*
X67417438Y-28932017D01*
X67417438Y-28932017D02*
X67465057Y-28979636D01*
X67369819Y-29693922D02*
X68084104Y-29693922D01*
X68084104Y-29693922D02*
X68226961Y-29646303D01*
X68226961Y-29646303D02*
X68322200Y-29551065D01*
X68322200Y-29551065D02*
X68369819Y-29408208D01*
X68369819Y-29408208D02*
X68369819Y-29312970D01*
X68369819Y-30646303D02*
X68369819Y-30170113D01*
X68369819Y-30170113D02*
X67369819Y-30170113D01*
X68274580Y-31551065D02*
X68322200Y-31503446D01*
X68322200Y-31503446D02*
X68369819Y-31360589D01*
X68369819Y-31360589D02*
X68369819Y-31265351D01*
X68369819Y-31265351D02*
X68322200Y-31122494D01*
X68322200Y-31122494D02*
X68226961Y-31027256D01*
X68226961Y-31027256D02*
X68131723Y-30979637D01*
X68131723Y-30979637D02*
X67941247Y-30932018D01*
X67941247Y-30932018D02*
X67798390Y-30932018D01*
X67798390Y-30932018D02*
X67607914Y-30979637D01*
X67607914Y-30979637D02*
X67512676Y-31027256D01*
X67512676Y-31027256D02*
X67417438Y-31122494D01*
X67417438Y-31122494D02*
X67369819Y-31265351D01*
X67369819Y-31265351D02*
X67369819Y-31360589D01*
X67369819Y-31360589D02*
X67417438Y-31503446D01*
X67417438Y-31503446D02*
X67465057Y-31551065D01*
X67369819Y-32265351D02*
X68084104Y-32265351D01*
X68084104Y-32265351D02*
X68226961Y-32217732D01*
X68226961Y-32217732D02*
X68322200Y-32122494D01*
X68322200Y-32122494D02*
X68369819Y-31979637D01*
X68369819Y-31979637D02*
X68369819Y-31884399D01*
X68369819Y-33217732D02*
X68369819Y-32741542D01*
X68369819Y-32741542D02*
X67369819Y-32741542D01*
X68274580Y-34122494D02*
X68322200Y-34074875D01*
X68322200Y-34074875D02*
X68369819Y-33932018D01*
X68369819Y-33932018D02*
X68369819Y-33836780D01*
X68369819Y-33836780D02*
X68322200Y-33693923D01*
X68322200Y-33693923D02*
X68226961Y-33598685D01*
X68226961Y-33598685D02*
X68131723Y-33551066D01*
X68131723Y-33551066D02*
X67941247Y-33503447D01*
X67941247Y-33503447D02*
X67798390Y-33503447D01*
X67798390Y-33503447D02*
X67607914Y-33551066D01*
X67607914Y-33551066D02*
X67512676Y-33598685D01*
X67512676Y-33598685D02*
X67417438Y-33693923D01*
X67417438Y-33693923D02*
X67369819Y-33836780D01*
X67369819Y-33836780D02*
X67369819Y-33932018D01*
X67369819Y-33932018D02*
X67417438Y-34074875D01*
X67417438Y-34074875D02*
X67465057Y-34122494D01*
X67369819Y-34836780D02*
X68084104Y-34836780D01*
X68084104Y-34836780D02*
X68226961Y-34789161D01*
X68226961Y-34789161D02*
X68322200Y-34693923D01*
X68322200Y-34693923D02*
X68369819Y-34551066D01*
X68369819Y-34551066D02*
X68369819Y-34455828D01*
X68369819Y-35789161D02*
X68369819Y-35312971D01*
X68369819Y-35312971D02*
X67369819Y-35312971D01*
X68274580Y-36693923D02*
X68322200Y-36646304D01*
X68322200Y-36646304D02*
X68369819Y-36503447D01*
X68369819Y-36503447D02*
X68369819Y-36408209D01*
X68369819Y-36408209D02*
X68322200Y-36265352D01*
X68322200Y-36265352D02*
X68226961Y-36170114D01*
X68226961Y-36170114D02*
X68131723Y-36122495D01*
X68131723Y-36122495D02*
X67941247Y-36074876D01*
X67941247Y-36074876D02*
X67798390Y-36074876D01*
X67798390Y-36074876D02*
X67607914Y-36122495D01*
X67607914Y-36122495D02*
X67512676Y-36170114D01*
X67512676Y-36170114D02*
X67417438Y-36265352D01*
X67417438Y-36265352D02*
X67369819Y-36408209D01*
X67369819Y-36408209D02*
X67369819Y-36503447D01*
X67369819Y-36503447D02*
X67417438Y-36646304D01*
X67417438Y-36646304D02*
X67465057Y-36693923D01*
D11*
X42337142Y-16445942D02*
X42479999Y-16588800D01*
X42479999Y-16588800D02*
X42908571Y-16731657D01*
X42908571Y-16731657D02*
X43194285Y-16731657D01*
X43194285Y-16731657D02*
X43622856Y-16588800D01*
X43622856Y-16588800D02*
X43908571Y-16303085D01*
X43908571Y-16303085D02*
X44051428Y-16017371D01*
X44051428Y-16017371D02*
X44194285Y-15445942D01*
X44194285Y-15445942D02*
X44194285Y-15017371D01*
X44194285Y-15017371D02*
X44051428Y-14445942D01*
X44051428Y-14445942D02*
X43908571Y-14160228D01*
X43908571Y-14160228D02*
X43622856Y-13874514D01*
X43622856Y-13874514D02*
X43194285Y-13731657D01*
X43194285Y-13731657D02*
X42908571Y-13731657D01*
X42908571Y-13731657D02*
X42479999Y-13874514D01*
X42479999Y-13874514D02*
X42337142Y-14017371D01*
X41051428Y-16731657D02*
X41051428Y-14731657D01*
X41051428Y-15303085D02*
X40908571Y-15017371D01*
X40908571Y-15017371D02*
X40765714Y-14874514D01*
X40765714Y-14874514D02*
X40479999Y-14731657D01*
X40479999Y-14731657D02*
X40194285Y-14731657D01*
X39479999Y-14731657D02*
X38765713Y-16731657D01*
X38051428Y-14731657D02*
X38765713Y-16731657D01*
X38765713Y-16731657D02*
X39051428Y-17445942D01*
X39051428Y-17445942D02*
X39194285Y-17588800D01*
X39194285Y-17588800D02*
X39479999Y-17731657D01*
X37051428Y-16588800D02*
X36765714Y-16731657D01*
X36765714Y-16731657D02*
X36194285Y-16731657D01*
X36194285Y-16731657D02*
X35908571Y-16588800D01*
X35908571Y-16588800D02*
X35765714Y-16303085D01*
X35765714Y-16303085D02*
X35765714Y-16160228D01*
X35765714Y-16160228D02*
X35908571Y-15874514D01*
X35908571Y-15874514D02*
X36194285Y-15731657D01*
X36194285Y-15731657D02*
X36622857Y-15731657D01*
X36622857Y-15731657D02*
X36908571Y-15588800D01*
X36908571Y-15588800D02*
X37051428Y-15303085D01*
X37051428Y-15303085D02*
X37051428Y-15160228D01*
X37051428Y-15160228D02*
X36908571Y-14874514D01*
X36908571Y-14874514D02*
X36622857Y-14731657D01*
X36622857Y-14731657D02*
X36194285Y-14731657D01*
X36194285Y-14731657D02*
X35908571Y-14874514D01*
X34908571Y-14731657D02*
X33765714Y-14731657D01*
X34480000Y-13731657D02*
X34480000Y-16303085D01*
X34480000Y-16303085D02*
X34337143Y-16588800D01*
X34337143Y-16588800D02*
X34051428Y-16731657D01*
X34051428Y-16731657D02*
X33765714Y-16731657D01*
X31480000Y-16731657D02*
X31480000Y-15160228D01*
X31480000Y-15160228D02*
X31622857Y-14874514D01*
X31622857Y-14874514D02*
X31908571Y-14731657D01*
X31908571Y-14731657D02*
X32480000Y-14731657D01*
X32480000Y-14731657D02*
X32765714Y-14874514D01*
X31480000Y-16588800D02*
X31765714Y-16731657D01*
X31765714Y-16731657D02*
X32480000Y-16731657D01*
X32480000Y-16731657D02*
X32765714Y-16588800D01*
X32765714Y-16588800D02*
X32908571Y-16303085D01*
X32908571Y-16303085D02*
X32908571Y-16017371D01*
X32908571Y-16017371D02*
X32765714Y-15731657D01*
X32765714Y-15731657D02*
X32480000Y-15588800D01*
X32480000Y-15588800D02*
X31765714Y-15588800D01*
X31765714Y-15588800D02*
X31480000Y-15445942D01*
X29622856Y-16731657D02*
X29908571Y-16588800D01*
X29908571Y-16588800D02*
X30051428Y-16303085D01*
X30051428Y-16303085D02*
X30051428Y-13731657D01*
X48622856Y-18561657D02*
X47908570Y-21561657D01*
X47908570Y-21561657D02*
X47337142Y-19418800D01*
X47337142Y-19418800D02*
X46765713Y-21561657D01*
X46765713Y-21561657D02*
X46051428Y-18561657D01*
X44908571Y-21561657D02*
X44908571Y-19561657D01*
X44908571Y-18561657D02*
X45051428Y-18704514D01*
X45051428Y-18704514D02*
X44908571Y-18847371D01*
X44908571Y-18847371D02*
X44765714Y-18704514D01*
X44765714Y-18704514D02*
X44908571Y-18561657D01*
X44908571Y-18561657D02*
X44908571Y-18847371D01*
X43908571Y-19561657D02*
X42765714Y-19561657D01*
X43480000Y-21561657D02*
X43480000Y-18990228D01*
X43480000Y-18990228D02*
X43337143Y-18704514D01*
X43337143Y-18704514D02*
X43051428Y-18561657D01*
X43051428Y-18561657D02*
X42765714Y-18561657D01*
X41765714Y-21561657D02*
X41765714Y-19561657D01*
X41765714Y-18561657D02*
X41908571Y-18704514D01*
X41908571Y-18704514D02*
X41765714Y-18847371D01*
X41765714Y-18847371D02*
X41622857Y-18704514D01*
X41622857Y-18704514D02*
X41765714Y-18561657D01*
X41765714Y-18561657D02*
X41765714Y-18847371D01*
X38194286Y-21418800D02*
X37765715Y-21561657D01*
X37765715Y-21561657D02*
X37051429Y-21561657D01*
X37051429Y-21561657D02*
X36765715Y-21418800D01*
X36765715Y-21418800D02*
X36622857Y-21275942D01*
X36622857Y-21275942D02*
X36480000Y-20990228D01*
X36480000Y-20990228D02*
X36480000Y-20704514D01*
X36480000Y-20704514D02*
X36622857Y-20418800D01*
X36622857Y-20418800D02*
X36765715Y-20275942D01*
X36765715Y-20275942D02*
X37051429Y-20133085D01*
X37051429Y-20133085D02*
X37622857Y-19990228D01*
X37622857Y-19990228D02*
X37908572Y-19847371D01*
X37908572Y-19847371D02*
X38051429Y-19704514D01*
X38051429Y-19704514D02*
X38194286Y-19418800D01*
X38194286Y-19418800D02*
X38194286Y-19133085D01*
X38194286Y-19133085D02*
X38051429Y-18847371D01*
X38051429Y-18847371D02*
X37908572Y-18704514D01*
X37908572Y-18704514D02*
X37622857Y-18561657D01*
X37622857Y-18561657D02*
X36908572Y-18561657D01*
X36908572Y-18561657D02*
X36480000Y-18704514D01*
X35194286Y-21561657D02*
X35194286Y-18561657D01*
X33908572Y-21561657D02*
X33908572Y-19990228D01*
X33908572Y-19990228D02*
X34051429Y-19704514D01*
X34051429Y-19704514D02*
X34337143Y-19561657D01*
X34337143Y-19561657D02*
X34765714Y-19561657D01*
X34765714Y-19561657D02*
X35051429Y-19704514D01*
X35051429Y-19704514D02*
X35194286Y-19847371D01*
X32480000Y-21561657D02*
X32480000Y-19561657D01*
X32480000Y-18561657D02*
X32622857Y-18704514D01*
X32622857Y-18704514D02*
X32480000Y-18847371D01*
X32480000Y-18847371D02*
X32337143Y-18704514D01*
X32337143Y-18704514D02*
X32480000Y-18561657D01*
X32480000Y-18561657D02*
X32480000Y-18847371D01*
X29908572Y-21418800D02*
X30194286Y-21561657D01*
X30194286Y-21561657D02*
X30765715Y-21561657D01*
X30765715Y-21561657D02*
X31051429Y-21418800D01*
X31051429Y-21418800D02*
X31194286Y-21133085D01*
X31194286Y-21133085D02*
X31194286Y-19990228D01*
X31194286Y-19990228D02*
X31051429Y-19704514D01*
X31051429Y-19704514D02*
X30765715Y-19561657D01*
X30765715Y-19561657D02*
X30194286Y-19561657D01*
X30194286Y-19561657D02*
X29908572Y-19704514D01*
X29908572Y-19704514D02*
X29765715Y-19990228D01*
X29765715Y-19990228D02*
X29765715Y-20275942D01*
X29765715Y-20275942D02*
X31194286Y-20561657D01*
X28051428Y-21561657D02*
X28337143Y-21418800D01*
X28337143Y-21418800D02*
X28480000Y-21133085D01*
X28480000Y-21133085D02*
X28480000Y-18561657D01*
X25622857Y-21561657D02*
X25622857Y-18561657D01*
X25622857Y-21418800D02*
X25908571Y-21561657D01*
X25908571Y-21561657D02*
X26479999Y-21561657D01*
X26479999Y-21561657D02*
X26765714Y-21418800D01*
X26765714Y-21418800D02*
X26908571Y-21275942D01*
X26908571Y-21275942D02*
X27051428Y-20990228D01*
X27051428Y-20990228D02*
X27051428Y-20133085D01*
X27051428Y-20133085D02*
X26908571Y-19847371D01*
X26908571Y-19847371D02*
X26765714Y-19704514D01*
X26765714Y-19704514D02*
X26479999Y-19561657D01*
X26479999Y-19561657D02*
X25908571Y-19561657D01*
X25908571Y-19561657D02*
X25622857Y-19704514D01*
D10*
X47058571Y-23416200D02*
X46887143Y-23473342D01*
X46887143Y-23473342D02*
X46601428Y-23473342D01*
X46601428Y-23473342D02*
X46487143Y-23416200D01*
X46487143Y-23416200D02*
X46430000Y-23359057D01*
X46430000Y-23359057D02*
X46372857Y-23244771D01*
X46372857Y-23244771D02*
X46372857Y-23130485D01*
X46372857Y-23130485D02*
X46430000Y-23016200D01*
X46430000Y-23016200D02*
X46487143Y-22959057D01*
X46487143Y-22959057D02*
X46601428Y-22901914D01*
X46601428Y-22901914D02*
X46830000Y-22844771D01*
X46830000Y-22844771D02*
X46944285Y-22787628D01*
X46944285Y-22787628D02*
X47001428Y-22730485D01*
X47001428Y-22730485D02*
X47058571Y-22616200D01*
X47058571Y-22616200D02*
X47058571Y-22501914D01*
X47058571Y-22501914D02*
X47001428Y-22387628D01*
X47001428Y-22387628D02*
X46944285Y-22330485D01*
X46944285Y-22330485D02*
X46830000Y-22273342D01*
X46830000Y-22273342D02*
X46544285Y-22273342D01*
X46544285Y-22273342D02*
X46372857Y-22330485D01*
X45401428Y-23416200D02*
X45515714Y-23473342D01*
X45515714Y-23473342D02*
X45744286Y-23473342D01*
X45744286Y-23473342D02*
X45858571Y-23416200D01*
X45858571Y-23416200D02*
X45915714Y-23301914D01*
X45915714Y-23301914D02*
X45915714Y-22844771D01*
X45915714Y-22844771D02*
X45858571Y-22730485D01*
X45858571Y-22730485D02*
X45744286Y-22673342D01*
X45744286Y-22673342D02*
X45515714Y-22673342D01*
X45515714Y-22673342D02*
X45401428Y-22730485D01*
X45401428Y-22730485D02*
X45344286Y-22844771D01*
X45344286Y-22844771D02*
X45344286Y-22959057D01*
X45344286Y-22959057D02*
X45915714Y-23073342D01*
X44830000Y-23473342D02*
X44830000Y-22673342D01*
X44830000Y-22901914D02*
X44772857Y-22787628D01*
X44772857Y-22787628D02*
X44715715Y-22730485D01*
X44715715Y-22730485D02*
X44601429Y-22673342D01*
X44601429Y-22673342D02*
X44487143Y-22673342D01*
X43572858Y-23473342D02*
X43572858Y-22844771D01*
X43572858Y-22844771D02*
X43630000Y-22730485D01*
X43630000Y-22730485D02*
X43744286Y-22673342D01*
X43744286Y-22673342D02*
X43972858Y-22673342D01*
X43972858Y-22673342D02*
X44087143Y-22730485D01*
X43572858Y-23416200D02*
X43687143Y-23473342D01*
X43687143Y-23473342D02*
X43972858Y-23473342D01*
X43972858Y-23473342D02*
X44087143Y-23416200D01*
X44087143Y-23416200D02*
X44144286Y-23301914D01*
X44144286Y-23301914D02*
X44144286Y-23187628D01*
X44144286Y-23187628D02*
X44087143Y-23073342D01*
X44087143Y-23073342D02*
X43972858Y-23016200D01*
X43972858Y-23016200D02*
X43687143Y-23016200D01*
X43687143Y-23016200D02*
X43572858Y-22959057D01*
X43001429Y-22673342D02*
X43001429Y-23873342D01*
X43001429Y-22730485D02*
X42887144Y-22673342D01*
X42887144Y-22673342D02*
X42658572Y-22673342D01*
X42658572Y-22673342D02*
X42544286Y-22730485D01*
X42544286Y-22730485D02*
X42487144Y-22787628D01*
X42487144Y-22787628D02*
X42430001Y-22901914D01*
X42430001Y-22901914D02*
X42430001Y-23244771D01*
X42430001Y-23244771D02*
X42487144Y-23359057D01*
X42487144Y-23359057D02*
X42544286Y-23416200D01*
X42544286Y-23416200D02*
X42658572Y-23473342D01*
X42658572Y-23473342D02*
X42887144Y-23473342D01*
X42887144Y-23473342D02*
X43001429Y-23416200D01*
X41915715Y-23473342D02*
X41915715Y-22273342D01*
X41401430Y-23473342D02*
X41401430Y-22844771D01*
X41401430Y-22844771D02*
X41458572Y-22730485D01*
X41458572Y-22730485D02*
X41572858Y-22673342D01*
X41572858Y-22673342D02*
X41744287Y-22673342D01*
X41744287Y-22673342D02*
X41858572Y-22730485D01*
X41858572Y-22730485D02*
X41915715Y-22787628D01*
X40830001Y-23473342D02*
X40830001Y-22673342D01*
X40830001Y-22273342D02*
X40887144Y-22330485D01*
X40887144Y-22330485D02*
X40830001Y-22387628D01*
X40830001Y-22387628D02*
X40772858Y-22330485D01*
X40772858Y-22330485D02*
X40830001Y-22273342D01*
X40830001Y-22273342D02*
X40830001Y-22387628D01*
X40258572Y-23473342D02*
X40258572Y-22673342D01*
X40258572Y-22787628D02*
X40201429Y-22730485D01*
X40201429Y-22730485D02*
X40087144Y-22673342D01*
X40087144Y-22673342D02*
X39915715Y-22673342D01*
X39915715Y-22673342D02*
X39801429Y-22730485D01*
X39801429Y-22730485D02*
X39744287Y-22844771D01*
X39744287Y-22844771D02*
X39744287Y-23473342D01*
X39744287Y-22844771D02*
X39687144Y-22730485D01*
X39687144Y-22730485D02*
X39572858Y-22673342D01*
X39572858Y-22673342D02*
X39401429Y-22673342D01*
X39401429Y-22673342D02*
X39287144Y-22730485D01*
X39287144Y-22730485D02*
X39230001Y-22844771D01*
X39230001Y-22844771D02*
X39230001Y-23473342D01*
X38087144Y-23473342D02*
X38658572Y-23473342D01*
X38658572Y-23473342D02*
X38658572Y-22273342D01*
X37172858Y-23473342D02*
X37172858Y-22844771D01*
X37172858Y-22844771D02*
X37230000Y-22730485D01*
X37230000Y-22730485D02*
X37344286Y-22673342D01*
X37344286Y-22673342D02*
X37572858Y-22673342D01*
X37572858Y-22673342D02*
X37687143Y-22730485D01*
X37172858Y-23416200D02*
X37287143Y-23473342D01*
X37287143Y-23473342D02*
X37572858Y-23473342D01*
X37572858Y-23473342D02*
X37687143Y-23416200D01*
X37687143Y-23416200D02*
X37744286Y-23301914D01*
X37744286Y-23301914D02*
X37744286Y-23187628D01*
X37744286Y-23187628D02*
X37687143Y-23073342D01*
X37687143Y-23073342D02*
X37572858Y-23016200D01*
X37572858Y-23016200D02*
X37287143Y-23016200D01*
X37287143Y-23016200D02*
X37172858Y-22959057D01*
X36601429Y-23473342D02*
X36601429Y-22273342D01*
X36601429Y-22730485D02*
X36487144Y-22673342D01*
X36487144Y-22673342D02*
X36258572Y-22673342D01*
X36258572Y-22673342D02*
X36144286Y-22730485D01*
X36144286Y-22730485D02*
X36087144Y-22787628D01*
X36087144Y-22787628D02*
X36030001Y-22901914D01*
X36030001Y-22901914D02*
X36030001Y-23244771D01*
X36030001Y-23244771D02*
X36087144Y-23359057D01*
X36087144Y-23359057D02*
X36144286Y-23416200D01*
X36144286Y-23416200D02*
X36258572Y-23473342D01*
X36258572Y-23473342D02*
X36487144Y-23473342D01*
X36487144Y-23473342D02*
X36601429Y-23416200D01*
X35572858Y-23416200D02*
X35458572Y-23473342D01*
X35458572Y-23473342D02*
X35230001Y-23473342D01*
X35230001Y-23473342D02*
X35115715Y-23416200D01*
X35115715Y-23416200D02*
X35058572Y-23301914D01*
X35058572Y-23301914D02*
X35058572Y-23244771D01*
X35058572Y-23244771D02*
X35115715Y-23130485D01*
X35115715Y-23130485D02*
X35230001Y-23073342D01*
X35230001Y-23073342D02*
X35401430Y-23073342D01*
X35401430Y-23073342D02*
X35515715Y-23016200D01*
X35515715Y-23016200D02*
X35572858Y-22901914D01*
X35572858Y-22901914D02*
X35572858Y-22844771D01*
X35572858Y-22844771D02*
X35515715Y-22730485D01*
X35515715Y-22730485D02*
X35401430Y-22673342D01*
X35401430Y-22673342D02*
X35230001Y-22673342D01*
X35230001Y-22673342D02*
X35115715Y-22730485D01*
X33058572Y-23473342D02*
X33630000Y-23473342D01*
X33630000Y-23473342D02*
X33630000Y-22273342D01*
X32087143Y-23473342D02*
X32658571Y-23473342D01*
X32658571Y-23473342D02*
X32658571Y-22273342D01*
X31001428Y-23359057D02*
X31058571Y-23416200D01*
X31058571Y-23416200D02*
X31229999Y-23473342D01*
X31229999Y-23473342D02*
X31344285Y-23473342D01*
X31344285Y-23473342D02*
X31515714Y-23416200D01*
X31515714Y-23416200D02*
X31629999Y-23301914D01*
X31629999Y-23301914D02*
X31687142Y-23187628D01*
X31687142Y-23187628D02*
X31744285Y-22959057D01*
X31744285Y-22959057D02*
X31744285Y-22787628D01*
X31744285Y-22787628D02*
X31687142Y-22559057D01*
X31687142Y-22559057D02*
X31629999Y-22444771D01*
X31629999Y-22444771D02*
X31515714Y-22330485D01*
X31515714Y-22330485D02*
X31344285Y-22273342D01*
X31344285Y-22273342D02*
X31229999Y-22273342D01*
X31229999Y-22273342D02*
X31058571Y-22330485D01*
X31058571Y-22330485D02*
X31001428Y-22387628D01*
X51429999Y-24605342D02*
X51429999Y-25576771D01*
X51429999Y-25576771D02*
X51487141Y-25691057D01*
X51487141Y-25691057D02*
X51544284Y-25748200D01*
X51544284Y-25748200D02*
X51658570Y-25805342D01*
X51658570Y-25805342D02*
X51829999Y-25805342D01*
X51829999Y-25805342D02*
X51944284Y-25748200D01*
X51429999Y-25348200D02*
X51544284Y-25405342D01*
X51544284Y-25405342D02*
X51772856Y-25405342D01*
X51772856Y-25405342D02*
X51887141Y-25348200D01*
X51887141Y-25348200D02*
X51944284Y-25291057D01*
X51944284Y-25291057D02*
X52001427Y-25176771D01*
X52001427Y-25176771D02*
X52001427Y-24833914D01*
X52001427Y-24833914D02*
X51944284Y-24719628D01*
X51944284Y-24719628D02*
X51887141Y-24662485D01*
X51887141Y-24662485D02*
X51772856Y-24605342D01*
X51772856Y-24605342D02*
X51544284Y-24605342D01*
X51544284Y-24605342D02*
X51429999Y-24662485D01*
X50858570Y-25405342D02*
X50858570Y-24605342D01*
X50858570Y-24205342D02*
X50915713Y-24262485D01*
X50915713Y-24262485D02*
X50858570Y-24319628D01*
X50858570Y-24319628D02*
X50801427Y-24262485D01*
X50801427Y-24262485D02*
X50858570Y-24205342D01*
X50858570Y-24205342D02*
X50858570Y-24319628D01*
X50458570Y-24605342D02*
X50001427Y-24605342D01*
X50287141Y-24205342D02*
X50287141Y-25233914D01*
X50287141Y-25233914D02*
X50229998Y-25348200D01*
X50229998Y-25348200D02*
X50115713Y-25405342D01*
X50115713Y-25405342D02*
X50001427Y-25405342D01*
X49601427Y-25405342D02*
X49601427Y-24205342D01*
X49087142Y-25405342D02*
X49087142Y-24776771D01*
X49087142Y-24776771D02*
X49144284Y-24662485D01*
X49144284Y-24662485D02*
X49258570Y-24605342D01*
X49258570Y-24605342D02*
X49429999Y-24605342D01*
X49429999Y-24605342D02*
X49544284Y-24662485D01*
X49544284Y-24662485D02*
X49601427Y-24719628D01*
X48001428Y-24605342D02*
X48001428Y-25405342D01*
X48515713Y-24605342D02*
X48515713Y-25233914D01*
X48515713Y-25233914D02*
X48458570Y-25348200D01*
X48458570Y-25348200D02*
X48344285Y-25405342D01*
X48344285Y-25405342D02*
X48172856Y-25405342D01*
X48172856Y-25405342D02*
X48058570Y-25348200D01*
X48058570Y-25348200D02*
X48001428Y-25291057D01*
X47429999Y-25405342D02*
X47429999Y-24205342D01*
X47429999Y-24662485D02*
X47315714Y-24605342D01*
X47315714Y-24605342D02*
X47087142Y-24605342D01*
X47087142Y-24605342D02*
X46972856Y-24662485D01*
X46972856Y-24662485D02*
X46915714Y-24719628D01*
X46915714Y-24719628D02*
X46858571Y-24833914D01*
X46858571Y-24833914D02*
X46858571Y-25176771D01*
X46858571Y-25176771D02*
X46915714Y-25291057D01*
X46915714Y-25291057D02*
X46972856Y-25348200D01*
X46972856Y-25348200D02*
X47087142Y-25405342D01*
X47087142Y-25405342D02*
X47315714Y-25405342D01*
X47315714Y-25405342D02*
X47429999Y-25348200D01*
X46344285Y-25291057D02*
X46287142Y-25348200D01*
X46287142Y-25348200D02*
X46344285Y-25405342D01*
X46344285Y-25405342D02*
X46401428Y-25348200D01*
X46401428Y-25348200D02*
X46344285Y-25291057D01*
X46344285Y-25291057D02*
X46344285Y-25405342D01*
X45258571Y-25348200D02*
X45372856Y-25405342D01*
X45372856Y-25405342D02*
X45601428Y-25405342D01*
X45601428Y-25405342D02*
X45715713Y-25348200D01*
X45715713Y-25348200D02*
X45772856Y-25291057D01*
X45772856Y-25291057D02*
X45829999Y-25176771D01*
X45829999Y-25176771D02*
X45829999Y-24833914D01*
X45829999Y-24833914D02*
X45772856Y-24719628D01*
X45772856Y-24719628D02*
X45715713Y-24662485D01*
X45715713Y-24662485D02*
X45601428Y-24605342D01*
X45601428Y-24605342D02*
X45372856Y-24605342D01*
X45372856Y-24605342D02*
X45258571Y-24662485D01*
X44572857Y-25405342D02*
X44687142Y-25348200D01*
X44687142Y-25348200D02*
X44744285Y-25291057D01*
X44744285Y-25291057D02*
X44801428Y-25176771D01*
X44801428Y-25176771D02*
X44801428Y-24833914D01*
X44801428Y-24833914D02*
X44744285Y-24719628D01*
X44744285Y-24719628D02*
X44687142Y-24662485D01*
X44687142Y-24662485D02*
X44572857Y-24605342D01*
X44572857Y-24605342D02*
X44401428Y-24605342D01*
X44401428Y-24605342D02*
X44287142Y-24662485D01*
X44287142Y-24662485D02*
X44230000Y-24719628D01*
X44230000Y-24719628D02*
X44172857Y-24833914D01*
X44172857Y-24833914D02*
X44172857Y-25176771D01*
X44172857Y-25176771D02*
X44230000Y-25291057D01*
X44230000Y-25291057D02*
X44287142Y-25348200D01*
X44287142Y-25348200D02*
X44401428Y-25405342D01*
X44401428Y-25405342D02*
X44572857Y-25405342D01*
X43658571Y-25405342D02*
X43658571Y-24605342D01*
X43658571Y-24719628D02*
X43601428Y-24662485D01*
X43601428Y-24662485D02*
X43487143Y-24605342D01*
X43487143Y-24605342D02*
X43315714Y-24605342D01*
X43315714Y-24605342D02*
X43201428Y-24662485D01*
X43201428Y-24662485D02*
X43144286Y-24776771D01*
X43144286Y-24776771D02*
X43144286Y-25405342D01*
X43144286Y-24776771D02*
X43087143Y-24662485D01*
X43087143Y-24662485D02*
X42972857Y-24605342D01*
X42972857Y-24605342D02*
X42801428Y-24605342D01*
X42801428Y-24605342D02*
X42687143Y-24662485D01*
X42687143Y-24662485D02*
X42630000Y-24776771D01*
X42630000Y-24776771D02*
X42630000Y-25405342D01*
X41201428Y-24148200D02*
X42230000Y-25691057D01*
X40858571Y-25348200D02*
X40687143Y-25405342D01*
X40687143Y-25405342D02*
X40401428Y-25405342D01*
X40401428Y-25405342D02*
X40287143Y-25348200D01*
X40287143Y-25348200D02*
X40230000Y-25291057D01*
X40230000Y-25291057D02*
X40172857Y-25176771D01*
X40172857Y-25176771D02*
X40172857Y-25062485D01*
X40172857Y-25062485D02*
X40230000Y-24948200D01*
X40230000Y-24948200D02*
X40287143Y-24891057D01*
X40287143Y-24891057D02*
X40401428Y-24833914D01*
X40401428Y-24833914D02*
X40630000Y-24776771D01*
X40630000Y-24776771D02*
X40744285Y-24719628D01*
X40744285Y-24719628D02*
X40801428Y-24662485D01*
X40801428Y-24662485D02*
X40858571Y-24548200D01*
X40858571Y-24548200D02*
X40858571Y-24433914D01*
X40858571Y-24433914D02*
X40801428Y-24319628D01*
X40801428Y-24319628D02*
X40744285Y-24262485D01*
X40744285Y-24262485D02*
X40630000Y-24205342D01*
X40630000Y-24205342D02*
X40344285Y-24205342D01*
X40344285Y-24205342D02*
X40172857Y-24262485D01*
X39201428Y-25348200D02*
X39315714Y-25405342D01*
X39315714Y-25405342D02*
X39544286Y-25405342D01*
X39544286Y-25405342D02*
X39658571Y-25348200D01*
X39658571Y-25348200D02*
X39715714Y-25233914D01*
X39715714Y-25233914D02*
X39715714Y-24776771D01*
X39715714Y-24776771D02*
X39658571Y-24662485D01*
X39658571Y-24662485D02*
X39544286Y-24605342D01*
X39544286Y-24605342D02*
X39315714Y-24605342D01*
X39315714Y-24605342D02*
X39201428Y-24662485D01*
X39201428Y-24662485D02*
X39144286Y-24776771D01*
X39144286Y-24776771D02*
X39144286Y-24891057D01*
X39144286Y-24891057D02*
X39715714Y-25005342D01*
X38630000Y-25405342D02*
X38630000Y-24605342D01*
X38630000Y-24833914D02*
X38572857Y-24719628D01*
X38572857Y-24719628D02*
X38515715Y-24662485D01*
X38515715Y-24662485D02*
X38401429Y-24605342D01*
X38401429Y-24605342D02*
X38287143Y-24605342D01*
X37372858Y-25405342D02*
X37372858Y-24776771D01*
X37372858Y-24776771D02*
X37430000Y-24662485D01*
X37430000Y-24662485D02*
X37544286Y-24605342D01*
X37544286Y-24605342D02*
X37772858Y-24605342D01*
X37772858Y-24605342D02*
X37887143Y-24662485D01*
X37372858Y-25348200D02*
X37487143Y-25405342D01*
X37487143Y-25405342D02*
X37772858Y-25405342D01*
X37772858Y-25405342D02*
X37887143Y-25348200D01*
X37887143Y-25348200D02*
X37944286Y-25233914D01*
X37944286Y-25233914D02*
X37944286Y-25119628D01*
X37944286Y-25119628D02*
X37887143Y-25005342D01*
X37887143Y-25005342D02*
X37772858Y-24948200D01*
X37772858Y-24948200D02*
X37487143Y-24948200D01*
X37487143Y-24948200D02*
X37372858Y-24891057D01*
X36801429Y-24605342D02*
X36801429Y-25805342D01*
X36801429Y-24662485D02*
X36687144Y-24605342D01*
X36687144Y-24605342D02*
X36458572Y-24605342D01*
X36458572Y-24605342D02*
X36344286Y-24662485D01*
X36344286Y-24662485D02*
X36287144Y-24719628D01*
X36287144Y-24719628D02*
X36230001Y-24833914D01*
X36230001Y-24833914D02*
X36230001Y-25176771D01*
X36230001Y-25176771D02*
X36287144Y-25291057D01*
X36287144Y-25291057D02*
X36344286Y-25348200D01*
X36344286Y-25348200D02*
X36458572Y-25405342D01*
X36458572Y-25405342D02*
X36687144Y-25405342D01*
X36687144Y-25405342D02*
X36801429Y-25348200D01*
X35715715Y-25405342D02*
X35715715Y-24205342D01*
X35201430Y-25405342D02*
X35201430Y-24776771D01*
X35201430Y-24776771D02*
X35258572Y-24662485D01*
X35258572Y-24662485D02*
X35372858Y-24605342D01*
X35372858Y-24605342D02*
X35544287Y-24605342D01*
X35544287Y-24605342D02*
X35658572Y-24662485D01*
X35658572Y-24662485D02*
X35715715Y-24719628D01*
X34630001Y-25405342D02*
X34630001Y-24605342D01*
X34630001Y-24205342D02*
X34687144Y-24262485D01*
X34687144Y-24262485D02*
X34630001Y-24319628D01*
X34630001Y-24319628D02*
X34572858Y-24262485D01*
X34572858Y-24262485D02*
X34630001Y-24205342D01*
X34630001Y-24205342D02*
X34630001Y-24319628D01*
X34058572Y-25405342D02*
X34058572Y-24605342D01*
X34058572Y-24719628D02*
X34001429Y-24662485D01*
X34001429Y-24662485D02*
X33887144Y-24605342D01*
X33887144Y-24605342D02*
X33715715Y-24605342D01*
X33715715Y-24605342D02*
X33601429Y-24662485D01*
X33601429Y-24662485D02*
X33544287Y-24776771D01*
X33544287Y-24776771D02*
X33544287Y-25405342D01*
X33544287Y-24776771D02*
X33487144Y-24662485D01*
X33487144Y-24662485D02*
X33372858Y-24605342D01*
X33372858Y-24605342D02*
X33201429Y-24605342D01*
X33201429Y-24605342D02*
X33087144Y-24662485D01*
X33087144Y-24662485D02*
X33030001Y-24776771D01*
X33030001Y-24776771D02*
X33030001Y-25405342D01*
X32287144Y-25405342D02*
X32401429Y-25348200D01*
X32401429Y-25348200D02*
X32458572Y-25233914D01*
X32458572Y-25233914D02*
X32458572Y-24205342D01*
X31315716Y-25405342D02*
X31315716Y-24776771D01*
X31315716Y-24776771D02*
X31372858Y-24662485D01*
X31372858Y-24662485D02*
X31487144Y-24605342D01*
X31487144Y-24605342D02*
X31715716Y-24605342D01*
X31715716Y-24605342D02*
X31830001Y-24662485D01*
X31315716Y-25348200D02*
X31430001Y-25405342D01*
X31430001Y-25405342D02*
X31715716Y-25405342D01*
X31715716Y-25405342D02*
X31830001Y-25348200D01*
X31830001Y-25348200D02*
X31887144Y-25233914D01*
X31887144Y-25233914D02*
X31887144Y-25119628D01*
X31887144Y-25119628D02*
X31830001Y-25005342D01*
X31830001Y-25005342D02*
X31715716Y-24948200D01*
X31715716Y-24948200D02*
X31430001Y-24948200D01*
X31430001Y-24948200D02*
X31315716Y-24891057D01*
X30744287Y-25405342D02*
X30744287Y-24205342D01*
X30744287Y-24662485D02*
X30630002Y-24605342D01*
X30630002Y-24605342D02*
X30401430Y-24605342D01*
X30401430Y-24605342D02*
X30287144Y-24662485D01*
X30287144Y-24662485D02*
X30230002Y-24719628D01*
X30230002Y-24719628D02*
X30172859Y-24833914D01*
X30172859Y-24833914D02*
X30172859Y-25176771D01*
X30172859Y-25176771D02*
X30230002Y-25291057D01*
X30230002Y-25291057D02*
X30287144Y-25348200D01*
X30287144Y-25348200D02*
X30401430Y-25405342D01*
X30401430Y-25405342D02*
X30630002Y-25405342D01*
X30630002Y-25405342D02*
X30744287Y-25348200D01*
X29715716Y-25348200D02*
X29601430Y-25405342D01*
X29601430Y-25405342D02*
X29372859Y-25405342D01*
X29372859Y-25405342D02*
X29258573Y-25348200D01*
X29258573Y-25348200D02*
X29201430Y-25233914D01*
X29201430Y-25233914D02*
X29201430Y-25176771D01*
X29201430Y-25176771D02*
X29258573Y-25062485D01*
X29258573Y-25062485D02*
X29372859Y-25005342D01*
X29372859Y-25005342D02*
X29544288Y-25005342D01*
X29544288Y-25005342D02*
X29658573Y-24948200D01*
X29658573Y-24948200D02*
X29715716Y-24833914D01*
X29715716Y-24833914D02*
X29715716Y-24776771D01*
X29715716Y-24776771D02*
X29658573Y-24662485D01*
X29658573Y-24662485D02*
X29544288Y-24605342D01*
X29544288Y-24605342D02*
X29372859Y-24605342D01*
X29372859Y-24605342D02*
X29258573Y-24662485D01*
X28115716Y-25405342D02*
X28687144Y-25405342D01*
X28687144Y-25405342D02*
X28687144Y-24205342D01*
X27144287Y-25405342D02*
X27715715Y-25405342D01*
X27715715Y-25405342D02*
X27715715Y-24205342D01*
X26058572Y-25291057D02*
X26115715Y-25348200D01*
X26115715Y-25348200D02*
X26287143Y-25405342D01*
X26287143Y-25405342D02*
X26401429Y-25405342D01*
X26401429Y-25405342D02*
X26572858Y-25348200D01*
X26572858Y-25348200D02*
X26687143Y-25233914D01*
X26687143Y-25233914D02*
X26744286Y-25119628D01*
X26744286Y-25119628D02*
X26801429Y-24891057D01*
X26801429Y-24891057D02*
X26801429Y-24719628D01*
X26801429Y-24719628D02*
X26744286Y-24491057D01*
X26744286Y-24491057D02*
X26687143Y-24376771D01*
X26687143Y-24376771D02*
X26572858Y-24262485D01*
X26572858Y-24262485D02*
X26401429Y-24205342D01*
X26401429Y-24205342D02*
X26287143Y-24205342D01*
X26287143Y-24205342D02*
X26115715Y-24262485D01*
X26115715Y-24262485D02*
X26058572Y-24319628D01*
X30174285Y-55029104D02*
X29698095Y-55029104D01*
X30269523Y-55314819D02*
X29936190Y-54314819D01*
X29936190Y-54314819D02*
X29602857Y-55314819D01*
X28745714Y-55314819D02*
X29317142Y-55314819D01*
X29031428Y-55314819D02*
X29031428Y-54314819D01*
X29031428Y-54314819D02*
X29126666Y-54457676D01*
X29126666Y-54457676D02*
X29221904Y-54552914D01*
X29221904Y-54552914D02*
X29317142Y-54600533D01*
D12*
%TO.C,A1*%
X-6230000Y-9650000D02*
X120000Y-9650000D01*
X-6230000Y-21330000D02*
X-6230000Y-9650000D01*
X-1780000Y-41400000D02*
X120000Y-41400000D01*
X-1780000Y-50540000D02*
X-1780000Y-41400000D01*
X120000Y-120000D02*
X64770000Y-120000D01*
X120000Y-9650000D02*
X120000Y-120000D01*
X120000Y-21330000D02*
X-6230000Y-21330000D01*
X120000Y-41400000D02*
X120000Y-21330000D01*
X120000Y-50540000D02*
X-1780000Y-50540000D01*
X120000Y-53720000D02*
X120000Y-50540000D01*
X64770000Y-120000D02*
X66420000Y-1770000D01*
X66420000Y-1770000D02*
X66420000Y-13200000D01*
X66420000Y-13200000D02*
X68960000Y-15740000D01*
X66420000Y-51050000D02*
X66420000Y-53720000D01*
X66420000Y-53720000D02*
X120000Y-53720000D01*
X68960000Y-15740000D02*
X68960000Y-48510000D01*
X68960000Y-48510000D02*
X66420000Y-51050000D01*
%TD*%
M02*
