%TF.GenerationSoftware,KiCad,Pcbnew,7.0.6*%
%TF.CreationDate,2024-01-13T17:51:29-05:00*%
%TF.ProjectId,Crystal Shield,43727973-7461-46c2-9053-6869656c642e,rev?*%
%TF.SameCoordinates,PX1312d00PY1312d00*%
%TF.FileFunction,Soldermask,Bot*%
%TF.FilePolarity,Negative*%
%FSLAX46Y46*%
G04 Gerber Fmt 4.6, Leading zero omitted, Abs format (unit mm)*
G04 Created by KiCad (PCBNEW 7.0.6) date 2024-01-13 17:51:29*
%MOMM*%
%LPD*%
G01*
G04 APERTURE LIST*
G04 Aperture macros list*
%AMRoundRect*
0 Rectangle with rounded corners*
0 $1 Rounding radius*
0 $2 $3 $4 $5 $6 $7 $8 $9 X,Y pos of 4 corners*
0 Add a 4 corners polygon primitive as box body*
4,1,4,$2,$3,$4,$5,$6,$7,$8,$9,$2,$3,0*
0 Add four circle primitives for the rounded corners*
1,1,$1+$1,$2,$3*
1,1,$1+$1,$4,$5*
1,1,$1+$1,$6,$7*
1,1,$1+$1,$8,$9*
0 Add four rect primitives between the rounded corners*
20,1,$1+$1,$2,$3,$4,$5,0*
20,1,$1+$1,$4,$5,$6,$7,0*
20,1,$1+$1,$6,$7,$8,$9,0*
20,1,$1+$1,$8,$9,$2,$3,0*%
G04 Aperture macros list end*
%ADD10R,1.700000X1.700000*%
%ADD11O,1.700000X1.700000*%
%ADD12R,1.600000X1.600000*%
%ADD13C,1.600000*%
%ADD14RoundRect,0.250000X-1.550000X0.750000X-1.550000X-0.750000X1.550000X-0.750000X1.550000X0.750000X0*%
%ADD15O,3.600000X2.000000*%
%ADD16O,1.900000X1.200000*%
%ADD17C,1.450000*%
%ADD18C,0.800000*%
%ADD19C,3.200000*%
%ADD20O,1.600000X1.600000*%
G04 APERTURE END LIST*
D10*
%TO.C,SPI1*%
X58350000Y-29440000D03*
D11*
X58350000Y-26900000D03*
X58350000Y-24360000D03*
X58350000Y-21820000D03*
%TD*%
D10*
%TO.C,TTY1*%
X55850000Y-14140000D03*
D11*
X55850000Y-11600000D03*
X55850000Y-9060000D03*
X55850000Y-6520000D03*
%TD*%
D10*
%TO.C,PROG1*%
X58350000Y-42240000D03*
D11*
X58350000Y-39700000D03*
X58350000Y-37160000D03*
X58350000Y-34620000D03*
%TD*%
D12*
%TO.C,CB1*%
X17632380Y-45790000D03*
D13*
X15132380Y-45790000D03*
%TD*%
D14*
%TO.C,V1*%
X10277500Y-40790000D03*
D15*
X10277500Y-45790000D03*
%TD*%
D16*
%TO.C,J1*%
X1550000Y-990000D03*
D17*
X4250000Y-1990000D03*
X4250000Y-6990000D03*
D16*
X1550000Y-7990000D03*
%TD*%
D18*
%TO.C,BOOT1*%
X37000000Y-29500000D03*
%TD*%
%TO.C,RESET1*%
X32000000Y-29500000D03*
%TD*%
D19*
%TO.C,A1*%
X14220000Y-51050000D03*
X15490000Y-2790000D03*
X66290000Y-18030000D03*
X66290000Y-45970000D03*
D12*
X28190000Y-51050000D03*
D20*
X30730000Y-51050000D03*
X33270000Y-51050000D03*
X35810000Y-51050000D03*
X38350000Y-51050000D03*
X40890000Y-51050000D03*
X43430000Y-51050000D03*
X45970000Y-51050000D03*
X51050000Y-51050000D03*
X53590000Y-51050000D03*
X56130000Y-51050000D03*
X58670000Y-51050000D03*
X61210000Y-51050000D03*
X63750000Y-51050000D03*
X63750000Y-2790000D03*
X61210000Y-2790000D03*
X58670000Y-2790000D03*
X56130000Y-2790000D03*
X53590000Y-2790000D03*
X51050000Y-2790000D03*
X48510000Y-2790000D03*
X45970000Y-2790000D03*
X41910000Y-2790000D03*
X39370000Y-2790000D03*
X36830000Y-2790000D03*
X34290000Y-2790000D03*
X31750000Y-2790000D03*
X29210000Y-2790000D03*
X26670000Y-2790000D03*
X24130000Y-2790000D03*
X21590000Y-2790000D03*
X19050000Y-2790000D03*
%TD*%
M02*
