%TF.GenerationSoftware,KiCad,Pcbnew,7.0.6*%
%TF.CreationDate,2024-01-14T11:56:26-05:00*%
%TF.ProjectId,Crystal Shield,43727973-7461-46c2-9053-6869656c642e,rev?*%
%TF.SameCoordinates,PX1312d00PY1312d00*%
%TF.FileFunction,Drillmap*%
%TF.FilePolarity,Positive*%
%FSLAX45Y45*%
G04 Gerber Fmt 4.5, Leading zero omitted, Abs format (unit mm)*
G04 Created by KiCad (PCBNEW 7.0.6) date 2024-01-14 11:56:26*
%MOMM*%
%LPD*%
G01*
G04 APERTURE LIST*
%ADD10C,0.050000*%
%ADD11C,0.200000*%
%ADD12C,0.040000*%
%ADD13C,0.060000*%
%ADD14C,0.080000*%
%ADD15C,0.085000*%
%ADD16C,0.100000*%
%ADD17C,0.140000*%
G04 APERTURE END LIST*
D10*
X6477000Y0D02*
X0Y0D01*
X6654000Y-5384000D02*
X6654000Y-5105000D01*
X6908000Y-1574000D02*
X6654000Y-1320000D01*
X6654000Y-177000D02*
X6477000Y0D01*
X0Y0D02*
X0Y-5384000D01*
X0Y-5384000D02*
X6654000Y-5384000D01*
X6654000Y-1320000D02*
X6654000Y-177000D01*
X6908000Y-4851000D02*
X6908000Y-1574000D01*
X6654000Y-5105000D02*
X6908000Y-4851000D01*
D11*
D12*
X230000Y-1030000D02*
X270000Y-1070000D01*
X270000Y-1030000D02*
X230000Y-1070000D01*
X705000Y-830000D02*
X745000Y-870000D01*
X745000Y-830000D02*
X705000Y-870000D01*
X780000Y-3880000D02*
X820000Y-3920000D01*
X820000Y-3880000D02*
X780000Y-3920000D01*
X805000Y-1680000D02*
X845000Y-1720000D01*
X845000Y-1680000D02*
X805000Y-1720000D01*
X805000Y-3080000D02*
X845000Y-3120000D01*
X845000Y-3080000D02*
X805000Y-3120000D01*
X980000Y-1280000D02*
X1020000Y-1320000D01*
X1020000Y-1280000D02*
X980000Y-1320000D01*
X1080000Y-3480000D02*
X1120000Y-3520000D01*
X1120000Y-3480000D02*
X1080000Y-3520000D01*
X1105000Y-930000D02*
X1145000Y-970000D01*
X1145000Y-930000D02*
X1105000Y-970000D01*
X1125000Y-2175000D02*
X1165000Y-2215000D01*
X1165000Y-2175000D02*
X1125000Y-2215000D01*
X1125000Y-2285000D02*
X1165000Y-2325000D01*
X1165000Y-2285000D02*
X1125000Y-2325000D01*
X1125000Y-2395000D02*
X1165000Y-2435000D01*
X1165000Y-2395000D02*
X1125000Y-2435000D01*
X1225000Y-2075000D02*
X1265000Y-2115000D01*
X1265000Y-2075000D02*
X1225000Y-2115000D01*
X1225000Y-2495000D02*
X1265000Y-2535000D01*
X1265000Y-2495000D02*
X1225000Y-2535000D01*
X1280000Y-80000D02*
X1320000Y-120000D01*
X1320000Y-80000D02*
X1280000Y-120000D01*
X1335000Y-2075000D02*
X1375000Y-2115000D01*
X1375000Y-2075000D02*
X1335000Y-2115000D01*
X1335000Y-2495000D02*
X1375000Y-2535000D01*
X1375000Y-2495000D02*
X1335000Y-2535000D01*
X1445000Y-2075000D02*
X1485000Y-2115000D01*
X1485000Y-2075000D02*
X1445000Y-2115000D01*
X1445000Y-2495000D02*
X1485000Y-2535000D01*
X1485000Y-2495000D02*
X1445000Y-2535000D01*
X1480000Y-3480000D02*
X1520000Y-3520000D01*
X1520000Y-3480000D02*
X1480000Y-3520000D01*
X1505000Y-1305000D02*
X1545000Y-1345000D01*
X1545000Y-1305000D02*
X1505000Y-1345000D01*
X1545000Y-2175000D02*
X1585000Y-2215000D01*
X1585000Y-2175000D02*
X1545000Y-2215000D01*
X1545000Y-2285000D02*
X1585000Y-2325000D01*
X1585000Y-2285000D02*
X1545000Y-2325000D01*
X1545000Y-2395000D02*
X1585000Y-2435000D01*
X1585000Y-2395000D02*
X1545000Y-2435000D01*
X1580000Y-4055000D02*
X1620000Y-4095000D01*
X1620000Y-4055000D02*
X1580000Y-4095000D01*
X1580000Y-4880000D02*
X1620000Y-4920000D01*
X1620000Y-4880000D02*
X1580000Y-4920000D01*
X1580000Y-5280000D02*
X1620000Y-5320000D01*
X1620000Y-5280000D02*
X1580000Y-5320000D01*
X1780000Y-80000D02*
X1820000Y-120000D01*
X1820000Y-80000D02*
X1780000Y-120000D01*
X1855000Y-4055000D02*
X1895000Y-4095000D01*
X1895000Y-4055000D02*
X1855000Y-4095000D01*
X1955000Y-1680000D02*
X1995000Y-1720000D01*
X1995000Y-1680000D02*
X1955000Y-1720000D01*
X1955000Y-2805000D02*
X1995000Y-2845000D01*
X1995000Y-2805000D02*
X1955000Y-2845000D01*
X2055000Y-4305000D02*
X2095000Y-4345000D01*
X2095000Y-4305000D02*
X2055000Y-4345000D01*
X2055000Y-4405000D02*
X2095000Y-4445000D01*
X2095000Y-4405000D02*
X2055000Y-4445000D01*
X2080000Y-1505000D02*
X2120000Y-1545000D01*
X2120000Y-1505000D02*
X2080000Y-1545000D01*
X2080000Y-3330000D02*
X2120000Y-3370000D01*
X2120000Y-3330000D02*
X2080000Y-3370000D01*
X2080000Y-3480000D02*
X2120000Y-3520000D01*
X2120000Y-3480000D02*
X2080000Y-3520000D01*
X2230000Y-1505000D02*
X2270000Y-1545000D01*
X2270000Y-1505000D02*
X2230000Y-1545000D01*
X2355000Y-4509000D02*
X2395000Y-4549000D01*
X2395000Y-4509000D02*
X2355000Y-4549000D01*
X2430000Y-2355000D02*
X2470000Y-2395000D01*
X2470000Y-2355000D02*
X2430000Y-2395000D01*
X2480000Y-4509000D02*
X2520000Y-4549000D01*
X2520000Y-4509000D02*
X2480000Y-4549000D01*
X2505000Y-5130000D02*
X2545000Y-5170000D01*
X2545000Y-5130000D02*
X2505000Y-5170000D01*
X2630000Y-4509000D02*
X2670000Y-4549000D01*
X2670000Y-4509000D02*
X2630000Y-4549000D01*
X2680000Y-4930000D02*
X2720000Y-4970000D01*
X2720000Y-4930000D02*
X2680000Y-4970000D01*
X2755000Y-2880000D02*
X2795000Y-2920000D01*
X2795000Y-2880000D02*
X2755000Y-2920000D01*
X2805000Y-3205000D02*
X2845000Y-3245000D01*
X2845000Y-3205000D02*
X2805000Y-3245000D01*
X2855000Y-4505000D02*
X2895000Y-4545000D01*
X2895000Y-4505000D02*
X2855000Y-4545000D01*
X2980000Y-4230000D02*
X3020000Y-4270000D01*
X3020000Y-4230000D02*
X2980000Y-4270000D01*
X2980000Y-4405000D02*
X3020000Y-4445000D01*
X3020000Y-4405000D02*
X2980000Y-4445000D01*
X3055000Y-4609000D02*
X3095000Y-4649000D01*
X3095000Y-4609000D02*
X3055000Y-4649000D01*
X3405000Y-4255000D02*
X3445000Y-4295000D01*
X3445000Y-4255000D02*
X3405000Y-4295000D01*
X3455000Y-2680000D02*
X3495000Y-2720000D01*
X3495000Y-2680000D02*
X3455000Y-2720000D01*
X3730000Y-4730000D02*
X3770000Y-4770000D01*
X3770000Y-4730000D02*
X3730000Y-4770000D01*
X3905000Y-2680000D02*
X3945000Y-2720000D01*
X3945000Y-2680000D02*
X3905000Y-2720000D01*
X4130000Y-3919000D02*
X4170000Y-3959000D01*
X4170000Y-3919000D02*
X4130000Y-3959000D01*
X4130000Y-4119000D02*
X4170000Y-4159000D01*
X4170000Y-4119000D02*
X4130000Y-4159000D01*
X4130000Y-4319000D02*
X4170000Y-4359000D01*
X4170000Y-4319000D02*
X4130000Y-4359000D01*
X4130000Y-4519000D02*
X4170000Y-4559000D01*
X4170000Y-4519000D02*
X4130000Y-4559000D01*
X4530000Y-3919000D02*
X4570000Y-3959000D01*
X4570000Y-3919000D02*
X4530000Y-3959000D01*
X4530000Y-4119000D02*
X4570000Y-4159000D01*
X4570000Y-4119000D02*
X4530000Y-4159000D01*
X4530000Y-4319000D02*
X4570000Y-4359000D01*
X4570000Y-4319000D02*
X4530000Y-4359000D01*
X4530000Y-4519000D02*
X4570000Y-4559000D01*
X4570000Y-4519000D02*
X4530000Y-4559000D01*
X4580000Y-2605000D02*
X4620000Y-2645000D01*
X4620000Y-2605000D02*
X4580000Y-2645000D01*
X4580000Y-3280000D02*
X4620000Y-3320000D01*
X4620000Y-3280000D02*
X4580000Y-3320000D01*
X4655000Y-1180000D02*
X4695000Y-1220000D01*
X4695000Y-1180000D02*
X4655000Y-1220000D01*
X4655000Y-1480000D02*
X4695000Y-1520000D01*
X4695000Y-1480000D02*
X4655000Y-1520000D01*
X4655000Y-2530000D02*
X4695000Y-2570000D01*
X4695000Y-2530000D02*
X4655000Y-2570000D01*
X4925000Y-1009000D02*
X4965000Y-1049000D01*
X4965000Y-1009000D02*
X4925000Y-1049000D01*
X4955000Y-4084000D02*
X4995000Y-4124000D01*
X4995000Y-4084000D02*
X4955000Y-4124000D01*
X4980000Y-2080000D02*
X5020000Y-2120000D01*
X5020000Y-2080000D02*
X4980000Y-2120000D01*
X5080000Y-2959000D02*
X5120000Y-2999000D01*
X5120000Y-2959000D02*
X5080000Y-2999000D01*
X5230000Y-4084000D02*
X5270000Y-4124000D01*
X5270000Y-4084000D02*
X5230000Y-4124000D01*
X5255000Y-1005000D02*
X5295000Y-1045000D01*
X5295000Y-1005000D02*
X5255000Y-1045000D01*
X5380000Y-3480000D02*
X5420000Y-3520000D01*
X5420000Y-3480000D02*
X5380000Y-3520000D01*
X5455000Y-2080000D02*
X5495000Y-2120000D01*
X5495000Y-2080000D02*
X5455000Y-2120000D01*
X5455000Y-2780000D02*
X5495000Y-2820000D01*
X5495000Y-2780000D02*
X5455000Y-2820000D01*
X5580000Y-3580000D02*
X5620000Y-3620000D01*
X5620000Y-3580000D02*
X5580000Y-3620000D01*
X6055000Y-3180000D02*
X6095000Y-3220000D01*
X6095000Y-3180000D02*
X6055000Y-3220000D01*
X6180000Y-1705000D02*
X6220000Y-1745000D01*
X6220000Y-1705000D02*
X6180000Y-1745000D01*
X6555000Y-430000D02*
X6595000Y-470000D01*
X6595000Y-430000D02*
X6555000Y-470000D01*
X6580000Y-4880000D02*
X6620000Y-4920000D01*
X6620000Y-4880000D02*
X6580000Y-4920000D01*
X6680000Y-1480000D02*
X6720000Y-1520000D01*
X6720000Y-1480000D02*
X6680000Y-1520000D01*
X6805000Y-3180000D02*
X6845000Y-3220000D01*
X6845000Y-3180000D02*
X6805000Y-3220000D01*
D13*
X730000Y-1250000D02*
G75*
G03*
X730000Y-1250000I-30000J0D01*
G01*
X730000Y-3550000D02*
G75*
G03*
X730000Y-3550000I-30000J0D01*
G01*
X2255000Y-4975000D02*
G75*
G03*
X2255000Y-4975000I-30000J0D01*
G01*
X3380000Y-4779000D02*
G75*
G03*
X3380000Y-4779000I-30000J0D01*
G01*
X3530000Y-3900000D02*
G75*
G03*
X3530000Y-3900000I-30000J0D01*
G01*
X3555000Y-4504000D02*
G75*
G03*
X3555000Y-4504000I-30000J0D01*
G01*
X3780000Y-3725000D02*
G75*
G03*
X3780000Y-3725000I-30000J0D01*
G01*
X5405000Y-2975000D02*
G75*
G03*
X5405000Y-2975000I-30000J0D01*
G01*
X5430000Y-1900000D02*
G75*
G03*
X5430000Y-1900000I-30000J0D01*
G01*
X155000Y-69000D02*
X155000Y-129000D01*
X125000Y-99000D02*
X185000Y-99000D01*
D11*
X120000Y-129000D02*
X190000Y-129000D01*
X190000Y-129000D02*
G75*
G03*
X190000Y-69000I0J30000D01*
G01*
X190000Y-69000D02*
X120000Y-69000D01*
X120000Y-69000D02*
G75*
G03*
X120000Y-129000I0J-30000D01*
G01*
D13*
X155000Y-769000D02*
X155000Y-829000D01*
X125000Y-799000D02*
X185000Y-799000D01*
D11*
X190000Y-769000D02*
X120000Y-769000D01*
X120000Y-769000D02*
G75*
G03*
X120000Y-829000I0J-30000D01*
G01*
X120000Y-829000D02*
X190000Y-829000D01*
X190000Y-829000D02*
G75*
G03*
X190000Y-769000I0J30000D01*
G01*
D14*
X1541522Y-4607285D02*
X1541522Y-4550716D01*
X1484953Y-4550716D01*
X1484953Y-4607285D01*
X1541522Y-4607285D01*
X1791522Y-4607285D02*
X1791522Y-4550716D01*
X1734953Y-4550716D01*
X1734953Y-4607285D01*
X1791522Y-4607285D01*
D15*
X425000Y-241500D02*
X467500Y-199000D01*
X425000Y-156500D01*
X382500Y-199000D01*
X425000Y-241500D01*
X425000Y-741500D02*
X467500Y-699000D01*
X425000Y-656500D01*
X382500Y-699000D01*
X425000Y-741500D01*
D16*
X1855000Y-229000D02*
X1955000Y-329000D01*
X1955000Y-229000D02*
X1855000Y-329000D01*
X1955000Y-279000D02*
G75*
G03*
X1955000Y-279000I-50000J0D01*
G01*
X2109000Y-229000D02*
X2209000Y-329000D01*
X2209000Y-229000D02*
X2109000Y-329000D01*
X2209000Y-279000D02*
G75*
G03*
X2209000Y-279000I-50000J0D01*
G01*
X2363000Y-229000D02*
X2463000Y-329000D01*
X2463000Y-229000D02*
X2363000Y-329000D01*
X2463000Y-279000D02*
G75*
G03*
X2463000Y-279000I-50000J0D01*
G01*
X2617000Y-229000D02*
X2717000Y-329000D01*
X2717000Y-229000D02*
X2617000Y-329000D01*
X2717000Y-279000D02*
G75*
G03*
X2717000Y-279000I-50000J0D01*
G01*
X2769000Y-5055000D02*
X2869000Y-5155000D01*
X2869000Y-5055000D02*
X2769000Y-5155000D01*
X2869000Y-5105000D02*
G75*
G03*
X2869000Y-5105000I-50000J0D01*
G01*
X2871000Y-229000D02*
X2971000Y-329000D01*
X2971000Y-229000D02*
X2871000Y-329000D01*
X2971000Y-279000D02*
G75*
G03*
X2971000Y-279000I-50000J0D01*
G01*
X3023000Y-5055000D02*
X3123000Y-5155000D01*
X3123000Y-5055000D02*
X3023000Y-5155000D01*
X3123000Y-5105000D02*
G75*
G03*
X3123000Y-5105000I-50000J0D01*
G01*
X3125000Y-229000D02*
X3225000Y-329000D01*
X3225000Y-229000D02*
X3125000Y-329000D01*
X3225000Y-279000D02*
G75*
G03*
X3225000Y-279000I-50000J0D01*
G01*
X3277000Y-5055000D02*
X3377000Y-5155000D01*
X3377000Y-5055000D02*
X3277000Y-5155000D01*
X3377000Y-5105000D02*
G75*
G03*
X3377000Y-5105000I-50000J0D01*
G01*
X3379000Y-229000D02*
X3479000Y-329000D01*
X3479000Y-229000D02*
X3379000Y-329000D01*
X3479000Y-279000D02*
G75*
G03*
X3479000Y-279000I-50000J0D01*
G01*
X3531000Y-5055000D02*
X3631000Y-5155000D01*
X3631000Y-5055000D02*
X3531000Y-5155000D01*
X3631000Y-5105000D02*
G75*
G03*
X3631000Y-5105000I-50000J0D01*
G01*
X3633000Y-229000D02*
X3733000Y-329000D01*
X3733000Y-229000D02*
X3633000Y-329000D01*
X3733000Y-279000D02*
G75*
G03*
X3733000Y-279000I-50000J0D01*
G01*
X3785000Y-5055000D02*
X3885000Y-5155000D01*
X3885000Y-5055000D02*
X3785000Y-5155000D01*
X3885000Y-5105000D02*
G75*
G03*
X3885000Y-5105000I-50000J0D01*
G01*
X3887000Y-229000D02*
X3987000Y-329000D01*
X3987000Y-229000D02*
X3887000Y-329000D01*
X3987000Y-279000D02*
G75*
G03*
X3987000Y-279000I-50000J0D01*
G01*
X4039000Y-5055000D02*
X4139000Y-5155000D01*
X4139000Y-5055000D02*
X4039000Y-5155000D01*
X4139000Y-5105000D02*
G75*
G03*
X4139000Y-5105000I-50000J0D01*
G01*
X4141000Y-229000D02*
X4241000Y-329000D01*
X4241000Y-229000D02*
X4141000Y-329000D01*
X4241000Y-279000D02*
G75*
G03*
X4241000Y-279000I-50000J0D01*
G01*
X4293000Y-5055000D02*
X4393000Y-5155000D01*
X4393000Y-5055000D02*
X4293000Y-5155000D01*
X4393000Y-5105000D02*
G75*
G03*
X4393000Y-5105000I-50000J0D01*
G01*
X4547000Y-229000D02*
X4647000Y-329000D01*
X4647000Y-229000D02*
X4547000Y-329000D01*
X4647000Y-279000D02*
G75*
G03*
X4647000Y-279000I-50000J0D01*
G01*
X4547000Y-5055000D02*
X4647000Y-5155000D01*
X4647000Y-5055000D02*
X4547000Y-5155000D01*
X4647000Y-5105000D02*
G75*
G03*
X4647000Y-5105000I-50000J0D01*
G01*
X4801000Y-229000D02*
X4901000Y-329000D01*
X4901000Y-229000D02*
X4801000Y-329000D01*
X4901000Y-279000D02*
G75*
G03*
X4901000Y-279000I-50000J0D01*
G01*
X5055000Y-229000D02*
X5155000Y-329000D01*
X5155000Y-229000D02*
X5055000Y-329000D01*
X5155000Y-279000D02*
G75*
G03*
X5155000Y-279000I-50000J0D01*
G01*
X5055000Y-5055000D02*
X5155000Y-5155000D01*
X5155000Y-5055000D02*
X5055000Y-5155000D01*
X5155000Y-5105000D02*
G75*
G03*
X5155000Y-5105000I-50000J0D01*
G01*
X5309000Y-229000D02*
X5409000Y-329000D01*
X5409000Y-229000D02*
X5309000Y-329000D01*
X5409000Y-279000D02*
G75*
G03*
X5409000Y-279000I-50000J0D01*
G01*
X5309000Y-5055000D02*
X5409000Y-5155000D01*
X5409000Y-5055000D02*
X5309000Y-5155000D01*
X5409000Y-5105000D02*
G75*
G03*
X5409000Y-5105000I-50000J0D01*
G01*
X5535000Y-602000D02*
X5635000Y-702000D01*
X5635000Y-602000D02*
X5535000Y-702000D01*
X5635000Y-652000D02*
G75*
G03*
X5635000Y-652000I-50000J0D01*
G01*
X5535000Y-856000D02*
X5635000Y-956000D01*
X5635000Y-856000D02*
X5535000Y-956000D01*
X5635000Y-906000D02*
G75*
G03*
X5635000Y-906000I-50000J0D01*
G01*
X5535000Y-1110000D02*
X5635000Y-1210000D01*
X5635000Y-1110000D02*
X5535000Y-1210000D01*
X5635000Y-1160000D02*
G75*
G03*
X5635000Y-1160000I-50000J0D01*
G01*
X5535000Y-1364000D02*
X5635000Y-1464000D01*
X5635000Y-1364000D02*
X5535000Y-1464000D01*
X5635000Y-1414000D02*
G75*
G03*
X5635000Y-1414000I-50000J0D01*
G01*
X5563000Y-229000D02*
X5663000Y-329000D01*
X5663000Y-229000D02*
X5563000Y-329000D01*
X5663000Y-279000D02*
G75*
G03*
X5663000Y-279000I-50000J0D01*
G01*
X5563000Y-5055000D02*
X5663000Y-5155000D01*
X5663000Y-5055000D02*
X5563000Y-5155000D01*
X5663000Y-5105000D02*
G75*
G03*
X5663000Y-5105000I-50000J0D01*
G01*
X5785000Y-2132000D02*
X5885000Y-2232000D01*
X5885000Y-2132000D02*
X5785000Y-2232000D01*
X5885000Y-2182000D02*
G75*
G03*
X5885000Y-2182000I-50000J0D01*
G01*
X5785000Y-2386000D02*
X5885000Y-2486000D01*
X5885000Y-2386000D02*
X5785000Y-2486000D01*
X5885000Y-2436000D02*
G75*
G03*
X5885000Y-2436000I-50000J0D01*
G01*
X5785000Y-2640000D02*
X5885000Y-2740000D01*
X5885000Y-2640000D02*
X5785000Y-2740000D01*
X5885000Y-2690000D02*
G75*
G03*
X5885000Y-2690000I-50000J0D01*
G01*
X5785000Y-2894000D02*
X5885000Y-2994000D01*
X5885000Y-2894000D02*
X5785000Y-2994000D01*
X5885000Y-2944000D02*
G75*
G03*
X5885000Y-2944000I-50000J0D01*
G01*
X5785000Y-3412000D02*
X5885000Y-3512000D01*
X5885000Y-3412000D02*
X5785000Y-3512000D01*
X5885000Y-3462000D02*
G75*
G03*
X5885000Y-3462000I-50000J0D01*
G01*
X5785000Y-3666000D02*
X5885000Y-3766000D01*
X5885000Y-3666000D02*
X5785000Y-3766000D01*
X5885000Y-3716000D02*
G75*
G03*
X5885000Y-3716000I-50000J0D01*
G01*
X5785000Y-3920000D02*
X5885000Y-4020000D01*
X5885000Y-3920000D02*
X5785000Y-4020000D01*
X5885000Y-3970000D02*
G75*
G03*
X5885000Y-3970000I-50000J0D01*
G01*
X5785000Y-4174000D02*
X5885000Y-4274000D01*
X5885000Y-4174000D02*
X5785000Y-4274000D01*
X5885000Y-4224000D02*
G75*
G03*
X5885000Y-4224000I-50000J0D01*
G01*
X5817000Y-229000D02*
X5917000Y-329000D01*
X5917000Y-229000D02*
X5817000Y-329000D01*
X5917000Y-279000D02*
G75*
G03*
X5917000Y-279000I-50000J0D01*
G01*
X5817000Y-5055000D02*
X5917000Y-5155000D01*
X5917000Y-5055000D02*
X5817000Y-5155000D01*
X5917000Y-5105000D02*
G75*
G03*
X5917000Y-5105000I-50000J0D01*
G01*
X6071000Y-229000D02*
X6171000Y-329000D01*
X6171000Y-229000D02*
X6071000Y-329000D01*
X6171000Y-279000D02*
G75*
G03*
X6171000Y-279000I-50000J0D01*
G01*
X6071000Y-5055000D02*
X6171000Y-5155000D01*
X6171000Y-5055000D02*
X6071000Y-5155000D01*
X6171000Y-5105000D02*
G75*
G03*
X6171000Y-5105000I-50000J0D01*
G01*
X6325000Y-229000D02*
X6425000Y-329000D01*
X6425000Y-229000D02*
X6325000Y-329000D01*
X6425000Y-279000D02*
G75*
G03*
X6425000Y-279000I-50000J0D01*
G01*
X6325000Y-5055000D02*
X6425000Y-5155000D01*
X6425000Y-5055000D02*
X6325000Y-5155000D01*
X6425000Y-5105000D02*
G75*
G03*
X6425000Y-5105000I-50000J0D01*
G01*
D17*
X957750Y-4009000D02*
X1097750Y-4149000D01*
X1097750Y-4009000D02*
X957750Y-4149000D01*
X1027750Y-4009000D02*
X1027750Y-4149000D01*
X957750Y-4079000D02*
X1097750Y-4079000D01*
X957750Y-4509000D02*
X1097750Y-4649000D01*
X1097750Y-4509000D02*
X957750Y-4649000D01*
X1027750Y-4509000D02*
X1027750Y-4649000D01*
X957750Y-4579000D02*
X1097750Y-4579000D01*
D11*
X258277Y-5697984D02*
X258277Y-5497984D01*
X258277Y-5497984D02*
X305896Y-5497984D01*
X305896Y-5497984D02*
X334467Y-5507508D01*
X334467Y-5507508D02*
X353515Y-5526555D01*
X353515Y-5526555D02*
X363039Y-5545603D01*
X363039Y-5545603D02*
X372562Y-5583698D01*
X372562Y-5583698D02*
X372562Y-5612269D01*
X372562Y-5612269D02*
X363039Y-5650365D01*
X363039Y-5650365D02*
X353515Y-5669412D01*
X353515Y-5669412D02*
X334467Y-5688460D01*
X334467Y-5688460D02*
X305896Y-5697984D01*
X305896Y-5697984D02*
X258277Y-5697984D01*
X458277Y-5697984D02*
X458277Y-5564650D01*
X458277Y-5602746D02*
X467801Y-5583698D01*
X467801Y-5583698D02*
X477324Y-5574174D01*
X477324Y-5574174D02*
X496372Y-5564650D01*
X496372Y-5564650D02*
X515420Y-5564650D01*
X582086Y-5697984D02*
X582086Y-5564650D01*
X582086Y-5497984D02*
X572563Y-5507508D01*
X572563Y-5507508D02*
X582086Y-5517031D01*
X582086Y-5517031D02*
X591610Y-5507508D01*
X591610Y-5507508D02*
X582086Y-5497984D01*
X582086Y-5497984D02*
X582086Y-5517031D01*
X705896Y-5697984D02*
X686848Y-5688460D01*
X686848Y-5688460D02*
X677324Y-5669412D01*
X677324Y-5669412D02*
X677324Y-5497984D01*
X810658Y-5697984D02*
X791610Y-5688460D01*
X791610Y-5688460D02*
X782086Y-5669412D01*
X782086Y-5669412D02*
X782086Y-5497984D01*
X1039229Y-5697984D02*
X1039229Y-5497984D01*
X1039229Y-5497984D02*
X1105896Y-5640841D01*
X1105896Y-5640841D02*
X1172563Y-5497984D01*
X1172563Y-5497984D02*
X1172563Y-5697984D01*
X1353515Y-5697984D02*
X1353515Y-5593222D01*
X1353515Y-5593222D02*
X1343991Y-5574174D01*
X1343991Y-5574174D02*
X1324944Y-5564650D01*
X1324944Y-5564650D02*
X1286848Y-5564650D01*
X1286848Y-5564650D02*
X1267801Y-5574174D01*
X1353515Y-5688460D02*
X1334467Y-5697984D01*
X1334467Y-5697984D02*
X1286848Y-5697984D01*
X1286848Y-5697984D02*
X1267801Y-5688460D01*
X1267801Y-5688460D02*
X1258277Y-5669412D01*
X1258277Y-5669412D02*
X1258277Y-5650365D01*
X1258277Y-5650365D02*
X1267801Y-5631317D01*
X1267801Y-5631317D02*
X1286848Y-5621793D01*
X1286848Y-5621793D02*
X1334467Y-5621793D01*
X1334467Y-5621793D02*
X1353515Y-5612269D01*
X1448753Y-5564650D02*
X1448753Y-5764650D01*
X1448753Y-5574174D02*
X1467801Y-5564650D01*
X1467801Y-5564650D02*
X1505896Y-5564650D01*
X1505896Y-5564650D02*
X1524943Y-5574174D01*
X1524943Y-5574174D02*
X1534467Y-5583698D01*
X1534467Y-5583698D02*
X1543991Y-5602746D01*
X1543991Y-5602746D02*
X1543991Y-5659888D01*
X1543991Y-5659888D02*
X1534467Y-5678936D01*
X1534467Y-5678936D02*
X1524943Y-5688460D01*
X1524943Y-5688460D02*
X1505896Y-5697984D01*
X1505896Y-5697984D02*
X1467801Y-5697984D01*
X1467801Y-5697984D02*
X1448753Y-5688460D01*
X1629705Y-5678936D02*
X1639229Y-5688460D01*
X1639229Y-5688460D02*
X1629705Y-5697984D01*
X1629705Y-5697984D02*
X1620182Y-5688460D01*
X1620182Y-5688460D02*
X1629705Y-5678936D01*
X1629705Y-5678936D02*
X1629705Y-5697984D01*
X1629705Y-5574174D02*
X1639229Y-5583698D01*
X1639229Y-5583698D02*
X1629705Y-5593222D01*
X1629705Y-5593222D02*
X1620182Y-5583698D01*
X1620182Y-5583698D02*
X1629705Y-5574174D01*
X1629705Y-5574174D02*
X1629705Y-5593222D01*
D12*
X-42500Y-6006500D02*
X-2500Y-6046500D01*
X-2500Y-6006500D02*
X-42500Y-6046500D01*
D11*
X296372Y-5917984D02*
X315420Y-5917984D01*
X315420Y-5917984D02*
X334467Y-5927508D01*
X334467Y-5927508D02*
X343991Y-5937031D01*
X343991Y-5937031D02*
X353515Y-5956079D01*
X353515Y-5956079D02*
X363039Y-5994174D01*
X363039Y-5994174D02*
X363039Y-6041793D01*
X363039Y-6041793D02*
X353515Y-6079888D01*
X353515Y-6079888D02*
X343991Y-6098936D01*
X343991Y-6098936D02*
X334467Y-6108460D01*
X334467Y-6108460D02*
X315420Y-6117984D01*
X315420Y-6117984D02*
X296372Y-6117984D01*
X296372Y-6117984D02*
X277324Y-6108460D01*
X277324Y-6108460D02*
X267801Y-6098936D01*
X267801Y-6098936D02*
X258277Y-6079888D01*
X258277Y-6079888D02*
X248753Y-6041793D01*
X248753Y-6041793D02*
X248753Y-5994174D01*
X248753Y-5994174D02*
X258277Y-5956079D01*
X258277Y-5956079D02*
X267801Y-5937031D01*
X267801Y-5937031D02*
X277324Y-5927508D01*
X277324Y-5927508D02*
X296372Y-5917984D01*
X448753Y-6098936D02*
X458277Y-6108460D01*
X458277Y-6108460D02*
X448753Y-6117984D01*
X448753Y-6117984D02*
X439229Y-6108460D01*
X439229Y-6108460D02*
X448753Y-6098936D01*
X448753Y-6098936D02*
X448753Y-6117984D01*
X629705Y-5984650D02*
X629705Y-6117984D01*
X582086Y-5908460D02*
X534467Y-6051317D01*
X534467Y-6051317D02*
X658277Y-6051317D01*
X772562Y-5917984D02*
X791610Y-5917984D01*
X791610Y-5917984D02*
X810658Y-5927508D01*
X810658Y-5927508D02*
X820182Y-5937031D01*
X820182Y-5937031D02*
X829705Y-5956079D01*
X829705Y-5956079D02*
X839229Y-5994174D01*
X839229Y-5994174D02*
X839229Y-6041793D01*
X839229Y-6041793D02*
X829705Y-6079888D01*
X829705Y-6079888D02*
X820182Y-6098936D01*
X820182Y-6098936D02*
X810658Y-6108460D01*
X810658Y-6108460D02*
X791610Y-6117984D01*
X791610Y-6117984D02*
X772562Y-6117984D01*
X772562Y-6117984D02*
X753515Y-6108460D01*
X753515Y-6108460D02*
X743991Y-6098936D01*
X743991Y-6098936D02*
X734467Y-6079888D01*
X734467Y-6079888D02*
X724943Y-6041793D01*
X724943Y-6041793D02*
X724943Y-5994174D01*
X724943Y-5994174D02*
X734467Y-5956079D01*
X734467Y-5956079D02*
X743991Y-5937031D01*
X743991Y-5937031D02*
X753515Y-5927508D01*
X753515Y-5927508D02*
X772562Y-5917984D01*
X963039Y-5917984D02*
X982086Y-5917984D01*
X982086Y-5917984D02*
X1001134Y-5927508D01*
X1001134Y-5927508D02*
X1010658Y-5937031D01*
X1010658Y-5937031D02*
X1020182Y-5956079D01*
X1020182Y-5956079D02*
X1029705Y-5994174D01*
X1029705Y-5994174D02*
X1029705Y-6041793D01*
X1029705Y-6041793D02*
X1020182Y-6079888D01*
X1020182Y-6079888D02*
X1010658Y-6098936D01*
X1010658Y-6098936D02*
X1001134Y-6108460D01*
X1001134Y-6108460D02*
X982086Y-6117984D01*
X982086Y-6117984D02*
X963039Y-6117984D01*
X963039Y-6117984D02*
X943991Y-6108460D01*
X943991Y-6108460D02*
X934467Y-6098936D01*
X934467Y-6098936D02*
X924943Y-6079888D01*
X924943Y-6079888D02*
X915420Y-6041793D01*
X915420Y-6041793D02*
X915420Y-5994174D01*
X915420Y-5994174D02*
X924943Y-5956079D01*
X924943Y-5956079D02*
X934467Y-5937031D01*
X934467Y-5937031D02*
X943991Y-5927508D01*
X943991Y-5927508D02*
X963039Y-5917984D01*
X1115420Y-6117984D02*
X1115420Y-5984650D01*
X1115420Y-6003698D02*
X1124944Y-5994174D01*
X1124944Y-5994174D02*
X1143991Y-5984650D01*
X1143991Y-5984650D02*
X1172563Y-5984650D01*
X1172563Y-5984650D02*
X1191610Y-5994174D01*
X1191610Y-5994174D02*
X1201134Y-6013222D01*
X1201134Y-6013222D02*
X1201134Y-6117984D01*
X1201134Y-6013222D02*
X1210658Y-5994174D01*
X1210658Y-5994174D02*
X1229705Y-5984650D01*
X1229705Y-5984650D02*
X1258277Y-5984650D01*
X1258277Y-5984650D02*
X1277325Y-5994174D01*
X1277325Y-5994174D02*
X1286848Y-6013222D01*
X1286848Y-6013222D02*
X1286848Y-6117984D01*
X1382086Y-6117984D02*
X1382086Y-5984650D01*
X1382086Y-6003698D02*
X1391610Y-5994174D01*
X1391610Y-5994174D02*
X1410658Y-5984650D01*
X1410658Y-5984650D02*
X1439229Y-5984650D01*
X1439229Y-5984650D02*
X1458277Y-5994174D01*
X1458277Y-5994174D02*
X1467801Y-6013222D01*
X1467801Y-6013222D02*
X1467801Y-6117984D01*
X1467801Y-6013222D02*
X1477324Y-5994174D01*
X1477324Y-5994174D02*
X1496372Y-5984650D01*
X1496372Y-5984650D02*
X1524943Y-5984650D01*
X1524943Y-5984650D02*
X1543991Y-5994174D01*
X1543991Y-5994174D02*
X1553515Y-6013222D01*
X1553515Y-6013222D02*
X1553515Y-6117984D01*
X1943991Y-5908460D02*
X1772563Y-6165603D01*
X2201134Y-5917984D02*
X2220182Y-5917984D01*
X2220182Y-5917984D02*
X2239229Y-5927508D01*
X2239229Y-5927508D02*
X2248753Y-5937031D01*
X2248753Y-5937031D02*
X2258277Y-5956079D01*
X2258277Y-5956079D02*
X2267801Y-5994174D01*
X2267801Y-5994174D02*
X2267801Y-6041793D01*
X2267801Y-6041793D02*
X2258277Y-6079888D01*
X2258277Y-6079888D02*
X2248753Y-6098936D01*
X2248753Y-6098936D02*
X2239229Y-6108460D01*
X2239229Y-6108460D02*
X2220182Y-6117984D01*
X2220182Y-6117984D02*
X2201134Y-6117984D01*
X2201134Y-6117984D02*
X2182087Y-6108460D01*
X2182087Y-6108460D02*
X2172563Y-6098936D01*
X2172563Y-6098936D02*
X2163039Y-6079888D01*
X2163039Y-6079888D02*
X2153515Y-6041793D01*
X2153515Y-6041793D02*
X2153515Y-5994174D01*
X2153515Y-5994174D02*
X2163039Y-5956079D01*
X2163039Y-5956079D02*
X2172563Y-5937031D01*
X2172563Y-5937031D02*
X2182087Y-5927508D01*
X2182087Y-5927508D02*
X2201134Y-5917984D01*
X2353515Y-6098936D02*
X2363039Y-6108460D01*
X2363039Y-6108460D02*
X2353515Y-6117984D01*
X2353515Y-6117984D02*
X2343991Y-6108460D01*
X2343991Y-6108460D02*
X2353515Y-6098936D01*
X2353515Y-6098936D02*
X2353515Y-6117984D01*
X2486848Y-5917984D02*
X2505896Y-5917984D01*
X2505896Y-5917984D02*
X2524944Y-5927508D01*
X2524944Y-5927508D02*
X2534468Y-5937031D01*
X2534468Y-5937031D02*
X2543991Y-5956079D01*
X2543991Y-5956079D02*
X2553515Y-5994174D01*
X2553515Y-5994174D02*
X2553515Y-6041793D01*
X2553515Y-6041793D02*
X2543991Y-6079888D01*
X2543991Y-6079888D02*
X2534468Y-6098936D01*
X2534468Y-6098936D02*
X2524944Y-6108460D01*
X2524944Y-6108460D02*
X2505896Y-6117984D01*
X2505896Y-6117984D02*
X2486848Y-6117984D01*
X2486848Y-6117984D02*
X2467801Y-6108460D01*
X2467801Y-6108460D02*
X2458277Y-6098936D01*
X2458277Y-6098936D02*
X2448753Y-6079888D01*
X2448753Y-6079888D02*
X2439229Y-6041793D01*
X2439229Y-6041793D02*
X2439229Y-5994174D01*
X2439229Y-5994174D02*
X2448753Y-5956079D01*
X2448753Y-5956079D02*
X2458277Y-5937031D01*
X2458277Y-5937031D02*
X2467801Y-5927508D01*
X2467801Y-5927508D02*
X2486848Y-5917984D01*
X2743991Y-6117984D02*
X2629706Y-6117984D01*
X2686848Y-6117984D02*
X2686848Y-5917984D01*
X2686848Y-5917984D02*
X2667801Y-5946555D01*
X2667801Y-5946555D02*
X2648753Y-5965603D01*
X2648753Y-5965603D02*
X2629706Y-5975127D01*
X2924944Y-5917984D02*
X2829706Y-5917984D01*
X2829706Y-5917984D02*
X2820182Y-6013222D01*
X2820182Y-6013222D02*
X2829706Y-6003698D01*
X2829706Y-6003698D02*
X2848753Y-5994174D01*
X2848753Y-5994174D02*
X2896372Y-5994174D01*
X2896372Y-5994174D02*
X2915420Y-6003698D01*
X2915420Y-6003698D02*
X2924944Y-6013222D01*
X2924944Y-6013222D02*
X2934467Y-6032269D01*
X2934467Y-6032269D02*
X2934467Y-6079888D01*
X2934467Y-6079888D02*
X2924944Y-6098936D01*
X2924944Y-6098936D02*
X2915420Y-6108460D01*
X2915420Y-6108460D02*
X2896372Y-6117984D01*
X2896372Y-6117984D02*
X2848753Y-6117984D01*
X2848753Y-6117984D02*
X2829706Y-6108460D01*
X2829706Y-6108460D02*
X2820182Y-6098936D01*
X3001134Y-5917984D02*
X3134467Y-5917984D01*
X3134467Y-5917984D02*
X3048753Y-6117984D01*
X3201134Y-5917984D02*
X3201134Y-5956079D01*
X3277325Y-5917984D02*
X3277325Y-5956079D01*
X3572563Y-6194174D02*
X3563039Y-6184650D01*
X3563039Y-6184650D02*
X3543991Y-6156079D01*
X3543991Y-6156079D02*
X3534468Y-6137031D01*
X3534468Y-6137031D02*
X3524944Y-6108460D01*
X3524944Y-6108460D02*
X3515420Y-6060841D01*
X3515420Y-6060841D02*
X3515420Y-6022746D01*
X3515420Y-6022746D02*
X3524944Y-5975127D01*
X3524944Y-5975127D02*
X3534468Y-5946555D01*
X3534468Y-5946555D02*
X3543991Y-5927508D01*
X3543991Y-5927508D02*
X3563039Y-5898936D01*
X3563039Y-5898936D02*
X3572563Y-5889412D01*
X3677325Y-6003698D02*
X3658277Y-5994174D01*
X3658277Y-5994174D02*
X3648753Y-5984650D01*
X3648753Y-5984650D02*
X3639229Y-5965603D01*
X3639229Y-5965603D02*
X3639229Y-5956079D01*
X3639229Y-5956079D02*
X3648753Y-5937031D01*
X3648753Y-5937031D02*
X3658277Y-5927508D01*
X3658277Y-5927508D02*
X3677325Y-5917984D01*
X3677325Y-5917984D02*
X3715420Y-5917984D01*
X3715420Y-5917984D02*
X3734468Y-5927508D01*
X3734468Y-5927508D02*
X3743991Y-5937031D01*
X3743991Y-5937031D02*
X3753515Y-5956079D01*
X3753515Y-5956079D02*
X3753515Y-5965603D01*
X3753515Y-5965603D02*
X3743991Y-5984650D01*
X3743991Y-5984650D02*
X3734468Y-5994174D01*
X3734468Y-5994174D02*
X3715420Y-6003698D01*
X3715420Y-6003698D02*
X3677325Y-6003698D01*
X3677325Y-6003698D02*
X3658277Y-6013222D01*
X3658277Y-6013222D02*
X3648753Y-6022746D01*
X3648753Y-6022746D02*
X3639229Y-6041793D01*
X3639229Y-6041793D02*
X3639229Y-6079888D01*
X3639229Y-6079888D02*
X3648753Y-6098936D01*
X3648753Y-6098936D02*
X3658277Y-6108460D01*
X3658277Y-6108460D02*
X3677325Y-6117984D01*
X3677325Y-6117984D02*
X3715420Y-6117984D01*
X3715420Y-6117984D02*
X3734468Y-6108460D01*
X3734468Y-6108460D02*
X3743991Y-6098936D01*
X3743991Y-6098936D02*
X3753515Y-6079888D01*
X3753515Y-6079888D02*
X3753515Y-6041793D01*
X3753515Y-6041793D02*
X3743991Y-6022746D01*
X3743991Y-6022746D02*
X3734468Y-6013222D01*
X3734468Y-6013222D02*
X3715420Y-6003698D01*
X3943991Y-6117984D02*
X3829706Y-6117984D01*
X3886848Y-6117984D02*
X3886848Y-5917984D01*
X3886848Y-5917984D02*
X3867801Y-5946555D01*
X3867801Y-5946555D02*
X3848753Y-5965603D01*
X3848753Y-5965603D02*
X3829706Y-5975127D01*
X4182087Y-6117984D02*
X4182087Y-5917984D01*
X4267801Y-6117984D02*
X4267801Y-6013222D01*
X4267801Y-6013222D02*
X4258277Y-5994174D01*
X4258277Y-5994174D02*
X4239230Y-5984650D01*
X4239230Y-5984650D02*
X4210658Y-5984650D01*
X4210658Y-5984650D02*
X4191610Y-5994174D01*
X4191610Y-5994174D02*
X4182087Y-6003698D01*
X4391611Y-6117984D02*
X4372563Y-6108460D01*
X4372563Y-6108460D02*
X4363039Y-6098936D01*
X4363039Y-6098936D02*
X4353515Y-6079888D01*
X4353515Y-6079888D02*
X4353515Y-6022746D01*
X4353515Y-6022746D02*
X4363039Y-6003698D01*
X4363039Y-6003698D02*
X4372563Y-5994174D01*
X4372563Y-5994174D02*
X4391611Y-5984650D01*
X4391611Y-5984650D02*
X4420182Y-5984650D01*
X4420182Y-5984650D02*
X4439230Y-5994174D01*
X4439230Y-5994174D02*
X4448753Y-6003698D01*
X4448753Y-6003698D02*
X4458277Y-6022746D01*
X4458277Y-6022746D02*
X4458277Y-6079888D01*
X4458277Y-6079888D02*
X4448753Y-6098936D01*
X4448753Y-6098936D02*
X4439230Y-6108460D01*
X4439230Y-6108460D02*
X4420182Y-6117984D01*
X4420182Y-6117984D02*
X4391611Y-6117984D01*
X4572563Y-6117984D02*
X4553515Y-6108460D01*
X4553515Y-6108460D02*
X4543992Y-6089412D01*
X4543992Y-6089412D02*
X4543992Y-5917984D01*
X4724944Y-6108460D02*
X4705896Y-6117984D01*
X4705896Y-6117984D02*
X4667801Y-6117984D01*
X4667801Y-6117984D02*
X4648753Y-6108460D01*
X4648753Y-6108460D02*
X4639230Y-6089412D01*
X4639230Y-6089412D02*
X4639230Y-6013222D01*
X4639230Y-6013222D02*
X4648753Y-5994174D01*
X4648753Y-5994174D02*
X4667801Y-5984650D01*
X4667801Y-5984650D02*
X4705896Y-5984650D01*
X4705896Y-5984650D02*
X4724944Y-5994174D01*
X4724944Y-5994174D02*
X4734468Y-6013222D01*
X4734468Y-6013222D02*
X4734468Y-6032269D01*
X4734468Y-6032269D02*
X4639230Y-6051317D01*
X4810658Y-6108460D02*
X4829706Y-6117984D01*
X4829706Y-6117984D02*
X4867801Y-6117984D01*
X4867801Y-6117984D02*
X4886849Y-6108460D01*
X4886849Y-6108460D02*
X4896373Y-6089412D01*
X4896373Y-6089412D02*
X4896373Y-6079888D01*
X4896373Y-6079888D02*
X4886849Y-6060841D01*
X4886849Y-6060841D02*
X4867801Y-6051317D01*
X4867801Y-6051317D02*
X4839230Y-6051317D01*
X4839230Y-6051317D02*
X4820182Y-6041793D01*
X4820182Y-6041793D02*
X4810658Y-6022746D01*
X4810658Y-6022746D02*
X4810658Y-6013222D01*
X4810658Y-6013222D02*
X4820182Y-5994174D01*
X4820182Y-5994174D02*
X4839230Y-5984650D01*
X4839230Y-5984650D02*
X4867801Y-5984650D01*
X4867801Y-5984650D02*
X4886849Y-5994174D01*
X4963039Y-6194174D02*
X4972563Y-6184650D01*
X4972563Y-6184650D02*
X4991611Y-6156079D01*
X4991611Y-6156079D02*
X5001134Y-6137031D01*
X5001134Y-6137031D02*
X5010658Y-6108460D01*
X5010658Y-6108460D02*
X5020182Y-6060841D01*
X5020182Y-6060841D02*
X5020182Y-6022746D01*
X5020182Y-6022746D02*
X5010658Y-5975127D01*
X5010658Y-5975127D02*
X5001134Y-5946555D01*
X5001134Y-5946555D02*
X4991611Y-5927508D01*
X4991611Y-5927508D02*
X4972563Y-5898936D01*
X4972563Y-5898936D02*
X4963039Y-5889412D01*
D13*
X-2500Y-6290500D02*
G75*
G03*
X-2500Y-6290500I-30000J0D01*
G01*
D11*
X296372Y-6181984D02*
X315420Y-6181984D01*
X315420Y-6181984D02*
X334467Y-6191508D01*
X334467Y-6191508D02*
X343991Y-6201031D01*
X343991Y-6201031D02*
X353515Y-6220079D01*
X353515Y-6220079D02*
X363039Y-6258174D01*
X363039Y-6258174D02*
X363039Y-6305793D01*
X363039Y-6305793D02*
X353515Y-6343888D01*
X353515Y-6343888D02*
X343991Y-6362936D01*
X343991Y-6362936D02*
X334467Y-6372460D01*
X334467Y-6372460D02*
X315420Y-6381984D01*
X315420Y-6381984D02*
X296372Y-6381984D01*
X296372Y-6381984D02*
X277324Y-6372460D01*
X277324Y-6372460D02*
X267801Y-6362936D01*
X267801Y-6362936D02*
X258277Y-6343888D01*
X258277Y-6343888D02*
X248753Y-6305793D01*
X248753Y-6305793D02*
X248753Y-6258174D01*
X248753Y-6258174D02*
X258277Y-6220079D01*
X258277Y-6220079D02*
X267801Y-6201031D01*
X267801Y-6201031D02*
X277324Y-6191508D01*
X277324Y-6191508D02*
X296372Y-6181984D01*
X448753Y-6362936D02*
X458277Y-6372460D01*
X458277Y-6372460D02*
X448753Y-6381984D01*
X448753Y-6381984D02*
X439229Y-6372460D01*
X439229Y-6372460D02*
X448753Y-6362936D01*
X448753Y-6362936D02*
X448753Y-6381984D01*
X629705Y-6181984D02*
X591610Y-6181984D01*
X591610Y-6181984D02*
X572563Y-6191508D01*
X572563Y-6191508D02*
X563039Y-6201031D01*
X563039Y-6201031D02*
X543991Y-6229603D01*
X543991Y-6229603D02*
X534467Y-6267698D01*
X534467Y-6267698D02*
X534467Y-6343888D01*
X534467Y-6343888D02*
X543991Y-6362936D01*
X543991Y-6362936D02*
X553515Y-6372460D01*
X553515Y-6372460D02*
X572563Y-6381984D01*
X572563Y-6381984D02*
X610658Y-6381984D01*
X610658Y-6381984D02*
X629705Y-6372460D01*
X629705Y-6372460D02*
X639229Y-6362936D01*
X639229Y-6362936D02*
X648753Y-6343888D01*
X648753Y-6343888D02*
X648753Y-6296269D01*
X648753Y-6296269D02*
X639229Y-6277222D01*
X639229Y-6277222D02*
X629705Y-6267698D01*
X629705Y-6267698D02*
X610658Y-6258174D01*
X610658Y-6258174D02*
X572563Y-6258174D01*
X572563Y-6258174D02*
X553515Y-6267698D01*
X553515Y-6267698D02*
X543991Y-6277222D01*
X543991Y-6277222D02*
X534467Y-6296269D01*
X772562Y-6181984D02*
X791610Y-6181984D01*
X791610Y-6181984D02*
X810658Y-6191508D01*
X810658Y-6191508D02*
X820182Y-6201031D01*
X820182Y-6201031D02*
X829705Y-6220079D01*
X829705Y-6220079D02*
X839229Y-6258174D01*
X839229Y-6258174D02*
X839229Y-6305793D01*
X839229Y-6305793D02*
X829705Y-6343888D01*
X829705Y-6343888D02*
X820182Y-6362936D01*
X820182Y-6362936D02*
X810658Y-6372460D01*
X810658Y-6372460D02*
X791610Y-6381984D01*
X791610Y-6381984D02*
X772562Y-6381984D01*
X772562Y-6381984D02*
X753515Y-6372460D01*
X753515Y-6372460D02*
X743991Y-6362936D01*
X743991Y-6362936D02*
X734467Y-6343888D01*
X734467Y-6343888D02*
X724943Y-6305793D01*
X724943Y-6305793D02*
X724943Y-6258174D01*
X724943Y-6258174D02*
X734467Y-6220079D01*
X734467Y-6220079D02*
X743991Y-6201031D01*
X743991Y-6201031D02*
X753515Y-6191508D01*
X753515Y-6191508D02*
X772562Y-6181984D01*
X963039Y-6181984D02*
X982086Y-6181984D01*
X982086Y-6181984D02*
X1001134Y-6191508D01*
X1001134Y-6191508D02*
X1010658Y-6201031D01*
X1010658Y-6201031D02*
X1020182Y-6220079D01*
X1020182Y-6220079D02*
X1029705Y-6258174D01*
X1029705Y-6258174D02*
X1029705Y-6305793D01*
X1029705Y-6305793D02*
X1020182Y-6343888D01*
X1020182Y-6343888D02*
X1010658Y-6362936D01*
X1010658Y-6362936D02*
X1001134Y-6372460D01*
X1001134Y-6372460D02*
X982086Y-6381984D01*
X982086Y-6381984D02*
X963039Y-6381984D01*
X963039Y-6381984D02*
X943991Y-6372460D01*
X943991Y-6372460D02*
X934467Y-6362936D01*
X934467Y-6362936D02*
X924943Y-6343888D01*
X924943Y-6343888D02*
X915420Y-6305793D01*
X915420Y-6305793D02*
X915420Y-6258174D01*
X915420Y-6258174D02*
X924943Y-6220079D01*
X924943Y-6220079D02*
X934467Y-6201031D01*
X934467Y-6201031D02*
X943991Y-6191508D01*
X943991Y-6191508D02*
X963039Y-6181984D01*
X1115420Y-6381984D02*
X1115420Y-6248650D01*
X1115420Y-6267698D02*
X1124944Y-6258174D01*
X1124944Y-6258174D02*
X1143991Y-6248650D01*
X1143991Y-6248650D02*
X1172563Y-6248650D01*
X1172563Y-6248650D02*
X1191610Y-6258174D01*
X1191610Y-6258174D02*
X1201134Y-6277222D01*
X1201134Y-6277222D02*
X1201134Y-6381984D01*
X1201134Y-6277222D02*
X1210658Y-6258174D01*
X1210658Y-6258174D02*
X1229705Y-6248650D01*
X1229705Y-6248650D02*
X1258277Y-6248650D01*
X1258277Y-6248650D02*
X1277325Y-6258174D01*
X1277325Y-6258174D02*
X1286848Y-6277222D01*
X1286848Y-6277222D02*
X1286848Y-6381984D01*
X1382086Y-6381984D02*
X1382086Y-6248650D01*
X1382086Y-6267698D02*
X1391610Y-6258174D01*
X1391610Y-6258174D02*
X1410658Y-6248650D01*
X1410658Y-6248650D02*
X1439229Y-6248650D01*
X1439229Y-6248650D02*
X1458277Y-6258174D01*
X1458277Y-6258174D02*
X1467801Y-6277222D01*
X1467801Y-6277222D02*
X1467801Y-6381984D01*
X1467801Y-6277222D02*
X1477324Y-6258174D01*
X1477324Y-6258174D02*
X1496372Y-6248650D01*
X1496372Y-6248650D02*
X1524943Y-6248650D01*
X1524943Y-6248650D02*
X1543991Y-6258174D01*
X1543991Y-6258174D02*
X1553515Y-6277222D01*
X1553515Y-6277222D02*
X1553515Y-6381984D01*
X1943991Y-6172460D02*
X1772563Y-6429603D01*
X2201134Y-6181984D02*
X2220182Y-6181984D01*
X2220182Y-6181984D02*
X2239229Y-6191508D01*
X2239229Y-6191508D02*
X2248753Y-6201031D01*
X2248753Y-6201031D02*
X2258277Y-6220079D01*
X2258277Y-6220079D02*
X2267801Y-6258174D01*
X2267801Y-6258174D02*
X2267801Y-6305793D01*
X2267801Y-6305793D02*
X2258277Y-6343888D01*
X2258277Y-6343888D02*
X2248753Y-6362936D01*
X2248753Y-6362936D02*
X2239229Y-6372460D01*
X2239229Y-6372460D02*
X2220182Y-6381984D01*
X2220182Y-6381984D02*
X2201134Y-6381984D01*
X2201134Y-6381984D02*
X2182087Y-6372460D01*
X2182087Y-6372460D02*
X2172563Y-6362936D01*
X2172563Y-6362936D02*
X2163039Y-6343888D01*
X2163039Y-6343888D02*
X2153515Y-6305793D01*
X2153515Y-6305793D02*
X2153515Y-6258174D01*
X2153515Y-6258174D02*
X2163039Y-6220079D01*
X2163039Y-6220079D02*
X2172563Y-6201031D01*
X2172563Y-6201031D02*
X2182087Y-6191508D01*
X2182087Y-6191508D02*
X2201134Y-6181984D01*
X2353515Y-6362936D02*
X2363039Y-6372460D01*
X2363039Y-6372460D02*
X2353515Y-6381984D01*
X2353515Y-6381984D02*
X2343991Y-6372460D01*
X2343991Y-6372460D02*
X2353515Y-6362936D01*
X2353515Y-6362936D02*
X2353515Y-6381984D01*
X2486848Y-6181984D02*
X2505896Y-6181984D01*
X2505896Y-6181984D02*
X2524944Y-6191508D01*
X2524944Y-6191508D02*
X2534468Y-6201031D01*
X2534468Y-6201031D02*
X2543991Y-6220079D01*
X2543991Y-6220079D02*
X2553515Y-6258174D01*
X2553515Y-6258174D02*
X2553515Y-6305793D01*
X2553515Y-6305793D02*
X2543991Y-6343888D01*
X2543991Y-6343888D02*
X2534468Y-6362936D01*
X2534468Y-6362936D02*
X2524944Y-6372460D01*
X2524944Y-6372460D02*
X2505896Y-6381984D01*
X2505896Y-6381984D02*
X2486848Y-6381984D01*
X2486848Y-6381984D02*
X2467801Y-6372460D01*
X2467801Y-6372460D02*
X2458277Y-6362936D01*
X2458277Y-6362936D02*
X2448753Y-6343888D01*
X2448753Y-6343888D02*
X2439229Y-6305793D01*
X2439229Y-6305793D02*
X2439229Y-6258174D01*
X2439229Y-6258174D02*
X2448753Y-6220079D01*
X2448753Y-6220079D02*
X2458277Y-6201031D01*
X2458277Y-6201031D02*
X2467801Y-6191508D01*
X2467801Y-6191508D02*
X2486848Y-6181984D01*
X2629706Y-6201031D02*
X2639229Y-6191508D01*
X2639229Y-6191508D02*
X2658277Y-6181984D01*
X2658277Y-6181984D02*
X2705896Y-6181984D01*
X2705896Y-6181984D02*
X2724944Y-6191508D01*
X2724944Y-6191508D02*
X2734468Y-6201031D01*
X2734468Y-6201031D02*
X2743991Y-6220079D01*
X2743991Y-6220079D02*
X2743991Y-6239127D01*
X2743991Y-6239127D02*
X2734468Y-6267698D01*
X2734468Y-6267698D02*
X2620182Y-6381984D01*
X2620182Y-6381984D02*
X2743991Y-6381984D01*
X2810658Y-6181984D02*
X2934467Y-6181984D01*
X2934467Y-6181984D02*
X2867801Y-6258174D01*
X2867801Y-6258174D02*
X2896372Y-6258174D01*
X2896372Y-6258174D02*
X2915420Y-6267698D01*
X2915420Y-6267698D02*
X2924944Y-6277222D01*
X2924944Y-6277222D02*
X2934467Y-6296269D01*
X2934467Y-6296269D02*
X2934467Y-6343888D01*
X2934467Y-6343888D02*
X2924944Y-6362936D01*
X2924944Y-6362936D02*
X2915420Y-6372460D01*
X2915420Y-6372460D02*
X2896372Y-6381984D01*
X2896372Y-6381984D02*
X2839229Y-6381984D01*
X2839229Y-6381984D02*
X2820182Y-6372460D01*
X2820182Y-6372460D02*
X2810658Y-6362936D01*
X3105896Y-6181984D02*
X3067801Y-6181984D01*
X3067801Y-6181984D02*
X3048753Y-6191508D01*
X3048753Y-6191508D02*
X3039229Y-6201031D01*
X3039229Y-6201031D02*
X3020182Y-6229603D01*
X3020182Y-6229603D02*
X3010658Y-6267698D01*
X3010658Y-6267698D02*
X3010658Y-6343888D01*
X3010658Y-6343888D02*
X3020182Y-6362936D01*
X3020182Y-6362936D02*
X3029706Y-6372460D01*
X3029706Y-6372460D02*
X3048753Y-6381984D01*
X3048753Y-6381984D02*
X3086848Y-6381984D01*
X3086848Y-6381984D02*
X3105896Y-6372460D01*
X3105896Y-6372460D02*
X3115420Y-6362936D01*
X3115420Y-6362936D02*
X3124944Y-6343888D01*
X3124944Y-6343888D02*
X3124944Y-6296269D01*
X3124944Y-6296269D02*
X3115420Y-6277222D01*
X3115420Y-6277222D02*
X3105896Y-6267698D01*
X3105896Y-6267698D02*
X3086848Y-6258174D01*
X3086848Y-6258174D02*
X3048753Y-6258174D01*
X3048753Y-6258174D02*
X3029706Y-6267698D01*
X3029706Y-6267698D02*
X3020182Y-6277222D01*
X3020182Y-6277222D02*
X3010658Y-6296269D01*
X3201134Y-6181984D02*
X3201134Y-6220079D01*
X3277325Y-6181984D02*
X3277325Y-6220079D01*
X3572563Y-6458174D02*
X3563039Y-6448650D01*
X3563039Y-6448650D02*
X3543991Y-6420079D01*
X3543991Y-6420079D02*
X3534468Y-6401031D01*
X3534468Y-6401031D02*
X3524944Y-6372460D01*
X3524944Y-6372460D02*
X3515420Y-6324841D01*
X3515420Y-6324841D02*
X3515420Y-6286746D01*
X3515420Y-6286746D02*
X3524944Y-6239127D01*
X3524944Y-6239127D02*
X3534468Y-6210555D01*
X3534468Y-6210555D02*
X3543991Y-6191508D01*
X3543991Y-6191508D02*
X3563039Y-6162936D01*
X3563039Y-6162936D02*
X3572563Y-6153412D01*
X3658277Y-6381984D02*
X3696372Y-6381984D01*
X3696372Y-6381984D02*
X3715420Y-6372460D01*
X3715420Y-6372460D02*
X3724944Y-6362936D01*
X3724944Y-6362936D02*
X3743991Y-6334365D01*
X3743991Y-6334365D02*
X3753515Y-6296269D01*
X3753515Y-6296269D02*
X3753515Y-6220079D01*
X3753515Y-6220079D02*
X3743991Y-6201031D01*
X3743991Y-6201031D02*
X3734468Y-6191508D01*
X3734468Y-6191508D02*
X3715420Y-6181984D01*
X3715420Y-6181984D02*
X3677325Y-6181984D01*
X3677325Y-6181984D02*
X3658277Y-6191508D01*
X3658277Y-6191508D02*
X3648753Y-6201031D01*
X3648753Y-6201031D02*
X3639229Y-6220079D01*
X3639229Y-6220079D02*
X3639229Y-6267698D01*
X3639229Y-6267698D02*
X3648753Y-6286746D01*
X3648753Y-6286746D02*
X3658277Y-6296269D01*
X3658277Y-6296269D02*
X3677325Y-6305793D01*
X3677325Y-6305793D02*
X3715420Y-6305793D01*
X3715420Y-6305793D02*
X3734468Y-6296269D01*
X3734468Y-6296269D02*
X3743991Y-6286746D01*
X3743991Y-6286746D02*
X3753515Y-6267698D01*
X3991610Y-6381984D02*
X3991610Y-6181984D01*
X4077325Y-6381984D02*
X4077325Y-6277222D01*
X4077325Y-6277222D02*
X4067801Y-6258174D01*
X4067801Y-6258174D02*
X4048753Y-6248650D01*
X4048753Y-6248650D02*
X4020182Y-6248650D01*
X4020182Y-6248650D02*
X4001134Y-6258174D01*
X4001134Y-6258174D02*
X3991610Y-6267698D01*
X4201134Y-6381984D02*
X4182087Y-6372460D01*
X4182087Y-6372460D02*
X4172563Y-6362936D01*
X4172563Y-6362936D02*
X4163039Y-6343888D01*
X4163039Y-6343888D02*
X4163039Y-6286746D01*
X4163039Y-6286746D02*
X4172563Y-6267698D01*
X4172563Y-6267698D02*
X4182087Y-6258174D01*
X4182087Y-6258174D02*
X4201134Y-6248650D01*
X4201134Y-6248650D02*
X4229706Y-6248650D01*
X4229706Y-6248650D02*
X4248753Y-6258174D01*
X4248753Y-6258174D02*
X4258277Y-6267698D01*
X4258277Y-6267698D02*
X4267801Y-6286746D01*
X4267801Y-6286746D02*
X4267801Y-6343888D01*
X4267801Y-6343888D02*
X4258277Y-6362936D01*
X4258277Y-6362936D02*
X4248753Y-6372460D01*
X4248753Y-6372460D02*
X4229706Y-6381984D01*
X4229706Y-6381984D02*
X4201134Y-6381984D01*
X4382087Y-6381984D02*
X4363039Y-6372460D01*
X4363039Y-6372460D02*
X4353515Y-6353412D01*
X4353515Y-6353412D02*
X4353515Y-6181984D01*
X4534468Y-6372460D02*
X4515420Y-6381984D01*
X4515420Y-6381984D02*
X4477325Y-6381984D01*
X4477325Y-6381984D02*
X4458277Y-6372460D01*
X4458277Y-6372460D02*
X4448753Y-6353412D01*
X4448753Y-6353412D02*
X4448753Y-6277222D01*
X4448753Y-6277222D02*
X4458277Y-6258174D01*
X4458277Y-6258174D02*
X4477325Y-6248650D01*
X4477325Y-6248650D02*
X4515420Y-6248650D01*
X4515420Y-6248650D02*
X4534468Y-6258174D01*
X4534468Y-6258174D02*
X4543992Y-6277222D01*
X4543992Y-6277222D02*
X4543992Y-6296269D01*
X4543992Y-6296269D02*
X4448753Y-6315317D01*
X4620182Y-6372460D02*
X4639230Y-6381984D01*
X4639230Y-6381984D02*
X4677325Y-6381984D01*
X4677325Y-6381984D02*
X4696373Y-6372460D01*
X4696373Y-6372460D02*
X4705896Y-6353412D01*
X4705896Y-6353412D02*
X4705896Y-6343888D01*
X4705896Y-6343888D02*
X4696373Y-6324841D01*
X4696373Y-6324841D02*
X4677325Y-6315317D01*
X4677325Y-6315317D02*
X4648753Y-6315317D01*
X4648753Y-6315317D02*
X4629706Y-6305793D01*
X4629706Y-6305793D02*
X4620182Y-6286746D01*
X4620182Y-6286746D02*
X4620182Y-6277222D01*
X4620182Y-6277222D02*
X4629706Y-6258174D01*
X4629706Y-6258174D02*
X4648753Y-6248650D01*
X4648753Y-6248650D02*
X4677325Y-6248650D01*
X4677325Y-6248650D02*
X4696373Y-6258174D01*
X4772563Y-6458174D02*
X4782087Y-6448650D01*
X4782087Y-6448650D02*
X4801134Y-6420079D01*
X4801134Y-6420079D02*
X4810658Y-6401031D01*
X4810658Y-6401031D02*
X4820182Y-6372460D01*
X4820182Y-6372460D02*
X4829706Y-6324841D01*
X4829706Y-6324841D02*
X4829706Y-6286746D01*
X4829706Y-6286746D02*
X4820182Y-6239127D01*
X4820182Y-6239127D02*
X4810658Y-6210555D01*
X4810658Y-6210555D02*
X4801134Y-6191508D01*
X4801134Y-6191508D02*
X4782087Y-6162936D01*
X4782087Y-6162936D02*
X4772563Y-6153412D01*
D13*
X-32500Y-6524500D02*
X-32500Y-6584500D01*
X-62500Y-6554500D02*
X-2500Y-6554500D01*
D11*
X296372Y-6445984D02*
X315420Y-6445984D01*
X315420Y-6445984D02*
X334467Y-6455508D01*
X334467Y-6455508D02*
X343991Y-6465031D01*
X343991Y-6465031D02*
X353515Y-6484079D01*
X353515Y-6484079D02*
X363039Y-6522174D01*
X363039Y-6522174D02*
X363039Y-6569793D01*
X363039Y-6569793D02*
X353515Y-6607888D01*
X353515Y-6607888D02*
X343991Y-6626936D01*
X343991Y-6626936D02*
X334467Y-6636460D01*
X334467Y-6636460D02*
X315420Y-6645984D01*
X315420Y-6645984D02*
X296372Y-6645984D01*
X296372Y-6645984D02*
X277324Y-6636460D01*
X277324Y-6636460D02*
X267801Y-6626936D01*
X267801Y-6626936D02*
X258277Y-6607888D01*
X258277Y-6607888D02*
X248753Y-6569793D01*
X248753Y-6569793D02*
X248753Y-6522174D01*
X248753Y-6522174D02*
X258277Y-6484079D01*
X258277Y-6484079D02*
X267801Y-6465031D01*
X267801Y-6465031D02*
X277324Y-6455508D01*
X277324Y-6455508D02*
X296372Y-6445984D01*
X448753Y-6626936D02*
X458277Y-6636460D01*
X458277Y-6636460D02*
X448753Y-6645984D01*
X448753Y-6645984D02*
X439229Y-6636460D01*
X439229Y-6636460D02*
X448753Y-6626936D01*
X448753Y-6626936D02*
X448753Y-6645984D01*
X629705Y-6445984D02*
X591610Y-6445984D01*
X591610Y-6445984D02*
X572563Y-6455508D01*
X572563Y-6455508D02*
X563039Y-6465031D01*
X563039Y-6465031D02*
X543991Y-6493603D01*
X543991Y-6493603D02*
X534467Y-6531698D01*
X534467Y-6531698D02*
X534467Y-6607888D01*
X534467Y-6607888D02*
X543991Y-6626936D01*
X543991Y-6626936D02*
X553515Y-6636460D01*
X553515Y-6636460D02*
X572563Y-6645984D01*
X572563Y-6645984D02*
X610658Y-6645984D01*
X610658Y-6645984D02*
X629705Y-6636460D01*
X629705Y-6636460D02*
X639229Y-6626936D01*
X639229Y-6626936D02*
X648753Y-6607888D01*
X648753Y-6607888D02*
X648753Y-6560269D01*
X648753Y-6560269D02*
X639229Y-6541222D01*
X639229Y-6541222D02*
X629705Y-6531698D01*
X629705Y-6531698D02*
X610658Y-6522174D01*
X610658Y-6522174D02*
X572563Y-6522174D01*
X572563Y-6522174D02*
X553515Y-6531698D01*
X553515Y-6531698D02*
X543991Y-6541222D01*
X543991Y-6541222D02*
X534467Y-6560269D01*
X772562Y-6445984D02*
X791610Y-6445984D01*
X791610Y-6445984D02*
X810658Y-6455508D01*
X810658Y-6455508D02*
X820182Y-6465031D01*
X820182Y-6465031D02*
X829705Y-6484079D01*
X829705Y-6484079D02*
X839229Y-6522174D01*
X839229Y-6522174D02*
X839229Y-6569793D01*
X839229Y-6569793D02*
X829705Y-6607888D01*
X829705Y-6607888D02*
X820182Y-6626936D01*
X820182Y-6626936D02*
X810658Y-6636460D01*
X810658Y-6636460D02*
X791610Y-6645984D01*
X791610Y-6645984D02*
X772562Y-6645984D01*
X772562Y-6645984D02*
X753515Y-6636460D01*
X753515Y-6636460D02*
X743991Y-6626936D01*
X743991Y-6626936D02*
X734467Y-6607888D01*
X734467Y-6607888D02*
X724943Y-6569793D01*
X724943Y-6569793D02*
X724943Y-6522174D01*
X724943Y-6522174D02*
X734467Y-6484079D01*
X734467Y-6484079D02*
X743991Y-6465031D01*
X743991Y-6465031D02*
X753515Y-6455508D01*
X753515Y-6455508D02*
X772562Y-6445984D01*
X963039Y-6445984D02*
X982086Y-6445984D01*
X982086Y-6445984D02*
X1001134Y-6455508D01*
X1001134Y-6455508D02*
X1010658Y-6465031D01*
X1010658Y-6465031D02*
X1020182Y-6484079D01*
X1020182Y-6484079D02*
X1029705Y-6522174D01*
X1029705Y-6522174D02*
X1029705Y-6569793D01*
X1029705Y-6569793D02*
X1020182Y-6607888D01*
X1020182Y-6607888D02*
X1010658Y-6626936D01*
X1010658Y-6626936D02*
X1001134Y-6636460D01*
X1001134Y-6636460D02*
X982086Y-6645984D01*
X982086Y-6645984D02*
X963039Y-6645984D01*
X963039Y-6645984D02*
X943991Y-6636460D01*
X943991Y-6636460D02*
X934467Y-6626936D01*
X934467Y-6626936D02*
X924943Y-6607888D01*
X924943Y-6607888D02*
X915420Y-6569793D01*
X915420Y-6569793D02*
X915420Y-6522174D01*
X915420Y-6522174D02*
X924943Y-6484079D01*
X924943Y-6484079D02*
X934467Y-6465031D01*
X934467Y-6465031D02*
X943991Y-6455508D01*
X943991Y-6455508D02*
X963039Y-6445984D01*
X1115420Y-6645984D02*
X1115420Y-6512650D01*
X1115420Y-6531698D02*
X1124944Y-6522174D01*
X1124944Y-6522174D02*
X1143991Y-6512650D01*
X1143991Y-6512650D02*
X1172563Y-6512650D01*
X1172563Y-6512650D02*
X1191610Y-6522174D01*
X1191610Y-6522174D02*
X1201134Y-6541222D01*
X1201134Y-6541222D02*
X1201134Y-6645984D01*
X1201134Y-6541222D02*
X1210658Y-6522174D01*
X1210658Y-6522174D02*
X1229705Y-6512650D01*
X1229705Y-6512650D02*
X1258277Y-6512650D01*
X1258277Y-6512650D02*
X1277325Y-6522174D01*
X1277325Y-6522174D02*
X1286848Y-6541222D01*
X1286848Y-6541222D02*
X1286848Y-6645984D01*
X1382086Y-6645984D02*
X1382086Y-6512650D01*
X1382086Y-6531698D02*
X1391610Y-6522174D01*
X1391610Y-6522174D02*
X1410658Y-6512650D01*
X1410658Y-6512650D02*
X1439229Y-6512650D01*
X1439229Y-6512650D02*
X1458277Y-6522174D01*
X1458277Y-6522174D02*
X1467801Y-6541222D01*
X1467801Y-6541222D02*
X1467801Y-6645984D01*
X1467801Y-6541222D02*
X1477324Y-6522174D01*
X1477324Y-6522174D02*
X1496372Y-6512650D01*
X1496372Y-6512650D02*
X1524943Y-6512650D01*
X1524943Y-6512650D02*
X1543991Y-6522174D01*
X1543991Y-6522174D02*
X1553515Y-6541222D01*
X1553515Y-6541222D02*
X1553515Y-6645984D01*
X1943991Y-6436460D02*
X1772563Y-6693603D01*
X2201134Y-6445984D02*
X2220182Y-6445984D01*
X2220182Y-6445984D02*
X2239229Y-6455508D01*
X2239229Y-6455508D02*
X2248753Y-6465031D01*
X2248753Y-6465031D02*
X2258277Y-6484079D01*
X2258277Y-6484079D02*
X2267801Y-6522174D01*
X2267801Y-6522174D02*
X2267801Y-6569793D01*
X2267801Y-6569793D02*
X2258277Y-6607888D01*
X2258277Y-6607888D02*
X2248753Y-6626936D01*
X2248753Y-6626936D02*
X2239229Y-6636460D01*
X2239229Y-6636460D02*
X2220182Y-6645984D01*
X2220182Y-6645984D02*
X2201134Y-6645984D01*
X2201134Y-6645984D02*
X2182087Y-6636460D01*
X2182087Y-6636460D02*
X2172563Y-6626936D01*
X2172563Y-6626936D02*
X2163039Y-6607888D01*
X2163039Y-6607888D02*
X2153515Y-6569793D01*
X2153515Y-6569793D02*
X2153515Y-6522174D01*
X2153515Y-6522174D02*
X2163039Y-6484079D01*
X2163039Y-6484079D02*
X2172563Y-6465031D01*
X2172563Y-6465031D02*
X2182087Y-6455508D01*
X2182087Y-6455508D02*
X2201134Y-6445984D01*
X2353515Y-6626936D02*
X2363039Y-6636460D01*
X2363039Y-6636460D02*
X2353515Y-6645984D01*
X2353515Y-6645984D02*
X2343991Y-6636460D01*
X2343991Y-6636460D02*
X2353515Y-6626936D01*
X2353515Y-6626936D02*
X2353515Y-6645984D01*
X2486848Y-6445984D02*
X2505896Y-6445984D01*
X2505896Y-6445984D02*
X2524944Y-6455508D01*
X2524944Y-6455508D02*
X2534468Y-6465031D01*
X2534468Y-6465031D02*
X2543991Y-6484079D01*
X2543991Y-6484079D02*
X2553515Y-6522174D01*
X2553515Y-6522174D02*
X2553515Y-6569793D01*
X2553515Y-6569793D02*
X2543991Y-6607888D01*
X2543991Y-6607888D02*
X2534468Y-6626936D01*
X2534468Y-6626936D02*
X2524944Y-6636460D01*
X2524944Y-6636460D02*
X2505896Y-6645984D01*
X2505896Y-6645984D02*
X2486848Y-6645984D01*
X2486848Y-6645984D02*
X2467801Y-6636460D01*
X2467801Y-6636460D02*
X2458277Y-6626936D01*
X2458277Y-6626936D02*
X2448753Y-6607888D01*
X2448753Y-6607888D02*
X2439229Y-6569793D01*
X2439229Y-6569793D02*
X2439229Y-6522174D01*
X2439229Y-6522174D02*
X2448753Y-6484079D01*
X2448753Y-6484079D02*
X2458277Y-6465031D01*
X2458277Y-6465031D02*
X2467801Y-6455508D01*
X2467801Y-6455508D02*
X2486848Y-6445984D01*
X2629706Y-6465031D02*
X2639229Y-6455508D01*
X2639229Y-6455508D02*
X2658277Y-6445984D01*
X2658277Y-6445984D02*
X2705896Y-6445984D01*
X2705896Y-6445984D02*
X2724944Y-6455508D01*
X2724944Y-6455508D02*
X2734468Y-6465031D01*
X2734468Y-6465031D02*
X2743991Y-6484079D01*
X2743991Y-6484079D02*
X2743991Y-6503127D01*
X2743991Y-6503127D02*
X2734468Y-6531698D01*
X2734468Y-6531698D02*
X2620182Y-6645984D01*
X2620182Y-6645984D02*
X2743991Y-6645984D01*
X2810658Y-6445984D02*
X2934467Y-6445984D01*
X2934467Y-6445984D02*
X2867801Y-6522174D01*
X2867801Y-6522174D02*
X2896372Y-6522174D01*
X2896372Y-6522174D02*
X2915420Y-6531698D01*
X2915420Y-6531698D02*
X2924944Y-6541222D01*
X2924944Y-6541222D02*
X2934467Y-6560269D01*
X2934467Y-6560269D02*
X2934467Y-6607888D01*
X2934467Y-6607888D02*
X2924944Y-6626936D01*
X2924944Y-6626936D02*
X2915420Y-6636460D01*
X2915420Y-6636460D02*
X2896372Y-6645984D01*
X2896372Y-6645984D02*
X2839229Y-6645984D01*
X2839229Y-6645984D02*
X2820182Y-6636460D01*
X2820182Y-6636460D02*
X2810658Y-6626936D01*
X3105896Y-6445984D02*
X3067801Y-6445984D01*
X3067801Y-6445984D02*
X3048753Y-6455508D01*
X3048753Y-6455508D02*
X3039229Y-6465031D01*
X3039229Y-6465031D02*
X3020182Y-6493603D01*
X3020182Y-6493603D02*
X3010658Y-6531698D01*
X3010658Y-6531698D02*
X3010658Y-6607888D01*
X3010658Y-6607888D02*
X3020182Y-6626936D01*
X3020182Y-6626936D02*
X3029706Y-6636460D01*
X3029706Y-6636460D02*
X3048753Y-6645984D01*
X3048753Y-6645984D02*
X3086848Y-6645984D01*
X3086848Y-6645984D02*
X3105896Y-6636460D01*
X3105896Y-6636460D02*
X3115420Y-6626936D01*
X3115420Y-6626936D02*
X3124944Y-6607888D01*
X3124944Y-6607888D02*
X3124944Y-6560269D01*
X3124944Y-6560269D02*
X3115420Y-6541222D01*
X3115420Y-6541222D02*
X3105896Y-6531698D01*
X3105896Y-6531698D02*
X3086848Y-6522174D01*
X3086848Y-6522174D02*
X3048753Y-6522174D01*
X3048753Y-6522174D02*
X3029706Y-6531698D01*
X3029706Y-6531698D02*
X3020182Y-6541222D01*
X3020182Y-6541222D02*
X3010658Y-6560269D01*
X3201134Y-6445984D02*
X3201134Y-6484079D01*
X3277325Y-6445984D02*
X3277325Y-6484079D01*
X3572563Y-6722174D02*
X3563039Y-6712650D01*
X3563039Y-6712650D02*
X3543991Y-6684079D01*
X3543991Y-6684079D02*
X3534468Y-6665031D01*
X3534468Y-6665031D02*
X3524944Y-6636460D01*
X3524944Y-6636460D02*
X3515420Y-6588841D01*
X3515420Y-6588841D02*
X3515420Y-6550746D01*
X3515420Y-6550746D02*
X3524944Y-6503127D01*
X3524944Y-6503127D02*
X3534468Y-6474555D01*
X3534468Y-6474555D02*
X3543991Y-6455508D01*
X3543991Y-6455508D02*
X3563039Y-6426936D01*
X3563039Y-6426936D02*
X3572563Y-6417412D01*
X3686848Y-6445984D02*
X3705896Y-6445984D01*
X3705896Y-6445984D02*
X3724944Y-6455508D01*
X3724944Y-6455508D02*
X3734468Y-6465031D01*
X3734468Y-6465031D02*
X3743991Y-6484079D01*
X3743991Y-6484079D02*
X3753515Y-6522174D01*
X3753515Y-6522174D02*
X3753515Y-6569793D01*
X3753515Y-6569793D02*
X3743991Y-6607888D01*
X3743991Y-6607888D02*
X3734468Y-6626936D01*
X3734468Y-6626936D02*
X3724944Y-6636460D01*
X3724944Y-6636460D02*
X3705896Y-6645984D01*
X3705896Y-6645984D02*
X3686848Y-6645984D01*
X3686848Y-6645984D02*
X3667801Y-6636460D01*
X3667801Y-6636460D02*
X3658277Y-6626936D01*
X3658277Y-6626936D02*
X3648753Y-6607888D01*
X3648753Y-6607888D02*
X3639229Y-6569793D01*
X3639229Y-6569793D02*
X3639229Y-6522174D01*
X3639229Y-6522174D02*
X3648753Y-6484079D01*
X3648753Y-6484079D02*
X3658277Y-6465031D01*
X3658277Y-6465031D02*
X3667801Y-6455508D01*
X3667801Y-6455508D02*
X3686848Y-6445984D01*
X3991610Y-6645984D02*
X3991610Y-6445984D01*
X4077325Y-6645984D02*
X4077325Y-6541222D01*
X4077325Y-6541222D02*
X4067801Y-6522174D01*
X4067801Y-6522174D02*
X4048753Y-6512650D01*
X4048753Y-6512650D02*
X4020182Y-6512650D01*
X4020182Y-6512650D02*
X4001134Y-6522174D01*
X4001134Y-6522174D02*
X3991610Y-6531698D01*
X4201134Y-6645984D02*
X4182087Y-6636460D01*
X4182087Y-6636460D02*
X4172563Y-6626936D01*
X4172563Y-6626936D02*
X4163039Y-6607888D01*
X4163039Y-6607888D02*
X4163039Y-6550746D01*
X4163039Y-6550746D02*
X4172563Y-6531698D01*
X4172563Y-6531698D02*
X4182087Y-6522174D01*
X4182087Y-6522174D02*
X4201134Y-6512650D01*
X4201134Y-6512650D02*
X4229706Y-6512650D01*
X4229706Y-6512650D02*
X4248753Y-6522174D01*
X4248753Y-6522174D02*
X4258277Y-6531698D01*
X4258277Y-6531698D02*
X4267801Y-6550746D01*
X4267801Y-6550746D02*
X4267801Y-6607888D01*
X4267801Y-6607888D02*
X4258277Y-6626936D01*
X4258277Y-6626936D02*
X4248753Y-6636460D01*
X4248753Y-6636460D02*
X4229706Y-6645984D01*
X4229706Y-6645984D02*
X4201134Y-6645984D01*
X4382087Y-6645984D02*
X4363039Y-6636460D01*
X4363039Y-6636460D02*
X4353515Y-6617412D01*
X4353515Y-6617412D02*
X4353515Y-6445984D01*
X4534468Y-6636460D02*
X4515420Y-6645984D01*
X4515420Y-6645984D02*
X4477325Y-6645984D01*
X4477325Y-6645984D02*
X4458277Y-6636460D01*
X4458277Y-6636460D02*
X4448753Y-6617412D01*
X4448753Y-6617412D02*
X4448753Y-6541222D01*
X4448753Y-6541222D02*
X4458277Y-6522174D01*
X4458277Y-6522174D02*
X4477325Y-6512650D01*
X4477325Y-6512650D02*
X4515420Y-6512650D01*
X4515420Y-6512650D02*
X4534468Y-6522174D01*
X4534468Y-6522174D02*
X4543992Y-6541222D01*
X4543992Y-6541222D02*
X4543992Y-6560269D01*
X4543992Y-6560269D02*
X4448753Y-6579317D01*
X4620182Y-6636460D02*
X4639230Y-6645984D01*
X4639230Y-6645984D02*
X4677325Y-6645984D01*
X4677325Y-6645984D02*
X4696373Y-6636460D01*
X4696373Y-6636460D02*
X4705896Y-6617412D01*
X4705896Y-6617412D02*
X4705896Y-6607888D01*
X4705896Y-6607888D02*
X4696373Y-6588841D01*
X4696373Y-6588841D02*
X4677325Y-6579317D01*
X4677325Y-6579317D02*
X4648753Y-6579317D01*
X4648753Y-6579317D02*
X4629706Y-6569793D01*
X4629706Y-6569793D02*
X4620182Y-6550746D01*
X4620182Y-6550746D02*
X4620182Y-6541222D01*
X4620182Y-6541222D02*
X4629706Y-6522174D01*
X4629706Y-6522174D02*
X4648753Y-6512650D01*
X4648753Y-6512650D02*
X4677325Y-6512650D01*
X4677325Y-6512650D02*
X4696373Y-6522174D01*
X4943992Y-6569793D02*
X5096373Y-6569793D01*
X5020182Y-6645984D02*
X5020182Y-6493603D01*
X5334468Y-6465031D02*
X5343992Y-6455508D01*
X5343992Y-6455508D02*
X5363039Y-6445984D01*
X5363039Y-6445984D02*
X5410658Y-6445984D01*
X5410658Y-6445984D02*
X5429706Y-6455508D01*
X5429706Y-6455508D02*
X5439230Y-6465031D01*
X5439230Y-6465031D02*
X5448754Y-6484079D01*
X5448754Y-6484079D02*
X5448754Y-6503127D01*
X5448754Y-6503127D02*
X5439230Y-6531698D01*
X5439230Y-6531698D02*
X5324944Y-6645984D01*
X5324944Y-6645984D02*
X5448754Y-6645984D01*
X5677325Y-6636460D02*
X5696373Y-6645984D01*
X5696373Y-6645984D02*
X5734468Y-6645984D01*
X5734468Y-6645984D02*
X5753515Y-6636460D01*
X5753515Y-6636460D02*
X5763039Y-6617412D01*
X5763039Y-6617412D02*
X5763039Y-6607888D01*
X5763039Y-6607888D02*
X5753515Y-6588841D01*
X5753515Y-6588841D02*
X5734468Y-6579317D01*
X5734468Y-6579317D02*
X5705896Y-6579317D01*
X5705896Y-6579317D02*
X5686849Y-6569793D01*
X5686849Y-6569793D02*
X5677325Y-6550746D01*
X5677325Y-6550746D02*
X5677325Y-6541222D01*
X5677325Y-6541222D02*
X5686849Y-6522174D01*
X5686849Y-6522174D02*
X5705896Y-6512650D01*
X5705896Y-6512650D02*
X5734468Y-6512650D01*
X5734468Y-6512650D02*
X5753515Y-6522174D01*
X5877325Y-6645984D02*
X5858277Y-6636460D01*
X5858277Y-6636460D02*
X5848754Y-6617412D01*
X5848754Y-6617412D02*
X5848754Y-6445984D01*
X5982087Y-6645984D02*
X5963039Y-6636460D01*
X5963039Y-6636460D02*
X5953515Y-6626936D01*
X5953515Y-6626936D02*
X5943992Y-6607888D01*
X5943992Y-6607888D02*
X5943992Y-6550746D01*
X5943992Y-6550746D02*
X5953515Y-6531698D01*
X5953515Y-6531698D02*
X5963039Y-6522174D01*
X5963039Y-6522174D02*
X5982087Y-6512650D01*
X5982087Y-6512650D02*
X6010658Y-6512650D01*
X6010658Y-6512650D02*
X6029706Y-6522174D01*
X6029706Y-6522174D02*
X6039230Y-6531698D01*
X6039230Y-6531698D02*
X6048754Y-6550746D01*
X6048754Y-6550746D02*
X6048754Y-6607888D01*
X6048754Y-6607888D02*
X6039230Y-6626936D01*
X6039230Y-6626936D02*
X6029706Y-6636460D01*
X6029706Y-6636460D02*
X6010658Y-6645984D01*
X6010658Y-6645984D02*
X5982087Y-6645984D01*
X6105896Y-6512650D02*
X6182087Y-6512650D01*
X6134468Y-6445984D02*
X6134468Y-6617412D01*
X6134468Y-6617412D02*
X6143992Y-6636460D01*
X6143992Y-6636460D02*
X6163039Y-6645984D01*
X6163039Y-6645984D02*
X6182087Y-6645984D01*
X6239230Y-6636460D02*
X6258277Y-6645984D01*
X6258277Y-6645984D02*
X6296373Y-6645984D01*
X6296373Y-6645984D02*
X6315420Y-6636460D01*
X6315420Y-6636460D02*
X6324944Y-6617412D01*
X6324944Y-6617412D02*
X6324944Y-6607888D01*
X6324944Y-6607888D02*
X6315420Y-6588841D01*
X6315420Y-6588841D02*
X6296373Y-6579317D01*
X6296373Y-6579317D02*
X6267801Y-6579317D01*
X6267801Y-6579317D02*
X6248754Y-6569793D01*
X6248754Y-6569793D02*
X6239230Y-6550746D01*
X6239230Y-6550746D02*
X6239230Y-6541222D01*
X6239230Y-6541222D02*
X6248754Y-6522174D01*
X6248754Y-6522174D02*
X6267801Y-6512650D01*
X6267801Y-6512650D02*
X6296373Y-6512650D01*
X6296373Y-6512650D02*
X6315420Y-6522174D01*
X6391611Y-6722174D02*
X6401135Y-6712650D01*
X6401135Y-6712650D02*
X6420182Y-6684079D01*
X6420182Y-6684079D02*
X6429706Y-6665031D01*
X6429706Y-6665031D02*
X6439230Y-6636460D01*
X6439230Y-6636460D02*
X6448754Y-6588841D01*
X6448754Y-6588841D02*
X6448754Y-6550746D01*
X6448754Y-6550746D02*
X6439230Y-6503127D01*
X6439230Y-6503127D02*
X6429706Y-6474555D01*
X6429706Y-6474555D02*
X6420182Y-6455508D01*
X6420182Y-6455508D02*
X6401135Y-6426936D01*
X6401135Y-6426936D02*
X6391611Y-6417412D01*
D14*
X-14215Y-6846784D02*
X-14215Y-6790215D01*
X-70785Y-6790215D01*
X-70785Y-6846784D01*
X-14215Y-6846784D01*
D11*
X296372Y-6709984D02*
X315420Y-6709984D01*
X315420Y-6709984D02*
X334467Y-6719508D01*
X334467Y-6719508D02*
X343991Y-6729031D01*
X343991Y-6729031D02*
X353515Y-6748079D01*
X353515Y-6748079D02*
X363039Y-6786174D01*
X363039Y-6786174D02*
X363039Y-6833793D01*
X363039Y-6833793D02*
X353515Y-6871888D01*
X353515Y-6871888D02*
X343991Y-6890936D01*
X343991Y-6890936D02*
X334467Y-6900460D01*
X334467Y-6900460D02*
X315420Y-6909984D01*
X315420Y-6909984D02*
X296372Y-6909984D01*
X296372Y-6909984D02*
X277324Y-6900460D01*
X277324Y-6900460D02*
X267801Y-6890936D01*
X267801Y-6890936D02*
X258277Y-6871888D01*
X258277Y-6871888D02*
X248753Y-6833793D01*
X248753Y-6833793D02*
X248753Y-6786174D01*
X248753Y-6786174D02*
X258277Y-6748079D01*
X258277Y-6748079D02*
X267801Y-6729031D01*
X267801Y-6729031D02*
X277324Y-6719508D01*
X277324Y-6719508D02*
X296372Y-6709984D01*
X448753Y-6890936D02*
X458277Y-6900460D01*
X458277Y-6900460D02*
X448753Y-6909984D01*
X448753Y-6909984D02*
X439229Y-6900460D01*
X439229Y-6900460D02*
X448753Y-6890936D01*
X448753Y-6890936D02*
X448753Y-6909984D01*
X572563Y-6795698D02*
X553515Y-6786174D01*
X553515Y-6786174D02*
X543991Y-6776650D01*
X543991Y-6776650D02*
X534467Y-6757603D01*
X534467Y-6757603D02*
X534467Y-6748079D01*
X534467Y-6748079D02*
X543991Y-6729031D01*
X543991Y-6729031D02*
X553515Y-6719508D01*
X553515Y-6719508D02*
X572563Y-6709984D01*
X572563Y-6709984D02*
X610658Y-6709984D01*
X610658Y-6709984D02*
X629705Y-6719508D01*
X629705Y-6719508D02*
X639229Y-6729031D01*
X639229Y-6729031D02*
X648753Y-6748079D01*
X648753Y-6748079D02*
X648753Y-6757603D01*
X648753Y-6757603D02*
X639229Y-6776650D01*
X639229Y-6776650D02*
X629705Y-6786174D01*
X629705Y-6786174D02*
X610658Y-6795698D01*
X610658Y-6795698D02*
X572563Y-6795698D01*
X572563Y-6795698D02*
X553515Y-6805222D01*
X553515Y-6805222D02*
X543991Y-6814746D01*
X543991Y-6814746D02*
X534467Y-6833793D01*
X534467Y-6833793D02*
X534467Y-6871888D01*
X534467Y-6871888D02*
X543991Y-6890936D01*
X543991Y-6890936D02*
X553515Y-6900460D01*
X553515Y-6900460D02*
X572563Y-6909984D01*
X572563Y-6909984D02*
X610658Y-6909984D01*
X610658Y-6909984D02*
X629705Y-6900460D01*
X629705Y-6900460D02*
X639229Y-6890936D01*
X639229Y-6890936D02*
X648753Y-6871888D01*
X648753Y-6871888D02*
X648753Y-6833793D01*
X648753Y-6833793D02*
X639229Y-6814746D01*
X639229Y-6814746D02*
X629705Y-6805222D01*
X629705Y-6805222D02*
X610658Y-6795698D01*
X772562Y-6709984D02*
X791610Y-6709984D01*
X791610Y-6709984D02*
X810658Y-6719508D01*
X810658Y-6719508D02*
X820182Y-6729031D01*
X820182Y-6729031D02*
X829705Y-6748079D01*
X829705Y-6748079D02*
X839229Y-6786174D01*
X839229Y-6786174D02*
X839229Y-6833793D01*
X839229Y-6833793D02*
X829705Y-6871888D01*
X829705Y-6871888D02*
X820182Y-6890936D01*
X820182Y-6890936D02*
X810658Y-6900460D01*
X810658Y-6900460D02*
X791610Y-6909984D01*
X791610Y-6909984D02*
X772562Y-6909984D01*
X772562Y-6909984D02*
X753515Y-6900460D01*
X753515Y-6900460D02*
X743991Y-6890936D01*
X743991Y-6890936D02*
X734467Y-6871888D01*
X734467Y-6871888D02*
X724943Y-6833793D01*
X724943Y-6833793D02*
X724943Y-6786174D01*
X724943Y-6786174D02*
X734467Y-6748079D01*
X734467Y-6748079D02*
X743991Y-6729031D01*
X743991Y-6729031D02*
X753515Y-6719508D01*
X753515Y-6719508D02*
X772562Y-6709984D01*
X963039Y-6709984D02*
X982086Y-6709984D01*
X982086Y-6709984D02*
X1001134Y-6719508D01*
X1001134Y-6719508D02*
X1010658Y-6729031D01*
X1010658Y-6729031D02*
X1020182Y-6748079D01*
X1020182Y-6748079D02*
X1029705Y-6786174D01*
X1029705Y-6786174D02*
X1029705Y-6833793D01*
X1029705Y-6833793D02*
X1020182Y-6871888D01*
X1020182Y-6871888D02*
X1010658Y-6890936D01*
X1010658Y-6890936D02*
X1001134Y-6900460D01*
X1001134Y-6900460D02*
X982086Y-6909984D01*
X982086Y-6909984D02*
X963039Y-6909984D01*
X963039Y-6909984D02*
X943991Y-6900460D01*
X943991Y-6900460D02*
X934467Y-6890936D01*
X934467Y-6890936D02*
X924943Y-6871888D01*
X924943Y-6871888D02*
X915420Y-6833793D01*
X915420Y-6833793D02*
X915420Y-6786174D01*
X915420Y-6786174D02*
X924943Y-6748079D01*
X924943Y-6748079D02*
X934467Y-6729031D01*
X934467Y-6729031D02*
X943991Y-6719508D01*
X943991Y-6719508D02*
X963039Y-6709984D01*
X1115420Y-6909984D02*
X1115420Y-6776650D01*
X1115420Y-6795698D02*
X1124944Y-6786174D01*
X1124944Y-6786174D02*
X1143991Y-6776650D01*
X1143991Y-6776650D02*
X1172563Y-6776650D01*
X1172563Y-6776650D02*
X1191610Y-6786174D01*
X1191610Y-6786174D02*
X1201134Y-6805222D01*
X1201134Y-6805222D02*
X1201134Y-6909984D01*
X1201134Y-6805222D02*
X1210658Y-6786174D01*
X1210658Y-6786174D02*
X1229705Y-6776650D01*
X1229705Y-6776650D02*
X1258277Y-6776650D01*
X1258277Y-6776650D02*
X1277325Y-6786174D01*
X1277325Y-6786174D02*
X1286848Y-6805222D01*
X1286848Y-6805222D02*
X1286848Y-6909984D01*
X1382086Y-6909984D02*
X1382086Y-6776650D01*
X1382086Y-6795698D02*
X1391610Y-6786174D01*
X1391610Y-6786174D02*
X1410658Y-6776650D01*
X1410658Y-6776650D02*
X1439229Y-6776650D01*
X1439229Y-6776650D02*
X1458277Y-6786174D01*
X1458277Y-6786174D02*
X1467801Y-6805222D01*
X1467801Y-6805222D02*
X1467801Y-6909984D01*
X1467801Y-6805222D02*
X1477324Y-6786174D01*
X1477324Y-6786174D02*
X1496372Y-6776650D01*
X1496372Y-6776650D02*
X1524943Y-6776650D01*
X1524943Y-6776650D02*
X1543991Y-6786174D01*
X1543991Y-6786174D02*
X1553515Y-6805222D01*
X1553515Y-6805222D02*
X1553515Y-6909984D01*
X1943991Y-6700460D02*
X1772563Y-6957603D01*
X2201134Y-6709984D02*
X2220182Y-6709984D01*
X2220182Y-6709984D02*
X2239229Y-6719508D01*
X2239229Y-6719508D02*
X2248753Y-6729031D01*
X2248753Y-6729031D02*
X2258277Y-6748079D01*
X2258277Y-6748079D02*
X2267801Y-6786174D01*
X2267801Y-6786174D02*
X2267801Y-6833793D01*
X2267801Y-6833793D02*
X2258277Y-6871888D01*
X2258277Y-6871888D02*
X2248753Y-6890936D01*
X2248753Y-6890936D02*
X2239229Y-6900460D01*
X2239229Y-6900460D02*
X2220182Y-6909984D01*
X2220182Y-6909984D02*
X2201134Y-6909984D01*
X2201134Y-6909984D02*
X2182087Y-6900460D01*
X2182087Y-6900460D02*
X2172563Y-6890936D01*
X2172563Y-6890936D02*
X2163039Y-6871888D01*
X2163039Y-6871888D02*
X2153515Y-6833793D01*
X2153515Y-6833793D02*
X2153515Y-6786174D01*
X2153515Y-6786174D02*
X2163039Y-6748079D01*
X2163039Y-6748079D02*
X2172563Y-6729031D01*
X2172563Y-6729031D02*
X2182087Y-6719508D01*
X2182087Y-6719508D02*
X2201134Y-6709984D01*
X2353515Y-6890936D02*
X2363039Y-6900460D01*
X2363039Y-6900460D02*
X2353515Y-6909984D01*
X2353515Y-6909984D02*
X2343991Y-6900460D01*
X2343991Y-6900460D02*
X2353515Y-6890936D01*
X2353515Y-6890936D02*
X2353515Y-6909984D01*
X2486848Y-6709984D02*
X2505896Y-6709984D01*
X2505896Y-6709984D02*
X2524944Y-6719508D01*
X2524944Y-6719508D02*
X2534468Y-6729031D01*
X2534468Y-6729031D02*
X2543991Y-6748079D01*
X2543991Y-6748079D02*
X2553515Y-6786174D01*
X2553515Y-6786174D02*
X2553515Y-6833793D01*
X2553515Y-6833793D02*
X2543991Y-6871888D01*
X2543991Y-6871888D02*
X2534468Y-6890936D01*
X2534468Y-6890936D02*
X2524944Y-6900460D01*
X2524944Y-6900460D02*
X2505896Y-6909984D01*
X2505896Y-6909984D02*
X2486848Y-6909984D01*
X2486848Y-6909984D02*
X2467801Y-6900460D01*
X2467801Y-6900460D02*
X2458277Y-6890936D01*
X2458277Y-6890936D02*
X2448753Y-6871888D01*
X2448753Y-6871888D02*
X2439229Y-6833793D01*
X2439229Y-6833793D02*
X2439229Y-6786174D01*
X2439229Y-6786174D02*
X2448753Y-6748079D01*
X2448753Y-6748079D02*
X2458277Y-6729031D01*
X2458277Y-6729031D02*
X2467801Y-6719508D01*
X2467801Y-6719508D02*
X2486848Y-6709984D01*
X2620182Y-6709984D02*
X2743991Y-6709984D01*
X2743991Y-6709984D02*
X2677325Y-6786174D01*
X2677325Y-6786174D02*
X2705896Y-6786174D01*
X2705896Y-6786174D02*
X2724944Y-6795698D01*
X2724944Y-6795698D02*
X2734468Y-6805222D01*
X2734468Y-6805222D02*
X2743991Y-6824269D01*
X2743991Y-6824269D02*
X2743991Y-6871888D01*
X2743991Y-6871888D02*
X2734468Y-6890936D01*
X2734468Y-6890936D02*
X2724944Y-6900460D01*
X2724944Y-6900460D02*
X2705896Y-6909984D01*
X2705896Y-6909984D02*
X2648753Y-6909984D01*
X2648753Y-6909984D02*
X2629706Y-6900460D01*
X2629706Y-6900460D02*
X2620182Y-6890936D01*
X2934467Y-6909984D02*
X2820182Y-6909984D01*
X2877325Y-6909984D02*
X2877325Y-6709984D01*
X2877325Y-6709984D02*
X2858277Y-6738555D01*
X2858277Y-6738555D02*
X2839229Y-6757603D01*
X2839229Y-6757603D02*
X2820182Y-6767127D01*
X3115420Y-6709984D02*
X3020182Y-6709984D01*
X3020182Y-6709984D02*
X3010658Y-6805222D01*
X3010658Y-6805222D02*
X3020182Y-6795698D01*
X3020182Y-6795698D02*
X3039229Y-6786174D01*
X3039229Y-6786174D02*
X3086848Y-6786174D01*
X3086848Y-6786174D02*
X3105896Y-6795698D01*
X3105896Y-6795698D02*
X3115420Y-6805222D01*
X3115420Y-6805222D02*
X3124944Y-6824269D01*
X3124944Y-6824269D02*
X3124944Y-6871888D01*
X3124944Y-6871888D02*
X3115420Y-6890936D01*
X3115420Y-6890936D02*
X3105896Y-6900460D01*
X3105896Y-6900460D02*
X3086848Y-6909984D01*
X3086848Y-6909984D02*
X3039229Y-6909984D01*
X3039229Y-6909984D02*
X3020182Y-6900460D01*
X3020182Y-6900460D02*
X3010658Y-6890936D01*
X3201134Y-6709984D02*
X3201134Y-6748079D01*
X3277325Y-6709984D02*
X3277325Y-6748079D01*
X3572563Y-6986174D02*
X3563039Y-6976650D01*
X3563039Y-6976650D02*
X3543991Y-6948079D01*
X3543991Y-6948079D02*
X3534468Y-6929031D01*
X3534468Y-6929031D02*
X3524944Y-6900460D01*
X3524944Y-6900460D02*
X3515420Y-6852841D01*
X3515420Y-6852841D02*
X3515420Y-6814746D01*
X3515420Y-6814746D02*
X3524944Y-6767127D01*
X3524944Y-6767127D02*
X3534468Y-6738555D01*
X3534468Y-6738555D02*
X3543991Y-6719508D01*
X3543991Y-6719508D02*
X3563039Y-6690936D01*
X3563039Y-6690936D02*
X3572563Y-6681412D01*
X3639229Y-6729031D02*
X3648753Y-6719508D01*
X3648753Y-6719508D02*
X3667801Y-6709984D01*
X3667801Y-6709984D02*
X3715420Y-6709984D01*
X3715420Y-6709984D02*
X3734468Y-6719508D01*
X3734468Y-6719508D02*
X3743991Y-6729031D01*
X3743991Y-6729031D02*
X3753515Y-6748079D01*
X3753515Y-6748079D02*
X3753515Y-6767127D01*
X3753515Y-6767127D02*
X3743991Y-6795698D01*
X3743991Y-6795698D02*
X3629706Y-6909984D01*
X3629706Y-6909984D02*
X3753515Y-6909984D01*
X3991610Y-6909984D02*
X3991610Y-6709984D01*
X4077325Y-6909984D02*
X4077325Y-6805222D01*
X4077325Y-6805222D02*
X4067801Y-6786174D01*
X4067801Y-6786174D02*
X4048753Y-6776650D01*
X4048753Y-6776650D02*
X4020182Y-6776650D01*
X4020182Y-6776650D02*
X4001134Y-6786174D01*
X4001134Y-6786174D02*
X3991610Y-6795698D01*
X4201134Y-6909984D02*
X4182087Y-6900460D01*
X4182087Y-6900460D02*
X4172563Y-6890936D01*
X4172563Y-6890936D02*
X4163039Y-6871888D01*
X4163039Y-6871888D02*
X4163039Y-6814746D01*
X4163039Y-6814746D02*
X4172563Y-6795698D01*
X4172563Y-6795698D02*
X4182087Y-6786174D01*
X4182087Y-6786174D02*
X4201134Y-6776650D01*
X4201134Y-6776650D02*
X4229706Y-6776650D01*
X4229706Y-6776650D02*
X4248753Y-6786174D01*
X4248753Y-6786174D02*
X4258277Y-6795698D01*
X4258277Y-6795698D02*
X4267801Y-6814746D01*
X4267801Y-6814746D02*
X4267801Y-6871888D01*
X4267801Y-6871888D02*
X4258277Y-6890936D01*
X4258277Y-6890936D02*
X4248753Y-6900460D01*
X4248753Y-6900460D02*
X4229706Y-6909984D01*
X4229706Y-6909984D02*
X4201134Y-6909984D01*
X4382087Y-6909984D02*
X4363039Y-6900460D01*
X4363039Y-6900460D02*
X4353515Y-6881412D01*
X4353515Y-6881412D02*
X4353515Y-6709984D01*
X4534468Y-6900460D02*
X4515420Y-6909984D01*
X4515420Y-6909984D02*
X4477325Y-6909984D01*
X4477325Y-6909984D02*
X4458277Y-6900460D01*
X4458277Y-6900460D02*
X4448753Y-6881412D01*
X4448753Y-6881412D02*
X4448753Y-6805222D01*
X4448753Y-6805222D02*
X4458277Y-6786174D01*
X4458277Y-6786174D02*
X4477325Y-6776650D01*
X4477325Y-6776650D02*
X4515420Y-6776650D01*
X4515420Y-6776650D02*
X4534468Y-6786174D01*
X4534468Y-6786174D02*
X4543992Y-6805222D01*
X4543992Y-6805222D02*
X4543992Y-6824269D01*
X4543992Y-6824269D02*
X4448753Y-6843317D01*
X4620182Y-6900460D02*
X4639230Y-6909984D01*
X4639230Y-6909984D02*
X4677325Y-6909984D01*
X4677325Y-6909984D02*
X4696373Y-6900460D01*
X4696373Y-6900460D02*
X4705896Y-6881412D01*
X4705896Y-6881412D02*
X4705896Y-6871888D01*
X4705896Y-6871888D02*
X4696373Y-6852841D01*
X4696373Y-6852841D02*
X4677325Y-6843317D01*
X4677325Y-6843317D02*
X4648753Y-6843317D01*
X4648753Y-6843317D02*
X4629706Y-6833793D01*
X4629706Y-6833793D02*
X4620182Y-6814746D01*
X4620182Y-6814746D02*
X4620182Y-6805222D01*
X4620182Y-6805222D02*
X4629706Y-6786174D01*
X4629706Y-6786174D02*
X4648753Y-6776650D01*
X4648753Y-6776650D02*
X4677325Y-6776650D01*
X4677325Y-6776650D02*
X4696373Y-6786174D01*
X4772563Y-6986174D02*
X4782087Y-6976650D01*
X4782087Y-6976650D02*
X4801134Y-6948079D01*
X4801134Y-6948079D02*
X4810658Y-6929031D01*
X4810658Y-6929031D02*
X4820182Y-6900460D01*
X4820182Y-6900460D02*
X4829706Y-6852841D01*
X4829706Y-6852841D02*
X4829706Y-6814746D01*
X4829706Y-6814746D02*
X4820182Y-6767127D01*
X4820182Y-6767127D02*
X4810658Y-6738555D01*
X4810658Y-6738555D02*
X4801134Y-6719508D01*
X4801134Y-6719508D02*
X4782087Y-6690936D01*
X4782087Y-6690936D02*
X4772563Y-6681412D01*
D15*
X-45000Y-7125000D02*
X-2500Y-7082500D01*
X-45000Y-7040000D01*
X-87500Y-7082500D01*
X-45000Y-7125000D01*
D11*
X296372Y-6973984D02*
X315420Y-6973984D01*
X315420Y-6973984D02*
X334467Y-6983508D01*
X334467Y-6983508D02*
X343991Y-6993031D01*
X343991Y-6993031D02*
X353515Y-7012079D01*
X353515Y-7012079D02*
X363039Y-7050174D01*
X363039Y-7050174D02*
X363039Y-7097793D01*
X363039Y-7097793D02*
X353515Y-7135888D01*
X353515Y-7135888D02*
X343991Y-7154936D01*
X343991Y-7154936D02*
X334467Y-7164460D01*
X334467Y-7164460D02*
X315420Y-7173984D01*
X315420Y-7173984D02*
X296372Y-7173984D01*
X296372Y-7173984D02*
X277324Y-7164460D01*
X277324Y-7164460D02*
X267801Y-7154936D01*
X267801Y-7154936D02*
X258277Y-7135888D01*
X258277Y-7135888D02*
X248753Y-7097793D01*
X248753Y-7097793D02*
X248753Y-7050174D01*
X248753Y-7050174D02*
X258277Y-7012079D01*
X258277Y-7012079D02*
X267801Y-6993031D01*
X267801Y-6993031D02*
X277324Y-6983508D01*
X277324Y-6983508D02*
X296372Y-6973984D01*
X448753Y-7154936D02*
X458277Y-7164460D01*
X458277Y-7164460D02*
X448753Y-7173984D01*
X448753Y-7173984D02*
X439229Y-7164460D01*
X439229Y-7164460D02*
X448753Y-7154936D01*
X448753Y-7154936D02*
X448753Y-7173984D01*
X572563Y-7059698D02*
X553515Y-7050174D01*
X553515Y-7050174D02*
X543991Y-7040650D01*
X543991Y-7040650D02*
X534467Y-7021603D01*
X534467Y-7021603D02*
X534467Y-7012079D01*
X534467Y-7012079D02*
X543991Y-6993031D01*
X543991Y-6993031D02*
X553515Y-6983508D01*
X553515Y-6983508D02*
X572563Y-6973984D01*
X572563Y-6973984D02*
X610658Y-6973984D01*
X610658Y-6973984D02*
X629705Y-6983508D01*
X629705Y-6983508D02*
X639229Y-6993031D01*
X639229Y-6993031D02*
X648753Y-7012079D01*
X648753Y-7012079D02*
X648753Y-7021603D01*
X648753Y-7021603D02*
X639229Y-7040650D01*
X639229Y-7040650D02*
X629705Y-7050174D01*
X629705Y-7050174D02*
X610658Y-7059698D01*
X610658Y-7059698D02*
X572563Y-7059698D01*
X572563Y-7059698D02*
X553515Y-7069222D01*
X553515Y-7069222D02*
X543991Y-7078746D01*
X543991Y-7078746D02*
X534467Y-7097793D01*
X534467Y-7097793D02*
X534467Y-7135888D01*
X534467Y-7135888D02*
X543991Y-7154936D01*
X543991Y-7154936D02*
X553515Y-7164460D01*
X553515Y-7164460D02*
X572563Y-7173984D01*
X572563Y-7173984D02*
X610658Y-7173984D01*
X610658Y-7173984D02*
X629705Y-7164460D01*
X629705Y-7164460D02*
X639229Y-7154936D01*
X639229Y-7154936D02*
X648753Y-7135888D01*
X648753Y-7135888D02*
X648753Y-7097793D01*
X648753Y-7097793D02*
X639229Y-7078746D01*
X639229Y-7078746D02*
X629705Y-7069222D01*
X629705Y-7069222D02*
X610658Y-7059698D01*
X829705Y-6973984D02*
X734467Y-6973984D01*
X734467Y-6973984D02*
X724943Y-7069222D01*
X724943Y-7069222D02*
X734467Y-7059698D01*
X734467Y-7059698D02*
X753515Y-7050174D01*
X753515Y-7050174D02*
X801134Y-7050174D01*
X801134Y-7050174D02*
X820182Y-7059698D01*
X820182Y-7059698D02*
X829705Y-7069222D01*
X829705Y-7069222D02*
X839229Y-7088269D01*
X839229Y-7088269D02*
X839229Y-7135888D01*
X839229Y-7135888D02*
X829705Y-7154936D01*
X829705Y-7154936D02*
X820182Y-7164460D01*
X820182Y-7164460D02*
X801134Y-7173984D01*
X801134Y-7173984D02*
X753515Y-7173984D01*
X753515Y-7173984D02*
X734467Y-7164460D01*
X734467Y-7164460D02*
X724943Y-7154936D01*
X963039Y-6973984D02*
X982086Y-6973984D01*
X982086Y-6973984D02*
X1001134Y-6983508D01*
X1001134Y-6983508D02*
X1010658Y-6993031D01*
X1010658Y-6993031D02*
X1020182Y-7012079D01*
X1020182Y-7012079D02*
X1029705Y-7050174D01*
X1029705Y-7050174D02*
X1029705Y-7097793D01*
X1029705Y-7097793D02*
X1020182Y-7135888D01*
X1020182Y-7135888D02*
X1010658Y-7154936D01*
X1010658Y-7154936D02*
X1001134Y-7164460D01*
X1001134Y-7164460D02*
X982086Y-7173984D01*
X982086Y-7173984D02*
X963039Y-7173984D01*
X963039Y-7173984D02*
X943991Y-7164460D01*
X943991Y-7164460D02*
X934467Y-7154936D01*
X934467Y-7154936D02*
X924943Y-7135888D01*
X924943Y-7135888D02*
X915420Y-7097793D01*
X915420Y-7097793D02*
X915420Y-7050174D01*
X915420Y-7050174D02*
X924943Y-7012079D01*
X924943Y-7012079D02*
X934467Y-6993031D01*
X934467Y-6993031D02*
X943991Y-6983508D01*
X943991Y-6983508D02*
X963039Y-6973984D01*
X1115420Y-7173984D02*
X1115420Y-7040650D01*
X1115420Y-7059698D02*
X1124944Y-7050174D01*
X1124944Y-7050174D02*
X1143991Y-7040650D01*
X1143991Y-7040650D02*
X1172563Y-7040650D01*
X1172563Y-7040650D02*
X1191610Y-7050174D01*
X1191610Y-7050174D02*
X1201134Y-7069222D01*
X1201134Y-7069222D02*
X1201134Y-7173984D01*
X1201134Y-7069222D02*
X1210658Y-7050174D01*
X1210658Y-7050174D02*
X1229705Y-7040650D01*
X1229705Y-7040650D02*
X1258277Y-7040650D01*
X1258277Y-7040650D02*
X1277325Y-7050174D01*
X1277325Y-7050174D02*
X1286848Y-7069222D01*
X1286848Y-7069222D02*
X1286848Y-7173984D01*
X1382086Y-7173984D02*
X1382086Y-7040650D01*
X1382086Y-7059698D02*
X1391610Y-7050174D01*
X1391610Y-7050174D02*
X1410658Y-7040650D01*
X1410658Y-7040650D02*
X1439229Y-7040650D01*
X1439229Y-7040650D02*
X1458277Y-7050174D01*
X1458277Y-7050174D02*
X1467801Y-7069222D01*
X1467801Y-7069222D02*
X1467801Y-7173984D01*
X1467801Y-7069222D02*
X1477324Y-7050174D01*
X1477324Y-7050174D02*
X1496372Y-7040650D01*
X1496372Y-7040650D02*
X1524943Y-7040650D01*
X1524943Y-7040650D02*
X1543991Y-7050174D01*
X1543991Y-7050174D02*
X1553515Y-7069222D01*
X1553515Y-7069222D02*
X1553515Y-7173984D01*
X1943991Y-6964460D02*
X1772563Y-7221603D01*
X2201134Y-6973984D02*
X2220182Y-6973984D01*
X2220182Y-6973984D02*
X2239229Y-6983508D01*
X2239229Y-6983508D02*
X2248753Y-6993031D01*
X2248753Y-6993031D02*
X2258277Y-7012079D01*
X2258277Y-7012079D02*
X2267801Y-7050174D01*
X2267801Y-7050174D02*
X2267801Y-7097793D01*
X2267801Y-7097793D02*
X2258277Y-7135888D01*
X2258277Y-7135888D02*
X2248753Y-7154936D01*
X2248753Y-7154936D02*
X2239229Y-7164460D01*
X2239229Y-7164460D02*
X2220182Y-7173984D01*
X2220182Y-7173984D02*
X2201134Y-7173984D01*
X2201134Y-7173984D02*
X2182087Y-7164460D01*
X2182087Y-7164460D02*
X2172563Y-7154936D01*
X2172563Y-7154936D02*
X2163039Y-7135888D01*
X2163039Y-7135888D02*
X2153515Y-7097793D01*
X2153515Y-7097793D02*
X2153515Y-7050174D01*
X2153515Y-7050174D02*
X2163039Y-7012079D01*
X2163039Y-7012079D02*
X2172563Y-6993031D01*
X2172563Y-6993031D02*
X2182087Y-6983508D01*
X2182087Y-6983508D02*
X2201134Y-6973984D01*
X2353515Y-7154936D02*
X2363039Y-7164460D01*
X2363039Y-7164460D02*
X2353515Y-7173984D01*
X2353515Y-7173984D02*
X2343991Y-7164460D01*
X2343991Y-7164460D02*
X2353515Y-7154936D01*
X2353515Y-7154936D02*
X2353515Y-7173984D01*
X2486848Y-6973984D02*
X2505896Y-6973984D01*
X2505896Y-6973984D02*
X2524944Y-6983508D01*
X2524944Y-6983508D02*
X2534468Y-6993031D01*
X2534468Y-6993031D02*
X2543991Y-7012079D01*
X2543991Y-7012079D02*
X2553515Y-7050174D01*
X2553515Y-7050174D02*
X2553515Y-7097793D01*
X2553515Y-7097793D02*
X2543991Y-7135888D01*
X2543991Y-7135888D02*
X2534468Y-7154936D01*
X2534468Y-7154936D02*
X2524944Y-7164460D01*
X2524944Y-7164460D02*
X2505896Y-7173984D01*
X2505896Y-7173984D02*
X2486848Y-7173984D01*
X2486848Y-7173984D02*
X2467801Y-7164460D01*
X2467801Y-7164460D02*
X2458277Y-7154936D01*
X2458277Y-7154936D02*
X2448753Y-7135888D01*
X2448753Y-7135888D02*
X2439229Y-7097793D01*
X2439229Y-7097793D02*
X2439229Y-7050174D01*
X2439229Y-7050174D02*
X2448753Y-7012079D01*
X2448753Y-7012079D02*
X2458277Y-6993031D01*
X2458277Y-6993031D02*
X2467801Y-6983508D01*
X2467801Y-6983508D02*
X2486848Y-6973984D01*
X2620182Y-6973984D02*
X2743991Y-6973984D01*
X2743991Y-6973984D02*
X2677325Y-7050174D01*
X2677325Y-7050174D02*
X2705896Y-7050174D01*
X2705896Y-7050174D02*
X2724944Y-7059698D01*
X2724944Y-7059698D02*
X2734468Y-7069222D01*
X2734468Y-7069222D02*
X2743991Y-7088269D01*
X2743991Y-7088269D02*
X2743991Y-7135888D01*
X2743991Y-7135888D02*
X2734468Y-7154936D01*
X2734468Y-7154936D02*
X2724944Y-7164460D01*
X2724944Y-7164460D02*
X2705896Y-7173984D01*
X2705896Y-7173984D02*
X2648753Y-7173984D01*
X2648753Y-7173984D02*
X2629706Y-7164460D01*
X2629706Y-7164460D02*
X2620182Y-7154936D01*
X2810658Y-6973984D02*
X2934467Y-6973984D01*
X2934467Y-6973984D02*
X2867801Y-7050174D01*
X2867801Y-7050174D02*
X2896372Y-7050174D01*
X2896372Y-7050174D02*
X2915420Y-7059698D01*
X2915420Y-7059698D02*
X2924944Y-7069222D01*
X2924944Y-7069222D02*
X2934467Y-7088269D01*
X2934467Y-7088269D02*
X2934467Y-7135888D01*
X2934467Y-7135888D02*
X2924944Y-7154936D01*
X2924944Y-7154936D02*
X2915420Y-7164460D01*
X2915420Y-7164460D02*
X2896372Y-7173984D01*
X2896372Y-7173984D02*
X2839229Y-7173984D01*
X2839229Y-7173984D02*
X2820182Y-7164460D01*
X2820182Y-7164460D02*
X2810658Y-7154936D01*
X3115420Y-6973984D02*
X3020182Y-6973984D01*
X3020182Y-6973984D02*
X3010658Y-7069222D01*
X3010658Y-7069222D02*
X3020182Y-7059698D01*
X3020182Y-7059698D02*
X3039229Y-7050174D01*
X3039229Y-7050174D02*
X3086848Y-7050174D01*
X3086848Y-7050174D02*
X3105896Y-7059698D01*
X3105896Y-7059698D02*
X3115420Y-7069222D01*
X3115420Y-7069222D02*
X3124944Y-7088269D01*
X3124944Y-7088269D02*
X3124944Y-7135888D01*
X3124944Y-7135888D02*
X3115420Y-7154936D01*
X3115420Y-7154936D02*
X3105896Y-7164460D01*
X3105896Y-7164460D02*
X3086848Y-7173984D01*
X3086848Y-7173984D02*
X3039229Y-7173984D01*
X3039229Y-7173984D02*
X3020182Y-7164460D01*
X3020182Y-7164460D02*
X3010658Y-7154936D01*
X3201134Y-6973984D02*
X3201134Y-7012079D01*
X3277325Y-6973984D02*
X3277325Y-7012079D01*
X3572563Y-7250174D02*
X3563039Y-7240650D01*
X3563039Y-7240650D02*
X3543991Y-7212079D01*
X3543991Y-7212079D02*
X3534468Y-7193031D01*
X3534468Y-7193031D02*
X3524944Y-7164460D01*
X3524944Y-7164460D02*
X3515420Y-7116841D01*
X3515420Y-7116841D02*
X3515420Y-7078746D01*
X3515420Y-7078746D02*
X3524944Y-7031127D01*
X3524944Y-7031127D02*
X3534468Y-7002555D01*
X3534468Y-7002555D02*
X3543991Y-6983508D01*
X3543991Y-6983508D02*
X3563039Y-6954936D01*
X3563039Y-6954936D02*
X3572563Y-6945412D01*
X3639229Y-6993031D02*
X3648753Y-6983508D01*
X3648753Y-6983508D02*
X3667801Y-6973984D01*
X3667801Y-6973984D02*
X3715420Y-6973984D01*
X3715420Y-6973984D02*
X3734468Y-6983508D01*
X3734468Y-6983508D02*
X3743991Y-6993031D01*
X3743991Y-6993031D02*
X3753515Y-7012079D01*
X3753515Y-7012079D02*
X3753515Y-7031127D01*
X3753515Y-7031127D02*
X3743991Y-7059698D01*
X3743991Y-7059698D02*
X3629706Y-7173984D01*
X3629706Y-7173984D02*
X3753515Y-7173984D01*
X3991610Y-7173984D02*
X3991610Y-6973984D01*
X4077325Y-7173984D02*
X4077325Y-7069222D01*
X4077325Y-7069222D02*
X4067801Y-7050174D01*
X4067801Y-7050174D02*
X4048753Y-7040650D01*
X4048753Y-7040650D02*
X4020182Y-7040650D01*
X4020182Y-7040650D02*
X4001134Y-7050174D01*
X4001134Y-7050174D02*
X3991610Y-7059698D01*
X4201134Y-7173984D02*
X4182087Y-7164460D01*
X4182087Y-7164460D02*
X4172563Y-7154936D01*
X4172563Y-7154936D02*
X4163039Y-7135888D01*
X4163039Y-7135888D02*
X4163039Y-7078746D01*
X4163039Y-7078746D02*
X4172563Y-7059698D01*
X4172563Y-7059698D02*
X4182087Y-7050174D01*
X4182087Y-7050174D02*
X4201134Y-7040650D01*
X4201134Y-7040650D02*
X4229706Y-7040650D01*
X4229706Y-7040650D02*
X4248753Y-7050174D01*
X4248753Y-7050174D02*
X4258277Y-7059698D01*
X4258277Y-7059698D02*
X4267801Y-7078746D01*
X4267801Y-7078746D02*
X4267801Y-7135888D01*
X4267801Y-7135888D02*
X4258277Y-7154936D01*
X4258277Y-7154936D02*
X4248753Y-7164460D01*
X4248753Y-7164460D02*
X4229706Y-7173984D01*
X4229706Y-7173984D02*
X4201134Y-7173984D01*
X4382087Y-7173984D02*
X4363039Y-7164460D01*
X4363039Y-7164460D02*
X4353515Y-7145412D01*
X4353515Y-7145412D02*
X4353515Y-6973984D01*
X4534468Y-7164460D02*
X4515420Y-7173984D01*
X4515420Y-7173984D02*
X4477325Y-7173984D01*
X4477325Y-7173984D02*
X4458277Y-7164460D01*
X4458277Y-7164460D02*
X4448753Y-7145412D01*
X4448753Y-7145412D02*
X4448753Y-7069222D01*
X4448753Y-7069222D02*
X4458277Y-7050174D01*
X4458277Y-7050174D02*
X4477325Y-7040650D01*
X4477325Y-7040650D02*
X4515420Y-7040650D01*
X4515420Y-7040650D02*
X4534468Y-7050174D01*
X4534468Y-7050174D02*
X4543992Y-7069222D01*
X4543992Y-7069222D02*
X4543992Y-7088269D01*
X4543992Y-7088269D02*
X4448753Y-7107317D01*
X4620182Y-7164460D02*
X4639230Y-7173984D01*
X4639230Y-7173984D02*
X4677325Y-7173984D01*
X4677325Y-7173984D02*
X4696373Y-7164460D01*
X4696373Y-7164460D02*
X4705896Y-7145412D01*
X4705896Y-7145412D02*
X4705896Y-7135888D01*
X4705896Y-7135888D02*
X4696373Y-7116841D01*
X4696373Y-7116841D02*
X4677325Y-7107317D01*
X4677325Y-7107317D02*
X4648753Y-7107317D01*
X4648753Y-7107317D02*
X4629706Y-7097793D01*
X4629706Y-7097793D02*
X4620182Y-7078746D01*
X4620182Y-7078746D02*
X4620182Y-7069222D01*
X4620182Y-7069222D02*
X4629706Y-7050174D01*
X4629706Y-7050174D02*
X4648753Y-7040650D01*
X4648753Y-7040650D02*
X4677325Y-7040650D01*
X4677325Y-7040650D02*
X4696373Y-7050174D01*
X4772563Y-7250174D02*
X4782087Y-7240650D01*
X4782087Y-7240650D02*
X4801134Y-7212079D01*
X4801134Y-7212079D02*
X4810658Y-7193031D01*
X4810658Y-7193031D02*
X4820182Y-7164460D01*
X4820182Y-7164460D02*
X4829706Y-7116841D01*
X4829706Y-7116841D02*
X4829706Y-7078746D01*
X4829706Y-7078746D02*
X4820182Y-7031127D01*
X4820182Y-7031127D02*
X4810658Y-7002555D01*
X4810658Y-7002555D02*
X4801134Y-6983508D01*
X4801134Y-6983508D02*
X4782087Y-6954936D01*
X4782087Y-6954936D02*
X4772563Y-6945412D01*
D16*
X-102500Y-7296500D02*
X-2500Y-7396500D01*
X-2500Y-7296500D02*
X-102500Y-7396500D01*
X-2500Y-7346500D02*
G75*
G03*
X-2500Y-7346500I-50000J0D01*
G01*
D11*
X363039Y-7437984D02*
X248753Y-7437984D01*
X305896Y-7437984D02*
X305896Y-7237984D01*
X305896Y-7237984D02*
X286848Y-7266555D01*
X286848Y-7266555D02*
X267801Y-7285603D01*
X267801Y-7285603D02*
X248753Y-7295127D01*
X448753Y-7418936D02*
X458277Y-7428460D01*
X458277Y-7428460D02*
X448753Y-7437984D01*
X448753Y-7437984D02*
X439229Y-7428460D01*
X439229Y-7428460D02*
X448753Y-7418936D01*
X448753Y-7418936D02*
X448753Y-7437984D01*
X582086Y-7237984D02*
X601134Y-7237984D01*
X601134Y-7237984D02*
X620182Y-7247508D01*
X620182Y-7247508D02*
X629705Y-7257031D01*
X629705Y-7257031D02*
X639229Y-7276079D01*
X639229Y-7276079D02*
X648753Y-7314174D01*
X648753Y-7314174D02*
X648753Y-7361793D01*
X648753Y-7361793D02*
X639229Y-7399888D01*
X639229Y-7399888D02*
X629705Y-7418936D01*
X629705Y-7418936D02*
X620182Y-7428460D01*
X620182Y-7428460D02*
X601134Y-7437984D01*
X601134Y-7437984D02*
X582086Y-7437984D01*
X582086Y-7437984D02*
X563039Y-7428460D01*
X563039Y-7428460D02*
X553515Y-7418936D01*
X553515Y-7418936D02*
X543991Y-7399888D01*
X543991Y-7399888D02*
X534467Y-7361793D01*
X534467Y-7361793D02*
X534467Y-7314174D01*
X534467Y-7314174D02*
X543991Y-7276079D01*
X543991Y-7276079D02*
X553515Y-7257031D01*
X553515Y-7257031D02*
X563039Y-7247508D01*
X563039Y-7247508D02*
X582086Y-7237984D01*
X772562Y-7237984D02*
X791610Y-7237984D01*
X791610Y-7237984D02*
X810658Y-7247508D01*
X810658Y-7247508D02*
X820182Y-7257031D01*
X820182Y-7257031D02*
X829705Y-7276079D01*
X829705Y-7276079D02*
X839229Y-7314174D01*
X839229Y-7314174D02*
X839229Y-7361793D01*
X839229Y-7361793D02*
X829705Y-7399888D01*
X829705Y-7399888D02*
X820182Y-7418936D01*
X820182Y-7418936D02*
X810658Y-7428460D01*
X810658Y-7428460D02*
X791610Y-7437984D01*
X791610Y-7437984D02*
X772562Y-7437984D01*
X772562Y-7437984D02*
X753515Y-7428460D01*
X753515Y-7428460D02*
X743991Y-7418936D01*
X743991Y-7418936D02*
X734467Y-7399888D01*
X734467Y-7399888D02*
X724943Y-7361793D01*
X724943Y-7361793D02*
X724943Y-7314174D01*
X724943Y-7314174D02*
X734467Y-7276079D01*
X734467Y-7276079D02*
X743991Y-7257031D01*
X743991Y-7257031D02*
X753515Y-7247508D01*
X753515Y-7247508D02*
X772562Y-7237984D01*
X963039Y-7237984D02*
X982086Y-7237984D01*
X982086Y-7237984D02*
X1001134Y-7247508D01*
X1001134Y-7247508D02*
X1010658Y-7257031D01*
X1010658Y-7257031D02*
X1020182Y-7276079D01*
X1020182Y-7276079D02*
X1029705Y-7314174D01*
X1029705Y-7314174D02*
X1029705Y-7361793D01*
X1029705Y-7361793D02*
X1020182Y-7399888D01*
X1020182Y-7399888D02*
X1010658Y-7418936D01*
X1010658Y-7418936D02*
X1001134Y-7428460D01*
X1001134Y-7428460D02*
X982086Y-7437984D01*
X982086Y-7437984D02*
X963039Y-7437984D01*
X963039Y-7437984D02*
X943991Y-7428460D01*
X943991Y-7428460D02*
X934467Y-7418936D01*
X934467Y-7418936D02*
X924943Y-7399888D01*
X924943Y-7399888D02*
X915420Y-7361793D01*
X915420Y-7361793D02*
X915420Y-7314174D01*
X915420Y-7314174D02*
X924943Y-7276079D01*
X924943Y-7276079D02*
X934467Y-7257031D01*
X934467Y-7257031D02*
X943991Y-7247508D01*
X943991Y-7247508D02*
X963039Y-7237984D01*
X1115420Y-7437984D02*
X1115420Y-7304650D01*
X1115420Y-7323698D02*
X1124944Y-7314174D01*
X1124944Y-7314174D02*
X1143991Y-7304650D01*
X1143991Y-7304650D02*
X1172563Y-7304650D01*
X1172563Y-7304650D02*
X1191610Y-7314174D01*
X1191610Y-7314174D02*
X1201134Y-7333222D01*
X1201134Y-7333222D02*
X1201134Y-7437984D01*
X1201134Y-7333222D02*
X1210658Y-7314174D01*
X1210658Y-7314174D02*
X1229705Y-7304650D01*
X1229705Y-7304650D02*
X1258277Y-7304650D01*
X1258277Y-7304650D02*
X1277325Y-7314174D01*
X1277325Y-7314174D02*
X1286848Y-7333222D01*
X1286848Y-7333222D02*
X1286848Y-7437984D01*
X1382086Y-7437984D02*
X1382086Y-7304650D01*
X1382086Y-7323698D02*
X1391610Y-7314174D01*
X1391610Y-7314174D02*
X1410658Y-7304650D01*
X1410658Y-7304650D02*
X1439229Y-7304650D01*
X1439229Y-7304650D02*
X1458277Y-7314174D01*
X1458277Y-7314174D02*
X1467801Y-7333222D01*
X1467801Y-7333222D02*
X1467801Y-7437984D01*
X1467801Y-7333222D02*
X1477324Y-7314174D01*
X1477324Y-7314174D02*
X1496372Y-7304650D01*
X1496372Y-7304650D02*
X1524943Y-7304650D01*
X1524943Y-7304650D02*
X1543991Y-7314174D01*
X1543991Y-7314174D02*
X1553515Y-7333222D01*
X1553515Y-7333222D02*
X1553515Y-7437984D01*
X1943991Y-7228460D02*
X1772563Y-7485603D01*
X2201134Y-7237984D02*
X2220182Y-7237984D01*
X2220182Y-7237984D02*
X2239229Y-7247508D01*
X2239229Y-7247508D02*
X2248753Y-7257031D01*
X2248753Y-7257031D02*
X2258277Y-7276079D01*
X2258277Y-7276079D02*
X2267801Y-7314174D01*
X2267801Y-7314174D02*
X2267801Y-7361793D01*
X2267801Y-7361793D02*
X2258277Y-7399888D01*
X2258277Y-7399888D02*
X2248753Y-7418936D01*
X2248753Y-7418936D02*
X2239229Y-7428460D01*
X2239229Y-7428460D02*
X2220182Y-7437984D01*
X2220182Y-7437984D02*
X2201134Y-7437984D01*
X2201134Y-7437984D02*
X2182087Y-7428460D01*
X2182087Y-7428460D02*
X2172563Y-7418936D01*
X2172563Y-7418936D02*
X2163039Y-7399888D01*
X2163039Y-7399888D02*
X2153515Y-7361793D01*
X2153515Y-7361793D02*
X2153515Y-7314174D01*
X2153515Y-7314174D02*
X2163039Y-7276079D01*
X2163039Y-7276079D02*
X2172563Y-7257031D01*
X2172563Y-7257031D02*
X2182087Y-7247508D01*
X2182087Y-7247508D02*
X2201134Y-7237984D01*
X2353515Y-7418936D02*
X2363039Y-7428460D01*
X2363039Y-7428460D02*
X2353515Y-7437984D01*
X2353515Y-7437984D02*
X2343991Y-7428460D01*
X2343991Y-7428460D02*
X2353515Y-7418936D01*
X2353515Y-7418936D02*
X2353515Y-7437984D01*
X2486848Y-7237984D02*
X2505896Y-7237984D01*
X2505896Y-7237984D02*
X2524944Y-7247508D01*
X2524944Y-7247508D02*
X2534468Y-7257031D01*
X2534468Y-7257031D02*
X2543991Y-7276079D01*
X2543991Y-7276079D02*
X2553515Y-7314174D01*
X2553515Y-7314174D02*
X2553515Y-7361793D01*
X2553515Y-7361793D02*
X2543991Y-7399888D01*
X2543991Y-7399888D02*
X2534468Y-7418936D01*
X2534468Y-7418936D02*
X2524944Y-7428460D01*
X2524944Y-7428460D02*
X2505896Y-7437984D01*
X2505896Y-7437984D02*
X2486848Y-7437984D01*
X2486848Y-7437984D02*
X2467801Y-7428460D01*
X2467801Y-7428460D02*
X2458277Y-7418936D01*
X2458277Y-7418936D02*
X2448753Y-7399888D01*
X2448753Y-7399888D02*
X2439229Y-7361793D01*
X2439229Y-7361793D02*
X2439229Y-7314174D01*
X2439229Y-7314174D02*
X2448753Y-7276079D01*
X2448753Y-7276079D02*
X2458277Y-7257031D01*
X2458277Y-7257031D02*
X2467801Y-7247508D01*
X2467801Y-7247508D02*
X2486848Y-7237984D01*
X2620182Y-7237984D02*
X2743991Y-7237984D01*
X2743991Y-7237984D02*
X2677325Y-7314174D01*
X2677325Y-7314174D02*
X2705896Y-7314174D01*
X2705896Y-7314174D02*
X2724944Y-7323698D01*
X2724944Y-7323698D02*
X2734468Y-7333222D01*
X2734468Y-7333222D02*
X2743991Y-7352269D01*
X2743991Y-7352269D02*
X2743991Y-7399888D01*
X2743991Y-7399888D02*
X2734468Y-7418936D01*
X2734468Y-7418936D02*
X2724944Y-7428460D01*
X2724944Y-7428460D02*
X2705896Y-7437984D01*
X2705896Y-7437984D02*
X2648753Y-7437984D01*
X2648753Y-7437984D02*
X2629706Y-7428460D01*
X2629706Y-7428460D02*
X2620182Y-7418936D01*
X2839229Y-7437984D02*
X2877325Y-7437984D01*
X2877325Y-7437984D02*
X2896372Y-7428460D01*
X2896372Y-7428460D02*
X2905896Y-7418936D01*
X2905896Y-7418936D02*
X2924944Y-7390365D01*
X2924944Y-7390365D02*
X2934467Y-7352269D01*
X2934467Y-7352269D02*
X2934467Y-7276079D01*
X2934467Y-7276079D02*
X2924944Y-7257031D01*
X2924944Y-7257031D02*
X2915420Y-7247508D01*
X2915420Y-7247508D02*
X2896372Y-7237984D01*
X2896372Y-7237984D02*
X2858277Y-7237984D01*
X2858277Y-7237984D02*
X2839229Y-7247508D01*
X2839229Y-7247508D02*
X2829706Y-7257031D01*
X2829706Y-7257031D02*
X2820182Y-7276079D01*
X2820182Y-7276079D02*
X2820182Y-7323698D01*
X2820182Y-7323698D02*
X2829706Y-7342746D01*
X2829706Y-7342746D02*
X2839229Y-7352269D01*
X2839229Y-7352269D02*
X2858277Y-7361793D01*
X2858277Y-7361793D02*
X2896372Y-7361793D01*
X2896372Y-7361793D02*
X2915420Y-7352269D01*
X2915420Y-7352269D02*
X2924944Y-7342746D01*
X2924944Y-7342746D02*
X2934467Y-7323698D01*
X3105896Y-7304650D02*
X3105896Y-7437984D01*
X3058277Y-7228460D02*
X3010658Y-7371317D01*
X3010658Y-7371317D02*
X3134467Y-7371317D01*
X3201134Y-7237984D02*
X3201134Y-7276079D01*
X3277325Y-7237984D02*
X3277325Y-7276079D01*
X3572563Y-7514174D02*
X3563039Y-7504650D01*
X3563039Y-7504650D02*
X3543991Y-7476079D01*
X3543991Y-7476079D02*
X3534468Y-7457031D01*
X3534468Y-7457031D02*
X3524944Y-7428460D01*
X3524944Y-7428460D02*
X3515420Y-7380841D01*
X3515420Y-7380841D02*
X3515420Y-7342746D01*
X3515420Y-7342746D02*
X3524944Y-7295127D01*
X3524944Y-7295127D02*
X3534468Y-7266555D01*
X3534468Y-7266555D02*
X3543991Y-7247508D01*
X3543991Y-7247508D02*
X3563039Y-7218936D01*
X3563039Y-7218936D02*
X3572563Y-7209412D01*
X3734468Y-7304650D02*
X3734468Y-7437984D01*
X3686848Y-7228460D02*
X3639229Y-7371317D01*
X3639229Y-7371317D02*
X3763039Y-7371317D01*
X3924944Y-7304650D02*
X3924944Y-7437984D01*
X3877325Y-7228460D02*
X3829706Y-7371317D01*
X3829706Y-7371317D02*
X3953515Y-7371317D01*
X4182087Y-7437984D02*
X4182087Y-7237984D01*
X4267801Y-7437984D02*
X4267801Y-7333222D01*
X4267801Y-7333222D02*
X4258277Y-7314174D01*
X4258277Y-7314174D02*
X4239230Y-7304650D01*
X4239230Y-7304650D02*
X4210658Y-7304650D01*
X4210658Y-7304650D02*
X4191610Y-7314174D01*
X4191610Y-7314174D02*
X4182087Y-7323698D01*
X4391611Y-7437984D02*
X4372563Y-7428460D01*
X4372563Y-7428460D02*
X4363039Y-7418936D01*
X4363039Y-7418936D02*
X4353515Y-7399888D01*
X4353515Y-7399888D02*
X4353515Y-7342746D01*
X4353515Y-7342746D02*
X4363039Y-7323698D01*
X4363039Y-7323698D02*
X4372563Y-7314174D01*
X4372563Y-7314174D02*
X4391611Y-7304650D01*
X4391611Y-7304650D02*
X4420182Y-7304650D01*
X4420182Y-7304650D02*
X4439230Y-7314174D01*
X4439230Y-7314174D02*
X4448753Y-7323698D01*
X4448753Y-7323698D02*
X4458277Y-7342746D01*
X4458277Y-7342746D02*
X4458277Y-7399888D01*
X4458277Y-7399888D02*
X4448753Y-7418936D01*
X4448753Y-7418936D02*
X4439230Y-7428460D01*
X4439230Y-7428460D02*
X4420182Y-7437984D01*
X4420182Y-7437984D02*
X4391611Y-7437984D01*
X4572563Y-7437984D02*
X4553515Y-7428460D01*
X4553515Y-7428460D02*
X4543992Y-7409412D01*
X4543992Y-7409412D02*
X4543992Y-7237984D01*
X4724944Y-7428460D02*
X4705896Y-7437984D01*
X4705896Y-7437984D02*
X4667801Y-7437984D01*
X4667801Y-7437984D02*
X4648753Y-7428460D01*
X4648753Y-7428460D02*
X4639230Y-7409412D01*
X4639230Y-7409412D02*
X4639230Y-7333222D01*
X4639230Y-7333222D02*
X4648753Y-7314174D01*
X4648753Y-7314174D02*
X4667801Y-7304650D01*
X4667801Y-7304650D02*
X4705896Y-7304650D01*
X4705896Y-7304650D02*
X4724944Y-7314174D01*
X4724944Y-7314174D02*
X4734468Y-7333222D01*
X4734468Y-7333222D02*
X4734468Y-7352269D01*
X4734468Y-7352269D02*
X4639230Y-7371317D01*
X4810658Y-7428460D02*
X4829706Y-7437984D01*
X4829706Y-7437984D02*
X4867801Y-7437984D01*
X4867801Y-7437984D02*
X4886849Y-7428460D01*
X4886849Y-7428460D02*
X4896373Y-7409412D01*
X4896373Y-7409412D02*
X4896373Y-7399888D01*
X4896373Y-7399888D02*
X4886849Y-7380841D01*
X4886849Y-7380841D02*
X4867801Y-7371317D01*
X4867801Y-7371317D02*
X4839230Y-7371317D01*
X4839230Y-7371317D02*
X4820182Y-7361793D01*
X4820182Y-7361793D02*
X4810658Y-7342746D01*
X4810658Y-7342746D02*
X4810658Y-7333222D01*
X4810658Y-7333222D02*
X4820182Y-7314174D01*
X4820182Y-7314174D02*
X4839230Y-7304650D01*
X4839230Y-7304650D02*
X4867801Y-7304650D01*
X4867801Y-7304650D02*
X4886849Y-7314174D01*
X4963039Y-7514174D02*
X4972563Y-7504650D01*
X4972563Y-7504650D02*
X4991611Y-7476079D01*
X4991611Y-7476079D02*
X5001134Y-7457031D01*
X5001134Y-7457031D02*
X5010658Y-7428460D01*
X5010658Y-7428460D02*
X5020182Y-7380841D01*
X5020182Y-7380841D02*
X5020182Y-7342746D01*
X5020182Y-7342746D02*
X5010658Y-7295127D01*
X5010658Y-7295127D02*
X5001134Y-7266555D01*
X5001134Y-7266555D02*
X4991611Y-7247508D01*
X4991611Y-7247508D02*
X4972563Y-7218936D01*
X4972563Y-7218936D02*
X4963039Y-7209412D01*
D17*
X-142500Y-7540500D02*
X-2500Y-7680500D01*
X-2500Y-7540500D02*
X-142500Y-7680500D01*
X-72500Y-7540500D02*
X-72500Y-7680500D01*
X-142500Y-7610500D02*
X-2500Y-7610500D01*
D11*
X363039Y-7701984D02*
X248753Y-7701984D01*
X305896Y-7701984D02*
X305896Y-7501984D01*
X305896Y-7501984D02*
X286848Y-7530555D01*
X286848Y-7530555D02*
X267801Y-7549603D01*
X267801Y-7549603D02*
X248753Y-7559127D01*
X448753Y-7682936D02*
X458277Y-7692460D01*
X458277Y-7692460D02*
X448753Y-7701984D01*
X448753Y-7701984D02*
X439229Y-7692460D01*
X439229Y-7692460D02*
X448753Y-7682936D01*
X448753Y-7682936D02*
X448753Y-7701984D01*
X629705Y-7568650D02*
X629705Y-7701984D01*
X582086Y-7492460D02*
X534467Y-7635317D01*
X534467Y-7635317D02*
X658277Y-7635317D01*
X772562Y-7501984D02*
X791610Y-7501984D01*
X791610Y-7501984D02*
X810658Y-7511508D01*
X810658Y-7511508D02*
X820182Y-7521031D01*
X820182Y-7521031D02*
X829705Y-7540079D01*
X829705Y-7540079D02*
X839229Y-7578174D01*
X839229Y-7578174D02*
X839229Y-7625793D01*
X839229Y-7625793D02*
X829705Y-7663888D01*
X829705Y-7663888D02*
X820182Y-7682936D01*
X820182Y-7682936D02*
X810658Y-7692460D01*
X810658Y-7692460D02*
X791610Y-7701984D01*
X791610Y-7701984D02*
X772562Y-7701984D01*
X772562Y-7701984D02*
X753515Y-7692460D01*
X753515Y-7692460D02*
X743991Y-7682936D01*
X743991Y-7682936D02*
X734467Y-7663888D01*
X734467Y-7663888D02*
X724943Y-7625793D01*
X724943Y-7625793D02*
X724943Y-7578174D01*
X724943Y-7578174D02*
X734467Y-7540079D01*
X734467Y-7540079D02*
X743991Y-7521031D01*
X743991Y-7521031D02*
X753515Y-7511508D01*
X753515Y-7511508D02*
X772562Y-7501984D01*
X963039Y-7501984D02*
X982086Y-7501984D01*
X982086Y-7501984D02*
X1001134Y-7511508D01*
X1001134Y-7511508D02*
X1010658Y-7521031D01*
X1010658Y-7521031D02*
X1020182Y-7540079D01*
X1020182Y-7540079D02*
X1029705Y-7578174D01*
X1029705Y-7578174D02*
X1029705Y-7625793D01*
X1029705Y-7625793D02*
X1020182Y-7663888D01*
X1020182Y-7663888D02*
X1010658Y-7682936D01*
X1010658Y-7682936D02*
X1001134Y-7692460D01*
X1001134Y-7692460D02*
X982086Y-7701984D01*
X982086Y-7701984D02*
X963039Y-7701984D01*
X963039Y-7701984D02*
X943991Y-7692460D01*
X943991Y-7692460D02*
X934467Y-7682936D01*
X934467Y-7682936D02*
X924943Y-7663888D01*
X924943Y-7663888D02*
X915420Y-7625793D01*
X915420Y-7625793D02*
X915420Y-7578174D01*
X915420Y-7578174D02*
X924943Y-7540079D01*
X924943Y-7540079D02*
X934467Y-7521031D01*
X934467Y-7521031D02*
X943991Y-7511508D01*
X943991Y-7511508D02*
X963039Y-7501984D01*
X1115420Y-7701984D02*
X1115420Y-7568650D01*
X1115420Y-7587698D02*
X1124944Y-7578174D01*
X1124944Y-7578174D02*
X1143991Y-7568650D01*
X1143991Y-7568650D02*
X1172563Y-7568650D01*
X1172563Y-7568650D02*
X1191610Y-7578174D01*
X1191610Y-7578174D02*
X1201134Y-7597222D01*
X1201134Y-7597222D02*
X1201134Y-7701984D01*
X1201134Y-7597222D02*
X1210658Y-7578174D01*
X1210658Y-7578174D02*
X1229705Y-7568650D01*
X1229705Y-7568650D02*
X1258277Y-7568650D01*
X1258277Y-7568650D02*
X1277325Y-7578174D01*
X1277325Y-7578174D02*
X1286848Y-7597222D01*
X1286848Y-7597222D02*
X1286848Y-7701984D01*
X1382086Y-7701984D02*
X1382086Y-7568650D01*
X1382086Y-7587698D02*
X1391610Y-7578174D01*
X1391610Y-7578174D02*
X1410658Y-7568650D01*
X1410658Y-7568650D02*
X1439229Y-7568650D01*
X1439229Y-7568650D02*
X1458277Y-7578174D01*
X1458277Y-7578174D02*
X1467801Y-7597222D01*
X1467801Y-7597222D02*
X1467801Y-7701984D01*
X1467801Y-7597222D02*
X1477324Y-7578174D01*
X1477324Y-7578174D02*
X1496372Y-7568650D01*
X1496372Y-7568650D02*
X1524943Y-7568650D01*
X1524943Y-7568650D02*
X1543991Y-7578174D01*
X1543991Y-7578174D02*
X1553515Y-7597222D01*
X1553515Y-7597222D02*
X1553515Y-7701984D01*
X1943991Y-7492460D02*
X1772563Y-7749603D01*
X2201134Y-7501984D02*
X2220182Y-7501984D01*
X2220182Y-7501984D02*
X2239229Y-7511508D01*
X2239229Y-7511508D02*
X2248753Y-7521031D01*
X2248753Y-7521031D02*
X2258277Y-7540079D01*
X2258277Y-7540079D02*
X2267801Y-7578174D01*
X2267801Y-7578174D02*
X2267801Y-7625793D01*
X2267801Y-7625793D02*
X2258277Y-7663888D01*
X2258277Y-7663888D02*
X2248753Y-7682936D01*
X2248753Y-7682936D02*
X2239229Y-7692460D01*
X2239229Y-7692460D02*
X2220182Y-7701984D01*
X2220182Y-7701984D02*
X2201134Y-7701984D01*
X2201134Y-7701984D02*
X2182087Y-7692460D01*
X2182087Y-7692460D02*
X2172563Y-7682936D01*
X2172563Y-7682936D02*
X2163039Y-7663888D01*
X2163039Y-7663888D02*
X2153515Y-7625793D01*
X2153515Y-7625793D02*
X2153515Y-7578174D01*
X2153515Y-7578174D02*
X2163039Y-7540079D01*
X2163039Y-7540079D02*
X2172563Y-7521031D01*
X2172563Y-7521031D02*
X2182087Y-7511508D01*
X2182087Y-7511508D02*
X2201134Y-7501984D01*
X2353515Y-7682936D02*
X2363039Y-7692460D01*
X2363039Y-7692460D02*
X2353515Y-7701984D01*
X2353515Y-7701984D02*
X2343991Y-7692460D01*
X2343991Y-7692460D02*
X2353515Y-7682936D01*
X2353515Y-7682936D02*
X2353515Y-7701984D01*
X2486848Y-7501984D02*
X2505896Y-7501984D01*
X2505896Y-7501984D02*
X2524944Y-7511508D01*
X2524944Y-7511508D02*
X2534468Y-7521031D01*
X2534468Y-7521031D02*
X2543991Y-7540079D01*
X2543991Y-7540079D02*
X2553515Y-7578174D01*
X2553515Y-7578174D02*
X2553515Y-7625793D01*
X2553515Y-7625793D02*
X2543991Y-7663888D01*
X2543991Y-7663888D02*
X2534468Y-7682936D01*
X2534468Y-7682936D02*
X2524944Y-7692460D01*
X2524944Y-7692460D02*
X2505896Y-7701984D01*
X2505896Y-7701984D02*
X2486848Y-7701984D01*
X2486848Y-7701984D02*
X2467801Y-7692460D01*
X2467801Y-7692460D02*
X2458277Y-7682936D01*
X2458277Y-7682936D02*
X2448753Y-7663888D01*
X2448753Y-7663888D02*
X2439229Y-7625793D01*
X2439229Y-7625793D02*
X2439229Y-7578174D01*
X2439229Y-7578174D02*
X2448753Y-7540079D01*
X2448753Y-7540079D02*
X2458277Y-7521031D01*
X2458277Y-7521031D02*
X2467801Y-7511508D01*
X2467801Y-7511508D02*
X2486848Y-7501984D01*
X2734468Y-7501984D02*
X2639229Y-7501984D01*
X2639229Y-7501984D02*
X2629706Y-7597222D01*
X2629706Y-7597222D02*
X2639229Y-7587698D01*
X2639229Y-7587698D02*
X2658277Y-7578174D01*
X2658277Y-7578174D02*
X2705896Y-7578174D01*
X2705896Y-7578174D02*
X2724944Y-7587698D01*
X2724944Y-7587698D02*
X2734468Y-7597222D01*
X2734468Y-7597222D02*
X2743991Y-7616269D01*
X2743991Y-7616269D02*
X2743991Y-7663888D01*
X2743991Y-7663888D02*
X2734468Y-7682936D01*
X2734468Y-7682936D02*
X2724944Y-7692460D01*
X2724944Y-7692460D02*
X2705896Y-7701984D01*
X2705896Y-7701984D02*
X2658277Y-7701984D01*
X2658277Y-7701984D02*
X2639229Y-7692460D01*
X2639229Y-7692460D02*
X2629706Y-7682936D01*
X2924944Y-7501984D02*
X2829706Y-7501984D01*
X2829706Y-7501984D02*
X2820182Y-7597222D01*
X2820182Y-7597222D02*
X2829706Y-7587698D01*
X2829706Y-7587698D02*
X2848753Y-7578174D01*
X2848753Y-7578174D02*
X2896372Y-7578174D01*
X2896372Y-7578174D02*
X2915420Y-7587698D01*
X2915420Y-7587698D02*
X2924944Y-7597222D01*
X2924944Y-7597222D02*
X2934467Y-7616269D01*
X2934467Y-7616269D02*
X2934467Y-7663888D01*
X2934467Y-7663888D02*
X2924944Y-7682936D01*
X2924944Y-7682936D02*
X2915420Y-7692460D01*
X2915420Y-7692460D02*
X2896372Y-7701984D01*
X2896372Y-7701984D02*
X2848753Y-7701984D01*
X2848753Y-7701984D02*
X2829706Y-7692460D01*
X2829706Y-7692460D02*
X2820182Y-7682936D01*
X3124944Y-7701984D02*
X3010658Y-7701984D01*
X3067801Y-7701984D02*
X3067801Y-7501984D01*
X3067801Y-7501984D02*
X3048753Y-7530555D01*
X3048753Y-7530555D02*
X3029706Y-7549603D01*
X3029706Y-7549603D02*
X3010658Y-7559127D01*
X3201134Y-7501984D02*
X3201134Y-7540079D01*
X3277325Y-7501984D02*
X3277325Y-7540079D01*
X3572563Y-7778174D02*
X3563039Y-7768650D01*
X3563039Y-7768650D02*
X3543991Y-7740079D01*
X3543991Y-7740079D02*
X3534468Y-7721031D01*
X3534468Y-7721031D02*
X3524944Y-7692460D01*
X3524944Y-7692460D02*
X3515420Y-7644841D01*
X3515420Y-7644841D02*
X3515420Y-7606746D01*
X3515420Y-7606746D02*
X3524944Y-7559127D01*
X3524944Y-7559127D02*
X3534468Y-7530555D01*
X3534468Y-7530555D02*
X3543991Y-7511508D01*
X3543991Y-7511508D02*
X3563039Y-7482936D01*
X3563039Y-7482936D02*
X3572563Y-7473412D01*
X3639229Y-7521031D02*
X3648753Y-7511508D01*
X3648753Y-7511508D02*
X3667801Y-7501984D01*
X3667801Y-7501984D02*
X3715420Y-7501984D01*
X3715420Y-7501984D02*
X3734468Y-7511508D01*
X3734468Y-7511508D02*
X3743991Y-7521031D01*
X3743991Y-7521031D02*
X3753515Y-7540079D01*
X3753515Y-7540079D02*
X3753515Y-7559127D01*
X3753515Y-7559127D02*
X3743991Y-7587698D01*
X3743991Y-7587698D02*
X3629706Y-7701984D01*
X3629706Y-7701984D02*
X3753515Y-7701984D01*
X3991610Y-7701984D02*
X3991610Y-7501984D01*
X4077325Y-7701984D02*
X4077325Y-7597222D01*
X4077325Y-7597222D02*
X4067801Y-7578174D01*
X4067801Y-7578174D02*
X4048753Y-7568650D01*
X4048753Y-7568650D02*
X4020182Y-7568650D01*
X4020182Y-7568650D02*
X4001134Y-7578174D01*
X4001134Y-7578174D02*
X3991610Y-7587698D01*
X4201134Y-7701984D02*
X4182087Y-7692460D01*
X4182087Y-7692460D02*
X4172563Y-7682936D01*
X4172563Y-7682936D02*
X4163039Y-7663888D01*
X4163039Y-7663888D02*
X4163039Y-7606746D01*
X4163039Y-7606746D02*
X4172563Y-7587698D01*
X4172563Y-7587698D02*
X4182087Y-7578174D01*
X4182087Y-7578174D02*
X4201134Y-7568650D01*
X4201134Y-7568650D02*
X4229706Y-7568650D01*
X4229706Y-7568650D02*
X4248753Y-7578174D01*
X4248753Y-7578174D02*
X4258277Y-7587698D01*
X4258277Y-7587698D02*
X4267801Y-7606746D01*
X4267801Y-7606746D02*
X4267801Y-7663888D01*
X4267801Y-7663888D02*
X4258277Y-7682936D01*
X4258277Y-7682936D02*
X4248753Y-7692460D01*
X4248753Y-7692460D02*
X4229706Y-7701984D01*
X4229706Y-7701984D02*
X4201134Y-7701984D01*
X4382087Y-7701984D02*
X4363039Y-7692460D01*
X4363039Y-7692460D02*
X4353515Y-7673412D01*
X4353515Y-7673412D02*
X4353515Y-7501984D01*
X4534468Y-7692460D02*
X4515420Y-7701984D01*
X4515420Y-7701984D02*
X4477325Y-7701984D01*
X4477325Y-7701984D02*
X4458277Y-7692460D01*
X4458277Y-7692460D02*
X4448753Y-7673412D01*
X4448753Y-7673412D02*
X4448753Y-7597222D01*
X4448753Y-7597222D02*
X4458277Y-7578174D01*
X4458277Y-7578174D02*
X4477325Y-7568650D01*
X4477325Y-7568650D02*
X4515420Y-7568650D01*
X4515420Y-7568650D02*
X4534468Y-7578174D01*
X4534468Y-7578174D02*
X4543992Y-7597222D01*
X4543992Y-7597222D02*
X4543992Y-7616269D01*
X4543992Y-7616269D02*
X4448753Y-7635317D01*
X4620182Y-7692460D02*
X4639230Y-7701984D01*
X4639230Y-7701984D02*
X4677325Y-7701984D01*
X4677325Y-7701984D02*
X4696373Y-7692460D01*
X4696373Y-7692460D02*
X4705896Y-7673412D01*
X4705896Y-7673412D02*
X4705896Y-7663888D01*
X4705896Y-7663888D02*
X4696373Y-7644841D01*
X4696373Y-7644841D02*
X4677325Y-7635317D01*
X4677325Y-7635317D02*
X4648753Y-7635317D01*
X4648753Y-7635317D02*
X4629706Y-7625793D01*
X4629706Y-7625793D02*
X4620182Y-7606746D01*
X4620182Y-7606746D02*
X4620182Y-7597222D01*
X4620182Y-7597222D02*
X4629706Y-7578174D01*
X4629706Y-7578174D02*
X4648753Y-7568650D01*
X4648753Y-7568650D02*
X4677325Y-7568650D01*
X4677325Y-7568650D02*
X4696373Y-7578174D01*
X4772563Y-7778174D02*
X4782087Y-7768650D01*
X4782087Y-7768650D02*
X4801134Y-7740079D01*
X4801134Y-7740079D02*
X4810658Y-7721031D01*
X4810658Y-7721031D02*
X4820182Y-7692460D01*
X4820182Y-7692460D02*
X4829706Y-7644841D01*
X4829706Y-7644841D02*
X4829706Y-7606746D01*
X4829706Y-7606746D02*
X4820182Y-7559127D01*
X4820182Y-7559127D02*
X4810658Y-7530555D01*
X4810658Y-7530555D02*
X4801134Y-7511508D01*
X4801134Y-7511508D02*
X4782087Y-7482936D01*
X4782087Y-7482936D02*
X4772563Y-7473412D01*
M02*
