%TF.GenerationSoftware,KiCad,Pcbnew,7.0.6*%
%TF.CreationDate,2024-01-13T17:51:29-05:00*%
%TF.ProjectId,Crystal Shield,43727973-7461-46c2-9053-6869656c642e,rev?*%
%TF.SameCoordinates,PX1312d00PY1312d00*%
%TF.FileFunction,Copper,L2,Bot*%
%TF.FilePolarity,Positive*%
%FSLAX46Y46*%
G04 Gerber Fmt 4.6, Leading zero omitted, Abs format (unit mm)*
G04 Created by KiCad (PCBNEW 7.0.6) date 2024-01-13 17:51:29*
%MOMM*%
%LPD*%
G01*
G04 APERTURE LIST*
G04 Aperture macros list*
%AMRoundRect*
0 Rectangle with rounded corners*
0 $1 Rounding radius*
0 $2 $3 $4 $5 $6 $7 $8 $9 X,Y pos of 4 corners*
0 Add a 4 corners polygon primitive as box body*
4,1,4,$2,$3,$4,$5,$6,$7,$8,$9,$2,$3,0*
0 Add four circle primitives for the rounded corners*
1,1,$1+$1,$2,$3*
1,1,$1+$1,$4,$5*
1,1,$1+$1,$6,$7*
1,1,$1+$1,$8,$9*
0 Add four rect primitives between the rounded corners*
20,1,$1+$1,$2,$3,$4,$5,0*
20,1,$1+$1,$4,$5,$6,$7,0*
20,1,$1+$1,$6,$7,$8,$9,0*
20,1,$1+$1,$8,$9,$2,$3,0*%
G04 Aperture macros list end*
%TA.AperFunction,ComponentPad*%
%ADD10R,1.700000X1.700000*%
%TD*%
%TA.AperFunction,ComponentPad*%
%ADD11O,1.700000X1.700000*%
%TD*%
%TA.AperFunction,ComponentPad*%
%ADD12R,1.600000X1.600000*%
%TD*%
%TA.AperFunction,ComponentPad*%
%ADD13C,1.600000*%
%TD*%
%TA.AperFunction,ComponentPad*%
%ADD14RoundRect,0.250000X-1.550000X0.750000X-1.550000X-0.750000X1.550000X-0.750000X1.550000X0.750000X0*%
%TD*%
%TA.AperFunction,ComponentPad*%
%ADD15O,3.600000X2.000000*%
%TD*%
%TA.AperFunction,ComponentPad*%
%ADD16O,1.900000X1.200000*%
%TD*%
%TA.AperFunction,ComponentPad*%
%ADD17C,1.450000*%
%TD*%
%TA.AperFunction,ComponentPad*%
%ADD18O,1.600000X1.600000*%
%TD*%
%TA.AperFunction,ViaPad*%
%ADD19C,0.800000*%
%TD*%
%TA.AperFunction,ViaPad*%
%ADD20C,1.200000*%
%TD*%
%TA.AperFunction,Conductor*%
%ADD21C,1.000000*%
%TD*%
%TA.AperFunction,Conductor*%
%ADD22C,0.250000*%
%TD*%
G04 APERTURE END LIST*
D10*
%TO.P,SPI1,1,Pin_1*%
%TO.N,Net-(SPI1-Pin_1)*%
X58350000Y-29440000D03*
D11*
%TO.P,SPI1,2,Pin_2*%
%TO.N,Net-(SPI1-Pin_2)*%
X58350000Y-26900000D03*
%TO.P,SPI1,3,Pin_3*%
%TO.N,Net-(SPI1-Pin_3)*%
X58350000Y-24360000D03*
%TO.P,SPI1,4,Pin_4*%
%TO.N,Net-(SPI1-Pin_4)*%
X58350000Y-21820000D03*
%TD*%
D10*
%TO.P,TTY1,1,Pin_1*%
%TO.N,+5V*%
X55850000Y-14140000D03*
D11*
%TO.P,TTY1,2,Pin_2*%
%TO.N,Net-(TTY1-Pin_2)*%
X55850000Y-11600000D03*
%TO.P,TTY1,3,Pin_3*%
%TO.N,Net-(D9-A)*%
X55850000Y-9060000D03*
%TO.P,TTY1,4,Pin_4*%
%TO.N,GND*%
X55850000Y-6520000D03*
%TD*%
D10*
%TO.P,PROG1,1,Pin_1*%
%TO.N,Net-(PROG1-Pin_1)*%
X58350000Y-42240000D03*
D11*
%TO.P,PROG1,2,Pin_2*%
%TO.N,Net-(PROG1-Pin_2)*%
X58350000Y-39700000D03*
%TO.P,PROG1,3,Pin_3*%
%TO.N,Net-(PROG1-Pin_3)*%
X58350000Y-37160000D03*
%TO.P,PROG1,4,Pin_4*%
%TO.N,Net-(PROG1-Pin_4)*%
X58350000Y-34620000D03*
%TD*%
D12*
%TO.P,CB1,1*%
%TO.N,/VIN*%
X17632380Y-45790000D03*
D13*
%TO.P,CB1,2*%
%TO.N,GND*%
X15132380Y-45790000D03*
%TD*%
D14*
%TO.P,V1,1,Pin_1*%
%TO.N,Net-(D3-A)*%
X10277500Y-40790000D03*
D15*
%TO.P,V1,2,Pin_2*%
%TO.N,GND*%
X10277500Y-45790000D03*
%TD*%
D16*
%TO.P,J1,6,Shield*%
%TO.N,GND*%
X1550000Y-990000D03*
D17*
X4250000Y-1990000D03*
X4250000Y-6990000D03*
D16*
X1550000Y-7990000D03*
%TD*%
D12*
%TO.P,A1,1,NC*%
%TO.N,unconnected-(A1-NC-Pad1)*%
X28190000Y-51050000D03*
D18*
%TO.P,A1,2,IOREF*%
%TO.N,/IOREF*%
X30730000Y-51050000D03*
%TO.P,A1,3,~{RESET}*%
%TO.N,/ARESET*%
X33270000Y-51050000D03*
%TO.P,A1,4,3V3*%
%TO.N,unconnected-(A1-3V3-Pad4)*%
X35810000Y-51050000D03*
%TO.P,A1,5,+5V*%
%TO.N,Net-(A1-+5V)*%
X38350000Y-51050000D03*
%TO.P,A1,6,GND*%
%TO.N,GND*%
X40890000Y-51050000D03*
%TO.P,A1,7,GND*%
X43430000Y-51050000D03*
%TO.P,A1,8,VIN*%
%TO.N,Net-(A1-VIN)*%
X45970000Y-51050000D03*
%TO.P,A1,9,A0*%
%TO.N,unconnected-(A1-A0-Pad9)*%
X51050000Y-51050000D03*
%TO.P,A1,10,A1*%
%TO.N,unconnected-(A1-A1-Pad10)*%
X53590000Y-51050000D03*
%TO.P,A1,11,A2*%
%TO.N,unconnected-(A1-A2-Pad11)*%
X56130000Y-51050000D03*
%TO.P,A1,12,A3*%
%TO.N,unconnected-(A1-A3-Pad12)*%
X58670000Y-51050000D03*
%TO.P,A1,13,SDA/A4*%
%TO.N,unconnected-(A1-SDA{slash}A4-Pad13)*%
X61210000Y-51050000D03*
%TO.P,A1,14,SCL/A5*%
%TO.N,unconnected-(A1-SCL{slash}A5-Pad14)*%
X63750000Y-51050000D03*
%TO.P,A1,15,D0/RX*%
%TO.N,unconnected-(A1-D0{slash}RX-Pad15)*%
X63750000Y-2790000D03*
%TO.P,A1,16,D1/TX*%
%TO.N,unconnected-(A1-D1{slash}TX-Pad16)*%
X61210000Y-2790000D03*
%TO.P,A1,17,D2*%
%TO.N,unconnected-(A1-D2-Pad17)*%
X58670000Y-2790000D03*
%TO.P,A1,18,D3*%
%TO.N,unconnected-(A1-D3-Pad18)*%
X56130000Y-2790000D03*
%TO.P,A1,19,D4*%
%TO.N,unconnected-(A1-D4-Pad19)*%
X53590000Y-2790000D03*
%TO.P,A1,20,D5*%
%TO.N,unconnected-(A1-D5-Pad20)*%
X51050000Y-2790000D03*
%TO.P,A1,21,D6*%
%TO.N,unconnected-(A1-D6-Pad21)*%
X48510000Y-2790000D03*
%TO.P,A1,22,D7*%
%TO.N,unconnected-(A1-D7-Pad22)*%
X45970000Y-2790000D03*
%TO.P,A1,23,D8*%
%TO.N,unconnected-(A1-D8-Pad23)*%
X41910000Y-2790000D03*
%TO.P,A1,24,D9*%
%TO.N,unconnected-(A1-D9-Pad24)*%
X39370000Y-2790000D03*
%TO.P,A1,25,D10*%
%TO.N,unconnected-(A1-D10-Pad25)*%
X36830000Y-2790000D03*
%TO.P,A1,26,D11*%
%TO.N,unconnected-(A1-D11-Pad26)*%
X34290000Y-2790000D03*
%TO.P,A1,27,D12*%
%TO.N,unconnected-(A1-D12-Pad27)*%
X31750000Y-2790000D03*
%TO.P,A1,28,D13*%
%TO.N,unconnected-(A1-D13-Pad28)*%
X29210000Y-2790000D03*
%TO.P,A1,29,GND*%
%TO.N,GND*%
X26670000Y-2790000D03*
%TO.P,A1,30,AREF*%
%TO.N,unconnected-(A1-AREF-Pad30)*%
X24130000Y-2790000D03*
%TO.P,A1,31,SDA/A4*%
%TO.N,unconnected-(A1-SDA{slash}A4-Pad31)*%
X21590000Y-2790000D03*
%TO.P,A1,32,SCL/A5*%
%TO.N,unconnected-(A1-SCL{slash}A5-Pad32)*%
X19050000Y-2790000D03*
%TD*%
D19*
%TO.N,GND*%
X7250000Y-8500000D03*
X8250000Y-17000000D03*
%TO.N,/GPIO4*%
X46000000Y-26250000D03*
X46000000Y-33000000D03*
%TO.N,+5V*%
X30000000Y-42500000D03*
D20*
X7000000Y-12500000D03*
D19*
X30000000Y-44250000D03*
X34250000Y-42750000D03*
X30750000Y-46290000D03*
D20*
X35250000Y-45040000D03*
X7000000Y-35500000D03*
D19*
X28750000Y-45250000D03*
%TO.N,GND*%
X15650000Y-24150000D03*
X16000000Y-53000000D03*
X11450000Y-21950000D03*
X22500000Y-15250000D03*
X15650000Y-21950000D03*
X23750000Y-45290000D03*
X11250000Y-9500000D03*
D20*
X35000000Y-39000000D03*
D19*
X46750000Y-25500000D03*
X54750000Y-28000000D03*
X15250000Y-13250000D03*
X12450000Y-25150000D03*
X56000000Y-36000000D03*
X13000000Y-1000000D03*
X2500000Y-10500000D03*
X14650000Y-25150000D03*
X28250000Y-32250000D03*
X52750000Y-10250000D03*
X16000000Y-40750000D03*
X11450000Y-23050000D03*
X15000000Y-35000000D03*
X11000000Y-35000000D03*
X52500000Y-41040000D03*
X24500000Y-23750000D03*
X46750000Y-12000000D03*
X21000000Y-35000000D03*
X10000000Y-13000000D03*
X26500000Y-45290000D03*
X54750000Y-21000000D03*
X65750000Y-4500000D03*
X13550000Y-25150000D03*
X46750000Y-15000000D03*
X25250000Y-51500000D03*
X37500000Y-47500000D03*
X19750000Y-17000000D03*
X19750000Y-28250000D03*
X25000000Y-45290000D03*
X68250000Y-32000000D03*
X66000000Y-49000000D03*
X8000000Y-39000000D03*
X11450000Y-24150000D03*
X27000000Y-49500000D03*
X62000000Y-17250000D03*
X14650000Y-20950000D03*
X27750000Y-29000000D03*
X67000000Y-15000000D03*
X49750000Y-41040000D03*
X50000000Y-21000000D03*
X13550000Y-20950000D03*
X8250000Y-31000000D03*
X15650000Y-23050000D03*
X54000000Y-35000000D03*
X60750000Y-32000000D03*
X12450000Y-20950000D03*
X16000000Y-49000000D03*
X18000000Y-1000000D03*
D20*
%TO.N,/IOREF*%
X53750000Y-29750000D03*
X54000000Y-19000000D03*
%TO.N,Net-(A1-+5V)*%
X33500000Y-47790000D03*
D19*
%TO.N,/GPIO10*%
X21000000Y-15250000D03*
X21000000Y-33500000D03*
X39250000Y-27000000D03*
X34750000Y-27000000D03*
%TO.N,+3.3V*%
X45500000Y-41390000D03*
X41500000Y-45390000D03*
X45500000Y-39390000D03*
X41500000Y-41390000D03*
X41500000Y-39390000D03*
X51000000Y-29790000D03*
D20*
X37500000Y-37250000D03*
D19*
X45500000Y-43390000D03*
X49450000Y-10290000D03*
X45500000Y-45390000D03*
X41500000Y-43390000D03*
D20*
%TO.N,/VIN*%
X22250000Y-49750000D03*
D19*
X20750000Y-43250000D03*
X20750000Y-44250000D03*
X18750000Y-40750000D03*
%TD*%
D21*
%TO.N,+5V*%
X7000000Y-12500000D02*
X7000000Y-35500000D01*
D22*
%TO.N,/GPIO4*%
X46000000Y-33000000D02*
X46000000Y-26250000D01*
D21*
%TO.N,+5V*%
X52100000Y-19775000D02*
X51825000Y-19500000D01*
X51825000Y-16315000D02*
X54000000Y-14140000D01*
X35250000Y-42000000D02*
X40724379Y-36525621D01*
X40724379Y-36525621D02*
X45820014Y-36525621D01*
X51825000Y-19500000D02*
X51825000Y-16315000D01*
X52100000Y-30245635D02*
X52100000Y-19775000D01*
X45820014Y-36525621D02*
X52100000Y-30245635D01*
X35250000Y-45040000D02*
X35250000Y-42000000D01*
X54000000Y-14140000D02*
X55850000Y-14140000D01*
%TO.N,/IOREF*%
X44750000Y-37848528D02*
X46194163Y-37848528D01*
X53300000Y-19700000D02*
X54000000Y-19000000D01*
X53750000Y-29750000D02*
X53300000Y-30200000D01*
X53300000Y-31250000D02*
X53300000Y-30200000D01*
X53300000Y-30742691D02*
X53300000Y-30200000D01*
X53750000Y-29750000D02*
X53300000Y-29300000D01*
X41098528Y-37848528D02*
X44750000Y-37848528D01*
X35788478Y-46340000D02*
X36598528Y-45529950D01*
X30730000Y-48721522D02*
X33111522Y-46340000D01*
X53300000Y-28750000D02*
X53300000Y-31250000D01*
X53300000Y-28750000D02*
X53300000Y-19700000D01*
X46194163Y-37848528D02*
X53300000Y-30742691D01*
X53300000Y-29300000D02*
X53300000Y-28750000D01*
X30730000Y-51050000D02*
X30730000Y-48721522D01*
X36598528Y-42348528D02*
X41098528Y-37848528D01*
X36598528Y-45529950D02*
X36598528Y-42348528D01*
X33111522Y-46340000D02*
X35788478Y-46340000D01*
%TO.N,Net-(A1-+5V)*%
X33500000Y-47790000D02*
X35090000Y-47790000D01*
X35090000Y-47790000D02*
X38350000Y-51050000D01*
D22*
%TO.N,/GPIO10*%
X21000000Y-33500000D02*
X21000000Y-15250000D01*
X39250000Y-27000000D02*
X34750000Y-27000000D01*
%TO.N,+3.3V*%
X45324684Y-35700621D02*
X39049379Y-35700621D01*
X49450000Y-10290000D02*
X50040000Y-10290000D01*
X39049379Y-35700621D02*
X37500000Y-37250000D01*
X51000000Y-30025305D02*
X45324684Y-35700621D01*
X50040000Y-10290000D02*
X51000000Y-11250000D01*
X51000000Y-29790000D02*
X51000000Y-11250000D01*
X51000000Y-29790000D02*
X51000000Y-30025305D01*
%TD*%
%TA.AperFunction,Conductor*%
%TO.N,+3.3V*%
G36*
X48242121Y-37410002D02*
G01*
X48288614Y-37463658D01*
X48300000Y-37516000D01*
X48300000Y-47264000D01*
X48279998Y-47332121D01*
X48226342Y-47378614D01*
X48174000Y-47390000D01*
X38926000Y-47390000D01*
X38857879Y-47369998D01*
X38811386Y-47316342D01*
X38800000Y-47264000D01*
X38800000Y-43540000D01*
X37733028Y-43540000D01*
X37664907Y-43519998D01*
X37618414Y-43466342D01*
X37607028Y-43414000D01*
X37607028Y-42818447D01*
X37627029Y-42750330D01*
X37643927Y-42729361D01*
X41479356Y-38893933D01*
X41541669Y-38859907D01*
X41568452Y-38857028D01*
X44700453Y-38857028D01*
X46141519Y-38857028D01*
X46147698Y-38857332D01*
X46194160Y-38861908D01*
X46194163Y-38861908D01*
X46194167Y-38861908D01*
X46391855Y-38842438D01*
X46391856Y-38842437D01*
X46391864Y-38842437D01*
X46581967Y-38784769D01*
X46757167Y-38691123D01*
X46910731Y-38565096D01*
X46940374Y-38528973D01*
X46944488Y-38524435D01*
X48042019Y-37426904D01*
X48104331Y-37392879D01*
X48131114Y-37390000D01*
X48174000Y-37390000D01*
X48242121Y-37410002D01*
G37*
%TD.AperFunction*%
%TD*%
%TA.AperFunction,Conductor*%
%TO.N,/VIN*%
G36*
X20015677Y-40269685D02*
G01*
X20036319Y-40286319D01*
X20713681Y-40963681D01*
X20747166Y-41025004D01*
X20750000Y-41051362D01*
X20750000Y-42500000D01*
X21500000Y-43000000D01*
X22198638Y-43000000D01*
X22265677Y-43019685D01*
X22286319Y-43036319D01*
X22713681Y-43463681D01*
X22747166Y-43525004D01*
X22750000Y-43551362D01*
X22750000Y-49250000D01*
X25126000Y-49250000D01*
X25193039Y-49269685D01*
X25238794Y-49322489D01*
X25250000Y-49374000D01*
X25249999Y-50198637D01*
X25230314Y-50265677D01*
X25213680Y-50286318D01*
X24792361Y-50707637D01*
X24777567Y-50720273D01*
X24638746Y-50821134D01*
X24510962Y-50963053D01*
X24510961Y-50963055D01*
X24483625Y-51010400D01*
X24463920Y-51036078D01*
X23786319Y-51713681D01*
X23724996Y-51747166D01*
X23698638Y-51750000D01*
X20874000Y-51750000D01*
X20806961Y-51730315D01*
X20761206Y-51677511D01*
X20750000Y-51626000D01*
X20750000Y-50590000D01*
X20749999Y-50589999D01*
X16786319Y-46626318D01*
X16752834Y-46564995D01*
X16750000Y-46538637D01*
X16750000Y-41301185D01*
X16766612Y-41239187D01*
X16834527Y-41121556D01*
X16893542Y-40939928D01*
X16898755Y-40890323D01*
X16925338Y-40825710D01*
X16934377Y-40815622D01*
X17463681Y-40286319D01*
X17525004Y-40252834D01*
X17551362Y-40250000D01*
X19948638Y-40250000D01*
X20015677Y-40269685D01*
G37*
%TD.AperFunction*%
%TD*%
%TA.AperFunction,Conductor*%
%TO.N,+5V*%
G36*
X35193039Y-42059685D02*
G01*
X35238794Y-42112489D01*
X35250000Y-42164000D01*
X35250000Y-44040000D01*
X35466028Y-44040000D01*
X35533067Y-44059685D01*
X35578822Y-44112489D01*
X35590028Y-44164000D01*
X35590028Y-45060854D01*
X35570343Y-45127893D01*
X35553709Y-45148535D01*
X35407063Y-45295181D01*
X35345740Y-45328666D01*
X35319382Y-45331500D01*
X33164120Y-45331500D01*
X33158040Y-45331201D01*
X33111522Y-45326620D01*
X32913820Y-45346091D01*
X32863812Y-45361261D01*
X32781386Y-45386265D01*
X32733857Y-45400682D01*
X32723714Y-45403760D01*
X32548523Y-45497401D01*
X32548516Y-45497405D01*
X32394953Y-45623432D01*
X32365297Y-45659567D01*
X32361209Y-45664077D01*
X30054077Y-47971209D01*
X30049567Y-47975297D01*
X30013432Y-48004953D01*
X29887407Y-48158514D01*
X29822882Y-48279233D01*
X29793758Y-48333718D01*
X29736091Y-48523818D01*
X29720891Y-48678154D01*
X29694730Y-48742941D01*
X29637696Y-48783300D01*
X29597488Y-48790000D01*
X28124000Y-48790000D01*
X28056961Y-48770315D01*
X28011206Y-48717511D01*
X28000000Y-48666000D01*
X28000000Y-42164000D01*
X28019685Y-42096961D01*
X28072489Y-42051206D01*
X28124000Y-42040000D01*
X35126000Y-42040000D01*
X35193039Y-42059685D01*
G37*
%TD.AperFunction*%
%TD*%
%TA.AperFunction,Conductor*%
%TO.N,GND*%
G36*
X64775114Y-45185D02*
G01*
X64795755Y-61818D01*
X66478182Y-1744245D01*
X66511666Y-1805566D01*
X66514500Y-1831924D01*
X66514500Y-13170264D01*
X66512398Y-13180832D01*
X66512399Y-13199999D01*
X66512399Y-13200000D01*
X66514500Y-13205072D01*
X66520483Y-13219517D01*
X66520484Y-13219518D01*
X66534048Y-13233082D01*
X66542999Y-13239062D01*
X69018181Y-15714243D01*
X69051666Y-15775566D01*
X69054500Y-15801924D01*
X69054500Y-48448074D01*
X69034815Y-48515113D01*
X69018181Y-48535755D01*
X66542991Y-51010944D01*
X66534038Y-51016927D01*
X66520482Y-51030483D01*
X66513716Y-51046812D01*
X66513710Y-51046834D01*
X66512399Y-51049999D01*
X66512399Y-51069177D01*
X66514500Y-51079738D01*
X66514500Y-53690500D01*
X66494815Y-53757539D01*
X66442011Y-53803294D01*
X66390500Y-53814500D01*
X149500Y-53814500D01*
X82461Y-53794815D01*
X36706Y-53742011D01*
X25500Y-53690500D01*
X25500Y-51117763D01*
X12365787Y-51117763D01*
X12395413Y-51387013D01*
X12395415Y-51387024D01*
X12457892Y-51626000D01*
X12463928Y-51649088D01*
X12569870Y-51898390D01*
X12710979Y-52129605D01*
X12710986Y-52129615D01*
X12884253Y-52337819D01*
X12884259Y-52337824D01*
X13085998Y-52518582D01*
X13311910Y-52668044D01*
X13557176Y-52783020D01*
X13557183Y-52783022D01*
X13557185Y-52783023D01*
X13816557Y-52861057D01*
X13816564Y-52861058D01*
X13816569Y-52861060D01*
X14084561Y-52900500D01*
X14084566Y-52900500D01*
X14287636Y-52900500D01*
X14339133Y-52896730D01*
X14490156Y-52885677D01*
X14602758Y-52860593D01*
X14754546Y-52826782D01*
X14754548Y-52826781D01*
X14754553Y-52826780D01*
X15007558Y-52730014D01*
X15243777Y-52597441D01*
X15458177Y-52431888D01*
X15646186Y-52236881D01*
X15803799Y-52016579D01*
X15922002Y-51786673D01*
X15927649Y-51775690D01*
X15927651Y-51775684D01*
X15927656Y-51775675D01*
X16015118Y-51519305D01*
X16064319Y-51252933D01*
X16074212Y-50982235D01*
X16044586Y-50712982D01*
X15976072Y-50450912D01*
X15870130Y-50201610D01*
X15729018Y-49970390D01*
X15719451Y-49958894D01*
X15555746Y-49762180D01*
X15555740Y-49762175D01*
X15354002Y-49581418D01*
X15128092Y-49431957D01*
X15106600Y-49421882D01*
X14882824Y-49316980D01*
X14882819Y-49316978D01*
X14882814Y-49316976D01*
X14623442Y-49238942D01*
X14623428Y-49238939D01*
X14507791Y-49221921D01*
X14355439Y-49199500D01*
X14152369Y-49199500D01*
X14152364Y-49199500D01*
X13949844Y-49214323D01*
X13949831Y-49214325D01*
X13685453Y-49273217D01*
X13685446Y-49273220D01*
X13432439Y-49369987D01*
X13196226Y-49502557D01*
X12981822Y-49668112D01*
X12793822Y-49863109D01*
X12793816Y-49863116D01*
X12636202Y-50083419D01*
X12636199Y-50083424D01*
X12512350Y-50324309D01*
X12512343Y-50324327D01*
X12424884Y-50580685D01*
X12424881Y-50580699D01*
X12413984Y-50639694D01*
X12379118Y-50828462D01*
X12375681Y-50847068D01*
X12375680Y-50847075D01*
X12365787Y-51117763D01*
X25500Y-51117763D01*
X25500Y-45540000D01*
X8098082Y-45540000D01*
X9618171Y-45540000D01*
X9577500Y-45705005D01*
X9577500Y-45874995D01*
X9618171Y-46040000D01*
X8099234Y-46040000D01*
X8134025Y-46201433D01*
X8222883Y-46422562D01*
X8347833Y-46625494D01*
X8505280Y-46804389D01*
X8505286Y-46804396D01*
X8690694Y-46954102D01*
X8690704Y-46954109D01*
X8898748Y-47070331D01*
X9123447Y-47149722D01*
X9123461Y-47149726D01*
X9358332Y-47189999D01*
X9358343Y-47190000D01*
X10027500Y-47190000D01*
X10027500Y-46443837D01*
X10108749Y-46474651D01*
X10235160Y-46490000D01*
X10319840Y-46490000D01*
X10446251Y-46474651D01*
X10527500Y-46443837D01*
X10527500Y-47190000D01*
X11136978Y-47190000D01*
X11314950Y-47174852D01*
X11314953Y-47174851D01*
X11545578Y-47114802D01*
X11762741Y-47016639D01*
X11762744Y-47016637D01*
X11960188Y-46883187D01*
X11960190Y-46883185D01*
X12132236Y-46718293D01*
X12273950Y-46526683D01*
X12342865Y-46390000D01*
X14090606Y-46390000D01*
X14107749Y-46424427D01*
X14241771Y-46601900D01*
X14406119Y-46751722D01*
X14406121Y-46751724D01*
X14532379Y-46829900D01*
X15732380Y-46829900D01*
X15858638Y-46751724D01*
X15858640Y-46751722D01*
X16022988Y-46601899D01*
X16026206Y-46597639D01*
X16082313Y-46556001D01*
X16152025Y-46551308D01*
X16213208Y-46585048D01*
X16246437Y-46646511D01*
X16247565Y-46652527D01*
X16251068Y-46674146D01*
X16251068Y-46674147D01*
X16302148Y-46811095D01*
X16335629Y-46872411D01*
X16423218Y-46989415D01*
X16423229Y-46989427D01*
X20200180Y-50766378D01*
X20233665Y-50827701D01*
X20236499Y-50854059D01*
X20236499Y-51625991D01*
X20236500Y-51626008D01*
X20248235Y-51735153D01*
X20248237Y-51735163D01*
X20259443Y-51786673D01*
X20294106Y-51890820D01*
X20294109Y-51890826D01*
X20373128Y-52013781D01*
X20373134Y-52013788D01*
X20418879Y-52066581D01*
X20418882Y-52066584D01*
X20418884Y-52066586D01*
X20443997Y-52088347D01*
X20529335Y-52162294D01*
X20529341Y-52162298D01*
X20533876Y-52164369D01*
X20662287Y-52223014D01*
X20705059Y-52235573D01*
X20729321Y-52242698D01*
X20729326Y-52242699D01*
X20729330Y-52242700D01*
X20874000Y-52263500D01*
X20874003Y-52263500D01*
X23712387Y-52263500D01*
X23712391Y-52263500D01*
X23739858Y-52262028D01*
X23739866Y-52262027D01*
X23739868Y-52262027D01*
X23750252Y-52260910D01*
X23779888Y-52257723D01*
X23779888Y-52257724D01*
X23834144Y-52248932D01*
X23834146Y-52248931D01*
X23834149Y-52248931D01*
X23971091Y-52197854D01*
X24032414Y-52164369D01*
X24149419Y-52076780D01*
X24344681Y-51881517D01*
X26989500Y-51881517D01*
X26996303Y-51924469D01*
X27004354Y-51975304D01*
X27061950Y-52088342D01*
X27061952Y-52088344D01*
X27061954Y-52088347D01*
X27151652Y-52178045D01*
X27151654Y-52178046D01*
X27151658Y-52178050D01*
X27241942Y-52224052D01*
X27264698Y-52235647D01*
X27358475Y-52250499D01*
X27358481Y-52250500D01*
X29021518Y-52250499D01*
X29115304Y-52235646D01*
X29228342Y-52178050D01*
X29318050Y-52088342D01*
X29375646Y-51975304D01*
X29375646Y-51975302D01*
X29375647Y-51975301D01*
X29390499Y-51881524D01*
X29390500Y-51881519D01*
X29390499Y-51580418D01*
X29410183Y-51513382D01*
X29462987Y-51467627D01*
X29532146Y-51457683D01*
X29595701Y-51486708D01*
X29625499Y-51525149D01*
X29704938Y-51684683D01*
X29704943Y-51684691D01*
X29839020Y-51862238D01*
X30003437Y-52012123D01*
X30003439Y-52012125D01*
X30192595Y-52129245D01*
X30192596Y-52129245D01*
X30192599Y-52129247D01*
X30400060Y-52209618D01*
X30618757Y-52250500D01*
X30618759Y-52250500D01*
X30841241Y-52250500D01*
X30841243Y-52250500D01*
X31059940Y-52209618D01*
X31267401Y-52129247D01*
X31456562Y-52012124D01*
X31620981Y-51862236D01*
X31755058Y-51684689D01*
X31854229Y-51485528D01*
X31880734Y-51392371D01*
X31918013Y-51333278D01*
X31981323Y-51303721D01*
X32050562Y-51313083D01*
X32103749Y-51358393D01*
X32119266Y-51392372D01*
X32145769Y-51485523D01*
X32145775Y-51485538D01*
X32244938Y-51684683D01*
X32244943Y-51684691D01*
X32379020Y-51862238D01*
X32543437Y-52012123D01*
X32543439Y-52012125D01*
X32732595Y-52129245D01*
X32732596Y-52129245D01*
X32732599Y-52129247D01*
X32940060Y-52209618D01*
X33158757Y-52250500D01*
X33158759Y-52250500D01*
X33381241Y-52250500D01*
X33381243Y-52250500D01*
X33599940Y-52209618D01*
X33807401Y-52129247D01*
X33996562Y-52012124D01*
X34160981Y-51862236D01*
X34295058Y-51684689D01*
X34394229Y-51485528D01*
X34420734Y-51392371D01*
X34458013Y-51333278D01*
X34521323Y-51303721D01*
X34590562Y-51313083D01*
X34643749Y-51358393D01*
X34659266Y-51392372D01*
X34685769Y-51485523D01*
X34685775Y-51485538D01*
X34784938Y-51684683D01*
X34784943Y-51684691D01*
X34919020Y-51862238D01*
X35083437Y-52012123D01*
X35083439Y-52012125D01*
X35272595Y-52129245D01*
X35272596Y-52129245D01*
X35272599Y-52129247D01*
X35480060Y-52209618D01*
X35698757Y-52250500D01*
X35698759Y-52250500D01*
X35921241Y-52250500D01*
X35921243Y-52250500D01*
X36139940Y-52209618D01*
X36347401Y-52129247D01*
X36536562Y-52012124D01*
X36700981Y-51862236D01*
X36835058Y-51684689D01*
X36934229Y-51485528D01*
X36941103Y-51461367D01*
X36978379Y-51402277D01*
X37041688Y-51372718D01*
X37110928Y-51382079D01*
X37162706Y-51425282D01*
X37187399Y-51461371D01*
X37281747Y-51599265D01*
X37286077Y-51606638D01*
X37324936Y-51684679D01*
X37324943Y-51684691D01*
X37458765Y-51861900D01*
X37459019Y-51862236D01*
X37498676Y-51898389D01*
X37499544Y-51899180D01*
X37501961Y-51901506D01*
X37513991Y-51913729D01*
X37519878Y-51918413D01*
X37519638Y-51918714D01*
X37527285Y-51924469D01*
X37623437Y-52012123D01*
X37623439Y-52012125D01*
X37812595Y-52129245D01*
X37812596Y-52129245D01*
X37812599Y-52129247D01*
X38020060Y-52209618D01*
X38238757Y-52250500D01*
X38238759Y-52250500D01*
X38461241Y-52250500D01*
X38461243Y-52250500D01*
X38679940Y-52209618D01*
X38887401Y-52129247D01*
X39076562Y-52012124D01*
X39240981Y-51862236D01*
X39375058Y-51684689D01*
X39474229Y-51485528D01*
X39500995Y-51391455D01*
X39538272Y-51332367D01*
X39601581Y-51302809D01*
X39670821Y-51312171D01*
X39724007Y-51357480D01*
X39739525Y-51391460D01*
X39766236Y-51485342D01*
X39766239Y-51485348D01*
X39865368Y-51684425D01*
X39999391Y-51861900D01*
X40163738Y-52011721D01*
X40352820Y-52128797D01*
X40352822Y-52128798D01*
X40560195Y-52209135D01*
X40640000Y-52224052D01*
X40640000Y-51485501D01*
X40747685Y-51534680D01*
X40854237Y-51550000D01*
X40925763Y-51550000D01*
X41032315Y-51534680D01*
X41140000Y-51485501D01*
X41140000Y-52224052D01*
X41219804Y-52209135D01*
X41427177Y-52128798D01*
X41427179Y-52128797D01*
X41616261Y-52011721D01*
X41780608Y-51861900D01*
X41914631Y-51684425D01*
X42013760Y-51485349D01*
X42040733Y-51390548D01*
X42078012Y-51331454D01*
X42141322Y-51301896D01*
X42210561Y-51311258D01*
X42263748Y-51356567D01*
X42279267Y-51390548D01*
X42306239Y-51485349D01*
X42405368Y-51684425D01*
X42539391Y-51861900D01*
X42703738Y-52011721D01*
X42892820Y-52128797D01*
X42892822Y-52128798D01*
X43100195Y-52209135D01*
X43180000Y-52224052D01*
X43180000Y-51485501D01*
X43287685Y-51534680D01*
X43394237Y-51550000D01*
X43465763Y-51550000D01*
X43572315Y-51534680D01*
X43680000Y-51485501D01*
X43680000Y-52224052D01*
X43759804Y-52209135D01*
X43967177Y-52128798D01*
X43967179Y-52128797D01*
X44156261Y-52011721D01*
X44320608Y-51861900D01*
X44454631Y-51684425D01*
X44553760Y-51485349D01*
X44580473Y-51391461D01*
X44617752Y-51332367D01*
X44681061Y-51302809D01*
X44750301Y-51312170D01*
X44803488Y-51357480D01*
X44819006Y-51391459D01*
X44845770Y-51485525D01*
X44845775Y-51485538D01*
X44944938Y-51684683D01*
X44944943Y-51684691D01*
X45079020Y-51862238D01*
X45243437Y-52012123D01*
X45243439Y-52012125D01*
X45432595Y-52129245D01*
X45432596Y-52129245D01*
X45432599Y-52129247D01*
X45640060Y-52209618D01*
X45858757Y-52250500D01*
X45858759Y-52250500D01*
X46081241Y-52250500D01*
X46081243Y-52250500D01*
X46299940Y-52209618D01*
X46507401Y-52129247D01*
X46696562Y-52012124D01*
X46860981Y-51862236D01*
X46995058Y-51684689D01*
X47094229Y-51485528D01*
X47155115Y-51271536D01*
X47175643Y-51050000D01*
X49844357Y-51050000D01*
X49864884Y-51271535D01*
X49864885Y-51271537D01*
X49925769Y-51485523D01*
X49925775Y-51485538D01*
X50024938Y-51684683D01*
X50024943Y-51684691D01*
X50159020Y-51862238D01*
X50323437Y-52012123D01*
X50323439Y-52012125D01*
X50512595Y-52129245D01*
X50512596Y-52129245D01*
X50512599Y-52129247D01*
X50720060Y-52209618D01*
X50938757Y-52250500D01*
X50938759Y-52250500D01*
X51161241Y-52250500D01*
X51161243Y-52250500D01*
X51379940Y-52209618D01*
X51587401Y-52129247D01*
X51776562Y-52012124D01*
X51940981Y-51862236D01*
X52075058Y-51684689D01*
X52174229Y-51485528D01*
X52200734Y-51392371D01*
X52238013Y-51333278D01*
X52301323Y-51303721D01*
X52370562Y-51313083D01*
X52423749Y-51358393D01*
X52439266Y-51392372D01*
X52465769Y-51485523D01*
X52465775Y-51485538D01*
X52564938Y-51684683D01*
X52564943Y-51684691D01*
X52699020Y-51862238D01*
X52863437Y-52012123D01*
X52863439Y-52012125D01*
X53052595Y-52129245D01*
X53052596Y-52129245D01*
X53052599Y-52129247D01*
X53260060Y-52209618D01*
X53478757Y-52250500D01*
X53478759Y-52250500D01*
X53701241Y-52250500D01*
X53701243Y-52250500D01*
X53919940Y-52209618D01*
X54127401Y-52129247D01*
X54316562Y-52012124D01*
X54480981Y-51862236D01*
X54615058Y-51684689D01*
X54714229Y-51485528D01*
X54740734Y-51392371D01*
X54778013Y-51333278D01*
X54841323Y-51303721D01*
X54910562Y-51313083D01*
X54963749Y-51358393D01*
X54979266Y-51392372D01*
X55005769Y-51485523D01*
X55005775Y-51485538D01*
X55104938Y-51684683D01*
X55104943Y-51684691D01*
X55239020Y-51862238D01*
X55403437Y-52012123D01*
X55403439Y-52012125D01*
X55592595Y-52129245D01*
X55592596Y-52129245D01*
X55592599Y-52129247D01*
X55800060Y-52209618D01*
X56018757Y-52250500D01*
X56018759Y-52250500D01*
X56241241Y-52250500D01*
X56241243Y-52250500D01*
X56459940Y-52209618D01*
X56667401Y-52129247D01*
X56856562Y-52012124D01*
X57020981Y-51862236D01*
X57155058Y-51684689D01*
X57254229Y-51485528D01*
X57280734Y-51392371D01*
X57318013Y-51333278D01*
X57381323Y-51303721D01*
X57450562Y-51313083D01*
X57503749Y-51358393D01*
X57519266Y-51392372D01*
X57545769Y-51485523D01*
X57545775Y-51485538D01*
X57644938Y-51684683D01*
X57644943Y-51684691D01*
X57779020Y-51862238D01*
X57943437Y-52012123D01*
X57943439Y-52012125D01*
X58132595Y-52129245D01*
X58132596Y-52129245D01*
X58132599Y-52129247D01*
X58340060Y-52209618D01*
X58558757Y-52250500D01*
X58558759Y-52250500D01*
X58781241Y-52250500D01*
X58781243Y-52250500D01*
X58999940Y-52209618D01*
X59207401Y-52129247D01*
X59396562Y-52012124D01*
X59560981Y-51862236D01*
X59695058Y-51684689D01*
X59794229Y-51485528D01*
X59820734Y-51392371D01*
X59858013Y-51333278D01*
X59921323Y-51303721D01*
X59990562Y-51313083D01*
X60043749Y-51358393D01*
X60059266Y-51392372D01*
X60085769Y-51485523D01*
X60085775Y-51485538D01*
X60184938Y-51684683D01*
X60184943Y-51684691D01*
X60319020Y-51862238D01*
X60483437Y-52012123D01*
X60483439Y-52012125D01*
X60672595Y-52129245D01*
X60672596Y-52129245D01*
X60672599Y-52129247D01*
X60880060Y-52209618D01*
X61098757Y-52250500D01*
X61098759Y-52250500D01*
X61321241Y-52250500D01*
X61321243Y-52250500D01*
X61539940Y-52209618D01*
X61747401Y-52129247D01*
X61936562Y-52012124D01*
X62100981Y-51862236D01*
X62235058Y-51684689D01*
X62334229Y-51485528D01*
X62360734Y-51392371D01*
X62398013Y-51333278D01*
X62461323Y-51303721D01*
X62530562Y-51313083D01*
X62583749Y-51358393D01*
X62599266Y-51392372D01*
X62625769Y-51485523D01*
X62625775Y-51485538D01*
X62724938Y-51684683D01*
X62724943Y-51684691D01*
X62859020Y-51862238D01*
X63023437Y-52012123D01*
X63023439Y-52012125D01*
X63212595Y-52129245D01*
X63212596Y-52129245D01*
X63212599Y-52129247D01*
X63420060Y-52209618D01*
X63638757Y-52250500D01*
X63638759Y-52250500D01*
X63861241Y-52250500D01*
X63861243Y-52250500D01*
X64079940Y-52209618D01*
X64287401Y-52129247D01*
X64476562Y-52012124D01*
X64640981Y-51862236D01*
X64775058Y-51684689D01*
X64874229Y-51485528D01*
X64935115Y-51271536D01*
X64955643Y-51050000D01*
X64954304Y-51035555D01*
X64935115Y-50828464D01*
X64935114Y-50828462D01*
X64934897Y-50827701D01*
X64874229Y-50614472D01*
X64860995Y-50587894D01*
X64775061Y-50415316D01*
X64775056Y-50415308D01*
X64640979Y-50237761D01*
X64476562Y-50087876D01*
X64476560Y-50087874D01*
X64287404Y-49970754D01*
X64287398Y-49970752D01*
X64286464Y-49970390D01*
X64079940Y-49890382D01*
X63861243Y-49849500D01*
X63638757Y-49849500D01*
X63420060Y-49890382D01*
X63288864Y-49941207D01*
X63212601Y-49970752D01*
X63212595Y-49970754D01*
X63023439Y-50087874D01*
X63023437Y-50087876D01*
X62859020Y-50237761D01*
X62724943Y-50415308D01*
X62724938Y-50415316D01*
X62625775Y-50614461D01*
X62625769Y-50614476D01*
X62599266Y-50707627D01*
X62561987Y-50766721D01*
X62498677Y-50796278D01*
X62429438Y-50786916D01*
X62376251Y-50741606D01*
X62360734Y-50707627D01*
X62334230Y-50614476D01*
X62334229Y-50614472D01*
X62320995Y-50587894D01*
X62235061Y-50415316D01*
X62235056Y-50415308D01*
X62100979Y-50237761D01*
X61936562Y-50087876D01*
X61936560Y-50087874D01*
X61747404Y-49970754D01*
X61747398Y-49970752D01*
X61746464Y-49970390D01*
X61539940Y-49890382D01*
X61321243Y-49849500D01*
X61098757Y-49849500D01*
X60880060Y-49890382D01*
X60748864Y-49941207D01*
X60672601Y-49970752D01*
X60672595Y-49970754D01*
X60483439Y-50087874D01*
X60483437Y-50087876D01*
X60319020Y-50237761D01*
X60184943Y-50415308D01*
X60184938Y-50415316D01*
X60085775Y-50614461D01*
X60085769Y-50614476D01*
X60059266Y-50707627D01*
X60021987Y-50766721D01*
X59958677Y-50796278D01*
X59889438Y-50786916D01*
X59836251Y-50741606D01*
X59820734Y-50707627D01*
X59794230Y-50614476D01*
X59794229Y-50614472D01*
X59780995Y-50587894D01*
X59695061Y-50415316D01*
X59695056Y-50415308D01*
X59560979Y-50237761D01*
X59396562Y-50087876D01*
X59396560Y-50087874D01*
X59207404Y-49970754D01*
X59207398Y-49970752D01*
X59206464Y-49970390D01*
X58999940Y-49890382D01*
X58781243Y-49849500D01*
X58558757Y-49849500D01*
X58340060Y-49890382D01*
X58208864Y-49941207D01*
X58132601Y-49970752D01*
X58132595Y-49970754D01*
X57943439Y-50087874D01*
X57943437Y-50087876D01*
X57779020Y-50237761D01*
X57644943Y-50415308D01*
X57644938Y-50415316D01*
X57545775Y-50614461D01*
X57545769Y-50614476D01*
X57519266Y-50707627D01*
X57481987Y-50766721D01*
X57418677Y-50796278D01*
X57349438Y-50786916D01*
X57296251Y-50741606D01*
X57280734Y-50707627D01*
X57254230Y-50614476D01*
X57254229Y-50614472D01*
X57240995Y-50587894D01*
X57155061Y-50415316D01*
X57155056Y-50415308D01*
X57020979Y-50237761D01*
X56856562Y-50087876D01*
X56856560Y-50087874D01*
X56667404Y-49970754D01*
X56667398Y-49970752D01*
X56666464Y-49970390D01*
X56459940Y-49890382D01*
X56241243Y-49849500D01*
X56018757Y-49849500D01*
X55800060Y-49890382D01*
X55668864Y-49941207D01*
X55592601Y-49970752D01*
X55592595Y-49970754D01*
X55403439Y-50087874D01*
X55403437Y-50087876D01*
X55239020Y-50237761D01*
X55104943Y-50415308D01*
X55104938Y-50415316D01*
X55005775Y-50614461D01*
X55005769Y-50614476D01*
X54979266Y-50707627D01*
X54941987Y-50766721D01*
X54878677Y-50796278D01*
X54809438Y-50786916D01*
X54756251Y-50741606D01*
X54740734Y-50707627D01*
X54714230Y-50614476D01*
X54714229Y-50614472D01*
X54700995Y-50587894D01*
X54615061Y-50415316D01*
X54615056Y-50415308D01*
X54480979Y-50237761D01*
X54316562Y-50087876D01*
X54316560Y-50087874D01*
X54127404Y-49970754D01*
X54127398Y-49970752D01*
X54126464Y-49970390D01*
X53919940Y-49890382D01*
X53701243Y-49849500D01*
X53478757Y-49849500D01*
X53260060Y-49890382D01*
X53128864Y-49941207D01*
X53052601Y-49970752D01*
X53052595Y-49970754D01*
X52863439Y-50087874D01*
X52863437Y-50087876D01*
X52699020Y-50237761D01*
X52564943Y-50415308D01*
X52564938Y-50415316D01*
X52465775Y-50614461D01*
X52465769Y-50614476D01*
X52439266Y-50707627D01*
X52401987Y-50766721D01*
X52338677Y-50796278D01*
X52269438Y-50786916D01*
X52216251Y-50741606D01*
X52200734Y-50707627D01*
X52174230Y-50614476D01*
X52174229Y-50614472D01*
X52160995Y-50587894D01*
X52075061Y-50415316D01*
X52075056Y-50415308D01*
X51940979Y-50237761D01*
X51776562Y-50087876D01*
X51776560Y-50087874D01*
X51587404Y-49970754D01*
X51587398Y-49970752D01*
X51586464Y-49970390D01*
X51379940Y-49890382D01*
X51161243Y-49849500D01*
X50938757Y-49849500D01*
X50720060Y-49890382D01*
X50588864Y-49941207D01*
X50512601Y-49970752D01*
X50512595Y-49970754D01*
X50323439Y-50087874D01*
X50323437Y-50087876D01*
X50159020Y-50237761D01*
X50024943Y-50415308D01*
X50024938Y-50415316D01*
X49925775Y-50614461D01*
X49925769Y-50614476D01*
X49864885Y-50828462D01*
X49864884Y-50828464D01*
X49844357Y-51049999D01*
X49844357Y-51050000D01*
X47175643Y-51050000D01*
X47174304Y-51035555D01*
X47155115Y-50828464D01*
X47155114Y-50828462D01*
X47154897Y-50827701D01*
X47094229Y-50614472D01*
X47080995Y-50587894D01*
X46995061Y-50415316D01*
X46995056Y-50415308D01*
X46860979Y-50237761D01*
X46696562Y-50087876D01*
X46696560Y-50087874D01*
X46507404Y-49970754D01*
X46507398Y-49970752D01*
X46506464Y-49970390D01*
X46299940Y-49890382D01*
X46081243Y-49849500D01*
X45858757Y-49849500D01*
X45640060Y-49890382D01*
X45508864Y-49941207D01*
X45432601Y-49970752D01*
X45432595Y-49970754D01*
X45243439Y-50087874D01*
X45243437Y-50087876D01*
X45079020Y-50237761D01*
X44944943Y-50415308D01*
X44944938Y-50415316D01*
X44845775Y-50614461D01*
X44845770Y-50614474D01*
X44819006Y-50708540D01*
X44781726Y-50767633D01*
X44718417Y-50797190D01*
X44649177Y-50787828D01*
X44595991Y-50742518D01*
X44580473Y-50708538D01*
X44553760Y-50614650D01*
X44454631Y-50415574D01*
X44320608Y-50238099D01*
X44156261Y-50088278D01*
X43967179Y-49971202D01*
X43967177Y-49971201D01*
X43759799Y-49890864D01*
X43680000Y-49875946D01*
X43680000Y-50614498D01*
X43572315Y-50565320D01*
X43465763Y-50550000D01*
X43394237Y-50550000D01*
X43287685Y-50565320D01*
X43180000Y-50614498D01*
X43180000Y-49875946D01*
X43100200Y-49890864D01*
X42892822Y-49971201D01*
X42892820Y-49971202D01*
X42703738Y-50088278D01*
X42539391Y-50238099D01*
X42405368Y-50415574D01*
X42306239Y-50614651D01*
X42306237Y-50614655D01*
X42279265Y-50709453D01*
X42241986Y-50768546D01*
X42178676Y-50798103D01*
X42109436Y-50788741D01*
X42056250Y-50743431D01*
X42040732Y-50709451D01*
X42013760Y-50614650D01*
X41914631Y-50415574D01*
X41780608Y-50238099D01*
X41616261Y-50088278D01*
X41427179Y-49971202D01*
X41427177Y-49971201D01*
X41219799Y-49890864D01*
X41140000Y-49875946D01*
X41140000Y-50614498D01*
X41032315Y-50565320D01*
X40925763Y-50550000D01*
X40854237Y-50550000D01*
X40747685Y-50565320D01*
X40640000Y-50614498D01*
X40640000Y-49875946D01*
X40560200Y-49890864D01*
X40352822Y-49971201D01*
X40352820Y-49971202D01*
X40163738Y-50088278D01*
X39999391Y-50238099D01*
X39865368Y-50415574D01*
X39766239Y-50614651D01*
X39766237Y-50614655D01*
X39739525Y-50708540D01*
X39702246Y-50767633D01*
X39638936Y-50797190D01*
X39569697Y-50787828D01*
X39516510Y-50742518D01*
X39500994Y-50708541D01*
X39474229Y-50614472D01*
X39460995Y-50587894D01*
X39375061Y-50415316D01*
X39375056Y-50415308D01*
X39240979Y-50237761D01*
X39076562Y-50087876D01*
X39076560Y-50087874D01*
X38887408Y-49970757D01*
X38887405Y-49970755D01*
X38887401Y-49970753D01*
X38887396Y-49970751D01*
X38882273Y-49968200D01*
X38882533Y-49967677D01*
X38865864Y-49958894D01*
X37819386Y-49242884D01*
X37801726Y-49228227D01*
X35985800Y-47412301D01*
X35952315Y-47350978D01*
X35957299Y-47281286D01*
X35999171Y-47225353D01*
X36035148Y-47206693D01*
X36042807Y-47204205D01*
X36045850Y-47203303D01*
X36112966Y-47185320D01*
X36125454Y-47178956D01*
X36143428Y-47171510D01*
X36156762Y-47167179D01*
X36216954Y-47132425D01*
X36219700Y-47130934D01*
X36281627Y-47099383D01*
X36292509Y-47090569D01*
X36308561Y-47079537D01*
X36320694Y-47072533D01*
X36372325Y-47026043D01*
X36374738Y-47023982D01*
X36391858Y-47010119D01*
X36407407Y-46994568D01*
X36409748Y-46992347D01*
X36461366Y-46945871D01*
X36469608Y-46934525D01*
X36482238Y-46919737D01*
X37040069Y-46361907D01*
X37101388Y-46328425D01*
X37171080Y-46333409D01*
X37208950Y-46355879D01*
X37209762Y-46356582D01*
X37209765Y-46356586D01*
X37320220Y-46452297D01*
X37453168Y-46513014D01*
X37495940Y-46525573D01*
X37520202Y-46532698D01*
X37520207Y-46532699D01*
X37520211Y-46532700D01*
X37664881Y-46553500D01*
X37664884Y-46553500D01*
X38125990Y-46553500D01*
X38126000Y-46553500D01*
X38149244Y-46551000D01*
X38217999Y-46563403D01*
X38269138Y-46611012D01*
X38286499Y-46674289D01*
X38286499Y-47263999D01*
X38286500Y-47264002D01*
X38298234Y-47373150D01*
X38309620Y-47425492D01*
X38344288Y-47529653D01*
X38344289Y-47529655D01*
X38344290Y-47529657D01*
X38395758Y-47609743D01*
X38423310Y-47652615D01*
X38423313Y-47652618D01*
X38468705Y-47705004D01*
X38469601Y-47706096D01*
X38580256Y-47801979D01*
X38580259Y-47801980D01*
X38580261Y-47801982D01*
X38713210Y-47862698D01*
X38781331Y-47882700D01*
X38926000Y-47903500D01*
X38926003Y-47903500D01*
X48174000Y-47903500D01*
X48283149Y-47891766D01*
X48335491Y-47880380D01*
X48439657Y-47845710D01*
X48562612Y-47766692D01*
X48615035Y-47721267D01*
X48616101Y-47720393D01*
X48711979Y-47609743D01*
X48711979Y-47609741D01*
X48711982Y-47609739D01*
X48772698Y-47476790D01*
X48792700Y-47408669D01*
X48813500Y-47264000D01*
X48813500Y-46037763D01*
X64435787Y-46037763D01*
X64465413Y-46307013D01*
X64465415Y-46307024D01*
X64533926Y-46569082D01*
X64533928Y-46569088D01*
X64639870Y-46818390D01*
X64756881Y-47010119D01*
X64780979Y-47049605D01*
X64780986Y-47049615D01*
X64954253Y-47257819D01*
X64954259Y-47257824D01*
X65058226Y-47350978D01*
X65155998Y-47438582D01*
X65381910Y-47588044D01*
X65627176Y-47703020D01*
X65627183Y-47703022D01*
X65627185Y-47703023D01*
X65886557Y-47781057D01*
X65886564Y-47781058D01*
X65886569Y-47781060D01*
X66154561Y-47820500D01*
X66154566Y-47820500D01*
X66357636Y-47820500D01*
X66409133Y-47816730D01*
X66560156Y-47805677D01*
X66672758Y-47780593D01*
X66824546Y-47746782D01*
X66824548Y-47746781D01*
X66824553Y-47746780D01*
X67077558Y-47650014D01*
X67313777Y-47517441D01*
X67528177Y-47351888D01*
X67716186Y-47156881D01*
X67873799Y-46936579D01*
X67947787Y-46792669D01*
X67997649Y-46695690D01*
X67997651Y-46695684D01*
X67997656Y-46695675D01*
X68085118Y-46439305D01*
X68134319Y-46172933D01*
X68144212Y-45902235D01*
X68114586Y-45632982D01*
X68046072Y-45370912D01*
X67940130Y-45121610D01*
X67799018Y-44890390D01*
X67709747Y-44783119D01*
X67625746Y-44682180D01*
X67625740Y-44682175D01*
X67424002Y-44501418D01*
X67198092Y-44351957D01*
X67198090Y-44351956D01*
X66952824Y-44236980D01*
X66952819Y-44236978D01*
X66952814Y-44236976D01*
X66693442Y-44158942D01*
X66693428Y-44158939D01*
X66577791Y-44141921D01*
X66425439Y-44119500D01*
X66222369Y-44119500D01*
X66222364Y-44119500D01*
X66019844Y-44134323D01*
X66019831Y-44134325D01*
X65755453Y-44193217D01*
X65755446Y-44193220D01*
X65502439Y-44289987D01*
X65266226Y-44422557D01*
X65051822Y-44588112D01*
X64863822Y-44783109D01*
X64863816Y-44783116D01*
X64706202Y-45003419D01*
X64706199Y-45003424D01*
X64582350Y-45244309D01*
X64582343Y-45244327D01*
X64494884Y-45500685D01*
X64494881Y-45500699D01*
X64445681Y-45767068D01*
X64445680Y-45767075D01*
X64435787Y-46037763D01*
X48813500Y-46037763D01*
X48813500Y-39700002D01*
X57094723Y-39700002D01*
X57098422Y-39742277D01*
X57109582Y-39869849D01*
X57113793Y-39917975D01*
X57113793Y-39917979D01*
X57170422Y-40129322D01*
X57170424Y-40129326D01*
X57170425Y-40129330D01*
X57216661Y-40228484D01*
X57262897Y-40327638D01*
X57262898Y-40327639D01*
X57388402Y-40506877D01*
X57543123Y-40661598D01*
X57689263Y-40763926D01*
X57732887Y-40818502D01*
X57740081Y-40888000D01*
X57708558Y-40950355D01*
X57648328Y-40985769D01*
X57618140Y-40989500D01*
X57468482Y-40989500D01*
X57387519Y-41002323D01*
X57374696Y-41004354D01*
X57261658Y-41061950D01*
X57261657Y-41061951D01*
X57261652Y-41061954D01*
X57171954Y-41151652D01*
X57171951Y-41151657D01*
X57114352Y-41264698D01*
X57099500Y-41358475D01*
X57099500Y-43121517D01*
X57110292Y-43189657D01*
X57114354Y-43215304D01*
X57171950Y-43328342D01*
X57171952Y-43328344D01*
X57171954Y-43328347D01*
X57261652Y-43418045D01*
X57261654Y-43418046D01*
X57261658Y-43418050D01*
X57363829Y-43470109D01*
X57374698Y-43475647D01*
X57468475Y-43490499D01*
X57468481Y-43490500D01*
X59231518Y-43490499D01*
X59325304Y-43475646D01*
X59438342Y-43418050D01*
X59528050Y-43328342D01*
X59585646Y-43215304D01*
X59585646Y-43215302D01*
X59585647Y-43215301D01*
X59600499Y-43121524D01*
X59600500Y-43121519D01*
X59600499Y-41358482D01*
X59585646Y-41264696D01*
X59528050Y-41151658D01*
X59528046Y-41151654D01*
X59528045Y-41151652D01*
X59438347Y-41061954D01*
X59438344Y-41061952D01*
X59438342Y-41061950D01*
X59336664Y-41010142D01*
X59325301Y-41004352D01*
X59231524Y-40989500D01*
X59081862Y-40989500D01*
X59014823Y-40969815D01*
X58969068Y-40917011D01*
X58959124Y-40847853D01*
X58988149Y-40784297D01*
X59010734Y-40763928D01*
X59156877Y-40661598D01*
X59311598Y-40506877D01*
X59437102Y-40327639D01*
X59529575Y-40129330D01*
X59586207Y-39917977D01*
X59605277Y-39700000D01*
X59586207Y-39482023D01*
X59529575Y-39270670D01*
X59437102Y-39072362D01*
X59437100Y-39072359D01*
X59437099Y-39072357D01*
X59311599Y-38893124D01*
X59311596Y-38893121D01*
X59156877Y-38738402D01*
X58977639Y-38612898D01*
X58826414Y-38542381D01*
X58773977Y-38496210D01*
X58754825Y-38429016D01*
X58775041Y-38362135D01*
X58826414Y-38317618D01*
X58977639Y-38247102D01*
X59156877Y-38121598D01*
X59311598Y-37966877D01*
X59437102Y-37787639D01*
X59529575Y-37589330D01*
X59586207Y-37377977D01*
X59605277Y-37160000D01*
X59602127Y-37124000D01*
X59600550Y-37105970D01*
X59586207Y-36942023D01*
X59529575Y-36730670D01*
X59437102Y-36532362D01*
X59437100Y-36532359D01*
X59437099Y-36532357D01*
X59311599Y-36353124D01*
X59257085Y-36298610D01*
X59156877Y-36198402D01*
X58977639Y-36072898D01*
X58826414Y-36002381D01*
X58773977Y-35956210D01*
X58754825Y-35889016D01*
X58775041Y-35822135D01*
X58826414Y-35777618D01*
X58977639Y-35707102D01*
X59156877Y-35581598D01*
X59311598Y-35426877D01*
X59437102Y-35247639D01*
X59529575Y-35049330D01*
X59586207Y-34837977D01*
X59605277Y-34620000D01*
X59586207Y-34402023D01*
X59529575Y-34190670D01*
X59437102Y-33992362D01*
X59437100Y-33992359D01*
X59437099Y-33992357D01*
X59311599Y-33813124D01*
X59283202Y-33784727D01*
X59156877Y-33658402D01*
X58977639Y-33532898D01*
X58977640Y-33532898D01*
X58977638Y-33532897D01*
X58878484Y-33486661D01*
X58779330Y-33440425D01*
X58779326Y-33440424D01*
X58779322Y-33440422D01*
X58567977Y-33383793D01*
X58350002Y-33364723D01*
X58349998Y-33364723D01*
X58204681Y-33377436D01*
X58132023Y-33383793D01*
X58132020Y-33383793D01*
X57920677Y-33440422D01*
X57920668Y-33440426D01*
X57722361Y-33532898D01*
X57722357Y-33532900D01*
X57543121Y-33658402D01*
X57388402Y-33813121D01*
X57262900Y-33992357D01*
X57262898Y-33992361D01*
X57170426Y-34190668D01*
X57170422Y-34190677D01*
X57113793Y-34402020D01*
X57113793Y-34402024D01*
X57094723Y-34619997D01*
X57094723Y-34620002D01*
X57113793Y-34837975D01*
X57113793Y-34837979D01*
X57170422Y-35049322D01*
X57170424Y-35049326D01*
X57170425Y-35049330D01*
X57216661Y-35148484D01*
X57262897Y-35247638D01*
X57262898Y-35247639D01*
X57388402Y-35426877D01*
X57543123Y-35581598D01*
X57706690Y-35696129D01*
X57722361Y-35707102D01*
X57873583Y-35777618D01*
X57926022Y-35823790D01*
X57945174Y-35890984D01*
X57924958Y-35957865D01*
X57873583Y-36002382D01*
X57722361Y-36072898D01*
X57722357Y-36072900D01*
X57543121Y-36198402D01*
X57388402Y-36353121D01*
X57262900Y-36532357D01*
X57262898Y-36532361D01*
X57170426Y-36730668D01*
X57170422Y-36730677D01*
X57113793Y-36942020D01*
X57113793Y-36942024D01*
X57094723Y-37159997D01*
X57094723Y-37160002D01*
X57113793Y-37377975D01*
X57113793Y-37377979D01*
X57170422Y-37589322D01*
X57170424Y-37589326D01*
X57170425Y-37589330D01*
X57191594Y-37634727D01*
X57262897Y-37787638D01*
X57262898Y-37787639D01*
X57388402Y-37966877D01*
X57543123Y-38121598D01*
X57678963Y-38216714D01*
X57722361Y-38247102D01*
X57873583Y-38317618D01*
X57926022Y-38363790D01*
X57945174Y-38430984D01*
X57924958Y-38497865D01*
X57873583Y-38542382D01*
X57722361Y-38612898D01*
X57722357Y-38612900D01*
X57543121Y-38738402D01*
X57388402Y-38893121D01*
X57262900Y-39072357D01*
X57262898Y-39072361D01*
X57170426Y-39270668D01*
X57170422Y-39270677D01*
X57113793Y-39482020D01*
X57113793Y-39482024D01*
X57094723Y-39699997D01*
X57094723Y-39700002D01*
X48813500Y-39700002D01*
X48813500Y-37516000D01*
X48801766Y-37406851D01*
X48790380Y-37354509D01*
X48755710Y-37250343D01*
X48676692Y-37127388D01*
X48631285Y-37074986D01*
X48630394Y-37073900D01*
X48523117Y-36980944D01*
X48485342Y-36922166D01*
X48485342Y-36852297D01*
X48516636Y-36799552D01*
X53129370Y-32186818D01*
X53190693Y-32153334D01*
X53217051Y-32150500D01*
X53394644Y-32150500D01*
X53394646Y-32150500D01*
X53579803Y-32111144D01*
X53752730Y-32034151D01*
X53905871Y-31922888D01*
X54032533Y-31782216D01*
X54127179Y-31618284D01*
X54185674Y-31438256D01*
X54200500Y-31297192D01*
X54200500Y-30926975D01*
X54220185Y-30859936D01*
X54220187Y-30859932D01*
X54532988Y-30373671D01*
X54537192Y-30367898D01*
X54585910Y-30308538D01*
X54638903Y-30209393D01*
X54641423Y-30205106D01*
X54642676Y-30203160D01*
X54651756Y-30187562D01*
X54656906Y-30177733D01*
X54659840Y-30170774D01*
X54662290Y-30165639D01*
X54678814Y-30134727D01*
X54736024Y-29946132D01*
X54755341Y-29750000D01*
X54736024Y-29553868D01*
X54678814Y-29365273D01*
X54678811Y-29365269D01*
X54678811Y-29365266D01*
X54585913Y-29191467D01*
X54585909Y-29191460D01*
X54527485Y-29120271D01*
X54523536Y-29114893D01*
X54220753Y-28652374D01*
X54200504Y-28585503D01*
X54200500Y-28584458D01*
X54200500Y-26900000D01*
X57094723Y-26900000D01*
X57113630Y-27116118D01*
X57113793Y-27117975D01*
X57113793Y-27117979D01*
X57170422Y-27329322D01*
X57170424Y-27329326D01*
X57170425Y-27329330D01*
X57216661Y-27428484D01*
X57262897Y-27527638D01*
X57287998Y-27563486D01*
X57388402Y-27706877D01*
X57543123Y-27861598D01*
X57689263Y-27963926D01*
X57732887Y-28018502D01*
X57740081Y-28088000D01*
X57708558Y-28150355D01*
X57648328Y-28185769D01*
X57618140Y-28189500D01*
X57468482Y-28189500D01*
X57387519Y-28202323D01*
X57374696Y-28204354D01*
X57261658Y-28261950D01*
X57261657Y-28261951D01*
X57261652Y-28261954D01*
X57171954Y-28351652D01*
X57171951Y-28351657D01*
X57114352Y-28464698D01*
X57099500Y-28558475D01*
X57099500Y-30321517D01*
X57107284Y-30370664D01*
X57114354Y-30415304D01*
X57171950Y-30528342D01*
X57171952Y-30528344D01*
X57171954Y-30528347D01*
X57261652Y-30618045D01*
X57261654Y-30618046D01*
X57261658Y-30618050D01*
X57374694Y-30675645D01*
X57374698Y-30675647D01*
X57468475Y-30690499D01*
X57468481Y-30690500D01*
X59231518Y-30690499D01*
X59325304Y-30675646D01*
X59438342Y-30618050D01*
X59528050Y-30528342D01*
X59585646Y-30415304D01*
X59585646Y-30415302D01*
X59585647Y-30415301D01*
X59600499Y-30321524D01*
X59600500Y-30321519D01*
X59600499Y-28558482D01*
X59585646Y-28464696D01*
X59528050Y-28351658D01*
X59528046Y-28351654D01*
X59528045Y-28351652D01*
X59438347Y-28261954D01*
X59438344Y-28261952D01*
X59438342Y-28261950D01*
X59361517Y-28222805D01*
X59325301Y-28204352D01*
X59231524Y-28189500D01*
X59081862Y-28189500D01*
X59014823Y-28169815D01*
X58969068Y-28117011D01*
X58959124Y-28047853D01*
X58988149Y-27984297D01*
X59010734Y-27963928D01*
X59156877Y-27861598D01*
X59311598Y-27706877D01*
X59437102Y-27527639D01*
X59529575Y-27329330D01*
X59586207Y-27117977D01*
X59605277Y-26900000D01*
X59586207Y-26682023D01*
X59529575Y-26470670D01*
X59437102Y-26272362D01*
X59437100Y-26272359D01*
X59437099Y-26272357D01*
X59311599Y-26093124D01*
X59289220Y-26070745D01*
X59156877Y-25938402D01*
X58977639Y-25812898D01*
X58977640Y-25812898D01*
X58977638Y-25812897D01*
X58826416Y-25742381D01*
X58773977Y-25696208D01*
X58754825Y-25629015D01*
X58775041Y-25562134D01*
X58826414Y-25517619D01*
X58977639Y-25447102D01*
X59156877Y-25321598D01*
X59311598Y-25166877D01*
X59437102Y-24987639D01*
X59529575Y-24789330D01*
X59586207Y-24577977D01*
X59605277Y-24360000D01*
X59586207Y-24142023D01*
X59529575Y-23930670D01*
X59437102Y-23732362D01*
X59437100Y-23732359D01*
X59437099Y-23732357D01*
X59311599Y-23553124D01*
X59311596Y-23553121D01*
X59156877Y-23398402D01*
X58977639Y-23272898D01*
X58826414Y-23202381D01*
X58773977Y-23156210D01*
X58754825Y-23089016D01*
X58775041Y-23022135D01*
X58826414Y-22977618D01*
X58977639Y-22907102D01*
X59156877Y-22781598D01*
X59311598Y-22626877D01*
X59437102Y-22447639D01*
X59529575Y-22249330D01*
X59586207Y-22037977D01*
X59605277Y-21820000D01*
X59586207Y-21602023D01*
X59529575Y-21390670D01*
X59437102Y-21192362D01*
X59437100Y-21192359D01*
X59437099Y-21192357D01*
X59311599Y-21013124D01*
X59311596Y-21013121D01*
X59156877Y-20858402D01*
X58977639Y-20732898D01*
X58977640Y-20732898D01*
X58977638Y-20732897D01*
X58878484Y-20686661D01*
X58779330Y-20640425D01*
X58779326Y-20640424D01*
X58779322Y-20640422D01*
X58567977Y-20583793D01*
X58350002Y-20564723D01*
X58349998Y-20564723D01*
X58204681Y-20577436D01*
X58132023Y-20583793D01*
X58132020Y-20583793D01*
X57920677Y-20640422D01*
X57920668Y-20640426D01*
X57722361Y-20732898D01*
X57722357Y-20732900D01*
X57543121Y-20858402D01*
X57388402Y-21013121D01*
X57262900Y-21192357D01*
X57262898Y-21192361D01*
X57170426Y-21390668D01*
X57170422Y-21390677D01*
X57113793Y-21602020D01*
X57113793Y-21602024D01*
X57094723Y-21819997D01*
X57094723Y-21820002D01*
X57113793Y-22037975D01*
X57113793Y-22037979D01*
X57170422Y-22249322D01*
X57170424Y-22249326D01*
X57170425Y-22249330D01*
X57216661Y-22348484D01*
X57262897Y-22447638D01*
X57262898Y-22447639D01*
X57388402Y-22626877D01*
X57543123Y-22781598D01*
X57722360Y-22907101D01*
X57722361Y-22907102D01*
X57873583Y-22977618D01*
X57926022Y-23023790D01*
X57945174Y-23090984D01*
X57924958Y-23157865D01*
X57873583Y-23202382D01*
X57722361Y-23272898D01*
X57722357Y-23272900D01*
X57543121Y-23398402D01*
X57388402Y-23553121D01*
X57262900Y-23732357D01*
X57262898Y-23732361D01*
X57170426Y-23930668D01*
X57170422Y-23930677D01*
X57113793Y-24142020D01*
X57113793Y-24142024D01*
X57094723Y-24359997D01*
X57094723Y-24360002D01*
X57113793Y-24577975D01*
X57113793Y-24577979D01*
X57170422Y-24789322D01*
X57170424Y-24789326D01*
X57170425Y-24789330D01*
X57216661Y-24888484D01*
X57262897Y-24987638D01*
X57262898Y-24987639D01*
X57388402Y-25166877D01*
X57543123Y-25321598D01*
X57718552Y-25444435D01*
X57722361Y-25447102D01*
X57873583Y-25517618D01*
X57926022Y-25563790D01*
X57945174Y-25630984D01*
X57924958Y-25697865D01*
X57873583Y-25742382D01*
X57722361Y-25812898D01*
X57722357Y-25812900D01*
X57543121Y-25938402D01*
X57388402Y-26093121D01*
X57262900Y-26272357D01*
X57262898Y-26272361D01*
X57170426Y-26470668D01*
X57170422Y-26470677D01*
X57113793Y-26682020D01*
X57113793Y-26682023D01*
X57094723Y-26900000D01*
X54200500Y-26900000D01*
X54200500Y-20172830D01*
X54220185Y-20105791D01*
X54248345Y-20074970D01*
X54540648Y-19847506D01*
X54558360Y-19836005D01*
X54558538Y-19835910D01*
X54613198Y-19791050D01*
X54667780Y-19748577D01*
X54677396Y-19740607D01*
X54683157Y-19735525D01*
X54690584Y-19727986D01*
X54695393Y-19723595D01*
X54710883Y-19710883D01*
X54835910Y-19558538D01*
X54928814Y-19384727D01*
X54986024Y-19196132D01*
X55005341Y-19000000D01*
X54986024Y-18803868D01*
X54928814Y-18615273D01*
X54928811Y-18615269D01*
X54928811Y-18615266D01*
X54835913Y-18441467D01*
X54835909Y-18441460D01*
X54710883Y-18289116D01*
X54558539Y-18164090D01*
X54558532Y-18164086D01*
X54434451Y-18097763D01*
X64435787Y-18097763D01*
X64465413Y-18367013D01*
X64465415Y-18367024D01*
X64530314Y-18615266D01*
X64533928Y-18629088D01*
X64639870Y-18878390D01*
X64711998Y-18996575D01*
X64780979Y-19109605D01*
X64780986Y-19109615D01*
X64954253Y-19317819D01*
X64954259Y-19317824D01*
X65059240Y-19411887D01*
X65155998Y-19498582D01*
X65381910Y-19648044D01*
X65627176Y-19763020D01*
X65627183Y-19763022D01*
X65627185Y-19763023D01*
X65886557Y-19841057D01*
X65886564Y-19841058D01*
X65886569Y-19841060D01*
X66154561Y-19880500D01*
X66154566Y-19880500D01*
X66357636Y-19880500D01*
X66409133Y-19876730D01*
X66560156Y-19865677D01*
X66672758Y-19840593D01*
X66824546Y-19806782D01*
X66824548Y-19806781D01*
X66824553Y-19806780D01*
X67077558Y-19710014D01*
X67313777Y-19577441D01*
X67528177Y-19411888D01*
X67716186Y-19216881D01*
X67873799Y-18996579D01*
X67965706Y-18817819D01*
X67997649Y-18755690D01*
X67997651Y-18755684D01*
X67997656Y-18755675D01*
X68085118Y-18499305D01*
X68134319Y-18232933D01*
X68144212Y-17962235D01*
X68114586Y-17692982D01*
X68046072Y-17430912D01*
X67940130Y-17181610D01*
X67799018Y-16950390D01*
X67709747Y-16843119D01*
X67625746Y-16742180D01*
X67625740Y-16742175D01*
X67424002Y-16561418D01*
X67198092Y-16411957D01*
X67198090Y-16411956D01*
X66952824Y-16296980D01*
X66952819Y-16296978D01*
X66952814Y-16296976D01*
X66693442Y-16218942D01*
X66693428Y-16218939D01*
X66577791Y-16201921D01*
X66425439Y-16179500D01*
X66222369Y-16179500D01*
X66222364Y-16179500D01*
X66019844Y-16194323D01*
X66019831Y-16194325D01*
X65755453Y-16253217D01*
X65755446Y-16253220D01*
X65502439Y-16349987D01*
X65266226Y-16482557D01*
X65051822Y-16648112D01*
X64863822Y-16843109D01*
X64863816Y-16843116D01*
X64706202Y-17063419D01*
X64706199Y-17063424D01*
X64582350Y-17304309D01*
X64582343Y-17304327D01*
X64494884Y-17560685D01*
X64494881Y-17560699D01*
X64445681Y-17827068D01*
X64445680Y-17827075D01*
X64435787Y-18097763D01*
X54434451Y-18097763D01*
X54384733Y-18071188D01*
X54384727Y-18071186D01*
X54196132Y-18013976D01*
X54196129Y-18013975D01*
X54000000Y-17994659D01*
X53803870Y-18013975D01*
X53615266Y-18071188D01*
X53441467Y-18164086D01*
X53441460Y-18164090D01*
X53289116Y-18289116D01*
X53164092Y-18441458D01*
X53100823Y-18559824D01*
X53088472Y-18578608D01*
X53087767Y-18579492D01*
X53018635Y-18701515D01*
X52998428Y-18728071D01*
X52937181Y-18789318D01*
X52875858Y-18822803D01*
X52806166Y-18817819D01*
X52750233Y-18775947D01*
X52725816Y-18710483D01*
X52725500Y-18701637D01*
X52725500Y-16739360D01*
X52745185Y-16672321D01*
X52761814Y-16651684D01*
X54222566Y-15190931D01*
X54283887Y-15157448D01*
X54353579Y-15162432D01*
X54357456Y-15163953D01*
X54838398Y-15361989D01*
X54851076Y-15365814D01*
X54871558Y-15374047D01*
X54874696Y-15375646D01*
X54889385Y-15377972D01*
X54897589Y-15379850D01*
X54914007Y-15384805D01*
X54918455Y-15385686D01*
X54946658Y-15387345D01*
X54952687Y-15387998D01*
X54968481Y-15390500D01*
X54998425Y-15390499D01*
X55002070Y-15390606D01*
X55005882Y-15390830D01*
X55028821Y-15392181D01*
X55028826Y-15392179D01*
X55037915Y-15391377D01*
X55037968Y-15391977D01*
X55050488Y-15390499D01*
X56731517Y-15390499D01*
X56731518Y-15390499D01*
X56825304Y-15375646D01*
X56938342Y-15318050D01*
X57028050Y-15228342D01*
X57085646Y-15115304D01*
X57085646Y-15115302D01*
X57085647Y-15115301D01*
X57100499Y-15021524D01*
X57100500Y-15021519D01*
X57100499Y-13258482D01*
X57085646Y-13164696D01*
X57028050Y-13051658D01*
X57028046Y-13051654D01*
X57028045Y-13051652D01*
X56938347Y-12961954D01*
X56938344Y-12961952D01*
X56938342Y-12961950D01*
X56861517Y-12922805D01*
X56825301Y-12904352D01*
X56731524Y-12889500D01*
X56731519Y-12889500D01*
X56581862Y-12889500D01*
X56514823Y-12869815D01*
X56469068Y-12817011D01*
X56459124Y-12747853D01*
X56488149Y-12684297D01*
X56510734Y-12663928D01*
X56656877Y-12561598D01*
X56811598Y-12406877D01*
X56937102Y-12227639D01*
X57029575Y-12029330D01*
X57086207Y-11817977D01*
X57105277Y-11600000D01*
X57086207Y-11382023D01*
X57036297Y-11195755D01*
X57029577Y-11170677D01*
X57029576Y-11170676D01*
X57029575Y-11170670D01*
X56937102Y-10972362D01*
X56937100Y-10972359D01*
X56937099Y-10972357D01*
X56811599Y-10793124D01*
X56810737Y-10792262D01*
X56656877Y-10638402D01*
X56477639Y-10512898D01*
X56326414Y-10442381D01*
X56273977Y-10396210D01*
X56254825Y-10329016D01*
X56275041Y-10262135D01*
X56326414Y-10217618D01*
X56477639Y-10147102D01*
X56656877Y-10021598D01*
X56811598Y-9866877D01*
X56937102Y-9687639D01*
X57029575Y-9489330D01*
X57086207Y-9277977D01*
X57105277Y-9060000D01*
X57086207Y-8842023D01*
X57051548Y-8712675D01*
X57029577Y-8630677D01*
X57029576Y-8630676D01*
X57029575Y-8630670D01*
X56937102Y-8432362D01*
X56937100Y-8432359D01*
X56937099Y-8432357D01*
X56811599Y-8253124D01*
X56774018Y-8215543D01*
X56656877Y-8098402D01*
X56477639Y-7972898D01*
X56477640Y-7972898D01*
X56477638Y-7972897D01*
X56325824Y-7902105D01*
X56273385Y-7855932D01*
X56254233Y-7788739D01*
X56274449Y-7721858D01*
X56325825Y-7677341D01*
X56477384Y-7606668D01*
X56477386Y-7606667D01*
X56656554Y-7481212D01*
X56811212Y-7326554D01*
X56936666Y-7147387D01*
X57029101Y-6949159D01*
X57029105Y-6949150D01*
X57077108Y-6770000D01*
X56283686Y-6770000D01*
X56309493Y-6729844D01*
X56350000Y-6591889D01*
X56350000Y-6448111D01*
X56309493Y-6310156D01*
X56283686Y-6270000D01*
X57077108Y-6270000D01*
X57077108Y-6269999D01*
X57029105Y-6090849D01*
X57029101Y-6090840D01*
X56936666Y-5892612D01*
X56936664Y-5892608D01*
X56811216Y-5713450D01*
X56811211Y-5713444D01*
X56656554Y-5558787D01*
X56477387Y-5433333D01*
X56279159Y-5340898D01*
X56279150Y-5340894D01*
X56100000Y-5292891D01*
X56100000Y-6084498D01*
X55992315Y-6035320D01*
X55885763Y-6020000D01*
X55814237Y-6020000D01*
X55707685Y-6035320D01*
X55600000Y-6084498D01*
X55600000Y-5292892D01*
X55599999Y-5292891D01*
X55420849Y-5340894D01*
X55420840Y-5340898D01*
X55222612Y-5433333D01*
X55222608Y-5433335D01*
X55043450Y-5558783D01*
X55043444Y-5558788D01*
X54888788Y-5713444D01*
X54888783Y-5713450D01*
X54763335Y-5892608D01*
X54763333Y-5892612D01*
X54670898Y-6090840D01*
X54670894Y-6090849D01*
X54622891Y-6269999D01*
X54622892Y-6270000D01*
X55416314Y-6270000D01*
X55390507Y-6310156D01*
X55350000Y-6448111D01*
X55350000Y-6591889D01*
X55390507Y-6729844D01*
X55416314Y-6770000D01*
X54622892Y-6770000D01*
X54670894Y-6949150D01*
X54670898Y-6949159D01*
X54763333Y-7147387D01*
X54888787Y-7326554D01*
X55043445Y-7481212D01*
X55222613Y-7606667D01*
X55222615Y-7606668D01*
X55374174Y-7677341D01*
X55426614Y-7723513D01*
X55445766Y-7790706D01*
X55425551Y-7857588D01*
X55374176Y-7902105D01*
X55222358Y-7972900D01*
X55222357Y-7972900D01*
X55043121Y-8098402D01*
X54888402Y-8253121D01*
X54762900Y-8432357D01*
X54762898Y-8432361D01*
X54670426Y-8630668D01*
X54670422Y-8630677D01*
X54613793Y-8842020D01*
X54613793Y-8842023D01*
X54609025Y-8896517D01*
X54594723Y-9059997D01*
X54594723Y-9060002D01*
X54613793Y-9277975D01*
X54613793Y-9277979D01*
X54670422Y-9489322D01*
X54670424Y-9489326D01*
X54670425Y-9489330D01*
X54694816Y-9541637D01*
X54762897Y-9687638D01*
X54762898Y-9687639D01*
X54888402Y-9866877D01*
X55043123Y-10021598D01*
X55222360Y-10147101D01*
X55222361Y-10147102D01*
X55373583Y-10217618D01*
X55426022Y-10263790D01*
X55445174Y-10330984D01*
X55424958Y-10397865D01*
X55373583Y-10442382D01*
X55222361Y-10512898D01*
X55222357Y-10512900D01*
X55043121Y-10638402D01*
X54888402Y-10793121D01*
X54762900Y-10972357D01*
X54762898Y-10972361D01*
X54670426Y-11170668D01*
X54670422Y-11170677D01*
X54613793Y-11382020D01*
X54613793Y-11382024D01*
X54594723Y-11599997D01*
X54594723Y-11600002D01*
X54613793Y-11817975D01*
X54613793Y-11817979D01*
X54670422Y-12029322D01*
X54670424Y-12029326D01*
X54670425Y-12029330D01*
X54704315Y-12102008D01*
X54762897Y-12227638D01*
X54762898Y-12227639D01*
X54888402Y-12406877D01*
X55043123Y-12561598D01*
X55189263Y-12663926D01*
X55232887Y-12718502D01*
X55240079Y-12788001D01*
X55208557Y-12850355D01*
X55148327Y-12885769D01*
X55118138Y-12889500D01*
X55025037Y-12889500D01*
X55005389Y-12887933D01*
X55003526Y-12887634D01*
X55002609Y-12887487D01*
X54998131Y-12887477D01*
X54993655Y-12887468D01*
X54993654Y-12887468D01*
X54961824Y-12888650D01*
X54940174Y-12893800D01*
X54935535Y-12894717D01*
X54915026Y-12897966D01*
X54874697Y-12904353D01*
X54874695Y-12904354D01*
X54869394Y-12907055D01*
X54841817Y-12917197D01*
X54838401Y-12918009D01*
X54089057Y-13226561D01*
X54048335Y-13235731D01*
X53987691Y-13238909D01*
X53978046Y-13239415D01*
X53974803Y-13239500D01*
X53952808Y-13239500D01*
X53937403Y-13241118D01*
X53930933Y-13241798D01*
X53927702Y-13242052D01*
X53858356Y-13245687D01*
X53844809Y-13249317D01*
X53825686Y-13252860D01*
X53811745Y-13254325D01*
X53811743Y-13254325D01*
X53745702Y-13275784D01*
X53742590Y-13276705D01*
X53675517Y-13294677D01*
X53675503Y-13294683D01*
X53663022Y-13301043D01*
X53645049Y-13308488D01*
X53631715Y-13312820D01*
X53571592Y-13347533D01*
X53568740Y-13349082D01*
X53506853Y-13380616D01*
X53506837Y-13380626D01*
X53495948Y-13389444D01*
X53479923Y-13400458D01*
X53467785Y-13407466D01*
X53467781Y-13407469D01*
X53416172Y-13453936D01*
X53413710Y-13456039D01*
X53396627Y-13469875D01*
X53396610Y-13469890D01*
X53381065Y-13485435D01*
X53378713Y-13487666D01*
X53327114Y-13534126D01*
X53318869Y-13545474D01*
X53306236Y-13560263D01*
X51737181Y-15129319D01*
X51675858Y-15162804D01*
X51606166Y-15157820D01*
X51550233Y-15115948D01*
X51525816Y-15050484D01*
X51525500Y-15041638D01*
X51525500Y-11258983D01*
X51527660Y-11195755D01*
X51526536Y-11191144D01*
X51517691Y-11154848D01*
X51516506Y-11148618D01*
X51510771Y-11106889D01*
X51504137Y-11091616D01*
X51497397Y-11071574D01*
X51493457Y-11055407D01*
X51493455Y-11055403D01*
X51472822Y-11018706D01*
X51469996Y-11013017D01*
X51453219Y-10974391D01*
X51453217Y-10974388D01*
X51442713Y-10961477D01*
X51430812Y-10943990D01*
X51422660Y-10929491D01*
X51422658Y-10929488D01*
X51392882Y-10899712D01*
X51388626Y-10894996D01*
X51384609Y-10890059D01*
X51362054Y-10862335D01*
X51362050Y-10862332D01*
X51362045Y-10862328D01*
X51348453Y-10852733D01*
X51332281Y-10839111D01*
X50417940Y-9924771D01*
X50417940Y-9924770D01*
X50374755Y-9878531D01*
X50374752Y-9878529D01*
X50374750Y-9878527D01*
X50338775Y-9856651D01*
X50333529Y-9853081D01*
X50318462Y-9841655D01*
X50299976Y-9827636D01*
X50291406Y-9824256D01*
X50284485Y-9821527D01*
X50265553Y-9812124D01*
X50251329Y-9803474D01*
X50210785Y-9792113D01*
X50204766Y-9790089D01*
X50171025Y-9776784D01*
X50165589Y-9774641D01*
X50165586Y-9774640D01*
X50165584Y-9774640D01*
X50150726Y-9773112D01*
X50096746Y-9754316D01*
X49969215Y-9672996D01*
X49958079Y-9664055D01*
X49957705Y-9664525D01*
X49952262Y-9660184D01*
X49799522Y-9564211D01*
X49799517Y-9564209D01*
X49799512Y-9564207D01*
X49761644Y-9550955D01*
X49758041Y-9549567D01*
X49739228Y-9541637D01*
X49732084Y-9539589D01*
X49732095Y-9539547D01*
X49721031Y-9536745D01*
X49629262Y-9504633D01*
X49629249Y-9504630D01*
X49450004Y-9484435D01*
X49449996Y-9484435D01*
X49270750Y-9504630D01*
X49270745Y-9504631D01*
X49100476Y-9564211D01*
X48947737Y-9660184D01*
X48820184Y-9787737D01*
X48724211Y-9940476D01*
X48664631Y-10110745D01*
X48664630Y-10110750D01*
X48644435Y-10289996D01*
X48644435Y-10290003D01*
X48664630Y-10469249D01*
X48664631Y-10469254D01*
X48724211Y-10639523D01*
X48820183Y-10792262D01*
X48820184Y-10792262D01*
X48947738Y-10919816D01*
X49014041Y-10961477D01*
X49071619Y-10997656D01*
X49100478Y-11015789D01*
X49213697Y-11055406D01*
X49270745Y-11075368D01*
X49270750Y-11075369D01*
X49449996Y-11095565D01*
X49450000Y-11095565D01*
X49450004Y-11095565D01*
X49629247Y-11075369D01*
X49629250Y-11075368D01*
X49629255Y-11075368D01*
X49686687Y-11055270D01*
X49714799Y-11048978D01*
X49717545Y-11048693D01*
X49915221Y-10995927D01*
X49985069Y-10997656D01*
X50034882Y-11028051D01*
X50438181Y-11431350D01*
X50471666Y-11492673D01*
X50474500Y-11519031D01*
X50474500Y-28880032D01*
X50466489Y-28923878D01*
X50255145Y-29482959D01*
X50247026Y-29506617D01*
X50245927Y-29514271D01*
X50240229Y-29537589D01*
X50214632Y-29610742D01*
X50214630Y-29610749D01*
X50204462Y-29700998D01*
X50200829Y-29719900D01*
X50199921Y-29723209D01*
X50122056Y-30129824D01*
X50090114Y-30191965D01*
X50087950Y-30194183D01*
X46995628Y-33286506D01*
X46934305Y-33319991D01*
X46864613Y-33315007D01*
X46808680Y-33273135D01*
X46784263Y-33207671D01*
X46784727Y-33184941D01*
X46785369Y-33179249D01*
X46805565Y-33000000D01*
X46805565Y-32999996D01*
X46785369Y-32820748D01*
X46752314Y-32726284D01*
X46750122Y-32718378D01*
X46744854Y-32692959D01*
X46533511Y-32133878D01*
X46525500Y-32090032D01*
X46525500Y-27159966D01*
X46533511Y-27116120D01*
X46697608Y-26682024D01*
X46744855Y-26557039D01*
X46752973Y-26533381D01*
X46754070Y-26525736D01*
X46759767Y-26502413D01*
X46785368Y-26429255D01*
X46802837Y-26274211D01*
X46805565Y-26250003D01*
X46805565Y-26249996D01*
X46785369Y-26070750D01*
X46785368Y-26070745D01*
X46725789Y-25900478D01*
X46629816Y-25747738D01*
X46502262Y-25620184D01*
X46412512Y-25563790D01*
X46349523Y-25524211D01*
X46179254Y-25464631D01*
X46179249Y-25464630D01*
X46000004Y-25444435D01*
X45999996Y-25444435D01*
X45820750Y-25464630D01*
X45820745Y-25464631D01*
X45650476Y-25524211D01*
X45497737Y-25620184D01*
X45370184Y-25747737D01*
X45274211Y-25900476D01*
X45214631Y-26070745D01*
X45214630Y-26070750D01*
X45194435Y-26249996D01*
X45194435Y-26250003D01*
X45214631Y-26429252D01*
X45247685Y-26523718D01*
X45249876Y-26531620D01*
X45255143Y-26557034D01*
X45255146Y-26557046D01*
X45354831Y-26820745D01*
X45422593Y-27000000D01*
X45466489Y-27116118D01*
X45474500Y-27159965D01*
X45474500Y-32090032D01*
X45466489Y-32133878D01*
X45255145Y-32692959D01*
X45247026Y-32716617D01*
X45245927Y-32724271D01*
X45240229Y-32747589D01*
X45214631Y-32820745D01*
X45214631Y-32820746D01*
X45194435Y-32999996D01*
X45194435Y-33000003D01*
X45214630Y-33179249D01*
X45214631Y-33179254D01*
X45274211Y-33349523D01*
X45331327Y-33440422D01*
X45370184Y-33502262D01*
X45497738Y-33629816D01*
X45650478Y-33725789D01*
X45818913Y-33784727D01*
X45820745Y-33785368D01*
X45820750Y-33785369D01*
X45999996Y-33805565D01*
X46000000Y-33805565D01*
X46000003Y-33805565D01*
X46091176Y-33795291D01*
X46179255Y-33785368D01*
X46179256Y-33785367D01*
X46184941Y-33784727D01*
X46253763Y-33796781D01*
X46305143Y-33844130D01*
X46322767Y-33911741D01*
X46301041Y-33978146D01*
X46286506Y-33995628D01*
X45143334Y-35138802D01*
X45082011Y-35172287D01*
X45055653Y-35175121D01*
X39058363Y-35175121D01*
X38995134Y-35172961D01*
X38995133Y-35172961D01*
X38995131Y-35172961D01*
X38954227Y-35182929D01*
X38947989Y-35184114D01*
X38906266Y-35189850D01*
X38890990Y-35196485D01*
X38870964Y-35203220D01*
X38854786Y-35207163D01*
X38854780Y-35207166D01*
X38818087Y-35227797D01*
X38812400Y-35230621D01*
X38773772Y-35247400D01*
X38773768Y-35247402D01*
X38760852Y-35257910D01*
X38743382Y-35269801D01*
X38728867Y-35277963D01*
X38699089Y-35307740D01*
X38694375Y-35311994D01*
X38661715Y-35338565D01*
X38652114Y-35352166D01*
X38638493Y-35368335D01*
X38064060Y-35942769D01*
X38021087Y-35970748D01*
X37132781Y-36314123D01*
X37130063Y-36315216D01*
X37123911Y-36318007D01*
X37116304Y-36320872D01*
X37115273Y-36321184D01*
X37115270Y-36321186D01*
X37107853Y-36325150D01*
X37104252Y-36326927D01*
X37097763Y-36329871D01*
X37097735Y-36329887D01*
X37097594Y-36329990D01*
X37090466Y-36334445D01*
X36941467Y-36414086D01*
X36941460Y-36414090D01*
X36789116Y-36539116D01*
X36664090Y-36691460D01*
X36664086Y-36691467D01*
X36571188Y-36865266D01*
X36513975Y-37053870D01*
X36494659Y-37250000D01*
X36513975Y-37446129D01*
X36513976Y-37446132D01*
X36557412Y-37589322D01*
X36571188Y-37634733D01*
X36664086Y-37808532D01*
X36664090Y-37808539D01*
X36789116Y-37960883D01*
X36941460Y-38085909D01*
X36941467Y-38085913D01*
X37115266Y-38178811D01*
X37115269Y-38178811D01*
X37115273Y-38178814D01*
X37303868Y-38236024D01*
X37440416Y-38249472D01*
X37505203Y-38275632D01*
X37545562Y-38332667D01*
X37548679Y-38402467D01*
X37515943Y-38460556D01*
X34670263Y-41306236D01*
X34655474Y-41318869D01*
X34644126Y-41327114D01*
X34597666Y-41378713D01*
X34595435Y-41381065D01*
X34579890Y-41396610D01*
X34579875Y-41396627D01*
X34566039Y-41413710D01*
X34563936Y-41416172D01*
X34517469Y-41467781D01*
X34513652Y-41473036D01*
X34511810Y-41471698D01*
X34468808Y-41512710D01*
X34411977Y-41526500D01*
X28124000Y-41526500D01*
X28123991Y-41526500D01*
X28123990Y-41526501D01*
X28014848Y-41538235D01*
X28014836Y-41538237D01*
X27963326Y-41549443D01*
X27859179Y-41584106D01*
X27859173Y-41584109D01*
X27736218Y-41663128D01*
X27736211Y-41663134D01*
X27683418Y-41708879D01*
X27683415Y-41708882D01*
X27587705Y-41819335D01*
X27587701Y-41819341D01*
X27526987Y-41952283D01*
X27507302Y-42019321D01*
X27507300Y-42019326D01*
X27501728Y-42058082D01*
X27486500Y-42164000D01*
X27486500Y-48666000D01*
X27490142Y-48699879D01*
X27498235Y-48775146D01*
X27498237Y-48775163D01*
X27509443Y-48826673D01*
X27544106Y-48930820D01*
X27544109Y-48930826D01*
X27623128Y-49053781D01*
X27623134Y-49053788D01*
X27668879Y-49106581D01*
X27668882Y-49106584D01*
X27668884Y-49106586D01*
X27709108Y-49141441D01*
X27779335Y-49202294D01*
X27779341Y-49202298D01*
X27805676Y-49214325D01*
X27912287Y-49263014D01*
X27955059Y-49275573D01*
X27979321Y-49282698D01*
X27979326Y-49282699D01*
X27979330Y-49282700D01*
X28124000Y-49303500D01*
X28124003Y-49303500D01*
X29597492Y-49303500D01*
X29681860Y-49296519D01*
X29681592Y-49296553D01*
X29750555Y-49307770D01*
X29802506Y-49354491D01*
X29820951Y-49421882D01*
X29818848Y-49442447D01*
X29636375Y-50415639D01*
X29604673Y-50477902D01*
X29544342Y-50513142D01*
X29474535Y-50510171D01*
X29417417Y-50469930D01*
X29391122Y-50405197D01*
X29390499Y-50392787D01*
X29390499Y-50218482D01*
X29387356Y-50198636D01*
X29375646Y-50124696D01*
X29318050Y-50011658D01*
X29318046Y-50011654D01*
X29318045Y-50011652D01*
X29228347Y-49921954D01*
X29228344Y-49921952D01*
X29228342Y-49921950D01*
X29151517Y-49882805D01*
X29115301Y-49864352D01*
X29021524Y-49849500D01*
X27358482Y-49849500D01*
X27277519Y-49862323D01*
X27264696Y-49864354D01*
X27151658Y-49921950D01*
X27151656Y-49921951D01*
X27151657Y-49921951D01*
X27151652Y-49921954D01*
X27061954Y-50011652D01*
X27061951Y-50011657D01*
X27004352Y-50124698D01*
X26989500Y-50218475D01*
X26989500Y-51881517D01*
X24344681Y-51881517D01*
X24838893Y-51387304D01*
X24838894Y-51387304D01*
X24839149Y-51387013D01*
X24861064Y-51362025D01*
X24901234Y-51309678D01*
X24901234Y-51309679D01*
X24919915Y-51281722D01*
X24922151Y-51277849D01*
X24937391Y-51256869D01*
X24975523Y-51214519D01*
X24994778Y-51197180D01*
X25087558Y-51129772D01*
X25103400Y-51117283D01*
X25133529Y-51091549D01*
X25148333Y-51077864D01*
X25248086Y-50978111D01*
X25586499Y-50639698D01*
X25604878Y-50619237D01*
X25604878Y-50619238D01*
X25630137Y-50587893D01*
X25630137Y-50587894D01*
X25631172Y-50586457D01*
X25662297Y-50543298D01*
X25723013Y-50410349D01*
X25742698Y-50343309D01*
X25742698Y-50343307D01*
X25763499Y-50198638D01*
X25763500Y-49374001D01*
X25751764Y-49264843D01*
X25740558Y-49213332D01*
X25740453Y-49213017D01*
X25705893Y-49109179D01*
X25705890Y-49109173D01*
X25626871Y-48986218D01*
X25626865Y-48986211D01*
X25581120Y-48933418D01*
X25581117Y-48933415D01*
X25470664Y-48837705D01*
X25470658Y-48837701D01*
X25337716Y-48776987D01*
X25331504Y-48775163D01*
X25324121Y-48772995D01*
X25270679Y-48757302D01*
X25270673Y-48757300D01*
X25183868Y-48744820D01*
X25126000Y-48736500D01*
X25125998Y-48736500D01*
X23387500Y-48736500D01*
X23320461Y-48716815D01*
X23274706Y-48664011D01*
X23263500Y-48612500D01*
X23263500Y-43537613D01*
X23262027Y-43510132D01*
X23259916Y-43490499D01*
X23257723Y-43470111D01*
X23257724Y-43470112D01*
X23248932Y-43415855D01*
X23248931Y-43415851D01*
X23248931Y-43415850D01*
X23197854Y-43278909D01*
X23164369Y-43217586D01*
X23162659Y-43215301D01*
X23076781Y-43100583D01*
X23076770Y-43100571D01*
X22639695Y-42663495D01*
X22639695Y-42663496D01*
X22639693Y-42663494D01*
X22619229Y-42645113D01*
X22619222Y-42645107D01*
X22619221Y-42645106D01*
X22587881Y-42619851D01*
X22587882Y-42619851D01*
X22543300Y-42587703D01*
X22410354Y-42526987D01*
X22343317Y-42507302D01*
X22343311Y-42507300D01*
X22256505Y-42494820D01*
X22198638Y-42486500D01*
X22198636Y-42486500D01*
X21693020Y-42486500D01*
X21625981Y-42466815D01*
X21624237Y-42465674D01*
X21318717Y-42261993D01*
X21273856Y-42208428D01*
X21263500Y-42158819D01*
X21263500Y-41037613D01*
X21262027Y-41010132D01*
X21259049Y-40982441D01*
X21257723Y-40970111D01*
X21257724Y-40970112D01*
X21248932Y-40915855D01*
X21248931Y-40915851D01*
X21238543Y-40888000D01*
X21197854Y-40778909D01*
X21164369Y-40717586D01*
X21147425Y-40694951D01*
X21076781Y-40600583D01*
X21076770Y-40600571D01*
X20389695Y-39913495D01*
X20389695Y-39913496D01*
X20389693Y-39913494D01*
X20369229Y-39895113D01*
X20369222Y-39895107D01*
X20369221Y-39895106D01*
X20337881Y-39869851D01*
X20337882Y-39869851D01*
X20293300Y-39837703D01*
X20160354Y-39776987D01*
X20093317Y-39757302D01*
X20093311Y-39757300D01*
X20006506Y-39744820D01*
X19948638Y-39736500D01*
X17537609Y-39736500D01*
X17510142Y-39737972D01*
X17510133Y-39737972D01*
X17510132Y-39737973D01*
X17499747Y-39739089D01*
X17470111Y-39742276D01*
X17470112Y-39742276D01*
X17415855Y-39751067D01*
X17415851Y-39751068D01*
X17278903Y-39802148D01*
X17217591Y-39835627D01*
X17217583Y-39835632D01*
X17100589Y-39923212D01*
X17100571Y-39923228D01*
X16696162Y-40327638D01*
X16566304Y-40457496D01*
X16556633Y-40467713D01*
X16542900Y-40483039D01*
X16524737Y-40504460D01*
X16450458Y-40630335D01*
X16423875Y-40694948D01*
X16423874Y-40694951D01*
X16406445Y-40763925D01*
X16391705Y-40822255D01*
X16390559Y-40826226D01*
X16366864Y-40899151D01*
X16356321Y-40922831D01*
X16321908Y-40982436D01*
X16321905Y-40982441D01*
X16270611Y-41106276D01*
X16270609Y-41106283D01*
X16253996Y-41168281D01*
X16236500Y-41301184D01*
X16236500Y-44892230D01*
X16216815Y-44959269D01*
X16164011Y-45005024D01*
X16094853Y-45014968D01*
X16031297Y-44985943D01*
X16027062Y-44981813D01*
X15858641Y-44828278D01*
X15732380Y-44750099D01*
X15732380Y-46829900D01*
X14532379Y-46829900D01*
X14532380Y-46829899D01*
X14532380Y-46390000D01*
X14090606Y-46390000D01*
X12342865Y-46390000D01*
X12381242Y-46313884D01*
X12451024Y-46086020D01*
X12456918Y-46040000D01*
X10936829Y-46040000D01*
X10977500Y-45874995D01*
X10977500Y-45790000D01*
X14727394Y-45790000D01*
X14747215Y-45915148D01*
X14804739Y-46028045D01*
X14894335Y-46117641D01*
X15007232Y-46175165D01*
X15100899Y-46190000D01*
X15163861Y-46190000D01*
X15257528Y-46175165D01*
X15370425Y-46117641D01*
X15460021Y-46028045D01*
X15517545Y-45915148D01*
X15537366Y-45790000D01*
X15517545Y-45664852D01*
X15460021Y-45551955D01*
X15370425Y-45462359D01*
X15257528Y-45404835D01*
X15163861Y-45390000D01*
X15100899Y-45390000D01*
X15007232Y-45404835D01*
X14894335Y-45462359D01*
X14804739Y-45551955D01*
X14747215Y-45664852D01*
X14727394Y-45790000D01*
X10977500Y-45790000D01*
X10977500Y-45705005D01*
X10936829Y-45540000D01*
X12455766Y-45540000D01*
X12455765Y-45539999D01*
X12420974Y-45378566D01*
X12345201Y-45190000D01*
X14090606Y-45190000D01*
X14532380Y-45190000D01*
X14532380Y-44750099D01*
X14406118Y-44828278D01*
X14241771Y-44978099D01*
X14107749Y-45155572D01*
X14090606Y-45190000D01*
X12345201Y-45190000D01*
X12332116Y-45157437D01*
X12207166Y-44954505D01*
X12049719Y-44775610D01*
X12049713Y-44775603D01*
X11864305Y-44625897D01*
X11864295Y-44625890D01*
X11656251Y-44509668D01*
X11431552Y-44430277D01*
X11431538Y-44430273D01*
X11196667Y-44390000D01*
X10527500Y-44390000D01*
X10527500Y-45136162D01*
X10446251Y-45105349D01*
X10319840Y-45090000D01*
X10235160Y-45090000D01*
X10108749Y-45105349D01*
X10027500Y-45136162D01*
X10027500Y-44390000D01*
X9418022Y-44390000D01*
X9240049Y-44405147D01*
X9240046Y-44405148D01*
X9009421Y-44465197D01*
X8792258Y-44563360D01*
X8792255Y-44563362D01*
X8594811Y-44696812D01*
X8594809Y-44696814D01*
X8422763Y-44861706D01*
X8281049Y-45053316D01*
X8173757Y-45266115D01*
X8103975Y-45493979D01*
X8098082Y-45540000D01*
X25500Y-45540000D01*
X25500Y-41605696D01*
X8077000Y-41605696D01*
X8079901Y-41642567D01*
X8079902Y-41642573D01*
X8125754Y-41800393D01*
X8125755Y-41800396D01*
X8209417Y-41941862D01*
X8209423Y-41941870D01*
X8325629Y-42058076D01*
X8325633Y-42058079D01*
X8325635Y-42058081D01*
X8467102Y-42141744D01*
X8508724Y-42153836D01*
X8624926Y-42187597D01*
X8624929Y-42187597D01*
X8624931Y-42187598D01*
X8637222Y-42188565D01*
X8661804Y-42190500D01*
X8661806Y-42190500D01*
X11893196Y-42190500D01*
X11911631Y-42189049D01*
X11930069Y-42187598D01*
X11930071Y-42187597D01*
X11930073Y-42187597D01*
X11971691Y-42175505D01*
X12087898Y-42141744D01*
X12229365Y-42058081D01*
X12345581Y-41941865D01*
X12429244Y-41800398D01*
X12475098Y-41642569D01*
X12478000Y-41605694D01*
X12478000Y-39974306D01*
X12475098Y-39937431D01*
X12469445Y-39917975D01*
X12429245Y-39779606D01*
X12429244Y-39779603D01*
X12429244Y-39779602D01*
X12345581Y-39638135D01*
X12345579Y-39638133D01*
X12345576Y-39638129D01*
X12229370Y-39521923D01*
X12229362Y-39521917D01*
X12087896Y-39438255D01*
X12087893Y-39438254D01*
X11930073Y-39392402D01*
X11930067Y-39392401D01*
X11893196Y-39389500D01*
X11893194Y-39389500D01*
X8661806Y-39389500D01*
X8661804Y-39389500D01*
X8624932Y-39392401D01*
X8624926Y-39392402D01*
X8467106Y-39438254D01*
X8467103Y-39438255D01*
X8325637Y-39521917D01*
X8325629Y-39521923D01*
X8209423Y-39638129D01*
X8209417Y-39638137D01*
X8125755Y-39779603D01*
X8125754Y-39779606D01*
X8079902Y-39937426D01*
X8079901Y-39937432D01*
X8077000Y-39974304D01*
X8077000Y-41605696D01*
X25500Y-41605696D01*
X25500Y-37124000D01*
X45185Y-37056961D01*
X97989Y-37011206D01*
X149500Y-37000000D01*
X5250000Y-37000000D01*
X6079690Y-36170309D01*
X6141009Y-36136827D01*
X6210700Y-36141811D01*
X6263220Y-36179328D01*
X6289116Y-36210883D01*
X6441460Y-36335909D01*
X6441467Y-36335913D01*
X6615266Y-36428811D01*
X6615269Y-36428811D01*
X6615273Y-36428814D01*
X6803868Y-36486024D01*
X7000000Y-36505341D01*
X7196132Y-36486024D01*
X7384727Y-36428814D01*
X7558538Y-36335910D01*
X7710883Y-36210883D01*
X7835910Y-36058538D01*
X7925470Y-35890984D01*
X7928811Y-35884733D01*
X7928811Y-35884732D01*
X7928814Y-35884727D01*
X7986024Y-35696132D01*
X8005341Y-35500000D01*
X8003118Y-35477440D01*
X8002862Y-35456127D01*
X8003044Y-35453674D01*
X7904993Y-34277053D01*
X7903468Y-34262104D01*
X7903467Y-34262101D01*
X7902719Y-34258199D01*
X7900500Y-34234845D01*
X7900500Y-33500003D01*
X20194435Y-33500003D01*
X20214630Y-33679249D01*
X20214631Y-33679254D01*
X20274211Y-33849523D01*
X20355031Y-33978146D01*
X20370184Y-34002262D01*
X20497738Y-34129816D01*
X20650478Y-34225789D01*
X20796979Y-34277052D01*
X20820745Y-34285368D01*
X20820750Y-34285369D01*
X20999996Y-34305565D01*
X21000000Y-34305565D01*
X21000004Y-34305565D01*
X21179249Y-34285369D01*
X21179252Y-34285368D01*
X21179255Y-34285368D01*
X21349522Y-34225789D01*
X21502262Y-34129816D01*
X21629816Y-34002262D01*
X21725789Y-33849522D01*
X21785368Y-33679255D01*
X21785369Y-33679249D01*
X21805565Y-33500003D01*
X21805565Y-33499996D01*
X21785369Y-33320748D01*
X21752314Y-33226284D01*
X21750122Y-33218378D01*
X21744854Y-33192959D01*
X21533511Y-32633878D01*
X21525500Y-32590032D01*
X21525500Y-29458833D01*
X31345624Y-29458833D01*
X31355944Y-29622860D01*
X31406732Y-29779171D01*
X31406734Y-29779175D01*
X31494798Y-29917940D01*
X31614603Y-30030445D01*
X31614611Y-30030451D01*
X31694860Y-30074568D01*
X31758632Y-30109627D01*
X31917823Y-30150500D01*
X31917827Y-30150500D01*
X32040923Y-30150500D01*
X32040925Y-30150500D01*
X32040930Y-30150499D01*
X32040934Y-30150499D01*
X32054174Y-30148826D01*
X32163058Y-30135071D01*
X32315871Y-30074568D01*
X32315878Y-30074563D01*
X32448835Y-29977965D01*
X32448835Y-29977963D01*
X32448837Y-29977963D01*
X32553600Y-29851326D01*
X32623579Y-29702613D01*
X32654376Y-29541170D01*
X32649196Y-29458833D01*
X36345624Y-29458833D01*
X36355944Y-29622860D01*
X36406732Y-29779171D01*
X36406734Y-29779175D01*
X36494798Y-29917940D01*
X36614603Y-30030445D01*
X36614611Y-30030451D01*
X36694860Y-30074568D01*
X36758632Y-30109627D01*
X36917823Y-30150500D01*
X36917827Y-30150500D01*
X37040923Y-30150500D01*
X37040925Y-30150500D01*
X37040930Y-30150499D01*
X37040934Y-30150499D01*
X37054174Y-30148826D01*
X37163058Y-30135071D01*
X37315871Y-30074568D01*
X37315878Y-30074563D01*
X37448835Y-29977965D01*
X37448835Y-29977963D01*
X37448837Y-29977963D01*
X37553600Y-29851326D01*
X37623579Y-29702613D01*
X37654376Y-29541170D01*
X37644056Y-29377140D01*
X37593268Y-29220829D01*
X37505202Y-29082060D01*
X37441281Y-29022034D01*
X37385396Y-28969554D01*
X37385388Y-28969548D01*
X37241371Y-28890374D01*
X37241361Y-28890371D01*
X37082180Y-28849500D01*
X37082177Y-28849500D01*
X36959075Y-28849500D01*
X36959065Y-28849500D01*
X36836942Y-28864929D01*
X36836939Y-28864929D01*
X36684130Y-28925431D01*
X36684121Y-28925436D01*
X36551164Y-29022034D01*
X36551162Y-29022037D01*
X36446400Y-29148673D01*
X36376420Y-29297387D01*
X36363472Y-29365266D01*
X36345624Y-29458830D01*
X36345624Y-29458832D01*
X36345624Y-29458833D01*
X32649196Y-29458833D01*
X32644056Y-29377140D01*
X32593268Y-29220829D01*
X32505202Y-29082060D01*
X32441281Y-29022034D01*
X32385396Y-28969554D01*
X32385388Y-28969548D01*
X32241371Y-28890374D01*
X32241361Y-28890371D01*
X32082180Y-28849500D01*
X32082177Y-28849500D01*
X31959075Y-28849500D01*
X31959065Y-28849500D01*
X31836942Y-28864929D01*
X31836939Y-28864929D01*
X31684130Y-28925431D01*
X31684121Y-28925436D01*
X31551164Y-29022034D01*
X31551162Y-29022037D01*
X31446400Y-29148673D01*
X31376420Y-29297387D01*
X31363472Y-29365266D01*
X31345624Y-29458830D01*
X31345624Y-29458832D01*
X31345624Y-29458833D01*
X21525500Y-29458833D01*
X21525500Y-27000003D01*
X33944435Y-27000003D01*
X33964630Y-27179249D01*
X33964631Y-27179254D01*
X34024211Y-27349523D01*
X34120183Y-27502261D01*
X34120184Y-27502262D01*
X34247738Y-27629816D01*
X34400478Y-27725789D01*
X34486205Y-27755786D01*
X34570745Y-27785368D01*
X34570750Y-27785369D01*
X34749996Y-27805565D01*
X34750000Y-27805565D01*
X34750004Y-27805565D01*
X34929249Y-27785369D01*
X34929250Y-27785368D01*
X34929255Y-27785368D01*
X35023728Y-27752309D01*
X35031619Y-27750121D01*
X35057040Y-27744854D01*
X35616117Y-27533510D01*
X35659963Y-27525500D01*
X38340037Y-27525500D01*
X38383882Y-27533510D01*
X38942959Y-27744854D01*
X38966618Y-27752973D01*
X38967943Y-27753163D01*
X38974265Y-27754072D01*
X38997589Y-27759770D01*
X39016260Y-27766303D01*
X39070745Y-27785368D01*
X39130496Y-27792100D01*
X39249996Y-27805565D01*
X39250000Y-27805565D01*
X39250004Y-27805565D01*
X39429249Y-27785369D01*
X39429252Y-27785368D01*
X39429255Y-27785368D01*
X39599522Y-27725789D01*
X39752262Y-27629816D01*
X39879816Y-27502262D01*
X39975789Y-27349522D01*
X40035368Y-27179255D01*
X40035369Y-27179249D01*
X40055565Y-27000003D01*
X40055565Y-26999996D01*
X40035369Y-26820750D01*
X40035368Y-26820745D01*
X39975788Y-26650476D01*
X39917074Y-26557034D01*
X39879816Y-26497738D01*
X39752262Y-26370184D01*
X39599523Y-26274211D01*
X39429254Y-26214631D01*
X39429249Y-26214630D01*
X39250004Y-26194435D01*
X39249996Y-26194435D01*
X39070746Y-26214631D01*
X39070745Y-26214631D01*
X38976277Y-26247686D01*
X38968375Y-26249877D01*
X38942967Y-26255143D01*
X38942949Y-26255148D01*
X38383880Y-26466489D01*
X38340034Y-26474500D01*
X35659965Y-26474500D01*
X35616119Y-26466489D01*
X35074076Y-26261585D01*
X35057034Y-26255143D01*
X35033374Y-26247024D01*
X35033375Y-26247024D01*
X35025727Y-26245926D01*
X35002409Y-26240229D01*
X34929252Y-26214631D01*
X34750004Y-26194435D01*
X34749996Y-26194435D01*
X34570750Y-26214630D01*
X34570745Y-26214631D01*
X34400476Y-26274211D01*
X34247737Y-26370184D01*
X34120184Y-26497737D01*
X34024211Y-26650476D01*
X33964631Y-26820745D01*
X33964630Y-26820750D01*
X33944435Y-26999996D01*
X33944435Y-27000003D01*
X21525500Y-27000003D01*
X21525500Y-16159966D01*
X21533511Y-16116120D01*
X21671699Y-15750562D01*
X21744855Y-15557039D01*
X21752973Y-15533381D01*
X21754070Y-15525736D01*
X21759767Y-15502413D01*
X21785368Y-15429255D01*
X21791072Y-15378632D01*
X21805565Y-15250003D01*
X21805565Y-15249996D01*
X21785369Y-15070750D01*
X21785368Y-15070745D01*
X21725788Y-14900476D01*
X21629815Y-14747737D01*
X21502262Y-14620184D01*
X21349523Y-14524211D01*
X21179254Y-14464631D01*
X21179249Y-14464630D01*
X21000004Y-14444435D01*
X20999996Y-14444435D01*
X20820750Y-14464630D01*
X20820745Y-14464631D01*
X20650476Y-14524211D01*
X20497737Y-14620184D01*
X20370184Y-14747737D01*
X20274211Y-14900476D01*
X20214631Y-15070745D01*
X20214630Y-15070750D01*
X20194435Y-15249996D01*
X20194435Y-15250003D01*
X20214631Y-15429252D01*
X20247685Y-15523718D01*
X20249876Y-15531620D01*
X20255143Y-15557034D01*
X20255146Y-15557046D01*
X20466489Y-16116118D01*
X20474500Y-16159965D01*
X20474500Y-32590032D01*
X20466489Y-32633878D01*
X20255145Y-33192959D01*
X20247026Y-33216617D01*
X20245927Y-33224271D01*
X20240229Y-33247589D01*
X20214631Y-33320745D01*
X20214631Y-33320746D01*
X20194435Y-33499996D01*
X20194435Y-33500003D01*
X7900500Y-33500003D01*
X7900500Y-13756253D01*
X7904061Y-13726750D01*
X7904993Y-13722947D01*
X8003738Y-12538001D01*
X8004128Y-12528702D01*
X8003946Y-12518363D01*
X8004235Y-12511220D01*
X8005341Y-12500000D01*
X7986024Y-12303868D01*
X7928814Y-12115273D01*
X7928811Y-12115269D01*
X7928811Y-12115266D01*
X7835913Y-11941467D01*
X7835909Y-11941460D01*
X7710883Y-11789116D01*
X7558539Y-11664090D01*
X7558532Y-11664086D01*
X7384733Y-11571188D01*
X7384727Y-11571186D01*
X7196132Y-11513976D01*
X7196129Y-11513975D01*
X7000000Y-11494659D01*
X6803870Y-11513975D01*
X6615266Y-11571188D01*
X6441467Y-11664086D01*
X6441460Y-11664090D01*
X6289116Y-11789116D01*
X6164090Y-11941460D01*
X6164085Y-11941467D01*
X6078275Y-12102008D01*
X6029313Y-12151853D01*
X5961175Y-12167313D01*
X5895495Y-12143481D01*
X5881236Y-12131236D01*
X5250000Y-11500000D01*
X149500Y-11500000D01*
X82461Y-11480315D01*
X36706Y-11427511D01*
X25500Y-11376000D01*
X25500Y-8389910D01*
X45185Y-8322871D01*
X97989Y-8277116D01*
X167147Y-8267172D01*
X230703Y-8296197D01*
X265782Y-8346845D01*
X297565Y-8432665D01*
X405149Y-8605267D01*
X545264Y-8752668D01*
X545266Y-8752669D01*
X712195Y-8868856D01*
X899092Y-8949059D01*
X1098310Y-8990000D01*
X1300000Y-8990000D01*
X1300000Y-8290000D01*
X1800000Y-8290000D01*
X1800000Y-8990000D01*
X1950713Y-8990000D01*
X2102338Y-8974581D01*
X2296381Y-8913700D01*
X2296391Y-8913695D01*
X2474215Y-8814994D01*
X2474216Y-8814994D01*
X2628530Y-8682521D01*
X2628531Y-8682520D01*
X2753018Y-8521695D01*
X2842588Y-8339093D01*
X2868246Y-8240000D01*
X2066111Y-8240000D01*
X2105610Y-8215543D01*
X2173201Y-8126038D01*
X2203895Y-8018160D01*
X2193546Y-7906479D01*
X2143552Y-7806078D01*
X2071069Y-7740000D01*
X2873366Y-7740000D01*
X2873068Y-7738053D01*
X2873066Y-7738047D01*
X2802437Y-7547342D01*
X2802434Y-7547335D01*
X2694850Y-7374732D01*
X2554735Y-7227331D01*
X2554733Y-7227330D01*
X2387804Y-7111143D01*
X2200907Y-7030940D01*
X2001690Y-6990000D01*
X3120180Y-6990000D01*
X3139416Y-7197603D01*
X3139417Y-7197605D01*
X3196472Y-7398133D01*
X3196478Y-7398148D01*
X3289406Y-7584771D01*
X3289409Y-7584776D01*
X3294684Y-7591760D01*
X3294685Y-7591760D01*
X3830195Y-7056250D01*
X3840762Y-7122969D01*
X3901882Y-7242923D01*
X3997077Y-7338118D01*
X4117031Y-7399238D01*
X4183747Y-7409804D01*
X3651151Y-7942399D01*
X3746394Y-8001372D01*
X3746396Y-8001373D01*
X3940802Y-8076686D01*
X3940812Y-8076689D01*
X4145756Y-8115000D01*
X4354244Y-8115000D01*
X4559187Y-8076689D01*
X4559197Y-8076686D01*
X4753603Y-8001373D01*
X4753607Y-8001371D01*
X4848846Y-7942400D01*
X4848846Y-7942399D01*
X4316252Y-7409804D01*
X4382969Y-7399238D01*
X4502923Y-7338118D01*
X4598118Y-7242923D01*
X4659238Y-7122969D01*
X4669804Y-7056252D01*
X5205313Y-7591761D01*
X5205313Y-7591760D01*
X5210593Y-7584771D01*
X5303521Y-7398148D01*
X5303527Y-7398133D01*
X5360582Y-7197605D01*
X5360583Y-7197603D01*
X5379820Y-6990000D01*
X5379820Y-6989999D01*
X5360583Y-6782396D01*
X5360582Y-6782394D01*
X5303527Y-6581866D01*
X5303521Y-6581851D01*
X5210593Y-6395227D01*
X5205313Y-6388238D01*
X4669804Y-6923747D01*
X4659238Y-6857031D01*
X4598118Y-6737077D01*
X4502923Y-6641882D01*
X4382969Y-6580762D01*
X4316251Y-6570195D01*
X4848847Y-6037599D01*
X4753602Y-5978626D01*
X4753601Y-5978625D01*
X4559197Y-5903313D01*
X4559187Y-5903310D01*
X4354244Y-5865000D01*
X4145756Y-5865000D01*
X3940812Y-5903310D01*
X3940811Y-5903310D01*
X3746398Y-5978625D01*
X3746392Y-5978629D01*
X3651152Y-6037598D01*
X3651151Y-6037599D01*
X4183748Y-6570195D01*
X4117031Y-6580762D01*
X3997077Y-6641882D01*
X3901882Y-6737077D01*
X3840762Y-6857031D01*
X3830195Y-6923748D01*
X3294685Y-6388237D01*
X3289412Y-6395219D01*
X3289404Y-6395232D01*
X3196478Y-6581851D01*
X3196472Y-6581866D01*
X3139417Y-6782394D01*
X3139416Y-6782396D01*
X3120180Y-6989999D01*
X3120180Y-6990000D01*
X2001690Y-6990000D01*
X1800000Y-6990000D01*
X1800000Y-7690000D01*
X1300000Y-7690000D01*
X1300000Y-6990000D01*
X1149287Y-6990000D01*
X997661Y-7005418D01*
X803618Y-7066299D01*
X803608Y-7066304D01*
X625784Y-7165005D01*
X625783Y-7165005D01*
X471469Y-7297478D01*
X471468Y-7297479D01*
X346981Y-7458304D01*
X260828Y-7633940D01*
X213631Y-7685459D01*
X146073Y-7703284D01*
X79603Y-7681754D01*
X35325Y-7627706D01*
X25500Y-7579331D01*
X25500Y-1389910D01*
X45185Y-1322871D01*
X97989Y-1277116D01*
X167147Y-1267172D01*
X230703Y-1296197D01*
X265782Y-1346845D01*
X297565Y-1432665D01*
X405149Y-1605267D01*
X545264Y-1752668D01*
X545266Y-1752669D01*
X712195Y-1868856D01*
X899092Y-1949059D01*
X1098310Y-1990000D01*
X1300000Y-1990000D01*
X1300000Y-1290000D01*
X1800000Y-1290000D01*
X1800000Y-1990000D01*
X1950713Y-1990000D01*
X3120180Y-1990000D01*
X3139416Y-2197603D01*
X3139417Y-2197605D01*
X3196472Y-2398133D01*
X3196478Y-2398148D01*
X3289406Y-2584771D01*
X3289409Y-2584776D01*
X3294684Y-2591760D01*
X3294685Y-2591760D01*
X3830195Y-2056251D01*
X3840762Y-2122969D01*
X3901882Y-2242923D01*
X3997077Y-2338118D01*
X4117031Y-2399238D01*
X4183747Y-2409804D01*
X3651151Y-2942399D01*
X3746394Y-3001372D01*
X3746396Y-3001373D01*
X3940802Y-3076686D01*
X3940812Y-3076689D01*
X4145756Y-3115000D01*
X4354244Y-3115000D01*
X4559187Y-3076689D01*
X4559197Y-3076686D01*
X4753603Y-3001373D01*
X4753607Y-3001371D01*
X4848846Y-2942400D01*
X4848846Y-2942399D01*
X4764210Y-2857763D01*
X13635787Y-2857763D01*
X13665413Y-3127013D01*
X13665415Y-3127024D01*
X13708023Y-3290000D01*
X13733928Y-3389088D01*
X13839870Y-3638390D01*
X13980979Y-3869605D01*
X13980986Y-3869615D01*
X14154253Y-4077819D01*
X14154259Y-4077824D01*
X14355998Y-4258582D01*
X14581910Y-4408044D01*
X14827176Y-4523020D01*
X14827183Y-4523022D01*
X14827185Y-4523023D01*
X15086557Y-4601057D01*
X15086564Y-4601058D01*
X15086569Y-4601060D01*
X15354561Y-4640500D01*
X15354566Y-4640500D01*
X15557636Y-4640500D01*
X15609133Y-4636730D01*
X15760156Y-4625677D01*
X15872758Y-4600593D01*
X16024546Y-4566782D01*
X16024548Y-4566781D01*
X16024553Y-4566780D01*
X16277558Y-4470014D01*
X16513777Y-4337441D01*
X16728177Y-4171888D01*
X16916186Y-3976881D01*
X17073799Y-3756579D01*
X17153325Y-3601900D01*
X17197649Y-3515690D01*
X17197651Y-3515684D01*
X17197656Y-3515675D01*
X17285118Y-3259305D01*
X17334319Y-2992933D01*
X17341735Y-2790000D01*
X17844357Y-2790000D01*
X17864884Y-3011535D01*
X17864885Y-3011537D01*
X17925769Y-3225523D01*
X17925775Y-3225538D01*
X18024938Y-3424683D01*
X18024943Y-3424691D01*
X18159020Y-3602238D01*
X18323437Y-3752123D01*
X18323439Y-3752125D01*
X18512595Y-3869245D01*
X18512596Y-3869245D01*
X18512599Y-3869247D01*
X18720060Y-3949618D01*
X18938757Y-3990500D01*
X18938759Y-3990500D01*
X19161241Y-3990500D01*
X19161243Y-3990500D01*
X19379940Y-3949618D01*
X19587401Y-3869247D01*
X19776562Y-3752124D01*
X19940981Y-3602236D01*
X20075058Y-3424689D01*
X20174229Y-3225528D01*
X20200734Y-3132371D01*
X20238013Y-3073278D01*
X20301323Y-3043721D01*
X20370562Y-3053083D01*
X20423749Y-3098393D01*
X20439266Y-3132372D01*
X20465769Y-3225523D01*
X20465775Y-3225538D01*
X20564938Y-3424683D01*
X20564943Y-3424691D01*
X20699020Y-3602238D01*
X20863437Y-3752123D01*
X20863439Y-3752125D01*
X21052595Y-3869245D01*
X21052596Y-3869245D01*
X21052599Y-3869247D01*
X21260060Y-3949618D01*
X21478757Y-3990500D01*
X21478759Y-3990500D01*
X21701241Y-3990500D01*
X21701243Y-3990500D01*
X21919940Y-3949618D01*
X22127401Y-3869247D01*
X22316562Y-3752124D01*
X22480981Y-3602236D01*
X22615058Y-3424689D01*
X22714229Y-3225528D01*
X22740734Y-3132371D01*
X22778013Y-3073278D01*
X22841323Y-3043721D01*
X22910562Y-3053083D01*
X22963749Y-3098393D01*
X22979266Y-3132372D01*
X23005769Y-3225523D01*
X23005775Y-3225538D01*
X23104938Y-3424683D01*
X23104943Y-3424691D01*
X23239020Y-3602238D01*
X23403437Y-3752123D01*
X23403439Y-3752125D01*
X23592595Y-3869245D01*
X23592596Y-3869245D01*
X23592599Y-3869247D01*
X23800060Y-3949618D01*
X24018757Y-3990500D01*
X24018759Y-3990500D01*
X24241241Y-3990500D01*
X24241243Y-3990500D01*
X24459940Y-3949618D01*
X24667401Y-3869247D01*
X24856562Y-3752124D01*
X25020981Y-3602236D01*
X25155058Y-3424689D01*
X25254229Y-3225528D01*
X25280995Y-3131455D01*
X25318272Y-3072367D01*
X25381581Y-3042809D01*
X25450821Y-3052171D01*
X25504007Y-3097480D01*
X25519525Y-3131460D01*
X25546236Y-3225342D01*
X25546239Y-3225348D01*
X25645368Y-3424425D01*
X25779391Y-3601900D01*
X25943738Y-3751721D01*
X26132820Y-3868797D01*
X26132822Y-3868798D01*
X26340195Y-3949135D01*
X26420000Y-3964052D01*
X26420000Y-3225501D01*
X26527685Y-3274680D01*
X26634237Y-3290000D01*
X26705763Y-3290000D01*
X26812315Y-3274680D01*
X26920000Y-3225501D01*
X26920000Y-3964052D01*
X26999804Y-3949135D01*
X27207177Y-3868798D01*
X27207179Y-3868797D01*
X27396261Y-3751721D01*
X27560608Y-3601900D01*
X27694631Y-3424425D01*
X27793760Y-3225349D01*
X27820473Y-3131461D01*
X27857752Y-3072367D01*
X27921061Y-3042809D01*
X27990301Y-3052170D01*
X28043488Y-3097480D01*
X28059006Y-3131459D01*
X28085770Y-3225525D01*
X28085775Y-3225538D01*
X28184938Y-3424683D01*
X28184943Y-3424691D01*
X28319020Y-3602238D01*
X28483437Y-3752123D01*
X28483439Y-3752125D01*
X28672595Y-3869245D01*
X28672596Y-3869245D01*
X28672599Y-3869247D01*
X28880060Y-3949618D01*
X29098757Y-3990500D01*
X29098759Y-3990500D01*
X29321241Y-3990500D01*
X29321243Y-3990500D01*
X29539940Y-3949618D01*
X29747401Y-3869247D01*
X29936562Y-3752124D01*
X30100981Y-3602236D01*
X30235058Y-3424689D01*
X30334229Y-3225528D01*
X30360734Y-3132371D01*
X30398013Y-3073278D01*
X30461323Y-3043721D01*
X30530562Y-3053083D01*
X30583749Y-3098393D01*
X30599266Y-3132372D01*
X30625769Y-3225523D01*
X30625775Y-3225538D01*
X30724938Y-3424683D01*
X30724943Y-3424691D01*
X30859020Y-3602238D01*
X31023437Y-3752123D01*
X31023439Y-3752125D01*
X31212595Y-3869245D01*
X31212596Y-3869245D01*
X31212599Y-3869247D01*
X31420060Y-3949618D01*
X31638757Y-3990500D01*
X31638759Y-3990500D01*
X31861241Y-3990500D01*
X31861243Y-3990500D01*
X32079940Y-3949618D01*
X32287401Y-3869247D01*
X32476562Y-3752124D01*
X32640981Y-3602236D01*
X32775058Y-3424689D01*
X32874229Y-3225528D01*
X32900734Y-3132371D01*
X32938013Y-3073278D01*
X33001323Y-3043721D01*
X33070562Y-3053083D01*
X33123749Y-3098393D01*
X33139266Y-3132372D01*
X33165769Y-3225523D01*
X33165775Y-3225538D01*
X33264938Y-3424683D01*
X33264943Y-3424691D01*
X33399020Y-3602238D01*
X33563437Y-3752123D01*
X33563439Y-3752125D01*
X33752595Y-3869245D01*
X33752596Y-3869245D01*
X33752599Y-3869247D01*
X33960060Y-3949618D01*
X34178757Y-3990500D01*
X34178759Y-3990500D01*
X34401241Y-3990500D01*
X34401243Y-3990500D01*
X34619940Y-3949618D01*
X34827401Y-3869247D01*
X35016562Y-3752124D01*
X35180981Y-3602236D01*
X35315058Y-3424689D01*
X35414229Y-3225528D01*
X35440734Y-3132371D01*
X35478013Y-3073278D01*
X35541323Y-3043721D01*
X35610562Y-3053083D01*
X35663749Y-3098393D01*
X35679266Y-3132372D01*
X35705769Y-3225523D01*
X35705775Y-3225538D01*
X35804938Y-3424683D01*
X35804943Y-3424691D01*
X35939020Y-3602238D01*
X36103437Y-3752123D01*
X36103439Y-3752125D01*
X36292595Y-3869245D01*
X36292596Y-3869245D01*
X36292599Y-3869247D01*
X36500060Y-3949618D01*
X36718757Y-3990500D01*
X36718759Y-3990500D01*
X36941241Y-3990500D01*
X36941243Y-3990500D01*
X37159940Y-3949618D01*
X37367401Y-3869247D01*
X37556562Y-3752124D01*
X37720981Y-3602236D01*
X37855058Y-3424689D01*
X37954229Y-3225528D01*
X37980734Y-3132371D01*
X38018013Y-3073278D01*
X38081323Y-3043721D01*
X38150562Y-3053083D01*
X38203749Y-3098393D01*
X38219266Y-3132372D01*
X38245769Y-3225523D01*
X38245775Y-3225538D01*
X38344938Y-3424683D01*
X38344943Y-3424691D01*
X38479020Y-3602238D01*
X38643437Y-3752123D01*
X38643439Y-3752125D01*
X38832595Y-3869245D01*
X38832596Y-3869245D01*
X38832599Y-3869247D01*
X39040060Y-3949618D01*
X39258757Y-3990500D01*
X39258759Y-3990500D01*
X39481241Y-3990500D01*
X39481243Y-3990500D01*
X39699940Y-3949618D01*
X39907401Y-3869247D01*
X40096562Y-3752124D01*
X40260981Y-3602236D01*
X40395058Y-3424689D01*
X40494229Y-3225528D01*
X40520734Y-3132371D01*
X40558013Y-3073278D01*
X40621323Y-3043721D01*
X40690562Y-3053083D01*
X40743749Y-3098393D01*
X40759266Y-3132372D01*
X40785769Y-3225523D01*
X40785775Y-3225538D01*
X40884938Y-3424683D01*
X40884943Y-3424691D01*
X41019020Y-3602238D01*
X41183437Y-3752123D01*
X41183439Y-3752125D01*
X41372595Y-3869245D01*
X41372596Y-3869245D01*
X41372599Y-3869247D01*
X41580060Y-3949618D01*
X41798757Y-3990500D01*
X41798759Y-3990500D01*
X42021241Y-3990500D01*
X42021243Y-3990500D01*
X42239940Y-3949618D01*
X42447401Y-3869247D01*
X42636562Y-3752124D01*
X42800981Y-3602236D01*
X42935058Y-3424689D01*
X43034229Y-3225528D01*
X43095115Y-3011536D01*
X43115643Y-2790000D01*
X44764357Y-2790000D01*
X44784884Y-3011535D01*
X44784885Y-3011537D01*
X44845769Y-3225523D01*
X44845775Y-3225538D01*
X44944938Y-3424683D01*
X44944943Y-3424691D01*
X45079020Y-3602238D01*
X45243437Y-3752123D01*
X45243439Y-3752125D01*
X45432595Y-3869245D01*
X45432596Y-3869245D01*
X45432599Y-3869247D01*
X45640060Y-3949618D01*
X45858757Y-3990500D01*
X45858759Y-3990500D01*
X46081241Y-3990500D01*
X46081243Y-3990500D01*
X46299940Y-3949618D01*
X46507401Y-3869247D01*
X46696562Y-3752124D01*
X46860981Y-3602236D01*
X46995058Y-3424689D01*
X47094229Y-3225528D01*
X47120734Y-3132371D01*
X47158013Y-3073278D01*
X47221323Y-3043721D01*
X47290562Y-3053083D01*
X47343749Y-3098393D01*
X47359266Y-3132372D01*
X47385769Y-3225523D01*
X47385775Y-3225538D01*
X47484938Y-3424683D01*
X47484943Y-3424691D01*
X47619020Y-3602238D01*
X47783437Y-3752123D01*
X47783439Y-3752125D01*
X47972595Y-3869245D01*
X47972596Y-3869245D01*
X47972599Y-3869247D01*
X48180060Y-3949618D01*
X48398757Y-3990500D01*
X48398759Y-3990500D01*
X48621241Y-3990500D01*
X48621243Y-3990500D01*
X48839940Y-3949618D01*
X49047401Y-3869247D01*
X49236562Y-3752124D01*
X49400981Y-3602236D01*
X49535058Y-3424689D01*
X49634229Y-3225528D01*
X49660734Y-3132371D01*
X49698013Y-3073278D01*
X49761323Y-3043721D01*
X49830562Y-3053083D01*
X49883749Y-3098393D01*
X49899266Y-3132372D01*
X49925769Y-3225523D01*
X49925775Y-3225538D01*
X50024938Y-3424683D01*
X50024943Y-3424691D01*
X50159020Y-3602238D01*
X50323437Y-3752123D01*
X50323439Y-3752125D01*
X50512595Y-3869245D01*
X50512596Y-3869245D01*
X50512599Y-3869247D01*
X50720060Y-3949618D01*
X50938757Y-3990500D01*
X50938759Y-3990500D01*
X51161241Y-3990500D01*
X51161243Y-3990500D01*
X51379940Y-3949618D01*
X51587401Y-3869247D01*
X51776562Y-3752124D01*
X51940981Y-3602236D01*
X52075058Y-3424689D01*
X52174229Y-3225528D01*
X52200734Y-3132371D01*
X52238013Y-3073278D01*
X52301323Y-3043721D01*
X52370562Y-3053083D01*
X52423749Y-3098393D01*
X52439266Y-3132372D01*
X52465769Y-3225523D01*
X52465775Y-3225538D01*
X52564938Y-3424683D01*
X52564943Y-3424691D01*
X52699020Y-3602238D01*
X52863437Y-3752123D01*
X52863439Y-3752125D01*
X53052595Y-3869245D01*
X53052596Y-3869245D01*
X53052599Y-3869247D01*
X53260060Y-3949618D01*
X53478757Y-3990500D01*
X53478759Y-3990500D01*
X53701241Y-3990500D01*
X53701243Y-3990500D01*
X53919940Y-3949618D01*
X54127401Y-3869247D01*
X54316562Y-3752124D01*
X54480981Y-3602236D01*
X54615058Y-3424689D01*
X54714229Y-3225528D01*
X54740734Y-3132371D01*
X54778013Y-3073278D01*
X54841323Y-3043721D01*
X54910562Y-3053083D01*
X54963749Y-3098393D01*
X54979266Y-3132372D01*
X55005769Y-3225523D01*
X55005775Y-3225538D01*
X55104938Y-3424683D01*
X55104943Y-3424691D01*
X55239020Y-3602238D01*
X55403437Y-3752123D01*
X55403439Y-3752125D01*
X55592595Y-3869245D01*
X55592596Y-3869245D01*
X55592599Y-3869247D01*
X55800060Y-3949618D01*
X56018757Y-3990500D01*
X56018759Y-3990500D01*
X56241241Y-3990500D01*
X56241243Y-3990500D01*
X56459940Y-3949618D01*
X56667401Y-3869247D01*
X56856562Y-3752124D01*
X57020981Y-3602236D01*
X57155058Y-3424689D01*
X57254229Y-3225528D01*
X57280734Y-3132371D01*
X57318013Y-3073278D01*
X57381323Y-3043721D01*
X57450562Y-3053083D01*
X57503749Y-3098393D01*
X57519266Y-3132372D01*
X57545769Y-3225523D01*
X57545775Y-3225538D01*
X57644938Y-3424683D01*
X57644943Y-3424691D01*
X57779020Y-3602238D01*
X57943437Y-3752123D01*
X57943439Y-3752125D01*
X58132595Y-3869245D01*
X58132596Y-3869245D01*
X58132599Y-3869247D01*
X58340060Y-3949618D01*
X58558757Y-3990500D01*
X58558759Y-3990500D01*
X58781241Y-3990500D01*
X58781243Y-3990500D01*
X58999940Y-3949618D01*
X59207401Y-3869247D01*
X59396562Y-3752124D01*
X59560981Y-3602236D01*
X59695058Y-3424689D01*
X59794229Y-3225528D01*
X59820734Y-3132371D01*
X59858013Y-3073278D01*
X59921323Y-3043721D01*
X59990562Y-3053083D01*
X60043749Y-3098393D01*
X60059266Y-3132372D01*
X60085769Y-3225523D01*
X60085775Y-3225538D01*
X60184938Y-3424683D01*
X60184943Y-3424691D01*
X60319020Y-3602238D01*
X60483437Y-3752123D01*
X60483439Y-3752125D01*
X60672595Y-3869245D01*
X60672596Y-3869245D01*
X60672599Y-3869247D01*
X60880060Y-3949618D01*
X61098757Y-3990500D01*
X61098759Y-3990500D01*
X61321241Y-3990500D01*
X61321243Y-3990500D01*
X61539940Y-3949618D01*
X61747401Y-3869247D01*
X61936562Y-3752124D01*
X62100981Y-3602236D01*
X62235058Y-3424689D01*
X62334229Y-3225528D01*
X62360734Y-3132371D01*
X62398013Y-3073278D01*
X62461323Y-3043721D01*
X62530562Y-3053083D01*
X62583749Y-3098393D01*
X62599266Y-3132372D01*
X62625769Y-3225523D01*
X62625775Y-3225538D01*
X62724938Y-3424683D01*
X62724943Y-3424691D01*
X62859020Y-3602238D01*
X63023437Y-3752123D01*
X63023439Y-3752125D01*
X63212595Y-3869245D01*
X63212596Y-3869245D01*
X63212599Y-3869247D01*
X63420060Y-3949618D01*
X63638757Y-3990500D01*
X63638759Y-3990500D01*
X63861241Y-3990500D01*
X63861243Y-3990500D01*
X64079940Y-3949618D01*
X64287401Y-3869247D01*
X64476562Y-3752124D01*
X64640981Y-3602236D01*
X64775058Y-3424689D01*
X64874229Y-3225528D01*
X64935115Y-3011536D01*
X64955643Y-2790000D01*
X64935115Y-2568464D01*
X64874229Y-2354472D01*
X64857405Y-2320685D01*
X64775061Y-2155316D01*
X64775056Y-2155308D01*
X64640979Y-1977761D01*
X64476562Y-1827876D01*
X64476560Y-1827874D01*
X64287404Y-1710754D01*
X64287398Y-1710752D01*
X64286464Y-1710390D01*
X64079940Y-1630382D01*
X63861243Y-1589500D01*
X63638757Y-1589500D01*
X63420060Y-1630382D01*
X63288864Y-1681207D01*
X63212601Y-1710752D01*
X63212595Y-1710754D01*
X63023439Y-1827874D01*
X63023437Y-1827876D01*
X62859020Y-1977761D01*
X62724943Y-2155308D01*
X62724938Y-2155316D01*
X62625775Y-2354461D01*
X62625769Y-2354476D01*
X62599266Y-2447627D01*
X62561987Y-2506721D01*
X62498677Y-2536278D01*
X62429438Y-2526916D01*
X62376251Y-2481606D01*
X62360734Y-2447627D01*
X62334230Y-2354476D01*
X62334229Y-2354472D01*
X62317405Y-2320685D01*
X62235061Y-2155316D01*
X62235056Y-2155308D01*
X62100979Y-1977761D01*
X61936562Y-1827876D01*
X61936560Y-1827874D01*
X61747404Y-1710754D01*
X61747398Y-1710752D01*
X61746464Y-1710390D01*
X61539940Y-1630382D01*
X61321243Y-1589500D01*
X61098757Y-1589500D01*
X60880060Y-1630382D01*
X60748864Y-1681207D01*
X60672601Y-1710752D01*
X60672595Y-1710754D01*
X60483439Y-1827874D01*
X60483437Y-1827876D01*
X60319020Y-1977761D01*
X60184943Y-2155308D01*
X60184938Y-2155316D01*
X60085775Y-2354461D01*
X60085769Y-2354476D01*
X60059266Y-2447627D01*
X60021987Y-2506721D01*
X59958677Y-2536278D01*
X59889438Y-2526916D01*
X59836251Y-2481606D01*
X59820734Y-2447627D01*
X59794230Y-2354476D01*
X59794229Y-2354472D01*
X59777405Y-2320685D01*
X59695061Y-2155316D01*
X59695056Y-2155308D01*
X59560979Y-1977761D01*
X59396562Y-1827876D01*
X59396560Y-1827874D01*
X59207404Y-1710754D01*
X59207398Y-1710752D01*
X59206464Y-1710390D01*
X58999940Y-1630382D01*
X58781243Y-1589500D01*
X58558757Y-1589500D01*
X58340060Y-1630382D01*
X58208864Y-1681207D01*
X58132601Y-1710752D01*
X58132595Y-1710754D01*
X57943439Y-1827874D01*
X57943437Y-1827876D01*
X57779020Y-1977761D01*
X57644943Y-2155308D01*
X57644938Y-2155316D01*
X57545775Y-2354461D01*
X57545769Y-2354476D01*
X57519266Y-2447627D01*
X57481987Y-2506721D01*
X57418677Y-2536278D01*
X57349438Y-2526916D01*
X57296251Y-2481606D01*
X57280734Y-2447627D01*
X57254230Y-2354476D01*
X57254229Y-2354472D01*
X57237405Y-2320685D01*
X57155061Y-2155316D01*
X57155056Y-2155308D01*
X57020979Y-1977761D01*
X56856562Y-1827876D01*
X56856560Y-1827874D01*
X56667404Y-1710754D01*
X56667398Y-1710752D01*
X56666464Y-1710390D01*
X56459940Y-1630382D01*
X56241243Y-1589500D01*
X56018757Y-1589500D01*
X55800060Y-1630382D01*
X55668864Y-1681207D01*
X55592601Y-1710752D01*
X55592595Y-1710754D01*
X55403439Y-1827874D01*
X55403437Y-1827876D01*
X55239020Y-1977761D01*
X55104943Y-2155308D01*
X55104938Y-2155316D01*
X55005775Y-2354461D01*
X55005769Y-2354476D01*
X54979266Y-2447627D01*
X54941987Y-2506721D01*
X54878677Y-2536278D01*
X54809438Y-2526916D01*
X54756251Y-2481606D01*
X54740734Y-2447627D01*
X54714230Y-2354476D01*
X54714229Y-2354472D01*
X54697405Y-2320685D01*
X54615061Y-2155316D01*
X54615056Y-2155308D01*
X54480979Y-1977761D01*
X54316562Y-1827876D01*
X54316560Y-1827874D01*
X54127404Y-1710754D01*
X54127398Y-1710752D01*
X54126464Y-1710390D01*
X53919940Y-1630382D01*
X53701243Y-1589500D01*
X53478757Y-1589500D01*
X53260060Y-1630382D01*
X53128864Y-1681207D01*
X53052601Y-1710752D01*
X53052595Y-1710754D01*
X52863439Y-1827874D01*
X52863437Y-1827876D01*
X52699020Y-1977761D01*
X52564943Y-2155308D01*
X52564938Y-2155316D01*
X52465775Y-2354461D01*
X52465769Y-2354476D01*
X52439266Y-2447627D01*
X52401987Y-2506721D01*
X52338677Y-2536278D01*
X52269438Y-2526916D01*
X52216251Y-2481606D01*
X52200734Y-2447627D01*
X52174230Y-2354476D01*
X52174229Y-2354472D01*
X52157405Y-2320685D01*
X52075061Y-2155316D01*
X52075056Y-2155308D01*
X51940979Y-1977761D01*
X51776562Y-1827876D01*
X51776560Y-1827874D01*
X51587404Y-1710754D01*
X51587398Y-1710752D01*
X51586464Y-1710390D01*
X51379940Y-1630382D01*
X51161243Y-1589500D01*
X50938757Y-1589500D01*
X50720060Y-1630382D01*
X50588864Y-1681207D01*
X50512601Y-1710752D01*
X50512595Y-1710754D01*
X50323439Y-1827874D01*
X50323437Y-1827876D01*
X50159020Y-1977761D01*
X50024943Y-2155308D01*
X50024938Y-2155316D01*
X49925775Y-2354461D01*
X49925769Y-2354476D01*
X49899266Y-2447627D01*
X49861987Y-2506721D01*
X49798677Y-2536278D01*
X49729438Y-2526916D01*
X49676251Y-2481606D01*
X49660734Y-2447627D01*
X49634230Y-2354476D01*
X49634229Y-2354472D01*
X49617405Y-2320685D01*
X49535061Y-2155316D01*
X49535056Y-2155308D01*
X49400979Y-1977761D01*
X49236562Y-1827876D01*
X49236560Y-1827874D01*
X49047404Y-1710754D01*
X49047398Y-1710752D01*
X49046464Y-1710390D01*
X48839940Y-1630382D01*
X48621243Y-1589500D01*
X48398757Y-1589500D01*
X48180060Y-1630382D01*
X48048864Y-1681207D01*
X47972601Y-1710752D01*
X47972595Y-1710754D01*
X47783439Y-1827874D01*
X47783437Y-1827876D01*
X47619020Y-1977761D01*
X47484943Y-2155308D01*
X47484938Y-2155316D01*
X47385775Y-2354461D01*
X47385769Y-2354476D01*
X47359266Y-2447627D01*
X47321987Y-2506721D01*
X47258677Y-2536278D01*
X47189438Y-2526916D01*
X47136251Y-2481606D01*
X47120734Y-2447627D01*
X47094230Y-2354476D01*
X47094229Y-2354472D01*
X47077405Y-2320685D01*
X46995061Y-2155316D01*
X46995056Y-2155308D01*
X46860979Y-1977761D01*
X46696562Y-1827876D01*
X46696560Y-1827874D01*
X46507404Y-1710754D01*
X46507398Y-1710752D01*
X46506464Y-1710390D01*
X46299940Y-1630382D01*
X46081243Y-1589500D01*
X45858757Y-1589500D01*
X45640060Y-1630382D01*
X45508864Y-1681207D01*
X45432601Y-1710752D01*
X45432595Y-1710754D01*
X45243439Y-1827874D01*
X45243437Y-1827876D01*
X45079020Y-1977761D01*
X44944943Y-2155308D01*
X44944938Y-2155316D01*
X44845775Y-2354461D01*
X44845769Y-2354476D01*
X44784885Y-2568462D01*
X44784884Y-2568464D01*
X44764357Y-2789999D01*
X44764357Y-2790000D01*
X43115643Y-2790000D01*
X43095115Y-2568464D01*
X43034229Y-2354472D01*
X43017405Y-2320685D01*
X42935061Y-2155316D01*
X42935056Y-2155308D01*
X42800979Y-1977761D01*
X42636562Y-1827876D01*
X42636560Y-1827874D01*
X42447404Y-1710754D01*
X42447398Y-1710752D01*
X42446464Y-1710390D01*
X42239940Y-1630382D01*
X42021243Y-1589500D01*
X41798757Y-1589500D01*
X41580060Y-1630382D01*
X41448864Y-1681207D01*
X41372601Y-1710752D01*
X41372595Y-1710754D01*
X41183439Y-1827874D01*
X41183437Y-1827876D01*
X41019020Y-1977761D01*
X40884943Y-2155308D01*
X40884938Y-2155316D01*
X40785775Y-2354461D01*
X40785769Y-2354476D01*
X40759266Y-2447627D01*
X40721987Y-2506721D01*
X40658677Y-2536278D01*
X40589438Y-2526916D01*
X40536251Y-2481606D01*
X40520734Y-2447627D01*
X40494230Y-2354476D01*
X40494229Y-2354472D01*
X40477405Y-2320685D01*
X40395061Y-2155316D01*
X40395056Y-2155308D01*
X40260979Y-1977761D01*
X40096562Y-1827876D01*
X40096560Y-1827874D01*
X39907404Y-1710754D01*
X39907398Y-1710752D01*
X39906464Y-1710390D01*
X39699940Y-1630382D01*
X39481243Y-1589500D01*
X39258757Y-1589500D01*
X39040060Y-1630382D01*
X38908864Y-1681207D01*
X38832601Y-1710752D01*
X38832595Y-1710754D01*
X38643439Y-1827874D01*
X38643437Y-1827876D01*
X38479020Y-1977761D01*
X38344943Y-2155308D01*
X38344938Y-2155316D01*
X38245775Y-2354461D01*
X38245769Y-2354476D01*
X38219266Y-2447627D01*
X38181987Y-2506721D01*
X38118677Y-2536278D01*
X38049438Y-2526916D01*
X37996251Y-2481606D01*
X37980734Y-2447627D01*
X37954230Y-2354476D01*
X37954229Y-2354472D01*
X37937405Y-2320685D01*
X37855061Y-2155316D01*
X37855056Y-2155308D01*
X37720979Y-1977761D01*
X37556562Y-1827876D01*
X37556560Y-1827874D01*
X37367404Y-1710754D01*
X37367398Y-1710752D01*
X37366464Y-1710390D01*
X37159940Y-1630382D01*
X36941243Y-1589500D01*
X36718757Y-1589500D01*
X36500060Y-1630382D01*
X36368864Y-1681207D01*
X36292601Y-1710752D01*
X36292595Y-1710754D01*
X36103439Y-1827874D01*
X36103437Y-1827876D01*
X35939020Y-1977761D01*
X35804943Y-2155308D01*
X35804938Y-2155316D01*
X35705775Y-2354461D01*
X35705769Y-2354476D01*
X35679266Y-2447627D01*
X35641987Y-2506721D01*
X35578677Y-2536278D01*
X35509438Y-2526916D01*
X35456251Y-2481606D01*
X35440734Y-2447627D01*
X35414230Y-2354476D01*
X35414229Y-2354472D01*
X35397405Y-2320685D01*
X35315061Y-2155316D01*
X35315056Y-2155308D01*
X35180979Y-1977761D01*
X35016562Y-1827876D01*
X35016560Y-1827874D01*
X34827404Y-1710754D01*
X34827398Y-1710752D01*
X34826464Y-1710390D01*
X34619940Y-1630382D01*
X34401243Y-1589500D01*
X34178757Y-1589500D01*
X33960060Y-1630382D01*
X33828864Y-1681207D01*
X33752601Y-1710752D01*
X33752595Y-1710754D01*
X33563439Y-1827874D01*
X33563437Y-1827876D01*
X33399020Y-1977761D01*
X33264943Y-2155308D01*
X33264938Y-2155316D01*
X33165775Y-2354461D01*
X33165769Y-2354476D01*
X33139266Y-2447627D01*
X33101987Y-2506721D01*
X33038677Y-2536278D01*
X32969438Y-2526916D01*
X32916251Y-2481606D01*
X32900734Y-2447627D01*
X32874230Y-2354476D01*
X32874229Y-2354472D01*
X32857405Y-2320685D01*
X32775061Y-2155316D01*
X32775056Y-2155308D01*
X32640979Y-1977761D01*
X32476562Y-1827876D01*
X32476560Y-1827874D01*
X32287404Y-1710754D01*
X32287398Y-1710752D01*
X32286464Y-1710390D01*
X32079940Y-1630382D01*
X31861243Y-1589500D01*
X31638757Y-1589500D01*
X31420060Y-1630382D01*
X31288864Y-1681207D01*
X31212601Y-1710752D01*
X31212595Y-1710754D01*
X31023439Y-1827874D01*
X31023437Y-1827876D01*
X30859020Y-1977761D01*
X30724943Y-2155308D01*
X30724938Y-2155316D01*
X30625775Y-2354461D01*
X30625769Y-2354476D01*
X30599266Y-2447627D01*
X30561987Y-2506721D01*
X30498677Y-2536278D01*
X30429438Y-2526916D01*
X30376251Y-2481606D01*
X30360734Y-2447627D01*
X30334230Y-2354476D01*
X30334229Y-2354472D01*
X30317405Y-2320685D01*
X30235061Y-2155316D01*
X30235056Y-2155308D01*
X30100979Y-1977761D01*
X29936562Y-1827876D01*
X29936560Y-1827874D01*
X29747404Y-1710754D01*
X29747398Y-1710752D01*
X29746464Y-1710390D01*
X29539940Y-1630382D01*
X29321243Y-1589500D01*
X29098757Y-1589500D01*
X28880060Y-1630382D01*
X28748864Y-1681207D01*
X28672601Y-1710752D01*
X28672595Y-1710754D01*
X28483439Y-1827874D01*
X28483437Y-1827876D01*
X28319020Y-1977761D01*
X28184943Y-2155308D01*
X28184938Y-2155316D01*
X28085775Y-2354461D01*
X28085770Y-2354474D01*
X28059006Y-2448540D01*
X28021726Y-2507633D01*
X27958417Y-2537190D01*
X27889177Y-2527828D01*
X27835991Y-2482518D01*
X27820473Y-2448538D01*
X27793760Y-2354650D01*
X27694631Y-2155574D01*
X27560608Y-1978099D01*
X27396261Y-1828278D01*
X27207179Y-1711202D01*
X27207177Y-1711201D01*
X26999799Y-1630864D01*
X26920000Y-1615946D01*
X26920000Y-2354498D01*
X26812315Y-2305320D01*
X26705763Y-2290000D01*
X26634237Y-2290000D01*
X26527685Y-2305320D01*
X26420000Y-2354498D01*
X26420000Y-1615946D01*
X26340200Y-1630864D01*
X26132822Y-1711201D01*
X26132820Y-1711202D01*
X25943738Y-1828278D01*
X25779391Y-1978099D01*
X25645368Y-2155574D01*
X25546239Y-2354651D01*
X25546237Y-2354655D01*
X25519525Y-2448540D01*
X25482246Y-2507633D01*
X25418936Y-2537190D01*
X25349697Y-2527828D01*
X25296510Y-2482518D01*
X25280994Y-2448541D01*
X25254229Y-2354472D01*
X25237405Y-2320685D01*
X25155061Y-2155316D01*
X25155056Y-2155308D01*
X25020979Y-1977761D01*
X24856562Y-1827876D01*
X24856560Y-1827874D01*
X24667404Y-1710754D01*
X24667398Y-1710752D01*
X24666464Y-1710390D01*
X24459940Y-1630382D01*
X24241243Y-1589500D01*
X24018757Y-1589500D01*
X23800060Y-1630382D01*
X23668864Y-1681207D01*
X23592601Y-1710752D01*
X23592595Y-1710754D01*
X23403439Y-1827874D01*
X23403437Y-1827876D01*
X23239020Y-1977761D01*
X23104943Y-2155308D01*
X23104938Y-2155316D01*
X23005775Y-2354461D01*
X23005769Y-2354476D01*
X22979266Y-2447627D01*
X22941987Y-2506721D01*
X22878677Y-2536278D01*
X22809438Y-2526916D01*
X22756251Y-2481606D01*
X22740734Y-2447627D01*
X22714230Y-2354476D01*
X22714229Y-2354472D01*
X22697405Y-2320685D01*
X22615061Y-2155316D01*
X22615056Y-2155308D01*
X22480979Y-1977761D01*
X22316562Y-1827876D01*
X22316560Y-1827874D01*
X22127404Y-1710754D01*
X22127398Y-1710752D01*
X22126464Y-1710390D01*
X21919940Y-1630382D01*
X21701243Y-1589500D01*
X21478757Y-1589500D01*
X21260060Y-1630382D01*
X21128864Y-1681207D01*
X21052601Y-1710752D01*
X21052595Y-1710754D01*
X20863439Y-1827874D01*
X20863437Y-1827876D01*
X20699020Y-1977761D01*
X20564943Y-2155308D01*
X20564938Y-2155316D01*
X20465775Y-2354461D01*
X20465769Y-2354476D01*
X20439266Y-2447627D01*
X20401987Y-2506721D01*
X20338677Y-2536278D01*
X20269438Y-2526916D01*
X20216251Y-2481606D01*
X20200734Y-2447627D01*
X20174230Y-2354476D01*
X20174229Y-2354472D01*
X20157405Y-2320685D01*
X20075061Y-2155316D01*
X20075056Y-2155308D01*
X19940979Y-1977761D01*
X19776562Y-1827876D01*
X19776560Y-1827874D01*
X19587404Y-1710754D01*
X19587398Y-1710752D01*
X19586464Y-1710390D01*
X19379940Y-1630382D01*
X19161243Y-1589500D01*
X18938757Y-1589500D01*
X18720060Y-1630382D01*
X18588864Y-1681207D01*
X18512601Y-1710752D01*
X18512595Y-1710754D01*
X18323439Y-1827874D01*
X18323437Y-1827876D01*
X18159020Y-1977761D01*
X18024943Y-2155308D01*
X18024938Y-2155316D01*
X17925775Y-2354461D01*
X17925769Y-2354476D01*
X17864885Y-2568462D01*
X17864884Y-2568464D01*
X17844357Y-2789999D01*
X17844357Y-2790000D01*
X17341735Y-2790000D01*
X17344212Y-2722235D01*
X17314586Y-2452982D01*
X17246072Y-2190912D01*
X17140130Y-1941610D01*
X16999018Y-1710390D01*
X16975825Y-1682520D01*
X16825746Y-1502180D01*
X16825740Y-1502175D01*
X16624002Y-1321418D01*
X16398092Y-1171957D01*
X16398090Y-1171956D01*
X16152824Y-1056980D01*
X16152819Y-1056978D01*
X16152814Y-1056976D01*
X15893442Y-978942D01*
X15893428Y-978939D01*
X15777238Y-961840D01*
X15625439Y-939500D01*
X15422369Y-939500D01*
X15422364Y-939500D01*
X15219844Y-954323D01*
X15219831Y-954325D01*
X14955453Y-1013217D01*
X14955446Y-1013220D01*
X14702439Y-1109987D01*
X14466226Y-1242557D01*
X14251822Y-1408112D01*
X14063822Y-1603109D01*
X14063816Y-1603116D01*
X13906202Y-1823419D01*
X13906199Y-1823424D01*
X13782350Y-2064309D01*
X13782343Y-2064327D01*
X13694884Y-2320685D01*
X13694881Y-2320699D01*
X13680576Y-2398148D01*
X13649118Y-2568462D01*
X13645681Y-2587068D01*
X13645680Y-2587075D01*
X13635787Y-2857763D01*
X4764210Y-2857763D01*
X4316252Y-2409804D01*
X4382969Y-2399238D01*
X4502923Y-2338118D01*
X4598118Y-2242923D01*
X4659238Y-2122969D01*
X4669804Y-2056252D01*
X5205312Y-2591761D01*
X5205313Y-2591760D01*
X5210593Y-2584771D01*
X5303521Y-2398148D01*
X5303527Y-2398133D01*
X5360582Y-2197605D01*
X5360583Y-2197603D01*
X5379820Y-1990000D01*
X5379820Y-1989999D01*
X5360583Y-1782396D01*
X5360582Y-1782394D01*
X5303527Y-1581866D01*
X5303521Y-1581851D01*
X5210593Y-1395227D01*
X5205313Y-1388238D01*
X4669804Y-1923746D01*
X4659238Y-1857031D01*
X4598118Y-1737077D01*
X4502923Y-1641882D01*
X4382969Y-1580762D01*
X4316252Y-1570195D01*
X4848847Y-1037599D01*
X4753602Y-978626D01*
X4753601Y-978625D01*
X4559197Y-903313D01*
X4559187Y-903310D01*
X4354244Y-865000D01*
X4145756Y-865000D01*
X3940812Y-903310D01*
X3940811Y-903310D01*
X3746398Y-978625D01*
X3746392Y-978629D01*
X3651152Y-1037598D01*
X3651151Y-1037599D01*
X4183748Y-1570195D01*
X4117031Y-1580762D01*
X3997077Y-1641882D01*
X3901882Y-1737077D01*
X3840762Y-1857031D01*
X3830195Y-1923747D01*
X3294685Y-1388237D01*
X3289412Y-1395219D01*
X3289404Y-1395232D01*
X3196478Y-1581851D01*
X3196472Y-1581866D01*
X3139417Y-1782394D01*
X3139416Y-1782396D01*
X3120180Y-1989999D01*
X3120180Y-1990000D01*
X1950713Y-1990000D01*
X2102338Y-1974581D01*
X2296381Y-1913700D01*
X2296391Y-1913695D01*
X2474215Y-1814994D01*
X2474216Y-1814994D01*
X2628530Y-1682521D01*
X2628531Y-1682520D01*
X2753018Y-1521695D01*
X2842588Y-1339093D01*
X2868246Y-1240000D01*
X2066111Y-1240000D01*
X2105610Y-1215543D01*
X2173201Y-1126038D01*
X2203895Y-1018160D01*
X2193546Y-906479D01*
X2143552Y-806078D01*
X2071069Y-740000D01*
X2873366Y-740000D01*
X2873068Y-738053D01*
X2873066Y-738047D01*
X2802437Y-547342D01*
X2802434Y-547335D01*
X2694850Y-374732D01*
X2561960Y-234932D01*
X2530039Y-172780D01*
X2536787Y-103237D01*
X2580062Y-48382D01*
X2646124Y-25632D01*
X2651834Y-25500D01*
X64708075Y-25500D01*
X64775114Y-45185D01*
G37*
%TD.AperFunction*%
%TD*%
%TA.AperFunction,Conductor*%
%TO.N,+5V*%
G36*
X7587306Y-12499978D02*
G01*
X7595572Y-12503419D01*
X7598985Y-12511697D01*
X7598945Y-12512650D01*
X7500894Y-13689272D01*
X7496792Y-13697232D01*
X7489234Y-13700000D01*
X6510766Y-13700000D01*
X6502493Y-13696573D01*
X6499106Y-13689272D01*
X6401054Y-12512650D01*
X6403782Y-12504120D01*
X6411742Y-12500018D01*
X6412674Y-12499978D01*
X7000000Y-12499000D01*
X7587306Y-12499978D01*
G37*
%TD.AperFunction*%
%TD*%
%TA.AperFunction,Conductor*%
%TO.N,+5V*%
G36*
X7497507Y-34303427D02*
G01*
X7500894Y-34310728D01*
X7598945Y-35487349D01*
X7596217Y-35495879D01*
X7588257Y-35499981D01*
X7587305Y-35500021D01*
X7000000Y-35501000D01*
X6412694Y-35500021D01*
X6404427Y-35496580D01*
X6401014Y-35488301D01*
X6401054Y-35487349D01*
X6499106Y-34310728D01*
X6503208Y-34302768D01*
X6510766Y-34300000D01*
X7489234Y-34300000D01*
X7497507Y-34303427D01*
G37*
%TD.AperFunction*%
%TD*%
%TA.AperFunction,Conductor*%
%TO.N,/GPIO4*%
G36*
X46359109Y-26398719D02*
G01*
X46365427Y-26405066D01*
X46365551Y-26413655D01*
X46127859Y-27042437D01*
X46121728Y-27048964D01*
X46116915Y-27050000D01*
X45883085Y-27050000D01*
X45874812Y-27046573D01*
X45872141Y-27042437D01*
X45634448Y-26413655D01*
X45634728Y-26404705D01*
X45640889Y-26398719D01*
X45995500Y-26250875D01*
X46004449Y-26250855D01*
X46359109Y-26398719D01*
G37*
%TD.AperFunction*%
%TD*%
%TA.AperFunction,Conductor*%
%TO.N,/GPIO4*%
G36*
X46125188Y-32203427D02*
G01*
X46127859Y-32207563D01*
X46365551Y-32836344D01*
X46365271Y-32845294D01*
X46359109Y-32851280D01*
X46004502Y-32999123D01*
X45995548Y-32999144D01*
X45995498Y-32999123D01*
X45640890Y-32851280D01*
X45634572Y-32844933D01*
X45634448Y-32836345D01*
X45872141Y-32207562D01*
X45878272Y-32201036D01*
X45883085Y-32200000D01*
X46116915Y-32200000D01*
X46125188Y-32203427D01*
G37*
%TD.AperFunction*%
%TD*%
%TA.AperFunction,Conductor*%
%TO.N,+5V*%
G36*
X55001747Y-13292986D02*
G01*
X55005513Y-13295506D01*
X55347424Y-13637016D01*
X55842712Y-14131722D01*
X55846144Y-14139993D01*
X55842722Y-14148268D01*
X55842712Y-14148278D01*
X55005515Y-14984491D01*
X54997240Y-14987913D01*
X54992792Y-14987032D01*
X54157245Y-14642983D01*
X54150900Y-14636664D01*
X54150000Y-14632164D01*
X54150000Y-13647835D01*
X54153427Y-13639562D01*
X54157242Y-13637017D01*
X54992794Y-13292967D01*
X55001747Y-13292986D01*
G37*
%TD.AperFunction*%
%TD*%
%TA.AperFunction,Conductor*%
%TO.N,/IOREF*%
G36*
X53455220Y-18774327D02*
G01*
X53997834Y-18998106D01*
X54001655Y-19000659D01*
X54414917Y-19414895D01*
X54418334Y-19423172D01*
X54414897Y-19431441D01*
X54413819Y-19432392D01*
X53803169Y-19907585D01*
X53795984Y-19910051D01*
X52820076Y-19910051D01*
X52811803Y-19906624D01*
X52808376Y-19898351D01*
X52809896Y-19892584D01*
X53080529Y-19414895D01*
X53440580Y-18779376D01*
X53447640Y-18773868D01*
X53455220Y-18774327D01*
G37*
%TD.AperFunction*%
%TD*%
%TA.AperFunction,Conductor*%
%TO.N,/IOREF*%
G36*
X53207416Y-29525233D02*
G01*
X53750000Y-29749000D01*
X54291416Y-29974238D01*
X54297738Y-29980579D01*
X54297724Y-29989534D01*
X54296762Y-29991370D01*
X53803454Y-30758234D01*
X53796096Y-30763338D01*
X53793614Y-30763604D01*
X52816002Y-30763604D01*
X52807729Y-30760177D01*
X52804302Y-30751904D01*
X52804853Y-30748356D01*
X53191816Y-29532505D01*
X53197591Y-29525660D01*
X53206513Y-29524904D01*
X53207416Y-29525233D01*
G37*
%TD.AperFunction*%
%TD*%
%TA.AperFunction,Conductor*%
%TO.N,/IOREF*%
G36*
X53801948Y-28753427D02*
G01*
X53803464Y-28755292D01*
X54296606Y-29508595D01*
X54298270Y-29517394D01*
X54293225Y-29524792D01*
X54291311Y-29525805D01*
X53750000Y-29751000D01*
X53207388Y-29974777D01*
X53198433Y-29974763D01*
X53192111Y-29968422D01*
X53191794Y-29967559D01*
X52804918Y-28765283D01*
X52805646Y-28756359D01*
X52812472Y-28750562D01*
X52816056Y-28750000D01*
X53793675Y-28750000D01*
X53801948Y-28753427D01*
G37*
%TD.AperFunction*%
%TD*%
%TA.AperFunction,Conductor*%
%TO.N,/IOREF*%
G36*
X31228563Y-49453427D02*
G01*
X31231790Y-49459544D01*
X31527405Y-51036161D01*
X31525561Y-51044924D01*
X31518061Y-51049817D01*
X31515920Y-51050017D01*
X30730000Y-51051000D01*
X29944079Y-51050017D01*
X29935811Y-51046580D01*
X29932394Y-51038302D01*
X29932593Y-51036169D01*
X30228210Y-49459542D01*
X30233103Y-49452044D01*
X30239710Y-49450000D01*
X31220290Y-49450000D01*
X31228563Y-49453427D01*
G37*
%TD.AperFunction*%
%TD*%
%TA.AperFunction,Conductor*%
%TO.N,Net-(A1-+5V)*%
G36*
X33512645Y-47191053D02*
G01*
X34689272Y-47289106D01*
X34697232Y-47293208D01*
X34700000Y-47300766D01*
X34700000Y-48279233D01*
X34696573Y-48287506D01*
X34689272Y-48290893D01*
X33512650Y-48388945D01*
X33504120Y-48386217D01*
X33500018Y-48378257D01*
X33499978Y-48377324D01*
X33499000Y-47790000D01*
X33499978Y-47202692D01*
X33503419Y-47194427D01*
X33511697Y-47191014D01*
X33512645Y-47191053D01*
G37*
%TD.AperFunction*%
%TD*%
%TA.AperFunction,Conductor*%
%TO.N,Net-(A1-+5V)*%
G36*
X37580196Y-49570560D02*
G01*
X38202909Y-49996626D01*
X38904065Y-50476364D01*
X38908958Y-50483864D01*
X38907114Y-50492627D01*
X38905741Y-50494283D01*
X38350707Y-51050707D01*
X37794283Y-51605741D01*
X37786005Y-51609158D01*
X37777737Y-51605721D01*
X37776364Y-51604065D01*
X36870560Y-50280196D01*
X36868716Y-50271433D01*
X36871941Y-50265318D01*
X37565317Y-49571942D01*
X37573589Y-49568516D01*
X37580196Y-49570560D01*
G37*
%TD.AperFunction*%
%TD*%
%TA.AperFunction,Conductor*%
%TO.N,/GPIO10*%
G36*
X21359109Y-15398719D02*
G01*
X21365427Y-15405066D01*
X21365551Y-15413655D01*
X21127859Y-16042437D01*
X21121728Y-16048964D01*
X21116915Y-16050000D01*
X20883085Y-16050000D01*
X20874812Y-16046573D01*
X20872141Y-16042437D01*
X20634448Y-15413655D01*
X20634728Y-15404705D01*
X20640889Y-15398719D01*
X20995500Y-15250875D01*
X21004449Y-15250855D01*
X21359109Y-15398719D01*
G37*
%TD.AperFunction*%
%TD*%
%TA.AperFunction,Conductor*%
%TO.N,/GPIO10*%
G36*
X21125188Y-32703427D02*
G01*
X21127859Y-32707563D01*
X21365551Y-33336344D01*
X21365271Y-33345294D01*
X21359109Y-33351280D01*
X21004502Y-33499123D01*
X20995548Y-33499144D01*
X20995498Y-33499123D01*
X20640890Y-33351280D01*
X20634572Y-33344933D01*
X20634448Y-33336345D01*
X20872141Y-32707562D01*
X20878272Y-32701036D01*
X20883085Y-32700000D01*
X21116915Y-32700000D01*
X21125188Y-32703427D01*
G37*
%TD.AperFunction*%
%TD*%
%TA.AperFunction,Conductor*%
%TO.N,/GPIO10*%
G36*
X39095294Y-26634728D02*
G01*
X39101280Y-26640890D01*
X39249123Y-26995498D01*
X39249144Y-27004452D01*
X39249123Y-27004502D01*
X39101280Y-27359109D01*
X39094933Y-27365427D01*
X39086344Y-27365551D01*
X38457563Y-27127858D01*
X38451036Y-27121727D01*
X38450000Y-27116914D01*
X38450000Y-26883085D01*
X38453427Y-26874812D01*
X38457563Y-26872141D01*
X39086345Y-26634448D01*
X39095294Y-26634728D01*
G37*
%TD.AperFunction*%
%TD*%
%TA.AperFunction,Conductor*%
%TO.N,/GPIO10*%
G36*
X34930696Y-26640890D02*
G01*
X35542437Y-26872141D01*
X35548964Y-26878272D01*
X35550000Y-26883085D01*
X35550000Y-27116914D01*
X35546573Y-27125187D01*
X35542437Y-27127858D01*
X34913655Y-27365551D01*
X34904705Y-27365271D01*
X34898719Y-27359109D01*
X34802306Y-27127858D01*
X34750875Y-27004499D01*
X34750855Y-26995550D01*
X34898719Y-26640889D01*
X34905066Y-26634572D01*
X34913654Y-26634448D01*
X34930696Y-26640890D01*
G37*
%TD.AperFunction*%
%TD*%
%TA.AperFunction,Conductor*%
%TO.N,+3.3V*%
G36*
X49613018Y-9926996D02*
G01*
X49614806Y-9927930D01*
X49623217Y-9933293D01*
X50174520Y-10284834D01*
X50264593Y-10342269D01*
X50269727Y-10349606D01*
X50268168Y-10358424D01*
X50266576Y-10360407D01*
X50102324Y-10524659D01*
X50097068Y-10527690D01*
X49612967Y-10656910D01*
X49604090Y-10655733D01*
X49599145Y-10650094D01*
X49478005Y-10358424D01*
X49451159Y-10293788D01*
X49451151Y-10284836D01*
X49597718Y-9933291D01*
X49604064Y-9926975D01*
X49613018Y-9926996D01*
G37*
%TD.AperFunction*%
%TD*%
%TA.AperFunction,Conductor*%
%TO.N,+3.3V*%
G36*
X38261986Y-36316043D02*
G01*
X38265525Y-36318470D01*
X38431529Y-36484474D01*
X38434956Y-36492747D01*
X38434169Y-36496965D01*
X38058641Y-37468450D01*
X38052462Y-37474932D01*
X38043510Y-37475145D01*
X38043267Y-37475048D01*
X37503792Y-37252562D01*
X37497451Y-37246240D01*
X37497437Y-37246207D01*
X37274951Y-36706732D01*
X37274965Y-36697777D01*
X37281306Y-36691455D01*
X37281510Y-36691373D01*
X38253035Y-36315830D01*
X38261986Y-36316043D01*
G37*
%TD.AperFunction*%
%TD*%
%TA.AperFunction,Conductor*%
%TO.N,+3.3V*%
G36*
X51004109Y-29792712D02*
G01*
X51004146Y-29792749D01*
X51273351Y-30063304D01*
X51276757Y-30071585D01*
X51273309Y-30079850D01*
X51272078Y-30080916D01*
X50676293Y-30527816D01*
X50667618Y-30530039D01*
X50660999Y-30526729D01*
X50495782Y-30361512D01*
X50492355Y-30353239D01*
X50492562Y-30351051D01*
X50598184Y-29799481D01*
X50603105Y-29792001D01*
X50609650Y-29789982D01*
X50995832Y-29789301D01*
X51004109Y-29792712D01*
G37*
%TD.AperFunction*%
%TD*%
%TA.AperFunction,Conductor*%
%TO.N,+3.3V*%
G36*
X51125188Y-28993427D02*
G01*
X51127859Y-28997563D01*
X51365551Y-29626344D01*
X51365271Y-29635294D01*
X51359109Y-29641280D01*
X51004502Y-29789123D01*
X50995548Y-29789144D01*
X50995498Y-29789123D01*
X50640890Y-29641280D01*
X50634572Y-29634933D01*
X50634448Y-29626345D01*
X50872141Y-28997562D01*
X50878272Y-28991036D01*
X50883085Y-28990000D01*
X51116915Y-28990000D01*
X51125188Y-28993427D01*
G37*
%TD.AperFunction*%
%TD*%
M02*
